<?xml version="1.0" encoding="UTF-8"?>
<svg id="Layer_1" xmlns="http://www.w3.org/2000/svg" version="1.1" viewBox="0 0 2000 2000">
  <!-- Generator: Adobe Illustrator 30.1.0, SVG Export Plug-In . SVG Version: 2.1.1 Build 136)  -->
  <defs>
    <style>
      .st0 {
        fill: #fff;
      }

      .st1 {
        fill: #ff145f;
      }
    </style>
  </defs>
  <rect class="st1" width="2000" height="2000"/>
  <g>
    <path class="st0" d="M1326.06,413.25c-5.96.65-11.93,1.6-17.89,2.79-28.83,5.79-54.98,17.34-77.99,35.76-21.92,17.55-38.83,39.24-51.99,63.85-4.54,8.46-8.35,17.32-12.51,25.98-.19.41-.41.83-.83,1.66-9.17-13.04-16.08-26.64-18.7-42.18.21,10.61,2.47,20.74,6.05,30.82-1.9-2.55-3.9-5.04-5.69-7.68-1.88-2.76-3.7-5.56-5.33-8.47-1.6-2.91-3.09-5.92-4.38-8.96-1.28-3.01-2.28-6.15-3.53-9.17.61,6.31,2.65,12.24,5.65,17.73,4.53,8.39,9.59,16.47,14.18,24.81,1.92,3.5,3.45,7.24,4.72,11.01,1.28,3.83.36,7.42-2.03,10.79-5.04,7.17-11.9,12.01-19.53,15.88-12.8,6.47-26.59,9.87-40.33,13.47-9.38,2.45-18.87,4.72-28.07,7.75-12.75,4.18-15.54,10.97-9.69,23.04,3.36,6.95,7.56,13.47,11.19,20.26,2.56,4.83,4.63,9.9,3.99,15.54-.97,8.26-5.74,13.71-12.87,17.34-3.49,1.79-7.1,3.32-10.49,5.23-5.45,3.06-7.28,7-5.25,12.93,1.6,4.62,4.23,8.92,6.4,13.32.45.9,1.06,1.73,1.72,2.82-3.11.28-5.85.38-8.54.86-7.67,1.33-10.74,5.52-9.33,13.13.85,4.6,2.09,9.11,3.52,13.56,3.28,10.27.43,18.67-7.19,25.87-3.52,3.36-7.07,6.69-10.25,10.35-2.11,2.4-3.53,5.33-5.27,8.03-.52,3-1.08,6-1.64,9.01,1.05,5.78,1.56,11.74,3.25,17.32,3.75,12.49,12.4,21.18,23.49,27.61,10.16,5.87,21.19,9.45,32.43,12.58,14.56,4.07,59.74,15.77,73.97,20.72-16.81,16.76-30.13,29.27-43.35,42.14-98.39-52.53-122.69-128.99-132.02-174.47-12.24-59.6,9.12-166.73,84.87-222.87-8.28.63-36.05,18.74-51.74,34.43,100.62-189.02,323.49-139.79,320.98-134.59Z"/>
    <path class="st0" d="M1147.31,868.61s139.27,54.83,151.32,226.7c8.66,123.62-147.43,196.16-147.43,196.16,0,0,229.56-44.14,353.17,132.44,0-220.73-8.83-759.3-8.83-759.3l3.94-3.16c24.17-19.33,57.81-21.6,84.35-5.67v909.29s-61.8,70.73-97.12-8.73c-35.32-79.46-86-155.47-353.17-150.09-138.16,2.78-149.09-48.51-142.88-80.11,2.21-11.22,7.16-21.7,13.78-31.02,27.01-38.07,111.84-90.29,160.11-175.46,69.59-122.77,17.59-162.22-60.59-208.91"/>
    <path class="st0" d="M1354.27,1560.76c0,56.08-45.46,101.54-101.54,101.54s-101.53-45.46-101.53-101.54,45.46-101.54,101.53-101.54,101.54,45.46,101.54,101.54"/>
    <path class="st0" d="M1629.93,1528.71v-854.36s-33.33-305-383.25-291.67c90.9-74.67,419.96-118.58,546.89,234.97,7.73,21.54,6.32,45.39,6.32,68.27v638.82c-.38,92.72-115.71,200.83-169.96,203.97Z"/>
    <path class="st0" d="M1268.52,1637.23c-4.11,1.95-76.26,34.6-297.18,31.57-201.75-2.74-212.62-169.67-173.71-265.75,17.37-42.88,173.49-317.21,173.49-317.21l-509.88-303.23,10.02,346.55,119.16-222.45s217.44,139.2,304.07,189.15c-76.62,459.93-694.3,359.95-694.3,359.95v-219.76c0-17.37,21.05-26.17,33.3-13.86,109.22,109.74,204.61,113.7,246.98,101.58,46.71-13.33,120.58-81.09,117.56-171.4-33.16,69.84-150.14,130.1-150.14,130.1l-238.09-429.09c-21.46-38.68-6.58-87.45,32.83-107.55l385.24-196.54,485.95,440.54c19.61,17.8,23.07,47.35,8.07,69.12,0,0-136.88,185.53-248.75,381.21-142.37,249.03,384.63,198.7,395.36,197.06"/>
    <path class="st0" d="M1387.6,507.4l1.6,9.95c.14,3.33.4,6.67.4,10-.01,21.52-5.73,41.09-19.76,57.83-7.76,9.26-16.72,17.25-25.77,25.18-10.36,9.07-20.97,17.88-29.87,28.46-6.24,7.42-11.36,15.49-13.73,25.05-2.96,11.97-.72,23.31,4.2,34.32,6.9,15.46,18.07,27.33,31.37,37.41,12.25,9.27,25.58,16.83,38.71,24.7,11.99,7.18,23.9,14.49,34.35,23.9,10.94,9.85,19.32,21.43,22.23,36.08,4.4,22.06.21,42.44-13.42,60.61-7.03,9.38-15.49,17.37-24.86,24.28-7.53,5.55-15.08,11.07-22.65,16.58,38.24-41.1,68.48-108.62-7.57-127.15-82.07-20-94.82-63.66-99.32-85.64-.11-2.07-.2-4.13-.29-6.2,1.21,4.55,2.8,9.08,4.79,13.59,8.82,20.04,31.28,33.67,51.31,42.13,8.85,3.74,18.02,6.71,25.82,12.56.81.61,1.62,1.24,2.43,1.86.1-.14.2-.28.3-.42-.71-.55-1.43-1.11-2.14-1.66-6.56-5.04-13.84-8.76-21.61-11.52-16.18-5.75-28.96-16.16-39.07-29.69-12.99-17.39-16.4-37.38-13.65-58.5,1.99-15.29,8.92-28.61,17.75-41.03,8.83-12.42,19.39-23.34,29.92-34.28,9.93-10.3,20.14-20.38,29.45-31.22,16.36-19.07,22.52-41.31,18.45-66.25-1.98-12.11-6.02-23.54-11.16-34.6-7.82-16.8-17.85-32.3-28.21-47.6-.77-1.13-1.51-2.28-2.27-3.42.52.02.79.21,1.04.43,14.68,13.14,27.86,27.61,38.83,44.01,8.6,12.85,15.61,26.48,19.92,41.41.85,2.95,1.66,5.91,2.49,8.87Z"/>
  </g>
</svg>