<svg width="72" height="48" viewBox="0 0 72 48" fill="none" xmlns="http://www.w3.org/2000/svg">
  <g>
    <path id="polygon161" fill="#d12053" d="M58.07,25.27l-11.69-1.83,1.55,6.97,10.14-5.13Z"/>
    <path id="polygon163" fill="#e2136e" d="M58.07,25.27l-8.81-12.24-2.88,10.41,11.69,1.83Z"/>
    <path id="polygon165" fill="#d12053" d="M46.11,23.3l-9.23-11.8,12.09,1.44-2.86,10.35Z"/>
    <path id="polygon167" fill="#9e1638" d="M41.9,18.37l-5.13-4.83h1.35l3.78,4.83Z"/>
    <path id="polygon169" fill="#d12053" d="M60.56,19.32l-2.17,5.88-3.52-4.86,5.69-1.02Z"/>
    <path id="polygon171" fill="#e2136e" d="M49.29,30.05l8.51-3.42.36-1.09-8.87,4.51Z"/>
    <path id="polygon173" fill="#9e1638" d="M42.49,36.5l3.65-12.79,1.85,8.32-5.5,4.47Z"/>
    <path id="polygon175" fill="#e2136e" d="M60.9,19.36l-.89,2.43,3.23-.05-2.33-2.38Z"/>
    <path id="path177" fill="#e2136e" d="M8.77,20.34c.16.01.32.04.48.04s.3-.03.48-.04v5.17c.51-.87,1.15-1.44,2.09-1.44,1.71,0,2.44,1.69,2.44,3.24,0,1.86-.99,3.64-2.73,3.64-.71.02-1.37-.36-1.71-.99-.29.26-.55.56-.82.84h-.22v-10.47ZM9.71,27.95c0,1.51.64,2.56,1.69,2.56,1.36,0,1.8-1.83,1.8-3.13,0-1.51-.5-2.7-1.68-2.71-1.38-.01-1.81,1.62-1.81,3.29"/>
    <path id="path179" fill="#231f20" d="M18.72,23.68l-1.03,1.32c.97,1.41,1.97,2.79,2.94,4.22l.98,1.54v.08c-.24-.02-.46-.05-.66-.05s-.46.03-.67.05c-.27-.49-.53-.95-.83-1.4l-2.65-3.91c-.06-.06-.2-.11-.2-.05v5.36c-.19-.02-.36-.05-.53-.05s-.36.03-.53.05v-10.51c.17.01.35.05.53.05s.34-.03.53-.05v4.74c0,.09.18.03.3-.09.23-.24.44-.49.64-.75l2.97-3.9c.16.01.31.05.48.05s.3-.03.47-.05l-2.74,3.35Z"/>
    <path id="path181" fill="#231f20" d="M26.72,29.66c0,.55-.04.82.68.64v.31c-.12.06-.24.1-.36.14-.63.13-1.15.01-1.25-.81l-.11.12c-.43.56-1.09.88-1.79.88-.86,0-1.6-.67-1.6-1.71,0-1.59,1.1-1.8,2.23-2.01.96-.18,1.28-.26,1.28-.94,0-1.04-.51-1.64-1.41-1.64-.63-.01-1.21.37-1.44.96h-.13v-.78c.54-.47,1.23-.74,1.96-.77,1.27,0,1.96.77,1.96,2.35v3.24ZM25.75,27.36l-.43.1c-.82.18-2.05.32-2.05,1.6,0,.88.44,1.32,1.18,1.32.38-.05.73-.24.98-.54.09-.1.33-.34.33-.44v-2.04Z"/>
    <path id="path183" fill="#231f20" d="M28.87,29.48c.29.55.82,1.04,1.39,1.04.67-.03,1.2-.6,1.19-1.27,0-1.89-2.85-.66-2.85-3.1,0-1.34.88-2.07,1.97-2.07.48-.01.95.11,1.37.36-.12.32-.21.65-.29.99h-.11c-.16-.46-.58-.92-1.03-.92-.6,0-1.1.41-1.1,1.16,0,1.79,2.85.84,2.85,3.07,0,1.5-1.16,2.2-2.23,2.2-.53,0-1.06-.15-1.51-.44.11-.34.19-.68.25-1.03h.1Z"/>
    <path id="path185" fill="#231f20" d="M33.88,20.34c.16.01.32.04.48.04s.3-.03.48-.04v5.09c.42-.85,1.09-1.35,1.95-1.35,1.4,0,1.95.96,1.95,2.72v4.05c-.18-.02-.32-.04-.48-.04s-.33.03-.48.04v-3.73c0-1.54-.31-2.32-1.34-2.32-1.09,0-1.58.78-1.58,2.24v3.81c-.18-.02-.32-.04-.48-.04s-.32.03-.48.04v-10.51Z"/>
  </g>
</svg>
