<svg width="72" height="48" viewBox="0 0 72 48" fill="none" xmlns="http://www.w3.org/2000/svg">
  <g id="g1438">
    <g id="g1406">
      <g id="g1390">
        <path id="path1386" fill="#ed1c24" d="M44.31,21.2h-10c-.2,0-.3.15-.3.3v.79c0,.2.15.3.3.3h7.48v4.16c-.2-.3-.45-.59-.69-.89-.89-.89-1.83-1.34-2.82-1.34-.79,0-1.44.4-1.98,1.09-.45.59-.69,1.29-.69,1.93s.1,1.49.59,2.28c.59.94,1.58,1.24,2.48,1.24,1.14,0,2.08-.79,2.08-1.83,0-.59-.3-1.09-.84-1.44l-.54-.3v.89c-.05.25-.45.59-.89.59-.4,0-.74-.15-.99-.4-.15-.15-.25-.45-.2-.64,0-.3.1-.54.3-.79.25-.3.5-.45.89-.45.99,0,1.83.45,2.52,1.44.54.84.84,1.63.84,2.52v2.08l1.49.89s.1.05.15.05c.2,0,.3-.15.3-.3v-10.74h.59c.2,0,.3-.15.3-.3v-.79c0-.2-.15-.35-.35-.35h0Z"/>
        <path id="path1388" fill="#ed1c24" d="M64.31,21.2h-12.67c-.2,0-.3.15-.3.3v1.39c-1.24-1.29-2.33-1.93-3.32-1.93s-1.73.2-2.43.74c-.64.5-1.04,1.14-1.04,1.88,0,2.23,2.48,2.18,3.12,1.88.1-.05.25-.15.4-.15.5,0,.69.4.69.74,0,.5-.74.94-1.63.94-.5,0-.79-.15-.99-.45l-.4-.59-.25.69c-.05.15-.15.35-.15.59,0,.5.25.99.74,1.44.45.4.99.59,1.58.59.94,0,1.73-.35,2.23-1.04.45-.54.64-1.19.64-1.93,0-.4-.15-.84-.5-1.34-.4-.59-.89-.89-1.44-.89-.2,0-.45.05-.69.15-.1.05-.3.1-.35.1-.1,0-.25-.05-.35-.2-.1-.1-.2-.25-.2-.5,0-.54.5-1.09,1.39-1.09h.05c.59,0,1.19.3,1.73.84.45.45.79.89,1.09,1.39v7.87l1.49.89s.1.05.15.05c.2,0,.3-.15.3-.3v-10.64h2.28v6.88l1.78.74h.1c.15,0,.3-.1.3-.3v-.05c.3-2.03,1.19-3.42,2.67-4.26v.4c0,.3,0,1.04.05,1.44,0,.25,0,.4.05.54,0,.79.1,1.98.35,2.87.5,1.68,1.34,2.08,1.93,2.08h.05c.35,0,.64-.1.84-.3.1-.1.25-.3.25-.64,0-.3-.05-.54-.15-.74l-.15-.25-.3.05c-.3.1-.45.1-.45.05h-.05q-.1,0-.15-.05c-.1-.05-.3-.2-.45-.74-.1-.4-.15-.94-.15-1.24,0-2.23.45-3.91,1.19-4.26h.05c.1-.05.2-.15.2-.3,0-.05,0-.1-.05-.15v-.05c-.35-.69-1.09-1.19-2.08-1.44h-.2c-.79.15-1.73.69-2.92,1.68-.3.25-.59.5-.84.74v-2.72h6.93c.2,0,.3-.15.3-.3v-.79c.05-.2-.1-.35-.3-.35h0Z"/>
      </g>
      <path id="path1392" fill="#ed1c24" d="M30.75,24.87c0,.35,0,.64-.05.94-.1,1.39-.45,2.67-.99,3.86-.2.5-.45.94-.74,1.39-2.08,3.27-5.74,5.45-9.9,5.45-1.78,0-3.47-.4-4.95-1.09-3.96-1.83-6.73-5.89-6.73-10.54s2.67-8.56,6.49-10.45c-.3.4-.59.79-.84,1.24,0,.05-.05.05-.05.1-.15.15-.3.25-.45.4-.2.15-.35.35-.54.5l-.1.1-.1.1s-.1.15-.2.2c-.1.15-.25.3-.35.45-.5.64-.89,1.34-1.19,2.08-.05.05-.05.15-.1.2-.05.1-.05.2-.1.25,0,.05-.05.1-.05.15-.05.15-.1.25-.15.4-.05.1-.05.2-.1.25,0,.05-.05.1-.05.15,0,.1-.05.2-.05.3l-.15.89c0,.1,0,.15-.05.25v1.19c0,3.17,1.44,6.04,3.76,7.87,1.78,1.44,4.01,2.33,6.44,2.33,2.23,0,4.26-.69,5.94-1.93,1.24-.89,2.23-2.03,2.97-3.37.1-.2.2-.35.3-.54.59-1.24.94-2.57.94-4.01v-.35c0-.35,0-.64-.05-.99l.05.05c.15.15.3.25.45.4.15-.25.3-.45.45-.69.1.45.15.89.2,1.39.05.45.05.79.05,1.14h0Z"/>
      <path id="path1394" fill="#f7941d" d="M20.45,15.51l-2.18-4.01c-3.61,1.63-6.09,5.25-6.09,9.46,0,2.13.64,4.11,1.73,5.74-.1-.54-.1-1.09-.1-1.68.05-4.31,2.77-7.97,6.63-9.5Z"/>
      <path id="path1396" fill="#ed1c24" d="M22.18,17.49c.89-.25,1.88-.35,2.82-.35.59,0,1.24.05,1.78.15l-.05-1.78-.1-3.56c-.4-.05-.84-.1-1.29-.1-1.98,0-3.81.64-5.3,1.68l1.19,2.18c-2.13.74-3.86,2.23-4.95,4.16-.54.94-.94,2.03-1.09,3.17.3-.59.64-1.14,1.04-1.63,1.44-1.88,3.51-3.32,5.94-3.91Z"/>
      <path id="path1398" fill="#f7941d" d="M27.38,15.46l.1,2.52c-.84-.25-1.68-.4-2.62-.4-1.73,0-3.37.5-4.8,1.34-1.78,1.09-3.17,2.82-3.86,4.85.69-.94,1.53-1.78,2.52-2.43,1.44-.94,3.17-1.49,5-1.49,1.39,0,2.67.3,3.86.84.89.4,1.68.94,2.38,1.63l1.39-2.08,1.78-2.72c-1.58-1.29-3.56-2.08-5.74-2.08h0Z"/>
      <path id="path1400" fill="#f7941d" d="M29.61,23.68v.35c0,2.08-.84,3.81-.94,4.01-.1.2-.2.35-.3.54-.74,1.34-1.73,2.48-2.97,3.37-1.68,1.19-3.71,1.93-5.94,1.93-2.43,0-4.7-.84-6.44-2.33-2.28-1.88-3.76-4.7-3.76-7.87v-1.19c0-.1,0-.15.05-.25l.15-.89c0-.1.05-.2.05-.3,0-.05.05-.1.05-.15.05-.1.05-.2.1-.25.05-.15.1-.3.15-.4,0-.05.05-.1.05-.15.05-.1.05-.2.1-.25.05-.05.05-.15.1-.2.3-.74.74-1.44,1.19-2.08.1-.15.25-.3.35-.45.05-.05.1-.15.2-.2.05-.05.05-.1.1-.1.05-.05.05-.1.1-.1.15-.2.35-.35.54-.5.15-.15.3-.25.45-.4,0,.05-.05.05-.05.1s-.05.1-.05.1c-.59,1.19-.99,2.62-1.14,4.11-.05.4-.05.79-.05,1.24,0,5.35,3.12,9.65,6.98,9.65h.4c.54,0,1.09-.1,1.63-.2,2.62-.69,4.55-3.12,4.55-5.94v-.15c-.05-1.68-.74-3.22-1.88-4.26.79,0,1.58.15,2.33.35,1.44.35,2.72,1.04,3.86,1.93l.05.05c-.05.2,0,.54,0,.84h0Z"/>
      <g id="g1404">
        <path id="path1402" fill="#f7941d" d="M29.61,23.68v.35c0,2.18-.99,4.06-.99,4.06-.1.2-.2.35-.3.54-.74,1.34-1.78,2.48-3.02,3.37-1.73,1.29-3.81,1.93-5.99,1.93-2.38,0-4.65-.84-6.49-2.33-2.38-1.93-3.76-4.85-3.76-7.92s1.39-5.99,3.76-7.92l.1-.1s-.05.05-.05.1-.05.05-.05.1c-2.33,1.93-3.66,4.75-3.66,7.82s1.34,5.89,3.71,7.87c1.78,1.49,4.11,2.28,6.44,2.28,2.13,0,4.21-.64,5.94-1.93,1.24-.89,2.23-2.03,2.97-3.37.1-.2.2-.35.25-.54,0,0,.99-1.83.99-4.01v-.35c0-.35,0-.64-.05-.99v-.05l.05.05.05.05c.1.4.1.69.1.99h0Z"/>
      </g>
    </g>
  </g>
</svg>
