<svg width="72" height="48" viewBox="0 0 72 48" fill="none" xmlns="http://www.w3.org/2000/svg">
  <g id="surface1">
    <path fill="#8c3493" fill-rule="evenodd" d="M47.59,12.89l-7.04,7.04.49,3.95,1.3-2.72,4.01,5.13,5.62-17.29-18.71,7.78,5.07,2.66,9.26-6.55"/>
    <path fill="#8c3493" d="M38.76,32.65h-4.14c-2.56.15-3.4-4.08-.25-4.63h4.39v4.63ZM41.47,25.24h-7.41c-5.65.87-6.24,9.08-.06,10.19h7.47v-7.41c2.49.08,3.01,3.19,1.17,4.32.37.43,1.85,2.04,1.85,2.04,3.89-3.36,1.67-8.87-3.03-9.14"/>
    <path fill="#8c3493" fill-rule="evenodd" d="M56.97,28.95h-2.72l-1.17,2.72h3.46c.7-.03.73.99,0,1.05h-5.99v-4.69h9.2v-2.78h-1.36c-.4-5.74-7.27-5.91-9.08-2.78.36.29,2.04,1.79,2.04,1.79,1.03-1.62,3.91-1.54,4.32.99h-7.84v10.19h8.83c2.01-.03,2.93-1.51,3.15-2.78.12-2.04-1.11-3.4-2.84-3.71"/>
    <path fill="#8c3493" fill-rule="evenodd" d="M30.54,25.24h-3.58c-1.14,1.39-3.12,7.01.8,11.24,0,0,1.7-1.45,2.04-1.73-1.2-1.17-3.21-5.96.74-9.51"/>
    <path fill="#8c3493" fill-rule="evenodd" d="M21.42,36.58c0,1.24-1.01,2.24-2.25,2.24s-2.24-1-2.24-2.24,1-2.25,2.24-2.25,2.25,1.01,2.25,2.25"/>
    <path fill="#8c3493" fill-rule="evenodd" d="M21.34,32.65h-4.14c-2.56.15-3.4-4.08-.25-4.63h4.39v4.63ZM16.65,25.24c-5.65.87-6.24,9.08-.06,10.19h.04c.44-.97,1.42-1.65,2.55-1.65s2.12.68,2.55,1.65h2.33v-10.19h-7.41"/>
    <path fill="#8c3493" fill-rule="evenodd" d="M19.18,21.58c0,.13-.1.23-.23.23h-1.18v-.49h1.18c.13,0,.23.1.23.23v.03ZM19.3,22.83c.91-.15,1.36-2.02-.12-2.44h-2.41v3.55h.99v-1.11l1.11,1.11h1.54l-1.11-1.11"/>
    <path fill="#8c3493" fill-rule="evenodd" d="M22.13,22.93c-.44,0-.79-.35-.79-.79s.35-.79.79-.79.79.35.79.79-.35.79-.79.79ZM22.13,20.34c-.99,0-1.8.81-1.8,1.8s.81,1.8,1.8,1.8,1.8-.81,1.8-1.8-.81-1.8-1.8-1.8"/>
    <path fill="#8c3493" fill-rule="evenodd" d="M32.34,21.36h1.62v-1.04h-1.37c-1.08,0-1.96.81-1.96,1.8s.88,1.8,1.96,1.8h1.37v-1.04h-1.62c-.24,0-.45-.11-.58-.29h2.2v-.95h-2.2c.14-.17.35-.29.58-.29"/>
    <path fill="#8c3493" fill-rule="evenodd" d="M25.91,22.88c-.41,0-.74-.33-.74-.74v-.04c0-.41.33-.74.74-.74h1.54v-1.04h-1.38c-1.08,0-1.96.81-1.96,1.8s.88,1.8,1.96,1.8h1.38v-1.04h-1.54"/>
    <path fill="#8c3493" fill-rule="evenodd" d="M37.72,20.39h-3.49v.93h1.28v2.55h.93v-2.55h1.28v-.93"/>
    <path fill="#8c3493" d="M29.42,22.12l1.72-1.73h-1.39l-.96.97v-.97h-.93v3.49h.93v-1l.99,1h1.39l-1.74-1.76"/>
    <path fill="#8c3493" d="M43.46,37.16c-.15.03-.29.13-.41.29-.11.16-.17.31-.17.47,0,.1.02.19.06.28.05.11.12.17.2.17.04,0,.1-.02.17-.07l.1.26c-.09.05-.17.08-.26.08-.11,0-.22-.04-.32-.12-.06-.05-.12-.14-.17-.28-.03-.07-.04-.17-.04-.3v-.09c0-.21.11-.45.34-.71.05-.05.13-.13.24-.23h.35v.26s-.06,0-.09,0"/>
    <path fill="#8c3493" d="M44.72,37.15h-.69c.2.13.3.29.31.5.12.05.25.15.39.29v-.79ZM45.02,37.15v1.47h-.29v-.19c0-.07-.05-.15-.15-.25-.07-.08-.15-.14-.24-.2-.09-.06-.19-.09-.3-.09s-.19.05-.24.14c0,.01,0,.02,0,.04,0,.04.02.07.06.11.04.03.08.05.12.05.03,0,.11-.02.22-.07l.09.27c-.13.07-.24.1-.33.1-.1,0-.19-.03-.27-.08-.08-.06-.14-.13-.18-.22-.02-.04-.03-.09-.03-.14,0-.17.07-.29.21-.38.1-.06.2-.09.31-.09h.03c0-.05-.03-.11-.08-.17-.05-.06-.1-.09-.15-.09h-.32v-.18h-.13v-.26h1.89v.26h-.2"/>
    <path fill="#8c3493" d="M45.59,37.15v1.47h-.29v-1.47h-.22v-.26h.71v.26h-.2"/>
    <path fill="#8c3493" d="M47.02,37.47c-.05.02-.11.04-.18.06-.09.04-.26.11-.5.22l-.06.02c.23.08.45.2.66.36.03.02.05.04.07.05v-.72ZM47,37.15h-1.32v-.26h1.83v.26h-.2v1.47h-.26c-.03-.08-.15-.19-.38-.35-.09-.06-.22-.13-.39-.19-.18-.07-.31-.1-.42-.1l-.08-.29c.07-.06.26-.15.57-.28.13-.06.35-.14.65-.26"/>
    <path fill="#8c3493" d="M47.88,37.15v1.47h-.29v-1.47h-.22v-.26h.7v.26h-.2"/>
    <path fill="#8c3493" d="M48.99,38.87c-.12-.11-.25-.21-.38-.3-.06-.04-.17-.09-.32-.15-.12-.04-.19-.06-.21-.06v-.34s.07,0,.12,0,.09,0,.11,0c.13,0,.24-.02.32-.05.16-.07.24-.14.24-.23,0-.07-.03-.12-.09-.17-.06-.03-.12-.07-.18-.1-.02,0-.03-.01-.05-.01-.04,0-.07,0-.12.03-.05.02-.08.05-.07.08.01.08.09.11.24.1l-.16.24c-.06,0-.13-.02-.2-.06-.12-.08-.18-.18-.18-.3s.06-.21.18-.27c.1-.05.21-.08.34-.08.06,0,.1,0,.15.03.04.02.08.04.12.06.2.1.3.26.3.46,0,.15-.06.27-.18.36-.09.07-.23.12-.4.15.05.02.13.07.22.12.17.13.3.24.4.34l-.22.16ZM47.97,37.15v-.26h.87s0-.02,0-.02c0-.13-.06-.22-.19-.27-.02,0-.04,0-.06,0-.03,0-.07,0-.12.02-.06.02-.1.03-.11.03-.05,0-.09.02-.13.05-.05.03-.1.06-.17.09l-.09-.22c.11-.08.26-.14.44-.2.08-.02.15-.03.22-.03.07,0,.15.03.25.08.16.09.24.25.24.48h.17v.26h-1.32"/>
    <path fill="#8c3493" d="M51.05,37.15v1.47h-.29v-.58c0-.05-.02-.1-.07-.16-.04-.05-.09-.08-.14-.08-.05,0-.09.03-.13.08-.04.06-.06.12-.06.19h-.32c0-.08-.02-.15-.06-.21-.04-.06-.09-.09-.14-.09-.05,0-.09.02-.13.05s-.06.07-.07.11v.08s0,.03,0,.03c0,.15.09.23.28.23.03,0,.08,0,.15-.02l-.1.3c-.06,0-.1.01-.11.01-.14,0-.26-.05-.38-.15-.05-.04-.08-.1-.11-.18-.03-.07-.04-.14-.04-.21,0-.16.05-.29.15-.39.1-.1.23-.15.38-.15.15,0,.27.07.37.21.11-.14.22-.21.35-.21.07,0,.14.03.2.09v-.43h-1.59v-.26h2.04v.26h-.17"/>
    <path fill="#8c3493" d="M53.27,37.47c-.05.02-.11.04-.18.06-.09.04-.26.11-.5.22l-.06.02c.23.08.45.2.66.36.03.02.05.04.07.05v-.72ZM53.25,37.15h-1.32v-.26h1.83v.26h-.2v1.47h-.26c-.03-.08-.15-.19-.38-.35-.09-.06-.22-.13-.39-.19-.17-.07-.31-.1-.42-.1l-.08-.29c.07-.06.26-.15.57-.28.13-.06.35-.14.65-.26"/>
    <path fill="#8c3493" d="M54.25,37.15c-.09.13-.14.23-.14.32,0,.04.05.19.14.46.05.14.07.25.07.34,0,.17-.1.29-.29.36-.06.02-.16.04-.31.06l.04-.25c.17-.04.26-.1.26-.18,0-.08-.04-.2-.11-.37-.07-.16-.11-.29-.11-.36,0-.1.04-.22.12-.37h-.31v-.26h.82v.26h-.2"/>
    <path fill="#8c3493" d="M54.88,37.15v1.47h-.29v-1.47h-.22v-.26h.7v.26h-.2"/>
    <path fill="#8c3493" d="M55.62,37.25s-.06-.03-.09-.02c-.11.02-.17.07-.17.16,0,.05.02.09.06.13.04.04.08.06.12.06h.04c.08-.03.13-.08.13-.16,0-.07-.03-.13-.09-.17ZM55.87,38.79c-.37-.31-.62-.5-.76-.56v-.4c.51.37.85.66,1.01.87v.3l-.25-.21ZM55.55,37.85c-.14,0-.25-.04-.33-.13-.08-.09-.12-.2-.12-.33,0-.13.04-.23.13-.32.08-.08.19-.13.32-.13.17,0,.3.09.37.26.03.07.05.15.05.22,0,.13-.04.24-.11.31s-.17.12-.31.12"/>
    <path fill="#8c3493" d="M57.97,36.72c-.34-.21-.62-.32-.84-.32-.26,0-.45.08-.57.24-.04.06-.06.14-.07.25h.21v.26h-.21v1.47h-.3v-1.47h-.2v-.26h.2c0-.21.07-.38.21-.51.13-.13.31-.21.53-.24.02,0,.07,0,.13-.02h.06c.18,0,.36.04.53.12.1.04.25.13.47.27l-.16.21"/>
    <path fill="#8c3493" d="M57.43,37.49s-.12.09-.22.15c-.02.01-.05.03-.09.06-.03.03-.06.06-.09.09.03.03.08.07.15.12.06.07.15.16.25.27v-.68ZM57.73,37.15h0c.12.02.25.05.38.12.19.1.28.24.28.42,0,.1-.03.19-.09.26-.06.07-.14.12-.25.15-.1.02-.19.03-.26.01v-.28s.06,0,.09,0c.15,0,.22-.05.22-.16,0-.13-.13-.21-.38-.24v1.17h-.26c-.04-.08-.08-.14-.12-.19-.01-.02-.05-.06-.11-.15-.02-.03-.05-.06-.1-.1-.05-.04-.08-.07-.1-.1,0-.01-.03-.03-.07-.04-.13-.04-.23-.07-.31-.07l-.08-.29c.06-.05.21-.13.44-.26.02-.01.09-.05.21-.12.04-.03.12-.07.22-.13v-.02h-.93v-.26h2.01v.26h-.79"/>
    <path fill="#8c3493" d="M59.02,37.25s-.06-.03-.09-.02c-.11.02-.17.07-.17.16,0,.05.02.09.06.13.04.04.08.06.12.06h.04c.08-.03.13-.08.13-.16,0-.07-.03-.13-.09-.17ZM59.28,38.79c-.37-.31-.62-.5-.76-.56v-.4c.51.37.85.66,1.01.87v.3l-.25-.21ZM58.96,37.85c-.14,0-.25-.04-.33-.13s-.12-.2-.12-.33c0-.13.04-.23.13-.32s.19-.13.32-.13c.17,0,.3.09.37.26.03.07.05.15.05.22,0,.13-.04.24-.11.31s-.17.12-.31.12"/>
    <path fill="#8c3493" d="M26.53,38.75l.55.18.22-.18-.55-.19-.22.19"/>
    <path fill="#8c3493" d="M26.24,37.92c.06.02.13-.07.18-.15v.34c0,.13-.1.24-.18.24h-.76v-.44h.76ZM26.71,37.23v-.33h-4.29v.33h.72v.74h.62s.18-.06.22-.15v.29c0,.13-.1.24-.22.24h-.91c-.06,0-.11-.02-.11-.24v-.69h-.32v.88c0,.07.05.33.28.33h1.23c.19,0,.33-.2.34-.37v-.85h-.29c-.03.13-.01.22-.15.25h-.36v-.45h1.06v1.41h.36v-1.41h.26v1.41h1.2c.09,0,.36-.07.36-.38v-.84h-.29c0,.08-.01.2-.15.2h-.8v-.4h1.24"/>
    <path fill="#8c3493" d="M27.11,38.02h.73v-.39h-.73v.39Z"/>
    <path fill="#8c3493" d="M29.44,38.4h-.73c-.11-.02-.18-.15-.18-.29v-.39h.91v.68ZM28.24,36.9v.33h1.2v.2h-1.2v.79c.03.26.16.43.41.43h1.09v-1.41h.25v1.41h.33v-1.74h-2.07"/>
    <path fill="#8c3493" d="M31.89,37.23h1.49v.2h-.44c-.02.14-.24.21-.29,0h-.76v.84c0,.08.01.35.23.38h.6v-.28h-.4c-.08-.02-.15-.07-.15-.19v-.44h.4v.24h.36v-.19c-.02-.09.38-.08.4,0v.87h.33v-1.41h.22v1.41h.33v-1.74h-2.32v.33"/>
    <path fill="#8c3493" d="M31.14,37.48c-.14,0-.25-.05-.25-.11s.11-.11.25-.11.25.05.25.11-.11.11-.25.11ZM31.37,36.99h-.77v.46c.03.15.11.33.37.34h.62v-.56c-.02-.1-.09-.22-.22-.23"/>
    <path fill="#8c3493" d="M30.65,37.96v.29l.94.39v-.3l-.94-.37"/>
    <path fill="#8c3493" d="M38.99,37.48c-.14,0-.25-.05-.25-.11s.11-.11.25-.11.25.05.25.11-.11.11-.25.11ZM39.22,36.99h-.77v.46c.03.15.11.33.37.34h.62v-.56c-.02-.1-.09-.22-.22-.23"/>
    <path fill="#8c3493" d="M38.5,37.96v.29l.94.39v-.3l-.94-.37"/>
    <path fill="#8c3493" d="M40.92,38.4h-.73c-.11-.02-.18-.15-.18-.29v-.39h.9v.05h0v.63ZM41.21,37.42v-.2h.6v-.33h-2.1v.33h1.2v.2h-1.2v.79c.03.26.16.43.41.43h1.09v-.87h.29s.06-.02.07.05v.15c-.02.07-.02.12-.07.15h-.11v.29h.22c.07,0,.21-.09.22-.19v-.79h-.62"/>
    <path fill="#8c3493" d="M36.4,38.4h-.73c-.11-.02-.18-.15-.18-.29v-.39h.91v.68ZM35.2,36.9v.33h1.2v.2h-1.2v.79c.03.26.16.43.41.43h1.09v-1.41h.38l-.14.28v.19h.26c.14.02.18.11.18.34,0,.16-.04.28-.16.29h-.24v.29h.26c.07,0,.41.03.44-.29.04-.66.07-.83-.4-.88l.07-.23h.51v1.41h.33v-1.74h-2.97"/>
  </g>
</svg>
