<svg width="72" height="48" viewBox="0 0 72 48" fill="none" xmlns="http://www.w3.org/2000/svg">
  <g id="surface1">
    <path fill="#0b0b0b" d="M40.52,31.69c0-.32-.13-.49-.45-.47h-3.17c-.31,0-.45.14-.44.45.01.21,0,.43,0,.72-.99-.93-2.12-1.11-3.32-1.02-1.45.1-1.89,1-1.11,2.19.09.14.15.30.21.45.17.53.06,1.04-.15,1.55-.21.53-.09.92.37,1.22.36.23.74.25,1.14.06,1.02-.51,1.96-1.16,2.84-1.96.01.08.01.10.01.14,0,.60.01,1.19,0,1.80-.01.97-.03.94.94.93.54,0,.59-.06.59-.61,0-1.33.01-2.68-.01-4.01-.01-.38.16-.43.48-.41.28.02.57-.08.56.39-.04,1.21-.01,2.41-.01,3.63q0,1.07,1.08,1.02c.31-.01.44-.14.44-.45-.02-1.89-.02-3.76-.01-5.61ZM35.68,33.62c-.58.66-1.28,1.18-2.12,1.56-.02-.35.14-.59.16-.88.05-.42-.04-.79-.29-1.12-.22-.29-.17-.42.19-.42.67-.01,1.30.15,1.90.48.15.07.34.19.16.38Z"/>
    <path fill="#0b0b0b" d="M30.66,33.6c-.24.03-.48.12-.72.16-.97.22-1.06.14-1.01-.86.01-.20.07-.23.24-.23.44.01.88,0,1.33,0,.84,0,.86-.02.85-.88v-.12c-.01-.31-.15-.49-.49-.48h-.62c.27-1.11-.07-1.8-.99-2.01-.30-.07-.62-.04-.93.01-.77.13-1.54.32-2.25-.21-.23-.17-.44-.03-.56.22-.34.74-.01,1.3.8,1.44.71.12,1.40.01,2.10-.12.30-.06.59.12.58.36-.01.31-.26.31-.48.31h-2.3c-1,0-.99,0-.98,1.01,0,.34.13.48.47.46.51-.01,1.01.01,1.52-.01.23-.01.31.05.3.29-.02.49-.01.99,0,1.48,0,.54.20.74.72.82.45.07.87-.06,1.32-.10.11-.01.22-.12.33.01.10.13,0,.25-.06.36-.30.54-.84.65-1.39.71-.97.10-1.51-.30-1.71-1.22-.08-.37-.10-.74-.10-1.12q0-.80-.80-.80h-.08c-.30-.04-.45.12-.50.41-.13.68-.14,1.37.02,2.04.12.52.33,1.01.71,1.40.70.72,1.59.86,2.53.79,2.46-.19,3.10-1.73,2.81-3.70-.06-.34-.30-.50-.65-.44Z"/>
    <path fill="#0b0b0b" d="M46.85,31.69c0-.32-.14-.49-.47-.49h-4.97c-.28,0-.44.13-.43.43,0,.41-.01.80,0,1.21.02.81.17.97.98,1.10.22.03.54.02.57.31.04.30-.28.35-.48.42-1.33.44-1.02.60-1.08,1.6v.12c.05.38.08.82.51.92.45.10.97.24,1.39-.17.56-.54,1.41-.48,1.87.15.06.07.09.19.16.22.45.17.91.34,1.39.10.44-.22.55-.60.55-1.03v-2.38c.01-.83.01-1.67.01-2.50ZM45.05,36.02c-.62-.14-1.23-.15-1.86-.15-.14,0-.33.03-.36-.14-.05-.19.13-.27.27-.32.24-.10.49-.23.70-.41.68-.57.54-1.43-.29-1.75-.20-.07-.40-.14-.57-.22-.10-.05-.20-.15-.14-.29.05-.12.16-.06.24-.06.31-.01.63,0,.93,0,.27,0,.55.01.81,0,.34-.02.48.14.49.45.01.51.02,1.01.04,1.52.01.36.03.72.06,1.08.01.23-.07.35-.31.29Z"/>
    <path fill="#0b0b0b" d="M43.77,37.01c-.58,0-1.01.43-1.01,1s.43,1,1.01,1,.99-.43.99-1.02c-.01-.56-.43-.97-.99-.97Z"/>
    <path fill="#fbd501" d="M31.58,11.83c0-1.56-1.27-2.83-2.84-2.83s-2.84,1.27-2.84,2.83,1.27,2.83,2.84,2.83,2.84-1.27,2.84-2.83Z"/>
    <path fill="#0d56a3" d="M46.02,11.83c0-1.56-1.27-2.83-2.84-2.83s-2.84,1.27-2.84,2.83,1.27,2.83,2.84,2.83,2.84-1.27,2.84-2.83Z"/>
    <path fill="#0d56a3" d="M33.52,25.46c-.08.83.26,1.60.84,2.11.43.38,1.01.61,1.64.63,1.48.02,2.99-.15,4.42-.64,3.65-1.21,5.66-4.32,5.63-8.10v-1.26c0-.37-.14-.72-.36-.99-.28-.34-.71-.54-1.18-.54h-2.25c-.49,0-.92.22-1.20.57-.22.27-.35.60-.35.97v1.24c0,.64-.14,1.38-.44,1.89-.37.65-.90,1.04-1.64,1.34-.89.35-1.82.50-2.77.56-.58.04-1.11.27-1.53.64-.47.37-.77.94-.83,1.59Z"/>
    <path fill="#fbd501" d="M38.41,25.46c.08.83-.26,1.60-.84,2.11-.43.38-1.01.61-1.64.63-1.48.02-2.99-.15-4.42-.64-3.65-1.21-5.66-4.32-5.63-8.10v-1.26c0-.37.14-.72.36-.99.28-.34.71-.54,1.18-.54h2.25c.49,0,.92.22,1.20.57.22.27.35.60.35.97v1.24c0,.64.14,1.38.44,1.89.37.65.90,1.04,1.64,1.34.88.35,1.82.50,2.77.56.58.04,1.11.27,1.52.64.47.37.77.94.83,1.59Z"/>
  </g>
</svg>
