<svg class="onlineslid-logo" xmlns="http://www.w3.org/2000/svg" viewBox="0 0 113.1 26.5" width="70" height="35">
  <path class="st0" d="M53.6 11.9c0-1.8-.1-3.3-.1-4.6h3.9l.2 2h.1c.6-.9 2.1-2.3 4.5-2.3 3 0 5.2 2 5.2 6.2v8.6h-4.5v-8c0-1.9-.6-3.1-2.3-3.1-1.2 0-2 .9-2.3 1.7-.1.3-.2.7-.2 1.1v8.3h-4.5v-9.9z"/>
  <path class="st0" d="M69.4.7h4.5v21h-4.5V.7z"/>
  <path class="st0" d="M80.7 3.2c0 1.2-.9 2.2-2.4 2.2-1.4 0-2.4-1-2.3-2.2 0-1.3.9-2.3 2.4-2.3 1.4.1 2.3 1 2.3 2.3zm-4.6 18.5V7.3h4.5v14.5h-4.5z"/>
  <path class="st0" d="M82.7 11.9c0-1.8-.1-3.3-.1-4.6h3.9l.2 2h.1c.6-.9 2.1-2.3 4.5-2.3 3 0 5.2 2 5.2 6.2v8.6H92v-8c0-1.9-.6-3.1-2.3-3.1-1.2 0-2 .9-2.3 1.7-.1.3-.2.7-.2 1.1v8.3h-4.5v-9.9z"/>
  <path class="st0" d="M102 15.9c.1 1.9 2 2.7 4.1 2.7 1.5 0 2.8-.2 4-.6l.6 3c-1.5.6-3.3.9-5.2.9-4.9 0-7.7-2.8-7.7-7.4 0-3.7 2.3-7.7 7.3-7.7 4.7 0 6.4 3.6 6.4 7.2 0 .8-.1 1.4-.1 1.8H102zm5.3-3.1c0-1.1-.5-2.9-2.5-2.9-1.9 0-2.7 1.7-2.8 2.9h5.3z"/>
  <path class="st0" d="M44.9 6.9c-4.6 0-7.7 3-7.7 7.7v.4c1.3.8 2.2 2.3 2.2 4 0 .4 0 .7-.1 1.1 1.3 1.3 3.2 2 5.4 2 3.9 0 7.6-2.4 7.6-7.7 0-4.4-3-7.5-7.4-7.5zm-.1 11.9c-1.9 0-3-1.9-3-4.3 0-2.1.8-4.3 3-4.3 2 0 2.9 2.2 2.9 4.3-.1 2.6-1.2 4.3-2.9 4.3z"/>
  <circle class="st0" cx="35" cy="18.8" r="3.1"/>
  <path class="st0" d="M14.6 6.6c-1.3 0-2.6.4-3.7 1.1-.5.3-.9.7-1.3 1.1-1.1 1.2-1.7 2.8-1.7 4.5 0 1.8.7 3.5 2 4.8 1.3 1.3 3 2 4.8 2 1.3 0 2.6-.4 3.7-1.1.5-.3.9-.7 1.3-1.1 1.1-1.2 1.7-2.8 1.7-4.5-.1-3.8-3.1-6.8-6.8-6.8zm2.2 1.6c.5.2 1 .5 1.5.9-.3-.1-.7-.2-1.1-.3-.1-.2-.3-.4-.4-.6zm-1.5-.4c.3.2.6.5.9.8-.4-.1-.8-.1-1.2-.1v-.8c.1.1.2.1.3.1zm-1.1 4.3v2.5c-.8 0-1.6.1-2.3.2-.1-.5-.1-.9-.1-1.4v-1.1c.7-.1 1.5-.2 2.4-.2zm-2.3-.6c.1-.7.3-1.4.6-2 .5-.1 1.1-.2 1.7-.2v2c-.8 0-1.6.1-2.3.2zm3.1.6c.8 0 1.7.1 2.4.2 0 .3 0 .7.1 1.1 0 .5 0 .9-.1 1.4-.7-.1-1.5-.2-2.4-.2v-2.5zm0-.8v-2c.6 0 1.2.1 1.7.2.3.6.5 1.3.6 2-.8-.1-1.5-.2-2.3-.2zm-1.3-3.5c.1 0 .1 0 0 0 .2-.1.3-.1.4-.1v.8c-.4 0-.8 0-1.2.1l.8-.8zm-2.2.9c.3-.2.6-.3.9-.5-.1.2-.3.4-.4.6-.4.1-.8.2-1.1.3.1-.1.3-.3.6-.4zm-1.9 2.1c.2-.2.6-.4.9-.6.3-.2.7-.3 1.1-.4-.2.6-.4 1.3-.5 2-.4.1-.7.2-1 .3-.4.2-.8.3-1.1.5.1-.7.3-1.3.6-1.8zm-.7 2.8c.2-.3.7-.6 1.4-.9.2-.1.4-.2.7-.2v.9c0 .5 0 1 .1 1.5-.2 0-.3.1-.4.1-.5.1-1 .3-1.3.5-.3-.6-.4-1.2-.5-1.9zm3.4 4.9c-1.1-.5-2-1.3-2.6-2.3.2-.1.5-.3 1.1-.5.1 0 .2-.1.3-.1.3 1.2.7 2.2 1.2 2.9zm1.6.5c-.8-.5-1.5-1.8-1.9-3.4.7-.1 1.4-.2 2.2-.2V19h-.3zm1.5-.1c-.2.1-.3.1-.4.1v-3.6c.8 0 1.5.1 2.2.2-.2 1.2-.7 2.3-1.3 2.9-.1.1-.3.3-.5.4zm2.3-.8c-.3.2-.6.3-.9.5.5-.7.9-1.7 1.1-2.9.7.1 1.2.3 1.5.5-.4.7-1 1.4-1.7 1.9zm2.5-4.5c0 .7-.2 1.3-.4 1.9-.4-.2-1-.4-1.7-.6.1-.5.1-1 .1-1.5v-.9c.9.3 1.7.7 2 1.1zm-.1-1.1c-.5-.3-1.2-.6-2.1-.9-.1-.7-.3-1.4-.5-2 .8.3 1.5.6 2 1 .4.7.6 1.3.6 1.9z"/>
  <g>
    <path class="st1" style="fill: #1AA74B" d="M6.9 24.1v-4.7c.2.3.5.6.8.9l6.2 6.2c-2.4-.1-4.9-.9-7-2.4z"/>
    <path class="st1" style="fill: #1AA74B" d="M22.3 7.6c2.9 3.8 2.6 9.2-.9 12.7-2.2 2.2-5.2 3.1-8.1 2.8l3.4 3.4c2.6-.4 5.1-1.7 7.2-3.7 4.8-4.8 5.1-12.4 1-17.5l-2.6 2.3z"/>
    <path class="st2" style="fill: #53BB69;" d="M4.8 13.4c0-2.5.9-5 2.8-6.9 3.8-3.8 10-3.8 13.8 0 .3.3.6.7.9 1l2.5-2.4c-.3-.4-.6-.7-1-1.1-5.1-5-13.4-5-18.5.1-5 5-5.1 13-.4 18.2v-8.9z"/>
    <g>
      <path class="st0" d="M13.4 13.7c-.1 0-.1-.1 0 0 0-.1 0 0 0 0z"/>
    </g>
  </g>
</svg>
