<?xml version="1.0" encoding="UTF-8" standalone="no"?>
<svg
   xmlns:dc="http://purl.org/dc/elements/1.1/"
   xmlns:cc="http://creativecommons.org/ns#"
   xmlns:rdf="http://www.w3.org/1999/02/22-rdf-syntax-ns#"
   xmlns:svg="http://www.w3.org/2000/svg"
   xmlns="http://www.w3.org/2000/svg"
   viewBox="0 0 372.17334 247.22667"
   height="35"
   width="60"
   xml:space="preserve"
   id="svg2"
   version="1.1"><metadata
     id="metadata8"><rdf:RDF><cc:Work
         rdf:about=""><dc:format>image/svg+xml</dc:format><dc:type
           rdf:resource="http://purl.org/dc/dcmitype/StillImage" /></cc:Work></rdf:RDF></metadata><defs
     id="defs6" /><g
     transform="matrix(1.3333333,0,0,-1.3333333,0,247.22667)"
     id="g10"><g
       transform="scale(0.1)"
       id="g12"><path
         id="path14"
         style="fill:#22335b;fill-opacity:1;fill-rule:nonzero;stroke:none"
         d="m 1311.03,1498.17 c -34.05,0 -63.76,-12.29 -88.38,-36.49 -24.7,-24.24 -37.21,-53.55 -37.21,-87.07 0,-33.94 12.51,-63.63 37.13,-88.16 24.6,-24.5 54.38,-36.93 88.46,-36.93 34.77,0 64.45,12.18 88.33,36.28 23.75,23.97 35.81,53.85 35.81,88.81 0,35.06 -12,64.71 -35.49,88.19 -23.65,23.45 -53.42,35.37 -88.65,35.37" /><path
         id="path16"
         style="fill:#22335b;fill-opacity:1;fill-rule:nonzero;stroke:none"
         d="m 1311.55,1177.09 c -37.23,0 -70.86,9.98 -101.02,28.42 h -2.34 V 429.078 h 206.57 v 776.432 h -0.79 c -30.12,-18.48 -64.17,-28.42 -102.42,-28.42" /><path
         id="path18"
         style="fill:#22335b;fill-opacity:1;fill-rule:nonzero;stroke:none"
         d="m 633.633,1008.05 c 40.625,16.33 87.273,24.57 138.66,24.57 124.074,0 181.836,-61.776 181.836,-194.491 0,-161.41 -64.941,-236.59 -204.227,-236.59 -44.172,0 -83.203,3.871 -116.269,11.512 z m -194.824,-543.378 26.726,-6.07 c 87.969,-19.911 185.695,-30.02 290.481,-30.02 255.684,0 390.814,139.977 390.814,404.777 0,246.131 -129.28,376.291 -373.853,376.291 -48.25,0 -95.039,-6.64 -139.344,-19.65 v 277.52 h -91.008 c -36.152,-38.14 -70.867,-81.93 -103.816,-131.75 V 464.672" /><path
         id="path20"
         style="fill:#22335b;fill-opacity:1;fill-rule:nonzero;stroke:none"
         d="m 1967.98,426.039 c 99.34,41.539 168.93,76.481 257.75,133.199 v 51.41 H 1836.56 L 2242.03,1202.5 H 1540.1 v -184.59 h 355.8 L 1481.95,426.039 h 486.03" /><path
         id="path22"
         style="fill:#22335b;fill-opacity:1;fill-rule:nonzero;stroke:none"
         d="M 2538.23,740.648 C 2398.4,607.148 2050.14,392.91 1528.55,228.691 1294.71,155 1070.37,116.059 879.734,116.059 c -194.578,0 -353.687,40.601 -460.164,117.402 -74.187,53.551 -128.011,128.891 -161.175,220.82 44.707,29.617 74.222,80.098 74.222,137.617 0,72.454 -46.804,133.903 -111.918,156.372 5.125,97.621 24.598,203.324 59.504,314.74 192.231,572.83 559.692,693.03 834.107,693.03 130.47,0 268,-26.06 408.73,-77.48 463.78,-169.36 784.56,-313.07 1051.73,-546.27 58.9,-51.39 89.39,-105.92 90.68,-162.149 1.53,-70.118 -41.24,-147.34 -127.22,-229.493 z M 166.277,470.801 c -67.1442,0 -121.57,54.219 -121.57,121.097 0,66.93 54.4258,121.133 121.57,121.133 67.207,0 121.621,-54.203 121.621,-121.133 0,-66.878 -54.414,-121.097 -121.621,-121.097 z M 2672.2,1185.63 c -287.16,250.68 -628.17,403.73 -1120.12,583.35 -154.77,56.59 -306.59,85.26 -451.23,85.26 -309.881,0 -724.248,-133.92 -938.662,-772.67 C 124.793,962.156 103.77,848.43 97.5625,742.422 40.0625,716.41 0,658.922 0,591.898 0,512.66 55.9063,446.531 130.551,430.238 168.434,307.371 236.293,206.512 333.801,136.109 458.977,45.8398 634.695,0 856.094,0 c 206.166,0 447.766,41.8008 698.666,120.82 555.49,174.942 922.95,399.282 1081.67,550.879 104.81,100.121 156.95,198.574 154.82,292.641 -1.76,79.45 -41.87,153.9 -119.05,221.29" /><path
         id="path24"
         style="fill:#22335b;fill-opacity:1;fill-rule:nonzero;stroke:none"
         d="m 2641.89,567.852 v -15.84 h -28.2 v -82.571 h -18.23 v 82.571 h -28.22 v 15.84 h 74.65" /><path
         id="path26"
         style="fill:#22335b;fill-opacity:1;fill-rule:nonzero;stroke:none"
         d="m 2652.23,469.441 v 98.411 h 18.92 l 33.37,-74.661 32.7,74.661 h 18.24 v -98.411 h -16.86 v 68.547 l -26.72,-68.547 h -15.53 l -27.27,68.547 v -68.547 h -16.85" /></g></g></svg>