<svg xmlns="http://www.w3.org/2000/svg" viewBox="0 0 114 52" width="50" height="35">
  <defs>
    <style>
      .cls-1 {
        fill: #32ab41;
      }
    </style>
  </defs>
  <title>partners_tld</title>
  <g id="iconBio">
    <g>
      <circle class="cls-1" cx="11.8" cy="41.58" r="9.41"/>
      <path class="cls-1" d="M48.42,19.84a15.35,15.35,0,0,0-12.13,5.94V1H33V35.6h0A15.38,15.38,0,1,0,48.42,19.84Zm0,27.52A12.13,12.13,0,0,1,36.28,35.23h0A12.13,12.13,0,1,1,48.42,47.36Z"/>
      <circle class="cls-1" cx="72.85" cy="13.28" r="2.23"/>
      <rect class="cls-1" x="71.22" y="19.84" width="3.26" height="30.78"/>
      <path class="cls-1" d="M97.37,19.84a15.39,15.39,0,1,0,15.39,15.39A15.39,15.39,0,0,0,97.37,19.84Zm0,27.52A12.13,12.13,0,1,1,109.5,35.23,12.13,12.13,0,0,1,97.37,47.36Z"/>
    </g>
  </g>
</svg>
