<?xml version="1.0" encoding="utf-8"?>
<!-- Generator: Adobe Illustrator 21.1.0, SVG Export Plug-In . SVG Version: 6.00 Build 0)  -->
<svg version="1.1" id="Layer_1" xmlns="http://www.w3.org/2000/svg" xmlns:xlink="http://www.w3.org/1999/xlink" x="0px" y="0px"
	 viewBox="0 22 285 99" style="enable-background:new 0 0 285 99;" xml:space="preserve" width="70" height="35">
<style type="text/css">
	.st0{fill:#58585A;}
	.st1{fill:#00B3DE;}
</style>
<title>logo.cloud</title>
<circle class="st0" cx="8.1" cy="90.7" r="8.1"/>
<path class="st0" d="M134.1,49.6c-13.7,0-24.7,11.1-24.7,24.7c0,13.7,11.1,24.7,24.7,24.7s24.7-11.1,24.7-24.7l0,0
	C158.8,60.7,147.7,49.6,134.1,49.6z M134.1,88.7c-7.9,0-14.3-6.4-14.3-14.3S126.1,60,134.1,60c7.9,0,14.3,6.4,14.3,14.3v0
	C148.4,82.2,142,88.7,134.1,88.7z"/>
<path class="st0" d="M106.3,93.7c0-2.8-2.3-5.1-5.1-5.1h0H87.1l0,0c-2.1,0-3.8-1.7-3.8-3.8c0,0,0-0.1,0-0.1V55.1
	c0-2.8-2.3-5.1-5.1-5.1c-2.8,0-5.1,2.3-5.1,5.1c0,0,0,0,0,0v29.6l0,0c0,7.8,6.3,14.1,14.1,14.1l0,0h14.1
	C104,98.8,106.3,96.5,106.3,93.7z"/>
<path class="st0" d="M209.2,49.6c-2.9,0-5.2,2.3-5.2,5.2c0,0,0,0,0,0s0,0,0,0.1v19.5c0,7.9-6.4,14.3-14.3,14.3
	c-7.9,0-14.3-6.4-14.3-14.3V54.6c0-2.9-2.4-5.2-5.3-5.1s-5.2,2.4-5.1,5.3l0,0c0,0,0,0,0,0.1v19.5C165,88,176,99,189.7,99
	c13.7,0,24.7-11.1,24.7-24.7V54.6C214.3,51.8,212,49.6,209.2,49.6z"/>
<path class="st0" d="M61.6,82.3c-1.5,0-2.9,0.6-3.9,1.8c-5.4,5.8-14.4,6.2-20.3,0.8c-5.8-5.4-6.2-14.4-0.8-20.3
	c5.4-5.8,14.4-6.2,20.3-0.8c0.4,0.3,0.7,0.7,1,1l0,0c2,2.1,5.3,2.2,7.4,0.2s2.2-5.3,0.2-7.4c-0.1-0.1-0.2-0.2-0.3-0.3
	c-9.4-9.9-25-10.4-34.9-1c-9.9,9.4-10.4,25-1,34.9s25,10.4,34.9,1c0.4-0.3,0.7-0.7,1.1-1.1l0,0c2-2,2.1-5.3,0.1-7.4
	C64.3,82.9,63,82.3,61.6,82.3z"/>
<path class="st0" d="M245.8,49.6h-19.7c-2.8,0.1-5,2.4-5,5.2H221v39.1h0.1l0,0c0,2.9,2.3,5.2,5.2,5.2l0,0h19.5
	c13.6,0.4,25-10.4,25.4-24c0.4-13.6-10.4-25-24-25.4C246.7,49.6,246.3,49.6,245.8,49.6z M245.8,88.6h-14.6V60h14.5
	c7.9,0,14.3,6.4,14.3,14.3C260.1,82.2,253.7,88.6,245.8,88.6C245.8,88.6,245.8,88.6,245.8,88.6z"/>
<circle class="st1" cx="189.9" cy="41.1" r="8.4"/>
<circle class="st1" cx="276" cy="41.1" r="8.4"/>
<circle class="st1" cx="218.8" cy="20.5" r="20.5"/>
<circle class="st1" cx="255.1" cy="28.9" r="12.5"/>
</svg>
