<svg xmlns="http://www.w3.org/2000/svg"  viewBox="0 0 330 130" width="52" height="35">
  <g
     transform="translate(0,-907.36218)"
     id="layer1">
    <g
       transform="matrix(0.93004708,0,0,0.93004708,25.107966,753.39436)"
       id="g5292">
      <path
         d="m 149.71505,187.20425 c -0.195,-3.66125 -0.9925,-18.9425 -0.9925,-18.9425 l -19.98375,0 0,109.3925 22.58875,0 0,-59.4925 c 2.11375,-20.175 12.855,-31.7975 29.44625,-31.7975 4.61875,0 8.78875,0.97 12.40625,2.8875 l 1.04625,0.5575 3.04125,-19.9175 -0.56,-0.2725 c -4.2725,-2.02125 -10.13125,-3.2775 -15.295,-3.2775 -14.07375,0 -24.69875,7.07 -31.6975,20.8625"
         id="path88"
         style="fill:#7ea831;fill-opacity:1;fill-rule:nonzero;stroke:none" />
      <path
         d="m -26.996446,262.56888 c 0,8.54 4.7325,14.3175 15.00875,14.3175 10.5112496,0 15.1337496,-5.7775 15.1337496,-14.3175 l 0,-1.25 c 0,-8.65625 -4.6225,-14.545 -15.1337496,-14.545 -10.39,0 -15.00875,5.88875 -15.00875,14.545 l 0,1.25 z"
         id="path92"
         style="fill:#7ea831;fill-opacity:1;fill-rule:nonzero;stroke:none" />
      <path
         d="m 64.508429,166.127 c -30.05125,0 -49.4725,16.655 -49.4725,42.43125 l 0,29.22 c 0,25.395 19.42125,41.80125 49.4725,41.80125 30.183745,0 49.687501,-16.40625 49.687501,-41.80125 l 0,-29.22 c 0,-25.77625 -19.503756,-42.43125 -49.687501,-42.43125 m 27.104995,70.8025 c 0,11.68375 -4.69874,25.6075 -27.104995,25.6075 -17.33875,0 -26.885,-9.09125 -26.885,-25.6075 l 0,-27.51875 c 0,-16.7875 9.54625,-26.03125 26.885,-26.03125 17.482495,0 27.104995,9.24375 27.104995,26.03125 l 0,27.51875 z"
         id="path96"
         style="fill:#7ea831;fill-opacity:1;fill-rule:nonzero;stroke:none" />
      <path
         d="m 295.55367,287.807 0.005,-119.5175 -20.14625,0 0,3.6275 c -7.31375,-3.805 -16.03124,-5.79 -26.0275,-5.79 -28.625,0 -47.12125,16.655 -47.12125,42.435 l 0,29.21625 c 0,25.395 18.49625,41.80125 47.12125,41.80125 9.97251,0 18.6825,-1.97875 26.02751,-5.76 l 0,9.25875 c 0.02,0.30875 0.0288,0.61 0.0288,0.91 0,6.89125 -4.54625,11.32125 -9.04626,14.76 -4.245,3.23875 -8.4425,4.5025 -14.975,4.5025 l -28.70875,0 0,18.20375 28.70875,0 c 13.8575,0 22.38625,-2.5825 31.47625,-9.5375 9.49375,-7.25625 12.9225,-13.79 12.6575,-24.11 m -20.4125,-50.88125 c 0,11.6875 -4.4675,25.61125 -25.75625,25.61125 -16.475,0 -25.54375,-9.0925 -25.54375,-25.61125 l 0,-27.515 c 0,-16.785 9.06875,-26.035 25.54375,-26.035 16.60625,0 25.75625,9.25 25.75625,26.035 l 0,27.515 z"
         id="path100"
         style="fill:#7ea831;fill-opacity:1;fill-rule:nonzero;stroke:none" />
    </g>
  </g>
</svg>
