<?xml version="1.0" encoding="utf-8"?>
<!-- Generator: Adobe Illustrator 24.0.2, SVG Export Plug-In . SVG Version: 6.00 Build 0)  -->
<svg version="1.1"
	 id="svg30" xmlns:cc="http://creativecommons.org/ns#" xmlns:dc="http://purl.org/dc/elements/1.1/" xmlns:inkscape="http://www.inkscape.org/namespaces/inkscape" xmlns:rdf="http://www.w3.org/1999/02/22-rdf-syntax-ns#" xmlns:sodipodi="http://sodipodi.sourceforge.net/DTD/sodipodi-0.dtd" xmlns:svg="http://www.w3.org/2000/svg"
	 xmlns="http://www.w3.org/2000/svg" xmlns:xlink="http://www.w3.org/1999/xlink" x="0px" y="0px" viewBox="0 -1 50 15"
	 style="enable-background:new 0 0 50 14.2;" xml:space="preserve" width="65" height="35">
<style type="text/css">
	.st0{fill:#AF0000;}
	.st1{fill:#163B4F;}
</style>
<title  id="title6">logo.org.color</title>
<g id="_Group_">
	<path id="path8" inkscape:connector-curvature="0" d="M2.4,9.2c0,0.4,0.1,0.7,0.3,1L1.1,8.7c-1-1-1-2.6,0-3.6l1.6-1.6
		c-0.2,0.3-0.3,0.7-0.3,1V9.2z"/>
	<path id="path10" inkscape:connector-curvature="0" d="M10.4,2.6c-0.3-0.2-0.7-0.3-1-0.3H4.6c-0.4,0-0.7,0.1-1,0.3L5.2,1
		c1-1,2.6-1,3.6,0L10.4,2.6z"/>
	<path id="path12" inkscape:connector-curvature="0" d="M12.8,8.7l-1.6,1.6c0.2-0.3,0.3-0.7,0.3-1V4.5c0-0.4-0.1-0.7-0.3-1L12.8,5
		C13.8,6,13.8,7.7,12.8,8.7z"/>
	<path id="path14" inkscape:connector-curvature="0" d="M10.4,11.1l-1.6,1.6c-1,1-2.6,1-3.6,0l-1.6-1.6c0.3,0.2,0.7,0.3,1,0.3h4.8
		C9.7,11.4,10.1,11.3,10.4,11.1z"/>
</g>
<g id="_Group_2">
	<path id="rect17" class="st0" d="M2.1,5.3L5.5,2c0.8-0.8,2.2-0.8,3,0l3.4,3.4c0.8,0.8,0.8,2.2,0,3l-3.4,3.4c-0.8,0.8-2.2,0.8-3,0
		L2.1,8.3C1.3,7.5,1.3,6.2,2.1,5.3z"/>
</g>
<path id="path20" inkscape:connector-curvature="0" class="st1" d="M48.3,11L48.3,11L48.3,11C48.3,10.9,48.3,10.9,48.3,11z M44.9,11
	L44.9,11C44.9,10.9,44.9,10.9,44.9,11L44.9,11z"/>
<path id="path22" inkscape:connector-curvature="0" class="st1" d="M44.9,0.8v1.1c-0.9-0.7-2.1-1.1-3.3-1.1c-2.8,0-5.1,2.1-5.1,4.6
	s2.3,4.6,5.1,4.6c1.2,0,2.4-0.4,3.3-1.1v0.2c0,0,0,0,0,0.1c0,1.6-1.1,2.3-3.8,2.2C39.5,11.2,39,11,38,10.5l-1.4,2
	c2.3,1.2,4.9,1.6,8,0.9c2.3-0.6,3.6-2,3.7-4.3c0,0,0,0,0-0.1V0.8H44.9z M42.4,7.8c-1.4,0-2.6-1-2.6-2.3s1.1-2.3,2.6-2.3
	c1.2,0,2.1,0.7,2.5,1.6c0.2,0.5,0.2,0.9,0,1.4C44.6,7.1,43.6,7.8,42.4,7.8z"/>
<path id="path24" inkscape:connector-curvature="0" class="st1" d="M28,6.9c0,3.4-2.7,6.1-6.1,6.1c-3.4,0-6.1-2.7-6.1-6.1
	c0-3.4,2.7-6.2,6.1-6.2S28,3.5,28,6.9z M21.8,3.6c-1.4,0-2.5,1.4-2.5,3.2s1.1,3.2,2.5,3.2s2.5-1.4,2.5-3.2S23.2,3.6,21.8,3.6z"/>
<path id="path26" inkscape:connector-curvature="0" class="st1" d="M36.2,1l-0.6,3.4c-0.2-0.1-0.5-0.2-1.3-0.1
	c-1.2,0.2-1.8,1.1-2,2.3v6.1h-3.4V1h3.4v1.2C33.1,1.1,34.4,0.6,36.2,1z"/>
</svg>
