<?xml version="1.0" encoding="utf-8"?>
<!-- Generator: Adobe Illustrator 24.0.2, SVG Export Plug-In . SVG Version: 6.00 Build 0)  -->
<svg version="1.1" id="Layer_1" xmlns="http://www.w3.org/2000/svg" xmlns:xlink="http://www.w3.org/1999/xlink" x="0px" y="0px"
	 viewBox="0 0 214.5 59.4" style="enable-background:new 0 0 214.5 59.4;" xml:space="preserve" width="70" height="35">
<style type="text/css">
	.st0{fill:#D00023;}
	.st1{fill:#4A4A4C;}
</style>
<title>logo.design.svg</title>
<g id="Layer_2_1_">
	<g id="Layer_1-2">
		<path class="st0" d="M8.5,28.8c-4.7,0-8.5,3.8-8.4,8.5s3.8,8.5,8.5,8.4c4.7,0,8.4-3.8,8.4-8.5C17,32.6,13.2,28.8,8.5,28.8
			L8.5,28.8z"/>
		<path class="st1" d="M37.6,12.2c7.6,0,10.1,5.2,10.1,5.2h0.1c-0.1-0.7-0.1-1.5-0.1-2.2V0H54v45.8h-6v-3.1c0-1.3,0.1-2.2,0.1-2.2
			H48c0,0-2.7,6.1-10.8,6.1c-8.9,0-14.5-7-14.5-17.2C22.8,18.9,28.9,12.2,37.6,12.2z M38.4,41.1c4.9,0,9.5-3.4,9.5-11.8
			c0-5.8-3-11.7-9.3-11.7c-5.2,0-9.5,4.3-9.5,11.7C29.2,36.5,33,41.1,38.4,41.1z"/>
		<path class="st1" d="M78.6,12.2c9.3,0,14.2,6.9,14.2,15.4c0,0.8-0.2,2.7-0.2,2.7H68.7C69,37.5,74.1,41.1,80,41.1
			c3.6-0.1,7-1.5,9.7-3.8l2.6,4.6c-3.5,3-8,4.7-12.7,4.7c-10.3,0-17.4-7.5-17.4-17.2C62.2,18.9,69.3,12.2,78.6,12.2z M86.4,25.5
			c-0.2-5.6-3.7-8.4-7.9-8.4c-4.8,0-8.7,3-9.6,8.4H86.4z"/>
		<path class="st1" d="M102.9,37.3c2.5,2.4,5.9,3.8,9.4,3.8c2.7,0,5.4-1.4,5.4-4.1c0-6-16.8-4.8-16.8-15.5c0-6,5.3-9.3,11.9-9.3
			c7.2,0,10.6,3.6,10.6,3.6l-2.5,4.7c-2.2-1.9-5.1-3-8.1-2.9c-2.7,0-5.4,1.2-5.4,4c0,5.9,16.8,4.6,16.8,15.4c0,5.4-4.7,9.5-11.9,9.5
			c-4.6,0.1-9.1-1.6-12.4-4.8L102.9,37.3z"/>
		<path class="st1" d="M131.3,0h6.4v6.4h-6.4V0z M131.4,13h6.3v32.8h-6.3V13z"/>
		<path class="st1" d="M160,53.9c5.7,0,10.4-2.5,10.4-9.2v-2.4c0-1,0.1-2.1,0.1-2.1h-0.1c-1.9,3.2-5,5.1-9.7,5.1
			c-9.1,0-14.6-7.3-14.6-16.8s5.2-16.4,14.3-16.4c7.9,0,10.3,4.9,10.3,4.9h0.1c0-0.3-0.1-0.7-0.1-1v-3h6v31.4c0,10.8-8.2,15-16.5,15
			c-3.9,0-7.7-1-11.2-2.7l2.1-5C153.8,53.1,156.9,53.9,160,53.9z M170.5,28.6c0-8.6-4.1-11-9.3-11c-5.7,0-8.9,4.1-8.9,10.8
			s3.6,11.5,9.5,11.5C166.3,39.9,170.5,37.2,170.5,28.6L170.5,28.6z"/>
		<path class="st1" d="M184.8,13h6.1v4.3c0,0.8,0,1.6-0.1,2.4h0.1c2.3-4.7,7.1-7.6,12.3-7.5c7.7,0,11.3,4.2,11.3,12.6v21h-6.3V26.2
			c0-4.6-1-8.2-6.2-8.2c-4.9,0-9.1,3.3-10.4,8c-0.4,1.4-0.6,2.9-0.5,4.4v15.4h-6.3L184.8,13z"/>
	</g>
</g>
</svg>
