<?xml version="1.0" encoding="utf-8"?>
<!-- Generator: Adobe Illustrator 24.0.2, SVG Export Plug-In . SVG Version: 6.00 Build 0)  -->
<svg version="1.1" id="Layer_1" xmlns="http://www.w3.org/2000/svg" xmlns:xlink="http://www.w3.org/1999/xlink" x="0px" y="0px"
	 viewBox="0 0 58.1 18.4" style="enable-background:new 0 0 58.1 18.4;" xml:space="preserve" width="60" height="35">
<style type="text/css">
	.st0{fill:#EF4C3D;}
</style>
<path d="M12.2,10.2H9.6c-0.4,0-0.7,0-1.1,0.1c-0.3,0-0.5,0.1-0.5,0.2c0,0.3-0.1,0.6-0.1,1c0,0.4,0,0.9-0.1,1.3V17
	c0,0.2,0,0.4-0.1,0.5c-0.1,0.2-0.2,0.3-0.4,0.2c-0.2-0.1-0.4-0.2-0.5-0.4c0-0.2-0.2-0.4-0.3-0.6s-0.2-0.3-0.2-0.4
	c-0.3-0.5-0.5-1.1-0.7-1.7c-0.2-0.6-0.4-1.2-0.4-1.8c0-0.3-0.1-0.7-0.1-1.1c0-0.4,0-0.7-0.1-1.1c-0.2,0-0.3,0-0.5,0.1H3.9
	c-0.2,0-0.4-0.1-0.5-0.2c-0.2-0.1-0.3-0.3-0.3-0.5c0-0.2,0.1-0.4,0.2-0.6c0.1-0.2,0.2-0.3,0.4-0.3C3.7,9,3.9,9,4.1,8.9
	c0.3,0,0.5-0.1,0.8-0.2v-4c0-0.5,0-1.1,0.1-1.6c0-0.4,0.1-0.9,0.2-1.3c0.1-0.4,0.2-0.6,0.4-0.7c0.3-0.3,0.6-0.4,1-0.3
	C6.8,1.2,7,1.5,7.2,1.9C7.4,2.4,7.6,3,7.7,3.6c0.1,0.7,0.2,1.3,0.3,2c0.1,0.6,0.2,1.2,0.2,1.8c0,0.3,0,0.7,0.1,1
	c0.4-0.1,0.8-0.1,1.2-0.1h1.2c0.3,0,0.6,0,0.9-0.1C11.9,8.2,12,8.1,12,8V6.7c0-0.6-0.1-1.2-0.1-1.8V3.2c0-0.4,0-0.7,0.1-1.1
	c0.1-0.3,0.2-0.6,0.5-0.7c0.2,0,0.4,0,0.6,0.1c0.2,0.1,0.4,0.3,0.5,0.6c0.1,0.2,0.2,0.5,0.3,0.7C13.9,3.2,14,3.6,14,4
	s0.1,0.8,0.2,1.2s0.1,0.8,0.1,1.3v1.1H15c0.2,0,0.5-0.1,0.7-0.1h0.6c0.2,0,0.3,0.1,0.3,0.2c0.1,0.2,0,0.4-0.2,0.5c0,0,0,0,0,0
	c-0.1,0.3-0.3,0.6-0.6,0.7c-0.2,0.2-0.5,0.3-0.8,0.4c-0.2,0.1-0.4,0.2-0.6,0.4v5.7c0,0.5-0.1,0.9-0.1,1.3s-0.1,0.7-0.2,0.8
	s-0.2,0.2-0.4,0.1c-0.4-0.3-0.6-0.8-0.7-1.3c-0.2-0.7-0.3-1.4-0.3-2.1c-0.1-0.7-0.1-1.5-0.2-2.2S12.3,10.7,12.2,10.2z"/>
<path d="M12.2,10.2H9.6c-0.4,0-0.7,0-1.1,0.1c-0.3,0-0.5,0.1-0.5,0.2c0,0.3-0.1,0.6-0.1,1c0,0.4,0,0.9-0.1,1.3V17
	c0,0.2,0,0.4-0.1,0.5c-0.1,0.2-0.2,0.3-0.4,0.2c-0.2-0.1-0.4-0.2-0.5-0.4c0-0.2-0.2-0.4-0.3-0.6s-0.2-0.3-0.2-0.4
	c-0.3-0.5-0.5-1.1-0.7-1.7c-0.2-0.6-0.4-1.2-0.4-1.8c0-0.3-0.1-0.7-0.1-1.1c0-0.4,0-0.7-0.1-1.1c-0.2,0-0.3,0-0.5,0.1H3.9
	c-0.2,0-0.4-0.1-0.5-0.2c-0.2-0.1-0.3-0.3-0.3-0.5c0-0.2,0.1-0.4,0.2-0.6c0.1-0.2,0.2-0.3,0.4-0.3C3.7,9,3.9,9,4.1,8.9
	c0.3,0,0.5-0.1,0.8-0.2v-4c0-0.5,0-1.1,0.1-1.6c0-0.4,0.1-0.9,0.2-1.3c0.1-0.4,0.2-0.6,0.4-0.7c0.3-0.3,0.6-0.4,1-0.3
	C6.8,1.2,7,1.5,7.2,1.9C7.4,2.4,7.6,3,7.7,3.6c0.1,0.7,0.2,1.3,0.3,2c0.1,0.6,0.2,1.2,0.2,1.8c0,0.3,0,0.7,0.1,1
	c0.4-0.1,0.8-0.1,1.2-0.1h1.2c0.3,0,0.6,0,0.9-0.1C11.9,8.2,12,8.1,12,8V6.7c0-0.6-0.1-1.2-0.1-1.8V3.2c0-0.4,0-0.7,0.1-1.1
	c0.1-0.3,0.2-0.6,0.5-0.7c0.2,0,0.4,0,0.6,0.1c0.2,0.1,0.4,0.3,0.5,0.6c0.1,0.2,0.2,0.5,0.3,0.7C13.9,3.2,14,3.6,14,4
	s0.1,0.8,0.2,1.2s0.1,0.8,0.1,1.3v1.1H15c0.2,0,0.5-0.1,0.7-0.1h0.6c0.2,0,0.3,0.1,0.3,0.2c0.1,0.2,0,0.4-0.2,0.5c0,0,0,0,0,0
	c-0.1,0.3-0.3,0.6-0.6,0.7c-0.2,0.2-0.5,0.3-0.8,0.4c-0.2,0.1-0.4,0.2-0.6,0.4v5.7c0,0.5-0.1,0.9-0.1,1.3s-0.1,0.7-0.2,0.8
	s-0.2,0.2-0.4,0.1c-0.4-0.3-0.6-0.8-0.7-1.3c-0.2-0.7-0.3-1.4-0.3-2.1c-0.1-0.7-0.1-1.5-0.2-2.2S12.3,10.7,12.2,10.2z"/>
<path d="M11.9,10.3C11.9,10.2,11.8,10.2,11.9,10.3z M12.2,12.2h-0.1l0.1,0.3V12.2z M12.3,14.1c0.1-0.2-0.1-0.7,0-1V13l-0.1-0.1
	C12.2,13.3,12.3,13.8,12.3,14.1z M12.2,15.1c0-0.1,0.1,0.2,0-0.2V15.1z M12.1,14.9l0.2,0.9l-0.1-0.3c0,0.1,0.1,0.2,0.1,0.3
	L12.1,14.9z M12.1,14.7l0.1,0.3v-0.1c-0.2,0-0.3,0.2-0.3,0.4c0,0.2,0.2,0.3,0.4,0.3L12.1,14.7z M12.1,14.5c0.2,0.4,0.1,0.4,0.2,0.9
	L12.1,14.5z M12.6,16.7v-0.2l-0.1-0.2c0,0.1,0.1,0.2,0.1,0.3c0,0,0.3,0.9,0.2,1L12.6,16.7z M12.6,16.5c0.1,0.1,0.1,0.1,0.1,0.2
	c0.1,0.1,0.1,0.1,0.1,0.2C12.8,16.6,12.7,16.5,12.6,16.5z M12.6,16l-0.2-0.4l0.2,0.5V16z M14.2,18.2c0,0-0.2,0.2-0.2,0.1
	C14.1,18.3,14.1,18.3,14.2,18.2c0.1,0,0.1-0.2,0.1-0.2C14.2,18.1,14.2,18.1,14.2,18.2z M14.6,17.2c0,0.2,0.1-0.2,0.1,0
	c0-0.1,0-0.2,0.1-0.2v-0.5C14.8,16.7,14.7,17,14.6,17.2z M13.6,18.1c0.1,0.1,0.2,0.1,0.3,0.1l-0.2-0.1H13.6z"/>
<path d="M13.7,18.2c0.2,0,0.3,0,0.3-0.1C13.9,18.2,13.8,18.2,13.7,18.2z M12.7,16.8c0.1,0.2,0.3,0.5,0.2,0.1
	C12.8,16.8,12.8,17,12.7,16.8z M13.4,17.9l-0.1-0.1c-0.1-0.1-0.1-0.1-0.1-0.2c0,0,0,0.1-0.1,0v0.1l0.1,0.1L13.4,17.9z M13.6,18
	l-0.2-0.1L13.6,18z M14.7,16.8v-0.4C14.6,16.5,14.6,16.7,14.7,16.8c-0.1,0.1-0.1,0.1,0,0.1C14.6,16.9,14.7,16.9,14.7,16.8z
	 M14.6,16.9c-0.1,0.1-0.1,0.3-0.1,0.4C14.5,17.2,14.5,17,14.6,16.9z M14.8,15.8c0,0.1,0,0.1-0.1,0.2C14.8,16,14.8,15.8,14.8,15.8z
	 M14.4,14.2c0.1,0,0.1,0.4,0,0.7s0.2,0.1,0.4-0.1c0,0-0.1,0-0.1-0.3c0,0.1-0.1,0.7-0.1,0.4s0-0.3,0.1-0.5c-0.1,0.2-0.1-0.5-0.2-0.4
	L14.4,14.2C14.4,14.2,14.4,14.3,14.4,14.2z"/>
<path d="M14.7,15.3v0.1c0-0.1,0-0.3,0.1-0.4c0-0.2,0-0.2-0.1-0.3V15.3z M14.7,16c-0.1-0.1-0.1-0.4-0.1-0.2v0.5
	C14.6,15.7,14.6,16.4,14.7,16z M13.1,17.2l0.2,0.2C13.3,17.4,13.2,17.4,13.1,17.2c0-0.1-0.2-0.3-0.1,0c0.1,0.1,0.1,0.3,0.2,0.4
	c0.1,0.1,0.1,0.1,0.1,0.2c0.1-0.1,0-0.2,0-0.4L13.1,17.2z M14.1,17.2l0.1-0.6l-0.1,0.3c0.1,0.5,0.2,0.5,0.2,0.5L14.1,17.2z
	 M14.6,14.5h0.1l-0.1-0.2V14.5z M14.6,13.8l0.1,0.1L14.6,13.8L14.6,13.8z M14,2.2c0-0.1-0.1-0.2-0.1-0.3c-0.1-0.1-0.1-0.1-0.1-0.2
	v0.1C13.9,2,13.9,2.1,14,2.2z M5.3,5.5l0.1,0.2C5.4,5.4,5.3,5.5,5.3,5.5z M16.4,8.9c0.1-0.1,0.2-0.2,0.3-0.2s0.2-0.1,0.2-0.2
	l-0.3,0.3C16.5,8.8,16.5,8.9,16.4,8.9z M7.1,1L7.1,1C7.1,1,7.1,1.1,7.1,1z M17,7.8L17,7.8c0,0.3,0,0.4-0.1,0.6
	C17.1,8.3,17.1,8,17,7.8z M7.5,13.8l3-3.3L7.5,13.8z M11.8,14.8l-0.2,0.7l0.2-0.5V14.8z M2.2,14.9l7-8.5c3-3.2,2.9-3.1,3-3.1
	L2.2,14.9z M2.2,15.3c-0.1-0.2-0.1-0.3-0.1-0.5L1.9,15L2.2,15.3z"/>
<path d="M5.4,2.4l0.1-0.3c0,0.4,0,0.7,0.1,0.4C5.5,2.4,5.5,2.4,5.4,2.4l0.1-0.5c0-0.1,0-0.1,0.1-0.2V1.4h0.2L5.7,1.5
	c0.2-0.1,0.2-0.1,0.2-0.2S6,1.2,6.1,1.2h0.1v0.1c0.1,0,0.1,0,0.1,0.1l0.1,0.1c0.1,0.1,0,0.1,0,0l0.1,0.1c0.1,0.1,0.1,0.1,0.1,0.2
	c0.2,0,0.2,0,0.2,0.1V2C6.9,2.1,7,2.2,7,2.3s0-0.1-0.1,0l0.2,0.3c0,0.2-0.1-0.1-0.2-0.3v0.4C7,2.8,7.1,2.9,7.1,3.3V2.9
	c-0.1,0.2,0,0.5,0,0.8c0-0.1,0-0.8,0.1-0.4c0,0.1,0,0.3,0.1,0.4c-0.1,0,0,0.2,0,0.5H7.2c0,0.1,0.1,0.3,0.2,0.4c0,0.3,0,0.4-0.1,0.5
	c0.1,0.5,0.1-0.4,0.2,0.2c0,0.4,0.1,0.8,0.2,1.2c0,0.3-0.1,0-0.1,0.1l0.2,0.2C7.9,7,7.9,6.8,8,7.1c0.1,0.1-0.1,0.6,0.1,1.3
	c0,0.2-0.1,0-0.1,0.1v0.3h0.2c0.1,0,0.2,0,0.3-0.1c0.1,0,0.2,0,0.3-0.1c0.1,0,0.2-0.1,0.3-0.1h0.4C9.2,8.4,9.6,8.3,9.9,8.3
	c-0.1,0-0.2-0.1-0.3-0.1l0.5-0.1c0.1,0,0,0-0.1,0.1h0.1c0.2,0,0.1,0.1,0,0.1s-0.1,0-0.2-0.1C9.8,8.4,9.7,8.5,9.7,8.6h0.4l0.1,0.1
	h0.7c0.1,0,0.2-0.1,0.4-0.1s0.2-0.1,0.4-0.1c0.2,0,0.3-0.1,0.4-0.2c0.1-0.1,0-0.2,0-0.3V7.7c0.1,0.2,0.1,0.1,0.2,0.1
	c-0.1,0.1,0,0.3-0.1,0.6c-0.2,0.2-0.4,0.3-0.7,0.3c0.3,0,0.3,0,0.2,0.1h0.2c0.1,0,0.2-0.1,0.3-0.2l0.1-0.1V8.1c0.1,0,0.1,0,0.1-0.1
	c0,0,0,0,0,0V7.7c-0.1,0.1-0.1-0.5-0.2-0.8c0.1,0,0.1,0,0.1,0.4c0.1-0.4-0.2-0.5-0.1-0.9v0.2c-0.1-0.2-0.1-0.4,0-0.6v0.1
	c0-0.6-0.1-1.3-0.2-1.9l0.2,0.1C12.1,4.1,12.1,4,12,3.8c-0.1-0.2-0.1-0.3-0.2-0.5c0.1,0.1,0.4-0.2,0.4,0.2V2.9C12.2,3,12,3.1,12,3
	c0.1-0.2,0.2-0.4,0.3-0.6c-0.1,0.1-0.2-0.1-0.1-0.3c0,0,0.2,0.1,0.1,0.1V2c0-0.1,0-0.1,0.1-0.2c-0.1,0,0,0.1,0.1,0.2h0.1
	c0.1,0,0.1,0,0.2,0.1L12.7,2l-0.1-0.1c0.2,0.1,0.3,0.2,0.5,0.3s0.3,0.2,0.4,0.4c-0.1-0.1-0.3-0.1-0.2,0.2c0.3,0.3,0.5,0.7,0.6,1.1
	v0.3c0,0.1,0,0.1,0.1,0.2C13.7,4,13.5,3.5,13.3,3c0,0.2-0.1,0.1,0,0.4c0,0.1-0.1-0.2-0.1-0.3V4c0.1,0,0.2,0.6,0.3,0.6
	c-0.1-0.1-0.1-0.3-0.1-0.4c0-0.2,0-0.3-0.1-0.5c0.1,0,0.3,0.5,0.4,1.1c0,0.2-0.2-0.1-0.2-0.1s0.1,0.5,0.1,0.6l0.2-0.2
	c0,0.3,0.2,0.5,0.1,0.9c0,0.1-0.1,0.4,0,0.4c0.1-0.2,0.5-0.3,0.6-0.2v0.4c0,0.2-0.1,0.3-0.1,0.5c-0.1,0.2-0.2-0.3-0.3-0.1
	c0.1,0.1,0.1,0.1,0.1,0.2c0,0.1,0,0.1-0.1,0.1v0.3c0.1,0,0,0.9,0.1,0.2V8h0.1c0.2,0.1,0.3,0.1,0.5,0c-0.1,0,0.1-0.1,0.2-0.2
	s0.3-0.1,0.5-0.2l0.1,0.1c0.3,0,0.5-0.1,0.7,0c0.2,0,0.4,0.1,0.4,0.3c0,0,0,0.1,0,0.1l-0.1,0.1c-0.1,0-0.1,0.1-0.1,0
	c0,0.1,0,0.1-0.1,0.2c-0.3,0.1,0.2-0.2-0.1-0.1c0,0.1,0,0.1-0.1,0.1l0,0c-0.1,0.1-0.2,0.1-0.3,0.2c0.1,0,0.2-0.1,0.3-0.1
	s0.2-0.2,0.2-0.3s0.1,0.1,0,0.2l-0.1,0.1l-0.1,0.1c-0.1,0.1-0.2,0.2-0.4,0.3c-0.4,0.3-0.2,0-0.3,0.1c-0.4,0.2-0.6,0.3-0.7,0.5
	s-0.2,0.1-0.2,0.3s-0.2,0-0.2,0.1V9.5c0.1-0.1,0.2-0.1,0.3-0.2c-0.1,0-0.1,0-0.1,0.1v0c-0.1,0-0.1,0-0.1,0.1v0
	c0.1-0.1,0.3-0.2,0.4-0.3c-0.1,0-0.2,0.1-0.3,0.1s-0.1,0.1-0.2,0.2v1.6c0,0.1,0.1,0.3,0.1,0.2v-0.2c0.1-0.2,0.1,0.4,0.1,0.1
	c0.1,0.3,0.1,0.7,0.1,1l-0.1,0.1c0,0,0.1-0.3,0-0.4c0,0.2-0.1,0.6,0,0.8l0.1-0.3c0.1,0.3,0.1,0.7,0.1,1c0.1-0.2,0-0.1,0.1-0.4
	c-0.1,0.2,0-1-0.1-0.6c0.1-0.3,0-0.5,0.1-0.8c0,0-0.1,0.1,0-0.2v0.1c-0.1-0.3-0.1-0.5-0.1-0.8c0-0.2,0,0.1,0.1,0l-0.1-0.2
	c0.1,0,0.1-0.5,0.2-0.1V9.5l0.1-0.1l0.2-0.2c0.1-0.1,0.2-0.1,0.3-0.2c0.1-0.1,0.3-0.1,0.4-0.2c0.1-0.1,0.1-0.1,0.2-0.1l0.1-0.1
	l0.2-0.1c0.4-0.3,0.8-0.6,0.8-1.1c0-0.1,0-0.1-0.1-0.2L17,7c-0.1-0.1-0.1-0.1-0.2-0.1c-0.1,0-0.2,0-0.3-0.1V6.7h-0.8
	c-0.2,0-0.3,0-0.4,0.1H15V6.4h-0.1c0-0.3-0.1-0.6-0.1-1h-0.1c-0.1-0.3,0-0.9-0.1-1.4v0.3c0-0.3,0-0.7-0.1-1c0-0.2-0.1-0.3-0.1-0.5
	V2.3c-0.1-0.1-0.1-0.3-0.1-0.4V1.8c0-0.1,0-0.1-0.1-0.2c0,0.1,0,0.1,0.1,0.2c-0.3,0.4-0.4,0.3-0.5,0.1V1.8c-0.1-0.2-0.1-0.1-0.1,0
	l-0.2-0.2c0-0.2-0.4-0.3-0.6-0.4c-0.2,0-0.5,0.1-0.7,0.2C12.1,1.5,12,1.6,12,1.7v0.2c-0.2,0.1-0.2,0.2-0.3,0.3v0.3l-0.1,0.1L11.7,3
	c-0.1,0.2-0.1,0.4-0.2,0.1c0,0.3,0.1,0.7,0.2,1h-0.1c0,0.2,0.1,0.5,0,0.6c-0.1,0.4,0.1,2,0,3c0-0.1,0.1,0,0.1,0v0.4
	c-0.1,0-0.1,0-0.1-0.1c-0.1,0-0.1,0-0.1,0.1v0h-0.2c-0.2,0-0.3,0-0.5,0.1c0-0.3,0.2-0.3,0.1-0.3c-0.5,0-0.6,0.2-0.6,0.3H9.7
	c-0.1,0-0.3-0.1,0.1-0.1h-1c-0.1,0-0.1,0-0.1,0.1H8.5V7.7C8.3,7.5,8.4,7.3,8.3,7c0-0.8-0.1-0.3,0-1.1H8.2c-0.1,0-0.1-0.2-0.1-0.4
	c0-0.2,0-0.5-0.1-0.7V5c0-0.2,0.2-0.6,0.2-0.9c0-0.1,0,0.1,0.1,0.2c0-0.6-0.1-0.1-0.2-0.5c0-0.1,0.2,0.1,0.1-0.2
	C8,3.2,7.9,2.7,7.8,2.3c0,0.1,0,0.2-0.1,0C7.6,2.1,7.5,1.8,7.4,1.6c0-0.1-0.1-0.2-0.2-0.3S7.1,1.1,7,1V0.9c-0.1,0-0.2,0-0.2-0.1
	S6.5,0.7,6.4,0.6C6.2,0.6,6,0.7,5.8,0.8c-0.1,0-0.3,0-0.4,0.1L5.2,1.1C5.1,1.2,5.1,1.3,5,1.4C4.9,1.8,4.9,2.1,4.8,2.1
	c0,0.1,0,0.3-0.1,0.4v0.4c-0.1,0.3-0.1,0.6,0,0.9c0,0.1,0,0-0.1,0c-0.1,0.5-0.1,0.9,0,1.4C4.5,5.8,4.5,6.4,4.6,7V6.9
	c0.1,0.4,0.1,0.9,0,1.3v0.2L4.5,8.5c-0.1,0-0.1,0-0.2,0.1c-0.1,0-0.1,0-0.2,0.1H4c0.7,0-0.1,0.2,0.2,0.2C4,9,3.5,9,3.8,8.9h0.1
	c0-0.1-0.2-0.1-0.4,0S3.3,9,3.2,9.1C3.1,9.2,3.1,9.2,3,9.2C2.8,9.4,2.8,9.6,2.7,9.8v0.3c0,0.1,0.1,0.2,0.1,0.3s0.1,0.2,0.2,0.3
	s0.2,0.1,0.3,0.2h1.3c0.1,0,0,0,0,0.1v0.4h0.2v0.4c0,0.1-0.1,0.2-0.1-0.2c-0.1,0.2,0.1,0.6,0.1,0.6c0,0.6-0.1-0.2-0.1,0v0.2
	c0.1,0.1,0.1,0.2,0.1,0.5v0.7c0,0.1,0.1,0.2,0.1,0.3v-0.2c0.2,0.2,0.2,0.5,0.2,0.2c0,0.4,0.1,0.8,0.3,1.2c0.2,0.3,0.3,0.7,0.4,1
	c0.1,0.1,0.1,0.2,0.2,0.3c0.1,0.1,0.2,0.2,0.2,0.4c0.1,0.1,0.2,0.2,0.3,0.4c0-0.1,0-0.2,0.2,0.1c-0.1,0-0.1,0,0,0.1
	c0,0.1,0,0.1,0.1,0.1c0,0,0,0,0,0v0.1c0.1,0,0.1,0,0.1,0.1l0,0C7,17.8,7.1,17.9,7.3,18c0.1,0.1,0.2,0.2,0.4,0.2
	c0.2,0,0.3-0.1,0.4-0.2c0.1-0.1,0.1-0.2,0.1-0.3c0-0.1,0-0.1-0.1,0c0-0.1,0-0.1,0.1-0.1s0,0.1,0.1-0.1v-2.6c0,0-0.1,0.1-0.1-0.1
	l0.1-0.5c0-0.2-0.2-0.2-0.1-0.5c0,0-0.1,0.1-0.1,0c0-0.4,0-0.9,0.1-1.3c0-0.4,0-0.9,0.1-1.3v-0.3c0-0.1,0-0.2,0.1-0.2h0.5
	c0.4,0,0.9,0,1.3,0.1c-0.2-0.1-0.1-0.1,0.1-0.1c-0.1,0,0-0.1,0-0.1l0.7,0.1c0.1-0.1,0.8,0,0.9-0.1h-0.2c0.3-0.1-0.5-0.2-0.4-0.4
	c-0.3,0.1-0.9-0.2-1.5,0c-0.1,0,0.1,0,0-0.1c-0.1,0.1-0.3,0.1-0.7,0.1H8.5c-0.3,0-0.5,0-0.7,0.2c0,0.1,0,0.1-0.1,0.2v0.5
	c0,0.2-0.1,0.4-0.1,0.7l0.1-0.1c0,0.2,0,0.3-0.1,0.4c0.1,0.3,0-0.6,0.1-0.4c-0.2,0.3-0.1,1.6-0.2,1.8s0.1-0.1,0.1,0.2v0.1l0.1,0.1
	c0,0.1,0,0.2-0.1,0.3V14c-0.1,0.3-0.1,0.6,0,0.9v2.5c0,0.2-0.1,0.3-0.2,0.3l-0.1-0.1c-0.1,0-0.1-0.1-0.2-0.1H7l-0.1-0.1
	c0.1-0.4,0-0.5-0.1-0.6c0.1,0.1-0.1-0.3,0-0.2c-0.2-0.2-0.2-0.3-0.3-0.3H6.3l0.1-0.1l-0.1-0.1V16c-0.1-0.1-0.1-0.1-0.3-0.5
	c0.2,0.3,0-0.3,0.2,0c-0.2-0.8-0.6-1-0.5-1.4c-0.3-0.3,0.1,0.7,0,0.5c0,0.1,0,0-0.1-0.1c-0.1-0.1-0.1-0.3-0.1-0.4v-1
	c0-0.2-0.1-0.4-0.1-0.7s0-0.4-0.1-0.4l0.1,0.6c-0.1-0.4-0.2-0.8-0.2-1.2c0,0.1,0.1,0.2,0.1,0.3v-0.5c0.1,0,0.1,0.2,0.1,0.4
	s0,0.5,0.1,0.6c0-0.2-0.1-0.7,0-0.5c-0.1-0.1-0.1-0.3-0.1-0.5v-0.3c0-0.2,0-0.3-0.1-0.4h0.1v-0.3h0.1c0,0.1,0,0.1,0.1,0.1
	c0,0,0,0,0,0v-0.1H4.8c0,0-0.1,0.1,0.1,0.1H4.4c-0.1,0-0.1,0-0.2-0.1S4.1,10.1,4,10.1c-0.1,0-0.1,0-0.1-0.1l0,0H3.8
	c0,0,0.1,0.1,0,0.1H3.7V9.8c0,0,0,0.1-0.1,0V9.4h0.1c0.1-0.2,0.2-0.2,0.2-0.2s0-0.1,0.3-0.2C4.1,9,4.1,9,4.1,9.1l0,0L4,9.2l0.3-0.1
	v0.1c0.1-0.1,0.3-0.1,0.4-0.1h0.2c0.1,0,0.2,0,0.3-0.1c-0.1,0-0.1,0,0-0.1c0.1,0,0.1,0,0.2-0.1h0.2V8.7c0-0.3,0.1,0.2,0-0.5
	c0,0.1,0.1,0.2,0.1,0.3v0.3H5.6L5.5,8.9h0.3V7.8c0-0.1,0-0.2-0.1-0.3c0-0.1,0,0,0.1,0.1c0-0.1,0-0.3-0.1-0.4c0.1,0,0.1,0,0.2,0.3
	L5.3,7c0,0,0.1-0.3,0.1-0.2c0-0.3-0.1-0.9-0.1-1.3V5.3c0.1-0.4,0.1-0.9,0-1.3l0.1-0.3c0-0.4-0.2,0.4-0.2-0.3c0-0.5,0.1-0.2,0.1-0.3
	V2.6c0-0.2,0-0.4,0.1-0.6C5.5,2.2,5.4,2.3,5.4,2.4z M7.3,3.3c0-0.1-0.1-0.2-0.1-0.3C7.3,3.1,7.3,3.2,7.3,3.3z M10.6,8.5h-0.3
	C10.4,8.5,10.5,8.4,10.6,8.5z M14.7,10.1v0.4V10.1z M5.3,5.4L14,7.2L5.3,5.4z"/>
<path d="M14.6,13.2c-0.1,0,0,0.2,0,0.4C14.7,13.6,14.7,13.4,14.6,13.2z M14.8,11.1c0,0.1,0,0.1,0.1,0.1h0
	C14.9,11.3,14.7,10.6,14.8,11.1z M14.4,13.3h0.1l-0.1-0.2V13.3z M15.6,9.1c0.1,0,0.1,0,0.2-0.1c0-0.1,0-0.1,0.1-0.1h0
	c-0.1,0-0.1,0-0.2,0.1L15.6,9.1z M14.6,9.4h0.2V9.3L14.6,9.4z M15.5,8.9C15.5,8.8,15.2,9,15.5,8.9z M14.2,6.6L14.2,6.6l0.2,0.1
	L14.2,6.6z M13.1,2.4c0.2,0.3,0.1,0,0.3,0.3c0.1,0.1-0.1-0.3,0-0.2C13.2,2.3,13.2,2.2,13.1,2.4z M11.5,10.6h0.3l-0.2-0.1L11.5,10.6z
	 M5.5,3.3V2.9C5.5,3.2,5.4,3.3,5.5,3.3z M43.2,3.7c-0.2,0-0.4,0.1-0.8,0.1c-0.4,0-0.7,0.1-1,0.3c-0.4,0.2-0.8,0.4-1.2,0.7
	c-0.5,0.4-0.9,0.8-1.2,1.3c-0.5,0.7-0.7,1.4-0.4,1.8s0.9,0.9,2,1.4c0.5,0.2,1.1,0.4,1.7,0.6c0.6,0.2,1.2,0.4,1.7,0.7
	c0.5,0.3,1,0.7,1.3,1.2c0.4,0.6,0.7,1.3,0.8,2.1c0.1,0.6,0,1.3-0.4,1.8c-0.3,0.5-0.8,0.9-1.4,1.2c-0.6,0.3-1.2,0.6-1.9,0.7
	c-0.6,0.2-1.3,0.2-1.9,0.2c-1.8,0.1-3.6-0.5-5.1-1.6c-0.4-0.3-0.7-0.7-0.9-1.2c-0.1-0.4-0.1-0.6,0.1-0.8s0.3-0.1,0.6,0
	c0.3,0.1,0.6,0.2,0.9,0.3c0.4,0.1,0.8,0.3,1.2,0.4c0.5,0.1,1,0.2,1.5,0.2c0.6,0,1.3,0,1.9-0.2c0.8-0.1,1.5-0.4,2.2-0.9
	c0.3-0.2,0.5-0.4,0.5-0.7c0.1-0.3,0-0.7-0.2-0.9c-0.3-0.4-0.6-0.7-1-0.9c-0.6-0.3-1.2-0.6-1.8-0.7c-0.6-0.1-1.3-0.3-1.9-0.5
	c-0.6-0.2-1.2-0.4-1.7-0.7c-0.5-0.3-0.9-0.7-1.2-1.1C35.3,8,35.1,7.4,35,6.8c0-0.6,0.1-1.1,0.4-1.6c0.3-0.7,0.8-1.3,1.3-1.8
	c0.5-0.6,1.1-1.2,1.8-1.7c0.6-0.5,1.3-0.9,2-1.2c0.6-0.3,1.3-0.3,1.9-0.2c0.6,0.1,1.2,0.5,1.5,1c0.2,0.4,0.6,0.7,0.9,1
	c0.3,0.3,0.6,0.5,0.9,0.7c0.2,0.2,0.4,0.3,0.5,0.5s0.1,0.3-0.1,0.5c-0.2,0.2-0.4,0.2-0.6,0.2c-0.2,0-0.5-0.1-0.7-0.2l-0.6-0.2
	C43.9,3.7,43.5,3.6,43.2,3.7z"/>
<path d="M43.2,3.7c-0.2,0-0.4,0.1-0.8,0.1c-0.4,0-0.7,0.1-1,0.3c-0.4,0.2-0.8,0.4-1.2,0.7c-0.5,0.4-0.9,0.8-1.2,1.3
	c-0.5,0.7-0.7,1.4-0.4,1.8s0.9,0.9,2,1.4c0.5,0.2,1.1,0.4,1.7,0.6c0.6,0.2,1.2,0.4,1.7,0.7c0.5,0.3,1,0.7,1.3,1.2
	c0.4,0.6,0.7,1.3,0.8,2.1c0.1,0.6,0,1.3-0.4,1.8c-0.3,0.5-0.8,0.9-1.4,1.2c-0.6,0.3-1.2,0.6-1.9,0.7c-0.6,0.2-1.3,0.2-1.9,0.2
	c-1.8,0.1-3.6-0.5-5.1-1.6c-0.4-0.3-0.7-0.7-0.9-1.2c-0.1-0.4-0.1-0.6,0.1-0.8s0.3-0.1,0.6,0c0.3,0.1,0.6,0.2,0.9,0.3
	c0.4,0.1,0.8,0.3,1.2,0.4c0.5,0.1,1,0.2,1.5,0.2c0.6,0,1.3,0,1.9-0.2c0.8-0.1,1.5-0.4,2.2-0.9c0.3-0.2,0.5-0.4,0.5-0.7
	c0.1-0.3,0-0.7-0.2-0.9c-0.3-0.4-0.6-0.7-1-0.9c-0.6-0.3-1.2-0.6-1.8-0.7c-0.6-0.1-1.3-0.3-1.9-0.5c-0.6-0.2-1.2-0.4-1.7-0.7
	c-0.5-0.3-0.9-0.7-1.2-1.1C35.3,8,35.1,7.4,35,6.8c0-0.6,0.1-1.1,0.4-1.6c0.3-0.7,0.8-1.3,1.3-1.8c0.5-0.6,1.1-1.2,1.8-1.7
	c0.6-0.5,1.3-0.9,2-1.2c0.6-0.3,1.3-0.3,1.9-0.2c0.6,0.1,1.2,0.5,1.5,1c0.2,0.4,0.6,0.7,0.9,1c0.3,0.3,0.6,0.5,0.9,0.7
	c0.2,0.2,0.4,0.3,0.5,0.5s0.1,0.3-0.1,0.5c-0.2,0.2-0.4,0.2-0.6,0.2c-0.2,0-0.5-0.1-0.7-0.2l-0.6-0.2C43.9,3.7,43.5,3.6,43.2,3.7z"
	/>
<path d="M43.3,4.1C43.4,4.1,43.3,4,43.3,4.1z M46.7,4c-0.1,0.1-0.2,0.2-0.3,0.4c-0.2,0.1-0.4,0.2-0.6,0.2h-0.1l-0.2,0.1h0.6
	c0.1,0,0.1,0,0.2-0.1C46.4,4.4,46.6,4.2,46.7,4z M46.3,2.9c0,0.1-0.3-0.2,0.3,0.2C46.5,3.1,46.4,3,46.3,2.9z"/>
<path d="M45.7,2.5l0.2,0.1C45.9,2.6,45.8,2.4,45.7,2.5C45.6,2.3,45.7,2.4,45.7,2.5z M45.5,2.4L45.5,2.4C45.6,2.4,45.6,2.4,45.5,2.4z
	 M45.8,2.6l-0.2-0.1c0,0.1,0,0.1,0.1,0.1H45.8z M45.9,2.7C46,2.8,46.1,2.9,45.9,2.7L46,2.9L46.1,3c0.1,0,0.1,0.1,0.1,0
	S46.1,2.8,45.9,2.7z M46.6,3.9C46.5,4,46.5,4,46.5,4.1l-0.1,0.2c0.1-0.1,0.1-0.1,0.1-0.2L46.6,3.9z M44.8,1.6v0.1l0.1,0.1
	C44.9,1.7,44.9,1.7,44.8,1.6z M44.8,1.7l-0.2-0.2C44.7,1.7,44.8,1.7,44.8,1.7z M45.4,2.5l0.4,0.2L45.4,2.5L45.4,2.5z M44.2,0.8
	l0.1,0.1C44.3,0.8,44.3,0.8,44.2,0.8l-0.1-0.1L44.2,0.8z M43.6,0.3C43.7,0.3,43.5,0.1,43.6,0.3C43.4,0.1,43.2,0.1,43,0
	C43.2,0,43.4,0.1,43.6,0.3z M44.4,1.2c0-0.1,0-0.1-0.1-0.2v0.1L44.4,1.2z M44.3,1.1c-0.1-0.1-0.1-0.2-0.2-0.2
	C44.2,0.9,44.2,1,44.3,1.1z M45,2c-0.1-0.1-0.4-0.3-0.2,0C44.9,2.1,44.8,1.9,45,2z M44.4,1.4l0.1,0.2c0,0,0-0.1,0.1,0L44.4,1.4z
	 M44.3,1.3l0.1,0.1L44.3,1.3z M43.2,0.2c-0.2,0-0.3-0.1-0.5-0.1c0.1,0,0.2,0.1,0.3,0.1S43.2,0.3,43.2,0.2z M41.2,0.2L41.2,0.2
	l0.1-0.1L41.2,0.2z M43.3,0.3c0.1,0.1,0.2,0.1,0.3,0.1C43.5,0.4,43.4,0.4,43.3,0.3z M42.3,0c0.1,0,0.1,0,0.2,0.1
	C42.4,0,42.4,0,42.3,0z M43.8,0.5c-0.1,0-0.1-0.1-0.2-0.1C43.7,0.5,43.7,0.5,43.8,0.5z M40.9,0.7c0-0.1,0.3-0.2,0.6-0.2
	s0.1-0.3-0.2-0.3L41,0.4c0.1,0,0.6-0.1,0.4,0c-0.4,0.1-0.3,0-0.5,0.1c0.2,0-0.4,0.2-0.3,0.3C40.6,0.7,40.9,0.6,40.9,0.7
	C40.9,0.6,40.8,0.7,40.9,0.7z M41.8,0.1h-0.3l-0.2,0.1c0.1,0,0.2,0,0.3-0.1L41.8,0.1z"/>
<path d="M42.5,0.1c-0.1,0.1-0.4,0.1-0.2,0.1h0.5C42.1,0.1,42.9,0.2,42.5,0.1z M44.5,1.9l-0.1-0.2c0.1,0,0.1,0,0.1,0.1
	c0.1,0,0.2,0.2,0.1,0l-0.2-0.4c-0.1,0.1-0.1,0.2,0,0.3c0,0,0,0,0,0L44.5,1.9z M43.7,0.9l-0.5-0.4l0.2,0.2c0.2,0.1,0.2,0,0.2,0
	L43.7,0.9z M41.2,0.1C41.2,0,41.1,0.1,41.2,0.1c-0.1,0-0.1,0-0.2,0.1L41.2,0.1z M35.6,15.9l2.9-5.1c0.2,0.1,0.4,0.2,0.3,0.2v-0.1
	c-0.2,0-0.3,0-0.3-0.1L35.6,15.9z M40.8,15c0.1,0,0.1-0.1,0.2-0.1C40.9,14.9,40.9,14.9,40.8,15z M40.1,17.4l0.1-0.1
	C40,17.3,40.1,17.3,40.1,17.4z M36,4.1l-0.3,0.3l0.2-0.2C36,4.2,36,4.2,36,4.1z M34.9,16.1l0.1,0.1L34.9,16.1z M35.5,4.8
	c0.1-0.2,0.2-0.3,0.2-0.4C35.6,4.5,35.5,4.6,35.5,4.8z M41.8,4.3c-0.1,0-0.1,0-0.2,0.1C41.6,4.3,41.7,4.3,41.8,4.3z M38.7,1.4
	c-0.1,0-0.1,0-0.1,0.1C38.5,1.4,38.6,1.4,38.7,1.4z"/>
<path d="M38.4,1.6c0.1,0,0.1-0.1,0.2-0.1C38.5,1.5,38.4,1.5,38.4,1.6z M45.8,13.6l-3.7-2.5c-0.2,0-0.3-0.1-0.4-0.1l0.1,0.2
	c0.1,0,0.1,0,0.2-0.1L45.8,13.6z"/>
<path d="M37.4,16.9l-0.2-0.2c0.4,0,0.6,0.2,0.4,0c-0.1,0.1-0.3,0-0.6-0.1c-0.2-0.1-0.4-0.1-0.6-0.2l-0.1-0.1c0.1,0,0.1,0,0.1,0.1
	c-0.3-0.3-0.3,0-0.7-0.3c-0.1-0.1-0.2-0.2-0.1-0.2l-0.1-0.1l-0.1-0.1c-0.1-0.1,0-0.1,0,0l-0.2-0.2c-0.1,0-0.1,0-0.1-0.1v-0.1
	c-0.1,0-0.2-0.2-0.2-0.2s0,0.1,0.1,0c0-0.1,0-0.1-0.1-0.1v-0.1H35V15c0,0.1,0,0.1,0.1,0.1v-0.3c0-0.1,0-0.1,0.1-0.1v0.1h0.1l0.1,0.1
	c0-0.1,0-0.1-0.1-0.1s-0.1,0-0.1-0.1h0.2v0.1c0.1,0,0.2,0.1,0.3,0.1V15c0.2,0.1,0.2,0,0.4,0s0.3,0.2,0.3,0.3
	c0.4,0.2-0.3-0.2,0.3-0.1c0.4,0.1,0.6,0.2,1.1,0.3c0.3,0.1-0.1,0,0,0.1h0.3c0.2,0,0-0.1,0.4-0.1c0-0.1,0.2,0,0.4,0.1
	s0.2,0.1,0.3,0.1h0.3c0.1,0,0,0.1,0,0.1c0.2-0.1,0.3-0.1,0.5-0.1c0.1,0,0.3,0,0.4-0.1h0.4c-0.3,0,0.1-0.2,0.3-0.3h-0.2
	c0.1,0,0.1,0,0.2-0.1c0.1,0,0.1,0,0.2-0.1c0.1,0,0,0,0,0.1h0.1c0.2,0,0.1,0.1,0,0.2h-0.2L41,15.6c0.1,0,0.1,0,0.2-0.1
	c0.1,0,0.1,0,0.1-0.1l0.1,0.1c0.1,0,0.2,0,0.3-0.1c0.1,0,0.2,0,0.3-0.1c0.4-0.3,0.7-0.6,1.3-1c-0.1,0.2,0,0.1,0.1,0.2
	c-0.1,0-0.2,0.1-0.4,0.2c-0.2,0.1-0.3,0.2-0.5,0.3c0.2-0.1,0.2,0,0.1,0c0.1-0.1,0.2-0.1,0.3-0.2c0.1-0.1,0.2-0.1,0.3-0.2
	c0,0.1,0.1,0,0.4-0.1c-0.1,0,0-0.1,0.1-0.3s0.1-0.2,0.2-0.3s0.1-0.2,0.1-0.3s0.1,0.1-0.1,0.5C44,14,44,13.9,44,13.8v-0.2
	c0-0.2-0.1-0.3-0.1-0.5c0,0.1,0,0.1,0.1,0.2c0-0.1-0.1-0.3-0.1-0.4s-0.1-0.2,0-0.2v0.1c-0.1-0.2-0.2-0.3-0.3-0.5l-0.2-0.2
	c-0.1-0.1-0.2-0.1-0.2-0.2c-0.2-0.2-0.4-0.3-0.7-0.3c0.1-0.1,0.1-0.1,0.2-0.1h-1.2c0.1-0.1-0.1-0.4,0.3-0.4
	c-0.1-0.1-0.3-0.1-0.6-0.2c0.1,0,0.2,0.2,0,0.2c-0.2-0.1-0.4-0.2-0.6-0.3c0.1,0.1-0.1,0.2-0.3,0.1c0,0,0-0.2,0.1-0.2h-0.5
	c0.1,0,0.1-0.1,0-0.2c-0.2-0.1-0.4-0.1-0.6-0.1l0.2,0.1c-0.2-0.1-0.4-0.1-0.6,0c-0.2,0-0.3,0.1-0.6,0c0.1,0,0.2-0.2,0-0.3
	c-0.2,0.1-0.3,0.1-0.5,0.1c-0.2,0-0.5,0-0.7-0.1L37,10.1h-0.1c-0.1,0-0.1,0-0.1-0.1s0-0.1-0.1-0.1h1.5c-0.2-0.1,0-0.1-0.3-0.2
	c-0.1-0.1,0.2,0,0.3,0c-0.1-0.1-0.2-0.1-0.3-0.2c-0.1-0.1-0.2-0.1-0.3-0.2h-0.3c-0.1-0.1-0.2-0.1-0.3-0.1c0.1,0.1,0.2,0.1,0.3,0.2
	c0.1,0.1,0.3,0.1,0.4,0.1c0,0.1-0.6,0.1-1-0.3c-0.2,0.1,0.1,0.1,0.1,0.1c-0.1-0.1-0.1-0.1-0.2-0.1L36.4,9l0.2,0.1
	c-0.1-0.1-0.2-0.2-0.3-0.2L36,8.6c-0.1-0.1,0-0.3-0.1-0.3c0,0.2-0.3,0.4-0.5,0.4V8.6c0-0.1,0-0.2-0.1-0.2c0-0.2-0.1-0.4,0-0.5
	s0.3,0.2,0.3,0l-0.1-0.1c0-0.1,0.1,0,0-0.2c-0.1,0-0.1-0.5-0.1-0.1c-0.1-0.3,0-0.3,0-0.6c-0.1,0-0.1,0-0.1-0.1c0-0.1-0.1-0.3,0-0.4
	c0.1,0,0.1,0,0.1-0.1c0.2-0.4,0.4-0.8,0.6-1.2c0,0,0.2-0.2,0.2-0.1c0-0.1,0-0.2,0.1-0.3c0.1-0.1,0.1,0,0,0.1s-0.1,0.2,0,0.1
	c-0.1-0.1,0.2-0.4,0.3-0.6c-0.1,0-0.4,0.4-0.4,0.6c-0.1,0-0.1-0.2,0-0.3L36.5,4c0.2-0.4,0.2-0.1,0.2-0.2c0.1-0.2,0.2-0.3,0.3-0.4
	c0.1-0.1,0.1-0.1,0.1-0.2c0.1-0.1,0.1-0.3,0.4-0.5s0.2-0.1,0.3-0.1c-0.3,0.3-0.5,0.3-0.6,0.5l0.2-0.2c-0.1,0.1-0.2,0.3-0.3,0.4
	l0.6-0.6C38,2.4,38.3,2.2,38.6,2c0.1-0.1,0.2-0.2,0.1-0.2l-0.1,0.1c-0.1,0,0,0,0-0.1s0.1-0.1,0-0.1c0.2-0.2,0.4-0.4,0.7-0.6h0.1
	c-0.1,0.1-0.2,0.1-0.3,0.2c0.1-0.1,0.6-0.2,0.7-0.4L39.5,1c0.2-0.2,0.5-0.4,0.8-0.5H40c0.3,0-0.8,0.4-0.4,0.4
	c-0.3,0-0.4,0.2-0.7,0.3c0,0,0.1,0-0.1,0.1v0.1h0.1c0,0.1-0.1,0.2-0.3,0.3L38.3,2c-0.1,0.1,0-0.1-0.1,0l-0.1,0.2
	c-0.1,0-0.4,0.2-0.1-0.1l-0.3,0.2c-0.2,0.1-0.4,0.3-0.5,0.5C37.1,2.9,37,3.2,37,3l-0.2,0.2c0,0.1-0.1,0.1-0.1,0.2l-0.1,0.1
	c-0.3,0.5-0.7,1-1.1,1.5c-0.1,0.2-0.2,0.4-0.3,0.6h-0.1c0,0.1-0.1,0.1-0.1,0.2S34.9,6,34.9,6.1c-0.1,0.1-0.1,0.3-0.1,0.4
	c0,0.1-0.1,0.2-0.1,0.3v0.6c0.1-0.1,0.1,0.1,0.1,0.3s0.1,0.3,0.1,0.4H35c0.1,0.2,0.1,0.3,0.2,0.4s0.2,0.3,0.3,0.4V8.8
	c0.3,0.4,0.6,0.7,1,1l-0.2-0.2c0.2,0.3,0.5,0.4,0.8,0.5c0.3,0.1,0.5,0.2,0.8,0.3c0.1,0,0.2,0.1,0.3,0.1h0.1c0.1,0,0.1,0.1,0.2,0.1
	c-0.1,0-0.1,0-0.1-0.1c0.1,0,0.3,0.1,0.4,0.1v0.1c0.1,0.1,0.1,0,0.1-0.1h0.2c0.1,0.1,0.4,0.1,0.5,0.2c0.3,0.1,0.6,0.1,0.9,0
	c0.2,0.1,0.3,0.1,0.5,0.1V11h0.4c0.2,0.1,0.3,0.2,0,0.2c0.5,0.1,0.4,0.1,0.8,0.2c0.1,0.1,0.3,0.2,0.4,0.2c0.2,0.3,0.4,0.5,0.6,0.8
	c0.1,0.2,0.1,0.4,0.1,0.6c0,0.2-0.2,0.3-0.3,0.4c0.1,0,0,0.1-0.1,0.1s-0.3,0.1-0.3,0.2s-0.2,0-0.1-0.1c-0.2,0.1-0.3,0.2-0.5,0.2
	c-0.1,0.1-0.3,0.1-0.4,0.2s0.1-0.1,0-0.1C41.5,14,41.5,14,41.4,14c-0.1,0,0.1-0.1,0.1-0.1c-0.4,0.2-0.4,0.3-0.4,0.4
	c-0.2,0-0.4,0-0.5,0.1c-0.1,0-0.2,0,0.1-0.1c-0.2,0-1,0.1-1,0.2h-1c-0.2,0.1-0.3,0-0.6,0c-0.2-0.1-0.3-0.1-0.5-0.1
	c-0.1,0-0.1,0-0.4-0.2v0.1c-0.1,0.1-0.5-0.3-0.9-0.3l0.1,0.1c-0.2,0-0.5-0.4-0.7-0.5h0.1c-0.2,0.3-0.3,0.3-0.3,0.3V14h-0.2
	c-0.1,0,0-0.1,0-0.1s0-0.1-0.3-0.1h-0.3c-0.2,0-0.3,0.1-0.4,0.3c-0.1,0.3-0.2,0.7-0.1,1V15l0.1,0.1c0,0.1,0.1,0.2,0.1,0.3
	s0.1,0.2,0.1,0.3s0.3,0.4,0.4,0.4v0.1c0.1,0.1,0.3,0.2,0.4,0.3s0.3,0.2,0.4,0.2c0,0.1,0.1,0.2,0.2,0.2c0.1,0.1,0.2,0.2,0.4,0.2
	c0.3,0.1,0.6,0.2,0.6,0.3c0.1,0,0.2,0.1,0.3,0.1c0.1,0.1,0.3,0.1,0.4,0.1c0.2,0.1,0.5,0.2,0.8,0.1c0.1,0,0,0,0,0.1
	c0.2,0.1,0.5,0.1,0.7,0.1h0.6l0.1,0.1h0.6c0.3,0,0.7,0,1-0.1h-0.1c0.4-0.1,0.8-0.1,1.2-0.2c0.3,0,0.6-0.1,0.8-0.3l0.4-0.2
	c-0.6,0.2,0-0.1-0.2-0.1c0.2-0.1,0.6-0.2,0.3,0c0,0.2,0.7-0.3,0.8-0.2c0.5-0.4,1-0.8,1.4-1.3c0.3-0.6,0.4-1.3,0.3-1.9v-0.2
	c0-0.1,0.1-0.2,0.1,0.1c0-0.2-0.1-0.5-0.2-0.5c-0.1-0.6,0.2,0.2,0.1,0l-0.1-0.2V13c-0.1-0.2-0.2-0.3-0.3-0.5c-0.1-0.2,0-0.1,0-0.2
	l-0.1-0.1l-0.3-0.5v0.2c-0.1-0.1-0.1-0.2-0.2-0.3s-0.1,0,0,0.1c0-0.1-0.1-0.2-0.2-0.4s-0.1-0.2-0.2-0.2s-0.2-0.2-0.3-0.2
	s-0.2-0.1-0.3-0.2s-0.2-0.1-0.3-0.2c-0.1-0.1-0.2-0.1-0.3-0.2c-0.3-0.1-0.7-0.2-1-0.4c0.1,0,0.1,0.2-0.2,0c0.2-0.2-0.6-0.3-0.8-0.5
	c0.1,0.1-0.1,0-0.3,0s-0.4-0.1-0.2,0c-0.2-0.1,0-0.1-0.2-0.2S40.7,9.1,40.5,9S40.2,8.9,40,8.8l-0.9-0.6c0,0.1,0,0.1-0.1,0.1
	c0-0.1,0-0.1-0.1-0.2c0-0.1,0-0.1-0.1-0.2c-0.1,0-0.1,0-0.1-0.1l-0.1-0.1V7.6c0,0,0,0.1-0.1,0c-0.1-0.3,0-0.7,0.2-1
	c0.2-0.3,0.4-0.7,0.6-1c0.2-0.3,0.5-0.6,0.8-0.8c0.2-0.1,0.3-0.2,0.5-0.3s0.4-0.1,0.5-0.2c-0.2,0-0.1,0,0.1-0.1
	c-0.1,0,0-0.1-0.1-0.1c0.1,0,0.2,0,0.3-0.1h0.3c0-0.1,0.2-0.1,0.4-0.1s0.3,0,0.4-0.1h-0.2c0.3-0.2-0.4-0.2-0.4-0.3
	c-0.2,0.1-0.4,0.1-0.6,0.1c-0.1,0-0.3,0-0.4,0.1c-0.1,0.1-0.2,0.1-0.3,0.2c-0.1,0.1,0.1-0.1,0-0.1S40.5,3.9,40.4,4s-0.2,0.1-0.3,0.2
	c-0.3,0.2-0.6,0.4-0.9,0.6c-0.3,0.2-0.6,0.5-0.8,0.8h0.1C38.8,5.9,38.7,6,38.7,6s0.1,0,0.1-0.1S39,5.7,39,5.8
	c-0.2,0.2-0.4,0.4-0.5,0.7c-0.1,0.3-0.2,0.6-0.3,0.9v0.1c0,0,0-0.1,0.1,0.1v0.1l0.1,0.1c0,0.1,0.1,0.2,0.1,0.3v0.1
	c0-0.1-0.1-0.1-0.1-0.2c0,0.1,0.1,0.2,0.1,0.3s0.1,0.2,0.2,0.2c0.1,0.1,0.2,0.1,0.3,0.2l-0.1-0.1l-0.1-0.1c0.4,0.3,0.8,0.6,1.2,0.8
	c0.4,0.2,0.9,0.4,1.3,0.5V9.7c0.6,0.1,0.5,0.2,1.1,0.4c0.2,0,0.3,0.1,0.5,0.1c-0.2,0,0.3,0.2,0,0.1c0.1,0.1,0.3,0.1,0.4,0.1h0.3
	l0.1,0.1c0.2,0,0.2,0,0.5,0.2c-0.3-0.1,0.1,0.2-0.2,0.1l0.3,0.3c0.1,0.1,0.2,0.1,0.3,0.2s0.3,0.2,0.3,0.4c0.2,0.1,0.1-0.1,0-0.2
	l-0.2-0.2c-0.1-0.1,0.3,0.1,0.4,0.3c0.1,0.1,0.1,0.2,0.1,0.3c0,0.2,0.1,0.3,0.2,0.5l-0.1-0.1c0,0.2,0.2,0.3,0.2,0.6
	c0.1,0.1,0.1,0.3,0.2,0.3v-0.1c0-0.1,0-0.1-0.1-0.2c0-0.1,0-0.1-0.1-0.2c0.1,0.1,0.1,0.3,0.2,0.4c0.1,0.2,0.1,0.4,0.1,0.6
	c0-0.1-0.1-0.2-0.1-0.3c0,0.1,0.1,0.3,0.1,0.4s-0.1-0.2-0.1-0.3c0-0.2-0.1-0.4-0.2-0.5c0,0.1,0.2,0.5,0.1,0.4
	c0.1,0.1,0.1,0.2,0.1,0.4c0,0.2,0,0.3,0.1,0.5h-0.1v0.3l-0.1-0.2c0,0.1,0,0.3-0.1,0.4c0,0.1-0.1,0.1-0.1,0.2s0,0.1-0.1,0.2
	c0.2-0.5,0.1-0.1,0.2-0.3c0,0.2-0.1,0.4-0.3,0.5c-0.2,0.1-0.3,0.3-0.5,0.4c0.1-0.1,0.3-0.3,0.2-0.1s-0.3,0.2-0.4,0.3
	c-0.4,0.4,0.1,0,0,0.2c-0.2,0-0.2,0.2-0.4,0.4v-0.1c-0.5,0.3-0.1,0.2-0.6,0.4l0.2-0.2l0.1,0.1v-0.1c-0.1,0.1-0.2,0.1-0.3,0.2
	S43.3,17,43.2,17c0.1,0,0,0.1-0.3,0.2s0.1-0.1-0.3,0c0.1-0.1,0.2-0.1,0.3-0.1L43,17c-0.2,0-0.4,0.1-0.6,0.2h0.1
	c-0.1,0.1-0.1,0.1-0.2,0.1c-0.1,0-0.2,0.1-0.3,0.1c-0.1,0,0,0,0-0.1s-0.2,0.1-0.4,0.1c0-0.1,0-0.1,0.2-0.2l-0.5,0.2
	c0,0-0.3-0.1-0.2-0.1c-0.2,0-0.3,0-0.5,0.1c-0.2,0-0.4,0.1-0.6,0h-0.2c-0.2,0-0.4-0.1-0.6-0.1h-0.6l-0.2-0.2c-0.3,0,0.3,0.2-0.3,0.1
	c-0.4-0.1-0.1-0.1-0.2-0.2h-0.4c-0.2,0-0.3-0.1-0.5-0.2C37.2,16.8,37.3,16.9,37.4,16.9z M34.9,14.6c0,0.1,0,0.1-0.1,0.1
	C34.8,14.6,34.8,14.6,34.9,14.6z M41.5,15c-0.1,0-0.2,0.1-0.3,0.1C41.3,15,41.3,15,41.5,15z M37.5,2.4l0.3-0.3
	c-0.1,0.1-0.1,0.1-0.2,0.1c0.1,0.1,0.1,0,0.2-0.1L37.5,2.4z"/>
<path d="M40.7,15.3C40.6,15.2,40.6,15.3,40.7,15.3z M40,17.4l-4.4-9.8v0.2c0.1,0,0.1,0,0-0.2L40,17.4z M44,10.5
	c-0.1,0-0.1,0-0.1,0.1c-0.1,0-0.1,0-0.1,0.1C43.8,10.6,43.9,10.6,44,10.5z M39.9,0.8c0.1-0.1,0.3-0.1,0.4-0.1
	C40.2,0.6,40.1,0.7,39.9,0.8z M40.3,0.7c0.1,0,0.1,0,0.2-0.1C40.4,0.6,40.4,0.6,40.3,0.7z M38.2,1.8c0.1,0,0-0.1,0-0.1
	C38.3,1.5,37.9,2.1,38.2,1.8z M40.1,0.9H40V1L40.1,0.9z M38.9,1.6l0.2-0.2V1.3C39,1.5,38.8,1.6,38.9,1.6z M39.2,1.4
	c0.1,0,0.1,0,0.2-0.1C39.3,1.3,39.3,1.3,39.2,1.4z M39.8,1.1l-0.3,0.1C39.5,1.3,39.8,1.1,39.8,1.1z M36.6,3.8l-0.2,0.3
	c0.1,0,0.1,0,0.1-0.1C36.6,3.9,36.6,3.9,36.6,3.8z M37.4,3.2C37.3,3.3,37.3,3.2,37.4,3.2v0.2V3.2z M36.8,3.9
	C36.8,4,36.6,4.3,36.8,3.9C36.8,4,37,3.7,36.8,3.9z M35.5,8.2V8.1V8.2L35.5,8.2z M38.9,10.1c-0.4-0.1-0.1,0.1-0.4-0.1
	c-0.1,0,0.2,0.1,0.2,0.1C38.9,10.2,39,10.2,38.9,10.1z M42.6,4.2h0.2l-0.1-0.1L42.6,4.2z M35.9,16l-0.1-0.1l0.1,0.2V16z M38.2,17
	c-0.1,0-0.2-0.1-0.3-0.1C38.1,16.9,38.2,17.1,38.2,17z M53,3.2c0.1,0.7,0.1,1.6,0.2,2.6s0.1,2,0.1,3s0,2-0.1,3
	c0,0.9-0.1,1.7-0.2,2.6c-0.1,0.8-0.3,1.4-0.4,1.9s-0.4,0.7-0.7,0.8s-0.3-0.1-0.5-0.5c-0.2-0.4-0.3-0.8-0.4-1.2
	c-0.1-0.5-0.3-1.1-0.4-1.7s-0.2-1.3-0.3-1.9c-0.1-0.6-0.2-1.1-0.2-1.7C50,9.7,50,9.2,50,8.8c0-0.3-0.1-0.8-0.1-1.2s-0.1-1-0.1-1.5
	V3.4c0-0.1-0.1-0.2-0.3-0.2c-0.2,0-0.4,0-0.6-0.1c-0.2,0-0.5-0.1-0.8-0.1c-0.3-0.1-0.6-0.2-0.9-0.4c-0.4-0.2-0.5-0.4-0.4-0.6
	s0.3-0.3,0.7-0.4c0.5-0.1,0.9-0.2,1.4-0.2c0.5-0.1,1.1-0.1,1.6-0.1h3.7c0.4,0,0.8,0,1.2,0.1c0.4,0,0.8,0.1,1.1,0.1
	c0.3,0,0.6,0.1,0.8,0.2c0.2,0.1,0.3,0.2,0.3,0.3c0,0.2-0.1,0.3-0.4,0.5c-0.3,0.2-0.7,0.4-1.1,0.5c-0.5,0.2-1,0.3-1.5,0.3
	C54.1,3.2,53.5,3.2,53,3.2z"/>
<path d="M53,3.2c0.1,0.7,0.1,1.6,0.2,2.6s0.1,2,0.1,3s0,2-0.1,3c0,0.9-0.1,1.7-0.2,2.6c-0.1,0.8-0.3,1.4-0.4,1.9s-0.4,0.7-0.7,0.8
	s-0.3-0.1-0.5-0.5c-0.2-0.4-0.3-0.8-0.4-1.2c-0.1-0.5-0.3-1.1-0.4-1.7s-0.2-1.3-0.3-1.9c-0.1-0.6-0.2-1.1-0.2-1.7
	C50,9.7,50,9.2,50,8.8c0-0.3-0.1-0.8-0.1-1.2s-0.1-1-0.1-1.5V3.4c0-0.1-0.1-0.2-0.3-0.2c-0.2,0-0.4,0-0.6-0.1
	c-0.2,0-0.5-0.1-0.8-0.1c-0.3-0.1-0.6-0.2-0.9-0.4c-0.4-0.2-0.5-0.4-0.4-0.6s0.3-0.3,0.7-0.4c0.5-0.1,0.9-0.2,1.4-0.2
	c0.5-0.1,1.1-0.1,1.6-0.1h3.7c0.4,0,0.8,0,1.2,0.1c0.4,0,0.8,0.1,1.1,0.1c0.3,0,0.6,0.1,0.8,0.2c0.2,0.1,0.3,0.2,0.3,0.3
	c0,0.2-0.1,0.3-0.4,0.5c-0.3,0.2-0.7,0.4-1.1,0.5c-0.5,0.2-1,0.3-1.5,0.3C54.1,3.2,53.5,3.2,53,3.2z"/>
<path d="M53.1,3.6C53,3.6,53,3.7,53.1,3.6z M54.3,3.4L54.3,3.4L54.3,3.4z M55.4,3.2c-0.1-0.1-0.4,0.1-0.6,0.1l-0.1,0.1
	C54.9,3.3,55.2,3.2,55.4,3.2z M56,3.3C56,3.3,56.1,3.2,56,3.3L56,3.3z M55.9,3.3l0.5-0.2l-0.1,0.1c0,0,0.2-0.1,0.1-0.1L55.9,3.3z
	 M55.8,3.3L56,3.2C55.9,3.2,55.9,3.2,55.8,3.3z"/>
<path d="M55.4,3.1L55.4,3.1l-0.2,0.1C55.2,3.1,55.4,3.1,55.4,3.1z M57.7,2.5h-0.2l-0.1,0.1C57.5,2.6,57.6,2.5,57.7,2.5z M57.5,2.5
	l0.1-0.2L57.5,2.5z M56.5,2.8L56.3,3L56.5,2.8L56.5,2.8z M58,1.7l0.1,0.1L58,1.7z M57.7,1.3c-0.1-0.1-0.2-0.2-0.4-0.2
	C57.5,1.1,57.6,1.2,57.7,1.3z M57.8,2c0,0,0.1,0,0.1-0.2C58,1.9,57.9,2,57.8,2z M57,2.6c0.1-0.1,0.3-0.2,0-0.2
	C57,2.6,57.2,2.5,57,2.6z M57.7,2.1c0,0-0.1,0.2-0.2,0.2h0.1L57.7,2.1z M57.4,1.2c-0.1,0-0.2-0.1-0.4-0.1
	C57.2,1.2,57.3,1.3,57.4,1.2z M57.4,1.3c0.1,0,0.1,0,0.2,0.1C57.5,1.3,57.5,1.3,57.4,1.3z M56.6,1c0.1,0.1,0.1,0.1,0.2,0.1
	C56.7,1,56.7,1,56.6,1z M57.8,1.5c-0.1,0-0.1,0-0.1-0.1C57.7,1.5,57.7,1.5,57.8,1.5z M55.6,1.4c0-0.1,0.2-0.1,0.4,0s0.1-0.2-0.1-0.4
	c0,0,0,0.1-0.2,0.1c0.1,0,0.4,0.1,0.2,0.2s-0.2,0-0.3-0.1c0.1,0.1-0.3,0.1-0.3,0.2L55.6,1.4C55.6,1.3,55.5,1.3,55.6,1.4z M56.3,1
	c-0.1,0-0.1,0-0.2-0.1c-0.1,0-0.2,0-0.2,0.1H56.3z"/>
<path d="M56.7,1.1h-0.2c0,0-0.1,0,0,0.1h0.4C56.4,1.1,57.1,1.2,56.7,1.1c0.1,0,0.2,0,0.3,0.1C56.9,1.1,56.8,1.1,56.7,1.1
	C56.8,1.1,56.7,1,56.7,1.1c-0.1,0-0.1,0-0.2-0.1h-0.2C56.4,1,56.5,1.1,56.7,1.1z M57.1,2.3l0.2-0.1c-0.2,0.1-0.1,0.1-0.1,0.1
	s-0.1,0.1,0.1,0c-0.1,0.1-0.1,0,0-0.1c0.1,0,0.2-0.1,0.3-0.1c-0.1,0.1-0.2,0.1-0.3,0.1L57.1,2.3z M57.4,1.6c-0.1,0-0.1,0-0.1-0.1
	h-0.2l0.1,0.1c0.3,0,0.3-0.1,0.4-0.1L57.4,1.6z M55.5,0.9L55.5,0.9L55.5,0.9L55.5,0.9z M49.8,6.2L49.8,6.2
	C49.7,6.1,49.7,6.1,49.8,6.2z M51.1,0.8h0.3C51.3,0.7,51.2,0.7,51.1,0.8C51.1,0.8,51.1,0.8,51.1,0.8z M52.8,14.2L48.7,2.7
	c-0.1,0.1-0.2,0-0.3,0l0.1,0.2L52.8,14.2z"/>
<path d="M50.9,13.1v-0.2c0.1,0.2,0.1,0.4,0.2,0.2c-0.2,0-0.1-0.8-0.3-0.7c0.1-0.3-0.2-0.2-0.2-0.5c0-0.1,0-0.2,0.1-0.1l-0.1-0.2
	l-0.1-0.4c0-0.1,0-0.1-0.1-0.2c0-0.1,0,0,0.1,0l-0.1-0.2c0-0.1,0.1,0.1,0.1,0.2c0.2-0.2-0.1-0.2,0-0.6l0.1,0.2
	c0.1-0.1,0-0.3,0.1-0.5c0,0.1-0.1,0.5-0.2,0.3c0-0.1,0-0.2-0.1-0.3c0.1,0,0-0.1,0-0.3h0.1c0-0.2-0.1-0.1-0.1-0.2s0.1-0.2,0.1-0.3
	c0-0.3-0.1,0.2-0.2-0.1c0-0.2,0-0.5-0.1-0.7c0-0.2,0.1,0,0.1,0l-0.1-0.1c0-0.1-0.1,0-0.1-0.2c-0.1,0,0.1-0.4,0-0.7
	c0-0.1,0.1,0,0.1,0C50.1,7.2,50,6.9,50,6.6l0.1-0.2c-0.1,0.2-0.2,0-0.2-0.2c0,0.1-0.1,0.1-0.1,0.2l-0.1-0.3h0.1V6
	c-0.1-0.1,0-0.1,0,0c0,0.1,0,0.1-0.1,0.1c0.1,0.1,0.1,0.1,0.2,0.1V6L50,5.9l0.1-0.4c-0.2-0.3-0.3-0.6-0.3-1c0.1,0.1,0.1,0,0.2,0
	c-0.1,0.1,0.1,0.4,0,0.6C50,5,50,5,50.1,5L50,4.6c0.1,0,0.1-0.1,0.1-0.2c-0.2,0.1-0.1-0.3-0.2-0.5c0.1,0,0.1,0,0.1,0.2
	c0.1-0.1-0.2-0.2-0.1-0.4v0.1c0-0.1-0.1-0.5,0-0.4V3.2c0-0.1,0-0.1-0.1-0.1c-0.1,0-0.1-0.1-0.2-0.1h-0.5c-0.2-0.1-0.3-0.1-0.3,0
	c0.1-0.1,0.1-0.1,0.1-0.2c-0.1,0.1-0.2,0.1-0.3,0.2c-0.1,0.1-0.2,0.1-0.3,0.2c0.1-0.1-0.1-0.4,0.2-0.4c-0.1,0-0.2-0.1-0.3-0.1
	s0.1,0.2,0,0.2S48.1,2.8,48,2.8c-0.1,0-0.1,0-0.2-0.1c0.1,0.1-0.1,0.2-0.2,0.1l0.1-0.2h-0.4c0.1,0,0.1-0.1,0.1-0.2
	c-0.1-0.1-0.1-0.1-0.2-0.1v0.1c-0.1-0.1-0.2-0.1-0.3-0.1c-0.1,0-0.1,0-0.2-0.1S46.6,2.1,46.6,2c0,0.1,0.3,0.1,0.4,0
	c-0.1,0-0.2-0.1-0.2-0.3s0-0.1,0.1-0.2l0.2-0.2h0.1l0.2-0.1c-0.1,0.1-0.2,0.2-0.3,0.4c0.1,0.1,0.1,0.2,0.1,0.3h0.2
	c0.1,0,0,0.1,0,0.1h0.1c-0.1-0.1,0.3-0.2,0.3-0.3c-0.1,0.1-0.1,0.1-0.2,0.1c-0.1,0-0.1,0-0.1,0.1c-0.1-0.1-0.1-0.1,0-0.2
	c0,0,0,0,0,0c0.1-0.1,0.2-0.2,0.4-0.2c0.1,0,0,0.2,0,0.2l0.3-0.1l-0.1,0.1c0.2,0,0.3-0.2,0.5-0.1s0.2,0.1,0.3,0
	c-0.1-0.1-0.2-0.5-0.1-0.6c0.2,0,0.3,0.1,0.5,0.1c0.1,0.1-0.2,0.2-0.1,0.3l0.1-0.1c0.1,0,0,0.1,0.2,0.1c0-0.1,0.4,0,0.1-0.1H50
	c-0.1-0.1,0.2-0.2,0.4-0.3c0,0.1,0,0.1,0.1,0.1h0.9c0,0,0.2,0.1,0.1,0.1c0.1-0.1,0.1-0.1,0.2-0.1c0.2,0.1-0.2,0-0.1,0.1
	c0-0.1,0.3-0.1,0.4-0.1h-0.5c0-0.1,0.3-0.3,0.6-0.3s0.1,0.1,0.2,0.1c0.6,0,0.5-0.2,0.9-0.1c0.2,0.1,0,0.2,0,0.2
	c-0.2,0-0.3-0.1-0.5-0.1h-0.1c0.1,0.1,0.9,0,1.3,0.1C54,1,54.1,0.9,54,0.9h-0.1c-0.1-0.1,0.3-0.1,0.1-0.1c0.2,0,0.4-0.1,0.6-0.1v0.1
	c0,0-0.2-0.1-0.2,0s0.4,0.1,0.5,0l-0.2-0.1c0.2,0,0.4-0.1,0.6-0.1c-0.1-0.1-0.1,0-0.2-0.1c0.1,0.1-0.6,0-0.4,0.1
	c-0.2-0.1-0.3-0.1-0.5-0.2c0,0,0.1,0.1-0.1,0c0.1,0,0.1,0,0.1,0.1c-0.1,0.4-0.4,0.4-0.5,0.5s0,0,0-0.1L53.5,1c0-0.1-0.3-0.1,0-0.2
	h-0.2c-0.1,0-0.3-0.1-0.4,0s-0.3,0.1-0.2,0h-2.1V0.7h-0.5c-0.3-0.1-0.7-0.1-1,0v0.1c-0.2,0-0.4,0-0.6,0.1V1c-0.2,0.1-0.5,0-0.9,0.1
	h-0.1c-0.1,0-0.2,0-0.3,0.1c-0.1,0.1-0.3,0.1-0.4,0.2s-0.1,0.1-0.2,0.1c-0.1,0.1-0.1,0.1-0.2,0.1c0,0.1,0,0.1-0.1,0.1l-0.1,0.1v0.1
	c0,0.1,0,0.2,0.1,0.3l-0.1,0.1c0.1,0.1,0.1,0.1,0.1,0s0.1,0.1,0.2,0.1s0.1,0.1,0.1,0.2c0.2,0.1,0.3,0.2,0.4,0.3
	c0.1,0,0.2,0.1,0.3,0.1s0.3,0.1,0.3,0c0.1,0.1,0.2,0.1,0.3,0.1v0.1h0.2c0.1,0.1,0.2,0.1,0,0.2c0.2,0,0.4,0,0.6-0.1v0.1
	c0.1,0,0.3-0.1,0.3,0c0.1,0.1,0.1,0.1,0.2,0.1c0.1,0,0.1,0,0.1,0.1v1.1C49.5,4.6,49.2,5,49.4,5c0,0-0.1,0.1-0.1,0
	c0,0.3-0.1,0.5,0.1,0.7c0,0-0.1-0.1-0.1,0v0.1l-0.1-0.1c0.1,0.2,0.2,0.2,0.4,0.2c-0.1,0.2,0,0.2,0,0.4s-0.1,0.2-0.1,0
	c0,0.1,0,0.7,0.1,0.7v0.6c0.1,0.1,0,0.2,0.1,0.4c0,0.5,0.1,0.2,0,0.6h0.1c0.2,0-0.1,0.4,0,0.7V9.2c0.1,0.1-0.2,0.4-0.2,0.6V9.7
	c-0.1,0.4,0.1,0,0.2,0.3c0,0.1-0.1,0-0.1,0.1c0.1,0.3,0.2,0.5,0.2,0.8c0-0.1,0.1-0.1,0.1,0s-0.1,0.5,0.1,0.7c0,0.2,0.1,0.4,0.2,0.6
	c-0.2,0.2,0.3,0.9,0,0.9l0.1,0.5c0,0.2,0.1,0.4,0.2,0.5c0,0.3,0.1,0.6,0.3,0.8h-0.3c0,0.1,0,0.3,0.1,0.4c0,0.2,0.1,0.4,0.2,0.6
	C51,16,51,16.1,51,16.3l0.1,0.2c0,0.1,0,0.1,0.1,0.2c0.1,0.2,0.2,0.3,0.3,0.4c0.1,0.1,0.2,0.1,0.3,0.1H52c0.1,0,0.1,0,0.2-0.1H52
	c0.1,0,0.1-0.1,0-0.1c0.2,0,0.4-0.1,0.2,0c0,0.1,0.1,0,0.3-0.1s0.2-0.3,0.3-0.2l0.3-0.6c0.1-0.2,0.1-0.4,0.2-0.6l0.3-1.2l-0.1,0.1
	v-0.2c0-0.1,0.1-0.1,0.1,0.1c0.1-0.1,0-0.3,0-0.3c0.1-0.4,0.1,0.2,0.1,0v-0.2c0-0.1-0.1-0.1,0-0.4c0-0.1,0-0.1,0.1-0.1v-0.5
	l-0.1,0.1c0-0.2,0-0.3-0.1-0.2c0.2-0.2,0.1-1.2,0.2-1.4c-0.1-0.2-0.1-0.5,0-0.7c0,0.1-0.1,0.1-0.1-0.1c0.2,0.1,0.1-0.4,0.3-0.6
	c-0.1,0.2,0-0.6-0.2-0.4c0-0.2,0.1,0,0.1-0.1c-0.1-0.4,0.1-1,0-1.5c0,0-0.1,0.1-0.1,0h-0.2c0-0.1-0.2-0.1-0.1-0.3c0,0-0.1,0.1-0.1,0
	c0.1-0.5,0.1-1.1,0-1.6s-0.1-1.1,0-1.6c0,0.1-0.1,0.1-0.1-0.1c0,0.1-0.1,0-0.1,0l0.1-0.5c-0.1-0.1,0-0.5-0.1-0.5v0.1
	c-0.1-0.2-0.2,0.3-0.4,0.3c0.1,0.2-0.2,0.6,0.1,0.9c0,0.1-0.1-0.1-0.1,0s0.1,0.2,0.1,0.4c0.1,0.5,0.1,0.9,0,1.4H53v0.2
	c0.1,0.1,0-0.4,0.1-0.2c-0.1,0.2,0,0.9-0.1,1s0.1-0.1,0.1,0.1v0.1h0.1c0,0.1,0,0.1-0.1,0.2V8c0.1,0.6,0,1.2,0.1,1.8
	c0.1,0.4,0,0.3,0,0.8v0.3c0-0.1-0.1,0.2-0.1,0.1c0.1,0.4,0,0.2,0.2,0.5l-0.1,0.1c0,0.1,0.1,0.1,0.1,0.3c0-0.2-0.1,0.1-0.1-0.1
	c-0.2,0.5,0.1,0.7-0.1,0.9c0.1,0.2,0.1-0.4,0.1-0.3c0.1-0.1,0.1,0.2,0.1,0.3s-0.2,0.2-0.3,0.6v-0.1c-0.1,0.1,0,0.3-0.1,0.4
	c0.1,0.1,0,0.2,0.1,0.3v-0.3c0.1,0.2,0.1,0.5,0,0.7c0-0.1,0-0.1-0.1-0.2c0,0.1,0,0.2-0.1,0.3c-0.1,0,0-0.4,0-0.6
	c-0.1,0.1,0,0.4-0.1,0.3c0.2,0.2-0.1,0.4,0,0.6h-0.1v0.2l-0.1-0.1c0,0.2-0.1,0.4-0.1,0.6c0.1-0.4,0.1-0.1,0.2-0.2
	c0,0.5-0.2,0.2-0.4,0.8c0-0.1,0.1-0.2,0.1-0.1s-0.1,0.2-0.2,0.3c-0.1,0.3,0.1,0,0.1,0.1s0,0.2-0.1,0.3H52c-0.1,0.1,0,0.1,0,0.1
	c0,0.1,0,0.1-0.1,0.1v-0.2l-0.1,0.1v-0.1c0,0.1-0.1,0.1-0.2,0c0,0.1-0.1,0.2-0.1,0.1s0.1,0,0-0.1c0.1,0,0.1,0,0.1,0.1l0.1-0.1
	c0-0.1,0-0.1-0.1-0.1v0.1l-0.1-0.1c-0.1-0.1-0.1-0.1-0.1-0.2c0-0.1,0,0,0.1,0s-0.1-0.1-0.1-0.2s0.1,0,0.2,0.1c0-0.1,0-0.1-0.1-0.1
	c0-0.1,0-0.1-0.1-0.2c0,0,0-0.2,0.1-0.2s-0.1-0.2-0.1-0.3c-0.1-0.1-0.1-0.3-0.1-0.4l-0.1-0.1c0-0.3,0-0.6-0.2-0.8l0.1-0.2
	c-0.1-0.2-0.1,0.3-0.2-0.1s0.1-0.1,0.1-0.2c-0.1-0.2-0.2-0.5-0.2-0.7C50.9,13,50.9,13,50.9,13.1z M50.4,10.2c0,0.1,0.1,0.2,0,0.2
	V10.2z"/>
<path d="M49.3,1.6L49.3,1.6C49.2,1.5,49.2,1.6,49.3,1.6z M54.9,1c0,0.1,0.1,0,0.2,0H54.9z M53.7,0.8C53.8,0.9,53.8,0.8,53.7,0.8
	C53.9,0.7,53.4,0.9,53.7,0.8z M55,1.3V1.2h-0.1L55,1.3z M54.1,1.2h0.3C54.2,1.2,54.1,1.1,54.1,1.2z M54.8,1.3L54.8,1.3l-0.2-0.1
	L54.8,1.3z M52,1.3C52,1.4,52.2,1.3,52,1.3z M48.9,1.3L48.9,1.3V1.2V1.3z M47.3,2.1C47.3,2,47.1,2.1,47.3,2.1L47.1,2
	C47.2,2.2,47.2,2.2,47.3,2.1z M50.8,11.9v-0.1V11.9L50.8,11.9z M51.2,13.6c0-0.1,0-0.2-0.1-0.2S51,13.7,51.2,13.6z"/>
<circle cx="2.3" cy="16.1" r="2.1"/>
<path d="M4.4,15.5v0.2h0.1C4.4,15.6,4.4,15.6,4.4,15.5z M4.4,15.3v-0.1V15.3z M4.4,15.4L4.3,15l-0.1-0.1L4.4,15.4z M4.3,15.3
	c-0.2-0.7-0.3-0.7-0.2-0.6L4.3,15.3z M4.4,15.5v0.2V15.5z M4.3,15.3c-0.1-0.3-0.1-0.4-0.2-0.4L4.3,15.3z M3.9,14.5l0.2,0.2L3.9,14.5
	z M3.3,14.3c0.1,0.1,0.2,0,0.2-0.1h0.1c0,0,0.1,0.1,0,0.1H3.3z M3.6,14.3l0.1,0.1c-0.1,0,0,0.1,0,0L3.6,14.3z M0.8,13.9L1,17.4
	L0.8,13.9z M2.1,10.1L4,12.6 M0.9,14.9l-0.1-0.1L0.9,14.9z"/>
<path d="M0.9,17.4C1,17.3,1,17.4,0.9,17.4s0-0.2-0.1-0.1c0-0.1-0.1,0-0.1-0.1H0.6l-0.1-0.1c0.1-0.1,0,0,0-0.2v-0.1l-0.1,0.1v-0.2
	H0.3c0-0.1,0-0.1,0.1-0.1c0,0,0,0,0,0c0-0.1-0.1,0.1-0.1,0v-0.2l-0.1-0.1c-0.1,0,0.1-0.1,0-0.2s0-0.1-0.1-0.2v-0.1
	c-0.1,0-0.1,0-0.1-0.1c0,0,0,0,0,0v-0.1h0.1l0.1,0.1h0.1l0.1-0.1c0-0.1-0.1-0.2-0.1-0.3c0.1,0,0.1,0,0.1,0.1l0,0c-0.1,0,0,0.1,0,0.1
	v-0.1h0.1c-0.1,0,0-0.1,0-0.1v0.1c0.1,0,0-0.1,0-0.1c0-0.1,0-0.1,0.1-0.1c0,0,0,0,0,0c0.1-0.1,0.1-0.2,0.2-0.3h0.1v-0.2
	c0,0,0.2,0.1,0.1,0.2l0.1-0.1c-0.1,0-0.1,0-0.1-0.1l0,0h0.1c0,0-0.1-0.1,0-0.1l0.1,0.1v-0.1c0,0.1,0,0.1,0.1,0.1s0.1,0,0.1-0.1
	c0.1-0.1,0-0.2,0.1-0.2c0,0.1,0,0.1,0.1,0.1c0,0,0,0,0,0c0-0.1,0-0.2,0.1-0.3l0.1-0.1c0,0.1-0.1,0.2-0.1,0.3h0.1v0.1h0.1
	c0,0,0.1-0.1,0-0.1H1.8v0.1c0,0,0-0.2,0.1-0.2v0.1c0,0,0.1-0.1,0.1,0c0.1,0,0.1,0,0.1-0.1l0,0h0.1c0-0.1-0.1-0.2-0.1-0.3
	c0.1,0,0.1,0,0.2,0.1v0.2c0-0.1,0.1,0,0,0h0.1c0-0.1,0-0.1,0.1-0.1h0h0.2v0.1h0.1c0,0.1-0.1,0,0,0.1c0-0.1,0.1-0.1,0.2-0.1
	s0.2-0.1,0.3,0v0.1c-0.1,0-0.1,0-0.1-0.1l0,0H3.1c0,0.1,0.2,0.1,0.3,0.2h0.3l0.1,0.1v-0.1H4v-0.1c0,0.1-0.1-0.1-0.1,0
	c0-0.1,0-0.1-0.1-0.1h0H3.7c0,0-0.1-0.1,0-0.1H3.6l-0.1-0.1H3.3c-0.1,0-0.2,0-0.3-0.1H2.7c-0.1-0.1-0.2,0-0.3,0s-0.1,0-0.2,0.1
	c-0.1,0-0.1,0-0.2,0.1c-0.1,0-0.2,0.2-0.3,0.1H1.5c-0.1,0,0,0.1-0.1,0c-0.1,0.1-0.1,0.1-0.1,0.2c-0.1,0-0.1,0-0.1,0.1l0,0v0.1H1.1
	V15c-0.1,0-0.2,0.3-0.3,0.4c0.1,0-0.1,0.1,0,0.1s-0.1,0.1,0,0.2s0,0.1,0.1,0.1v0.5c0.1,0,0,0.1,0,0.1v0.2c0.1,0,0,0.1,0,0.2
	c-0.1,0.1-0.1,0.1-0.1,0.2c0,0.1,0.1,0,0.1,0.1c-0.1,0-0.1,0-0.1,0.1l0,0C0.9,17.3,0.9,17.3,0.9,17.4l0.1,0c0,0,0,0.2,0.1,0.2
	l0.1,0.1c-0.1,0.1,0.2,0.2,0.1,0.2L1.4,18c-0.6-0.2-0.6-0.3-0.5-0.3c0,0.2,0.1,0.2,0.2,0.2C1.2,18,1.3,18,1.4,18.1
	c0.1,0,0.1,0.1,0.2,0.1s0.1,0.1,0.2,0h0.1c-0.1,0,0-0.1,0-0.1s0.1,0.1,0,0.1c0,0.1,0,0.1,0.1,0.1c0,0,0,0,0,0c0.2,0,0.4,0.1,0.7,0.1
	v-0.1h0.2c0.1,0,0,0.1,0,0.1L3,18.3h0.1c0,0,0.1,0,0-0.1h0.2c0.1,0,0.1-0.1,0.2-0.1c0-0.1,0-0.1,0.1-0.1h0c0,0-0.1,0,0-0.1
	c0,0.1,0.1,0,0.2,0c-0.1,0,0.1-0.1,0-0.1h0.1l0.3-0.3h0.1v-0.1c0.1-0.1,0.2-0.2,0.2-0.4c0-0.2,0.1-0.3,0.2-0.4H4.6l0.1-0.1v-0.2
	c-0.1-0.1-0.1,0.1-0.2,0.1c0.1,0.1-0.1,0.1,0,0.2v0.1c0,0.1-0.1,0.2-0.2,0.3H4.2c0,0.1,0-0.1,0.1,0c-0.1,0-0.1,0.2-0.2,0.2v0.1H4
	l-0.1,0.1l-0.3,0.3c-0.1,0.1-0.1,0-0.2,0.1c0,0.1,0,0.1-0.1,0.1h0L3.2,18l-0.1,0.1c0,0-0.1,0,0-0.1C3,18,3,18.1,2.9,18.1H3
	c0,0.1,0,0.1-0.1,0.1h0c-0.1-0.1-0.1-0.1-0.2,0c0,0,0,0,0,0c0,0-0.1,0.1-0.1,0c-0.1,0-0.1,0-0.1,0.1l0,0h0.1
	c-0.1,0.1-0.1,0.1-0.2,0.1H2.3c0-0.1,0.1,0,0.1-0.1s-0.1,0.1-0.1,0c0,0.1-0.1,0-0.1,0.1v-0.1H2.1c0.1,0,0,0,0.1,0.1
	c-0.1,0-0.1-0.1-0.2-0.1H1.9c-0.1,0,0,0,0,0.1H1.8c-0.1,0,0,0.1-0.1,0H1.6c0,0,0,0.1-0.1,0H1.3c0,0,0-0.1,0.1,0H1.3v-0.1
	c-0.1,0-0.1,0-0.2-0.1L1,18.1V18c-0.1,0,0,0.1-0.1,0C0.9,17.5,1,17.5,0.9,17.4z M2.8,18.3l0.9-3.7"/>
<path d="M3.2,14.1l0.3,0.3L3.2,14.1z M2.9,14l0.2,0.1L2.9,14z M2.4,13.8h-1H2.4z M1.8,14.2L5,15.9l0.1-0.1L1.8,14.2z M30.7,5.3
	c0,0.1,0.1,0.1,0.1,0.2C30.7,5.4,30.7,5.4,30.7,5.3z M30.7,5.6c0,0.1,0.1,0.1,0.1,0.2L30.7,5.6z"/>
<path class="st0" d="M31.6,3.2l-0.1-0.1l-0.2-0.2c-0.1-0.1-0.2-0.1-0.2-0.2H31l-0.2-0.1c-0.1-0.1-0.2-0.2-0.3-0.2
	c-0.3-0.2-0.7-0.4-1-0.6h-0.2c-0.4-0.2-0.9-0.4-1.3-0.5c-0.4-0.1-0.7-0.2-1.1-0.2c-0.1-0.1-0.1,0-0.1,0c0.2,0,0.5,0,0.5,0.1
	c-0.2,0-0.4,0-0.5,0.1c-0.2-0.1,0.3,0,0.1-0.1h-0.2c0.1,0-0.1-0.1-0.1-0.1c-0.2,0-0.3,0-0.5-0.1h-0.7l-0.2,0.2h-0.4
	c0.3,0.1-0.1,0-0.1,0.1c-0.2,0-0.1,0-0.2-0.1l-0.1,0.1c-0.1-0.1,0.1-0.2,0.1-0.3c-0.1,0-0.2,0-0.3,0.1h-0.1c-0.1,0-0.2,0-0.3,0.1
	c0,0.1,0.1,0.3,0.2,0.3h-0.3c-0.3,0-0.3,0.2-0.5,0.2l0.1-0.1c0,0-0.3,0.1-0.3,0.2s0.1-0.2,0-0.2c-0.4,0.1-0.6,0.5-0.5,0.5l0.2-0.2
	c0.1,0,0.1,0,0.1-0.1c0,0,0,0,0,0h0.1l-0.1,0.1C22.7,2,22.6,2,22.7,2.1l-0.5,0.2c0.1,0,0.2-0.1,0.1-0.1s-0.1,0-0.3,0.1
	c0.1-0.1,0.2-0.3,0.4-0.5C22.3,1.9,22.1,1.9,22,2c-0.1,0.1-0.1,0.3-0.1,0.4c-0.2,0.1-0.2-0.1-0.2-0.2c-0.4,0.2-0.2,0.4-0.5,0.6
	l0.1-0.1c-0.1,0.1-0.4,0.2-0.3,0.2c-0.1,0-0.2,0-0.2-0.1c0,0.1,0,0.1-0.1,0.2c0,0.1,0,0.1-0.1,0.2c-0.1-0.1-0.1-0.1-0.1-0.2
	c-0.1,0.1-0.1,0.3,0,0.2c-0.1,0-0.3,0.1-0.4,0.2c-0.1,0.1,0.1,0.1,0.2,0.1c-0.1,0.2-0.2,0.2-0.3,0.3c-0.1,0.1-0.2,0.2-0.2,0.3V3.8
	L20,3.9c0.1-0.2,0-0.3-0.1-0.3l-0.1,0.1v0.6l-0.1-0.2c0,0.2-0.1,0.3-0.2,0.5c-0.1,0.1-0.1,0.2-0.2,0.3s-0.1,0.2-0.2,0.3
	c-0.1-0.3-0.3,0-0.3,0.1V5.2c-0.2,0.2,0,0.4-0.2,0.5c0.1-0.2,0.1-0.3,0-0.3c0,0.2-0.3,0.6-0.1,0.5c-0.1,0.1-0.1,0.2-0.2,0.2
	l-0.1,0.5c0,0,0-0.1-0.1,0c0.1-0.2,0.1-0.5,0.2-0.6c-0.1,0-0.2,0-0.2-0.1C18,6.1,18,6.3,18,6.5V7l-0.2,0.4l-0.1,0.1v0.2
	c-0.1,0-0.1-0.1-0.2-0.2c0.3,0.4,0.3,0.6,0.4,0.4L18,7.7c0,0.1,0,0.1-0.1,0.2l-0.1,0.3c0.1,0.3,0,0.3,0.1,0.6c0,0-0.1-0.1-0.1,0v0.4
	c0,0.1-0.1,0.2,0,0.3s0.1,0.1,0.1,0.2L18,9.9c0,0.1-0.1-0.1-0.1,0c0.1,0.2,0.2,0.5,0.2,0.7c0.1,0.4,0.1-0.2,0.2,0.1
	c-0.1,0.1-0.1,0.1-0.1,0.3l0.2,0.2h-0.1c0,0.2,0.1,0.3,0,0.3c0.1,0.1,0.1,0.2,0.1,0.3c0.1,0.2,0.1-0.2,0.1-0.3c0,0.2,0.1,0.4,0,0.5
	l-0.1-0.2c0,0.5,0.3,0.3,0.2,0.6c-0.1-0.1-0.2-0.3-0.2-0.2l0.1,0.2c0,0-0.1-0.1-0.1,0s0.2,0.1,0.2,0.2c0.1,0.1,0.1,0.2,0.2,0.3
	l0.2,0.2l0.1,0.1L19,13.1c-0.1-0.1,0,0,0,0.1c0.2,0.3,0.3,0.1,0.4,0.4l-0.1-0.1v0.1c0.1,0,0.2,0.1,0.3,0.3c0.1,0.2,0.3,0.3,0.4,0.2
	c0.1,0.2,0,0-0.3-0.1l0.1,0.2L19.6,14c0.1,0.2,0.3,0.4,0.5,0.4c0.1,0.1-0.2,0.1,0.1,0.2c0.3,0.3,0-0.2,0.2,0l0.1,0.2
	c0.2,0.1,0.4,0.3,0.6,0.5h0.1c0,0,0-0.1,0.1,0h-0.1c0.2,0.2,0.6,0.2,0.7,0.4c-0.1,0,0.1,0.1,0.1,0.1l0.4,0.1c-0.2,0-0.2,0-0.2,0.1
	c0.1,0,0.2,0,0.3,0.1h0.3c-0.1,0-0.1,0-0.1-0.1l0,0c0.2,0,0.3,0.1,0.4,0.2H23c-0.1-0.1-0.2-0.1-0.3-0.1c0.3,0.1,0.1,0,0.2,0.1
	s0.3,0,0.3-0.1c0.2,0.1,0.3,0.1,0.5,0.1l0.1,0.8H24l-0.2,0.1c0.4,0.2,0.1-0.1,0.5,0v0.1c0.2,0,0.3-0.1,0.4,0s-0.3-0.1,0.1-0.1
	c0.1,0.1,0.2,0.1,0.3,0.1c0.1,0-0.1-0.1-0.2-0.1c0.6,0,0.4,0.3,0.9,0.2c-0.2-0.1,0.2-0.1-0.3-0.1c0.2,0,0.4,0.1,0.6,0L26,17.3
	c0.1,0,0.2,0,0.2-0.1v0.1c0.1-0.1,0.3-0.1,0.4-0.1c0.1,0,0.2,0,0.3-0.1c-0.1,0.1,0.2,0,0.3,0c-0.2,0.1-0.6,0.1-0.6,0.2h0.3
	c-0.1,0-0.1,0-0.2,0.1c0.4,0,0.5-0.2,0.7-0.2L27,17.3c0-0.1,0.2,0,0.2-0.2c0.2,0,0.3-0.1,0.5-0.1h-0.1c0.4-0.1,0.6,0.1,0.7,0
	s0.4-0.2,0.3-0.2c0.1-0.1-0.5,0.2-0.3,0c0.1,0,0.3,0,0.4-0.1c0.1,0,0.1-0.1,0.2-0.1s0.2-0.1,0.3-0.1c-0.2,0.2,0.2,0,0,0.2
	c0.1,0,0.2-0.1,0.3-0.2h0.1c0.2-0.3,0-0.1,0.4-0.4c-0.1,0.1,0.2,0,0.1,0.1c0.1-0.1,0.2-0.1,0.3-0.2c0.4-0.3,0.4-0.2,0.7-0.5H31
	c0.5-0.4,0.9-0.9,1.2-1.4l-0.1,0.1c0.1,0,0.2-0.3,0.3-0.5c0,0.1,0,0.1-0.1,0.1c0.1,0,0.1,0,0.2-0.1v-0.1h0.1c0.1-0.2-0.1,0,0-0.2
	c0.1,0,0.2-0.2,0.3-0.4c0.1-0.2,0.2-0.3,0.3-0.5c0-0.2-0.2,0.4-0.2,0.2s0.1-0.1,0.1-0.2H33c0.2-0.4,0.4-0.9,0.6-1.4
	c0.1-0.2,0.1-0.3,0-0.4s0,0.1,0.1,0c-0.1-0.2,0-0.4,0.1-0.5c0.1-0.1,0.1-0.3,0.1-0.4c0.1,0,0.1-0.1,0.2-0.2V9.1
	C34.2,6.9,33.2,4.7,31.6,3.2z M32.4,9.7v0.1C32.3,9.8,32.3,9.7,32.4,9.7z M30.2,2.2l-0.1-0.1L30.2,2.2z M24.7,8.5
	c0.1-0.1,0.1-0.1,0-0.2c0,0,0,0,0,0c0.1,0,0.1,0,0.1-0.1v0c0-0.1-0.1,0-0.1-0.1L24.8,8V7.7c0-0.1-0.1-0.2,0-0.3V7.2
	c0,0.1,0,0.1,0.1,0.1V7.2l-0.1-0.1V6.9c0-0.1,0-0.1-0.1-0.1V6.5l0.1,0.3c0-0.1-0.1,0,0-0.2s-0.1-0.1,0-0.1s-0.1,0.1-0.1,0V6.4
	c0-0.2,0.1-0.1,0.1-0.3c0,0.1-0.1-0.1-0.1,0.1c0-0.1,0.1-0.1,0-0.2V5.9c-0.1-0.1,0-0.2-0.1-0.2c0.1,0,0-0.1,0-0.1
	c0.1,0.1,0.2,0.2,0.2,0.3c0-0.1,0-0.2-0.1-0.3v0.1c-0.1,0,0-0.1-0.1-0.1V5.4c0-0.1,0-0.1,0.1-0.2c0-0.1,0-0.2-0.1-0.1s0,0.2-0.1,0.1
	c0.1-0.1,0-0.2,0-0.3c0,0.1,0.1,0,0.1,0V4.8c0.2-0.1,0.2,0,0.2-0.2c0,0.1,0-0.1,0.1,0V3.5L25,3.4V3.3c0.1,0,0-0.4,0.1-0.4
	c-0.3,0-0.3,0.2-0.3,0.1l0.1-0.1c0.1-0.2,0.2-0.4,0.4-0.5c0.1,0,0.1,0,0.1-0.1v0c0-0.1,0.1-0.1,0.2-0.1h0.2c0,0.1,0,0.1,0.1,0.1l0,0
	h0.2c0.3,0,0.5,0.1,0.7,0.3c-0.1,0.2,0,0.4,0,0.7v2.5h0.1c0-0.1-0.1-0.2,0-0.2s0,0.1,0.1,0.2c-0.1,0.1,0-0.1-0.1,0v0.1h-0.1v0.4
	l0.1,0.1v0.2c0,0-0.1-0.1-0.1,0v0.2H27v0.3c0,0-0.1-0.1-0.1,0c0,0.1,0,0.1,0.1,0.2l-0.1-0.2c0,0.1,0,0.1,0.1,0.1l0,0v0.2
	c-0.1-0.1-0.1-0.1-0.1-0.2v0.2L27,7.5c0,0.1-0.1,0-0.1,0S27,7.6,27,7.8s-0.1,0.1-0.1,0L27,7.9h-0.1L27,8c-0.1,0.1,0,0.1-0.1,0.1H27
	v0.2l-0.2,0.1h0.1c0-0.1-0.1-0.1-0.2,0v0.1l0.2,0.2h-0.1c0.1,0,0.1,0.3,0.1,0.4v0.1c-0.1,0.1,0.1,0.1,0,0.2v0.1c0,0.1,0,0.1-0.1,0.1
	l0,0v0.2c0.1-0.1,0-0.2,0.1-0.2c-0.1,0-0.1,0-0.1-0.1v0c0,0.2,0,0.3-0.1,0.4L26.5,10h-0.1V9.9c0,0.1-0.1,0.1,0,0.2h-0.1
	c-0.1,0.1-0.1,0.1-0.2,0.1h-0.3c-0.1,0,0,0-0.1,0.1h-0.1c-0.1,0-0.2,0-0.3-0.1c-0.1-0.1,0,0.1-0.1,0c0-0.1,0-0.1-0.1-0.1l0,0H25
	L24.9,10l-0.1-0.1c-0.1-0.1,0,0.1,0,0.2c0-0.1,0-0.1-0.1-0.2c0,0.1,0,0.1,0.1,0.1l0,0c0-0.2-0.1-0.1-0.1-0.3c0,0.1,0,0.1,0.1,0.1
	l0,0V9.3l-0.1-0.1V8.9c0-0.1-0.1-0.1-0.1-0.2S24.7,8.4,24.7,8.5z M27,7.7L27,7.7C26.9,7.7,27,7.6,27,7.7z M25.1,13.6H25
	C25,13.7,25.1,13.6,25.1,13.6z M23,12.8l-0.1-0.1L23,12.8z M21.6,2.5C21.7,2.4,21.6,2.4,21.6,2.5s0.2-0.1,0.1,0s0,0.1-0.2,0.2
	C21.4,2.6,21.5,2.6,21.6,2.5z M20.3,14.6c0,0.1,0.1,0.1,0.2,0.2C20.4,14.9,20.4,14.8,20.3,14.6z M30.6,14c-0.1,0,0.1-0.1,0.2-0.2
	C30.7,13.8,30.7,13.9,30.6,14z M32.2,10.6v-0.2c-0.1,0.5,0,0.5-0.2,0.7c0-0.2,0.1-0.4,0-0.3v0.5c0,0.1,0,0.1-0.1,0.2
	c0,0.1,0,0.1-0.1,0.2L31.7,12c0-0.1,0,0-0.1,0.1c-0.2,0.3,0,0.3-0.2,0.6v-0.1l-0.1,0.1l-0.2,0.4c-0.1,0.2-0.3,0.4-0.2,0.4
	c-0.2,0.2,0,0,0.1-0.3l-0.2,0.2l0.2-0.2l-0.3,0.3c-0.1,0.1-0.1,0.2-0.2,0.3s0-0.1-0.2,0.1s0.1,0-0.1,0.2L30,14.2
	c-0.2,0.3-0.5,0.4-0.7,0.6c-0.1,0-0.1,0-0.1,0.1v0c0,0,0.1,0-0.1,0.1l0.1-0.1c-0.1,0.1-0.3,0.2-0.4,0.3c-0.1,0.1-0.2,0.2-0.4,0.2
	h-0.3c-0.1,0-0.1,0-0.1,0.1v0c-0.1,0-0.1,0-0.2,0.1l0.2-0.1c-0.1,0-0.2,0.1-0.3,0.1c0.1,0,0.1-0.1,0,0c-0.1,0.1-0.1,0.1-0.2,0.1
	c-0.1,0-0.1,0-0.1,0.1c-0.1,0-0.4,0.1-0.5,0.1c0.1,0,0.1,0,0.1-0.1v0c0.1,0,0.2,0,0.3-0.1c-0.3,0.1-0.1,0-0.2,0s-0.3,0.1-0.2,0.1
	c-0.2,0-0.4,0-0.6,0.1h-0.2l0.2-0.1c-0.5,0-0.1,0.1-0.6,0.1c-0.2,0-0.3,0.1-0.4,0s0.3,0.1-0.1,0.1c-0.1,0-0.3-0.1-0.4-0.1
	s0,0,0.2,0.1c-0.6-0.1-0.4-0.2-0.9-0.3c0.2,0.1-0.2,0,0.3,0.1c-0.2,0-0.5-0.1-0.7-0.2h0.2c-0.1,0-0.2,0-0.2-0.1
	c-0.3,0-0.5-0.2-0.7-0.2c0.1,0-0.2-0.1-0.3-0.2c0.2,0.1,0.5,0.2,0.7,0.3c-0.1-0.1-0.2-0.1-0.3-0.1c0.1,0,0.1,0,0.2,0.1
	c-0.3-0.1-0.5-0.2-0.8-0.3l0.4,0.2c-0.1,0-0.2-0.1-0.3-0.1s-0.3-0.2-0.5-0.3h0.1c-0.2-0.1-0.4-0.3-0.5-0.5c-0.1-0.1-0.4-0.3-0.3-0.2
	c-0.1-0.1,0.4,0.4,0.2,0.3l-0.3-0.3c-0.2-0.1-0.3-0.3-0.4-0.5c0.2,0.2-0.1-0.1,0.1,0l-0.3-0.3v-0.1c-0.3-0.2-0.1,0-0.4-0.4
	c0.1,0.1-0.1-0.2,0-0.1c-0.1-0.1-0.2-0.2-0.2-0.3c-0.2-0.3-0.3-0.5-0.4-0.8v0.1c-0.3-0.6-0.4-1.3-0.4-2V10c0-0.1-0.1-0.4,0-0.6v0.1
	c0.1-0.1,0.1-0.1,0.1-0.2V8.9c0.1-0.2,0.1-0.4,0.1-0.6c0.1-0.3,0.1-0.5,0.2-0.6s-0.1,0.4-0.1,0.2s0-0.1,0.1-0.2h-0.1
	c0.1-0.3,0.2-0.5,0.3-0.8c0.1-0.2,0.2-0.5,0.3-0.7c0.1-0.2,0.2-0.3,0.2-0.4c0.1-0.2,0.2-0.3,0.3-0.5l0.2-0.2C21,5,21,5,21,4.9h0.2
	c0.1-0.1,0.3-0.1,0.5-0.1c0.4,0,0.8,0.2,0.9,0.6c0.2,0.4,0.1,0.8-0.1,1.1c-1.1,1.2-1.3,3-0.7,4.5v0.1c0,0.1,0,0.1,0.1,0.2
	c0.1,0.1,0.1,0.2,0.2,0.3l0.1,0.1l0.1,0.2l0.1,0.1l0.2,0.2c0.3,0.3,0.6,0.5,0.9,0.7c0.1,0,0.1,0,0.2,0.1c0.3,0.2,0.5,0.3,0.8,0.4
	c0.2,0.1,0.3,0.1,0.5,0.1c0.4,0.1,0.8,0.1,1.2,0c0.1,0,0.1,0,0.1-0.1v0c-0.2,0.1-0.4,0.1-0.6,0.1c0.2,0,0.3,0,0.5-0.1h-0.1
	c0.1,0,0.2,0,0.2-0.1h0.2c0.3-0.1,0.7-0.2,1-0.3c0.1,0,0.1-0.1,0.2-0.1s0.2-0.2,0.1-0.2l0.4-0.2c-0.3,0.2,0.1,0,0.1-0.1
	c0.2-0.1,0.1,0,0.2-0.1l0.1-0.1c-0.1,0-0.1,0-0.1,0.1v0l0.1-0.1c0.1-0.1-0.1,0.2,0,0.2s0.2-0.1,0.2-0.2S28.9,12,29,12
	c-0.1,0-0.1-0.1-0.2,0s0.2-0.1,0.2-0.2c0.1-0.1,0.2-0.3,0.3-0.5l-0.1,0.2c0.1-0.1,0.2-0.3,0.2-0.4c0,0,0,0.2,0.1,0.1
	c0.2-0.4,0.2-0.7,0.1-0.7c0,0.1,0,0.2-0.1,0.3c0,0.1-0.1,0.2-0.1,0.3l0.1-0.4c0-0.1,0-0.2,0.1-0.3c0-0.1,0.1-0.2,0.1-0.3v0.2
	c0.1-0.2,0-0.1,0.1-0.3v0.6c0.1-0.2,0.1-0.3,0.1-0.5c0-0.1,0-0.2-0.1-0.3c0-0.2,0.1-0.1,0.1-0.1V9.3c0-0.1-0.1-0.2-0.1-0.4V8.6
	c0-0.1,0.1-0.2,0.1-0.1c0-0.1,0-0.1-0.1-0.2c0-0.1,0-0.1-0.1-0.2c0,0.1,0.1,0,0.1,0S29.7,7.9,29.7,8c0-0.2,0-0.3-0.1-0.5
	c0-0.1-0.1,0-0.1,0.1c-0.1-0.2-0.1-0.3-0.2-0.4S29.2,7,29.1,6.9L29.3,7v0.1c0.1,0.2,0.2,0.1,0.2,0.1S29.4,7.1,29.4,7l-0.1-0.1
	c-0.1-0.1-0.2-0.1-0.3-0.2h0.1c-0.1-0.1-0.2-0.3-0.3-0.4c-0.2-0.2-0.3-0.4-0.3-0.7V5.3c0.3,0.4,0.3,0.3,0.3,0.2s0.1-0.2,0.2-0.3
	c-0.2,0.2-0.2,0.3-0.1,0.3s0.2-0.2,0.3-0.3s0.2-0.1,0.1-0.2c0.1-0.1,0.1-0.1,0.2-0.1c0.1,0,0.2,0,0.3-0.1h0.3c0,0-0.1,0,0.1,0.1
	h-0.5c-0.1,0-0.2,0.1-0.3,0.1s0.1,0,0,0.1C29.6,5,29.9,5,30.1,5c0.2,0,0.4,0.1,0.5,0.2l0.1,0.1l0.1,0.1c0.1,0.1,0.1,0.1,0.1,0.2v0.1
	L31,5.8l0.1,0.1c-0.1,0-0.1,0-0.2-0.1C31.1,6,31.2,6.2,31.2,6V5.8c0,0.1,0,0.1,0.1,0.1l0,0l0.1,0.3c0.2,0.2,0.3,0.4,0.4,0.6
	c0,0-0.1-0.1-0.1,0s0.1,0.1,0.1,0.2s0,0.2,0.1,0.2c0,0.1,0.1,0.2,0.1,0.3c0.1,0.2,0.1,0.1,0.1,0.2v0.2c0,0.1-0.1-0.2,0,0
	c0.1,0.1,0.1,0.3,0.1,0.4c0,0.1,0,0.3,0.1,0.4c0,0.4,0.1-0.2,0.1,0.2c0,0.1-0.1,0.1-0.1,0.3s0.1,0.1,0.1,0.3v0.6
	c0,0.3,0.1-0.2,0.1-0.3C32.3,10.2,32.3,10.4,32.2,10.6z M29.9,9.6c0.1-0.1,0,0,0.1,0.2v0.1C29.9,9.7,29.8,9.9,29.9,9.6z"/>
<path d="M18.3,11.9c0,0.1,0,0.2,0.1,0.2S18.4,11.9,18.3,11.9z M18,7.2c0,0.1-0.1,0.1-0.1,0.2C18,7.3,18,7.3,18,7.2z"/>
</svg>
