<?xml version="1.0" encoding="utf-8"?>
<!-- Generator: Adobe Illustrator 24.0.2, SVG Export Plug-In . SVG Version: 6.00 Build 0)  -->
<svg version="1.1" id="Layer_1" xmlns="http://www.w3.org/2000/svg" xmlns:xlink="http://www.w3.org/1999/xlink" x="0px" y="0px"
	 viewBox="0 0 815.8 428.4" style="enable-background:new 0 0 815.8 428.4;" xml:space="preserve" width="50" height="35">
<style type="text/css">
	.st0{fill:#EF5323;}
</style>
<title>fun-logo</title>
<g id="JLqhwW.tif">
	<g>
		<path class="st0" d="M621.3,144.9c2.4,11.6,4.6,22.8,7.4,36.4c10.1-10.4,18-20,27.3-27.9c24.8-21,54.3-27.5,86-23.9
			c29.3,3.4,50.5,27.9,54.1,62.8c7,68.5,13.2,137,19.8,205.5c0,1.8-0.1,3.7-0.2,5.5c-14.6,1.6-29.3,3.4-44,4.9
			c-15.2,1.6-30.5,2.5-45.6,4.5c-10.1,1.4-13.2-2.4-14.1-12.1c-4-45.7-8.6-91.3-13.2-137c-0.6-5.8-2.1-11.4-4.3-16.8
			c-5.9-14.1-16.7-19.7-32.6-17.8c-13.4,1.7-24.6,10.9-24.8,24.9c-0.4,22.1,1.3,44.3,3.1,66.4c2.6,32.6,6.1,65.1,9.4,98.7l-102,9.4
			c-8.3-91.7-16.4-182.5-24.7-274.5L621.3,144.9z"/>
		<path class="st0" d="M407.5,144.5c23.4,1.9,45.1,3.6,66.9,5.3c7.3,0.6,14.5,1.4,21.8,1.5c8.5,0.2,12.2,3.3,11.3,12.6
			c-2.9,29.7-5,59.5-7.5,89.3c-4.1,50.4-8.3,100.9-12.4,151.3c-0.6,6.8-1.5,13.6-2.4,22.2l-97.4-7.8v-32.7c-5.4,4.3-8.6,7-11.9,9.6
			c-32.4,25.3-68.6,30.8-107.3,19.1c-29.5-8.9-46.3-34.7-45.7-70.6c0.4-28,3.2-56,5.4-83.9c3.3-41.4,7-82.7,10.6-124
			c0.1-1.1,0.4-2.1,1-5.1c14.4,0.9,29.2,1.7,43.8,2.8c16.3,1.2,32.6,3.2,49,3.9c8.8,0.4,11.2,3.9,10.4,12.1
			c-3.5,39.2-6.8,78.4-9.7,117.6c-1.1,14.1-1.5,28.3-1.1,42.5c0.3,11.4,3.8,21.5,16.6,25.4c13.1,3.9,25.5,0.4,34.3-10.4
			c10.7-13.2,12.1-29.3,13.4-45.3C400.1,235.2,403.7,190.6,407.5,144.5z"/>
		<path class="st0" d="M174.4,412.4L91,420.1c4.4-10.1,9.5-18.5,11.9-27.7c7.4-28.3-5.2-57-31.4-71.4c-7.2-3.9-9.3-8.6-9.9-16.2
			c-1.8-24.7-4.4-49.3-6.8-75.8c-6.8,0.6-13.2,1.8-19.4,1.4c-2.9-0.2-7.8-3.2-8-5.4c-2.7-23.9-4.7-47.8-6.8-71.8
			c-0.1-1,0.6-2,1.2-3.6c2.4-0.3,4.8-0.6,7.3-0.7c19.4-1.1,18.9-1,16.9-20.6c-2-18.8-3.7-37.7-3.9-56.6
			C41.5,36.6,58.8,15.2,93.2,6.9c29.3-7.1,59.2-7.6,89.1-6.4c2.5,0.1,6.9,2.7,7.1,4.5c2.2,20.5,3.8,41.1,5.5,61.2
			c-10.6,1-20.1,0.9-29.1,3.1c-12.1,2.9-19.4,12.2-19.4,24.7c0,12.7,1,25.5,2.8,38.1c0.3,2.1,6.2,5,9.3,4.9
			c13.7-0.7,27.3-2.3,41.6-3.7c2.5,25.6,4.8,49.8,7.3,74c0.7,6.8-3.4,8-8.5,8.4c-10.5,0.9-21,2.1-31.6,2.3
			c-8.2,0.2-10.6,3.6-9.8,11.5c5.8,58.3,11.3,116.7,16.9,175.1C174.6,406.8,174.4,409,174.4,412.4z"/>
	</g>
</g>
<circle cx="48.9" cy="377.2" r="40.7"/>
</svg>
