<?xml version="1.0" encoding="utf-8"?>
<!-- Generator: Adobe Illustrator 21.1.0, SVG Export Plug-In . SVG Version: 6.00 Build 0)  -->
<svg version="1.1" id="Layer_1" xmlns="http://www.w3.org/2000/svg" xmlns:xlink="http://www.w3.org/1999/xlink" x="0px" y="0px"
	 viewBox="0 0 358.3 138.8" style="enable-background:new 0 0 358.3 138.8;" xml:space="preserve" width="60" height="35">
<style type="text/css">
	.st0{fill:#012851;}
	.st1{fill:#F15A24;}
</style>
<title>logo.shop</title>
<g id="Layer_2">
	<g id="Layer_2-2">
		<path class="st0" d="M285.4,138.8c-0.5-1.3-1.3-2.5-1.3-3.8c-0.1-10.2,0-20.4-0.1-30.7c-0.1-1.4-0.6-2.7-1.3-3.8
			c-1.9-3.7-4.4-7.2-6-11c-3.4-8.1-0.9-13.4,7.3-16.9c0-3.3,0-6.8,0-10.2c0-16.1,8.9-26.6,24.7-29.1c24-3.8,45.3,11.8,49.1,35.8
			c0.1,0.6,0.3,1.3,0.5,1.9v7.5c-0.2,0.8-0.4,1.6-0.5,2.4c-2.5,18.8-18.4,34.2-37.3,35.7c-4.3,0.3-8.6,0.1-13.1,0.1
			c0,5.9,0.1,12-0.1,18c0,1.4-0.9,2.7-1.3,4.1L285.4,138.8z M334.9,74.4c-0.2-8.6-6.2-16-14.5-18c-8.1-2-13,1.8-13,10.1
			c0,7.6,0,15.2,0,22.8c-0.2,1.3,0.6,2.6,1.9,3C321.5,97.2,335.4,87.5,334.9,74.4L334.9,74.4z"/>
		<path class="st0" d="M129.1,0c4.4,1.6,7.7,4.4,8.7,9.2c0.2,1.2,0.3,2.3,0.3,3.5c0,6.9,0,13.9,0,21c6.6-1.4,13.3-1.3,19.9,0.2
			c14.2,3.5,22.7,13,24.8,27.9c0.5,3.6,0.8,7.3,0.8,11c0.1,12.7,0,25.3,0,37.9c0,3.4-0.4,3.8-3.7,3.8c-5.4,0-10.9-0.1-16.3,0
			c-2.4,0-3.3-0.9-3.3-3.3c0.1-12.5,0.1-25,0-37.4c0-2.5-0.2-5-0.5-7.5c-0.9-7.1-5.4-10.8-12.6-10.5c-0.9,0.1-1.8,0.2-2.7,0.4
			c-6,1.1-6.4,1.5-6.4,7.4c0,15.7,0,31.5,0,47.2c0,3.3-0.3,3.6-3.6,3.7h-16c-3.1,0-3.7-0.5-3.7-3.6c0-10.4,0-20.8,0-31.2
			c0.2-1.5-0.6-2.9-2-3.5c-5-2.4-7.3-8.2-5.4-13.4c1.6-4.4,4.1-8.5,6.2-12.8c0.7-1.2,1.1-2.5,1.2-3.9c0.1-10.2,0.3-20.4,0-30.7
			c-0.2-7.1,1.8-12.6,8.9-15.4L129.1,0z"/>
		<path class="st0" d="M273.9,74.8c-0.1,23.3-19,42.1-42.2,42s-42.1-19-42-42.2c0.1-23.3,19-42.1,42.2-42c0,0,0,0,0,0
			c23.1-0.1,41.9,18.6,42,41.8C273.9,74.6,273.9,74.7,273.9,74.8z M231.9,93.6c10.4,0,18.8-8.5,18.8-18.9c0-10.4-8.5-18.8-18.9-18.8
			c-10.4,0-18.8,8.5-18.8,18.9S221.5,93.6,231.9,93.6C231.9,93.6,231.9,93.6,231.9,93.6z"/>
		<path class="st0" d="M77.2,32.6c5.8-0.1,13.1,2.1,19.8,6.1c3.1,1.9,5.5,4.4,5.9,8.3c0.9,8.3-6.8,14-14.8,10.7
			c-4.8-2-9.6-4.2-14.9-3.5c-2.1,0.2-4.2,0.9-6.1,1.9c-1.2,0.8-1.9,2.2-2,3.6c0.3,1.3,1.3,2.5,2.6,3c3.5,0.8,7,1.4,10.6,1.7
			c7.7,0.7,14.6,2.8,20,8.6c13.6,14.4,6.8,37.3-12.8,42.5c-15.9,4.1-29.8-0.2-41.2-12c-1.8-1.9-1.7-2.9,0.3-4.5
			c3.8-3.1,7.8-6.1,11.6-9.3c1.8-1.5,3.2-1.5,5,0.2c4.6,4.5,11,6.5,17.3,5.2c0.9,0,1.8-0.3,2.6-0.9c1.1-1.1,2.4-2.5,2.6-3.9
			c0.3-2-1.3-3.5-3.3-3.8c-2.9-0.5-5.8-0.6-8.7-1.1c-4.2-0.8-8.5-1.2-12.4-2.8c-9-3.5-14.3-10.4-15.6-19.9
			c-1.4-10.3,2.7-18.5,11.1-24.5C60.9,34,67.8,32.7,77.2,32.6z"/>
		<path class="st1" d="M18.7,116.7c-10.2,0.2-18.6-8-18.7-18.2c0-0.2,0-0.4,0-0.6c0-10.4,8.4-18.8,18.8-18.8s18.8,8.4,18.8,18.8
			c0,0,0,0,0,0c0.1,10.2-8.1,18.6-18.3,18.8C19,116.7,18.9,116.7,18.7,116.7z"/>
	</g>
</g>
</svg>
