<?xml version="1.0" encoding="utf-8"?>
<!-- Generator: Adobe Illustrator 24.0.2, SVG Export Plug-In . SVG Version: 6.00 Build 0)  -->
<svg version="1.1" id="Layer_1" xmlns="http://www.w3.org/2000/svg" xmlns:xlink="http://www.w3.org/1999/xlink" x="0px" y="0px"
	 viewBox="0 0 414.2 127.3" style="enable-background:new 0 0 414.2 127.3;" xml:space="preserve" width="70" height="35">
<style type="text/css">
	.st0{fill:#F44336;}
	.st1{fill:#E53935;}
	.st2{fill:#FFFFFF;}
	.st3{opacity:0.2;}
	.st4{opacity:0.1;fill:url(#SVGID_1_);enable-background:new    ;}
	.st5{fill:#3E2723;}
</style>
<title>app-logo</title>
<g>
	<g>
		<path class="st0" d="M414.2,7.8v52.9c0,2-0.9,3.8-2.5,5l-32.9,23.8c-2.2,1.6-5.1,1.6-7.2,0l-32.9-23.8c-1.6-1.2-2.5-3-2.5-5V7.8
			c0-3.4,2.8-6.2,6.2-6.2l0,0H408C411.4,1.6,414.2,4.4,414.2,7.8C414.2,7.8,414.2,7.8,414.2,7.8z"/>
		<path class="st1" d="M410,7.5h-34.9v77l35.4-24.1V8C410.5,7.7,410.3,7.5,410,7.5z"/>
		<g>
			<path class="st2" d="M356.1,21.1h12.3c0.6,0,1,0.5,1,1v12.3c0,0.6-0.5,1-1,1h-12.3c-0.6,0-1-0.5-1-1V22.2
				C355.1,21.6,355.5,21.1,356.1,21.1z"/>
			<path class="st2" d="M381.8,21.1h12.3c0.6,0,1,0.5,1,1v12.3c0,0.6-0.5,1-1,1h-12.3c-0.6,0-1-0.5-1-1V22.2
				C380.8,21.6,381.2,21.1,381.8,21.1z"/>
			<path class="st2" d="M356.1,46.8h12.3c0.6,0,1,0.5,1,1v12.3c0,0.6-0.5,1-1,1h-12.3c-0.6,0-1-0.5-1-1V47.9
				C355.1,47.3,355.5,46.8,356.1,46.8z"/>
			<path class="st2" d="M381.8,46.8h12.3c0.6,0,1,0.5,1,1v12.3c0,0.6-0.5,1-1,1h-12.3c-0.6,0-1-0.5-1-1V47.9
				C380.8,47.3,381.2,46.8,381.8,46.8z"/>
		</g>
		<g class="st3">
			<path class="st2" d="M408,1.6h-65.8c-3.4,0-6.2,2.8-6.2,6.2c0,0,0,0,0,0v0.5c0-3.4,2.8-6.2,6.2-6.2l0,0H408
				c3.4,0,6.2,2.8,6.2,6.2V7.8C414.2,4.4,411.4,1.6,408,1.6C408,1.6,408,1.6,408,1.6z"/>
		</g>
		
			<radialGradient id="SVGID_1_" cx="336.56" cy="127.57" r="98.89" gradientTransform="matrix(1 0 0 -1 0 130)" gradientUnits="userSpaceOnUse">
			<stop  offset="0" style="stop-color:#FFFFFF"/>
			<stop  offset="4.000000e-02" style="stop-color:#FFFFFF;stop-opacity:0.92"/>
			<stop  offset="0.2" style="stop-color:#FFFFFF;stop-opacity:0.68"/>
			<stop  offset="0.35" style="stop-color:#FFFFFF;stop-opacity:0.47"/>
			<stop  offset="0.5" style="stop-color:#FFFFFF;stop-opacity:0.3"/>
			<stop  offset="0.64" style="stop-color:#FFFFFF;stop-opacity:0.17"/>
			<stop  offset="0.77" style="stop-color:#FFFFFF;stop-opacity:8.000000e-02"/>
			<stop  offset="0.9" style="stop-color:#FFFFFF;stop-opacity:2.000000e-02"/>
			<stop  offset="1" style="stop-color:#FFFFFF;stop-opacity:0"/>
		</radialGradient>
		<path class="st4" d="M414.2,7.8v52.9c0,2-0.9,3.8-2.5,5l-32.9,23.8c-2.2,1.6-5.1,1.6-7.2,0l-32.9-23.8c-1.6-1.2-2.5-3-2.5-5V7.8
			c0-3.4,2.8-6.2,6.2-6.2l0,0H408C411.4,1.6,414.2,4.4,414.2,7.8C414.2,7.8,414.2,7.8,414.2,7.8z"/>
	</g>
	<g class="st3">
		<path class="st5" d="M411.6,65.1l-32.9,23.8c-2.2,1.6-5.1,1.6-7.2,0l-32.9-23.8c-1.6-1.2-2.6-3-2.5-5v0.5c0,2,0.9,3.8,2.5,5
			l32.9,23.8c2.2,1.6,5.1,1.6,7.2,0l32.9-23.8c1.6-1.2,2.5-3,2.5-5v-0.5C414.2,62.1,413.2,64,411.6,65.1z"/>
	</g>
</g>
<g>
	<path d="M0,82c0-5.2,2.1-7.8,6.4-7.8c4.4,0,6.5,2.6,6.5,7.8s-2.2,7.8-6.5,7.8C2.1,89.8,0,87.2,0,82z"/>
	<path d="M92.9,88.2l-2-13.7h-0.6c-4.3,5.6-8.8,9.5-13.4,11.8c-5.1,2.4-10.7,3.6-16.3,3.5c-8.5,0-15.1-2.2-19.8-6.5
		s-7.1-10.4-7.1-18.1c-0.3-8,3.8-15.5,10.5-19.7c7-4.7,17.2-7.1,30.5-7.4l16.5-0.5v-5.7c0-8.2-1.7-14.4-5-18.6S77.5,7,70,7
		c-8,0-16.3,2.2-24.9,6.7l-3-6.8c8.8-4.3,18.4-6.6,28.2-6.7c9.5,0,16.6,2.5,21.3,7.4c4.7,4.9,7,12.6,7,23.1v57.6H92.9z M61,82.6
		c9.2,0,16.5-2.6,21.8-7.9s8-12.6,8-22v-8.5l-15.1,0.6c-12.1,0.6-20.8,2.5-26,5.7s-7.8,8.2-7.8,15c0,5.4,1.7,9.6,5,12.6
		S55,82.6,61,82.6z"/>
	<path d="M163.7,89.8c-13.3,0-23-5-29.1-15H134l0.2,6.7c0.2,3.9,0.3,8.2,0.3,12.9v33h-7.9V1.7h6.7l1.5,12.3h0.5
		c5.9-9.3,15.4-14,28.5-14c11.7,0,20.6,3.8,26.7,11.5c6.1,7.7,9.2,18.8,9.2,33.5c0,14.2-3.2,25.2-9.7,33.1S174.9,89.8,163.7,89.8z
		 M163.6,82.8c8.9,0,15.7-3.3,20.6-9.9s7.3-15.8,7.3-27.6c0-25.4-9.2-38.1-27.5-38.1c-10.1,0-17.5,2.8-22.2,8.3s-7.1,14.6-7.1,27.1
		v2.5c0,13.5,2.3,23.2,6.8,29S153.3,82.8,163.6,82.8L163.6,82.8z"/>
	<path d="M260.7,89.8c-13.3,0-23-5-29.1-15H231l0.2,6.7c0.2,3.9,0.3,8.2,0.3,12.9v33h-7.9V1.7h6.7l1.5,12.3h0.5
		c5.9-9.3,15.4-14,28.5-14c11.7,0,20.6,3.8,26.7,11.5c6.1,7.7,9.2,18.8,9.2,33.5c0,14.2-3.2,25.2-9.7,33.1S271.9,89.8,260.7,89.8z
		 M260.6,82.8c8.9,0,15.7-3.3,20.6-9.9s7.3-15.8,7.3-27.6c0-25.4-9.2-38.1-27.5-38.1c-10.1,0-17.5,2.8-22.2,8.3s-7.1,14.6-7.1,27.1
		v2.5c0,13.5,2.3,23.2,6.8,29S250.3,82.8,260.6,82.8L260.6,82.8z"/>
</g>
</svg>
