<?xml version="1.0" encoding="utf-8"?>
<!-- Generator: Adobe Illustrator 24.0.2, SVG Export Plug-In . SVG Version: 6.00 Build 0)  -->
<svg version="1.1" id="Layer_1" xmlns="http://www.w3.org/2000/svg" xmlns:xlink="http://www.w3.org/1999/xlink" x="0px" y="0px"
	 viewBox="0 0 298.2 173.7" style="enable-background:new 0 0 298.2 173.7;" xml:space="preserve" width="70" height="35">
<style type="text/css">
	.st0{fill:none;stroke:#491D55;stroke-width:8;stroke-miterlimit:10;}
	.st1{stroke:#000000;stroke-miterlimit:10;}
	.st2{fill:#491D55;}
</style>
<path class="st0" d="M285.9,46.1c0-21.2-17.2-39.6-38.4-39.6H78.2C56.4,6.6,38.8,24.3,38.9,46c0,4.1,0.7,8.2,2,12.1
	c-7.5,1.5-14.3,5.2-19.7,10.5C13.5,76.2,9.3,86.7,9.3,98.3s4.3,22.3,12.2,29.9c2.5,2.4,14.4,10.1,28.8,11.9
	c16,1.9,35.1-2.5,47.7-6.5c2.1,19.8,18.9,34.7,38.8,34.6c14.5,0.1,28.5-5.2,39.3-14.9c6-5.4,11.2-11.8,15.2-18.9
	c2.2,1.1,13.7,5.7,25.8,6.3c3.4,0.2,32.6,2,49.6-7c16.2-8.6,20.3-27.9,20.3-33.7L285.9,46.1z"/>
<path class="st1" d="M48.1,110c-6.6,0-10.4-3.3-10.4-10.3c0-7.1,3.8-10.6,10.4-10.6s10.3,3.5,10.3,10.6
	C58.4,106.7,54.8,110,48.1,110z"/>
<path class="st2" d="M121.3,110c-2.7,0-5.2-1.2-6.8-3.3c-4.9-6.8-15.5-21.8-15.5-21.8s-10.6,15-15.5,21.8c-1.6,2.1-4.1,3.3-6.8,3.3
	c-4.7,0-8.5-3.9-8.5-8.6c0-1.9,0.6-3.6,1.7-5.1l19.1-24L70.7,49.6c-1.2-1.5-1.8-3.3-1.7-5.2c0-4.7,3.8-8.5,8.4-8.5c0,0,0.1,0,0.1,0
	c2.7,0,5.2,1.2,6.8,3.3l14.8,20.3l14.8-20.3c1.6-2.1,4.1-3.3,6.8-3.3c4.7,0,8.5,3.8,8.5,8.4c0,0,0,0.1,0,0.1c0,1.9-0.6,3.7-1.7,5.2
	L109,72.3l19.1,24c2.8,3.8,2.1,9.1-1.7,12C124.9,109.3,123.1,109.9,121.3,110z"/>
<path class="st2" d="M201.1,47.7l-29.3,66.2c-6.9,15.5-16.9,26.5-32.6,26.5c-4.4,0.2-8-3.3-8.2-7.6c-0.2-4.4,3.3-8,7.6-8.2
	c0.2,0,0.4,0,0.6,0c10.1,0,14.8-8,20-21l-24.3-55.9c-0.4-1.1-0.6-2.2-0.6-3.3c0-4.7,3.8-8.5,8.4-8.5c0,0,0.1,0,0.1,0
	c3.5,0,6.6,2.1,7.8,5.4L167.9,85l17.3-43.8c1.2-3.3,4.4-5.4,7.8-5.4c4.7,0,8.5,3.8,8.5,8.4c0,0,0,0.1,0,0.1
	C201.7,45.5,201.5,46.6,201.1,47.7z"/>
<path class="st2" d="M257,108.7h-43.5c-4,0-7.2-3.3-7.3-7.3c0-1.7,0.6-3.4,1.7-4.7l18.8-25.2l11.9-15.9l3.2-4.3h-26.6
	c-3.9,0-7.1-3.2-7.1-7.1s3.2-7.1,7.1-7.1h40.5c4.2,0,7.6,3.4,7.6,7.6c0,1.8-0.6,3.5-1.7,4.8l-33.3,44.6H257c4,0,7.3,3.3,7.3,7.3
	C264.3,105.5,261,108.7,257,108.7L257,108.7z"/>
</svg>
