<?xml version="1.0" encoding="utf-8"?>
<!-- Generator: Adobe Illustrator 24.0.2, SVG Export Plug-In . SVG Version: 6.00 Build 0)  -->
<svg version="1.1" id="Layer_1" xmlns="http://www.w3.org/2000/svg" xmlns:xlink="http://www.w3.org/1999/xlink" x="0px" y="0px"
	 viewBox="0 0 323.1 92" style="enable-background:new 0 0 323.1 92;" xml:space="preserve" width="70" height="35">
<style type="text/css">
	.st0{fill:#12ADB2;}
	.st1{fill:#424343;}
</style>
<title>dotstore domain logo</title>
<path class="st0" d="M27,76.9c0,6.6-5.4,12-12,12s-12-5.4-12-12s5.4-12,12-12S27,70.3,27,76.9z"/>
<path class="st1" d="M76.5,66.4c0,16,8.4,22.2,22.6,22.2h31.4c-7.2-5-12.6-12-15.6-20.2h-8.3c-4.3,0-6.5-2-6.5-6.7V37.9h14.2v-19
	h-14.2V3H76.5V66.4z"/>
<path class="st1" d="M120,54v-0.3c0-19.1,15.6-35.2,37.3-35.2s37,15.8,37,34.9v0.2c0,19.1-15.6,35.2-37.3,35.2S120,73.1,120,54z
	 M171.3,54v-0.3c0-8.2-6-15.1-14.3-15.1c-8.6,0-14,6.8-14,14.9v0.2c0,8.2,6,15.2,14.3,15.2C165.9,68.9,171.3,62.1,171.3,54L171.3,54
	z"/>
<path class="st1" d="M46.9,44.7c-7.1-2.1-10.9-3.3-10.9-6v-0.2c0-1.9,1.9-3.2,5.5-3.2c5.3,0,12.9,2.4,19.9,6.2l8.1-14.9
	c-8.3-5.1-17.9-7.8-27.7-7.8c-15.5,0-27,8-27,22.2v0.3c0,13.5,10.6,18,23.9,21.5c7.1,2,10.8,3.1,10.8,5.7v0.3c0,2.3-1.9,3.6-6,3.6
	c-3.7-0.1-7.4-0.7-10.9-1.8c0.9,2,1.4,4.2,1.5,6.5c0,3.8-1.3,7.5-3.8,10.3c4.3,1,8.8,1.5,13.2,1.6c16.4,0,27.5-7.7,27.5-22.5v-0.3
	C70.8,53,60.2,48.4,46.9,44.7z"/>
<path class="st1" d="M242.9,43.6c-12.3,0-19.3,7.1-19.3,22.6v22.5H200V19.9h23.6v13.5c3.9-9.2,10.1-15.2,21.3-14.7H261
	c0,0-14,6.2-17.2,24.8H242.9z"/>
<path class="st1" d="M287.3,71.3c-7.4,0-12.8-3.8-14.6-11.1h24.4c17.8,0,18.1-17.7,18.1-17.7c0-0.3,0-0.5,0-0.8
	c-3.2-1.4-6.7-2-10.2-1.6c0,0.3,0.1,0.6,0.1,0.9c0,4.9-4,8.8-8.8,8.8h-22c-2.4,0-4.3-1.9-4.3-4.3v-9.1c0-2.4,1.9-4.3,4.3-4.3h21.9
	l0,0c3.9-0.1,7.4,2.4,8.5,6.1c3.5-0.4,7.1,0,10.4,1.4c-1.1-15.1-13-21.4-31.2-21.4c-20,0-34.2,15.7-34.2,35.4V54
	c0,21,15,35.2,36.3,35.2c13.5,0,22.9-5.5,29.4-13.8l-13.1-10.9C297.4,69.2,292.9,71.3,287.3,71.3z"/>
<path class="st0" d="M300.4,41.3c-0.2,0.7-1,1.1-1.7,0.9c-0.7-0.2-1.1-1-0.9-1.7c0.2-0.6,0.7-0.9,1.3-0.9c0.3,0,0.6,0.1,0.8,0.3
	c0.4-0.2,0.9-0.3,1.5-0.5c-0.9-1.3-2.6-1.6-3.8-0.7c-1.3,0.9-1.6,2.6-0.7,3.8s2.6,1.6,3.8,0.7c0.8-0.5,1.2-1.4,1.2-2.3
	c0,0,0-0.1,0-0.2C301.4,40.9,300.9,41.1,300.4,41.3z"/>
</svg>
