<svg width="72" height="48" viewBox="0 0 72 48" fill="none" xmlns="http://www.w3.org/2000/svg">
<path fill-rule="evenodd" clip-rule="evenodd" d="M31.2689 25.5672H29.051V24.6947C29.051 23.56 29.6977 23.2353 30.2556 23.2353C30.8712 23.2353 31.3507 23.5092 31.3507 23.5092L32.1058 21.7793C32.1058 21.7793 31.3403 21.2778 29.949 21.2778C28.3847 21.2778 26.6049 22.1618 26.6049 24.9362V25.5672H22.8919V24.6947C22.8919 23.56 23.5386 23.2353 24.0954 23.2353C24.4124 23.2353 24.8389 23.3092 25.1916 23.5092L25.9467 21.7793C25.4959 21.5135 24.772 21.2778 23.7899 21.2778C22.2256 21.2778 20.4458 22.1618 20.4458 24.9362V25.5672H19.0256V27.46H20.4458V34.1471H22.8919V27.46H26.6049V34.1471H29.051V27.46H31.2689V25.5672ZM13.4098 32.6076C12.7666 32.6076 12.4461 32.291 12.4461 31.7675C12.4461 30.7992 13.5274 30.4676 15.5009 30.2584C15.5009 31.5538 14.6271 32.6076 13.4098 32.6076ZM14.2605 25.315C12.8507 25.315 11.2277 25.9817 10.347 26.6855L11.1516 28.383C11.8582 27.7347 13.0006 27.1812 14.0311 27.1812C15.0098 27.1812 15.5504 27.5094 15.5504 28.1692C15.5504 28.6152 15.1919 28.8394 14.5141 28.9272C11.985 29.2577 10 29.9568 10 31.912C10 33.4616 11.1009 34.3999 12.8208 34.3999C14.0473 34.3999 15.1401 33.7158 15.66 32.8133V34.1468H17.947V28.5598C17.947 26.2521 16.347 25.315 14.2605 25.315ZM37.2278 25.5671V34.147H39.6762V30.0137C39.6762 28.0481 40.8624 27.4715 41.69 27.4715C42.0128 27.4715 42.4485 27.5651 42.7367 27.7812L43.1828 25.5128C42.8047 25.3511 42.4094 25.3152 42.0854 25.3152C40.8266 25.3152 40.0359 25.8745 39.5137 27.0093V25.5671H37.2278ZM51.7665 26.8223C52.2702 26.0828 53.2374 25.3155 54.5319 25.3155C56.0962 25.3155 57.3907 26.2884 57.3907 28.217V34.1473H54.9446V28.9924C54.9446 27.8565 54.2621 27.3851 53.6155 27.3851C52.8062 27.3851 51.997 28.1269 51.997 29.7308V34.1473H49.5509V29.0098C49.5509 27.8392 48.9077 27.3851 48.208 27.3851C47.4345 27.3851 46.6068 28.1442 46.6068 29.7308V34.1473H44.1572V25.5674H46.5169V26.8651C46.9307 26.0365 47.8264 25.3155 49.1209 25.3155C50.3071 25.3155 51.2985 25.8667 51.7665 26.8223ZM35.1733 34.1475H32.7295V25.5676H35.1733V34.1475Z" fill="#060809"/>
<path fill-rule="evenodd" clip-rule="evenodd" d="M46.9867 13.6C40.3792 13.6 34.4898 18.1979 32.8184 24.1097H35.2138C36.6097 19.707 41.3486 15.8429 46.9867 15.8429C53.8397 15.8429 59.7625 21.0729 59.7625 29.2149C59.7625 31.0429 59.5262 32.6907 59.0789 34.1467H61.4029L61.4259 34.067C61.8063 32.5648 62 30.9331 62 29.2149C62 20.1346 55.3994 13.6 46.9867 13.6Z" fill="#0FA0EA"/>
</svg>
