<svg width="72" height="48" viewBox="0 0 72 48" fill="none" xmlns="http://www.w3.org/2000/svg">
<path d="M64.9863 20.7984L65 20.7835H62.8329L61.4644 25.4869H61.3918L59.8206 20.7835H57.2454L60.3439 28.5455L59.0494 30.9115V30.9685H61.0713L64.9863 20.7984Z" fill="black"/>
<path d="M40.962 20.7835H38.6635V28.517H40.962V20.7835Z" fill="black"/>
<path d="M56.793 26.5829V23.3518C56.793 21.5916 55.7451 20.6245 53.8972 20.6245C52.7178 20.6245 51.9041 20.8269 50.4192 21.2738L50.8261 23.0489C52.1795 22.4431 52.7753 22.1837 53.4013 22.1837C54.1575 22.1837 54.4931 22.7175 54.4931 23.5406V23.5976C51.8589 24.0879 51.0439 24.3623 50.5357 24.8675C50.1576 25.2424 49.9973 25.7761 49.9973 26.3968C49.9973 27.8827 51.1617 28.6758 52.2521 28.6758C53.0671 28.6758 53.7219 28.373 54.6095 27.7088L54.7698 28.5169H57.0684L56.793 26.5829ZM54.4945 26.6413C53.8835 26.9727 53.5342 27.1031 53.1274 27.1031C52.574 27.1031 52.2247 26.7418 52.2247 26.1659C52.2247 25.95 52.2685 25.7327 52.4425 25.5602C52.7192 25.2858 53.2575 25.0834 54.4945 24.7955V26.6413Z" fill="black"/>
<path d="M46.6815 20.6245C45.8377 20.6245 45.1829 20.9424 44.4404 21.5481V20.7835H42.1418V30.9684H44.4404V28.4436C44.8774 28.559 45.2842 28.6174 45.7787 28.6174C47.8308 28.6174 49.6787 27.1166 49.6787 24.4478C49.6787 22.0533 48.3403 20.6245 46.6815 20.6245ZM45.2253 27.1886C44.9637 27.1886 44.7158 27.1601 44.4391 27.0732V22.89C44.9199 22.5586 45.3116 22.3997 45.8061 22.3997C46.665 22.3997 47.3486 23.0774 47.3486 24.5212C47.3499 26.3669 46.3459 27.1886 45.2253 27.1886Z" fill="black"/>
<path d="M19.1792 16.8H9.32323C8.0397 16.8 7 17.8404 7 19.1225V28.9774C7 30.2596 8.0397 31.2999 9.32323 31.2999H19.1792C20.4627 31.2999 21.501 30.2596 21.501 28.9774V19.1225C21.5024 17.839 20.4627 16.8 19.1792 16.8Z" fill="#1677FF"/>
<path d="M18.9396 25.9053C18.3602 25.7111 17.5807 25.4137 16.7136 25.0999C17.2342 24.194 17.6506 23.1632 17.9246 22.0427H15.0657V21.0132H18.567V20.4387H15.0657V18.7219H13.637C13.3863 18.7219 13.3863 18.9691 13.3863 18.9691V20.4373H9.84531V21.0118H13.3863V22.0413H10.4617V22.6158H16.1328C15.926 23.3302 15.6465 24.0025 15.3164 24.6124C13.4767 24.0052 11.5124 23.5136 10.2795 23.8165C9.49052 24.0107 8.98232 24.357 8.68369 24.721C7.31386 26.3875 8.29603 28.9191 11.1891 28.9191C12.9 28.9191 14.5479 27.9657 15.8246 26.3943C17.7301 27.3097 21.5012 28.8825 21.5012 28.8825V26.6415C21.5026 26.6415 21.0286 26.6034 18.9396 25.9053ZM10.9193 27.9508C8.66314 27.9508 7.99604 26.1743 9.11108 25.2018C9.48367 24.8731 10.1631 24.7129 10.5247 24.6775C11.8644 24.5458 13.1055 25.0565 14.5699 25.7709C13.5411 27.1128 12.2302 27.9508 10.9193 27.9508Z" fill="white"/>
<path d="M30.7626 18.3456H27.6777L24.2299 28.517H26.3545L26.9366 26.5259H30.5886L31.142 28.517H33.8625L30.7626 18.3456ZM27.4161 24.8662L28.7832 20.1778H28.8407L30.1352 24.8662H27.4161Z" fill="black"/>
<path d="M37.0914 17.9843H34.7928V28.5157H37.0914V17.9843Z" fill="black"/>
<path d="M38.4886 18.9229C38.4886 19.6726 39.0421 20.1778 39.8133 20.1778C40.5845 20.1778 41.1379 19.6726 41.1379 18.9229C41.1379 18.1867 40.5845 17.6679 39.8133 17.6679C39.0421 17.6679 38.4886 18.1867 38.4886 18.9229Z" fill="#1677FF"/>
</svg>
