<svg width="72" height="48" viewBox="0 0 72 48" fill="none" xmlns="http://www.w3.org/2000/svg">
<path fill-rule="evenodd" clip-rule="evenodd" d="M43.2082 32.6588C43.6023 31.6602 44.4794 29.4223 44.0623 28.8801H44.0654C43.6501 28.3366 41.3194 28.6218 40.2711 28.7501L40.2689 28.7503C39.9499 28.7894 39.9009 28.5066 40.1876 28.3018C42.0491 26.9688 45.0988 27.3501 45.453 27.8002C45.8072 28.2503 45.3564 31.3664 43.613 32.8541C43.3447 33.0823 43.0886 32.9604 43.2082 32.6588ZM30.6825 34.1997C34.7366 34.1997 39.4577 32.8948 42.7099 30.4491V30.4538C43.2481 30.0412 42.7866 29.4349 42.2376 29.6724C38.6877 31.1985 34.8771 31.9951 31.0244 32.0165C25.6792 32.0165 20.5089 30.5225 16.326 28.0424C15.9595 27.8252 15.6866 28.2081 15.9932 28.4878C20.0202 32.1909 25.2588 34.2279 30.6825 34.1997Z" fill="#FF9900"/>
<path fill-rule="evenodd" clip-rule="evenodd" d="M57.192 26.8767H58.9186H58.9201C59.1007 26.8802 59.2508 26.7356 59.2574 26.5516V21.6742C59.2574 21.0616 59.2896 20.5084 59.5319 19.9552C59.6982 19.5343 60.09 19.251 60.5347 19.2301C61.6391 19.2301 61.6285 20.4635 61.6201 21.4325C61.6194 21.5142 61.6187 21.594 61.6187 21.6711V26.5922C61.6401 26.7501 61.7692 26.8698 61.9254 26.8767H63.6673C63.8324 26.8802 63.9747 26.7586 64 26.5922V20.8897C64 20.013 64 18.7925 63.5477 18.0674C63.0585 17.286 62.3011 17 61.5252 17C60.3292 17 59.65 17.5907 59.1654 18.83H59.1317V17.4438C59.0967 17.2989 58.9714 17.1954 58.825 17.1907H57.2181C57.0483 17.1864 56.9037 17.3155 56.8854 17.4876V26.5516C56.8876 26.7254 57.0217 26.8676 57.192 26.8767ZM55.5668 22.1227C55.5668 19.2629 54.176 17.0125 51.6047 17.0125C49.0992 17.0125 47.7085 19.2254 47.7085 22.0274C47.7085 24.8294 49.0823 27.0798 51.6047 27.0798C54.0335 27.0798 55.5668 24.8873 55.5668 22.1227ZM50.2629 21.7414C50.2629 20.635 50.3442 18.8628 51.6215 18.8628C52.1704 18.8628 52.5583 19.1144 52.7531 19.7395C52.98 20.4631 53.0122 21.3788 53.0122 22.1415C53.0122 23.3042 52.9616 25.2107 51.6046 25.2107C50.2624 25.2107 50.2628 22.8991 50.2629 21.7781L50.2629 21.7414ZM17.8639 26.8955H19.595H19.5966C19.6834 26.8975 19.7676 26.8642 19.8303 26.8029C19.893 26.7416 19.9292 26.6573 19.9308 26.5688V21.7664L19.9308 21.6912C19.9301 20.6471 19.9291 19.266 21.1268 19.266C22.234 19.266 22.2169 20.4794 22.2031 21.4593V21.4594V21.4594V21.4594V21.4595C22.2016 21.5651 22.2001 21.668 22.2001 21.7664V26.5703C22.2031 26.7438 22.3368 26.8856 22.5068 26.8955H24.2425C24.3291 26.8971 24.4129 26.8636 24.4753 26.8023C24.5377 26.7411 24.5736 26.6571 24.5753 26.5688V21.7664L24.5751 21.6522C24.5741 21.1434 24.5726 20.4568 24.7378 20.0302C24.9062 19.5941 25.3132 19.3022 25.7728 19.2879C26.2742 19.2879 26.6621 19.4598 26.7909 20.0693C26.8567 20.3626 26.8481 21.0426 26.8425 21.4935C26.8412 21.6 26.84 21.6936 26.84 21.7664V26.5703C26.8422 26.7441 26.9763 26.8863 27.1466 26.8955H28.8778C28.9647 26.8975 29.0488 26.8642 29.1115 26.8029C29.1742 26.7416 29.2104 26.6573 29.212 26.5688V20.8506C29.212 20.7113 29.2144 20.5689 29.2168 20.4249L29.2168 20.4247C29.231 19.5709 29.246 18.6621 28.775 18.0096C28.2041 17.2694 27.2859 16.9005 26.3729 17.0446C25.46 17.1887 24.6943 17.8234 24.3698 18.705C23.8837 17.5595 23.1891 17.0266 22.1219 17.0266C21.0547 17.0266 20.262 17.5595 19.8419 18.705H19.8097V17.522C19.8006 17.3534 19.6685 17.2187 19.503 17.2094H17.8884C17.7101 17.2076 17.5631 17.3513 17.5572 17.5329V26.5969C17.5729 26.76 17.7033 26.8869 17.8639 26.8955ZM14.8509 26.9642C14.7369 27.065 14.573 27.0819 14.4415 27.0064C13.9509 26.5904 13.803 26.3655 13.5758 26.0202L13.5758 26.0201C13.5367 25.9607 13.4953 25.8977 13.4494 25.8297C12.4972 26.8173 11.8241 27.1127 10.5929 27.1127C9.13466 27.1127 8 26.1953 8 24.3607C8 22.9276 8.76666 21.954 9.83999 21.4758C10.6326 21.1213 11.69 21.0113 12.6043 20.9162C12.7743 20.8985 12.9393 20.8813 13.0968 20.8632V20.635C13.0968 20.5915 13.0971 20.5471 13.0975 20.5021C13.1005 20.1131 13.1039 19.68 12.8867 19.3536C12.6751 19.0285 12.2734 18.8957 11.9146 18.8957C11.2537 18.8957 10.6649 19.2411 10.5208 19.9552C10.5025 20.1218 10.3767 20.2552 10.2141 20.2803L8.54893 20.0943C8.46584 20.0822 8.39125 20.0359 8.34258 19.9662C8.2939 19.8965 8.27537 19.8095 8.29133 19.7255C8.6762 17.6502 10.5162 17.0235 12.1645 17.0235C13.0078 17.0235 14.1088 17.2517 14.7712 17.9018C15.5488 18.6438 15.5439 19.6151 15.5387 20.6767C15.5383 20.7643 15.5378 20.8526 15.5378 20.9413V23.6902C15.5378 24.4306 15.8073 24.7988 16.0912 25.1867C16.1249 25.2328 16.1589 25.2792 16.1926 25.3264C16.303 25.4827 16.3275 25.6781 16.1926 25.7953C15.8384 26.0969 15.2097 26.6532 14.8647 26.9673L14.8509 26.9642ZM13.1044 22.6603L13.1045 22.7459C13.1051 23.3959 13.1056 23.9471 12.7809 24.5356C12.5049 25.0326 12.0679 25.3389 11.5803 25.3389C10.9164 25.3389 10.5284 24.8232 10.5284 24.0574C10.5284 22.554 11.8517 22.2806 13.1044 22.2806V22.6603ZM38.7935 25.1802C38.8273 25.2264 38.8612 25.2728 38.895 25.3202C39.0115 25.4827 39.036 25.6733 38.8873 25.7812C38.5331 26.0828 37.9045 26.6407 37.5595 26.9532C37.4447 27.0526 37.2814 27.0688 37.1501 26.9939C36.6573 26.5761 36.5114 26.3545 36.281 26.0046L36.2809 26.0046C36.2425 25.9462 36.2016 25.8842 36.1565 25.8171C35.2058 26.8048 34.5281 27.1001 33.3014 27.1001C31.8432 27.1001 30.7086 26.1828 30.7086 24.3497C30.7086 22.9151 31.4706 21.9415 32.5562 21.4633C33.3505 21.1075 34.4139 20.998 35.3308 20.9035L35.3309 20.9035L35.3309 20.9035L35.3309 20.9035L35.3309 20.9035C35.4973 20.8864 35.6588 20.8698 35.813 20.8522V20.6288C35.813 20.5854 35.8133 20.5413 35.8137 20.4965C35.8167 20.1073 35.8201 19.674 35.6014 19.3489C35.3959 19.0238 34.9865 18.8894 34.6293 18.8894C33.9684 18.8894 33.3827 19.2348 33.237 19.949C33.2182 20.1153 33.0927 20.2484 32.9303 20.274L31.2514 20.0896C31.1677 20.0779 31.0924 20.0315 31.0434 19.9614C30.9943 19.8913 30.9758 19.8037 30.9922 19.7192C31.3786 17.6423 33.2186 17.0172 34.8669 17.0172C35.7087 17.0172 36.8097 17.2454 37.4736 17.8955C38.2528 18.6337 38.2473 19.5975 38.2413 20.6536L38.2413 20.6545C38.2408 20.7473 38.2403 20.8409 38.2403 20.9351V23.6855C38.2403 24.4243 38.5097 24.7924 38.7935 25.1802ZM34.2919 25.3295C34.778 25.3295 35.2165 25.0232 35.491 24.5278C35.8168 23.9361 35.8165 23.3822 35.8161 22.7241L35.816 22.654V22.2727C34.5633 22.2727 33.2401 22.5446 33.2401 24.0496C33.2401 24.8138 33.628 25.3295 34.2919 25.3295ZM40.3608 17.5016V18.7925C40.3599 18.881 40.3946 18.9661 40.4569 19.0278C40.5192 19.0895 40.6036 19.1225 40.6905 19.1191H43.6712L40.2535 24.1199C40.0975 24.3882 40.0238 24.6978 40.0419 25.0091V26.3296C40.0419 26.5203 40.2489 26.7375 40.4467 26.6297C42.3317 25.6335 44.5734 25.6295 46.4619 26.6188C46.6781 26.7328 46.882 26.5125 46.882 26.3218V24.9341C46.8762 24.7219 46.7591 24.5292 46.5754 24.4293C45.5802 23.8589 44.4226 23.6917 43.3278 23.7183L46.2779 19.4269C46.5524 19.0425 46.7057 18.7987 46.7057 18.6127V17.5016C46.7066 17.4134 46.672 17.3286 46.6101 17.2669C46.5481 17.2052 46.4641 17.172 46.3776 17.175H40.6843C40.5977 17.1701 40.513 17.2028 40.4513 17.265C40.3897 17.3273 40.3568 17.4133 40.3608 17.5016Z" fill="black"/>
</svg>
