<svg width="72" height="48" viewBox="0 0 72 48" fill="none" xmlns="http://www.w3.org/2000/svg">
<path fill-rule="evenodd" clip-rule="evenodd" d="M17.6746 17.8592C18.6122 17.9383 19.5498 17.3842 20.1358 16.6816C20.7121 15.9593 21.093 14.9895 20.9953 14C20.1651 14.0396 19.1396 14.5541 18.5536 15.2765C18.0165 15.8999 17.5574 16.9092 17.6746 17.8592ZM28.8284 30.6043V15.1775H34.5419C37.4915 15.1775 39.5522 17.2357 39.5522 20.2439C39.5522 23.2521 37.4524 25.3301 34.4638 25.3301H31.1919V30.6043H28.8284ZM20.9856 18.0472C20.1596 17.999 19.4059 18.2989 18.7971 18.5411C18.4054 18.6969 18.0736 18.8289 17.8212 18.8289C17.538 18.8289 17.1925 18.6899 16.8047 18.5338L16.8047 18.5338C16.2964 18.3292 15.7154 18.0953 15.1061 18.1066C13.7094 18.1263 12.4104 18.9279 11.6975 20.2044C10.2325 22.7574 11.3166 26.5374 12.7327 28.6154C13.4262 29.6445 14.2564 30.7726 15.3502 30.733C15.8315 30.7146 16.1776 30.5658 16.5359 30.4117C16.9484 30.2344 17.3768 30.0502 18.0458 30.0502C18.6917 30.0502 19.1014 30.2296 19.4947 30.4018C19.8687 30.5656 20.2278 30.7229 20.761 30.7132C21.8939 30.6934 22.6069 29.6841 23.3003 28.655C24.0487 27.5505 24.3775 26.4725 24.4274 26.3089L24.4274 26.3089L24.4333 26.29C24.4321 26.2888 24.4228 26.2845 24.4065 26.2769C24.1564 26.1609 22.2443 25.274 22.226 22.8959C22.2076 20.8998 23.7426 19.8884 23.9842 19.7292C23.9989 19.7195 24.0088 19.713 24.0133 19.7096C23.0366 18.2451 21.513 18.0868 20.9856 18.0472ZM43.8693 30.7232C45.3539 30.7232 46.731 29.9613 47.356 28.754H47.4049V30.6045H49.5926V22.9257C49.5926 20.6992 47.8346 19.2644 45.1292 19.2644C42.6192 19.2644 40.7635 20.719 40.6951 22.7179H42.8243C43.0001 21.7679 43.8693 21.1445 45.0609 21.1445C46.5063 21.1445 47.317 21.8273 47.317 23.084V23.935L44.3674 24.1131C41.623 24.2813 40.1384 25.4193 40.1384 27.3984C40.1384 29.3972 41.6718 30.7232 43.8693 30.7232ZM44.5037 28.8925C43.2437 28.8925 42.4429 28.279 42.4429 27.3389C42.4429 26.3692 43.2144 25.8051 44.6892 25.7161L47.3165 25.5478V26.4186C47.3165 27.8633 46.1054 28.8925 44.5037 28.8925ZM56.8493 31.208C55.902 33.9095 54.8179 34.8 52.5129 34.8C52.3371 34.8 51.7511 34.7802 51.6144 34.7407V32.8902C51.7609 32.91 52.1223 32.9298 52.3078 32.9298C53.3529 32.9298 53.9389 32.4845 54.3002 31.3268L54.5151 30.644L50.5107 19.4128H52.9817L55.7652 28.5264H55.8141L58.5976 19.4128H61.0002L56.8493 31.208ZM31.1919 17.1962H33.9168C35.9678 17.1962 37.1398 18.3045 37.1398 20.2538C37.1398 22.2032 35.9678 23.3214 33.907 23.3214H31.1919V17.1962Z" fill="black"/>
</svg>
