<svg width="72" height="48" viewBox="0 0 72 48" fill="none" xmlns="http://www.w3.org/2000/svg">
<path d="M38.2161 20.9253C38.2161 21.1752 38.1235 21.3899 37.9364 21.571C37.7493 21.752 37.527 21.8409 37.2688 21.8409C37.0107 21.8409 36.7865 21.7524 36.5975 21.571C36.4085 21.3899 36.3159 21.1752 36.3159 20.9253C36.3159 20.6755 36.4085 20.4589 36.5975 20.2756C36.7865 20.0922 37.0092 20 37.2688 20C37.5285 20 37.7493 20.0926 37.9364 20.2756C38.1235 20.4585 38.2161 20.6751 38.2161 20.9253Z" fill="#0073FF"/>
<path d="M50.8248 26.096C50.8248 26.3953 50.7186 26.6513 50.5039 26.8637C50.2892 27.0784 50.0314 27.1865 49.7301 27.1865C49.4289 27.1865 49.1767 27.078 48.9643 26.8637C48.7519 26.6513 48.6453 26.395 48.6453 26.096C48.6453 25.797 48.7515 25.5388 48.9643 25.3264C49.1771 25.1139 49.433 25.0073 49.7301 25.0073C50.0272 25.0073 50.2892 25.1136 50.5039 25.3264C50.7186 25.5388 50.8248 25.7951 50.8248 26.096Z" fill="#FFC200"/>
<path fill-rule="evenodd" clip-rule="evenodd" d="M23.4095 23.7414C23.5592 23.5978 23.7481 23.5248 23.9783 23.5248L23.978 23.5252C24.2104 23.5252 24.3972 23.5981 24.545 23.7418C24.6905 23.8877 24.7635 24.0805 24.7635 24.3247V26.8172C24.7635 26.8845 24.7854 26.9393 24.8266 26.9827C24.8697 27.0243 24.923 27.0459 24.9918 27.0459H26.2301C26.2974 27.0459 26.3522 27.0239 26.3956 26.9827C26.4372 26.9393 26.4588 26.8841 26.4588 26.8172V24.1829C26.4588 23.4897 26.3011 22.9624 25.9863 22.598C25.6733 22.2355 25.2106 22.0525 24.5983 22.0525C24.2891 22.0525 24.0154 22.1134 23.7773 22.2355C23.5372 22.3572 23.3403 22.5345 23.1868 22.7688V20.4082C23.1868 20.3409 23.1653 20.2858 23.1218 20.2427C23.0806 20.2011 23.0254 20.1795 22.9585 20.1795H21.7183C21.6514 20.1795 21.5962 20.2015 21.555 20.2427C21.5115 20.2861 21.49 20.3413 21.49 20.4082V26.8168C21.49 26.8841 21.5115 26.9389 21.555 26.9824C21.5962 27.0239 21.6514 27.0455 21.7183 27.0455H22.9585C23.0254 27.0455 23.0806 27.0236 23.1218 26.9824C23.1653 26.9389 23.1868 26.8837 23.1868 26.8168V24.3243C23.1868 24.0801 23.2598 23.8869 23.4095 23.7414ZM19.4835 27.1412C18.9521 27.1412 18.5287 27.0013 18.2097 26.7238C17.8925 26.4441 17.7334 26.0605 17.7334 25.5683V23.5936H17.2333C17.1725 23.5936 17.1192 23.5721 17.0757 23.5248C17.0322 23.4795 17.0088 23.4243 17.0088 23.3574V23.007C17.0088 22.9027 17.0186 22.8199 17.0383 22.7549C17.0579 22.6917 17.0954 22.6309 17.1464 22.5719L18.3533 21.233C18.4577 21.1208 18.5423 21.0459 18.6111 21.0146C18.6799 20.9809 18.7687 20.9635 18.8769 20.9635H19.2016C19.2647 20.9635 19.3195 20.9851 19.363 21.0304C19.4083 21.0739 19.4299 21.1268 19.4299 21.1918V22.1901H20.497C20.5601 22.1901 20.6149 22.2117 20.6602 22.257C20.7056 22.3005 20.729 22.3534 20.729 22.4184V23.3574C20.729 23.4243 20.7056 23.4795 20.6602 23.5248C20.6149 23.5721 20.5597 23.5936 20.497 23.5936H19.4299V25.2119C19.4299 25.3298 19.4612 25.4243 19.5244 25.4916C19.5894 25.5604 19.6759 25.5959 19.7841 25.5959C19.8491 25.5959 19.916 25.5823 19.9889 25.5566C20.0638 25.5309 20.1466 25.4897 20.2411 25.4345C20.3356 25.3812 20.4142 25.3615 20.4792 25.3774C20.5461 25.391 20.6073 25.4405 20.6644 25.5229L21.0934 26.1648C21.1407 26.2377 21.1641 26.3103 21.1603 26.3833C21.1585 26.4562 21.129 26.5212 21.0757 26.5742C20.9025 26.7514 20.672 26.889 20.3885 26.9896C20.105 27.0901 19.8037 27.1412 19.4828 27.1412H19.4835ZM7.98827 25.3313C7.79927 25.1362 7.70477 24.9019 7.70477 24.6244C7.70477 24.3489 7.79927 24.1126 7.98827 23.9176C8.17916 23.7225 8.40936 23.6261 8.68303 23.6261C8.9567 23.6261 9.18917 23.7225 9.38006 23.9176C9.56906 24.1126 9.66356 24.3466 9.66356 24.6244C9.66356 24.9022 9.56906 25.1362 9.38006 25.3313C9.18917 25.5263 8.95443 25.6227 8.68303 25.6227C8.41163 25.6227 8.17916 25.5263 7.98827 25.3313ZM9.64201 26.7348V26.8176L9.64277 26.8179C9.64277 26.8807 9.6662 26.9359 9.71345 26.9812C9.7607 27.0266 9.81551 27.05 9.87864 27.05H11.1151C11.1759 27.05 11.227 27.0266 11.2704 26.9812C11.3158 26.9359 11.3373 26.8811 11.3373 26.8179V22.4237C11.3373 22.3568 11.3154 22.3016 11.2742 22.2585C11.2311 22.217 11.1759 22.1954 11.109 22.1954H9.86881C9.80379 22.1954 9.74898 22.2173 9.70551 22.2585C9.66393 22.3016 9.64239 22.3568 9.64239 22.4237V22.5103C9.48287 22.3606 9.30559 22.2483 9.10677 22.1716C8.90794 22.0967 8.68946 22.0593 8.45699 22.0593C7.76412 22.0593 7.18124 22.3054 6.70875 22.8013C6.23625 23.2976 6 23.9036 6 24.6244C6 25.3453 6.23625 25.9535 6.70837 26.4471C7.18087 26.9434 7.76374 27.1914 8.45661 27.1914C8.68908 27.1914 8.90756 27.1521 9.10639 27.0773C9.30521 27.0005 9.4825 26.8864 9.64201 26.7348ZM14.8273 25.4855C14.7131 25.6133 14.546 25.6764 14.3234 25.6764L14.3245 25.6768C14.1 25.6768 13.9269 25.6117 13.8048 25.4817C13.6846 25.3498 13.6237 25.1646 13.6237 24.9245V22.3946C13.6237 22.3394 13.598 22.2922 13.5489 22.251C13.4975 22.2094 13.4423 22.1897 13.3814 22.1897H12.1548C12.094 22.1897 12.0407 22.2098 11.9934 22.251C11.9458 22.2922 11.9224 22.3394 11.9224 22.3946V25.1532C11.9224 25.7399 12.1427 26.226 12.5839 26.6119C13.025 26.9979 13.6135 27.1906 14.334 27.1906C15.0545 27.1906 15.6294 26.9998 16.0565 26.6157C16.4856 26.2336 16.7003 25.7456 16.7003 25.1529V22.3946C16.7003 22.3394 16.6746 22.2922 16.6273 22.251C16.5778 22.2094 16.5226 22.1897 16.4617 22.1897H15.237C15.1758 22.1897 15.1206 22.2098 15.0715 22.251C15.0219 22.2922 14.9985 22.3394 14.9985 22.3946V24.9245C14.9985 25.1706 14.9414 25.3574 14.8273 25.4855ZM28.5793 24.6195C28.5793 24.897 28.6738 25.1313 28.8628 25.3264C29.0537 25.5214 29.2861 25.6178 29.5579 25.6178C29.8297 25.6178 30.0641 25.5214 30.2549 25.3264C30.4439 25.1313 30.5384 24.8973 30.5384 24.6195C30.5384 24.3417 30.4439 24.1077 30.2549 23.9127C30.0641 23.7176 29.8316 23.6212 29.5579 23.6212C29.2842 23.6212 29.054 23.7176 28.8628 23.9127C28.6738 24.1077 28.5793 24.3439 28.5793 24.6195ZM26.8745 24.6195C26.8745 23.9089 27.1365 23.3026 27.6581 22.8025C28.1816 22.3043 28.8136 22.0544 29.5579 22.0544C30.3022 22.0544 30.938 22.3043 31.4596 22.8025C31.9832 23.3026 32.2432 23.9089 32.2432 24.6195C32.2432 25.3301 31.9835 25.9365 31.4596 26.4365C30.938 26.9366 30.3041 27.1865 29.5579 27.1865C28.8118 27.1865 28.1816 26.9363 27.6581 26.4365C27.1365 25.9365 26.8745 25.3301 26.8745 24.6195ZM33.8259 22.1901H32.9422C32.8753 22.1901 32.8182 22.2117 32.7747 22.2551C32.7313 22.3005 32.7097 22.3534 32.7097 22.4184V26.8202C32.7097 26.8852 32.7294 26.9385 32.7728 26.9797C32.8159 27.0232 32.8692 27.0447 32.9361 27.0447H34.1726C34.2334 27.0447 34.2867 27.0247 34.334 26.9835C34.3816 26.9423 34.405 26.8932 34.405 26.8399V24.497C34.405 24.3375 34.4523 24.2135 34.5468 24.1228C34.6394 24.0306 34.7656 23.9852 34.921 23.9852C34.9626 23.9852 35.0057 23.989 35.0491 23.9969C35.0945 24.0049 35.1614 24.0227 35.248 24.0502L35.304 24.0643C35.3555 24.0772 35.3959 24.0874 35.4253 24.0933L35.4328 24.0944C35.4696 24.0998 35.5062 24.1051 35.5394 24.1051C35.6494 24.1051 35.736 24.0718 35.7991 24.0087C35.8641 23.944 35.9053 23.8495 35.9231 23.7214L36.0588 22.6131C36.0803 22.4517 36.041 22.3296 35.9386 22.243C35.8361 22.1565 35.6865 22.113 35.4895 22.113C35.3066 22.113 35.1213 22.1682 34.9305 22.2805C34.7415 22.3927 34.5562 22.5564 34.3771 22.7688L34.2414 22.4638C34.1979 22.3731 34.1427 22.3043 34.0739 22.2589C34.0051 22.2117 33.9223 22.1901 33.8259 22.1901ZM42.8506 23.5169L40.927 25.594H42.8427C42.9058 25.594 42.9587 25.6178 43.0022 25.659C43.0434 25.7025 43.0653 25.7554 43.0653 25.8185V26.8206C43.0653 26.8856 43.0438 26.9385 43.0022 26.9801C42.9587 27.0236 42.9058 27.0451 42.8427 27.0451H38.862C38.7989 27.0451 38.7437 27.0213 38.6964 26.9763C38.6492 26.931 38.6257 26.8758 38.6257 26.813V25.9882C38.6257 25.9293 38.6337 25.882 38.6492 25.8427C38.6628 25.8034 38.6904 25.7618 38.7301 25.7248L40.6949 23.6397H38.9368C38.8718 23.6397 38.8166 23.6182 38.7716 23.5728C38.7263 23.5256 38.7028 23.4704 38.7028 23.4073V22.4268C38.7028 22.3636 38.7263 22.3088 38.7735 22.2612C38.8208 22.2139 38.876 22.1901 38.9368 22.1901H42.7247C42.7879 22.1901 42.8427 22.2136 42.888 22.2612C42.9334 22.3084 42.9568 22.3636 42.9568 22.4268V23.2478C42.9568 23.3048 42.9489 23.354 42.9334 23.3933C42.9175 23.4326 42.8899 23.4742 42.8506 23.5173V23.5169ZM46.6442 23.9913H45.0339H45.0335C45.0808 23.8023 45.1794 23.6484 45.3329 23.5305C45.4864 23.4103 45.6557 23.3513 45.8545 23.3513C46.0534 23.3513 46.2246 23.4103 46.3724 23.5305C46.5202 23.6488 46.6105 23.8023 46.6442 23.9913ZM47.2131 26.9306C47.599 26.7612 47.89 26.5348 48.0851 26.2513L48.0847 26.2509C48.1221 26.1957 48.1399 26.1387 48.132 26.0778C48.1244 26.017 48.0908 25.9697 48.0337 25.9323L47.2127 25.3948C47.1458 25.3513 47.083 25.3335 47.0199 25.3396C46.9568 25.3456 46.8978 25.377 46.8388 25.4341C46.7088 25.5656 46.5731 25.6601 46.4314 25.7214C46.2896 25.7826 46.1361 25.814 45.9687 25.814C45.7203 25.814 45.506 25.7471 45.3306 25.617C45.1533 25.4874 45.0433 25.3082 44.998 25.0837H48.0239C48.1104 25.0837 48.1754 25.0523 48.2208 24.9892C48.2662 24.9242 48.2896 24.8395 48.2896 24.7333V24.4558C48.2896 23.7803 48.0613 23.2115 47.6047 22.7488C47.1499 22.2842 46.5829 22.0518 45.8269 22.0518C45.0709 22.0518 44.4586 22.2941 43.9921 22.7783C43.5276 23.2606 43.2932 23.91 43.2932 24.6426C43.2932 25.3751 43.5412 25.9814 44.0394 26.4638C44.5357 26.9442 45.1715 27.1865 45.9471 27.1865C46.406 27.1865 46.8271 27.0999 47.2131 26.9306ZM53.8262 23.5248C53.5937 23.5248 53.4047 23.5978 53.2554 23.7414C53.1076 23.8869 53.0328 24.0801 53.0328 24.3243V26.8168C53.0328 26.8837 53.0112 26.9389 52.9678 26.9824C52.9266 27.0236 52.8714 27.0455 52.8045 27.0455H51.5643C51.4973 27.0455 51.444 27.024 51.401 26.9824C51.3575 26.9389 51.3359 26.8841 51.3359 26.8168V22.4184C51.3359 22.3515 51.3575 22.2963 51.401 22.2529C51.4444 22.2117 51.4973 22.1897 51.5643 22.1897H52.8045C52.8714 22.1897 52.9266 22.2113 52.9678 22.2529C53.0112 22.2963 53.0328 22.3511 53.0328 22.4184V22.7688C53.1881 22.5345 53.3832 22.3572 53.6232 22.2355C53.8613 22.1134 54.135 22.0525 54.4442 22.0525C55.0566 22.0525 55.5192 22.2355 55.8341 22.598C56.1471 22.9624 56.3047 23.4897 56.3047 24.1829V26.8172C56.3047 26.8841 56.2832 26.9393 56.2416 26.9827C56.1981 27.024 56.1433 27.0459 56.0764 27.0459H54.8381C54.7712 27.0459 54.716 27.0243 54.6725 26.9827C54.6313 26.9393 54.6094 26.8845 54.6094 26.8172V24.3247C54.6094 24.0805 54.5364 23.8877 54.3909 23.7418C54.2454 23.5982 54.0564 23.5252 53.8258 23.5252L53.8262 23.5248ZM60.0764 23.9913H58.468H58.4676C58.513 23.8023 58.6135 23.6484 58.767 23.5305C58.9204 23.4103 59.0917 23.3513 59.2886 23.3513C59.4855 23.3513 59.6587 23.4103 59.8065 23.5305C59.9524 23.6488 60.0427 23.8023 60.0764 23.9913ZM60.6471 26.9306C61.0331 26.7612 61.3222 26.5348 61.5173 26.2513V26.2509C61.5566 26.1957 61.5725 26.1387 61.5645 26.0778C61.5589 26.017 61.5252 25.9697 61.4663 25.9323L60.6471 25.3948C60.5802 25.3513 60.5152 25.3335 60.4521 25.3396C60.3912 25.3456 60.33 25.377 60.2729 25.4341C60.141 25.5656 60.0072 25.6601 59.8654 25.7214C59.7237 25.7826 59.5702 25.814 59.4028 25.814C59.1525 25.814 58.9401 25.7471 58.7647 25.617C58.5874 25.4874 58.4774 25.3082 58.4321 25.0837H61.4579C61.5426 25.0837 61.6076 25.0523 61.653 24.9892C61.7002 24.9242 61.7218 24.8395 61.7218 24.7333V24.4558C61.7218 23.7803 61.4935 23.2115 61.0387 22.7488C60.5821 22.2842 60.0189 22.0518 59.261 22.0518C58.5031 22.0518 57.8927 22.2941 57.4262 22.7783C56.9598 23.2606 56.7273 23.91 56.7273 24.6426C56.7273 25.3751 56.9756 25.9814 57.4716 26.4638C57.9679 26.9442 58.6037 27.1865 59.3793 27.1865C59.8378 27.1865 60.2612 27.0999 60.6471 26.9306ZM64.3223 27.1494C63.7909 27.1494 63.3656 27.0096 63.0485 26.7321C62.7295 26.4524 62.5722 26.0687 62.5722 25.5766V23.6019H62.0702C62.0094 23.6019 61.9561 23.5804 61.9126 23.5331C61.8695 23.4878 61.8457 23.4326 61.8457 23.3657V23.0153C61.8457 22.9109 61.8555 22.8282 61.8771 22.7632C61.8967 22.7 61.9323 22.6392 61.9833 22.5802L63.1902 21.2417C63.2946 21.1294 63.3792 21.0546 63.448 21.0232C63.5168 20.9896 63.6057 20.9722 63.7157 20.9722H64.0385C64.1035 20.9722 64.1564 20.9937 64.1999 21.0391C64.2452 21.0822 64.2668 21.1355 64.2668 21.2005V22.1988H65.3339C65.397 22.1988 65.4518 22.2203 65.4972 22.2657C65.5425 22.3088 65.566 22.3621 65.566 22.4271V23.3661C65.566 23.433 65.5425 23.4882 65.4972 23.5335C65.4518 23.5808 65.3966 23.6023 65.3339 23.6023H64.2668V25.2205C64.2668 25.3385 64.2982 25.433 64.3613 25.5002C64.4263 25.569 64.5129 25.6046 64.6232 25.6046C64.6864 25.6046 64.7552 25.591 64.8281 25.5653C64.9011 25.5395 64.9835 25.4983 65.078 25.4432C65.1725 25.3899 65.2511 25.3702 65.318 25.3861C65.383 25.3997 65.4439 25.4492 65.5009 25.5316L65.93 26.1735C65.9791 26.2464 66.0007 26.319 65.9988 26.3919C65.9946 26.4649 65.9674 26.5299 65.9122 26.5828C65.7391 26.7601 65.5108 26.8977 65.225 26.9982C64.9415 27.0988 64.6402 27.1498 64.3212 27.1498L64.3223 27.1494ZM38.1196 26.8164V22.4184C38.1196 22.3534 38.0981 22.3005 38.0527 22.257C38.0093 22.2117 37.9541 22.1901 37.8872 22.1901H36.6568C36.5899 22.1901 36.5347 22.2117 36.4893 22.257C36.4459 22.3005 36.4243 22.3534 36.4243 22.4184V26.8164C36.4243 26.8815 36.4459 26.9344 36.4893 26.9778C36.5347 27.0232 36.5899 27.0448 36.6568 27.0448H37.8872C37.9545 27.0448 38.0093 27.0232 38.0527 26.9778C38.0981 26.9344 38.1196 26.8815 38.1196 26.8164Z" fill="#19303F"/>
</svg>
