<svg width="72" height="48" viewBox="0 0 72 48" fill="none" xmlns="http://www.w3.org/2000/svg">
<path fill-rule="evenodd" clip-rule="evenodd" d="M18.6364 35.5161C18.6364 35.2284 18.5678 34.9794 18.431 34.7691C18.2939 34.5589 18.1138 34.3984 17.8902 34.2878C18.1138 34.1771 18.287 34.0137 18.4101 33.7979C18.533 33.5821 18.5944 33.3388 18.5944 33.0677V32.9183C18.5944 32.5861 18.5302 32.3097 18.4017 32.0882C18.2731 31.8669 18.0927 31.6897 17.8608 31.557C17.6289 31.4241 17.3507 31.3288 17.0267 31.2706C16.7023 31.2125 16.342 31.1835 15.945 31.1835C15.811 31.1835 15.6712 31.1863 15.526 31.1918C15.3804 31.1973 15.2394 31.2042 15.1026 31.2125C14.9655 31.2208 14.8397 31.2306 14.7253 31.2416C14.6106 31.2528 14.5169 31.2638 14.4443 31.2747C14.2822 31.3026 14.1677 31.3523 14.1006 31.4241C14.0336 31.4962 14 31.6263 14 31.8143V36.8608C14 37.049 14.0348 37.179 14.1048 37.2508C14.1746 37.3229 14.2934 37.3725 14.4612 37.4003C14.5449 37.4168 14.6456 37.4306 14.7629 37.4418C14.8802 37.4528 15.0073 37.4625 15.1443 37.4707C15.2814 37.479 15.4224 37.4859 15.5678 37.4916C15.7131 37.4969 15.8555 37.4999 15.9953 37.4999C16.3587 37.4999 16.701 37.4721 17.0225 37.4168C17.3437 37.3616 17.6232 37.2632 17.8608 37.1221C18.0984 36.9811 18.287 36.7901 18.4268 36.5495C18.5664 36.3087 18.6364 36.0058 18.6364 35.6405V35.5161ZM17.2111 33.1336C17.2111 33.2222 17.1971 33.3066 17.1691 33.3868C17.1411 33.4669 17.0951 33.536 17.0309 33.5945C16.9665 33.6524 16.8799 33.6994 16.771 33.7353C16.662 33.7713 16.5236 33.7892 16.3559 33.7892H15.417V32.3534C15.4448 32.3534 15.4882 32.3522 15.5469 32.3492C15.6055 32.3465 15.667 32.3451 15.7312 32.3451H16.054C16.4844 32.3451 16.7849 32.399 16.9553 32.5069C17.1258 32.6148 17.2111 32.7822 17.2111 33.009V33.1336ZM16.9973 36.1465C17.1621 36.0193 17.2447 35.8394 17.2447 35.607V35.5157C17.2447 35.3165 17.1803 35.1436 17.0518 34.9969C16.9231 34.8504 16.6912 34.777 16.3559 34.777H15.417V36.329H15.5636C15.6278 36.329 15.6949 36.3307 15.7648 36.3333C15.8347 36.3361 15.9017 36.3376 15.9661 36.3376H16.1043C16.5347 36.3376 16.8324 36.2739 16.9973 36.1465ZM23.2309 34.2961C23.2309 33.9919 23.1848 33.733 23.0925 33.52C23.0004 33.3071 22.8704 33.1327 22.7027 32.9971C22.5351 32.8616 22.3296 32.7622 22.0864 32.6984C21.8434 32.6348 21.5709 32.6029 21.269 32.6029C20.9894 32.6029 20.717 32.6224 20.4516 32.6612C20.186 32.6998 19.9749 32.7386 19.8186 32.7772C19.7124 32.8051 19.6593 32.8657 19.6593 32.9597V33.632C19.6593 33.6875 19.6732 33.7263 19.7013 33.7482C19.7291 33.7704 19.7653 33.7816 19.8103 33.7816H19.852C19.9192 33.7759 20.003 33.769 20.1036 33.7608C20.2042 33.7525 20.3174 33.7458 20.4433 33.7399C20.569 33.7346 20.7002 33.7304 20.8373 33.7275C20.9741 33.7248 21.1097 33.7234 21.2439 33.7234C21.4395 33.7234 21.5932 33.7594 21.705 33.8313C21.8167 33.9033 21.8726 34.0583 21.8726 34.2961V34.595H21.42C20.6988 34.595 20.1748 34.707 19.8479 34.931C19.5209 35.1551 19.3574 35.5107 19.3574 35.9976V36.0725C19.3574 36.3435 19.398 36.5703 19.4789 36.7528C19.5599 36.9355 19.6677 37.0822 19.8017 37.193C19.9359 37.3035 20.0881 37.3824 20.2587 37.4293C20.4292 37.4763 20.6067 37.4999 20.7911 37.4999C21.0427 37.4999 21.2593 37.4667 21.4409 37.4003C21.6224 37.334 21.7943 37.2426 21.9565 37.1265V37.2592C21.9565 37.3035 21.9732 37.3422 22.0068 37.3753C22.0404 37.4086 22.0794 37.4251 22.1242 37.4251H23.0633C23.1078 37.4251 23.147 37.4086 23.1806 37.3753C23.2142 37.3422 23.2309 37.3035 23.2309 37.2592V34.2961ZM21.5751 36.4331C21.6895 36.3973 21.7972 36.3544 21.8979 36.3046V35.3916H21.42C21.2746 35.3916 21.1545 35.404 21.0594 35.4288C20.9643 35.4538 20.8888 35.4912 20.8331 35.541C20.7772 35.5907 20.738 35.6545 20.7157 35.7318C20.6933 35.8094 20.6821 35.8978 20.6821 35.9974V36.0724C20.6821 36.2492 20.7253 36.3626 20.812 36.4125C20.8987 36.4623 21.0314 36.4871 21.2103 36.4871C21.3388 36.4871 21.4603 36.4693 21.5751 36.4331ZM28.3622 37.2509V34.4869C28.3622 34.2272 28.3413 33.9821 28.2994 33.7525C28.2574 33.5231 28.182 33.3237 28.073 33.1548C27.964 32.9861 27.8131 32.8518 27.6202 32.7523C27.4275 32.6527 27.1801 32.6029 26.8782 32.6029C26.6099 32.6029 26.3723 32.635 26.1656 32.6991C25.9588 32.7632 25.7408 32.8761 25.5117 33.0378V32.8366C25.5117 32.7922 25.4948 32.753 25.4614 32.7196C25.4278 32.6862 25.3886 32.6693 25.3439 32.6693H24.405C24.36 32.6693 24.321 32.6858 24.2876 32.7191C24.254 32.7523 24.2373 32.7911 24.2373 32.8352V37.2509C24.2373 37.2952 24.2552 37.3353 24.2918 37.3712C24.328 37.4072 24.3686 37.4251 24.4133 37.4251H25.4278C25.4725 37.4251 25.5117 37.4072 25.5451 37.3714C25.5787 37.3355 25.5954 37.2955 25.5954 37.2512V33.9883C25.7408 33.9111 25.8777 33.8476 26.0063 33.798C26.1348 33.7482 26.2605 33.7234 26.3836 33.7234C26.5121 33.7234 26.6169 33.7358 26.698 33.7608C26.779 33.7856 26.8418 33.8283 26.8866 33.8893C26.9313 33.9498 26.9621 34.0298 26.9788 34.1291C26.9955 34.2285 27.0041 34.35 27.0041 34.4936V37.2512C27.0041 37.2955 27.0208 37.3355 27.0544 37.3714C27.0878 37.4072 27.1268 37.4251 27.1717 37.4251H28.1862C28.2308 37.4251 28.2713 37.4072 28.3077 37.3712C28.3441 37.3353 28.3622 37.2952 28.3622 37.2509ZM32.4869 36.446V37.1845C32.4869 37.2454 32.4727 37.2883 32.4449 37.3131C32.4169 37.3381 32.3721 37.3588 32.3107 37.3753C32.1933 37.4031 32.041 37.4307 31.8538 37.4586C31.6665 37.486 31.4471 37.4999 31.1956 37.4999C30.6031 37.4999 30.1294 37.3202 29.7746 36.9603C29.4196 36.6008 29.2422 36.0806 29.2422 35.4V34.7028C29.2422 34.0222 29.4196 33.5021 29.7746 33.1425C30.1294 32.7827 30.6031 32.6029 31.1956 32.6029C31.4471 32.6029 31.6665 32.6167 31.8538 32.6443C32.041 32.6722 32.1933 32.6998 32.3107 32.7274C32.3721 32.7439 32.4169 32.7648 32.4449 32.7896C32.4727 32.8146 32.4869 32.8575 32.4869 32.9183V33.657C32.4869 33.7013 32.4714 33.7358 32.4407 33.7608C32.4099 33.7856 32.3721 33.798 32.3276 33.798H32.3107C32.1542 33.7816 32.0048 33.7677 31.8622 33.7566C31.7196 33.7458 31.5281 33.7399 31.2878 33.7399C31.1928 33.7399 31.1035 33.7553 31.0196 33.7856C30.9356 33.8161 30.863 33.8687 30.8016 33.9433C30.74 34.0181 30.6912 34.1175 30.6548 34.2421C30.6184 34.3666 30.6003 34.5202 30.6003 34.7028V35.4C30.6003 35.5825 30.6184 35.7361 30.6548 35.8607C30.6912 35.9851 30.74 36.0848 30.8016 36.1594C30.863 36.2342 30.9356 36.2868 31.0196 36.3171C31.1035 36.3476 31.1928 36.3628 31.2878 36.3628C31.5281 36.3628 31.7196 36.3572 31.8622 36.3462C32.0048 36.3352 32.1542 36.3212 32.3107 36.3047H32.3276C32.3721 36.3047 32.4099 36.3171 32.4407 36.3421C32.4714 36.3671 32.4869 36.4015 32.4869 36.446ZM37.1406 34.7609C37.1406 34.4288 37.0943 34.1301 37.0019 33.8645C36.9094 33.5989 36.775 33.3735 36.5987 33.188C36.4223 33.0028 36.2038 32.8589 35.9435 32.7565C35.6831 32.6543 35.3819 32.6029 35.0403 32.6029C34.6987 32.6029 34.3977 32.6543 34.1373 32.7565C33.8768 32.8589 33.6569 33.0028 33.4778 33.188C33.2985 33.3735 33.1627 33.5989 33.0704 33.8645C32.9778 34.1301 32.9316 34.4288 32.9316 34.7609V35.3419C32.9316 35.6739 32.9778 35.9727 33.0704 36.2383C33.1627 36.5039 33.2985 36.7294 33.4778 36.9148C33.6569 37.1003 33.8768 37.244 34.1373 37.3464C34.3977 37.4486 34.6987 37.4999 35.0403 37.4999C35.3819 37.4999 35.6831 37.4486 35.9435 37.3464C36.2038 37.244 36.4223 37.1003 36.5987 36.9148C36.775 36.7294 36.9094 36.5039 37.0019 36.2383C37.0943 35.9727 37.1406 35.6739 37.1406 35.3419V34.7609ZM35.0399 36.3627C35.5345 36.3627 35.7819 36.0225 35.7819 35.3419V34.7609C35.7819 34.0858 35.5345 33.7481 35.0399 33.7481C34.7953 33.7481 34.6092 33.8326 34.4814 34.0013C34.3534 34.1702 34.2896 34.4234 34.2896 34.7609V35.3419C34.2896 35.6793 34.3534 35.9339 34.4814 36.1054C34.6092 36.277 34.7953 36.3627 35.0399 36.3627ZM42.1285 37.2509V34.4869C42.1285 34.2272 42.1073 33.9821 42.0656 33.7525C42.0237 33.5231 41.9481 33.3237 41.839 33.1548C41.73 32.9861 41.5792 32.8518 41.3865 32.7523C41.1936 32.6527 40.9462 32.6029 40.6445 32.6029C40.3762 32.6029 40.1386 32.635 39.9317 32.6991C39.7249 32.7632 39.5069 32.8761 39.2778 33.0378V32.8366C39.2778 32.7922 39.2611 32.753 39.2273 32.7196C39.1941 32.6862 39.1547 32.6693 39.1102 32.6693H38.1711C38.1263 32.6693 38.0873 32.6858 38.0537 32.7191C38.0203 32.7523 38.0034 32.7911 38.0034 32.8352V37.2509C38.0034 37.2952 38.0215 37.3353 38.0579 37.3712C38.0943 37.4072 38.1347 37.4251 38.1796 37.4251H39.1941C39.2386 37.4251 39.2778 37.4072 39.3114 37.3714C39.3448 37.3355 39.3617 37.2955 39.3617 37.2512V33.9883C39.5069 33.9111 39.6439 33.8476 39.7724 33.798C39.9011 33.7482 40.0268 33.7234 40.1499 33.7234C40.2784 33.7234 40.3832 33.7358 40.4641 33.7608C40.5451 33.7856 40.6081 33.8283 40.6528 33.8893C40.6976 33.9498 40.7282 34.0298 40.7451 34.1291C40.7618 34.2285 40.7702 34.35 40.7702 34.4936V37.2512C40.7702 37.2955 40.7869 37.3355 40.8205 37.3714C40.8541 37.4072 40.8931 37.4251 40.9378 37.4251H41.9523C41.997 37.4251 42.0376 37.4072 42.074 37.3712C42.1102 37.3353 42.1285 37.2952 42.1285 37.2509ZM45.7845 36.6269V37.2693C45.7845 37.3625 45.7314 37.4175 45.6252 37.4337C45.4965 37.4558 45.3847 37.4722 45.2899 37.4832C45.1948 37.4942 45.0856 37.4997 44.9629 37.4997C44.7348 37.4997 44.5334 37.4816 44.3584 37.4458C44.1835 37.4098 44.0374 37.3393 43.9208 37.2341C43.8043 37.129 43.7153 36.9837 43.6542 36.7983C43.5933 36.613 43.5626 36.3739 43.5626 36.0804V33.6735L42.892 33.5655C42.8471 33.5544 42.8067 33.5338 42.7703 33.5032C42.7339 33.4729 42.7158 33.4355 42.7158 33.3912V32.8433C42.7158 32.7992 42.7339 32.759 42.7703 32.723C42.8067 32.6872 42.8471 32.6691 42.892 32.6691H43.5626V31.9885C43.5626 31.9442 43.5793 31.9083 43.6126 31.8806C43.6457 31.853 43.6848 31.8337 43.7294 31.8225L44.746 31.6484H44.7709C44.8153 31.6484 44.8515 31.6606 44.8793 31.6855C44.907 31.7104 44.9209 31.7451 44.9209 31.7892V32.6691H45.6085C45.653 32.6691 45.6922 32.6858 45.7258 32.7192C45.7594 32.7527 45.7761 32.792 45.7761 32.8364V33.5143C45.7761 33.5591 45.7594 33.598 45.7258 33.6315C45.6922 33.6649 45.653 33.6816 45.6085 33.6816H44.9209V36.097C44.9209 36.2629 44.9349 36.3696 44.9629 36.4165C44.9908 36.4636 45.0689 36.487 45.1974 36.487H45.6085C45.7258 36.487 45.7845 36.5337 45.7845 36.6269ZM50.2615 34.2961C50.2615 33.9919 50.2156 33.733 50.1231 33.52C50.031 33.3071 49.9011 33.1327 49.7335 32.9971C49.5658 32.8616 49.3604 32.7622 49.1172 32.6984C48.8741 32.6348 48.6017 32.6029 48.2998 32.6029C48.02 32.6029 47.7477 32.6224 47.4824 32.6612C47.2167 32.6998 47.0057 32.7386 46.8494 32.7772C46.7428 32.8051 46.6901 32.8657 46.6901 32.9597V33.632C46.6901 33.6875 46.7038 33.7263 46.7319 33.7482C46.7599 33.7704 46.7961 33.7816 46.8408 33.7816H46.8828C46.95 33.7759 47.0337 33.769 47.1344 33.7608C47.235 33.7525 47.3482 33.7458 47.4739 33.7399C47.5997 33.7346 47.731 33.7304 47.868 33.7275C48.0049 33.7248 48.1405 33.7234 48.2745 33.7234C48.4702 33.7234 48.624 33.7594 48.7357 33.8313C48.8475 33.9033 48.9034 34.0583 48.9034 34.2961V34.595H48.4507C47.7294 34.595 47.2056 34.707 46.8786 34.931C46.5517 35.1551 46.3882 35.5107 46.3882 35.9976V36.0725C46.3882 36.3435 46.4286 36.5703 46.5097 36.7528C46.5905 36.9355 46.6984 37.0822 46.8325 37.193C46.9667 37.3035 47.1189 37.3824 47.2895 37.4293C47.4599 37.4763 47.6373 37.4999 47.8219 37.4999C48.0735 37.4999 48.2899 37.4667 48.4716 37.4003C48.6532 37.334 48.8249 37.2426 48.9873 37.1265V37.2592C48.9873 37.3035 49.004 37.3422 49.0376 37.3753C49.071 37.4086 49.1102 37.4251 49.1549 37.4251H50.094C50.1386 37.4251 50.1778 37.4086 50.2114 37.3753C50.2448 37.3422 50.2615 37.3035 50.2615 37.2592V34.2961ZM48.6054 36.4331C48.7197 36.3973 48.8275 36.3544 48.9281 36.3046V35.3916H48.4502C48.3049 35.3916 48.1847 35.404 48.0897 35.4288C47.9946 35.4538 47.9191 35.4912 47.8633 35.541C47.8073 35.5907 47.7681 35.6545 47.746 35.7318C47.7235 35.8094 47.7124 35.8978 47.7124 35.9974V36.0724C47.7124 36.2492 47.7556 36.3626 47.8423 36.4125C47.929 36.4623 48.0616 36.4871 48.2406 36.4871C48.3691 36.4871 48.4904 36.4693 48.6054 36.4331ZM54.3863 37.1845V36.446C54.3863 36.4015 54.3708 36.3671 54.3401 36.3421C54.3093 36.3171 54.2717 36.3047 54.227 36.3047H54.2102C54.0537 36.3212 53.9042 36.3352 53.7616 36.3462C53.6192 36.3572 53.4277 36.3628 53.1874 36.3628C53.0922 36.3628 53.0027 36.3476 52.9191 36.3171C52.8352 36.2868 52.7625 36.2342 52.701 36.1594C52.6395 36.0848 52.5906 35.9851 52.5544 35.8607C52.5178 35.7361 52.4999 35.5825 52.4999 35.4V34.7028C52.4999 34.5202 52.5178 34.3666 52.5544 34.2421C52.5906 34.1175 52.6395 34.0181 52.701 33.9433C52.7625 33.8687 52.8352 33.8161 52.9191 33.7856C53.0027 33.7553 53.0922 33.7399 53.1874 33.7399C53.4277 33.7399 53.6192 33.7458 53.7616 33.7566C53.9042 33.7677 54.0537 33.7816 54.2102 33.798H54.227C54.2717 33.798 54.3093 33.7856 54.3401 33.7608C54.3708 33.7358 54.3863 33.7013 54.3863 33.657V32.9183C54.3863 32.8575 54.3723 32.8146 54.3443 32.7896C54.3161 32.7648 54.2717 32.7439 54.2102 32.7274C54.0929 32.6998 53.9404 32.6722 53.7532 32.6443C53.5659 32.6167 53.3467 32.6029 53.0952 32.6029C52.5023 32.6029 52.029 32.7827 51.674 33.1425C51.319 33.5021 51.1416 34.0222 51.1416 34.7028V35.4C51.1416 36.0806 51.319 36.6008 51.674 36.9603C52.029 37.3202 52.5023 37.4999 53.0952 37.4999C53.3467 37.4999 53.5659 37.486 53.7532 37.4586C53.9404 37.4307 54.0929 37.4031 54.2102 37.3753C54.2717 37.3588 54.3161 37.3381 54.3443 37.3131C54.3723 37.2883 54.3863 37.2454 54.3863 37.1845ZM57.9998 36.6269V37.2693C57.9998 37.3625 57.9465 37.4175 57.8405 37.4337C57.7118 37.4558 57.6001 37.4722 57.5052 37.4832C57.41 37.4942 57.301 37.4997 57.1782 37.4997C56.9502 37.4997 56.7487 37.4816 56.5738 37.4458C56.3986 37.4098 56.2527 37.3393 56.1363 37.2341C56.0196 37.129 55.9306 36.9837 55.8695 36.7983C55.8086 36.613 55.778 36.3739 55.778 36.0804V33.6735L55.1073 33.5655C55.0624 33.5544 55.022 33.5338 54.9856 33.5032C54.9493 33.4729 54.9312 33.4355 54.9312 33.3912V32.8433C54.9312 32.7992 54.9493 32.759 54.9856 32.723C55.022 32.6872 55.0624 32.6691 55.1073 32.6691H55.778V31.9885C55.778 31.9442 55.7947 31.9083 55.8279 31.8806C55.861 31.853 55.9 31.8337 55.9446 31.8225L56.9611 31.6484H56.9862C57.0306 31.6484 57.0668 31.6606 57.0943 31.6855C57.1223 31.7104 57.1363 31.7451 57.1363 31.7892V32.6691H57.8238C57.8684 32.6691 57.9075 32.6858 57.9411 32.7192C57.9746 32.7527 57.9914 32.792 57.9914 32.8364V33.5143C57.9914 33.5591 57.9746 33.598 57.9411 33.6315C57.9075 33.6649 57.8684 33.6816 57.8238 33.6816H57.1363V36.097C57.1363 36.2629 57.1502 36.3696 57.1782 36.4165C57.2061 36.4636 57.2843 36.487 57.4129 36.487H57.8238C57.9411 36.487 57.9998 36.5337 57.9998 36.6269Z" fill="#005697"/>
<path d="M53.2058 15.2103H39.5845L38.1993 16.7544L33.7039 21.7646V21.7648L32.3186 23.3087H18.8774L20.2412 21.7451L20.8868 21.0051L22.2507 19.4415H16.0573C14.9259 19.4415 14 20.3813 14 21.5299V25.9364C14 27.0851 14.9259 28.0249 16.0573 28.0249H39.7682C40.8997 28.0249 42.4453 27.3269 43.203 26.4738L46.7896 22.4352L53.2058 15.2103Z" fill="#005697"/>
<path d="M55.9429 10.5C57.0744 10.5 58.0002 11.4398 58.0002 12.5886V16.9949C58.0002 18.1434 57.0744 19.0834 55.9429 19.0834H49.7698L51.1465 17.5316H51.1467L51.8293 16.7622L53.2061 15.2105H39.585L32.3191 23.3148H18.7944L28.4936 12.4579L28.8606 12.047C29.6209 11.1961 31.1686 10.5 32.3001 10.5H55.9429V10.5Z" fill="#FBD500"/>
</svg>
