<svg width="72" height="48" viewBox="0 0 72 48" fill="none" xmlns="http://www.w3.org/2000/svg">
<path d="M13.3409 38.9379C12.9566 38.9379 12.5707 38.9268 12.1912 38.9013C11.7909 38.8743 11.3923 38.8185 11 38.7358V31.9391C11.3221 31.877 11.6809 31.8357 12.0668 31.8038C12.4511 31.772 12.8099 31.7577 13.1432 31.7577C13.5913 31.7577 14.0011 31.7895 14.3759 31.8563C14.7506 31.9184 15.0727 32.0283 15.3438 32.1827C15.6149 32.3386 15.827 32.5408 15.9785 32.7955C16.13 33.0501 16.2081 33.3621 16.2081 33.7298C16.2081 34.2901 15.937 34.731 15.3964 35.0541C15.8445 35.2197 16.1459 35.4536 16.307 35.7402C16.468 36.0314 16.5509 36.3577 16.5509 36.7207C16.5509 37.4576 16.2799 38.0084 15.7441 38.3776C15.1987 38.7565 14.4046 38.9379 13.3409 38.9379ZM12.5404 34.5925H13.3106C13.8002 34.5925 14.143 34.5304 14.3567 34.4063C14.564 34.2821 14.6693 34.08 14.6693 33.8046C14.6693 33.5292 14.5608 33.3223 14.3472 33.2077C14.1287 33.0931 13.8114 33.0358 13.3952 33.0358C13.2596 33.0358 13.1145 33.0358 12.9582 33.0406C12.8019 33.0454 12.6664 33.0517 12.542 33.0661C12.5404 33.0661 12.5404 34.5925 12.5404 34.5925ZM12.5404 35.7975V37.6088C12.6552 37.6248 12.7796 37.6343 12.9152 37.6407C13.0507 37.647 13.2006 37.6518 13.3633 37.6518C13.8369 37.6518 14.2164 37.585 14.5082 37.4497C14.8 37.3144 14.9451 37.0661 14.9451 36.7016C14.9451 36.38 14.8255 36.146 14.5816 36.0107C14.3376 35.8707 13.9884 35.8038 13.5355 35.8038H12.542V35.7975H12.5404Z" fill="#4D4D4D"/>
<path d="M18.8027 31.9916C18.8027 32.267 18.715 32.4851 18.5316 32.6458C18.3546 32.8066 18.1409 32.8846 17.897 32.8846C17.6626 32.8878 17.4361 32.8034 17.2623 32.6458C17.0853 32.4851 16.9912 32.2718 16.9912 31.9916C16.9912 31.7115 17.0789 31.4982 17.2623 31.3374C17.4361 31.1815 17.6626 31.0955 17.897 31.0987C18.1314 31.0955 18.3578 31.1799 18.5316 31.3374C18.7134 31.4982 18.8027 31.7163 18.8027 31.9916ZM18.6576 38.8504H17.1491V33.5277H18.6576V38.8504Z" fill="#4D4D4D"/>
<path d="M19.4693 32.2033L20.9779 31.9598V33.5277H22.7926V34.7835H20.9779V36.6522C20.9779 36.969 21.0353 37.2236 21.1437 37.4099C21.2521 37.5961 21.4818 37.6948 21.8198 37.6948C21.9873 37.6932 22.1547 37.6789 22.3189 37.6486C22.48 37.62 22.6379 37.5786 22.7926 37.5245L23.0062 38.6976C22.8085 38.7772 22.6044 38.8424 22.3971 38.8902C22.1738 38.9427 21.9027 38.9729 21.5758 38.9729C21.1644 38.9729 20.8216 38.9156 20.5505 38.8074C20.2794 38.6992 20.0609 38.5432 19.8999 38.3394C19.7388 38.1421 19.624 37.8985 19.5618 37.6184C19.4948 37.3096 19.4614 36.9944 19.4629 36.6793V32.2033H19.4693Z" fill="#4D4D4D"/>
<path d="M23.0077 36.1906C23.0045 35.8213 23.0683 35.4536 23.1943 35.1051C23.3123 34.7756 23.4956 34.4731 23.7348 34.2169C23.9693 33.9622 24.2595 33.7648 24.5975 33.6152C24.9356 33.464 25.3199 33.3924 25.7521 33.3924C26.0375 33.3924 26.2974 33.4178 26.5318 33.4704C26.7678 33.5213 26.9975 33.5945 27.2191 33.6884L26.9066 34.8934C26.7535 34.8376 26.5972 34.7899 26.4378 34.7533C26.2512 34.7103 26.0614 34.6896 25.8701 34.6912C25.422 34.6912 25.0903 34.8313 24.8718 35.1066C24.6534 35.382 24.5449 35.7449 24.5449 36.197C24.5449 36.6745 24.6486 37.0486 24.8511 37.308C25.0584 37.5722 25.4188 37.7027 25.9275 37.7027C26.1252 37.7027 26.3213 37.6852 26.5159 37.6502C26.7136 37.62 26.9082 37.5659 27.0932 37.4895L27.3068 38.7246C27.0932 38.8106 26.8731 38.8743 26.6467 38.9172C26.358 38.9729 26.0662 39.0016 25.7728 39C25.2832 39 24.867 38.9268 24.5146 38.7819C24.1606 38.6371 23.8752 38.4397 23.6455 38.1898C23.4159 37.9399 23.2549 37.6454 23.1512 37.3064C23.0555 36.9419 23.0077 36.5679 23.0077 36.1906Z" fill="#4D4D4D"/>
<path d="M32.5038 36.1811C32.5038 36.6013 32.4416 36.9801 32.322 37.3287C32.2024 37.6773 32.0254 37.9718 31.7974 38.2169C31.5645 38.4636 31.2823 38.6578 30.9697 38.7883C30.646 38.9236 30.2888 38.9905 29.8934 38.9905C29.4979 38.9905 29.1439 38.9236 28.8218 38.7883C28.5076 38.6594 28.2269 38.4636 27.9941 38.2169C27.7645 37.9733 27.5827 37.6725 27.4583 37.3287C27.3276 36.9801 27.2654 36.5965 27.2654 36.1811C27.2654 35.7656 27.3324 35.382 27.4631 35.0382C27.5939 34.696 27.7757 34.3999 28.0085 34.1612C28.2445 33.9176 28.5267 33.7234 28.8409 33.5945C29.163 33.4592 29.5122 33.3924 29.8918 33.3924C30.2713 33.3924 30.6301 33.4592 30.9522 33.5945C31.2743 33.7298 31.5502 33.916 31.7798 34.1612C32.0158 34.4143 32.1992 34.7119 32.3156 35.0382C32.4368 35.382 32.5038 35.7608 32.5038 36.1811ZM30.965 36.1811C30.965 35.7131 30.8709 35.3502 30.6843 35.086C30.4977 34.8217 30.2314 34.6864 29.8886 34.6864C29.5457 34.6864 29.2746 34.8217 29.0881 35.086C28.9015 35.3502 28.8026 35.7195 28.8026 36.1811C28.8026 36.6427 28.8967 37.0167 29.0881 37.2873C29.2746 37.5627 29.5457 37.698 29.8886 37.698C30.2314 37.698 30.4977 37.5627 30.6843 37.2873C30.8709 37.0119 30.965 36.6427 30.965 36.1811Z" fill="#4D4D4D"/>
<path d="M34.7634 31.9916C34.7634 32.267 34.6757 32.4851 34.4923 32.6458C34.3153 32.8066 34.1016 32.8846 33.8577 32.8846C33.6232 32.8878 33.3968 32.8034 33.223 32.6458C33.046 32.4851 32.9519 32.2718 32.9519 31.9916C32.9519 31.7115 33.0396 31.4982 33.223 31.3374C33.3968 31.1815 33.6232 31.0955 33.8577 31.0987C34.0921 31.0955 34.3185 31.1799 34.4923 31.3374C34.6741 31.4982 34.7634 31.7163 34.7634 31.9916ZM34.6231 38.8504H33.1146V33.5277H34.6231V38.8504Z" fill="#4D4D4D"/>
<path d="M35.481 33.7091C35.7361 33.6359 36.0694 33.5643 36.4744 33.5022C36.8954 33.4369 37.3212 33.4035 37.7485 33.4035C38.2014 33.4035 38.5762 33.4608 38.8775 33.5802C39.1789 33.6996 39.4181 33.8651 39.5904 34.0784C39.7674 34.2965 39.8917 34.5511 39.9651 34.8472C40.0384 35.1433 40.0735 35.4759 40.0735 35.8388V38.8456H38.565V36.0203C38.565 35.5316 38.5028 35.1894 38.372 34.9873C38.2413 34.7851 38.0021 34.6864 37.6545 34.6864C37.546 34.6864 37.4312 34.6912 37.3116 34.7023C37.192 34.7135 37.082 34.723 36.9895 34.739V38.8456H35.481V33.7091Z" fill="#4D4D4D"/>
<path d="M44.1989 38.9905C43.0539 38.9905 42.1864 38.6737 41.5884 38.0402C40.9905 37.4067 40.6938 36.509 40.6938 35.3406C40.6938 34.7597 40.7879 34.2455 40.9697 33.7887C41.1515 33.3319 41.4019 32.9483 41.7192 32.6363C42.0413 32.3211 42.4288 32.0776 42.853 31.9248C43.2899 31.764 43.7683 31.6813 44.2834 31.6813C44.58 31.6813 44.8511 31.702 45.0951 31.7481C45.3119 31.7831 45.5256 31.8341 45.7345 31.8993C45.8908 31.9471 46.0439 32.006 46.1922 32.076C46.3118 32.1381 46.3995 32.1842 46.4569 32.2161L45.9992 33.4879C45.7584 33.3637 45.5065 33.2666 45.245 33.1966C44.9595 33.1138 44.631 33.0772 44.2674 33.0772C44.0251 33.0772 43.7843 33.1186 43.5546 33.1966C43.3218 33.2793 43.1113 33.4131 42.9359 33.5866C42.7589 33.7632 42.6138 33.9972 42.5038 34.2774C42.3953 34.5623 42.3427 34.9061 42.3427 35.3104C42.3411 35.6144 42.3762 35.9184 42.4464 36.2145C42.5197 36.4946 42.6329 36.7334 42.7892 36.9355C42.9551 37.1441 43.1687 37.3096 43.4127 37.4178C43.6679 37.5372 43.9804 37.5945 44.344 37.5945C44.5513 37.5945 44.757 37.5818 44.9627 37.5531C45.1285 37.5308 45.2912 37.499 45.4523 37.4544C45.5798 37.4226 45.7058 37.3812 45.827 37.3303C45.9354 37.2841 46.0343 37.2364 46.1188 37.1998L46.5558 38.4668C46.3325 38.6021 46.02 38.7215 45.6149 38.8297C45.2019 38.9379 44.7299 38.9905 44.1989 38.9905Z" fill="#0AC18E"/>
<path d="M48.9223 33.3876C49.3704 33.3876 49.7387 33.4401 50.0353 33.5388C50.3319 33.6375 50.5711 33.7823 50.7481 33.9749C50.9299 34.1691 51.0591 34.4047 51.1277 34.661C51.201 34.9316 51.2361 35.2324 51.2361 35.5587V38.6944C51.0176 38.7406 50.721 38.7979 50.3367 38.8599C49.9524 38.922 49.4836 38.9586 48.9382 38.9586C48.5954 38.9586 48.2828 38.9268 48.0022 38.8647C47.7215 38.8026 47.4823 38.7039 47.2798 38.5686C47.0789 38.4318 46.9178 38.2471 46.811 38.0291C46.7025 37.8062 46.6499 37.5356 46.6499 37.2093C46.6499 36.883 46.7121 36.6379 46.8365 36.4198C46.9545 36.2081 47.1267 36.0314 47.3356 35.9057C47.5429 35.7752 47.7837 35.6829 48.0532 35.6256C48.3307 35.5667 48.6129 35.538 48.8952 35.538C49.0929 35.538 49.2651 35.5491 49.415 35.5635C49.5665 35.5794 49.6909 35.6001 49.785 35.6303V35.4903C49.785 35.2356 49.7068 35.0287 49.5506 34.8727C49.3943 34.7167 49.1248 34.6387 48.7389 34.6387C48.4853 34.6387 48.2318 34.6578 47.9798 34.696C47.7295 34.7326 47.511 34.7835 47.3292 34.852L47.1363 33.6375C47.224 33.612 47.334 33.5802 47.4632 33.5499C47.5939 33.5181 47.739 33.4926 47.8953 33.4672C48.0516 33.4417 48.2126 33.4258 48.3849 33.4051C48.5683 33.3987 48.7453 33.3876 48.9223 33.3876ZM49.0419 37.7951C49.1934 37.7951 49.3337 37.7903 49.4676 37.7839C49.5761 37.7823 49.6829 37.7712 49.7898 37.7521V36.6092C49.7276 36.5933 49.6383 36.5838 49.5139 36.5679C49.4038 36.5535 49.2922 36.5472 49.1806 36.5472C49.0466 36.5488 48.9127 36.5567 48.7803 36.5726C48.656 36.5885 48.5459 36.6188 48.4534 36.6713C48.3625 36.7143 48.286 36.7811 48.2302 36.8639C48.1744 36.9546 48.1457 37.0581 48.1473 37.1647C48.1473 37.3987 48.2254 37.5643 48.3865 37.6534C48.5475 37.7537 48.766 37.7951 49.0419 37.7951Z" fill="#0AC18E"/>
<path d="M53.5817 37.7696C53.8575 37.7696 54.0553 37.7441 54.1701 37.6868C54.2849 37.6343 54.3423 37.5261 54.3423 37.3749C54.3423 37.2555 54.2689 37.1456 54.119 37.0581C53.9676 36.9642 53.7443 36.8655 53.4381 36.7525C53.2037 36.6649 52.9853 36.5758 52.7939 36.4771C52.6009 36.3832 52.4351 36.2702 52.3043 36.1397C52.1672 36.006 52.062 35.8452 51.9918 35.6669C51.9184 35.4855 51.8834 35.2674 51.8834 35.008C51.8834 34.5098 52.0699 34.115 52.4399 33.8237C52.8098 33.5324 53.3185 33.3876 53.9692 33.3876C54.2817 33.3876 54.5927 33.4178 54.9004 33.4751C55.197 33.5324 55.4362 33.5945 55.6084 33.6614L55.3437 34.8345C55.1556 34.7692 54.9658 34.7151 54.7713 34.6737C54.5432 34.6244 54.312 34.5989 54.0792 34.6005C53.6056 34.6005 53.3712 34.731 53.3712 34.9952C53.3696 35.0509 53.3807 35.1051 53.4031 35.156C53.4302 35.2101 53.4716 35.2579 53.5227 35.2913C53.6024 35.3454 53.6853 35.3916 53.773 35.4314C53.9022 35.495 54.0361 35.5491 54.1733 35.5969C54.5065 35.7211 54.776 35.8404 54.9945 35.9598C55.213 36.0792 55.3788 36.2097 55.5048 36.3434C55.6244 36.4755 55.7153 36.6299 55.7695 36.8002C55.8221 36.9658 55.8476 37.1632 55.8476 37.3876C55.8476 37.9113 55.6499 38.3124 55.2544 38.5766C54.859 38.8472 54.3024 38.9809 53.5801 38.9809C53.1065 38.9809 52.711 38.9395 52.4 38.8615C52.0875 38.7788 51.869 38.7103 51.7446 38.6594L51.9998 37.4337C52.2565 37.534 52.5212 37.6136 52.7907 37.6725C53.049 37.7378 53.3154 37.7696 53.5817 37.7696Z" fill="#0AC18E"/>
<path d="M56.4075 38.8504V31.2435L57.916 31V33.5499C58.0436 33.5101 58.1743 33.4767 58.3067 33.4513C58.4582 33.421 58.6145 33.4051 58.7691 33.4051C59.2013 33.4051 59.5601 33.4624 59.8455 33.5818C60.131 33.7012 60.3606 33.8667 60.5328 34.08C60.705 34.2981 60.8246 34.5527 60.8964 34.8488C60.9697 35.1448 61 35.4775 61 35.8404V38.8472H59.4915V36.0203C59.4915 35.5316 59.4293 35.1894 59.3049 34.9873C59.1806 34.7851 58.9461 34.6864 58.6129 34.6864C58.4853 34.6848 58.3577 34.6976 58.2333 34.723C58.1137 34.7485 58.0101 34.7692 57.916 34.801V38.8456H56.4075V38.8504Z" fill="#0AC18E"/>
<path fill-rule="evenodd" clip-rule="evenodd" d="M46 17C46 22.5228 41.5228 27 36 27C30.4772 27 26 22.5228 26 17C26 11.4772 30.4772 7 36 7C41.5228 7 46 11.4772 46 17ZM36.0481 12.511C37.459 12.2786 38.6093 12.515 39.1103 13.6533C39.4429 14.5591 39.1704 15.2485 38.6373 15.7335C39.5071 15.8216 40.5491 16.6072 40.7015 17.5611C40.9419 19.1483 39.7796 20.1824 38.1363 20.5832L38.5932 22.3547L37.5231 22.6313L37.0662 20.8517C36.7856 20.9239 36.5051 20.996 36.2085 21.0641L36.6654 22.8517L35.5992 23.1283L35.1383 21.3527C34.8858 21.4128 32.982 21.9018 32.982 21.9018L32.8658 20.5711C32.8658 20.5711 33.6594 20.3788 33.6433 20.3707C33.9439 20.2946 33.968 20.0541 33.952 19.9138L32.7095 15.1042C32.6093 14.8998 32.4049 14.6834 31.972 14.7956C31.98 14.7756 31.1944 14.996 31.1944 14.996L30.8978 13.8537C30.8978 13.8537 32.8217 13.3567 33.0502 13.2926L32.5972 11.5371L33.6674 11.2605L34.1163 13C34.2874 12.9518 34.4599 12.9109 34.6312 12.8702C34.7449 12.8432 34.8581 12.8164 34.97 12.7876L34.5251 11.0361L35.5952 10.7595L36.0481 12.511ZM36.2704 19.7091C37.1776 19.5235 38.7808 19.1954 38.5972 17.8377C38.2761 16.5927 36.4312 17.1152 35.5343 17.3692C35.435 17.3973 35.3473 17.4221 35.2746 17.4409L35.9039 19.7896C36.0024 19.764 36.1278 19.7383 36.2704 19.7091ZM35.3326 16.2943C36.095 16.1384 37.4777 15.8557 37.2826 14.6433C36.8799 13.5023 35.4684 13.9273 34.7248 14.1513C34.6248 14.1814 34.5368 14.2079 34.465 14.2265L35.0381 16.3587C35.1173 16.3383 35.2179 16.3177 35.3326 16.2943Z" fill="#0AC18E"/>
</svg>
