<svg width="72" height="48" viewBox="0 0 72 48" fill="none" xmlns="http://www.w3.org/2000/svg">
<path d="M18.9293 25.4516C18.1213 28.6653 14.8344 30.6228 11.5911 29.8203C8.34771 29.0197 6.37217 25.7628 7.18207 22.5491C7.99007 19.3353 11.275 17.3778 14.5184 18.1803C17.7618 18.981 19.7373 22.2378 18.9274 25.4516H18.9293Z" fill="#F7931A"/>
<path d="M15.7253 23.145C15.8465 22.3462 15.2315 21.9169 14.3932 21.6319L14.6657 20.55L14.0015 20.385L13.7366 21.4387C13.5625 21.3956 13.3827 21.3544 13.2048 21.315L13.4717 20.2556L12.8075 20.0906L12.535 21.1725C12.3912 21.1406 12.2492 21.1069 12.1111 21.0731V21.0694L11.1952 20.8425L11.0193 21.5456C11.0193 21.5456 11.5132 21.6581 11.5018 21.6637C11.7705 21.7312 11.8197 21.9075 11.8121 22.0462L11.5018 23.2781C11.5207 23.2819 11.5453 23.2894 11.5699 23.3006C11.5472 23.295 11.5245 23.2894 11.4999 23.2837L11.0647 25.0087C11.0325 25.0894 10.9493 25.2112 10.76 25.1644C10.7676 25.1737 10.2775 25.0444 10.2775 25.0444L9.94824 25.7981L10.813 26.0119C10.9739 26.0512 11.1309 26.0944 11.2861 26.1337L11.0117 27.2269L11.6759 27.3919L11.9484 26.31C12.13 26.3587 12.306 26.4037 12.4782 26.4469L12.2076 27.5231L12.8718 27.6881L13.1462 26.5969C14.2797 26.8087 15.1312 26.7244 15.4888 25.7081C15.7783 24.8906 15.4737 24.4181 14.8776 24.1106C15.3109 24.0112 15.6383 23.7281 15.7253 23.145ZM14.2077 25.2544C14.0034 26.0719 12.6126 25.6294 12.1622 25.5187L12.5274 24.0694C12.9778 24.18 14.4216 24.4012 14.2077 25.2544ZM14.414 23.1337C14.2267 23.8781 13.0705 23.4994 12.6958 23.4075L13.027 22.0931C13.4016 22.185 14.6089 22.3594 14.414 23.1337Z" fill="white"/>
<path d="M24.7458 21.63C25.2378 21.63 25.6617 21.7162 26.0174 21.8888C26.3751 22.0612 26.6703 22.2937 26.9087 22.5881C27.1433 22.8825 27.3174 23.2256 27.4291 23.6213C27.5407 24.0169 27.5975 24.4425 27.5975 24.8962C27.5975 25.5956 27.4688 26.2556 27.2077 26.8781C26.9465 27.5025 26.5927 28.0425 26.1423 28.5037C25.6919 28.965 25.1602 29.3269 24.549 29.5969C23.9378 29.865 23.2717 30 22.5583 30C22.4656 30 22.3029 29.9981 22.0739 29.9925C21.845 29.9869 21.58 29.9644 21.2848 29.925C20.9878 29.8837 20.6736 29.8237 20.3425 29.7413C20.0114 29.6606 19.6953 29.55 19.4001 29.4075L22.0493 18.3656L24.4241 18L23.4742 21.9169C23.6767 21.8269 23.8829 21.7556 24.0873 21.705C24.2917 21.6544 24.5112 21.6281 24.7458 21.6281V21.63ZM22.7533 28.1306C23.1109 28.1306 23.4477 28.0444 23.7637 27.8719C24.0816 27.7013 24.356 27.4688 24.585 27.1819C24.8139 26.8931 24.9956 26.5669 25.1281 26.2013C25.2605 25.8356 25.3267 25.4569 25.3267 25.0612C25.3267 24.5756 25.2454 24.1969 25.0807 23.9231C24.918 23.6512 24.6152 23.5125 24.1762 23.5125C24.0324 23.5125 23.847 23.5387 23.618 23.5875C23.3872 23.6381 23.1809 23.7469 22.9955 23.9062L21.985 28.0669C22.0455 28.0781 22.1004 28.0875 22.1458 28.0969C22.1912 28.1062 22.2404 28.1138 22.2896 28.1194C22.3426 28.125 22.4013 28.1287 22.4751 28.1287C22.5489 28.1287 22.6378 28.1287 22.7495 28.1287L22.7533 28.1306Z" fill="#4D4D4D"/>
<path d="M30.0594 29.7862H27.7905L29.7055 21.7987H31.9895L30.0594 29.7862ZM31.1626 20.8256C30.8465 20.8256 30.5589 20.7319 30.3035 20.5444C30.0461 20.3587 29.9193 20.0719 29.9193 19.6856C29.9193 19.4737 29.9629 19.275 30.0499 19.0856C30.1369 18.8981 30.2524 18.7369 30.3962 18.6C30.54 18.4631 30.7046 18.3544 30.8939 18.2737C31.0831 18.1931 31.2856 18.1537 31.4994 18.1537C31.8154 18.1537 32.1011 18.2475 32.3566 18.435C32.612 18.6225 32.7388 18.9094 32.7388 19.2937C32.7388 19.5075 32.6953 19.7062 32.6082 19.8937C32.5212 20.0812 32.4077 20.2425 32.2639 20.3794C32.1219 20.5162 31.9535 20.6231 31.7662 20.7056C31.577 20.7881 31.3745 20.8256 31.1607 20.8256H31.1626Z" fill="#4D4D4D"/>
<path d="M33.9783 19.8094L36.3531 19.4438L35.7703 21.7988H38.3154L37.8555 23.6513H35.3275L34.6538 26.445C34.5914 26.6775 34.5573 26.895 34.546 27.0975C34.5346 27.3 34.5611 27.4744 34.6217 27.6225C34.6822 27.7706 34.792 27.8831 34.9509 27.9638C35.1099 28.0444 35.335 28.0856 35.6321 28.0856C35.8762 28.0856 36.1147 28.0631 36.3455 28.0163C36.5745 27.9713 36.8072 27.9094 37.0419 27.8269L37.2103 29.5594C36.9037 29.67 36.5726 29.7675 36.2149 29.8481C35.8573 29.9306 35.4334 29.97 34.9433 29.97C34.2394 29.97 33.6925 29.8669 33.3027 29.6606C32.9148 29.4525 32.6386 29.1694 32.4739 28.8094C32.3112 28.4513 32.2393 28.0388 32.2601 27.5719C32.2809 27.105 32.3528 26.6156 32.4739 26.0981L33.9764 19.8113L33.9783 19.8094Z" fill="#4D4D4D"/>
<path d="M38.2151 26.5969C38.2151 25.9088 38.3267 25.26 38.5519 24.6525C38.7752 24.045 39.0988 23.5125 39.5189 23.0569C39.9371 22.6031 40.4461 22.2431 41.044 21.9788C41.6401 21.7163 42.3081 21.5831 43.0423 21.5831C43.5021 21.5831 43.9146 21.6263 44.276 21.7125C44.6393 21.7988 44.9686 21.9131 45.2657 22.0538L44.4842 23.8163C44.2798 23.7338 44.0679 23.6625 43.8484 23.5969C43.6289 23.5294 43.3602 23.4975 43.0442 23.4975C42.2873 23.4975 41.6893 23.7563 41.2427 24.2719C40.798 24.7875 40.5747 25.4813 40.5747 26.3531C40.5747 26.8688 40.6864 27.2869 40.9135 27.6056C41.1386 27.9244 41.5531 28.0838 42.1548 28.0838C42.4519 28.0838 42.7376 28.0538 43.0139 27.9938C43.2902 27.9338 43.5343 27.8569 43.75 27.7669L43.9184 29.5744C43.6308 29.685 43.3148 29.7844 42.9685 29.8706C42.6203 29.955 42.2059 29.9981 41.7271 29.9981C41.0932 29.9981 40.5577 29.9063 40.1187 29.7263C39.6797 29.5425 39.3164 29.2988 39.0307 28.9894C38.743 28.68 38.5368 28.3181 38.41 27.9019C38.2832 27.4875 38.217 27.0506 38.217 26.5969H38.2151Z" fill="#4D4D4D"/>
<path d="M48.2913 29.9981C47.7501 29.9981 47.279 29.9156 46.8816 29.7544C46.4842 29.5931 46.1549 29.3663 45.8938 29.0719C45.6327 28.7794 45.4378 28.4325 45.3034 28.0313C45.1691 27.6319 45.1047 27.1894 45.1047 26.7038C45.1047 26.0963 45.2031 25.4869 45.4018 24.8813C45.6005 24.2738 45.8938 23.7281 46.2836 23.2425C46.6696 22.7569 47.1465 22.3594 47.7085 22.0481C48.2686 21.7406 48.9139 21.585 49.6386 21.585C50.1703 21.585 50.6377 21.6675 51.0427 21.8288C51.4457 21.99 51.7769 22.2188 52.038 22.5113C52.2973 22.8056 52.4941 23.1506 52.6265 23.5519C52.7609 23.9513 52.8252 24.3938 52.8252 24.8794C52.8252 25.485 52.7287 26.0944 52.5357 26.7019C52.3427 27.3075 52.055 27.855 51.6766 28.3406C51.2981 28.8263 50.827 29.2238 50.2593 29.5313C49.6935 29.8406 49.035 29.9944 48.2894 29.9944L48.2913 29.9981ZM49.4248 23.4994C49.088 23.4994 48.7909 23.5969 48.5373 23.7881C48.2819 23.9813 48.068 24.225 47.8939 24.5175C47.7199 24.8119 47.5893 25.1325 47.5022 25.4813C47.4152 25.83 47.3736 26.1619 47.3736 26.475C47.3736 26.9813 47.4568 27.3769 47.6177 27.66C47.7823 27.9431 48.0775 28.0856 48.507 28.0856C48.8439 28.0856 49.141 27.99 49.3964 27.7969C49.65 27.6056 49.8657 27.3619 50.0398 27.0675C50.2139 26.775 50.3444 26.4525 50.4315 26.1038C50.5166 25.755 50.5602 25.4231 50.5602 25.11C50.5602 24.6038 50.4788 24.2081 50.3142 23.925C50.1514 23.6419 49.8543 23.4994 49.4248 23.4994Z" fill="#4D4D4D"/>
<path d="M55.2983 29.7862H53.0276L54.9426 21.7987H57.2284L55.2983 29.7862ZM56.3996 20.8256C56.0836 20.8256 55.796 20.7319 55.5424 20.5444C55.287 20.3587 55.1583 20.0719 55.1583 19.6856C55.1583 19.4737 55.2018 19.275 55.2889 19.0856C55.3759 18.8981 55.4913 18.7369 55.6332 18.6C55.7752 18.4631 55.9436 18.3544 56.1309 18.2737C56.3201 18.1931 56.5207 18.1537 56.7345 18.1537C57.0524 18.1537 57.3382 18.2475 57.5936 18.435C57.8491 18.6225 57.9778 18.9094 57.9778 19.2937C57.9778 19.5075 57.9324 19.7062 57.8453 19.8937C57.7583 20.0812 57.6447 20.2425 57.5009 20.3794C57.3571 20.5162 57.1925 20.6231 57.0032 20.7056C56.814 20.7881 56.6115 20.8256 56.3958 20.8256H56.3996Z" fill="#4D4D4D"/>
<path d="M58.8634 22.1625C59.0356 22.1119 59.2286 22.0519 59.4368 21.9881C59.6468 21.9225 59.8814 21.8625 60.1426 21.8081C60.4018 21.7519 60.6932 21.705 61.0149 21.6713C61.3366 21.6356 61.7037 21.6169 62.1105 21.6169C63.3065 21.6169 64.1315 21.9619 64.5875 22.65C65.0417 23.3381 65.1211 24.2813 64.8259 25.4738L63.7833 29.7863H61.4993L62.5098 25.5638C62.5723 25.2994 62.6196 25.0444 62.6555 24.7969C62.6915 24.5494 62.6896 24.3319 62.6479 24.1444C62.6082 23.9588 62.5117 23.8069 62.366 23.6888C62.2165 23.5725 61.9894 23.5144 61.6829 23.5144C61.3763 23.5144 61.0868 23.5463 60.7784 23.6063L59.2911 29.7863H57.0071L58.8615 22.1644L58.8634 22.1625Z" fill="#4D4D4D"/>
</svg>
