<svg width="72" height="48" viewBox="0 0 72 48" fill="none" xmlns="http://www.w3.org/2000/svg">
<path fill-rule="evenodd" clip-rule="evenodd" d="M15.1799 26.9478C14.8043 27.1562 14.4044 27.2602 13.9805 27.2602H13.6533C13.5683 27.2602 13.447 27.2531 13.0965 27.1911L14.2815 22.1488C14.4995 21.9529 14.7347 21.8257 15.0074 21.7642C15.28 21.703 15.4556 21.6865 15.6254 21.6865C16.1462 21.6865 16.5491 21.8377 16.7431 22.1687C16.9368 22.4994 17.0339 22.959 17.0339 23.5471C17.0339 24.0251 16.9549 24.4847 16.7976 24.9258C16.64 25.3669 16.425 25.7621 16.1525 26.1114C15.8798 26.4606 15.5554 26.7395 15.1799 26.9478ZM17.8518 19.7056C17.4274 19.4973 16.9248 19.393 16.3431 19.393C16.0643 19.393 15.8038 19.4237 15.5617 19.4849C15.3191 19.5464 15.0906 19.6257 14.8485 19.736L15.9616 14.9999L13.1443 15.441L10 28.8042C10.3513 28.976 10.7238 29.1107 11.1178 29.2085C11.5114 29.3066 11.884 29.38 12.2355 29.4292C12.5868 29.478 12.899 29.5055 13.1716 29.5119C13.4443 29.5179 13.6351 29.5211 13.7441 29.5211C14.5921 29.5211 15.3799 29.3585 16.1068 29.0339C16.8339 28.7094 17.4638 28.2683 17.9971 27.7106C18.5302 27.153 18.9513 26.4973 19.2603 25.7437C19.5694 24.9901 19.7238 24.1905 19.7238 23.3449C19.7238 22.7936 19.657 22.2789 19.5238 21.801C19.3903 21.3229 19.1844 20.9065 18.9059 20.551C18.627 20.1957 18.2757 19.914 17.8518 19.7056ZM25.3031 18.2134L25.717 16.4524H23.0182L22.6043 18.2134H25.3031ZM28.3886 27.0365C28.587 27.1372 28.8604 27.1872 29.2081 27.1872C29.5062 27.1872 29.7949 27.159 30.0743 27.1025C30.257 27.0656 30.4466 27.022 30.6353 26.9569L30.0733 29.3345C30.0291 29.3454 29.9609 29.362 29.916 29.3724C29.4812 29.4728 28.9659 29.5231 28.37 29.5231C27.513 29.5231 26.8485 29.3942 26.3768 29.137C25.9047 28.8797 25.5694 28.528 25.3709 28.082C25.1721 27.6364 25.0851 27.1246 25.1102 26.5467C25.1349 25.9693 25.222 25.3599 25.3709 24.7194L27.1964 16.9204L30.0836 16.4682L29.3757 19.3882H32.4679L31.9091 21.6865H28.8356L28.016 25.1527C27.9415 25.4418 27.8949 25.7117 27.8763 25.9627C27.8577 26.214 27.8885 26.4308 27.9695 26.6127C28.0501 26.7948 28.1897 26.9362 28.3886 27.0365ZM62 19.3912H59.3013L57.7316 26.0702H57.7343L57.5186 26.9889C57.368 27.0316 57.2181 27.0701 57.0693 27.1002C56.7899 27.1567 56.5012 27.1851 56.2031 27.1851C55.8552 27.1851 55.582 27.1349 55.3835 27.0343C55.1847 26.9339 55.0451 26.7927 54.9644 26.6104C54.8835 26.4285 54.8526 26.2119 54.8713 25.9605C54.89 25.7094 54.9365 25.4395 55.0111 25.1505L55.8305 21.6842L56.3708 19.386L56.3709 19.3853H53.6139L52.3659 24.7173C52.217 25.3577 52.1299 25.967 52.1052 26.5446C52.0801 27.1223 52.1671 27.6342 52.3659 28.0798C52.5645 28.5257 52.8997 28.8776 53.3718 29.1348C53.8436 29.392 54.508 29.521 55.3649 29.521C55.961 29.521 56.4762 29.4707 56.911 29.3702C56.9286 29.3662 56.9454 29.3618 56.9626 29.3575L56.9614 29.3625C56.8406 29.9126 56.5959 30.3587 56.2033 30.707C55.8102 31.0555 55.227 31.2297 54.4537 31.2297C54.1235 31.2297 53.8235 31.2099 53.5517 31.1718L53.0205 33.4319C53.3798 33.479 53.7781 33.5033 54.218 33.5033C55.0398 33.5033 55.7591 33.4083 56.3756 33.2189C56.992 33.0294 57.5205 32.7423 57.9618 32.3571C58.4029 31.9721 58.7715 31.4891 59.0678 30.9088C59.3638 30.3281 59.6025 29.6408 59.7839 28.846L61.6513 20.9069L61.6445 20.9039L62 19.3912ZM19.9421 29.523L22.3246 19.3855H25.0234L22.6409 29.523H19.9421ZM48.7628 21.6863C47.5044 21.6863 47.2642 21.6863 46.7485 21.9567C46.3825 22.1486 46.0795 22.4371 45.8135 22.7737C45.5471 23.1104 45.3384 23.4989 45.1873 23.9394C45.0357 24.3802 44.9602 24.8391 44.9602 25.3165C44.9602 25.9039 45.057 26.3693 45.2509 26.7118C45.4442 27.0546 45.8014 27.2258 46.3218 27.2258C46.6001 27.2258 46.8512 27.1708 47.0753 27.0606C47.299 26.9505 47.5382 26.7668 47.7923 26.5098C47.8165 26.2041 47.8559 25.8828 47.9104 25.546C47.9601 25.2385 48.022 24.9515 48.0786 24.6892L48.0786 24.6892L48.0787 24.689L48.0787 24.6888L48.0788 24.6886L48.0945 24.6157L48.7628 21.6863ZM50.6791 25.0962C50.5094 25.794 50.4611 26.4946 50.5337 27.1984C50.6065 27.9025 50.8727 28.981 51.1323 29.521H48.5206C48.2829 29.1143 48.2303 28.8687 48.194 28.6989C48.1815 28.6408 48.171 28.5916 48.1556 28.5478C47.8166 28.8295 47.4414 29.062 47.0301 29.2455C46.6185 29.4291 46.1586 29.521 45.6502 29.521C45.0451 29.521 44.5276 29.4137 44.0982 29.1997C43.6683 28.9856 43.3174 28.6979 43.0452 28.3368C42.7728 27.9759 42.5759 27.5536 42.4553 27.07C42.334 26.5865 42.2736 26.0693 42.2736 25.5185C42.2736 24.674 42.4216 23.8784 42.7185 23.1318C43.0149 22.3853 43.4264 21.7334 43.9529 21.1764C44.4793 20.6195 45.7499 19.3914 47.8349 19.3914L52.0218 19.3913L50.6791 25.0962ZM34.8891 27.1915C35.0963 27.2409 35.352 27.2655 35.6568 27.2655C36.132 27.2655 36.5643 27.1762 36.9544 26.9975C37.3442 26.819 37.6763 26.5695 37.9505 26.2489C38.2246 25.9286 38.4376 25.5437 38.5901 25.0937C38.7422 24.644 38.8185 24.1482 38.8185 23.6059C38.8185 23.0762 38.7027 22.6262 38.4713 22.2566C38.2397 21.8868 37.8338 21.6904 37.2612 21.688C36.8608 21.6865 36.1959 21.6865 36.1959 21.6865L34.8891 27.1915ZM41.5232 23.4024C41.5232 24.3021 41.377 25.1246 41.0846 25.8699C40.7923 26.6156 40.3871 27.2594 39.8693 27.8014C39.3512 28.3438 38.7299 28.7658 38.0051 29.0676C37.2801 29.3693 36.4911 29.5204 35.6383 29.5204C35.2239 29.5204 34.8096 29.4834 34.3955 29.4094L33.5731 32.7549H30.8682L34.008 19.3916C34.3344 19.3914 35.6617 19.3915 36.6594 19.3916H36.6597H36.6599H36.6642H36.667H36.6729L37.6122 19.3916C38.2944 19.3916 38.8824 19.4964 39.3758 19.7058C39.8693 19.9155 40.2742 20.2019 40.5912 20.5653C40.9078 20.9289 41.1423 21.354 41.2948 21.8405C41.4469 22.3276 41.5232 22.848 41.5232 23.4024Z" fill="#002855"/>
</svg>
