<svg width="72" height="48" viewBox="0 0 72 48" fill="none" xmlns="http://www.w3.org/2000/svg">
<path d="M4 0.5H68C69.933 0.5 71.5 2.067 71.5 4V44C71.5 45.933 69.933 47.5 68 47.5H4C2.067 47.5 0.5 45.933 0.5 44V4C0.5 2.067 2.067 0.5 4 0.5Z" fill="url(#paint0_linear_401_1904)" stroke="#DDDDDD"/>
<path d="M36.9891 22.875C36.9929 22.9166 36.9966 22.9583 37.0001 23V22.875H36.9891Z" fill="white"/>
<path d="M25.5 13C32.2031 13 36.4408 16.9445 36.9891 22.875H25.375V25H37.0001C36.5001 31.1251 32.2501 35.0001 25.5 35.0001C18.625 35.0001 14 30.8751 14 24C14 17.375 18.375 13 25.5 13Z" fill="white"/>
<path d="M58 18.375C58 17.75 57.875 17.125 57.625 16.5C57.375 15.875 57 15.375 56.625 15C56.125 14.5 55.625 14.125 55 14C54.375 13.75 53.625 13.75 52.625 13.75H38.8749V23H52.5C53.5 23 54.375 22.875 54.875 22.75C55.5 22.5 56 22.25 56.5 21.75C57 21.25 57.25 20.75 57.5 20.25C57.875 19.625 58 19 58 18.375Z" fill="white"/>
<path d="M58 29.75C58 29.125 57.875 28.5 57.625 27.875C57.375 27.25 57 26.75 56.625 26.375C56.125 25.875 55.625 25.5 55 25.375C54.375 25.125 53.625 25.125 52.625 25.125H38.8749V34.375H52.5C53.5 34.375 54.375 34.25 54.875 34.125C55.5 33.875 56 33.625 56.5 33.125C57 32.625 57.25 32.125 57.5 31.625C57.875 31 58 30.375 58 29.75Z" fill="white"/>
<defs>
<linearGradient id="paint0_linear_401_1904" x1="72" y1="0" x2="-1.90735e-06" y2="48" gradientUnits="userSpaceOnUse">
<stop stop-color="#0C2655"/>
<stop offset="0.526042" stop-color="#1C8CC2"/>
<stop offset="1" stop-color="#249947"/>
</linearGradient>
</defs>
</svg>
