<svg width="72" height="48" viewBox="0 0 72 48" fill="none" xmlns="http://www.w3.org/2000/svg">
<path d="M10.7581 20.5543C10.2884 20.5543 10.2421 20.399 10.2421 19.2673V19.0742C10.2421 17.9386 10.2884 17.7849 10.7581 17.7849H21.4969C21.9681 17.7849 22.0144 17.9386 22.0144 19.0726V19.2658C22.0144 20.399 21.9673 20.5535 21.4969 20.5535H10.7581V20.5543ZM10.7581 15.5709C10.2884 15.5709 10.2421 15.4164 10.2421 14.2832V14.0901C10.2421 12.9529 10.2884 12.8 10.7581 12.8H21.4969C21.9681 12.8 22.0144 12.9545 22.0144 14.0901V14.2832C22.0144 15.4164 21.9673 15.5709 21.4969 15.5709H10.7581ZM12.3668 30.3704C12.3668 28.4947 13.328 27.4635 14.7742 27.4635C15.3202 27.4635 15.7574 27.6149 16.3042 27.8737C16.5024 27.9694 16.6666 27.9308 16.9266 27.3445L17.1159 26.9459C17.3027 26.4654 17.3166 26.2669 17.0899 26.1603C16.4196 25.7872 15.382 25.5515 14.4858 25.5515C11.9321 25.5515 10 27.4751 10 30.3704C10 33.2649 11.9321 35.1884 14.485 35.1884C15.382 35.1884 16.4431 34.9536 17.1159 34.5781C17.3401 34.4738 17.3255 34.273 17.1403 33.7925L16.9534 33.3715C16.6934 32.7844 16.5284 32.7512 16.3286 32.8423C15.7817 33.1027 15.3211 33.2541 14.7742 33.2541C13.328 33.2541 12.3693 32.2452 12.3693 30.3704H12.3676H12.3668ZM42.7949 34.745C42.7949 34.9999 42.6942 35.0694 41.9361 35.0694H41.8606C41.0619 35.0694 40.9506 35.0347 40.888 34.8485C40.8461 34.7222 40.8128 34.5934 40.7881 34.463C40.3656 34.9435 39.8561 35.2 39.0802 35.2C37.1984 35.2 36.0674 33.8868 36.0674 31.7748C36.0674 29.492 37.326 28.1402 39.1923 28.1402C39.718 28.1402 40.2022 28.2947 40.576 28.5759V25.6095C40.576 25.4109 40.6004 25.3283 41.6485 25.3283H41.7241C42.6942 25.3283 42.7941 25.4109 42.7941 25.6095V34.745H42.7949ZM40.5768 30.2414C40.4487 30.1082 40.2928 30.0019 40.119 29.9293C39.9453 29.8567 39.7575 29.8193 39.5677 29.8196C38.7324 29.8196 38.3359 30.5094 38.3359 31.7763C38.3359 32.5024 38.4976 32.9636 38.7324 33.2054C38.9437 33.4549 39.2687 33.5353 39.5815 33.5353C39.9674 33.5353 40.2656 33.4449 40.4037 33.2773C40.5264 33.149 40.576 32.9505 40.576 32.4932V30.2406L40.5776 30.2414H40.5768ZM54.1017 34.7913C54.1017 34.9883 54.0018 35.0694 53.0292 35.0694H52.9544C51.9079 35.0694 51.886 34.9883 51.886 34.7913V25.6095C51.886 25.4109 51.9079 25.3283 52.9536 25.3283H53.0284C54.0001 25.3283 54.1009 25.4109 54.1009 25.6095V34.7913H54.1017ZM46.2984 32.3503C46.4219 33.1822 46.9696 33.5824 47.83 33.5824C48.4922 33.5824 49.1121 33.4433 49.8369 33.149C49.988 33.0911 50.1237 33.149 50.2838 33.6148L50.3975 33.8759C50.5576 34.3564 50.5438 34.463 50.3715 34.555C49.5103 35.0115 48.6141 35.1984 47.6171 35.1984C45.4136 35.1984 44.0316 33.9238 44.0316 31.7415C44.0316 29.6195 45.3015 28.1402 47.4814 28.1402C49.6378 28.1402 50.7444 29.5955 50.7444 31.6118C50.7444 32.2807 50.6835 32.3503 50.4341 32.3503H46.2984ZM48.5263 31.0502C48.4922 30.3487 48.1932 29.7369 47.4579 29.7369C46.8201 29.7369 46.3586 30.1927 46.2716 31.0502H48.5263ZM57.5532 32.3503C57.6751 33.1822 58.2243 33.5824 59.0856 33.5824C59.7421 33.5824 60.3677 33.4433 61.09 33.149C61.2379 33.0911 61.3776 33.149 61.5385 33.6148L61.6514 33.8759C61.8115 34.3564 61.7985 34.463 61.6271 34.555C60.7658 35.0115 59.868 35.1984 58.8703 35.1984C56.6659 35.1984 55.2855 33.9238 55.2855 31.7415C55.2855 29.6195 56.553 28.1402 58.7338 28.1402C60.8918 28.1402 62 29.5955 62 31.6118C62 32.2807 61.9374 32.3503 61.688 32.3503H57.5524H57.5532ZM59.7835 31.0502C59.7429 30.3487 59.4463 29.7369 58.711 29.7369C58.0756 29.7369 57.6125 30.1927 57.5264 31.0502H59.7835ZM32.5217 30.2877C32.4094 30.1468 32.2645 30.0325 32.0983 29.9534C31.932 29.8744 31.7488 29.8328 31.5629 29.8319C30.7277 29.8319 30.3304 30.5233 30.3304 31.7531C30.3304 32.796 30.6261 33.5708 31.5361 33.5708C31.8741 33.5708 32.1211 33.4889 32.2974 33.3228C32.4583 33.1606 32.5217 32.9366 32.5217 32.4468V30.2877ZM34.7642 34.745C34.7642 34.9999 34.6659 35.0694 33.9062 35.0694H33.8038C33.0076 35.0694 32.8954 35.0347 32.8337 34.8485C32.7909 34.7224 32.7575 34.5936 32.7337 34.463C32.3112 34.9435 31.7994 35.2 31.0259 35.2C29.2197 35.2 28.0603 33.9084 28.0603 31.801C28.0603 29.4565 29.4935 28.1402 31.1884 28.1402C31.8741 28.1402 32.4705 28.4121 32.7955 28.7983L32.8337 28.5048C32.8442 28.3657 32.8841 28.273 33.7031 28.273H33.7916C34.6399 28.273 34.7626 28.3294 34.7626 28.5434V34.745H34.7642ZM24.365 26.2916C25.1986 26.2916 25.249 26.3016 25.249 26.5596V28.2715H26.6831C26.8813 28.2715 26.9431 28.3063 26.9431 28.9505V29.0455C26.9431 29.6882 26.8813 29.7253 26.6831 29.7253H25.249V32.7975C25.249 33.312 25.3473 33.5824 25.8454 33.5824C26.1054 33.5824 26.3329 33.5353 26.5571 33.4665C26.7927 33.3808 26.8821 33.4889 27.043 34.0266L27.0804 34.1556C27.2542 34.745 27.2031 34.7913 26.9813 34.8949C26.5328 35.0942 25.9331 35.2 25.3733 35.2C23.6045 35.2 23.1064 34.3564 23.1064 32.8887V29.7253H22.2712C22.0599 29.7253 22.0071 29.6867 22.0071 29.0455V28.9505C22.0071 28.3063 22.0591 28.273 22.2712 28.273H23.2056C23.3071 27.7222 23.4794 26.9467 23.5923 26.5596C23.6549 26.3364 23.6923 26.2916 24.365 26.2916ZM19.7305 28.273C20.7031 28.273 20.7892 28.3526 20.7892 28.5535V34.7913C20.7892 34.9999 20.7031 35.0694 19.7305 35.0694H19.6671C18.5971 35.0694 18.5727 34.9999 18.5727 34.7913V28.5535C18.5727 28.3526 18.5971 28.273 19.6671 28.273H19.7305ZM19.6671 25.224C20.3691 25.224 20.8778 25.7393 20.8778 26.3248C20.8746 26.4716 20.8408 26.6162 20.7783 26.7504C20.7158 26.8847 20.6259 27.0057 20.5138 27.1066C20.2863 27.3113 19.9816 27.4225 19.6671 27.4156C18.9733 27.4156 18.4589 26.9003 18.4589 26.3248C18.4589 25.7377 18.9733 25.224 19.6671 25.224Z" fill="#EE293D"/>
</svg>
