<svg width="72" height="48" viewBox="0 0 72 48" fill="none" xmlns="http://www.w3.org/2000/svg">
<path d="M39.09 38.3998C46.8851 38.4375 54 31.98 54 24.1246C54 15.5349 46.8851 9.5968 39.09 9.60001H32.3813C24.4933 9.5968 18 15.5365 18 24.1246C18 31.9816 24.4933 38.4375 32.3813 38.3998H39.09Z" fill="#0079BE"/>
<path d="M32.4133 10.7903C25.2047 10.7927 19.3642 16.6923 19.3618 23.9739C19.3642 31.2546 25.2047 37.1542 32.4133 37.1566C39.6228 37.1542 45.4656 31.2546 45.4664 23.9739C45.4656 16.6923 39.6236 10.7927 32.4133 10.7903ZM24.1409 23.9739C24.1394 22.2903 24.6454 20.6455 25.593 19.2543C26.5405 17.8631 27.8854 16.7903 29.4518 16.1761V31.7708C27.8852 31.157 26.5402 30.0845 25.5926 28.6934C24.6451 27.3023 24.1391 25.6574 24.1409 23.9739ZM35.374 31.774V16.1753C36.9417 16.7887 38.2877 17.8614 39.2359 19.253C40.1841 20.6446 40.6903 22.2904 40.6882 23.9747C40.69 25.6589 40.1837 27.3045 39.2355 28.6961C38.2873 30.0876 36.9415 31.1604 35.374 31.774Z" fill="white"/>
<path d="M39.09 38.3998C46.8851 38.4375 54 31.98 54 24.1246C54 15.5349 46.8851 9.5968 39.09 9.60001H32.3813C24.4933 9.5968 18 15.5365 18 24.1246C18 31.9816 24.4933 38.4375 32.3813 38.3998H39.09Z" fill="#0079BE"/>
<path d="M32.4133 10.7903C25.2047 10.7927 19.3642 16.6923 19.3618 23.9739C19.3642 31.2546 25.2047 37.1542 32.4133 37.1566C39.6228 37.1542 45.4656 31.2546 45.4664 23.9739C45.4656 16.6923 39.6236 10.7927 32.4133 10.7903ZM24.1409 23.9739C24.1394 22.2903 24.6454 20.6455 25.593 19.2543C26.5405 17.8631 27.8854 16.7903 29.4518 16.1761V31.7708C27.8852 31.157 26.5402 30.0845 25.5926 28.6934C24.6451 27.3023 24.1391 25.6574 24.1409 23.9739ZM35.374 31.774V16.1753C36.9417 16.7887 38.2877 17.8614 39.2359 19.253C40.1841 20.6446 40.6903 22.2904 40.6882 23.9747C40.69 25.6589 40.1837 27.3045 39.2355 28.6961C38.2873 30.0876 36.9415 31.1604 35.374 31.774Z" fill="white"/>
</svg>
