<svg width="72" height="48" viewBox="0 0 72 48" fill="none" xmlns="http://www.w3.org/2000/svg">
<path fill-rule="evenodd" clip-rule="evenodd" d="M49.0941 15.9884V27.7081L51.1972 28.551L50.2023 30.8626L48.1225 30.0266C47.6549 29.8305 47.3384 29.5317 47.0979 29.1943C46.867 28.849 46.6959 28.3771 46.6959 27.7403V15.9884H49.0941ZM33.1436 24.6987C33.1958 21.3472 36.05 18.6719 39.5133 18.7233C42.4528 18.7679 44.8883 20.7588 45.528 23.4068L34.1591 28.1055C33.4987 27.1293 33.1234 25.9548 33.1436 24.6987ZM35.7449 25.1686C35.7293 25.028 35.7183 24.8838 35.7225 24.7383C35.7551 22.7637 37.4354 21.1881 39.4759 21.2209C40.5866 21.2352 41.5728 21.727 42.2394 22.4882L35.7449 25.1686ZM42.0001 27.3446C41.3149 27.9891 40.3857 28.3818 39.3598 28.3677C38.6566 28.3563 38.005 28.1527 37.451 27.8135L36.0776 29.9296C37.0182 30.5046 38.1273 30.8447 39.3229 30.8626C41.0633 30.8876 42.6496 30.2265 43.8031 29.1349L42.0001 27.3446ZM57.8473 21.2209C57.4376 21.2209 57.0439 21.2849 56.676 21.4043L55.8577 19.033C56.4823 18.8313 57.1512 18.7218 57.8473 18.7218C60.8848 18.7218 63.4188 20.8083 63.9999 23.58L61.4667 24.0794C61.1253 22.4482 59.6345 21.2209 57.8473 21.2209ZM53.6881 29.3395L55.3998 27.4677C54.6353 26.8132 54.1539 25.8573 54.1539 24.7919C54.1539 23.7276 54.6353 22.7722 55.3991 22.1182L53.6861 20.2464C52.3875 21.3585 51.5693 22.9836 51.5693 24.7919C51.5693 26.6025 52.3881 28.227 53.6881 29.3395ZM57.8471 28.3643C59.6327 28.3643 61.1233 27.1381 61.4666 25.5092L63.9991 26.0108C63.4152 28.7795 60.882 30.8632 57.8471 30.8632C57.1505 30.8632 56.4807 30.7532 55.8544 30.5506L56.6747 28.1802C57.0432 28.2992 57.4372 28.3643 57.8471 28.3643Z" fill="black"/>
<path d="M24.3072 25.1422C23.7292 27.9281 21.22 30.023 18.2125 30.023C17.5225 30.023 16.8583 29.9124 16.2386 29.7086L14.8572 33.7619C15.9114 34.1084 17.0394 34.2959 18.2125 34.2959C23.3246 34.2959 27.5888 30.7335 28.5715 25.9996L24.3072 25.1422Z" fill="#EC412A"/>
<path d="M11.1603 32.0075L13.7143 28.7097C12.5742 27.5566 11.8547 25.8731 11.8547 23.9966C11.8547 22.1215 12.5736 20.438 13.7133 19.2858L11.1579 15.9884C9.22075 17.9475 8 20.8093 8 23.9966C8 27.1856 9.22254 30.0483 11.1603 32.0075Z" fill="#1BA7DE"/>
<path d="M16.2366 18.2833C16.8563 18.0801 17.5192 17.9698 18.2089 17.9698C21.219 17.9698 23.7299 20.0673 24.3059 22.8538L28.5715 22.0005C27.5927 17.2648 23.3256 13.7 18.2089 13.7C17.0374 13.7 15.9098 13.8872 14.8572 14.2321L16.2366 18.2833Z" fill="#FECA2F"/>
</svg>
