<svg width="72" height="48" viewBox="0 0 72 48" fill="none" xmlns="http://www.w3.org/2000/svg">
<path fill-rule="evenodd" clip-rule="evenodd" d="M18.613 14.75H18.6699V16.1973H18.613C14.9447 16.1973 11.8407 18.615 10.8082 21.9467L9.42773 21.5079C10.6472 17.5916 14.2976 14.75 18.613 14.75Z" fill="url(#paint0_linear_401_1419)"/>
<path fill-rule="evenodd" clip-rule="evenodd" d="M18.6697 16.1973V14.75H18.6128C22.9412 14.75 26.6029 17.6115 27.8094 21.5476L26.4306 21.9881C25.4159 18.6531 22.3282 16.2222 18.6697 16.1973Z" fill="url(#paint1_linear_401_1419)"/>
<path fill-rule="evenodd" clip-rule="evenodd" d="M23.4143 30.988L24.2647 32.1604C22.6154 33.3586 20.6388 34.0003 18.6128 33.9952C16.6182 34.0004 14.6705 33.3788 13.0356 32.215L13.8877 31.0426C15.221 31.9915 16.8518 32.5495 18.6128 32.5495C20.4079 32.5495 22.0664 31.9699 23.4143 30.988Z" fill="url(#paint2_linear_401_1419)"/>
<path fill-rule="evenodd" clip-rule="evenodd" d="M9.42926 21.5079L10.8081 21.9467C10.565 22.7315 10.4416 23.5497 10.4423 24.3726C10.4423 27.1264 11.8016 29.5623 13.8877 31.0427L13.0373 32.2151C10.6748 30.531 9.10732 27.8054 9 24.7104V24.0365C9.03089 23.1588 9.17886 22.311 9.42926 21.5079Z" fill="url(#paint3_linear_401_1419)"/>
<path fill-rule="evenodd" clip-rule="evenodd" d="M28.2307 24.3728C28.2307 27.5754 26.6697 30.4103 24.2632 32.1606L23.4128 30.9899C24.4527 30.2412 25.3013 29.2497 25.8878 28.0985C26.4742 26.9473 26.7814 25.6697 26.7835 24.3728C26.7835 23.5415 26.6599 22.7384 26.4291 21.9833L27.8079 21.5428C28.0843 22.437 28.2307 23.3875 28.2307 24.3744V24.3728Z" fill="url(#paint4_linear_401_1419)"/>
<path fill-rule="evenodd" clip-rule="evenodd" d="M23.1169 25.802C23.1169 25.3008 22.7673 25.0762 21.9917 25.0762H20.0812V26.5246H21.9917C22.7803 26.5246 23.1169 26.3081 23.1169 25.802ZM21.7234 22.7654H20.0812V24.2137H21.7234C22.4665 24.2137 22.8031 23.9891 22.8031 23.4928C22.8031 22.9948 22.4616 22.7654 21.7234 22.7654ZM24.1201 25.8931C24.1201 26.8598 23.3494 27.4098 21.9901 27.4098H19.182C19.1332 27.4098 19.1007 27.3773 19.1007 27.3301V21.9598C19.1007 21.9126 19.1332 21.8817 19.182 21.8817H21.7429C23.0649 21.8817 23.7917 22.3911 23.7917 23.3105C23.7917 23.8557 23.5478 24.2935 22.8437 24.5034C23.7348 24.6889 24.0957 25.2145 24.1201 25.8931ZM17.9332 21.9598V22.71C17.9332 22.7589 17.9007 22.7898 17.8519 22.7898H14.5999V24.1909H17.2991C17.3479 24.1909 17.3788 24.2235 17.3788 24.2707V25.0193C17.3788 25.0681 17.3462 25.1006 17.2975 25.1006H14.6016V27.3301C14.6016 27.3789 14.569 27.4098 14.5203 27.4098H13.7024C13.6536 27.4098 13.6211 27.3773 13.6211 27.3301V21.9598C13.6211 21.9126 13.6536 21.8817 13.7024 21.8817H17.8535C17.9023 21.8817 17.9348 21.9143 17.9348 21.9598H17.9332Z" fill="#64717D"/>
<path fill-rule="evenodd" clip-rule="evenodd" d="M55.7215 21.135C56.5191 23.594 57.4351 26.0129 58.4662 28.3833L60.9865 21.135H63.0011L59.3897 30.4988C58.928 31.6982 58.38 32.6225 57.7459 33.2735C57.1117 33.9244 56.2613 34.2499 55.1963 34.2499C54.9313 34.2499 54.6809 34.2287 54.4484 34.1864V32.5509C54.6435 32.5819 54.8175 32.5965 54.9638 32.5965C55.6109 32.5965 56.1378 32.4175 56.5443 32.0562C56.9508 31.6966 57.3085 31.1677 57.6158 30.4712C56.853 28.9639 56.1415 27.4311 55.4825 25.8755C54.8177 24.3079 54.1834 22.7274 53.5801 21.135H55.7215ZM48.242 20.917C49.3736 20.917 50.2842 21.2376 50.9736 21.8787C51.6647 22.5216 52.0094 23.4817 52.0094 24.7592V30.2157H50.237V28.7348C49.8793 29.2686 49.4192 29.6787 48.8598 29.9667C48.2662 30.2618 47.6104 30.4097 46.9477 30.398C45.9737 30.398 45.2176 30.1506 44.6794 29.6575C44.1412 29.1644 43.8713 28.5135 43.8713 27.7096C43.8713 26.9105 44.1753 26.2401 44.7818 25.7014C45.3883 25.1644 46.3558 24.8926 47.6859 24.8926H50.198V24.8666C50.198 23.3401 49.4842 22.5769 48.0566 22.5769C47.4582 22.5769 46.9558 22.6827 46.5444 22.8958C46.1363 23.1074 45.8046 23.4036 45.5526 23.786L44.2875 22.777C44.681 22.1782 45.1997 21.7176 45.8436 21.3971C46.5276 21.0668 47.2794 20.9018 48.0387 20.9154H48.2403L48.242 20.917ZM37.7478 17.5028C39.3673 17.5028 40.577 17.882 41.377 18.6419C42.177 19.4019 42.5786 20.432 42.5786 21.7339C42.5786 23.0309 42.177 24.061 41.377 24.8226C40.577 25.5859 39.3673 25.9667 37.7478 25.9667H34.2747V30.2173H32.3333V17.5028H37.7462H37.7478ZM50.198 26.3214H47.759C47.0338 26.3214 46.5151 26.4353 46.203 26.6632C46.0549 26.7658 45.9349 26.9038 45.8537 27.0647C45.7725 27.2255 45.7327 27.4041 45.7379 27.5843C45.7379 28.3817 46.2745 28.782 47.3542 28.782C48.068 28.782 48.6615 28.6241 49.1362 28.3052C49.611 27.9878 49.9655 27.5566 50.198 27.0114V26.3214ZM37.5641 19.2815H34.2747V24.1863H37.5624C38.6161 24.1863 39.3836 23.9829 39.8681 23.5728C40.351 23.166 40.5917 22.5525 40.5917 21.7339C40.5917 20.917 40.351 20.3035 39.8681 19.895C39.3836 19.4865 38.6161 19.2815 37.5624 19.2815H37.5641Z" fill="#1B2529"/>
<defs>
<linearGradient id="paint0_linear_401_1419" x1="18.6699" y1="16.6229" x2="11.2642" y2="21.9882" gradientUnits="userSpaceOnUse">
<stop stop-color="#24D365"/>
<stop offset="1" stop-color="#139DBD"/>
</linearGradient>
<linearGradient id="paint1_linear_401_1419" x1="18.6128" y1="16.5749" x2="26.0402" y2="21.9711" gradientUnits="userSpaceOnUse">
<stop stop-color="#23D068"/>
<stop offset="0.52" stop-color="#EACD36"/>
<stop offset="1" stop-color="#FF6C5C"/>
</linearGradient>
<linearGradient id="paint2_linear_401_1419" x1="13.46" y1="31.647" x2="23.8257" y2="31.647" gradientUnits="userSpaceOnUse">
<stop stop-color="#266FF3"/>
<stop offset="1" stop-color="#C439D6"/>
</linearGradient>
<linearGradient id="paint3_linear_401_1419" x1="11.8569" y1="31.6769" x2="8.74203" y2="22.5971" gradientUnits="userSpaceOnUse">
<stop stop-color="#266FF3"/>
<stop offset="1" stop-color="#149FBA"/>
</linearGradient>
<linearGradient id="paint4_linear_401_1419" x1="26.1071" y1="21.773" x2="22.9857" y2="30.8145" gradientUnits="userSpaceOnUse">
<stop stop-color="#FF6C5C"/>
<stop offset="1" stop-color="#C439D6"/>
</linearGradient>
</defs>
</svg>
