<svg width="72" height="48" viewBox="0 0 72 48" fill="none" xmlns="http://www.w3.org/2000/svg">
<path d="M31.3045 20.7936C31.3045 20.7936 31.4508 14.9671 32.9276 13.2717C35.4256 10.4068 38.1559 10.2526 39.2386 10.1915C39.3476 10.1853 39.4399 10.1801 39.5136 10.1732C39.5931 10.165 39.6637 10.1627 39.7358 10.1604C38.7518 10.0647 37.6841 10.0135 36.5252 10.0008C36.384 10 36.2474 10 36.1079 10H35.8607C35.7216 10 35.5846 10 35.4438 10.0008C26.2937 10.1007 22.7811 12.584 22.1088 20.7936H31.3045Z" fill="#659AD2"/>
<path d="M30.4081 30.7833C29.3758 32.009 27.8897 31.9266 27.8689 31.9254V36.907C24.1923 35.4978 22.5351 32.5595 22.1029 27.1416C22.0507 26.4888 22.0195 25.915 22 25.4396L31.3049 25.4363L31.2986 25.9626C31.2877 26.8712 31.2664 28.6367 31.2688 28.6955C31.2759 28.9543 31.207 29.8359 30.4081 30.7833Z" fill="#659AD2"/>
<path d="M42.6817 10.6525C47.3574 11.8347 49.3826 14.7892 49.866 20.8588C50.0166 22.7441 49.9993 23.9998 49.9993 23.9998C49.9993 23.9998 50.0168 25.2562 49.8663 27.1412C49.2081 35.4033 45.6995 37.899 36.5255 37.9993C36.3843 38.0001 35.5849 38.0001 35.4441 37.9993C33.8528 37.9816 32.4371 37.8902 31.1722 37.7116C31.1776 37.7115 31.183 37.7115 31.1884 37.7114C31.2272 37.7111 31.2653 37.7108 31.3048 37.7082C32.9647 37.6178 35.2756 36.4024 36.651 33.575C37.2518 32.3386 37.4132 30.1314 37.4132 30.1314V25.4371L37.4136 25.4359H42.6822V20.7931H37.4141C37.4141 20.7931 37.4114 20.7874 37.4097 20.7786C37.4092 20.7771 37.4088 20.7742 37.4083 20.7725C37.407 20.7687 37.406 20.7647 37.4048 20.7602C37.4033 20.7548 37.4016 20.7486 37.399 20.7409C37.3989 20.7393 37.3985 20.7373 37.3981 20.7352C37.3976 20.7322 37.3971 20.729 37.3968 20.7262C37.3931 20.7128 37.3897 20.6998 37.3871 20.6819C37.3858 20.6775 37.385 20.6722 37.3842 20.6669C37.3837 20.6633 37.3831 20.6597 37.3824 20.6562C37.3789 20.6388 37.376 20.6212 37.3731 20.6003C37.371 20.5922 37.3703 20.582 37.3696 20.5724C37.3695 20.5702 37.3693 20.568 37.3692 20.5659C37.3656 20.5438 37.3632 20.5228 37.3603 20.4976C37.3599 20.4924 37.3597 20.487 37.3595 20.4814C37.3592 20.4734 37.3589 20.4652 37.3581 20.4576C37.3577 20.4524 37.3574 20.4471 37.357 20.4419C37.3555 20.4204 37.354 20.3988 37.3537 20.3746C37.3534 20.3675 37.3534 20.3599 37.3534 20.3523C37.3534 20.3447 37.3534 20.3371 37.3532 20.3299C37.3532 20.3194 37.353 20.309 37.3528 20.2984C37.3523 20.2772 37.3519 20.2555 37.3532 20.2321C37.3532 20.2241 37.3538 20.2153 37.3544 20.2065C37.3548 20.1997 37.3552 20.1928 37.3554 20.1861C37.3563 20.1489 37.3579 20.1119 37.3621 20.0707C37.3625 20.0648 37.3632 20.0584 37.364 20.052C37.3648 20.045 37.3656 20.0379 37.3661 20.031C37.3703 19.986 37.3758 19.9406 37.3831 19.8923C37.3835 19.8877 37.3845 19.883 37.3855 19.8783C37.3864 19.8737 37.3873 19.8691 37.3877 19.8648C37.3966 19.8101 37.4061 19.7546 37.4187 19.6962C37.4187 19.6954 37.4189 19.6943 37.4192 19.6931C37.4193 19.6925 37.4195 19.6918 37.4196 19.6912C37.5086 19.2853 37.6994 18.7858 38.0818 18.2198C39.1098 16.7011 42.0293 16.7726 42.5892 16.8007C42.6325 16.8032 42.6618 16.8051 42.6746 16.8059C42.6791 16.8062 42.6815 16.8064 42.6817 16.8064V10.6525Z" fill="#659AD2"/>
</svg>
