<svg width="72" height="48" viewBox="0 0 72 48" fill="none" xmlns="http://www.w3.org/2000/svg">
<path fill-rule="evenodd" clip-rule="evenodd" d="M13.8801 15.4736C12.6534 15.4756 11.6608 16.3576 11.6584 17.4475V30.5524C11.6608 31.6421 12.6534 32.5242 13.8801 32.5263H36.9956V15.4736H13.8801ZM13.8802 14H58.1198C60.2629 14.0003 61.9993 15.5428 62 17.4476V30.5525C61.9993 32.4567 60.2629 33.9993 58.1198 34H13.8802C11.7369 33.9993 10.0007 32.4567 10 30.5525V17.4476C10.0007 15.5428 11.7369 14.0003 13.8802 14Z" fill="#0F3365"/>
<path fill-rule="evenodd" clip-rule="evenodd" d="M40.7785 28.4089H38.8379V21.4047H40.6278V22.3055H40.6495C41.0375 21.606 41.8573 21.2898 42.7416 21.2898C44.2945 21.2898 45.1457 22.6026 45.1457 23.8096C45.1457 25.2853 44.2508 26.5117 42.5795 26.5117C41.9003 26.5117 41.1669 26.2916 40.8002 25.6976H40.7785V28.4089ZM41.9655 25.1894C42.6983 25.1894 43.1405 24.6435 43.1405 23.8481C43.1405 23.1866 42.7199 22.612 41.9655 22.612C41.2534 22.612 40.7786 23.1678 40.7786 23.915C40.7786 24.6435 41.3182 25.1894 41.9655 25.1894ZM52.5827 28.4089C52.9819 28.4857 53.3806 28.5241 53.7905 28.5241C55.4692 28.5241 55.9383 27.4408 56.4474 26.2652C56.478 26.1945 56.5088 26.1235 56.5399 26.0523L58.5999 21.4047H56.6589L55.5048 24.6623H55.4833L54.2755 21.4047H52.1843L54.4585 26.5117C54.3192 26.9524 53.9524 27.2017 53.4786 27.2017C53.2082 27.2017 52.9709 27.1735 52.7126 27.0961L52.5827 28.4089ZM51.859 26.5591C51.7729 26.1664 51.7509 25.7738 51.7509 25.3807V23.5219C51.7509 21.9984 50.5111 21.4525 49.0769 21.4525C48.2463 21.4525 47.524 21.5575 46.834 21.8071L46.8659 22.9759C47.4056 22.7078 48.0308 22.6022 48.6558 22.6022C49.357 22.6022 49.9289 22.7842 49.9395 23.4648C49.6915 23.4261 49.3468 23.397 49.034 23.397C47.9987 23.397 46.1333 23.5797 46.1333 25.103C46.1333 26.1861 47.1253 26.6747 48.236 26.6747C49.034 26.6747 49.5731 26.3964 50.0149 25.7738H50.0361C50.0361 25.9257 50.0474 26.0777 50.059 26.2315L50.059 26.2315L50.059 26.2316C50.0671 26.3397 50.0752 26.4487 50.0796 26.5591H51.859ZM47.9443 24.9784C47.9443 24.4993 48.4618 24.3173 49.1197 24.3173C49.326 24.3173 49.5267 24.3269 49.7144 24.3359C49.7918 24.3395 49.8669 24.3431 49.9393 24.3459C49.9393 24.9301 49.476 25.525 48.7421 25.525C48.2894 25.525 47.9443 25.3229 47.9443 24.9784Z" fill="#FFFFFE"/>
<path fill-rule="evenodd" clip-rule="evenodd" d="M21.9703 26.3963H23.9111V21.4046H21.9703V26.3963ZM21.9703 20.5901H23.9111V19.3253H21.9703V20.5901ZM28.6579 21.2896C28.8841 21.2896 29.1212 21.3184 29.3154 21.3466L29.2181 22.7839C29.0028 22.7267 28.787 22.7267 28.5608 22.7267C27.6551 22.7267 27.1481 23.3112 27.1481 24.2889V26.3963H25.2073V21.4046H26.9757V22.3241H26.997C27.3315 21.692 27.8168 21.2896 28.6579 21.2896ZM35.9243 23.9056C35.9243 25.5536 34.5116 26.5115 32.6574 26.5115C30.8028 26.5115 29.3901 25.5536 29.3901 23.9056C29.3901 22.2475 30.8028 21.2896 32.6574 21.2896C34.5116 21.2896 35.9243 22.2475 35.9243 23.9056ZM31.3958 23.9058C31.3958 24.6436 31.7623 25.3044 32.6574 25.3044C33.5523 25.3044 33.919 24.6436 33.919 23.9058C33.919 23.1583 33.5523 22.4972 32.6574 22.4972C31.7623 22.4972 31.3958 23.1583 31.3958 23.9058ZM18.8729 21.4046H20.6309V25.8124C20.6309 27.8625 19.5095 28.524 17.2451 28.524C16.3179 28.524 15.5522 28.3511 15.0992 28.2079L15.1965 26.8472C15.7894 27.1059 16.2854 27.259 17.0942 27.259C18.2157 27.259 18.8193 26.7897 18.8193 25.8124V25.5435H18.7975C18.3341 26.1287 17.6873 26.3963 16.911 26.3963C15.3689 26.3963 14.4092 25.3623 14.4092 23.8861C14.4092 22.4008 15.1965 21.2896 16.9431 21.2896C17.7732 21.2896 18.4419 21.692 18.8518 22.305H18.8729V21.4046ZM17.515 22.6119C16.7924 22.6119 16.415 23.1772 16.415 23.8572C16.415 24.6331 16.9327 25.0743 17.515 25.0743C18.2048 25.0743 18.7549 24.557 18.7549 23.7901C18.7549 23.2341 18.3882 22.6119 17.515 22.6119Z" fill="#D8232A"/>
</svg>
