<svg width="72" height="48" viewBox="0 0 72 48" fill="none" xmlns="http://www.w3.org/2000/svg">
<path fill-rule="evenodd" clip-rule="evenodd" d="M34.0603 30.5136V24.4682H37.1786C38.4564 24.4682 39.535 24.0398 40.4142 23.1949L40.6252 22.9807C42.2313 21.2313 42.1258 18.5061 40.4142 16.8877C39.5584 16.0309 38.3861 15.5667 37.1786 15.5905H32.1729V30.5136H34.0603ZM34.0605 22.6355V17.4231H37.2263C37.9063 17.4231 38.5512 17.6849 39.0319 18.161C40.052 19.1606 40.0755 20.8266 39.0906 21.862C38.6098 22.3737 37.9298 22.6593 37.2263 22.6355H34.0605ZM49.4294 21.1004C48.6205 20.3507 47.5185 19.9699 46.1234 19.9699C44.3298 19.9699 42.9816 20.6363 42.0907 21.9573L43.7554 23.0164C44.365 22.112 45.1973 21.6597 46.2524 21.6597C46.9206 21.6597 47.5654 21.9096 48.0695 22.3619C48.5618 22.7903 48.8432 23.4091 48.8432 24.0636V24.5039C48.1164 24.0993 47.202 23.8851 46.0765 23.8851C44.7636 23.8851 43.7085 24.1945 42.923 24.8252C42.1376 25.4559 41.739 26.289 41.739 27.3481C41.7155 28.312 42.1259 29.2284 42.8527 29.8472C43.5912 30.5136 44.5291 30.8468 45.6311 30.8468C46.9323 30.8468 47.964 30.2637 48.7494 29.0975H48.8315V30.5136H50.6368V24.2183C50.6368 22.8974 50.2383 21.8501 49.4294 21.1004ZM44.307 28.6333C43.92 28.3477 43.6855 27.8836 43.6855 27.3838C43.6855 26.8244 43.9435 26.3603 44.4477 25.9914C44.9636 25.6225 45.6084 25.4321 46.3706 25.4321C47.4258 25.4202 48.2466 25.6582 48.8328 26.1342C48.8328 26.9434 48.5162 27.6456 47.8948 28.2406C47.332 28.8118 46.5699 29.1331 45.7726 29.1331C45.245 29.145 44.7291 28.9665 44.307 28.6333ZM54.693 35.0001L61.0001 20.3032H58.9485L56.0295 27.6338H55.9943L53.0049 20.3032H50.9534L55.0916 29.8592L52.747 35.0001H54.693Z" fill="#3C4043"/>
<path d="M27.5445 23.1592C27.5445 22.5761 27.4976 21.993 27.4038 21.4218H19.4438V24.7182H24.0041C23.8166 25.7773 23.207 26.7293 22.316 27.3244V29.4664H25.0358C26.6301 27.9789 27.5445 25.7773 27.5445 23.1592Z" fill="#4285F4"/>
<path d="M19.444 31.537C21.7183 31.537 23.6409 30.7754 25.0359 29.4664L22.3161 27.3243C21.5541 27.8479 20.5811 28.1454 19.444 28.1454C17.24 28.1454 15.376 26.6341 14.7078 24.611H11.906V26.8245C13.3362 29.7163 16.2553 31.537 19.444 31.537Z" fill="#34A853"/>
<path d="M14.708 24.6111C14.3563 23.552 14.3563 22.3977 14.708 21.3266V19.1251H11.9058C10.6981 21.5408 10.6981 24.3969 11.9058 26.8127L14.708 24.6111Z" fill="#FBBC04"/>
<path d="M19.444 17.7921C20.6515 17.7683 21.812 18.2324 22.6796 19.0773L25.0945 16.6259C23.5588 15.174 21.5424 14.3767 19.444 14.4005C16.2553 14.4005 13.3362 16.2332 11.906 19.1249L14.7078 21.3384C15.376 19.3035 17.24 17.7921 19.444 17.7921Z" fill="#EA4335"/>
</svg>
