<svg width="72" height="48" viewBox="0 0 72 48" fill="none" xmlns="http://www.w3.org/2000/svg">
<path fill-rule="evenodd" clip-rule="evenodd" d="M21 10.1H37.4893C48.6942 10.1 53 16.2288 53 23.9755C53 33.2422 46.9817 37.9 37.4893 37.9H21V10.1ZM22.5657 11.767V36.3311H37.4892C46.4923 36.3311 51.3852 32.1145 51.3852 24.0245C51.3852 15.6894 46.1008 11.767 37.4892 11.767H22.5657ZM26.9693 24.4656C28.6177 24.4656 29.954 23.1265 29.954 21.4747C29.954 19.8229 28.6177 18.4839 26.9693 18.4839C25.3209 18.4839 23.9846 19.8229 23.9846 21.4747C23.9846 23.1265 25.3209 24.4656 26.9693 24.4656ZM24.572 25.7407H29.3671V34.272H24.572V25.7407Z" fill="black"/>
<path fill-rule="evenodd" clip-rule="evenodd" d="M45.9543 18.7293H47.3243V22.8479H49.3304C48.7922 15.3463 42.8717 13.6792 37.4894 13.6792H31.7646V18.7293H32.5965C34.1622 18.7293 35.0919 19.759 35.0919 21.475C35.0919 23.1911 34.1622 24.2207 32.6454 24.2207H31.7646V34.2718H37.4894C46.2478 34.2718 49.2325 30.2023 49.3793 24.2207H45.9543V18.7293ZM39.3487 22.8476V24.2205H35.9236V18.7291H39.2508V20.102H37.2936V20.7394H39.1529V22.1122H37.3425V22.8476H39.3487ZM39.9358 24.2205L41.5994 18.7291H43.5566L45.2202 24.2205H43.8012L43.5077 23.1909H41.6973L41.4037 24.2205H39.9358ZM42.1039 21.7692H42.0886V21.8182L42.1039 21.7692ZM42.1039 21.7692H43.0672L42.6268 20.2492H42.5779L42.1039 21.7692ZM31.7646 22.8478V20.1021H32.5965C33.1347 20.1021 33.7218 20.2492 33.7218 21.475C33.7218 22.7007 33.1836 22.8478 32.5965 22.8478H31.7646Z" fill="#D50072"/>
</svg>
