<svg width="72" height="48" viewBox="0 0 72 48" fill="none" xmlns="http://www.w3.org/2000/svg">
<path fill-rule="evenodd" clip-rule="evenodd" d="M52.0042 37.3356C52.0042 38.0422 51.7235 38.72 51.2238 39.2196C50.7241 39.7193 50.0464 40.0001 49.3397 40.0001H22.6675C22.3174 40.0005 21.9706 39.9318 21.6469 39.7981C21.3233 39.6644 21.0292 39.4682 20.7815 39.2207C20.5337 38.9733 20.3372 38.6794 20.2031 38.3559C20.069 38.0324 20 37.6857 20 37.3356V10.6646C20 10.3144 20.069 9.96767 20.2031 9.6442C20.3372 9.32073 20.5337 9.02687 20.7815 8.7794C21.0292 8.53194 21.3233 8.33574 21.6469 8.20202C21.9706 8.06829 22.3174 7.99966 22.6675 8.00006H49.3379C50.0446 8.00006 50.7223 8.28079 51.222 8.78048C51.7217 9.28017 52.0024 9.95789 52.0024 10.6646L52.0042 37.3356Z" fill="#EDAA00"/>
<path d="M37.8697 24.3456V18.6151L39.366 18.2608V19.0111C39.366 19.0111 39.753 18.0235 40.6516 17.7939C40.9284 17.7243 41.0677 17.7661 41.0677 17.7661V19.2279C40.7984 19.2316 40.5323 19.2871 40.284 19.3914C39.7293 19.61 39.4508 20.0884 39.4508 20.8151V23.9792L37.8697 24.3456ZM29.9846 26.2089C29.9846 26.2089 29.7423 25.8456 29.7423 24.5545V21.7017L28.9721 21.8833V20.7091L29.7429 20.5275V19.2461L31.3338 18.8706V20.149L32.4577 19.8825V21.0573L31.3338 21.3244V24.2311C31.3338 25.5519 31.6844 25.8056 31.6844 25.8056L29.9846 26.2089ZM32.6236 22.8002C32.6236 21.781 32.769 21.038 33.0802 20.4675C33.4502 19.7905 34.0588 19.3496 34.9442 19.148C36.6888 18.7513 37.318 19.7844 37.2932 21.1688C37.2853 21.6635 37.2871 21.9051 37.2871 21.9051L34.2132 22.6276V22.6772C34.2132 23.6461 34.4167 24.1046 35.0295 23.9738C35.5588 23.8623 35.706 23.5305 35.7477 23.1211C35.755 23.0539 35.7574 22.8862 35.7574 22.8862L37.1981 22.541C37.1981 22.541 37.2017 22.6591 37.1981 22.7905C37.1848 23.3409 37.0249 24.7059 35.0235 25.1782C33.1281 25.6282 32.6218 24.4703 32.6218 22.8002H32.6236ZM35.0059 20.215C34.4966 20.3307 34.2296 20.8303 34.2187 21.6581L35.7653 21.2899C35.7683 21.2523 35.7683 21.1688 35.7683 21.0404C35.7653 20.4161 35.5721 20.0866 35.0065 20.215H35.0059ZM46.4487 19.449C46.3882 17.7037 46.8411 16.3182 48.788 15.8761C50.0307 15.5939 50.5012 15.9161 50.7398 16.2279C50.9693 16.5259 51.0577 16.9274 51.0577 17.4899V17.5941L49.5329 17.9574V17.7449C49.5329 17.0788 49.3512 16.8244 48.8668 16.9455C48.2909 17.0903 48.0583 17.6365 48.0583 18.7241V19.231C48.0583 20.3361 48.2097 20.8424 48.8728 20.7031C49.4493 20.582 49.528 20.0781 49.5389 19.6349C49.5389 19.5652 49.5432 19.3424 49.5432 19.3424L51.0656 18.9839V19.2207C51.0613 20.6692 50.2977 21.5824 48.8661 21.9154C46.8962 22.3781 46.5099 21.2378 46.4493 19.449H46.4487ZM41.1821 21.8918C41.1821 20.5644 41.9609 20.1448 43.1314 19.6609C44.1833 19.2255 44.2057 19.0093 44.2105 18.6314C44.216 18.3135 44.0688 18.0404 43.5444 18.1742C43.063 18.2954 42.9352 18.6454 42.9098 18.9239C42.9009 19.0218 42.8977 19.12 42.9001 19.2182L41.4243 19.5664C41.4144 19.2723 41.4487 18.9784 41.5261 18.6944C41.7622 17.9005 42.4629 17.3664 43.6704 17.0872C45.24 16.7239 45.7638 17.4143 45.7663 18.4861V21.024C45.7663 22.2515 45.9939 22.4308 45.9939 22.4308L44.5448 22.7741C44.4647 22.6066 44.3995 22.4323 44.3498 22.2533C44.3498 22.2533 44.0331 23.0521 42.9395 23.3101C41.7889 23.5801 41.1833 22.8692 41.1833 21.8924L41.1821 21.8918ZM44.2021 20.08C43.9577 20.2512 43.6997 20.4021 43.4306 20.5311C42.9461 20.7679 42.7287 21.0586 42.7287 21.5067C42.7287 21.8948 42.971 22.1504 43.407 22.0414C43.8763 21.9239 44.2021 21.4861 44.2021 20.8787V20.08ZM21.6689 30.2256C21.5035 30.2253 21.3413 30.1804 21.1993 30.0956C21.0573 30.0108 20.9408 29.8894 20.862 29.744C20.7832 29.5986 20.7451 29.4346 20.7517 29.2694C20.7582 29.1041 20.8092 28.9437 20.8992 28.805L20.9089 28.7923L20.9265 28.788L23.0884 28.2775V29.9204L23.0544 29.9283C22.5639 30.0464 21.9777 30.1802 21.8566 30.205C21.7946 30.2189 21.7312 30.2258 21.6677 30.2256H21.6689ZM21.6689 32.3276C21.426 32.3276 21.1929 32.2313 21.0208 32.0597C20.8487 31.8882 20.7517 31.6555 20.7509 31.4125C20.7499 31.2352 20.8015 31.0616 20.8992 30.9136L20.9089 30.8972L20.9265 30.8936L23.0884 30.3831V32.026L23.0544 32.0351C22.5639 32.1526 21.9777 32.2888 21.8566 32.3124C21.7944 32.3246 21.7311 32.3307 21.6677 32.3306L21.6689 32.3276ZM21.6689 34.4331C21.4254 34.433 21.1919 34.3361 21.0197 34.1638C20.8476 33.9916 20.7509 33.758 20.7509 33.5145C20.7499 33.3371 20.8015 33.1635 20.8992 33.0155L20.9089 32.9985L23.089 32.485V34.1279L23.0551 34.1364C22.5373 34.2611 21.9614 34.3913 21.8572 34.415C21.795 34.4268 21.7317 34.4329 21.6683 34.4331" fill="#231F20"/>
<path d="M21.4145 28.2121L21.4139 19.0202L23.0895 18.6241V27.8154L21.4145 28.2121Z" fill="#231F20"/>
<path d="M25.5889 27.4303C25.5824 27.1604 25.4705 26.9038 25.2773 26.7152C25.0841 26.5266 24.8249 26.421 24.5549 26.421C24.2849 26.421 24.0256 26.5266 23.8324 26.7152C23.6392 26.9038 23.5274 27.1604 23.5209 27.4303V36.0221C23.5222 36.7641 23.8174 37.4753 24.342 38C24.8666 38.5248 25.5778 38.8202 26.3198 38.8216C27.1022 38.8216 29.2459 38.818 29.2459 38.818V31.2369C29.2463 31.014 29.1916 30.7946 29.0867 30.5979C28.9818 30.4013 28.8299 30.2337 28.6446 30.1099L26.0358 28.3381V32.3614C26.0374 32.3916 26.0328 32.4217 26.0224 32.45C26.0119 32.4783 25.9958 32.5042 25.9751 32.526C25.9543 32.5479 25.9293 32.5653 25.9016 32.5772C25.8739 32.5891 25.844 32.5953 25.8139 32.5953C25.7837 32.5953 25.7538 32.5891 25.7261 32.5772C25.6984 32.5653 25.6734 32.5479 25.6527 32.526C25.6319 32.5042 25.6158 32.4783 25.6054 32.45C25.5949 32.4217 25.5903 32.3916 25.5919 32.3614C25.5919 32.3184 25.5865 27.9614 25.5865 27.4303H25.5889ZM26.9853 21.0204C26.6685 21.0936 26.3712 21.2343 26.1137 21.4328C25.8562 21.6314 25.6446 21.8832 25.4932 22.171V21.5272L23.9847 21.8845V26.0103C24.2493 25.9059 24.5376 25.8766 24.8178 25.9256C25.098 25.9747 25.3591 26.1001 25.5725 26.2882V23.6237C25.5725 22.986 25.8911 22.4762 26.344 22.3762C26.6862 22.3011 26.9708 22.4235 26.9708 23.0309V26.918L28.5592 26.545V22.4338C28.5592 21.4364 28.1765 20.7382 26.9847 21.0204H26.9853ZM50.0786 15.1373C49.8843 15.1374 49.6942 15.0799 49.5325 14.972C49.3708 14.8641 49.2447 14.7107 49.1702 14.5311C49.0957 14.3516 49.0762 14.154 49.114 13.9633C49.1518 13.7726 49.2453 13.5974 49.3826 13.4599C49.52 13.3224 49.6951 13.2287 49.8857 13.1906C50.0763 13.1526 50.274 13.1719 50.4536 13.2462C50.6332 13.3205 50.7868 13.4464 50.8949 13.6079C51.003 13.7695 51.0607 13.9595 51.0609 14.1538C51.0604 14.4141 50.9567 14.6636 50.7726 14.8476C50.5885 15.0316 50.3389 15.1352 50.0786 15.1355V15.1373ZM50.0786 13.2939C49.9087 13.2939 49.7426 13.3443 49.6013 13.4387C49.46 13.5331 49.3499 13.6673 49.2848 13.8243C49.2198 13.9812 49.2027 14.154 49.2358 14.3207C49.2689 14.4873 49.3507 14.6404 49.4708 14.7606C49.5909 14.8808 49.744 14.9627 49.9106 14.996C50.0773 15.0292 50.25 15.0122 50.4071 14.9473C50.5641 14.8824 50.6983 14.7723 50.7928 14.6311C50.8873 14.4899 50.9378 14.3238 50.9379 14.1538C50.9376 13.926 50.847 13.7075 50.6859 13.5464C50.5249 13.3852 50.3065 13.2944 50.0786 13.2939Z" fill="#231F20"/>
<path d="M49.7207 13.5694H50.1446C50.3136 13.5694 50.4474 13.6536 50.4474 13.8771C50.4474 14.0327 50.3784 14.1526 50.2475 14.1732C50.3687 14.1853 50.4292 14.2507 50.4347 14.4196C50.4347 14.4953 50.4383 14.5898 50.4419 14.6619C50.4419 14.6825 50.4471 14.7027 50.4571 14.7207C50.467 14.7387 50.4814 14.7539 50.4989 14.7648H50.2833C50.2616 14.7338 50.2502 14.6967 50.2506 14.6588C50.2433 14.5868 50.2445 14.5196 50.2421 14.4324C50.2421 14.3016 50.1991 14.244 50.0671 14.244H49.9151V14.7648H49.7231L49.7207 13.5694ZM50.0653 14.1035C50.0913 14.1059 50.1176 14.1025 50.1421 14.0935C50.1667 14.0845 50.1889 14.0702 50.2073 14.0515C50.2256 14.0328 50.2395 14.0103 50.2481 13.9856C50.2566 13.9609 50.2595 13.9345 50.2566 13.9085C50.2566 13.7808 50.2021 13.7142 50.075 13.7142H49.9151V14.1035H50.0653Z" fill="#231F20"/>
</svg>
