<svg width="72" height="48" viewBox="0 0 72 48" fill="none" xmlns="http://www.w3.org/2000/svg">
<path fill-rule="evenodd" clip-rule="evenodd" d="M36.8262 27.8147L36.8351 20.9758C36.8351 20.6756 36.6551 20.4943 36.357 20.4943L29.6116 20.4854C29.4581 20.4854 29.3371 20.53 29.2545 20.6162C29.1748 20.6994 29.1335 20.8183 29.1335 20.9669L29.1247 27.8057C29.1247 28.1208 29.2899 28.2872 29.6027 28.2872L36.3482 28.2961C36.4957 28.2961 36.6138 28.2545 36.6964 28.1743C36.782 28.0911 36.8262 27.9692 36.8262 27.8147ZM36.9177 19.0529C37.8531 19.0529 38.3252 19.5314 38.3252 20.4706L38.3164 28.3229C38.3164 29.2769 37.8413 29.7406 36.9059 29.7376L29.0391 29.7287C28.089 29.7287 27.6316 29.265 27.6316 28.311L27.6404 20.4587C27.6404 19.5195 28.1008 19.041 29.0509 19.0439L36.9177 19.0529ZM45.5605 26.4445C45.6136 26.4178 45.655 26.4059 45.7081 26.3791C46.5608 25.9511 47.3074 25.4429 47.9713 24.8574C48.4789 24.4027 48.771 24.0163 48.8241 23.7221C48.8241 23.6537 48.7444 23.6151 48.6116 23.6151L42.3825 23.6091C42.3973 23.6359 42.4091 23.6626 42.4209 23.6626C42.5537 23.8112 42.6747 23.945 42.7661 24.052C43.4566 24.9079 44.3212 25.6718 45.3717 26.3435C45.4248 26.3821 45.4927 26.4237 45.5576 26.4505L45.5605 26.4445ZM63.814 20.1228C63.935 20.2031 64 20.4022 64 20.7113C64 20.952 63.9586 21.1274 63.8937 21.2076C63.7727 21.3681 63.5868 21.4335 63.3213 21.4335H62.2826L62.2737 28.4982C62.2737 28.8192 62.1262 29.0867 61.8606 29.3007C61.6216 29.4731 61.2351 29.595 60.701 29.6484C60.1698 29.6484 50.2493 30.2577 45.5163 27.9989C44.5041 28.4269 43.3327 28.8668 41.9753 29.3067C41.217 29.5325 40.6298 29.6514 40.2314 29.6782C40.019 29.6782 39.8331 29.5979 39.7003 29.4642C39.5675 29.3304 39.4996 29.1818 39.5026 29.0481C39.5026 28.739 39.5823 28.525 39.7681 28.418C41.4589 27.9662 42.8694 27.5264 44.0143 27.0984C43.2707 26.5634 42.4858 25.8531 41.6625 24.9406C41.3173 24.578 41.1432 24.2986 41.1314 24.0846C41.1314 23.8825 41.1845 23.7221 41.3055 23.6032H40.7065C40.4527 23.6032 40.2934 23.5497 40.2285 23.413C40.1222 23.306 40.0839 23.1455 40.0839 22.9315C40.0839 22.7294 40.137 22.5689 40.258 22.45C40.3642 22.3578 40.5117 22.3044 40.7094 22.3044L44.7697 22.3103V20.53L40.2993 20.5241C40.0721 20.5241 39.9009 20.4706 39.78 20.3636C39.6737 20.2685 39.6206 20.0961 39.6206 19.8405C39.6206 19.6116 39.6737 19.4392 39.78 19.3203C39.9009 19.2134 40.0721 19.1599 40.2993 19.1599L44.7697 19.1658V18.0156C44.7697 17.8283 44.8376 17.656 44.9851 17.4925C45.0795 17.3974 45.2654 17.3469 45.5576 17.3469C45.8113 17.3469 45.9972 17.4004 46.1035 17.4955C46.251 17.6292 46.3307 17.8046 46.3277 18.0186V19.1688L51.0106 19.1747C51.2496 19.1747 51.4237 19.2282 51.53 19.3352C51.6362 19.4155 51.6893 19.5908 51.6893 19.8583C51.6893 20.0723 51.6362 20.2209 51.5565 20.3279C51.4355 20.4765 51.2496 20.5419 51.0106 20.5419L46.3248 20.5359V22.3162L49.1841 22.3192C49.6621 22.346 49.9808 22.3995 50.1549 22.4946C50.447 22.6818 50.5946 22.9642 50.5916 23.3654C50.5503 23.7815 50.3231 24.2897 49.8982 24.8901C49.2992 25.651 48.4729 26.3732 47.4195 27.0419C47.3133 27.1073 47.2071 27.1608 47.1126 27.2143C48.709 27.8384 51.1021 28.1178 53.4332 28.2278L53.4391 23.9152C53.4126 23.942 53.3978 23.9687 53.386 23.9955C53.2267 24.2095 53.026 24.3016 52.7604 24.3016C52.5067 24.3016 52.2942 24.2333 52.1349 24.0876C51.9873 23.9658 51.9224 23.7934 51.9224 23.5794C51.9224 23.4456 51.9903 23.3 52.0965 23.1365C53.0968 21.5049 53.8581 19.7929 54.3775 17.9859C54.4719 17.7451 54.6312 17.5995 54.8437 17.5579C55.0827 17.5579 55.2952 17.6114 55.4545 17.6916C55.6286 17.7867 55.7201 17.974 55.7201 18.2415C55.6935 18.4406 55.6669 18.6308 55.6256 18.8032C55.4515 19.4719 55.2125 20.1823 54.8909 20.9312L54.882 28.2753C57.8358 28.3377 60.3764 28.1773 60.6036 28.1773C60.7364 28.1773 60.8043 28.1119 60.8043 27.9781L60.8131 21.4335L56.5551 21.4276C56.3427 21.4276 56.1833 21.3741 56.0624 21.2671C55.9296 21.1601 55.8765 20.9728 55.8765 20.7054C55.8765 20.4111 55.9296 20.209 56.0624 20.102C56.1568 20.0218 56.3161 19.9683 56.5551 19.9683L60.8131 19.9742V18.1939C60.8131 17.8046 61.0698 17.5906 61.5479 17.5668C62.0259 17.5668 62.2649 17.7808 62.2796 18.1969V19.9772H63.3154C63.5278 19.9772 63.7019 20.0307 63.8082 20.1258L63.814 20.1228ZM58.1368 26.3108C58.0571 26.2692 58.004 26.1889 57.9509 26.0819C57.6469 25.4518 57.1423 24.5007 56.4519 23.2435C56.3869 23.1365 56.3456 23.0295 56.3456 22.8958C56.3456 22.8156 56.3604 22.7353 56.3987 22.6283C56.4666 22.5065 56.5728 22.4143 56.7174 22.3341C56.8237 22.2954 56.9446 22.2687 57.0774 22.2687C57.2633 22.2954 57.4374 22.3638 57.5968 22.4708C57.8771 22.765 58.2607 23.3803 58.7387 24.3462C59.0043 24.9347 59.1489 25.4162 59.1489 25.8204C59.1489 26.0076 59.0958 26.1265 59.0013 26.2067C58.8685 26.3405 58.6944 26.394 58.4672 26.394C58.3079 26.394 58.2017 26.3672 58.1338 26.3137L58.1368 26.3108Z" fill="#333333"/>
<path fill-rule="evenodd" clip-rule="evenodd" d="M12.1016 15.1H21.5972C23.8604 15.1 25.7017 16.9516 25.7017 19.2253V28.7747C25.7017 31.0484 23.8604 32.9 21.5972 32.9H12.1016C9.84129 32.9 8 31.0484 8 28.7747V19.2253C8 16.9516 9.84129 15.1 12.1016 15.1ZM14.1789 19.1184C14.297 18.8479 14.3265 18.6666 14.1317 18.4437L13.8956 18.1733C13.6979 17.9503 13.4029 17.8909 13.2347 18.0395C13.2347 18.0395 12.3347 19.2759 11.8331 19.7188C11.3344 20.1616 10.1865 20.9135 10.1865 20.9135C10.0154 21.0622 10.039 21.3653 10.2337 21.5882L10.4698 21.8587C10.6675 22.0816 10.8416 22.1143 11.1308 21.9924C11.4199 21.8706 12.1104 21.4991 12.8688 20.8244C13.6212 20.1557 14.0609 19.3889 14.1789 19.1184ZM13.8838 21.3861L14.1229 21.6596L14.1258 21.6625C14.3235 21.8914 14.291 22.0756 14.1701 22.3521C14.0697 22.5839 13.7127 23.1783 13.1461 23.7727V29.5416C13.1461 29.821 12.9366 30.0469 12.6799 30.0469H12.2727C12.016 30.0469 11.8065 29.821 11.8065 29.5416V24.8724C11.4672 25.0923 11.1898 25.235 11.0334 25.3034C10.7383 25.4282 10.5583 25.3955 10.3606 25.1696L10.1216 24.8962C9.9239 24.6673 9.90324 24.3612 10.0773 24.2067C10.0773 24.2067 11.2547 23.4309 11.7681 22.9762C12.2816 22.5215 13.2111 21.2524 13.2111 21.2524C13.3852 21.1008 13.6861 21.1602 13.8838 21.3861ZM23.2407 22.5391H18.6906C18.6906 22.5391 18.6729 22.5451 18.664 22.5451C18.6596 22.5451 18.6552 22.5436 18.6507 22.5421C18.6463 22.5406 18.6419 22.5391 18.6375 22.5391H17.7227C17.5545 22.5391 17.4188 22.4024 17.4188 22.233V21.594C17.4188 21.4246 17.5545 21.2879 17.7227 21.2879H18.6375C18.9148 21.2879 19.1391 21.062 19.1391 20.7826V20.4468C19.1391 20.1674 18.9148 19.9415 18.6375 19.9415H17.7227C17.5545 19.9415 17.4188 19.8048 17.4188 19.6384V18.5446C17.4188 18.2652 17.1945 18.0394 16.9172 18.0394H16.5837C16.3064 18.0394 16.0821 18.2652 16.0821 18.5446V19.6384C16.0821 19.8078 15.9464 19.9415 15.7782 19.9415H14.8221C14.5447 19.9415 14.3175 20.1674 14.3175 20.4468V20.7826C14.3175 21.062 14.5418 21.2879 14.8221 21.2879H15.7782C15.9464 21.2879 16.0821 21.4246 16.0821 21.594V22.233C16.0821 22.4024 15.9464 22.5391 15.7782 22.5391H14.8221C14.5447 22.5391 14.3175 22.765 14.3175 23.0444V23.3802C14.3175 23.6596 14.5418 23.8855 14.8221 23.8855H15.7782C15.9464 23.8855 16.0821 24.0222 16.0821 24.1916V24.7682C16.0821 24.9376 15.9464 25.0744 15.7782 25.0744H14.8221C14.5447 25.0744 14.3175 25.3002 14.3175 25.5796V25.9155C14.3175 26.1948 14.5418 26.4207 14.8221 26.4207H15.7782C15.9464 26.4207 16.0821 26.5574 16.0821 26.7239V27.8444C16.0821 27.99 15.9818 28.1119 15.8401 28.1416C15.0021 28.3199 14.1611 28.4863 14.1611 28.4863C13.8808 28.5577 13.7156 28.8489 13.7864 29.1372L13.8749 29.485C13.9487 29.7733 14.1169 29.8773 14.5123 29.8803C14.9047 29.8803 15.4565 29.8178 16.7106 29.4939C17.9418 29.1765 18.7143 28.65 19.0225 28.4399L19.0329 28.4328C19.3309 28.2278 19.4784 28.0702 19.4076 27.7819L19.3191 27.4342C19.2453 27.1459 18.9621 26.9676 18.6817 27.0389C18.6817 27.0389 18.3158 27.2232 17.8467 27.4342C17.646 27.5263 17.4188 27.3777 17.4188 27.1578V26.7209C17.4188 26.5515 17.5545 26.4177 17.7227 26.4177H18.6375C18.9148 26.4177 19.1391 26.1919 19.1391 25.9125V25.5766C19.1391 25.2973 18.9148 25.0714 18.6375 25.0714H17.7227C17.5545 25.0714 17.4188 24.9347 17.4188 24.7653V24.1887C17.4188 24.0193 17.5545 23.8825 17.7227 23.8825H18.6375C18.6375 23.8825 18.6552 23.8766 18.664 23.8766C18.6685 23.8766 18.6729 23.8781 18.6773 23.8796C18.6817 23.881 18.6862 23.8825 18.6906 23.8825H19.8237C19.9948 23.8825 20.1335 24.0222 20.1335 24.1916V29.5355C20.1335 29.8149 20.343 30.0408 20.5997 30.0408H21.0069C21.2637 30.0408 21.4732 29.8149 21.4732 29.5355V24.1916C21.4732 24.0193 21.6119 23.8825 21.783 23.8825H23.2466C23.524 23.8825 23.7512 23.6567 23.7512 23.3773V23.0414C23.7512 22.762 23.5269 22.5362 23.2466 22.5362L23.2407 22.5391ZM20.2311 19.2372C20.2311 19.5552 20.4878 19.8138 20.8035 19.8138C21.1193 19.8138 21.376 19.5552 21.376 19.2372C21.376 18.9192 21.1193 18.6606 20.8035 18.6606C20.4878 18.6606 20.2311 18.9192 20.2311 19.2372ZM20.8389 17.9696C20.8507 17.9688 20.8625 17.9681 20.8743 17.9681H20.8802C21.6327 18.0097 22.1255 18.7171 21.9986 19.5017C21.8747 20.2715 20.9688 21.8734 20.9688 21.8734C20.9363 21.9418 20.8714 21.9745 20.8065 21.9745C20.7416 21.9745 20.6766 21.9418 20.6442 21.8734C20.6442 21.8734 19.7383 20.2715 19.6144 19.5017C19.4904 18.7171 19.9803 18.0097 20.7327 17.9681C20.7469 17.9663 20.761 17.9677 20.7752 17.9692C20.7846 17.9701 20.7941 17.9711 20.8035 17.9711C20.8153 17.9711 20.8271 17.9703 20.8389 17.9696Z" fill="#C9191D"/>
</svg>
