<svg width="72" height="48" viewBox="0 0 72 48" fill="none" xmlns="http://www.w3.org/2000/svg">
<g clip-path="url(#clip0_402_2956)">
<path d="M14.1805 28.1397C13.8323 27.8862 13.4802 27.658 13.1596 27.3924C12.1134 26.5262 11.359 25.4646 11.0988 24.1089C10.7699 22.3962 11.2782 20.9094 12.4167 19.6302C13.6238 18.2735 15.1792 17.5209 16.9406 17.1867C19.0691 16.7833 21.1251 17.0223 23.0654 18.0152C24.4525 18.7247 25.5504 19.7375 26.1815 21.1885C27.0197 23.1154 26.5597 25.2987 24.9884 26.8962C23.7735 28.1315 22.2742 28.8202 20.5911 29.1481C19.7559 29.3111 18.9124 29.3188 18.0661 29.2961C17.9118 29.2918 17.7314 29.3392 17.6037 29.4238C16.4164 30.2107 15.2377 31.0107 14.0567 31.8068C14.0098 31.8382 13.9624 31.8687 13.9164 31.9016C13.7578 32.0148 13.5914 32.0486 13.4241 31.9301C13.2558 31.8107 13.2427 31.6404 13.2926 31.4542C13.5344 30.5546 13.7752 29.655 14.0161 28.7554C14.0722 28.5464 14.1278 28.338 14.1805 28.1397Z" fill="black"/>
<path d="M33.9279 28.4637V32.2015H31.2224V18.2464C31.6079 18.2464 31.9924 18.243 32.3769 18.2478C32.625 18.2507 32.9277 18.183 33.1047 18.3001C33.2701 18.4094 33.3011 18.7209 33.3915 18.9434C33.4094 18.9874 33.4307 19.0304 33.4631 19.1015C33.5371 19.0357 33.6005 18.9796 33.6638 18.9235C34.9034 17.8237 36.925 17.623 38.3019 18.465C38.9969 18.8901 39.4675 19.5083 39.7277 20.2652C40.3487 22.0717 40.4048 23.8994 39.7185 25.6948C38.905 27.8243 37.0179 28.8429 34.7525 28.5851C34.4904 28.5551 34.2297 28.5087 33.9279 28.4637ZM33.9264 26.5746C34.2925 26.5746 34.6282 26.5789 34.9638 26.5736C35.9761 26.5571 36.7282 26.0367 37.1073 25.0979C37.3685 24.4518 37.427 23.7713 37.4207 23.0869C37.4149 22.4441 37.3796 21.8008 37.1122 21.1972C36.8699 20.6512 36.4689 20.3068 35.8716 20.2014C35.2651 20.0945 34.6901 20.2072 34.1257 20.4282C33.9811 20.4848 33.9206 20.5573 33.9216 20.7252C33.9289 22.5834 33.9264 24.4411 33.9264 26.2994V26.5741V26.5746Z" fill="black"/>
<path d="M58.3521 17.8556C59.2449 18.1047 60.1154 18.3475 61 18.5941C60.9826 18.6686 60.9763 18.7228 60.9579 18.7726C59.878 21.7384 58.8087 24.7081 57.7118 27.6676C57.218 28.9996 56.595 30.276 55.6394 31.3459C55.2408 31.7918 54.7538 32.1594 54.2978 32.5521C54.2446 32.5981 54.0975 32.6184 54.0554 32.5811C53.521 32.1067 52.9982 31.6196 52.4556 31.1205C52.5363 31.045 52.5978 30.9851 52.6616 30.928C53.418 30.2528 54.0608 29.4852 54.5691 28.6059C54.6571 28.4541 54.6721 28.3278 54.6097 28.159C53.4702 25.0694 52.3376 21.9778 51.2034 18.8863C51.1759 18.8113 51.1497 18.7363 51.1082 18.6203C52.0058 18.3784 52.8913 18.1395 53.8112 17.8914C54.5691 20.5075 55.3206 23.1023 56.0911 25.7634C56.8533 23.097 57.5981 20.492 58.3521 17.8561V17.8556Z" fill="black"/>
<path d="M42.9173 20.908C42.6779 20.3203 42.4405 19.7506 42.2204 19.1745C42.203 19.1286 42.2881 19.0115 42.3529 18.9709C43.1548 18.4679 44.0355 18.1733 44.9665 18.0287C45.7611 17.9054 46.5548 17.9136 47.3387 18.1143C48.7882 18.4853 49.7042 19.5315 49.8754 21.0221C49.9112 21.3331 49.9325 21.647 49.9335 21.9599C49.9383 23.9879 49.9359 26.0164 49.9359 28.0449C49.9359 28.1314 49.9359 28.2185 49.9359 28.3414C49.5514 28.3414 49.192 28.3438 48.8327 28.3404C48.5677 28.338 48.2427 28.4192 48.0555 28.2954C47.8838 28.1822 47.8616 27.8437 47.7726 27.6052C47.7643 27.5839 47.746 27.566 47.7218 27.5312C47.6009 27.6096 47.4819 27.6874 47.3624 27.7634C46.489 28.3206 45.5556 28.6596 44.4974 28.6199C42.9212 28.5609 41.8277 27.5264 41.6855 25.9564C41.6362 25.4118 41.6483 24.8769 41.8108 24.357C42.1609 23.2353 43.002 22.6462 44.0882 22.3875C44.6236 22.2603 45.1837 22.2187 45.735 22.1853C46.2786 22.1524 46.8256 22.1781 47.3673 22.1781C47.5259 20.9931 46.9518 20.2821 45.8317 20.2574C44.8969 20.2366 44.0137 20.4533 43.1582 20.8083C43.0856 20.8383 43.0136 20.8683 42.9168 20.9085L42.9173 20.908ZM47.3977 23.9328C46.8527 23.9328 46.34 23.9275 45.8274 23.9357C45.66 23.9386 45.4908 23.9647 45.3268 24.0015C44.4263 24.2027 44.0452 24.7221 44.125 25.6256C44.1656 26.0822 44.4558 26.412 44.9089 26.472C45.7906 26.5886 46.5717 26.3095 47.2913 25.8229C47.3421 25.7886 47.3924 25.7098 47.3934 25.6512C47.4011 25.0902 47.3977 24.5287 47.3977 23.9328Z" fill="black"/>
</g>
<defs>
<clipPath id="clip0_402_2956">
<rect width="50" height="15.6" fill="white" transform="translate(11 17)"/>
</clipPath>
</defs>
</svg>
