<svg width="72" height="48" viewBox="0 0 72 48" fill="none" xmlns="http://www.w3.org/2000/svg">
<path fill-rule="evenodd" clip-rule="evenodd" d="M11.816 30.7592H9V18H11.816V30.7592ZM18.8465 18H16.0916C16.0916 20.348 15.0535 22.5031 13.2434 23.9131L12.152 24.7631L16.381 30.7598H19.8581L15.9668 25.2419C17.8113 23.3319 18.8465 20.7623 18.8465 18ZM23.338 30.7557H20.6787V18.0024H23.338V30.7557ZM31.3728 21.9337V22.498C30.6552 21.989 29.7891 21.6898 28.855 21.6898C26.3827 21.6898 24.3785 23.7739 24.3785 26.3449C24.3785 28.9158 26.3827 30.9999 28.855 30.9999C29.7891 30.9999 30.6552 30.7007 31.3728 30.1918V30.7557H33.9129V21.9337H31.3728ZM31.3651 26.345C31.3651 27.5986 30.3347 28.6148 29.0635 28.6148C27.7925 28.6148 26.762 27.5986 26.762 26.345C26.762 25.0914 27.7925 24.0754 29.0635 24.0754C30.3347 24.0754 31.3651 25.0914 31.3651 26.345ZM58.1698 22.498V21.9337H60.7098V30.7557H58.1698V30.1918C57.4522 30.7007 56.5861 30.9999 55.6519 30.9999C53.1795 30.9999 51.1753 28.9158 51.1753 26.3449C51.1753 23.7739 53.1795 21.6898 55.6519 21.6898C56.5861 21.6898 57.4522 21.989 58.1698 22.498ZM55.8604 28.6148C57.1315 28.6148 58.1619 27.5986 58.1619 26.345C58.1619 25.0914 57.1315 24.0754 55.8604 24.0754C54.5892 24.0754 53.5588 25.0914 53.5588 26.345C53.5588 27.5986 54.5892 28.6148 55.8604 28.6148ZM46.6616 21.6965C45.6469 21.6965 44.6867 22.0241 44.0446 22.9278V21.9343H41.5156V30.7558H44.0757V26.1198C44.0757 24.7782 44.9408 24.1213 45.9824 24.1213C47.0988 24.1213 47.7405 24.8148 47.7405 26.1015V30.7558H50.2775V25.1457C50.2775 23.0927 48.7078 21.6965 46.6616 21.6965ZM37.8422 21.9338V23.0828C38.3514 22.3936 39.3001 21.9343 40.3316 21.9343V24.5014C40.3268 24.5013 40.3221 24.5011 40.3174 24.5008C40.3121 24.5005 40.3069 24.5002 40.3014 24.5002C39.2964 24.5002 37.848 25.2472 37.848 26.6368V30.7557H35.2416V21.9338H37.8422ZM61.8123 29.2842C61.8123 28.3686 62.5259 27.6266 63.4062 27.6266C64.2865 27.6266 65.0002 28.3686 65.0002 29.2842C65.0002 30.1994 64.2865 30.9416 63.4062 30.9416C62.5259 30.9416 61.8123 30.1994 61.8123 29.2842Z" fill="#17120F"/>
</svg>
