<svg width="72" height="48" viewBox="0 0 72 48" fill="none" xmlns="http://www.w3.org/2000/svg">
<path d="M14.4532 15.5C9.785 15.5 6 19.306 6 24C6 28.694 9.785 32.5 14.4532 32.5C19.1213 32.5 22.9063 28.694 22.9063 24C22.8966 19.306 19.1213 15.5 14.4532 15.5ZM14.5793 24.2732L13.7059 27.2595H18.4032C18.5681 27.2595 18.6749 27.4156 18.6361 27.5718L18.2285 28.9868C18.1896 29.1234 18.0635 29.221 17.9179 29.221H10.7361L11.9492 25.093L10.6099 25.5126L10.9011 24.5367L12.2501 24.1171L13.9582 18.3203C13.997 18.1837 14.1232 18.0861 14.2688 18.0861H16.0836C16.2486 18.0861 16.3554 18.2423 16.3165 18.3984L14.8705 23.2974L16.2098 22.8777L15.9186 23.8634L14.5793 24.2732Z" fill="#345D9D"/>
<path d="M27.7879 18.0764H27.2639C27.1668 18.0764 27.0989 18.1349 27.0795 18.2325L25.7207 29.0551C25.711 29.1625 25.7402 29.2113 25.8469 29.2113H26.371C26.4777 29.2113 26.536 29.1625 26.5554 29.0551L27.9238 18.2325C27.9529 18.1251 27.8947 18.0764 27.7879 18.0764Z" fill="#345D9D"/>
<path d="M30.5345 21.1992H30.0105C29.9134 21.1992 29.8455 21.248 29.8261 21.3553L28.8555 29.0649C28.8458 29.1722 28.9041 29.221 29.0011 29.221H29.5252C29.6222 29.221 29.6902 29.1722 29.7096 29.0649L30.6704 21.3651C30.6801 21.2578 30.6413 21.1992 30.5345 21.1992Z" fill="#345D9D"/>
<path d="M53.497 21.0723C52.7691 21.0723 52.1382 21.2773 51.6045 21.6969C51.0707 22.1165 50.7213 22.663 50.5466 23.3462C50.401 23.9024 50.2749 24.6831 50.2166 25.2101C50.139 25.9225 50.071 26.508 50.071 27.074C50.0808 27.7669 50.304 28.3134 50.7213 28.7331C51.1483 29.1429 51.7306 29.3576 52.4682 29.3576C53.2058 29.3576 53.8172 29.1527 54.351 28.7331C54.8848 28.3232 55.2342 27.7669 55.4089 27.074C55.5253 26.6154 55.6418 26.0006 55.7388 25.2101C55.8359 24.3904 55.8844 23.7658 55.8844 23.3364C55.8844 22.6533 55.6709 22.1068 55.2439 21.6969C54.8071 21.2773 54.2248 21.0723 53.497 21.0723ZM54.9721 24.4587C54.9236 24.849 54.8945 25.1028 54.8848 25.2101C54.7877 26.0103 54.7004 26.5763 54.6227 26.9179C54.5063 27.4254 54.254 27.8352 53.8755 28.1475C53.497 28.4598 53.0505 28.6062 52.5556 28.6062C52.0606 28.6062 51.653 28.4501 51.3521 28.1475C51.0513 27.845 50.9057 27.4449 50.9057 26.9472C50.9057 26.6837 50.9348 26.3519 50.9833 25.9615C51.0319 25.5712 51.061 25.3174 51.0707 25.2101C51.1677 24.4489 51.2551 23.8829 51.3327 23.5023C51.4492 22.9948 51.7015 22.585 52.08 22.2727C52.4585 21.9604 52.9049 21.814 53.3999 21.814C53.8949 21.814 54.3025 21.9701 54.6033 22.2629C54.9042 22.5654 55.0498 22.9656 55.0498 23.4633C55.0498 23.7463 55.0207 24.0683 54.9721 24.4587Z" fill="#345D9D"/>
<path d="M58.8736 21.1992H58.3593C58.2622 21.1992 58.1943 21.2578 58.1749 21.3553L57.1947 29.0649C57.1849 29.1722 57.2432 29.221 57.3402 29.221H57.8643C57.9614 29.221 58.0293 29.1722 58.0487 29.0649L59.0095 21.3651C59.0192 21.2578 58.9804 21.1992 58.8736 21.1992Z" fill="#345D9D"/>
<path d="M65.4925 21.6579C65.1334 21.2773 64.6288 21.0918 63.9688 21.0918C63.5418 21.0918 63.1536 21.1699 62.7945 21.3358C62.4354 21.5017 62.1345 21.7457 61.8822 22.0775C61.8337 22.1165 61.8143 22.1068 61.8143 22.0482L61.8919 21.3651C61.9016 21.2675 61.8628 21.2089 61.7658 21.2089H61.2417C61.1446 21.2089 61.0767 21.2675 61.0573 21.3651L60.0965 29.0649C60.0868 29.1624 60.1159 29.221 60.2226 29.221H60.7467C60.8438 29.221 60.9117 29.1624 60.9214 29.0649L61.6202 23.5413C61.7366 23.0241 61.9793 22.6045 62.3384 22.3019C62.6974 21.9994 63.1245 21.8433 63.6291 21.8433C64.095 21.8433 64.4638 21.9897 64.7355 22.2824C65.0073 22.5752 65.1431 22.9656 65.1431 23.4633C65.1431 23.6096 65.1334 23.7267 65.1237 23.8146L64.4541 29.0649C64.4541 29.1137 64.4541 29.1429 64.4735 29.1722C64.5026 29.2015 64.5414 29.221 64.5997 29.221H65.1237C65.2208 29.221 65.2887 29.1722 65.2984 29.0649L65.9681 23.6877C65.9875 23.473 65.9972 23.3169 65.9972 23.2095C66.0263 22.5459 65.8516 22.0287 65.4925 21.6579Z" fill="#345D9D"/>
<path d="M30.8743 18.0861C30.5637 17.9202 30.1658 18.0373 30.0105 18.3594C29.8455 18.6716 29.9717 19.0718 30.2822 19.2377C30.5928 19.4036 30.981 19.2767 31.146 18.9644C31.311 18.6424 31.1945 18.252 30.8743 18.0861Z" fill="#345D9D"/>
<path d="M59.2519 18.0861C58.9414 17.9202 58.5435 18.0373 58.3882 18.3594C58.2232 18.6716 58.3494 19.0718 58.6599 19.2377C58.9705 19.4036 59.3684 19.2767 59.5334 18.9644C59.6887 18.6424 59.5625 18.252 59.2519 18.0861Z" fill="#345D9D"/>
<path d="M46.6644 21.0723C45.9365 21.0723 45.3057 21.287 44.7719 21.6969C44.2382 22.1165 43.8888 22.663 43.7141 23.3462C43.5685 23.9024 43.4326 24.7807 43.3841 25.2101C43.3162 25.8347 43.2385 26.508 43.2385 27.074C43.2482 27.7669 43.4714 28.3134 43.8888 28.7331C44.3158 29.1429 44.8981 29.3576 45.6357 29.3576C46.3733 29.3576 46.9847 29.1527 47.5185 28.7331C48.0523 28.3232 48.4017 27.7669 48.5763 27.074C48.5861 27.0155 48.6055 26.9569 48.6152 26.8984C48.6249 26.8496 48.586 26.8106 48.5472 26.8106H47.897C47.8582 26.8106 47.8096 26.8301 47.7999 26.8886C47.7999 26.8984 47.7902 26.9179 47.7902 26.9179C47.6738 27.4254 47.4214 27.8352 47.0429 28.1475C46.6644 28.4598 46.218 28.6062 45.723 28.6062C45.2281 28.6062 44.8205 28.4501 44.5196 28.1475C44.2187 27.845 44.0732 27.4449 44.0732 26.9472C44.0732 26.6837 44.1023 26.3519 44.1508 25.9615C44.1896 25.6297 44.2284 25.3174 44.2382 25.2101C44.3352 24.4489 44.4226 23.8829 44.5002 23.5023C44.6167 22.9948 44.869 22.585 45.2475 22.2727C45.626 21.9604 46.0724 21.814 46.5674 21.814C47.0623 21.814 47.47 21.9604 47.7708 22.2629C48.0717 22.5654 48.2173 22.9656 48.2173 23.4633V23.473C48.2173 23.5413 48.2755 23.5999 48.3434 23.5999H48.9548C49.0034 23.5999 49.0519 23.5608 49.0519 23.5023V23.3169C49.0519 22.6338 48.8384 22.0873 48.4114 21.6774C47.9746 21.2773 47.402 21.0723 46.6644 21.0723Z" fill="#345D9D"/>
<path d="M41.3946 21.6969C40.9675 21.287 40.3852 21.0723 39.6574 21.0723C38.9295 21.0723 38.2986 21.2773 37.7649 21.6969C37.2311 22.1165 36.8817 22.663 36.707 23.3462C36.5614 23.9024 36.4935 24.4001 36.377 25.2101C36.2703 26.0103 36.2314 26.508 36.2314 27.074C36.2412 27.7669 36.4644 28.3134 36.8817 28.7331C37.3087 29.1429 37.891 29.3576 38.6286 29.3576C39.3662 29.3576 39.9776 29.1527 40.5114 28.7331C41.0452 28.3232 41.3946 27.7669 41.5693 27.074C41.579 27.0155 41.5984 26.9569 41.6081 26.8984C41.6178 26.8496 41.5887 26.8106 41.5402 26.8106H40.8899C40.8511 26.8106 40.8026 26.8301 40.7929 26.8886C40.7929 26.8984 40.7831 26.9179 40.7831 26.9179C40.6667 27.4254 40.4144 27.8352 40.0359 28.1475C39.6574 28.4598 39.2109 28.6062 38.716 28.6062C38.221 28.6062 37.8134 28.4501 37.5125 28.1475C37.2117 27.845 37.0661 27.4449 37.0661 26.9472C37.0661 26.713 37.0855 26.4202 37.1243 26.0884L41.841 24.6148C41.9381 24.5855 41.9769 24.5367 41.9963 24.4196C42.0254 24.1757 42.0448 23.756 42.0448 23.3266C42.0351 22.7118 41.8216 22.1068 41.3946 21.6969ZM41.2102 23.9122C41.2102 23.961 41.1811 24 41.1325 24.0098L37.2214 25.2296V25.2101C37.3184 24.4489 37.4058 23.8829 37.4834 23.5023C37.5999 22.9948 37.8522 22.585 38.2307 22.2727C38.6092 21.9604 39.0556 21.814 39.5506 21.814C40.0456 21.814 40.4532 21.9701 40.754 22.2629C41.2296 22.7606 41.2393 23.2681 41.2102 23.9122Z" fill="#345D9D"/>
<path d="M34.4361 28.372C34.5331 28.3232 34.6399 28.3915 34.6205 28.4989L34.5526 29.0258C34.5428 29.0941 34.4943 29.1527 34.4361 29.182C33.9702 29.3576 33.32 29.4357 32.7959 29.2015C32.1942 28.9282 32.0389 28.333 32.1263 27.5913L32.8153 21.9409L32.9124 21.1309L33.1453 19.3352C33.155 19.2279 33.223 19.1791 33.3297 19.1791H33.8344C33.9508 19.1791 33.98 19.2474 33.9605 19.3352L33.6597 21.8921H35.2998C35.3969 21.8921 35.4357 21.9506 35.4357 22.0482L35.3872 22.4191C35.3775 22.4776 35.3678 22.5069 35.3387 22.5459C35.3096 22.5752 35.2513 22.585 35.2125 22.585H33.582L33.0094 27.2204C32.9512 27.7181 32.8833 28.1671 33.1356 28.411C33.4656 28.6843 34.1061 28.5281 34.4361 28.372Z" fill="#345D9D"/>
</svg>
