<svg width="72" height="48" viewBox="0 0 72 48" fill="none" xmlns="http://www.w3.org/2000/svg">
<path fill-rule="evenodd" clip-rule="evenodd" d="M63.0526 15.8H38.9268C38.403 15.8 37.9795 16.2255 37.9795 16.7518V31.2481C37.9795 31.7744 38.403 32.2 38.9268 32.2H63.0526C63.5764 32.2 63.9999 31.7744 63.9999 31.2481V16.7518C63.9999 16.2255 63.5764 15.8 63.0526 15.8ZM44.7193 24.8847H43.6773V27.0011C43.6773 27.1495 43.5575 27.2671 43.4126 27.2671H42.0418C41.8941 27.2671 41.7771 27.1467 41.7771 27.0011V19.7726C41.7771 19.6242 41.8969 19.5066 42.0418 19.5066H44.7221C46.2517 19.5066 47.4526 20.6881 47.4526 22.1943C47.4526 23.7004 46.2545 24.8819 44.7221 24.8819L44.7193 24.8847ZM53.6965 27.2671H52.217C52.1306 27.2671 52.061 27.1971 52.061 27.1103V26.8892C51.6765 27.2419 51.1694 27.4211 50.5425 27.4211C49.0491 27.4211 47.8761 26.1249 47.8761 24.4731C47.8761 22.8214 49.0463 21.5251 50.5425 21.5251C51.1666 21.5251 51.6765 21.7043 52.061 22.0571V21.8359C52.061 21.7491 52.1306 21.6791 52.217 21.6791H53.6965C53.7829 21.6791 53.8525 21.7491 53.8525 21.8359V27.1131C53.8525 27.1999 53.7829 27.2699 53.6965 27.2699V27.2671ZM57.8284 29.4396H56.3044C56.1929 29.4396 56.1177 29.3276 56.1595 29.224L56.9619 27.1943L54.797 21.8919C54.7553 21.7883 54.8305 21.6735 54.9419 21.6735H56.466C56.5607 21.6735 56.6471 21.7323 56.6861 21.8219L57.9065 24.8091L59.085 21.8247C59.1212 21.7351 59.2076 21.6735 59.3051 21.6735H60.8292C60.9406 21.6735 61.0159 21.7855 60.9741 21.8891L58.0513 29.2884C58.0151 29.378 57.9287 29.4396 57.8312 29.4396H57.8284ZM50.8657 23.2386C50.1524 23.2386 49.6704 23.7342 49.6704 24.4705C49.6704 25.2068 50.1496 25.7023 50.8657 25.7023C51.5818 25.7023 52.061 25.2068 52.061 24.4705C52.061 23.7342 51.5818 23.2386 50.8657 23.2386ZM43.6772 21.3097H44.7193V21.3125C45.1902 21.3125 45.5468 21.6932 45.5468 22.1971C45.5468 22.7011 45.1902 23.0818 44.7193 23.0818H43.6772V21.3097Z" fill="#08BF5B"/>
<path fill-rule="evenodd" clip-rule="evenodd" d="M10.1203 26.5112H13.7925V26.5084C14.0015 26.5084 14.1715 26.6792 14.1715 26.8892V28.2582C14.1715 28.4681 14.0015 28.6389 13.7925 28.6389H8.37892C8.16996 28.6389 8 28.4681 8 28.2582V19.739C8 19.5291 8.16996 19.3583 8.37892 19.3583H9.74138C9.95035 19.3583 10.1203 19.5291 10.1203 19.739V26.5112ZM15.7236 19.3611H17.0861C17.2953 19.3611 17.465 19.5316 17.465 19.7419V28.261C17.465 28.4713 17.2953 28.6418 17.0861 28.6418H15.7236C15.5143 28.6418 15.3447 28.4713 15.3447 28.261V19.7419C15.3447 19.5316 15.5143 19.3611 15.7236 19.3611ZM34.0427 21.4888C34.2517 21.4888 34.4217 21.318 34.4217 21.108V19.739C34.4217 19.5291 34.2517 19.3583 34.0427 19.3583H28.6291C28.4202 19.3583 28.2502 19.5291 28.2502 19.739V28.2582C28.2502 28.4681 28.4202 28.6389 28.6291 28.6389H34.0427C34.2517 28.6389 34.4217 28.4681 34.4217 28.2582V26.8892C34.4217 26.6792 34.2517 26.5084 34.0427 26.5084H30.3705V25.0638H34.0427C34.2517 25.0638 34.4217 24.8931 34.4217 24.6831V23.3141C34.4217 23.1041 34.2517 22.9334 34.0427 22.9334H30.3705V21.4888H34.0427ZM25.0741 19.3611H26.4365L26.4393 19.3583C26.6483 19.3583 26.8182 19.5291 26.8182 19.739V28.261C26.8182 28.4709 26.6483 28.6417 26.4393 28.6417H25.049C24.9431 28.6333 24.8512 28.5829 24.7871 28.5073C24.7704 28.4905 24.7564 28.4737 24.7425 28.4541L21.0229 23.1125V28.261C21.0229 28.4709 20.8529 28.6417 20.644 28.6417H19.2815C19.0726 28.6417 18.9026 28.4709 18.9026 28.261V19.7418C18.9026 19.5319 19.0726 19.3611 19.2815 19.3611H20.644C20.6515 19.3611 20.6587 19.3608 20.6658 19.3604C20.6798 19.3598 20.6933 19.3592 20.7081 19.3611C20.878 19.3611 21.0285 19.4031 21.1288 19.5487L24.6951 24.6719V19.7418C24.6951 19.5319 24.8651 19.3611 25.0741 19.3611Z" fill="black"/>
</svg>
