<svg width="72" height="48" viewBox="0 0 72 48" fill="none" xmlns="http://www.w3.org/2000/svg">
<path d="M60.2665 19.4575C60.3358 19.5316 60.3852 19.6007 60.4495 19.6896C60.4989 19.7636 60.5483 19.813 60.5978 19.8871C60.662 19.9611 60.7313 20.05 60.7807 20.1191C60.8301 20.1932 60.8994 20.2623 60.9488 20.3364C61.0131 20.4252 61.0823 20.5141 61.1465 20.603C61.2158 20.6919 61.2652 20.7659 61.3295 20.8548C61.3937 20.9289 61.4481 20.998 61.5124 21.0721C61.5618 21.1461 61.6113 21.1955 61.6607 21.2696C61.7299 21.3584 61.809 21.4473 61.8782 21.5362C61.9425 21.6102 61.9969 21.6991 62.0612 21.7682C62.1106 21.8423 62.1798 21.8917 62.2293 21.9657C62.2639 22.0003 62.2787 22.0398 62.3133 22.0744C62.3479 22.1287 62.3973 22.1632 62.432 22.2176C62.4666 22.2521 62.4962 22.3064 62.5308 22.341C62.5654 22.3756 62.6149 22.4299 62.6297 22.4842C62.6791 22.5582 62.7484 22.6076 62.7978 22.7014C62.8324 22.7557 62.8818 22.7903 62.9165 22.8446C62.9857 22.9335 63.0648 23.0421 63.134 23.131C63.1686 23.1853 63.218 23.2199 63.2526 23.2742C63.3021 23.3482 63.3515 23.3976 63.4009 23.4717C63.4356 23.526 63.485 23.5606 63.5196 23.6149C63.569 23.684 63.6185 23.7581 63.6679 23.8321C63.7174 23.9012 63.7866 23.9753 63.8508 24.0494C63.9003 24.1037 63.9349 24.158 63.9695 24.2123C64.0189 24.2666 64.0041 24.3209 63.9547 24.3752C63.8855 24.4641 63.8212 24.553 63.7371 24.6419C63.6877 24.7159 63.6185 24.7851 63.569 24.8394C63.5048 24.9085 63.4504 25.0023 63.3861 25.0714C63.3367 25.1455 63.2675 25.2146 63.218 25.2887C63.1538 25.3627 63.0994 25.4516 63.0499 25.5207C63.0005 25.5948 62.9313 25.6639 62.8818 25.738C62.8472 25.7923 62.7978 25.8466 62.7632 25.9009C62.7138 25.975 62.6643 26.0244 62.6149 26.0984C62.5654 26.1527 62.5308 26.2071 62.4814 26.2614C62.4122 26.3502 62.3331 26.4391 62.2639 26.528C62.2144 26.6021 62.1452 26.6712 62.0958 26.7452C62.0266 26.8193 61.9623 26.9082 61.9128 26.9773C61.8782 27.0316 61.8288 27.0859 61.7942 27.1402C61.7448 27.2143 61.6755 27.2834 61.6261 27.3575C61.5767 27.4316 61.5074 27.5007 61.458 27.5747C61.374 27.6636 61.3097 27.7722 61.2257 27.8611C61.1416 27.9697 61.0576 28.0784 60.9735 28.1821C60.9043 28.2561 60.84 28.345 60.7906 28.4141C60.7412 28.4882 60.6917 28.5573 60.6225 28.6314C60.5731 28.7054 60.5038 28.7746 60.4544 28.8486C60.405 28.9177 60.3358 28.9918 60.2863 29.0659C60.2863 29.0659 60.2715 29.0659 60.2517 29.0856V19.4921C60.2369 19.4575 60.2517 19.4575 60.2517 19.4575H60.2665Z" fill="#7FA9B3"/>
<path fill-rule="evenodd" clip-rule="evenodd" d="M34.7858 16.1H32.9368V25.6639C32.9368 25.9306 32.9566 26.212 33.006 26.4786C33.1099 27.0316 33.362 27.5106 33.8168 27.8611C34.1876 28.1574 34.6227 28.3104 35.1121 28.3253C35.4012 28.3351 35.6838 28.3319 35.97 28.3286H35.97H35.97C36.1145 28.3269 36.2598 28.3253 36.4074 28.3253H36.5063V26.8094C36.442 26.8243 36.358 26.8243 36.2888 26.8243C36.1559 26.8243 36.0267 26.8206 35.8969 26.8169C35.7659 26.8132 35.6343 26.8094 35.4978 26.8094C35.3297 26.8094 35.1764 26.7453 35.0577 26.6268C34.855 26.4293 34.7858 26.1626 34.7858 25.896V16.1ZM21.566 28.0031V27.9994H21.571L21.566 28.0031ZM21.4481 28.0921C21.4858 28.0636 21.5248 28.034 21.566 28.0031V28.7696C22.1544 28.7696 22.7229 28.7696 23.3112 28.7844V22.4546C23.3112 22.1287 23.2618 21.8028 23.1431 21.4769C22.9256 20.8746 22.5252 20.4302 21.9714 20.1241C21.6353 19.9364 21.2842 19.8327 20.8986 19.7636L20.8022 19.7512C20.4487 19.7056 20.0953 19.6599 19.7418 19.6599H19.7418C19.5737 19.6599 19.4056 19.6599 19.2375 19.6747C19.0842 19.6747 18.9507 19.6747 18.8024 19.7093C18.4316 19.7784 18.0658 19.8624 17.7296 20.0204C17.2599 20.2277 16.8595 20.4993 16.5579 20.9141C16.5245 20.9617 16.5418 20.9818 16.5697 21.0142L16.5727 21.0177C16.6303 21.0588 16.6845 21.1136 16.7409 21.1706L16.7754 21.2054C16.85 21.2835 16.9301 21.3589 17.0096 21.4336C17.0355 21.4579 17.0614 21.4823 17.0869 21.5066L17.0869 21.5066C17.1907 21.6053 17.2946 21.7041 17.3984 21.8077C17.4379 21.8423 17.4775 21.8818 17.517 21.9213C17.527 21.9312 17.5366 21.9412 17.5462 21.951L17.5462 21.9511C17.5746 21.9804 17.6024 22.009 17.6357 22.0349C17.6703 22.0694 17.7049 22.0842 17.7543 22.0349C17.798 21.9794 17.8448 21.9335 17.8896 21.8895L17.9224 21.8571C17.942 21.8408 17.9594 21.8224 17.9775 21.8032L17.9775 21.8032L17.9776 21.8032L17.9776 21.8032L17.9776 21.8031C17.9869 21.7933 17.9964 21.7832 18.0065 21.7732C18.2092 21.5856 18.4415 21.4473 18.6937 21.3634C19.0447 21.2251 19.4155 21.1757 19.8011 21.2251C20.0878 21.2597 20.3696 21.2942 20.6415 21.3979C21.042 21.551 21.3287 21.8077 21.4474 22.2373C21.4957 22.3964 21.5109 22.5696 21.5254 22.7339L21.5265 22.7459V22.7706C21.5364 22.9286 21.5364 23.0866 21.5265 23.2495V23.5062H21.4771C20.6564 23.5062 19.8159 23.5062 18.9804 23.5211C18.8123 23.5211 18.6442 23.5359 18.4761 23.5556C18.0411 23.605 17.6357 23.763 17.2698 24C16.815 24.2913 16.4838 24.6863 16.3157 25.2196C16.197 25.58 16.1476 25.9552 16.197 26.3354C16.2118 26.4292 16.2267 26.528 16.2366 26.6267C16.2435 26.6732 16.2494 26.7196 16.2552 26.7655L16.2552 26.7655C16.2618 26.8173 16.2683 26.8684 16.2761 26.9181C16.3602 27.2933 16.5085 27.6389 16.7606 27.9302C16.993 28.2216 17.2995 28.4289 17.6307 28.582C18.0312 28.7548 18.4366 28.8387 18.8568 28.8387C19.1584 28.8387 19.46 28.8239 19.7615 28.7894C19.9791 28.7746 20.1966 28.74 20.4141 28.6857C20.6974 28.6174 20.9468 28.448 21.1911 28.282L21.2002 28.2759C21.2819 28.218 21.3613 28.1579 21.4481 28.0921ZM21.5314 24.7949H21.4326L21.4276 24.7999H19.4501C19.1139 24.7999 18.7975 24.869 18.5107 25.0418C18.2586 25.1998 18.0707 25.3874 17.9719 25.6787C17.8878 25.9355 17.9076 26.1922 17.957 26.449C17.9916 26.6514 18.0905 26.8242 18.224 26.9625C18.4613 27.1847 18.7629 27.2686 19.0645 27.3032C19.0925 27.3048 19.1205 27.307 19.1485 27.3092C19.2045 27.3136 19.2606 27.318 19.3166 27.318C19.4006 27.318 19.4847 27.3229 19.5687 27.3328C19.7863 27.3674 20.0038 27.3328 20.2213 27.2982C20.5377 27.2439 20.8245 27.1254 21.0766 26.9032C21.2447 26.7502 21.398 26.5774 21.4474 26.3552C21.4968 26.133 21.5166 25.9108 21.5314 25.6886V24.7949ZM8 19.7735H9.6908V19.7784V20.6524C9.74024 20.603 9.78968 20.5536 9.83912 20.5191C10.0715 20.287 10.3384 20.1043 10.6202 19.9562C10.902 19.8229 11.2135 19.7241 11.5299 19.6896C11.9403 19.6402 12.3555 19.6747 12.7708 19.7735C13.023 19.8377 13.2702 19.9068 13.5025 20.0204C13.7992 20.1487 14.0463 20.3462 14.2639 20.6129C14.5308 20.9239 14.7138 21.2745 14.8275 21.6695C14.9115 21.9707 14.9758 22.2669 15.0252 22.5632L15.0252 22.5632C15.0598 22.7953 15.0944 23.0273 15.1093 23.2594C15.1291 23.6198 15.1439 24 15.1439 24.3654C15.1439 24.6962 15.1142 25.027 15.0796 25.3578C15.045 25.8367 14.9461 26.2861 14.7978 26.7304C14.6297 27.2094 14.3825 27.6389 14.0019 27.9846C13.7695 28.2018 13.4877 28.3302 13.1713 28.4141C12.8747 28.4981 12.5731 28.5474 12.2764 28.5622C11.8117 28.5919 11.3668 28.5919 10.9169 28.4289C10.6054 28.3154 10.3038 28.1327 10.0566 27.9006C10.022 27.8661 9.98743 27.8364 9.95283 27.8068C9.89844 27.7624 9.83912 27.713 9.78968 27.6537V31.9H8.03461C8 27.8512 8 23.8025 8 19.7735ZM13.3245 24.1037C13.3542 23.7235 13.3245 23.3285 13.2405 22.9631H13.2306C13.1614 22.6175 13.0477 22.2867 12.8648 21.9904C12.667 21.6744 12.4 21.4424 12.054 21.3288C11.787 21.2301 11.525 21.2449 11.258 21.2794C10.7438 21.3634 10.378 21.6448 10.1308 22.0892C9.83417 22.6175 9.75013 23.1952 9.7353 23.7729C9.72541 24.0247 9.74024 24.2716 9.75507 24.5184C9.75676 24.5471 9.75903 24.5752 9.76128 24.6032C9.76562 24.657 9.7699 24.7101 9.7699 24.7653C9.78968 24.9826 9.81934 25.2097 9.85395 25.4269C9.938 25.8071 10.0715 26.1676 10.3187 26.4836C10.5659 26.8144 10.9169 26.9773 11.3124 27.0119C11.5299 27.0267 11.7425 27.0119 11.96 26.9773C12.4099 26.9131 12.7214 26.6613 12.9389 26.2663C13.1911 25.8219 13.2553 25.3084 13.3048 24.8147C13.326 24.6623 13.3254 24.5062 13.3247 24.3527L13.3245 24.2765V24.1037ZM51.6742 25.6195C51.6049 25.3628 51.5703 25.106 51.5357 24.8344C53.4935 24.8344 55.4167 24.8344 57.3893 24.8196V24.7752L57.3925 24.7374L57.3925 24.7373C57.4062 24.5791 57.4189 24.4317 57.4189 24.2716V24.2715C57.4189 24.2073 57.4189 24.153 57.409 24.0988C57.409 24.0741 57.4066 24.0494 57.4041 24.0247L57.4041 24.0246C57.4016 23.9999 57.3992 23.9753 57.3992 23.9506C57.3992 23.763 57.3843 23.5754 57.3645 23.3878C57.3299 23.131 57.2953 22.894 57.2459 22.6373C57.1272 22.0744 56.9245 21.5411 56.5834 21.0622C56.3807 20.7561 56.1236 20.4993 55.8369 20.2919C55.2585 19.8969 54.6108 19.7093 53.9137 19.6748C53.6863 19.6599 53.4539 19.6748 53.2265 19.6945L53.1128 19.7019L52.9991 19.7093C52.6926 19.7241 52.4058 19.813 52.1142 19.9167C51.6049 20.1043 51.1798 20.4104 50.8189 20.8203C50.6162 21.0424 50.4431 21.2992 50.3245 21.5708C50.1861 21.8621 50.0872 22.1534 50.0031 22.4447C49.8647 22.8743 49.8153 23.2989 49.7807 23.7433C49.7658 24 49.7658 24.237 49.7807 24.4938C49.7807 24.6764 49.7955 24.8591 49.8103 25.0418C49.8197 25.1262 49.8246 25.2151 49.8293 25.3V25.3001L49.8301 25.3134C49.8449 25.6393 49.9339 25.9651 50.0328 26.2713C50.1861 26.7996 50.4234 27.2637 50.7793 27.6735C51.0858 28.0339 51.4616 28.3055 51.9016 28.5129C52.3762 28.7203 52.8903 28.819 53.3996 28.8388C53.7555 28.8536 54.0966 28.8388 54.4526 28.8042C54.6751 28.7894 54.8976 28.7548 55.1003 28.7005C55.5106 28.5968 55.9012 28.4635 56.2571 28.2413C56.5636 28.0537 56.8504 27.8118 57.0926 27.5254C57.1272 27.4908 57.1272 27.4563 57.0926 27.4217L57.0925 27.4216C57.0085 27.3377 56.9245 27.2538 56.8356 27.1748C56.7929 27.1347 56.7503 27.0934 56.707 27.0514L56.7068 27.0512C56.6648 27.0105 56.6222 26.9692 56.5785 26.9279L56.0149 26.3651L55.7924 26.5428C55.7677 26.5626 55.7435 26.5823 55.7193 26.6021L55.7193 26.6021C55.671 26.6416 55.6226 26.6811 55.5699 26.7206C55.0953 27.0958 54.5317 27.2834 53.9187 27.3032C53.6616 27.318 53.3897 27.2686 53.1375 27.2193C52.8459 27.1501 52.5739 27.0316 52.3564 26.844C51.9807 26.5181 51.778 26.0935 51.6593 25.6294L51.6742 25.6195ZM55.5501 23.4816H51.5703C51.5852 23.3285 51.5852 23.1754 51.5852 23.0224C51.5901 23.0051 51.5938 22.9878 51.5975 22.9705L51.5976 22.9704C51.6013 22.9531 51.605 22.9359 51.6099 22.9187L51.6368 22.8128L51.6369 22.8127C51.6727 22.6711 51.7098 22.5244 51.7533 22.3904C51.956 21.8423 52.3169 21.4325 52.8755 21.2597C53.4391 21.0869 53.9978 21.1214 54.5268 21.4128C54.9025 21.6201 55.1398 21.9411 55.2931 22.3213C55.3771 22.5434 55.4463 22.7804 55.4958 23.0224C55.5152 23.1039 55.5224 23.1854 55.5294 23.2645C55.5313 23.286 55.5332 23.3074 55.5353 23.3285C55.5353 23.3622 55.5399 23.3982 55.5444 23.4333L55.5444 23.4334C55.5465 23.4497 55.5486 23.4659 55.5501 23.4816ZM29.9937 19.6698H29.9904L29.9954 19.6649L29.9937 19.6698ZM27.8992 25.8269C28.6204 23.74 29.3071 21.7073 29.9937 19.6698H31.9828C31.9828 19.7044 31.9828 19.7192 31.968 19.7537C31.8377 20.092 31.7075 20.4414 31.5793 20.7852L31.4538 21.1214C31.3871 21.2834 31.3249 21.4487 31.2629 21.6137L31.2629 21.6137C31.1963 21.7908 31.13 21.9673 31.0583 22.1386C30.9697 22.3745 30.8784 22.6096 30.7867 22.8457L30.7867 22.8458L30.7866 22.8458L30.7866 22.8459L30.7866 22.8459C30.6635 23.163 30.5396 23.482 30.4206 23.8074C30.3564 23.9749 30.2913 24.1424 30.2261 24.3103C30.1357 24.5432 30.0449 24.7769 29.9558 25.0122C29.84 25.3208 29.7195 25.634 29.5995 25.9458L29.5994 25.9462C29.5044 26.193 29.4098 26.439 29.3181 26.6811C29.1648 27.1007 29.0066 27.5155 28.8385 27.9352L28.7939 28.0536L28.7939 28.0536L28.7939 28.0536L28.7939 28.0536L28.7939 28.0537C28.6208 28.5136 28.4464 28.977 28.2551 29.4362C28.2133 29.5412 28.1726 29.6463 28.1321 29.751C28.0048 30.0796 27.8787 30.4054 27.7212 30.7199C27.4444 31.2877 26.9648 31.6729 26.327 31.821C26.1916 31.848 26.0562 31.863 25.9231 31.8777L25.8728 31.8833L25.8129 31.8901C25.6516 31.9 25.4925 31.8967 25.3326 31.8934H25.3326C25.2524 31.8918 25.172 31.8901 25.0911 31.8901H24.2654V30.2854H25.3679C25.8327 30.2706 26.243 30.0188 26.4012 29.5843C26.5753 29.1359 26.7367 28.6705 26.8971 28.2078L26.8971 28.2078L26.9351 28.0981C26.9579 28.0332 26.9358 27.9811 26.9137 27.9292C26.9022 27.9021 26.8908 27.8751 26.8857 27.8463C26.8139 27.6466 26.7421 27.4522 26.671 27.2596L26.671 27.2595C26.605 27.0808 26.5396 26.9037 26.4754 26.7255C26.3814 26.4663 26.2825 26.2071 26.1837 25.9478C26.0848 25.6886 25.9859 25.4294 25.892 25.1702C25.7709 24.8616 25.6547 24.553 25.5385 24.2444C25.4223 23.9358 25.3061 23.6272 25.185 23.3186C25.0682 23.0024 24.9459 22.6861 24.824 22.3705L24.8239 22.3705L24.8239 22.3704L24.8239 22.3703L24.8237 22.37L24.8237 22.3698C24.7134 22.0846 24.6034 21.7999 24.4978 21.5164C24.394 21.2325 24.2865 20.9487 24.1789 20.6648C24.0714 20.3808 23.9639 20.0969 23.86 19.813C23.8525 19.8054 23.8488 19.7927 23.8443 19.7775C23.8401 19.7629 23.8351 19.746 23.8254 19.7291H25.6992C25.7486 19.7291 25.7684 19.7636 25.7684 19.7982L26.0798 20.7017C26.1911 21.0103 26.2986 21.3189 26.4061 21.6275C26.5137 21.9361 26.6212 22.2447 26.7324 22.5533C26.9401 23.1359 27.1428 23.7235 27.3504 24.3259C27.5235 24.8097 27.6965 25.2936 27.8646 25.7775C27.8646 25.7923 27.8794 25.8121 27.8992 25.8269ZM46.9329 28.3302V22.9384C46.9329 22.499 46.7995 22.0892 46.4979 21.7288C46.2457 21.4177 45.8947 21.2548 45.514 21.2202L45.4531 21.2151C45.2905 21.2015 45.1279 21.1878 44.9653 21.2054C44.4808 21.2548 44.0655 21.4325 43.7788 21.8423C43.5761 22.1188 43.4772 22.4299 43.4277 22.7755C43.4129 22.8891 43.4129 23.0026 43.4129 23.1162V28.3104H41.6084V19.7389H43.3289V20.603C43.3667 20.5715 43.4025 20.54 43.4376 20.5092C43.5126 20.4433 43.5842 20.3803 43.665 20.3265C44.0655 20.0303 44.5006 19.8377 44.9999 19.7389C45.3361 19.6748 45.6673 19.655 46.0035 19.6748C46.3891 19.6896 46.7698 19.7735 47.1208 19.9364C47.4718 20.0994 47.7734 20.3265 48.0404 20.6079C48.3073 20.919 48.51 21.2794 48.6089 21.6843C48.693 22.0102 48.7276 22.3361 48.7276 22.6669C48.7276 22.9536 48.7313 23.2404 48.735 23.5265L48.735 23.5272V23.5273V23.5274V23.5275C48.7387 23.8125 48.7424 24.097 48.7424 24.3802C48.7424 24.9042 48.7461 25.4282 48.7498 25.9516V25.9518V25.952V25.9523C48.7535 26.4742 48.7572 26.9955 48.7572 27.5155V28.3302H46.9379H46.9329ZM38.0339 19.6698H39.7791V28.3351H38.0339V19.6698ZM38.0391 18.1392H39.7842V16.1H38.0391V18.1392Z" fill="#183B56"/>
</svg>
