<svg width="72" height="48" viewBox="0 0 72 48" fill="none" xmlns="http://www.w3.org/2000/svg">
<path d="M45.7886 17.0006H41.4322C41.1348 17.0006 40.8813 17.2182 40.8348 17.514L39.0732 28.7413C39.0381 28.9629 39.2088 29.1626 39.4311 29.1626H41.6666C41.8742 29.1626 42.0519 29.0102 42.0844 28.8028L42.5844 25.6203C42.6302 25.3239 42.8844 25.1062 43.1818 25.1062H44.56C47.4299 25.1062 49.0852 23.7106 49.5182 20.9449C49.7138 19.7349 49.5259 18.7842 48.9622 18.1184C48.3438 17.3873 47.2464 17.0006 45.7886 17.0006ZM46.2911 21.1011C46.0535 22.6722 44.8594 22.6722 43.704 22.6722H43.0474L43.5092 19.7381C43.5365 19.5608 43.6881 19.4302 43.8671 19.4302H44.1683C44.9543 19.4302 45.6969 19.4302 46.0803 19.8809C46.3089 20.1497 46.3784 20.5492 46.2911 21.1011Z" fill="#179BD7"/>
<path d="M58.8079 21.0506H56.7234C56.5444 21.0506 56.3922 21.1812 56.3655 21.3585L56.2731 21.945L56.1266 21.7324C55.6751 21.0737 54.6688 20.8534 53.6637 20.8534C51.3588 20.8534 49.3908 22.6082 49.0074 25.0698C48.8087 26.2978 49.0908 27.4719 49.7838 28.2907C50.4207 29.0436 51.3289 29.3573 52.411 29.3573C54.2682 29.3573 55.298 28.1569 55.298 28.1569L55.205 28.7395C55.17 28.9623 55.3407 29.162 55.5642 29.162H57.4424C57.7399 29.162 57.9934 28.9444 58.0398 28.648L59.1678 21.4719C59.2022 21.251 59.0315 21.0506 58.8079 21.0506ZM55.9005 25.1313C55.7005 26.3291 54.7535 27.1332 53.5472 27.1332C52.9428 27.1332 52.4575 26.938 52.1467 26.5679C51.8384 26.2004 51.7225 25.6774 51.8193 25.0948C52.0085 23.9072 52.9689 23.0769 54.1567 23.0769C54.749 23.0769 55.2305 23.2747 55.5477 23.6479C55.8668 24.025 55.9929 24.5513 55.9005 25.1313Z" fill="#179BD7"/>
<path d="M61.2669 17.3086L59.4792 28.7414C59.4442 28.9629 59.6148 29.1627 59.8371 29.1627H61.6344C61.9331 29.1627 62.1866 28.945 62.2325 28.6486L63.9954 17.4219C64.0304 17.2004 63.8597 17 63.6375 17H61.6249C61.4472 17.0006 61.2943 17.1312 61.2669 17.3086Z" fill="#179BD7"/>
<path d="M14.72 17.0006H10.3643C10.0662 17.0006 9.81272 17.2182 9.76622 17.514L8.00457 28.7413C7.96954 28.9629 8.14023 29.1626 8.36378 29.1626H10.4432C10.7413 29.1626 10.9948 28.9449 11.0413 28.6485L11.5164 25.6203C11.5623 25.3239 11.8164 25.1062 12.1138 25.1062H13.4927C16.3619 25.1062 18.0178 23.7106 18.4503 20.9449C18.6452 19.7349 18.4586 18.7842 17.8949 18.1184C17.2758 17.3873 16.1778 17.0006 14.72 17.0006ZM15.2225 21.1011C14.9843 22.6722 13.7901 22.6722 12.6354 22.6722H11.9782L12.4393 19.7381C12.4667 19.5608 12.6195 19.4302 12.7978 19.4302H13.0991C13.8857 19.4302 14.6276 19.4302 15.011 19.8809C15.2397 20.1497 15.3098 20.5492 15.2225 21.1011Z" fill="#253B80"/>
<path d="M27.7404 21.0506H25.6545C25.4768 21.0506 25.3233 21.1812 25.296 21.3586L25.2036 21.945L25.0578 21.7324C24.6062 21.0737 23.5993 20.8534 22.5942 20.8534C20.2893 20.8534 18.3207 22.6083 17.9373 25.0699C17.7379 26.2978 18.0213 27.4719 18.7143 28.2907C19.3499 29.0436 20.2594 29.3573 21.3415 29.3573C23.1987 29.3573 24.2285 28.1569 24.2285 28.1569L24.1355 28.7395C24.1005 28.9623 24.2712 29.1621 24.4935 29.1621H26.3723C26.671 29.1621 26.9232 28.9444 26.9704 28.648L28.0977 21.4719C28.1333 21.251 27.9633 21.0506 27.7404 21.0506ZM24.8329 25.1313C24.6317 26.3291 23.6859 27.1332 22.4796 27.1332C21.8739 27.1332 21.3899 26.938 21.0791 26.5679C20.7708 26.2005 20.6536 25.6774 20.7517 25.0948C20.9396 23.9072 21.9013 23.0769 23.0891 23.0769C23.6814 23.0769 24.1629 23.2747 24.4801 23.6479C24.7979 24.025 24.924 24.5513 24.8329 25.1313Z" fill="#253B80"/>
<path d="M38.8488 21.0506H36.7527C36.5527 21.0506 36.3649 21.1504 36.2515 21.3175L33.3606 25.598L32.1352 21.4846C32.0582 21.2273 31.8219 21.0506 31.5544 21.0506H29.4947C29.2444 21.0506 29.0705 21.2964 29.1501 21.5333L31.4589 28.3438L29.2883 31.4239C29.1176 31.6665 29.2896 32 29.5845 32H31.678C31.8767 32 32.0626 31.9027 32.1754 31.7388L39.1468 21.6236C39.3137 21.3816 39.1424 21.0506 38.8488 21.0506Z" fill="#253B80"/>
</svg>
