<svg width="72" height="48" viewBox="0 0 72 48" fill="none" xmlns="http://www.w3.org/2000/svg">
<path d="M18.8384 16.5C20.064 16.5 21.0665 17.4979 21.0665 18.7179V29.2793C21.0665 30.4992 20.064 31.4971 18.8384 31.4971H8.22814C7.00252 31.4971 6 30.4992 6 29.2793V21.1931L6.00575 18.5997C6.06894 17.434 7.04274 16.5 8.22814 16.5H18.8374H18.8384Z" fill="white"/>
<path d="M48.7952 19.3031H46.1257C45.8815 19.3031 45.6842 19.4994 45.6842 19.7425V28.1117H47.5638V25.118H48.7952C50.6145 25.118 52.2624 23.9876 52.2624 22.0738C52.2624 20.1599 50.6135 19.3021 48.7952 19.3021V19.3031ZM47.5638 24.2183V20.2028C47.5638 20.2028 48.1431 20.2057 48.7952 20.2057C49.7183 20.2057 50.7342 20.9014 50.7342 22.0957C50.7342 23.2899 49.7154 24.2183 48.7952 24.2183H47.5638ZM55.4643 21.5162C54.0415 21.5162 53.3099 21.8631 53.3099 21.8631L53.4832 22.3873C53.4832 22.3873 54.0204 22.1414 55.0679 22.1414C56.2351 22.1414 56.4716 22.7047 56.4716 23.4758L56.4554 23.8199C56.2054 23.7455 55.6204 23.6502 55.022 23.6502C54.1315 23.6502 52.6636 24.1954 52.6636 25.9796C52.6636 27.7638 53.9582 28.2289 54.8755 28.2289C55.6328 28.2289 56.0963 27.9964 56.4678 27.7657V28.1155H58.3455V23.4758C58.3532 22.0099 56.8882 21.5171 55.4634 21.5171L55.4643 21.5162ZM55.5438 27.3997C54.728 27.3997 54.142 26.8012 54.142 25.9148C54.142 25.0284 54.9262 24.5089 55.6396 24.5089C55.9986 24.5089 56.3414 24.6071 56.4745 24.7205V26.9889C56.2457 27.19 55.9776 27.3988 55.5438 27.3988V27.3997ZM62.7443 28.9114C62.1727 30.1685 61.2343 30.3305 60.814 30.3801C60.3726 30.4306 59.8995 30.4096 59.8995 30.4096V29.3831C60.7374 29.3831 61.1922 29.4489 61.6863 28.4729L62.0214 27.6256L58.9344 21.5143H60.9049L62.9282 25.5774L64.7178 21.5143H65.9999C65.9999 21.5143 63.3169 27.658 62.7453 28.9123L62.7443 28.9114ZM27.297 19.3031H24.6275C24.3823 19.3031 24.186 19.4994 24.186 19.7425V28.1117H26.0656V25.118H27.297C29.1163 25.118 30.7642 23.9876 30.7642 22.0738C30.7671 20.1599 29.1182 19.3021 27.297 19.3021V19.3031ZM26.0685 24.2183V20.2028C26.0685 20.2028 26.6478 20.2057 27.2999 20.2057C28.2229 20.2057 29.2379 20.9014 29.2379 22.0957C29.2379 23.2899 28.2191 24.2183 27.2999 24.2183H26.0685ZM33.969 21.5162C32.5461 21.5162 31.8155 21.8631 31.8155 21.8631L31.9889 22.3873C31.9889 22.3873 32.5231 22.1414 33.5735 22.1414C34.7408 22.1414 34.9773 22.7047 34.9773 23.4758L34.961 23.8199C34.7111 23.7455 34.126 23.6502 33.5276 23.6502C32.639 23.6502 31.1692 24.1954 31.1692 25.9796C31.1692 27.7638 32.4638 28.2289 33.382 28.2289C34.1394 28.2289 34.6 27.9964 34.9744 27.7657V28.1155H36.8521V23.4758C36.8578 22.0099 35.3919 21.5171 33.97 21.5171L33.969 21.5162ZM34.0485 27.3997C33.2317 27.3997 32.6467 26.8012 32.6467 25.9148C32.6467 25.0284 33.4309 24.5089 34.1433 24.5089C34.5023 24.5089 34.8451 24.6071 34.9782 24.7205V26.9889C34.7465 27.19 34.4784 27.3988 34.0475 27.3988L34.0485 27.3997ZM41.2471 28.9114C40.6755 30.1685 39.7371 30.3305 39.3167 30.3801C38.8753 30.4306 38.4023 30.4096 38.4023 30.4096V29.3831C39.2401 29.3831 39.695 29.4489 40.189 28.4729L40.5242 27.6256L37.4371 21.5143H39.4077L41.4309 25.5774L43.2205 21.5143H44.5027C44.5027 21.5143 41.8197 27.658 41.2481 28.9123L41.2471 28.9114Z" fill="#3F3A39"/>
<path d="M8.93288 31.4971H8.22814C7.00252 31.4971 6 30.4992 6 29.2793V21.1931C7.9993 20.992 9.86359 20.9977 11.499 21.1531L8.93288 31.4971ZM17.9948 24.5071C18.3482 23.0755 16.0271 21.7488 12.312 21.2484L10.9638 26.8336C14.0776 26.9823 17.6137 26.0473 17.9948 24.5071ZM18.8384 16.5H8.22814C7.04274 16.5 6.06894 17.434 6.00575 18.5987C14.8896 18.35 19.2109 21.4257 18.533 24.4937C17.9211 27.2539 15.1031 28.3128 10.5233 28.6626L9.83773 31.5H18.8384C20.064 31.5 21.0665 30.5021 21.0665 29.2821V18.7179C21.0665 17.4979 20.064 16.5 18.8384 16.5Z" fill="#FF0033"/>
</svg>
