<svg width="72" height="48" viewBox="0 0 72 48" fill="none" xmlns="http://www.w3.org/2000/svg">
<path d="M60.5109 19.1686C61.3333 19.1686 62 18.5019 62 17.6796C62 16.8572 61.3333 16.1905 60.5109 16.1905C59.6885 16.1905 59.0219 16.8572 59.0219 17.6796C59.0219 18.5019 59.6885 19.1686 60.5109 19.1686Z" fill="#7887E6"/>
<path d="M60.5109 23.8303C61.3333 23.8303 62 23.1636 62 22.3412C62 21.5189 61.3333 20.8522 60.5109 20.8522C59.6885 20.8522 59.0219 21.5189 59.0219 22.3412C59.0219 23.1636 59.6885 23.8303 60.5109 23.8303Z" fill="#FF5073"/>
<path fill-rule="evenodd" clip-rule="evenodd" d="M13.7911 20.0526H12.3463V23.6595H10V13.7866H13.7911C16.052 13.7866 17.1253 15.1028 17.1253 16.8481C17.1253 18.865 15.6939 20.0526 13.7911 20.0526ZM13.4392 15.5031H12.3463V18.3351H13.5338C14.355 18.3351 14.8953 17.7917 14.8469 16.8141C14.8099 16.0742 14.1801 15.5031 13.4392 15.5031ZM23.5981 23.6585H21.3085H21.3074V23.3343C20.8505 23.6214 20.2526 23.8293 19.7021 23.8293C18.3067 23.8293 17.2457 22.7776 17.2457 21.5252C17.2457 20.243 18.1533 18.8548 21.3085 19.0791V18.5923C21.3085 18.0346 20.8361 17.8483 20.3072 17.8483C19.5632 17.8483 18.6905 18.1776 18.2758 18.3639L17.646 17.0621C18.3324 16.633 19.4489 16.1895 20.8649 16.1895C22.5536 16.1895 23.5981 16.9335 23.5981 18.579V23.6585ZM19.5333 21.484C19.5333 22.013 19.9202 22.3423 20.4924 22.3423C20.8505 22.3423 21.1798 22.2136 21.3928 22.0562V20.5249C20.0067 20.2955 19.5333 20.8831 19.5333 21.484ZM46.3736 16.3613V16.0608C46.3736 14.3299 47.346 13.2 49.1922 13.2C49.6079 13.2 49.965 13.2576 50.2799 13.3431V14.9731C50.0947 14.9165 49.823 14.8733 49.6079 14.8733C48.9061 14.8733 48.6488 15.3312 48.6488 15.9754V16.3613H50.2223V17.9214H48.6488V23.6585H46.3736V17.9214H45.1572V16.3613H46.3736ZM38.5495 17.0631C39.2359 16.634 40.3525 16.1905 41.7685 16.1905C43.4572 16.1905 44.5017 16.9345 44.5006 18.579V23.6585H42.211V23.3353C41.7541 23.6224 41.1562 23.8303 40.6056 23.8303C39.2102 23.8303 38.1492 22.7786 38.1492 21.5262C38.1492 20.244 39.0569 18.8558 42.212 19.0801V18.5934C42.212 18.0356 41.7396 17.8494 41.2107 17.8494C40.4667 17.8494 39.594 18.1787 39.1793 18.3649L38.5495 17.0631ZM41.3105 22.3423C41.6686 22.3423 41.9969 22.2136 42.212 22.0562H42.211V20.5249C40.8248 20.2955 40.3514 20.8831 40.3514 21.484C40.3514 22.013 40.7384 22.3423 41.3105 22.3423ZM31.7381 16.3623L28.0406 25.7063H25.8621L26.8253 23.3158L23.7391 16.3623H26.0823L27.8894 20.7225L29.4639 16.3623H31.7381ZM57.5338 19.8982V20.4683V20.4704H52.7898C52.8258 20.845 52.9215 21.1506 53.0656 21.3935C53.0666 21.3945 53.0666 21.3955 53.0677 21.3966C53.0913 21.4346 53.116 21.4717 53.1418 21.5067C53.1572 21.5283 53.1726 21.5478 53.1891 21.5684C53.1923 21.5722 53.1955 21.5761 53.1987 21.5801C53.2058 21.5889 53.2132 21.598 53.221 21.6065C53.2488 21.6394 53.2786 21.6713 53.3095 21.7012L53.3126 21.7043C53.3887 21.7773 53.4741 21.8432 53.5688 21.9008C53.5709 21.9018 53.5719 21.9018 53.5729 21.9029C53.6151 21.9286 53.6604 21.9523 53.7067 21.9749C53.716 21.979 53.7242 21.9831 53.7324 21.9873C53.7602 22.0006 53.7901 22.013 53.8199 22.0243C53.8466 22.0346 53.8734 22.0438 53.9001 22.0531L53.9002 22.0531C53.9119 22.0568 53.924 22.0605 53.9362 22.0642C53.9444 22.0667 53.9526 22.0692 53.9609 22.0716L53.961 22.0717C53.999 22.0819 54.0371 22.0922 54.0762 22.1015C54.0828 22.103 54.0895 22.1043 54.0962 22.1056C54.1029 22.1069 54.1096 22.1082 54.1163 22.1097C54.1544 22.1179 54.1924 22.1241 54.2315 22.1303L54.2361 22.1311C54.2457 22.1329 54.2547 22.1345 54.2645 22.1354C54.3128 22.1416 54.3622 22.1468 54.4116 22.1498C54.424 22.1509 54.4353 22.1509 54.4476 22.1519C54.5001 22.155 54.5526 22.157 54.6072 22.157C55.2287 22.157 55.9223 21.9821 56.6066 21.5941L57.2447 23.0122C56.2351 23.712 54.9251 23.8313 54.2634 23.8313C51.8883 23.8313 50.4003 22.3567 50.4003 20.0536C50.4003 17.8072 51.9748 16.1905 54.0062 16.1905C56.0376 16.1905 57.5338 17.7588 57.5338 19.8982ZM55.2225 19.2664C55.1361 18.2939 54.636 17.7928 54.0062 17.7928C53.3764 17.7928 52.8763 18.2929 52.7898 19.2664H55.2225ZM34.1791 22.1704C34.8521 22.1704 35.2524 21.9698 35.2524 21.5694C35.2524 21.1417 34.706 20.9552 34.0492 20.7309C33.0594 20.393 31.8188 19.9695 31.8194 18.5059C31.8194 16.9613 33.1922 16.1884 34.8953 16.1884C35.8256 16.1884 36.7414 16.4745 37.3424 16.775L36.6982 18.2774C36.2403 18.0778 35.6105 17.8627 35.0095 17.8627C34.4374 17.8627 34.0936 18.0768 34.0936 18.4205C34.0936 18.7986 34.6039 18.9691 35.2278 19.1777C36.2086 19.5055 37.47 19.9272 37.47 21.3966C37.47 22.971 36.0396 23.8293 34.3797 23.8293C33.4494 23.8293 32.4482 23.6152 31.5899 23.1573L32.3195 21.6837C32.8341 21.942 33.4927 22.1704 34.1791 22.1704ZM42.3787 28.5465V27.5854H41.966V27.3158H43.1073L43.1495 27.5854H42.7595V28.5465H42.3787ZM44.4626 28.5465L44.4163 27.6554L44.3844 27.7752L44.3842 27.7757C44.3158 28.0328 44.2476 28.2893 44.1755 28.5465H43.841L43.6002 27.6554L43.5539 28.5465H43.2133C43.2503 28.138 43.2833 27.7253 43.3152 27.3168H43.7937L44.0118 28.1895L44.0143 28.1794C44.0834 27.8906 44.1516 27.6057 44.2248 27.3168H44.7034L44.8011 28.5465H44.4626ZM10.0103 27.678V33.1691H11.3152V31.1635H12.1189C13.1778 31.1635 13.9732 30.5028 13.9732 29.3811C13.9732 28.4097 13.3764 27.678 12.1189 27.678H10.0103ZM12.7085 29.4285C12.7085 29.9296 12.4142 30.2085 11.9768 30.2085H11.3162V28.633H11.9768C12.4461 28.633 12.7085 28.9592 12.7085 29.4285ZM16.4646 32.7637L16.5367 33.1691V33.1702H17.6985V30.3454C17.6985 29.4295 17.1181 29.0158 16.1785 29.0158C15.3903 29.0158 14.7697 29.2628 14.388 29.5015L14.7378 30.226C14.9684 30.1221 15.4541 29.9389 15.8678 29.9389C16.1621 29.9389 16.4245 30.0418 16.4245 30.3526V30.6232C14.7296 30.5913 14.1647 31.1717 14.1647 32.0475C14.1647 32.8594 14.8016 33.2648 15.4304 33.2648C15.9398 33.2648 16.2413 33.0107 16.4646 32.7637ZM16.1394 31.4022C16.2057 31.4022 16.2622 31.4086 16.3218 31.4154L16.3218 31.4154L16.3219 31.4154L16.3219 31.4154C16.3548 31.4191 16.3886 31.423 16.4255 31.4259V32.2769C16.3061 32.3644 16.123 32.4364 15.9244 32.4364C15.6064 32.4364 15.3913 32.2533 15.3913 31.959C15.3913 31.6255 15.63 31.4022 16.1394 31.4022ZM18.9323 34.8959L19.6012 33.1691H19.2194C19.0717 32.7043 18.9249 32.2395 18.7781 31.7748L18.778 31.7745C18.4975 30.8865 18.2171 29.9987 17.93 29.1105H19.2194L19.983 32.1185L20.8423 29.1105H22.1081C21.7413 30.1707 21.3795 31.2312 21.0185 32.2892L21.0185 32.2893L21.0185 32.2894L21.0184 32.2896C20.7211 33.161 20.4244 34.0307 20.1261 34.897H18.9323V34.8959ZM24.408 27.678V33.1691H27.806V32.2224H25.7129V27.678H24.408ZM30.5361 33.1691L30.4641 32.7637C30.2408 33.0107 29.9393 33.2648 29.4299 33.2648C28.8011 33.2648 28.1641 32.8594 28.1641 32.0475C28.1641 31.1717 28.7291 30.5913 30.424 30.6232V30.3526C30.424 30.0418 30.1616 29.9389 29.8673 29.9389C29.4536 29.9389 28.9678 30.1221 28.7373 30.226L28.3874 29.5015C28.7692 29.2628 29.3898 29.0158 30.178 29.0158C31.1176 29.0158 31.698 29.4295 31.698 30.3454V33.1702H30.5361V33.1691ZM30.425 31.4259C30.388 31.423 30.3542 31.4191 30.3213 31.4154C30.2617 31.4086 30.2052 31.4022 30.1389 31.4022C29.6295 31.4022 29.3908 31.6255 29.3908 31.959C29.3908 32.2533 29.6059 32.4364 29.9238 32.4364C30.1225 32.4364 30.3056 32.3644 30.425 32.2769V31.4259ZM32.7486 32.0629C32.7486 33.1218 33.505 33.1691 33.8868 33.1691V33.1712H34.7944V32.3191H34.4446C34.1657 32.3191 34.0144 32.1915 34.0144 31.7778V29.979H34.7944V29.1115H34.0144V27.9013L32.7486 28.3387V29.1105H32.1281V29.978H32.7486V32.0629ZM38.8366 32.8666C38.5825 33.058 37.9208 33.2648 37.2683 33.2648C35.947 33.2648 35.1196 32.4447 35.1196 31.1635C35.1196 29.9142 35.9954 29.0148 37.1253 29.0148C37.9928 29.0148 38.8521 29.484 38.8521 30.9165V31.394H36.4492C36.513 32.0629 36.9184 32.3335 37.4597 32.3335C37.8662 32.3335 38.3272 32.1668 38.4785 32.0711L38.8366 32.8666ZM37.683 30.7261C37.683 30.1766 37.4443 29.906 37.1099 29.906C36.76 29.906 36.4976 30.1848 36.4492 30.7261H37.683ZM39.3697 29.1105V33.1691H40.6427V30.5429C40.866 30.3196 41.2241 30.1848 41.5585 30.1848H41.5586C41.6378 30.1848 41.8045 30.1848 41.8765 30.2003V29.0148C41.328 29.0148 40.8423 29.3492 40.5799 29.8504V29.1105H39.3697Z" fill="#2D2341"/>
</svg>
