<svg width="72" height="48" viewBox="0 0 72 48" fill="none" xmlns="http://www.w3.org/2000/svg">
<path fill-rule="evenodd" clip-rule="evenodd" d="M43.8052 32.2504H54.1765V27.5963H48.9215V16.7213H43.8052V32.2504ZM12 16.813V32.3183L16.6224 32.3251V27.5928H17.6623C19.5046 27.5928 21.6069 27.2071 22.5602 26.2827C23.5134 25.3584 23.9069 23.9735 23.9069 22.2046C23.9291 21.2551 23.7521 20.3112 23.3869 19.4315C23.088 18.7077 22.564 18.0947 21.8895 17.6796C21.2181 17.3114 20.4907 17.0515 19.7351 16.9099C19.1336 16.8035 18.0532 16.8072 16.835 16.8114C16.5931 16.8122 16.3456 16.813 16.0955 16.813H12ZM16.8009 24.7551C16.7289 24.7541 16.6571 24.7484 16.586 24.7381L16.5808 19.9668V19.7068C17.4993 19.7068 18.3313 19.8308 18.6779 20.1944C19.174 20.7214 19.1731 21.27 19.172 21.9303L19.1718 22.0262C19.1718 22.8724 19.1614 23.7866 18.8252 24.1961C18.6068 24.4612 18.229 24.8078 16.8009 24.7551ZM59.9652 22.0771H55.0638V32.2723H59.9652V22.0771ZM54.9946 16.7892H59.9999V21.005H54.9946V16.7892Z" fill="black"/>
<path fill-rule="evenodd" clip-rule="evenodd" d="M36.9266 31.1816C37.5869 30.9488 38.2386 30.4577 38.8001 29.9582C40.3825 28.5444 42.0498 26.1451 41.9198 23.2242C41.7847 20.1486 40.1017 18.1775 37.8608 16.949C38.5072 17.0883 39.0411 17.5097 39.5385 17.9057C40.977 19.0475 42.0689 20.8164 42.1157 23.3024C42.1781 26.609 40.3825 28.8639 38.6026 30.4187C39.1606 30.1468 39.5905 29.6438 40.0064 29.1561C41.185 27.773 42.2699 25.8036 42.2699 23.3397C42.2699 19.8716 40.2699 17.8751 37.937 16.5684C38.6887 16.8065 39.3803 17.198 39.9666 17.717C40.8283 18.4521 41.5028 19.3746 41.9361 20.4108C42.3694 21.4469 42.5496 22.5681 42.4623 23.6847C42.3209 26.1182 41.2314 28.4054 39.4189 30.0737C37.634 31.7457 35.3215 32.7717 32.8623 32.9828C32.5375 33.0057 32.2114 33.0057 31.8865 32.9828C27.8136 32.6514 24.8586 30.0941 24.55 26.1723C24.518 25.7646 24.518 25.355 24.55 24.9472C24.7234 22.4731 25.8638 20.5021 27.3595 18.9796C28.987 17.3228 31.0442 16.0739 33.9143 15.8802C33.9854 15.5726 34.0686 15.2209 34.1119 15C35.0565 15.9838 36.2039 17.056 37.3893 18.2132C35.9612 18.9303 34.5712 19.6847 33.1743 20.4324C33.2055 20.152 33.2713 19.8326 33.2904 19.6287C30.8934 20.045 28.8726 21.751 28.4531 24.1435C27.9332 27.0627 29.9298 29.2938 32.7861 29.3091C35.6718 29.3244 38.1207 27.1392 38.561 24.6413C38.9076 22.6227 38.0064 21.2123 36.8434 20.2795C37.9284 20.9829 39.0965 22.2539 38.9509 24.1435C38.7152 27.1035 35.8763 29.5555 32.9056 29.5776C32.1245 29.5806 31.3523 29.4147 30.6441 29.0916C29.9359 28.7685 29.3091 28.2962 28.8084 27.7084C29.7807 29.095 31.481 29.8256 33.4135 29.6982C34.9317 29.5979 36.216 28.8673 37.1606 27.9769C38.1051 27.0865 38.8764 25.8019 39.067 24.4952C39.1442 23.9751 39.1442 23.4469 39.067 22.9268C38.8296 21.3975 37.8833 20.6856 37.0167 19.6983C38.2507 20.6635 39.5437 21.9498 39.4587 24.0313C39.3305 27.0729 36.3598 29.7543 33.2523 29.9616C31.2141 30.0975 29.9593 29.4144 28.8812 28.4323C29.9021 29.6999 31.8276 30.3507 33.8381 30.0397C36.7065 29.5962 39.2629 27.2496 39.5749 24.3389C39.8556 21.7102 38.4986 20.4902 37.2022 19.2022C38.5887 20.2217 39.762 21.3619 39.847 23.4587C39.9215 25.2802 39.0168 27.0627 37.8573 28.2029C36.0028 30.0261 32.3909 31.2224 29.5832 29.5419C31.9749 31.3311 35.6891 30.3065 37.6615 28.5478C39.093 27.2734 40.1381 25.5742 39.9648 23.0373C39.8244 20.9982 38.6459 19.9549 37.3114 18.8674C38.684 19.5573 40.0082 20.9371 40.1988 22.9234C40.4536 25.5232 39.2317 27.4433 37.7446 28.7347C35.9473 30.2895 33.4117 31.2156 30.5641 30.4951C35.2818 31.9361 39.6927 28.502 40.3201 24.5275C40.7708 21.6711 39.2802 19.9872 37.8625 18.7875C37.7169 18.6652 37.6337 18.5768 37.4344 18.4052C39.4605 19.4383 41.1434 21.7221 40.4778 24.9472C39.7031 28.7025 35.8659 31.7441 30.916 30.9539C31.6352 31.236 32.4758 31.1748 33.2003 31.1374C35.4534 31.0134 37.4916 29.9106 38.5835 28.7228C39.9076 27.2785 40.9562 25.4587 40.7534 22.8368C40.5697 20.4579 39.2178 19.3279 37.5644 18.079C38.2572 18.3516 38.8735 18.7827 39.3617 19.3364C40.3046 20.3172 40.8771 21.5848 40.9839 22.9285C41.185 25.632 39.918 27.6405 38.5263 29.0457C37.0427 30.5461 35.0322 31.5096 32.4776 31.5316C36.4846 31.6506 39.1468 29.2394 40.438 26.5581C41.178 25.0288 41.393 22.8572 40.7846 21.163C40.2283 19.6032 38.9527 18.5327 37.6996 17.6644C39.8886 18.8113 41.7309 20.9642 41.3306 24.2998C41.1956 25.4516 40.8064 26.5609 40.1901 27.5504C38.996 29.5147 37.0427 30.8961 34.852 31.6472C36.4742 31.3074 38.0133 30.3507 39.145 29.1205C40.5316 27.6201 41.5957 25.722 41.5264 23.0764C41.4484 20.2285 39.6529 18.587 37.8192 17.299C37.843 17.3023 37.8663 17.3086 37.8885 17.3177C39.8903 18.2795 41.4051 19.9481 41.7205 22.5411C42.2231 26.6345 39.4743 29.6234 36.9266 31.1816Z" fill="#30469D"/>
</svg>
