<svg width="72" height="48" viewBox="0 0 72 48" fill="none" xmlns="http://www.w3.org/2000/svg">
<path fill-rule="evenodd" clip-rule="evenodd" d="M21.7038 32.4877C23.4489 32.4877 25.3422 33.0859 27.4351 34.9319C27.6477 35.1185 27.9246 34.8869 27.7442 34.6554C25.6835 32.0632 23.7838 31.5679 21.8841 31.1563C19.5593 30.6481 18.368 29.3424 17.5308 27.9145C17.3634 27.6315 17.2925 27.6829 17.2732 28.0431C17.2539 28.487 17.2861 29.0851 17.3891 29.664C17.2925 29.664 17.2024 29.664 17.1058 29.664C13.7829 29.664 11.0911 26.9754 11.0911 23.6629C11.0911 20.3503 13.7829 17.6746 17.1058 17.6746C20.4287 17.6746 23.1205 20.3632 23.1205 23.6693C23.1205 23.9073 23.1076 24.1388 23.0819 24.3704C22.644 24.2932 21.781 24.2803 21.1693 24.3318C20.9439 24.3511 20.9761 24.4604 21.1435 24.4862C23.1334 24.8464 24.4986 26.0749 24.8142 28.3004C24.8206 28.3519 24.8914 28.3647 24.9172 28.3197C25.7608 26.9111 26.2116 25.3031 26.2052 23.6629C26.2052 18.6651 22.1288 14.6 17.1058 14.6C12.0828 14.6 8 18.6651 8 23.6757C8 28.6863 12.0764 32.7514 17.1058 32.7514C18.4388 32.7514 19.7654 32.4942 21.7038 32.4942V32.4877ZM22.3799 29.1945C22.7856 29.5354 22.908 29.9406 22.6955 30.2301C22.5796 30.3844 22.3799 30.4745 22.1546 30.4745C21.9292 30.4745 21.7102 30.3973 21.5363 30.2494C21.1693 29.9277 21.0598 29.4067 21.2981 29.1109C21.3947 28.9951 21.5428 28.9308 21.7295 28.9308C21.9485 28.9308 22.1868 29.0272 22.3864 29.1945H22.3799ZM24.2475 28.3261C24.3054 28.7249 24.1831 28.8857 24.0543 28.8857C23.9126 28.8857 23.7452 28.7249 23.5391 28.4033C23.3395 28.0882 23.2622 27.728 23.3652 27.5479C23.4296 27.4257 23.5713 27.3742 23.7452 27.4385C24.08 27.5672 24.2153 28.0817 24.2539 28.3197L24.2475 28.3261ZM36.8629 26.2486L35.8132 24.9879C35.7424 24.9043 35.7553 24.7756 35.839 24.7049C35.8776 24.6727 35.9227 24.6598 35.9678 24.6598H38.1638C38.2668 24.3511 38.3247 24.0166 38.3247 23.6757C38.3247 22.0999 37.1463 20.7427 35.5299 20.7427C33.9135 20.7427 32.7351 22.0999 32.7351 23.6757C32.7351 25.2516 33.9135 26.5895 35.5299 26.5895C36.0193 26.5895 36.4701 26.4673 36.8565 26.2486H36.8629ZM41.609 28.3776C41.7249 28.5062 41.6283 28.7056 41.4545 28.7056H39.0589C38.9623 28.7056 38.8721 28.6606 38.8077 28.5899L38.402 28.101C37.5455 28.6542 36.5538 28.9501 35.5299 28.9501C32.6127 28.9501 30.2429 26.583 30.2429 23.6757C30.2429 20.7684 32.6127 18.4014 35.5299 18.4014C38.4471 18.4014 40.8169 20.7684 40.8169 23.6757C40.8169 24.7242 40.5078 25.7018 39.9733 26.5252L41.6026 28.384L41.609 28.3776ZM63.7424 18.6458H61.7847C61.6431 18.6458 61.5271 18.7616 61.5271 18.9031V28.4419C61.5271 28.5834 61.6431 28.6992 61.7847 28.6992H63.7424C63.8841 28.6992 64 28.5834 64 28.4419V18.9031C64 18.7616 63.8841 18.6458 63.7424 18.6458ZM60.4517 18.6458H58.2622C58.1463 18.6458 58.0497 18.7166 58.011 18.8259L56.2788 24.4669L54.3726 18.8195C54.334 18.7166 54.2374 18.6458 54.1279 18.6458H52.6017C52.4922 18.6458 52.3891 18.7166 52.3569 18.8195L50.4572 24.4669L48.7249 18.8259C48.6927 18.7166 48.5897 18.6458 48.4738 18.6458H46.2843C46.2006 18.6458 46.1233 18.6844 46.0718 18.7552C46.0202 18.8195 46.0074 18.9095 46.0331 18.9867L49.2466 28.532C49.2852 28.6349 49.3818 28.7056 49.4913 28.7056H51.23C51.3395 28.7056 51.4425 28.6349 51.4747 28.532L53.3615 22.9553L55.2484 28.532C55.287 28.6349 55.3836 28.7056 55.4931 28.7056H57.2318C57.3413 28.7056 57.4443 28.6349 57.4765 28.532L60.69 18.9867C60.7157 18.9095 60.7029 18.8195 60.6513 18.7552C60.5998 18.6908 60.5225 18.6458 60.4388 18.6458H60.4517ZM45.2153 18.9031V28.4419C45.2153 28.5834 45.0994 28.6992 44.9577 28.6992H43C42.8583 28.6992 42.7424 28.5834 42.7424 28.4419V18.9031C42.7424 18.7616 42.8583 18.6458 43 18.6458H44.9577C45.0994 18.6458 45.2153 18.7616 45.2153 18.9031Z" fill="#FF8C00"/>
</svg>
