<svg width="72" height="48" viewBox="0 0 72 48" fill="none" xmlns="http://www.w3.org/2000/svg">
<path fill-rule="evenodd" clip-rule="evenodd" d="M16.8242 10.4399C16.1232 10.3351 14.927 10.4043 14.4377 11.0443C13.7121 11.993 13.9828 13.2662 15.0087 13.8716C15.2302 14.0021 15.7087 14.295 16.4441 14.75C16.9817 15.0834 17.2445 16.1092 16.389 16.1676C15.6928 16.2146 15.684 15.7705 15.6745 15.2975C15.6727 15.2033 15.6708 15.108 15.6634 15.0151C15.6614 14.9825 15.6339 14.9577 15.6004 14.9577H14.0498C14.0252 14.9577 14.0045 14.9815 14.0035 15.0112C13.97 16.0785 14.1591 16.9075 15.305 17.2092C16.7159 17.5822 18.4319 17.2834 18.5303 15.4632C18.5998 14.1795 17.681 13.6622 16.7271 13.1252C16.5189 13.008 16.309 12.8899 16.1074 12.7626C14.6602 11.8496 16.7887 10.7674 16.8173 12.1325C16.8192 12.2314 16.8251 12.3313 16.834 12.4322C16.836 12.4619 16.8566 12.4847 16.8803 12.4847H18.2832C18.3098 12.4847 18.3334 12.4629 18.3393 12.4332C18.553 11.2867 17.9189 10.6051 16.8242 10.4399ZM36.1906 12.4461C35.6836 11.4114 37.3819 11.0196 37.2549 12.3729V12.3828C37.2549 12.4392 37.3012 12.4847 37.3583 12.4847H38.7366H38.7386C38.7711 12.4837 38.7957 12.457 38.7947 12.4263C38.7936 12.3729 38.7929 12.3203 38.7923 12.2685C38.7853 11.7148 38.7795 11.2509 38.2591 10.8366C37.6891 10.3835 36.6337 10.3677 35.9317 10.5151C35.0112 10.708 34.5425 11.2818 34.5268 12.2374C34.5084 13.3467 35.3954 13.8427 36.1867 14.2851C36.8369 14.6486 37.4224 14.976 37.3878 15.578C37.3415 16.3862 36.1188 16.3347 36.1266 15.5256C36.1286 15.3099 36.1247 15.1398 36.1158 15.0151C36.1138 14.9825 36.0863 14.9577 36.0538 14.9577H34.5032H34.5022C34.4815 14.9587 34.4667 14.9844 34.4667 15.0171C34.4864 15.9757 34.5366 16.6889 35.5202 17.0994C36.5638 17.5367 38.4875 17.4041 38.8626 16.0498C39.1649 14.9607 38.8459 14.1347 37.9057 13.5699C37.819 13.5179 37.6894 13.4486 37.5393 13.3683C37.0431 13.1027 36.3229 12.7172 36.1906 12.4461ZM55.8426 14.3889H56.3595C56.3841 14.3889 56.4038 14.4137 56.4048 14.4453C56.407 14.4927 56.4101 14.5445 56.4135 14.5996C56.4504 15.2065 56.5112 16.2041 55.5886 16.0291C55.2736 15.9697 55.1121 15.7689 55.1042 15.4266C55.0767 14.1535 55.0727 13.1128 55.0924 12.3056C55.1032 11.8229 55.3533 11.5152 55.8505 11.6023C56.2039 11.6636 56.3851 11.9584 56.393 12.4866C56.3939 12.5806 56.4668 12.6558 56.5564 12.6558L57.8845 12.6578C57.9101 12.6578 57.9318 12.636 57.9367 12.6063C58.2005 10.7565 56.5554 10.2164 55.0806 10.4825C54.0498 10.6684 53.53 11.3025 53.5211 12.3857C53.5142 13.2157 53.5201 14.0447 53.5369 14.8737C53.5497 15.5078 53.6018 15.9371 53.6944 16.1606C54.3137 17.6593 57.6108 17.5634 57.916 15.8965C58.0046 15.4118 58.0233 14.6165 57.9711 13.5095C57.9692 13.4749 57.9426 13.4472 57.9101 13.4472L55.8416 13.4422C55.8013 13.4422 55.7688 13.468 55.7688 13.4996V14.3395C55.7688 14.3672 55.8022 14.3889 55.8426 14.3889ZM23.5258 10.6427L20.7396 10.5972L19.572 17.0292V17.0371C19.572 17.0628 19.5897 17.0846 19.6123 17.0846H21.1629C21.2092 17.0846 21.2476 17.0509 21.2545 17.0054C21.5311 15.1289 21.8088 13.2543 22.0874 11.3797C22.1002 11.2936 22.1248 11.262 22.1612 11.2847C22.1829 11.2986 22.1967 11.3302 22.1977 11.3688C22.2006 11.5024 22.2134 11.6369 22.2361 11.7704C22.5294 13.5412 22.8218 15.3149 23.1143 17.0905C23.1202 17.1281 23.1487 17.1548 23.1812 17.1548L24.4926 17.1726C24.4985 17.1736 24.5044 17.1726 24.5103 17.1716C24.5635 17.1617 24.5979 17.1103 24.5891 17.0549L23.5258 10.6427ZM32.9043 17.043L32.7842 11.2976V11.2966L32.7763 10.6556C32.7753 10.6269 32.7556 10.6041 32.731 10.6041H30.2697C30.2441 10.6041 30.2195 10.6328 30.2136 10.6724L29.4624 15.4979C29.4614 15.5008 29.4605 15.5038 29.4595 15.5058C29.4546 15.5157 29.4437 15.5196 29.4358 15.5147C29.3573 15.4629 28.9116 12.4698 28.7203 11.1852C28.6814 10.924 28.653 10.7335 28.6404 10.6526C28.6364 10.6259 28.6148 10.6051 28.5901 10.6041H26.1348C26.1121 10.6041 26.0934 10.6259 26.0914 10.6546L26.0609 11.0533L25.9339 16.9837V16.9857C25.9339 17.0401 25.9802 17.0836 26.0363 17.0836H27.4639C27.4924 17.0836 27.515 17.0589 27.515 17.0292C27.5061 16.0596 27.5131 15.09 27.5201 14.1204C27.5231 13.709 27.5261 13.2977 27.5278 12.8863C27.5308 12.366 27.5505 11.8456 27.5879 11.3263C27.5899 11.2946 27.5938 11.2936 27.5997 11.3263L28.6216 17.0302C28.6276 17.0618 28.6472 17.0846 28.6699 17.0846H30.1713C30.2018 17.0846 30.2284 17.0579 30.2343 17.0213C30.3229 16.5108 31.2237 11.3461 31.272 11.3194C31.2759 11.3174 31.2799 11.3164 31.2848 11.3174C31.3015 11.3213 31.3153 11.3451 31.3153 11.3718L31.3626 17.0351C31.3626 17.0678 31.3911 17.0935 31.4265 17.0935L32.8541 17.0866H32.8551C32.8826 17.0856 32.9043 17.0668 32.9043 17.043ZM44.7786 10.6219L43.2595 10.6022C43.2378 12.2166 43.2319 13.83 43.2408 15.4435C43.2457 16.3555 42.015 16.3179 42.0141 15.4761C42.0131 13.8765 42.0101 12.2749 42.0052 10.6694C42.0052 10.6338 41.9855 10.6051 41.9609 10.6051H40.4841C40.4575 10.6051 40.4369 10.6309 40.4369 10.6615C40.4349 12.0722 40.4349 13.4838 40.4349 14.8964C40.4359 15.5404 40.4871 15.9875 40.5885 16.2388C41.0118 17.2785 42.2838 17.3665 43.293 17.2112C44.2853 17.0579 44.7599 16.4871 44.817 15.5295C44.8837 14.4277 44.8683 13.296 44.8529 12.1673C44.8463 11.6798 44.8396 11.1928 44.8396 10.709C44.8446 10.6981 44.8446 10.6823 44.8396 10.6635C44.8327 10.6398 44.8081 10.6219 44.7786 10.6219ZM51.8809 16.9876L51.8839 10.8277C51.8927 10.7684 51.8868 10.71 51.8671 10.6526C51.8573 10.6239 51.8327 10.6051 51.8061 10.6051H50.3785H50.3775C50.348 10.6061 50.3254 10.6299 50.3254 10.6595C50.3549 12.2967 50.3825 13.9329 50.4071 15.5701C50.4091 15.6987 50.3549 15.6274 50.3431 15.5849C49.8735 13.9398 49.4039 12.2937 48.9342 10.6467C48.9274 10.6229 48.9067 10.6061 48.883 10.6061C48.126 10.5774 47.3679 10.5952 46.6078 10.6605L46.6108 16.95V16.951C46.6118 16.9965 46.6452 17.0331 46.6876 17.0331L48.0964 17.0292C48.1161 17.0282 48.1309 16.9985 48.1309 16.9609C48.1023 14.6155 48.0708 12.9338 48.0354 11.9159C48.0334 11.8624 48.0403 11.8258 48.057 11.8051C48.0807 11.7744 48.1004 11.7863 48.1161 11.8407L49.6273 16.9777C49.6372 17.0114 49.6628 17.0351 49.6894 17.0351H51.8307C51.8583 17.0351 51.8809 17.0143 51.8809 16.9876ZM26.4805 33.407C27.3735 32.6838 28.0213 31.7599 28.424 30.6332H28.423C29.0856 28.5073 28.8296 26.5981 27.657 24.9055C26.256 22.8836 23.9572 21.925 21.5067 22.3523C20.5852 22.5136 19.769 22.9607 19.0592 23.6957C19.0336 23.7224 19.0198 23.7195 19.0198 23.6878L19.011 22.5996C19.011 22.57 18.9824 22.5452 18.947 22.5452L16.6087 22.5274C16.5684 22.5274 16.5359 22.563 16.5359 22.6066V38.821C16.5359 38.8593 16.5586 38.9204 16.5754 38.9657C16.579 38.9754 16.5823 38.9843 16.5851 38.9922L16.8066 39.0001L18.9716 38.9912C18.9992 38.9912 19.0218 38.9714 19.0218 38.9467V33.2091C19.0218 33.1725 19.0356 33.1686 19.0622 33.1973C21.0558 35.3429 24.351 35.1312 26.4805 33.407ZM21.4821 32.2456C19.3516 31.7144 18.8712 29.5213 19.0917 27.6348C19.2797 26.0283 20.4041 24.8383 21.9921 24.6216C25.0008 24.2121 26.6105 27.0373 25.9617 29.6726C25.4576 31.7184 23.4895 32.7452 21.4821 32.2456ZM40.0206 23.6136C40.0236 23.7333 39.9862 23.7471 39.9084 23.6532C38.9849 22.5353 37.514 22.1505 36.0343 22.2831C34.1617 22.4503 32.6741 23.2881 31.5715 24.7967C28.1207 29.5163 32.5324 36.2688 38.2455 34.4506C38.916 34.2369 39.4663 33.8877 39.8966 33.403C39.9606 33.3308 39.993 33.3407 39.9921 33.4317V34.594C39.9921 34.6267 40.0245 34.6524 40.0649 34.6524L42.4041 34.6544C42.4327 34.6544 42.4553 34.6356 42.4543 34.6128V22.5996C42.4543 22.5719 42.4317 22.5502 42.4041 22.5502H40.0413H40.0403C40.0147 22.5512 39.995 22.5729 39.995 22.5996L40.0206 23.6136ZM35.5381 32.2169C32.6416 31.3652 32.2419 26.9987 34.5024 25.2716C35.928 24.1824 38.2682 24.3911 39.3669 25.871C40.5099 27.4103 40.4144 30.5323 38.7762 31.7332C37.8734 32.395 36.6083 32.5325 35.5381 32.2169ZM49.9436 38.9427L56.4128 23.7867L56.9504 22.5531C56.9516 22.5502 56.9524 22.5473 56.9529 22.5444C56.9532 22.5424 56.9534 22.5404 56.9534 22.5383C56.9543 22.5175 56.9386 22.5007 56.9199 22.5007H54.1937C54.1593 22.5007 54.1278 22.5245 54.113 22.5611L50.7597 30.9042C50.743 30.9468 50.7273 30.9507 50.7125 30.9171L47.0757 22.5739C47.057 22.5304 47.0294 22.5007 47.0068 22.5007L44.2806 22.5027C44.2775 22.5027 44.274 22.5031 44.2706 22.5041C44.2686 22.5047 44.2667 22.5056 44.2649 22.5067C44.2462 22.5156 44.2383 22.5403 44.2481 22.5611L49.3834 33.7364C49.3952 33.7631 49.3952 33.7938 49.3834 33.8224L48.6804 35.4388L47.1692 38.9417C47.1672 38.9457 47.1662 38.9516 47.1662 38.9565C47.1653 38.9783 47.182 38.9961 47.2037 38.9961H49.8865C49.9072 38.9961 49.9298 38.9743 49.9436 38.9427Z" fill="#0C4DA2"/>
</svg>
