<svg width="72" height="48" viewBox="0 0 72 48" fill="none" xmlns="http://www.w3.org/2000/svg">
<path fill-rule="evenodd" clip-rule="evenodd" d="M40.8302 24.1377H43.1228C43.8496 24.1108 44.2917 24.0536 44.4509 23.9639C44.6682 23.8415 44.8141 23.5964 44.8867 23.2287C44.9331 22.9839 44.9563 22.6201 44.9563 22.1367C44.9563 21.5446 44.9102 21.1058 44.8176 20.8191C44.6853 20.4175 44.3685 20.173 43.8667 20.0841C43.7676 20.0707 43.53 20.0636 43.1538 20.0636H40.8302V24.1377ZM37.153 31V17H44.0043C44.944 17 45.6611 17.0786 46.1538 17.2357C47.2807 17.5975 48.0367 18.3382 48.424 19.4577C48.6239 20.0452 48.7238 20.9297 48.7238 22.1108C48.7238 23.5309 48.6129 24.5515 48.3936 25.1728C47.9542 26.4014 47.0496 27.1092 45.6837 27.2926C45.523 27.3201 44.8396 27.3448 43.6333 27.3645L43.0228 27.3854H40.8303V31H37.153ZM22.1087 21.4658H18.6876C18.6876 20.8905 18.6216 20.5045 18.4904 20.3079C18.2868 20.0172 17.7248 19.8716 16.8052 19.8716C15.912 19.8716 15.3199 19.9553 15.031 20.123C14.7422 20.2911 14.5976 20.6568 14.5976 21.2198C14.5976 21.7295 14.7256 22.0652 14.9822 22.226C15.1661 22.3401 15.4089 22.4072 15.7118 22.4273L16.4017 22.4772C17.8803 22.5778 18.8038 22.6486 19.1722 22.6888C20.3415 22.8096 21.1892 23.1282 21.7152 23.6445C22.1291 24.0474 22.3759 24.5739 22.4547 25.2241C22.5008 25.6131 22.5236 26.0531 22.5236 26.5421C22.5236 27.6692 22.4187 28.4946 22.2085 29.0178C21.8276 29.9776 20.9719 30.5837 19.6404 30.8383C19.0826 30.946 18.2293 30.9999 17.0815 30.9999C15.1656 30.9999 13.8303 30.883 13.0764 30.6481C12.1511 30.3604 11.5411 29.7775 11.2458 28.8997C11.0814 28.4111 11 27.5974 11 26.4582H14.4211L14.4213 26.6489L14.4214 26.7493C14.4214 27.3572 14.592 27.7482 14.9323 27.9223C15.1682 28.0423 15.453 28.1054 15.7879 28.1128H17.0455C17.6874 28.1128 18.097 28.0792 18.2737 28.0116C18.5882 27.8849 18.7945 27.6809 18.8932 27.3986C18.9455 27.2249 18.9716 27 18.9716 26.7249C18.9716 26.1085 18.7519 25.7335 18.3135 25.599C18.1495 25.5458 17.3867 25.4717 16.0251 25.3778C14.9317 25.2978 14.1721 25.2209 13.7468 25.1463C12.6267 24.9316 11.8802 24.4902 11.5077 23.82C11.1804 23.2505 11.0166 22.3889 11.0166 21.2363C11.0166 20.3586 11.1051 19.6547 11.282 19.1253C11.459 18.5957 11.7443 18.1937 12.138 17.9187C12.7147 17.4967 13.4527 17.2489 14.351 17.1748C15.0984 17.1081 15.9276 17.0739 16.8396 17.0739C18.2755 17.0739 19.2988 17.1585 19.9088 17.3261C21.3976 17.736 22.1419 18.884 22.1419 20.7704C22.1419 20.9252 22.1308 21.1565 22.1087 21.4658ZM54.1202 19.7842L55.8432 25.8529H52.4481L54.1202 19.7842ZM51.6568 28.5804H56.5736L57.2751 31H60.9999L56.8441 17H51.2969L47.1915 31H50.9962L51.6568 28.5804Z" fill="#10298E"/>
<path fill-rule="evenodd" clip-rule="evenodd" d="M32.0773 18.9696C33.5941 18.9696 34.9478 19.6855 35.8376 20.8068L36.6303 19.0654C35.3905 17.8648 33.7032 17.1246 31.8421 17.1246C28.9445 17.1246 26.4658 18.9177 25.4485 21.4558H23.9027L22.99 23.4607H24.9785C24.9636 23.6467 24.954 23.8328 24.954 24.0227C24.954 24.2525 24.9656 24.4796 24.9878 24.7039H23.9884L23.0759 26.7095H25.4959C26.5422 29.1834 28.9899 30.9203 31.8421 30.9203C33.2795 30.9203 34.6132 30.479 35.7176 29.7252V27.2674C34.8282 28.3048 33.5275 28.9604 32.0773 28.9604C30.3822 28.9604 28.8911 28.0648 28.0228 26.7095H33.0905L34.0031 24.7039H27.2772C27.2426 24.4626 27.224 24.216 27.224 23.9648C27.224 23.7949 27.2326 23.6268 27.2485 23.4607H34.5687L35.4812 21.4558H27.8816C28.722 19.9697 30.2861 18.9696 32.0773 18.9696Z" fill="#FFBE00"/>
</svg>
