<svg width="72" height="48" viewBox="0 0 72 48" fill="none" xmlns="http://www.w3.org/2000/svg">
<path d="M10.4787 28.4232C8.85314 28.4232 7.09753 27.4113 7 25.5506V25.5179C7 25.5016 7.01626 25.5016 7.01626 25.4853C7.02709 25.4744 7.03793 25.469 7.04877 25.469H9.06446C9.08072 25.469 9.11323 25.469 9.12948 25.4853C9.14574 25.5016 9.162 25.5179 9.162 25.5506C9.21076 26.1382 9.82848 26.4809 10.69 26.4809C11.2915 26.4809 11.8929 26.1871 11.8929 25.7464C11.8929 25.371 11.6003 25.1425 11.0639 24.9793C10.6087 24.8487 10.0886 24.7018 9.71469 24.5876C7.53644 23.9184 7.26009 22.9554 7.26009 21.9598C7.26009 20.5724 8.60931 19.3156 10.4462 19.3156C12.0067 19.3156 13.6811 20.0338 13.8111 22.0087V22.0414C13.8111 22.0577 13.7948 22.0577 13.7948 22.074C13.784 22.0849 13.7732 22.0903 13.7623 22.0903H11.7466C11.7304 22.0903 11.6979 22.074 11.6816 22.074C11.6654 22.0577 11.6491 22.0414 11.6491 22.0087C11.6003 21.3885 10.9989 21.2579 10.4624 21.2579C9.92601 21.2579 9.38957 21.4211 9.38957 21.9434C9.38957 22.4657 10.0561 22.6779 10.4299 22.7759C10.8038 22.8738 11.8279 23.1186 11.8279 23.1186C13.8761 23.6572 14.0062 25.0772 14.0062 25.6975C13.9899 27.0195 12.9008 28.4232 10.4787 28.4232Z" fill="#5A31F4"/>
<path d="M22.2966 28.3416C22.2966 28.3579 22.2804 28.3906 22.2641 28.4069C22.2478 28.4232 22.2316 28.4395 22.1991 28.4395H20.1671C20.1509 28.4395 20.1184 28.4232 20.1021 28.4069C20.0858 28.3906 20.0858 28.3742 20.0696 28.3416V23.7225C20.0696 22.8085 19.7932 21.8945 18.7366 21.8945C17.7613 21.8945 17.1598 22.5637 17.1598 23.494V28.3416C17.1598 28.3579 17.1436 28.3906 17.1273 28.4069C17.1111 28.4232 17.0948 28.4395 17.0623 28.4395H15.0141C14.9978 28.4395 14.9978 28.4232 14.9816 28.4232C14.9816 28.4232 14.9653 28.4069 14.9653 28.3906V16.9979C14.9653 16.9816 14.9653 16.949 14.9816 16.9326C14.9978 16.9163 15.0141 16.9 15.0466 16.9H16.9648C16.981 16.9 16.981 16.9163 16.9973 16.9163C17.0135 16.9326 17.0135 16.949 17.0298 16.9816V20.9478L17.0786 20.8988C17.3224 20.5561 17.6313 20.2786 18.0051 20.0828C18.3628 19.8869 18.7691 19.789 19.1755 19.7726C20.5085 19.7726 21.3863 20.4255 21.8577 21.4375C22.069 21.9108 22.1991 22.4331 22.2316 22.9554C22.2478 23.1186 22.2478 23.2818 22.2478 23.4451L22.2966 28.3416Z" fill="#5A31F4"/>
<path d="M27.4822 29.0435H27.2221C25.0763 28.9782 23.4183 27.4113 23.3532 25.3547C23.3045 23.7389 24.2311 22.8901 24.9788 22.4331C24.9951 22.4168 25.0276 22.4168 25.0601 22.4005H25.1414C25.1739 22.4005 25.1901 22.4168 25.2064 22.4331C25.2226 22.4494 25.2389 22.4657 25.2552 22.4984L25.9216 23.8041C25.9379 23.8531 25.9541 23.8857 25.9379 23.9347C25.9216 23.9837 25.9054 24.0163 25.8566 24.049C25.3852 24.408 25.1414 24.7834 25.1414 25.3384C25.1414 26.3993 26.0354 27.1012 27.3521 27.1175C28.9614 27.1012 29.953 25.9913 29.953 24.2448C29.953 23.8041 29.888 23.3634 29.7254 22.9391C29.5629 22.531 29.3191 22.1556 29.0102 21.8292C28.7339 21.568 28.3925 21.3722 28.0349 21.2579C27.6772 21.1437 27.2871 21.111 26.9132 21.16C25.4177 21.2906 24.7837 21.7313 24.3936 22.074L24.3286 22.123C24.3123 22.1393 24.2798 22.1556 24.2636 22.1556H24.1823C24.1498 22.1556 24.1335 22.1393 24.101 22.123C24.0848 22.1067 24.0522 22.0903 24.0522 22.0577L23.3045 20.7356C23.2882 20.6867 23.272 20.6377 23.2882 20.6051C23.3045 20.5561 23.3207 20.5234 23.3695 20.4908L23.3858 20.4745C24.1335 19.9522 25.0763 19.283 26.962 19.283C30.1481 19.283 31.8712 21.8945 31.8712 24.3428C31.8874 26.9869 30.0343 28.9618 27.4822 29.0435Z" fill="#5A31F4"/>
<path d="M37.3979 19.7726C36.9427 19.789 36.4876 19.9195 36.0649 20.1317C35.6585 20.3439 35.2847 20.6703 35.0083 21.0457V19.8216C35.0083 19.8053 34.9921 19.789 34.9921 19.789C34.9758 19.789 34.9758 19.7726 34.9595 19.7726H33.0089C32.9926 19.7726 32.9764 19.789 32.9764 19.789C32.9601 19.8053 32.9438 19.8379 32.9438 19.8543V30.9857C32.9438 31.0184 32.9601 31.0347 32.9764 31.051C32.9926 31.051 32.9926 31.0674 33.0089 31.0674H35.0896C35.1058 31.0674 35.1221 31.051 35.1221 31.051C35.1221 31.0347 35.1384 31.0347 35.1384 31.0184V27.3297H35.1709C35.496 27.8356 36.3738 28.4395 37.5117 28.4395C39.6574 28.4395 41.4455 26.5952 41.4455 24.0979C41.4455 21.6007 39.6574 19.7726 37.3979 19.7726ZM39.1535 24.963C39.0397 25.2241 38.8934 25.469 38.6983 25.6811C38.5033 25.8933 38.2757 26.0566 38.0156 26.1708C37.7555 26.2851 37.4792 26.3503 37.2028 26.3503C36.8777 26.3503 36.5688 26.2851 36.2762 26.1545C35.9836 26.0076 35.7236 25.8117 35.5122 25.5669C35.3009 25.3057 35.1546 25.012 35.0733 24.7018C34.9921 24.3754 34.9758 24.049 35.0408 23.7225C35.1058 23.3961 35.2359 23.086 35.4147 22.8248C35.5935 22.5474 35.8373 22.3352 36.1137 22.172C36.39 22.0087 36.6989 21.9108 37.024 21.8945C37.3329 21.8782 37.658 21.9271 37.9506 22.0577C38.357 22.2209 38.6821 22.4984 38.9259 22.8901C39.1697 23.2655 39.2998 23.6899 39.2998 24.1306C39.2998 24.408 39.251 24.7018 39.1535 24.963Z" fill="#5A31F4"/>
<path d="M53.3447 25.4363C53.3447 25.8444 53.6861 26.0729 54.255 26.0729C55.0353 26.0729 55.4905 25.6322 55.4905 24.8651V24.6366L54.3201 24.7018C53.7023 24.7182 53.3447 24.9956 53.3447 25.4363Z" fill="#5A31F4"/>
<path d="M49.3947 20.5071H48.1105C48.0943 20.5071 48.078 20.5234 48.0617 20.5234C48.0509 20.5343 48.0401 20.5452 48.0292 20.5561C48.013 20.5561 47.9967 20.5724 47.9967 20.5887C47.9805 20.6051 47.9805 20.6214 47.9805 20.6377V23.4124C47.9805 23.4287 47.9967 23.4451 47.9967 23.4614L48.0292 23.494C48.0292 23.5103 48.0455 23.5267 48.0617 23.5267C48.078 23.543 48.0943 23.543 48.1105 23.543H49.3947C50.175 23.543 50.7602 22.9064 50.7439 22.0087C50.7439 21.1437 50.175 20.5071 49.3947 20.5071Z" fill="#5A31F4"/>
<path d="M64.8374 18.3035C64.6749 17.8955 64.3985 17.5527 64.0409 17.3079C63.6833 17.0631 63.2607 16.9325 62.838 16.9325H45.6071C45.0219 16.9325 44.4854 17.161 44.079 17.5854C43.6726 17.9934 43.4451 18.5647 43.4451 19.1523V28.8801C43.4451 29.4677 43.6726 30.0226 44.079 30.447C44.4854 30.8714 45.0381 31.0999 45.6071 31.0999H62.838C63.1306 31.0999 63.407 31.0509 63.667 30.9366C63.9271 30.8387 64.171 30.6755 64.366 30.4633C64.5774 30.2675 64.7237 30.0226 64.8374 29.7452C64.9512 29.4677 65 29.1902 65 28.8964V19.1523C65 18.8585 64.9512 18.5647 64.8374 18.3035ZM49.4922 24.6527H48.1267C48.0942 24.6527 48.0617 24.6691 48.0454 24.6854C48.0291 24.7017 48.0129 24.7343 48.0129 24.767V26.7583C48.0129 26.7909 47.9966 26.8235 47.9804 26.8399C47.9641 26.8562 47.9316 26.8725 47.8991 26.8725H46.94C46.9075 26.8725 46.875 26.8562 46.8587 26.8399C46.8425 26.8235 46.8262 26.7909 46.8262 26.7583V19.5766C46.81 19.5603 46.8262 19.544 46.8262 19.5277C46.8262 19.5114 46.8262 19.5114 46.8425 19.495C46.8425 19.4787 46.8587 19.4624 46.875 19.4624C46.8913 19.4461 46.9075 19.4461 46.9238 19.4461H49.4596C50.9064 19.4461 51.9468 20.5233 51.963 22.0576C51.963 23.5755 50.9226 24.6527 49.4922 24.6527ZM56.5959 26.7256V26.7746C56.5796 26.7746 56.5796 26.7909 56.5633 26.8072C56.5633 26.8235 56.5471 26.8399 56.5308 26.8399H55.5392L55.5067 26.8072C55.4905 26.8072 55.4742 26.7909 55.4742 26.7746V26.5134C55.4742 26.4971 55.4742 26.4808 55.458 26.4645C55.4417 26.4481 55.4254 26.4481 55.4092 26.4318H55.3604C55.3442 26.4318 55.3279 26.4481 55.3117 26.4645C55.0516 26.7746 54.6127 26.9868 53.9137 26.9868C52.8896 26.9868 52.2068 26.4318 52.2068 25.4852C52.1906 25.2566 52.2394 25.0281 52.3369 24.816C52.4344 24.6038 52.5807 24.4242 52.7595 24.2937C53.1334 23.9999 53.7186 23.853 54.5639 23.8203L55.4742 23.7877V23.5102C55.4742 22.9553 55.1328 22.7268 54.5476 22.7268C53.9624 22.7268 53.6048 22.9389 53.5235 23.2817C53.5073 23.3143 53.491 23.3307 53.4748 23.347C53.4585 23.3633 53.426 23.3633 53.4098 23.3633H52.4669L52.4344 23.3307C52.4344 23.3143 52.4182 23.298 52.4182 23.2817V23.2327C52.5482 22.4166 53.1984 21.7964 54.5964 21.7964C56.0757 21.7964 56.5959 22.5146 56.5959 23.8366V26.7256ZM62.204 22.1065L60.2046 27.6233C59.7494 28.9127 58.9529 29.2392 58.0751 29.2392C57.9126 29.2392 57.75 29.2229 57.5874 29.1739C57.5549 29.1576 57.5387 29.1412 57.5224 29.1249C57.5062 29.1086 57.4899 29.0923 57.4899 29.0596V28.2109C57.4899 28.1946 57.5062 28.1783 57.5062 28.1619C57.5224 28.1619 57.5224 28.1456 57.5387 28.1293C57.5549 28.113 57.5712 28.0966 57.5874 28.0966H57.6362C57.7663 28.113 57.9126 28.1293 58.0426 28.1293C58.2864 28.1456 58.5303 28.0803 58.7253 27.9334C58.9204 27.7865 59.0667 27.5907 59.1317 27.3458L59.1968 27.15C59.213 27.1173 59.213 27.101 59.1968 27.0684L57.3274 22.0902V22.0412C57.3274 22.0249 57.3274 22.0086 57.3436 21.9923C57.3599 21.976 57.3761 21.976 57.3924 21.9596C57.4086 21.9433 57.4249 21.9433 57.4411 21.9433H58.3515C58.3677 21.9433 58.4002 21.9433 58.4165 21.9596C58.449 21.9596 58.449 21.9923 58.4652 22.0086L59.7332 25.5178C59.7494 25.5504 59.7657 25.5668 59.782 25.5831C59.7982 25.5994 59.8307 25.5994 59.847 25.5994C59.8632 25.5994 59.8957 25.5994 59.912 25.5831C59.9445 25.5668 59.9445 25.5341 59.9608 25.5178L61.0661 22.0249C61.0824 21.9923 61.0987 21.976 61.1149 21.9596C61.1312 21.9596 61.1637 21.9433 61.1799 21.9433H62.1065C62.1228 21.9433 62.139 21.9433 62.1553 21.9596C62.1715 21.976 62.1878 21.9923 62.1878 22.0086C62.1878 22.0249 62.204 22.0412 62.204 22.0576V22.1065Z" fill="#5A31F4"/>
</svg>
