<svg width="72" height="48" viewBox="0 0 72 48" fill="none" xmlns="http://www.w3.org/2000/svg">
<path fill-rule="evenodd" clip-rule="evenodd" d="M46.9152 15.5C45.7834 15.5 44.8642 16.415 44.8642 17.543C44.8642 18.6716 45.7834 19.5846 46.9152 19.5846C48.049 19.5846 48.9675 18.6716 48.9675 17.543C48.9675 16.415 48.049 15.5 46.9152 15.5ZM17.3283 22.3448C16.8024 22.311 15.5839 22.232 15.5839 21.1405C15.5839 19.8234 17.3369 19.8234 17.9948 19.8234C19.152 19.8234 20.649 20.1632 21.7195 20.4823C21.7195 20.4823 22.3154 20.692 22.8227 20.9056L22.87 20.9189V17.3114L22.8067 17.2921C21.5429 16.8522 20.0758 16.4296 17.3543 16.4296C12.6624 16.4296 11 19.1493 11 21.4816C11 22.8245 11.5786 25.9882 16.9503 26.3525L16.9553 26.3528C17.4156 26.3808 18.616 26.4541 18.616 27.578C18.616 28.5096 17.6262 29.0576 15.9618 29.0576C14.1381 29.0576 12.3678 28.5958 11.2933 28.1559V31.8703C12.9023 32.2916 14.7167 32.4999 16.843 32.4999C21.4289 32.4999 23.4846 29.9262 23.4846 27.3743C23.4846 24.482 21.1856 22.6023 17.3283 22.3448ZM31.1752 20.7415L31.1752 20.7414C31.1841 20.7181 31.1911 20.6998 31.1963 20.6867H36.1088C35.9688 21.1319 35.0923 23.8185 33.094 26.3412C33.094 26.3412 35.3196 30.2234 35.8282 32.3294H30.6844C30.6844 32.3294 30.0698 29.5334 28.826 27.6755V32.3294H24.5308V17.2755L28.826 16.4296V24.7355C30.348 22.903 31.0262 21.1308 31.1752 20.7415ZM56.8374 32.3294V17.1707L61 16.4296V32.3294H56.8374ZM42.4877 20.5295C38.6424 20.6529 36.6887 22.3714 36.6887 25.7872V32.3295H40.8853V26.9935C40.8853 24.9492 41.1546 24.0727 43.5922 23.9891V20.5899C43.1823 20.503 42.4877 20.5295 42.4877 20.5295ZM44.8354 32.3296V20.7001H48.9974V32.3296H44.8354ZM50.7612 17.1707L54.9212 16.4296V32.3294H50.7612V17.1707Z" fill="#862165"/>
</svg>
