<svg width="72" height="48" viewBox="0 0 72 48" fill="none" xmlns="http://www.w3.org/2000/svg">
<path fill-rule="evenodd" clip-rule="evenodd" d="M41.6775 19.1957L43.6239 9.55643C43.858 8.47504 43.214 7.38533 42.1351 7.06923C40.9308 6.76977 39.7181 7.46851 39.4086 8.64973L37.6451 14.6548L36.255 8.74122C36.1463 8.1922 35.8117 7.70142 35.335 7.38532C34.8583 7.06922 34.2644 6.96108 33.7041 7.07754C32.6001 7.31045 31.8808 8.59148 32.1568 9.75606L32.9771 16.455C32.2645 15.7484 31.4322 15.5307 30.4677 16.0864L30.3423 16.1696C29.4634 16.7649 29.2846 17.9813 29.8493 19.0893C29.3819 19.1154 28.9249 19.3093 28.5774 19.6633L28.4938 19.7548C27.6825 20.5866 27.8414 21.9925 28.8534 22.999L29.6755 23.8139C29.768 27.5809 32.8489 30.2193 36.4814 30.2193C36.5243 30.2193 36.5658 30.2135 36.6051 30.2025C41.5256 30.1536 43.6881 27.2388 44.0586 22.816C44.1757 21.4185 43.9165 20.4619 43.3728 19.8879C43.0717 19.5718 42.7539 19.422 42.5114 19.3888L41.6775 19.1957ZM36.3063 29.3186C36.3305 29.3147 36.3554 29.3126 36.3809 29.3126C40.9139 29.3542 42.8208 26.8254 43.1637 22.7494C43.2641 21.5848 43.0634 20.8778 42.7121 20.5034C42.6201 20.4119 42.5281 20.3454 42.4445 20.3121L42.3441 20.2788L37.075 19.056C37.0595 19.0509 37.0312 19.0458 36.9922 19.0387C36.968 19.0343 36.9397 19.0291 36.9078 19.0228C36.6234 18.9729 36.3307 18.9645 36.063 19.0228C35.6532 19.1143 35.3939 19.3389 35.2601 19.7714C35.0821 20.3615 35.0971 20.8121 35.4742 21.1729C35.5691 21.2078 35.6461 21.2704 35.6977 21.3487C35.9613 21.5221 36.3315 21.6733 36.8325 21.8094L40.3034 22.583C40.8805 22.7161 40.6965 23.5729 40.1194 23.4648L40.0107 23.4482C39.5757 23.4066 39.0823 23.4398 38.6307 23.6062C37.7859 23.9223 37.259 24.646 37.1921 25.9936C37.1754 26.2431 36.9663 26.4261 36.7154 26.4178C36.4645 26.4012 36.2721 26.1932 36.2889 25.9437C36.3558 24.4547 36.9412 23.4814 37.8779 22.9574L36.615 22.6662C36.1795 22.5488 35.8123 22.4101 35.507 22.2518C35.3605 22.4802 35.1695 22.6787 34.9422 22.8326L34.8419 22.8992C34.7842 22.9379 34.7253 22.9733 34.6654 23.0054C35.0709 23.76 34.9639 24.7138 34.34 25.3614L34.248 25.4529C33.4618 26.2515 32.1821 26.2681 31.3709 25.4945L30.6948 24.8243C31.2346 27.4615 33.5587 29.2458 36.3063 29.3186ZM34.7847 21.7353C34.7023 21.8781 34.5875 22.0021 34.4488 22.0923L34.3484 22.1505C33.8299 22.4999 33.1273 22.3668 32.7761 21.851L30.8023 18.9313C30.267 18.1161 30.3339 17.2676 30.8524 16.9099L30.9444 16.8434C31.6135 16.4607 32.1739 16.7519 32.751 17.592L33.2217 18.2908C33.2421 18.3355 33.2697 18.3762 33.3031 18.4116L34.302 19.8943C34.1663 20.6061 34.289 21.2305 34.7847 21.7353ZM40.7968 18.9919L37.3008 18.1826C37.2954 18.1813 37.2886 18.1795 37.2806 18.1773C37.2393 18.1664 37.1647 18.1466 37.0667 18.1327C36.6736 18.0662 36.2638 18.0578 35.8623 18.141C35.3829 18.2489 34.9814 18.4884 34.7029 18.8729L34.0655 17.9268L33.0517 9.61465L33.0434 9.56474C32.8677 8.86599 33.3026 8.08406 33.8881 7.95929C34.2143 7.89274 34.5572 7.95097 34.8332 8.13397C35.1092 8.31698 35.3015 8.5998 35.3684 8.92422L37.1422 16.4589C37.1514 16.647 37.2755 16.8154 37.4683 16.8683C37.7108 16.9349 37.9617 16.8018 38.0286 16.5605L40.2784 8.89096C40.4708 8.1839 41.1901 7.75966 41.8926 7.93434C42.4948 8.11735 42.8711 8.74123 42.7373 9.37343L40.7968 18.9919ZM32.0233 22.3585C32.4276 22.9457 33.0822 23.257 33.744 23.2454C34.105 23.681 34.0857 24.3255 33.6792 24.7375L33.5956 24.829C33.1607 25.2699 32.4498 25.2782 32.0065 24.8457L29.4974 22.3751C28.8033 21.6847 28.7113 20.8362 29.1462 20.387L29.2298 20.2955C29.5769 19.9342 30.1422 19.8906 30.5496 20.1723L32.0233 22.3585ZM23.3753 41C24.7971 41 25.8843 40.0517 25.8843 38.6625C25.8843 37.3732 24.9643 36.8158 23.8353 36.4831C23.116 36.2751 22.6644 36.1171 22.6644 35.6097C22.6644 35.1854 22.9738 34.8527 23.4673 34.8527C23.8854 34.8527 24.1949 35.0939 24.4207 35.4599L25.6 34.7196C25.232 33.9127 24.404 33.4968 23.5091 33.4968C22.0873 33.4968 21.184 34.5116 21.184 35.6928C21.184 36.6328 21.7527 37.3565 23.1494 37.7641C23.9105 37.9804 24.3956 38.1301 24.3956 38.7291C24.3956 39.2947 23.9858 39.6441 23.392 39.6441C22.7564 39.6441 22.2713 39.2365 21.9785 38.8622L21 39.8354C21.5269 40.5508 22.38 41 23.3753 41ZM35.3682 33.5883V34.9192C34.5737 34.886 33.9966 35.2852 33.9966 36.167V36.7077C34.3144 36.3749 34.7661 36.2086 35.3264 36.2086V37.5562C34.5402 37.5728 33.9966 38.0719 33.9966 38.7706V40.8669H32.5748V36.0838C32.5748 34.7362 33.4279 33.5883 35.1591 33.5883H35.3682ZM46.977 38.2965V37.0654C47.2948 37.3982 47.7381 37.5645 48.3068 37.5645V36.2253C47.5373 36.2086 46.977 35.6929 46.977 35.0108V34.2205H45.5552V38.3797C45.5552 39.7273 46.3999 40.8752 48.1395 40.8752H48.3486V39.5443C47.5541 39.5693 46.977 39.1783 46.977 38.2965ZM26.3943 38.3464C26.3943 39.8022 27.6154 41 29.1208 41C30.6263 41 31.8474 39.8022 31.8474 38.3464C31.8474 36.8907 30.6263 35.6929 29.1208 35.6929C27.6154 35.6929 26.3943 36.8907 26.3943 38.3464ZM50.9999 40.0014C50.9999 40.5252 50.565 40.9493 50.0465 40.9493C49.5196 40.9493 49.093 40.5252 49.093 40.0014C49.093 39.4776 49.5196 39.0535 50.0465 39.0535C50.5734 39.0535 50.9999 39.4859 50.9999 40.0014ZM29.1204 39.6691C29.848 39.6691 30.4251 39.0951 30.4251 38.3464C30.4251 37.5978 29.848 37.0238 29.1204 37.0238C28.3844 37.0238 27.8157 37.5978 27.8157 38.3464C27.8157 39.1034 28.3928 39.6691 29.1204 39.6691ZM35.7446 38.3464C35.7446 39.8022 36.9657 41 38.4712 41C39.9766 41 41.1977 39.8022 41.1977 38.3464C41.1977 36.8907 39.9766 35.6929 38.4712 35.6929C36.9657 35.6929 35.7446 36.8907 35.7446 38.3464ZM38.471 39.6691C39.207 39.6691 39.7757 39.0951 39.7757 38.3464C39.7757 37.5978 39.1986 37.0238 38.471 37.0238C37.7433 37.0238 37.1663 37.5978 37.1663 38.3464C37.1663 39.1034 37.7433 39.6691 38.471 39.6691ZM43.347 35.8343V36.4082C43.6314 35.9507 44.0914 35.7344 44.7354 35.7594V37.2733C43.8823 37.2733 43.3889 37.7392 43.3889 38.571V40.8669H41.967V35.8343H43.347Z" fill="white"/>
</svg>
