<svg width="72" height="48" viewBox="0 0 72 48" fill="none" xmlns="http://www.w3.org/2000/svg">
<path d="M18.5275 16.5H8.51336C7.12511 16.5 6 17.6221 6 19.0065V28.9935C6 30.3779 7.12511 31.5 8.51336 31.5H18.5275C19.9157 31.5 21.0408 30.3779 21.0408 28.9935V19.0065C21.0408 17.6221 19.9157 16.5 18.5275 16.5ZM18.3067 27.9815C18.3067 28.4189 17.9513 28.7733 17.5127 28.7733H9.52807C9.08952 28.7733 8.73414 28.4189 8.73414 27.9815V20.0185C8.73414 19.5811 9.08952 19.2267 9.52807 19.2267H17.5127C17.9513 19.2267 18.3067 19.5811 18.3067 20.0185V27.9815ZM11.925 26.036C11.6724 26.036 11.4698 25.8324 11.4698 25.5805V22.4014C11.4698 22.1495 11.6724 21.9444 11.925 21.9444H15.1173C15.3684 21.9444 15.5725 22.148 15.5725 22.4014V25.579C15.5725 25.8309 15.3684 26.0345 15.1173 26.0345H11.925V26.036ZM25.0286 25.8188H26.6709C26.7526 26.7463 27.3832 27.4702 28.655 27.4702C29.7907 27.4702 30.4893 26.9107 30.4893 26.0646C30.4893 25.2729 29.9419 24.9185 28.9559 24.6862L27.6826 24.4132C26.3004 24.1131 25.26 23.2263 25.26 21.7785C25.26 20.1814 26.683 19.0895 28.531 19.0895C30.4878 19.0895 31.7475 20.1135 31.8564 21.6277H30.2686C30.0795 20.9189 29.4897 20.4966 28.5325 20.4966C27.5193 20.4966 26.8221 21.0425 26.8221 21.7393C26.8221 22.4361 27.424 22.8583 28.4644 23.0906L29.7241 23.3636C31.1063 23.6637 32.05 24.4962 32.05 25.9561C32.05 27.8126 30.6542 28.9181 28.6565 28.9181C26.4108 28.9165 25.1662 27.7025 25.0286 25.8188ZM37.9251 31.5V28.7838L38.0324 27.5924H37.9251C37.5485 28.449 36.7576 28.9181 35.6839 28.9181C33.9524 28.9181 32.6639 27.5125 32.6639 25.3573C32.6639 23.2022 33.9524 21.7966 35.6839 21.7966C36.744 21.7966 37.4956 22.2913 37.9251 23.068H38.0324V21.9293H39.4555V31.5H37.9251ZM37.978 25.3558C37.978 23.9774 37.1326 23.1735 36.0983 23.1735C35.0639 23.1735 34.2185 23.9774 34.2185 25.3558C34.2185 26.7343 35.0639 27.5381 36.0983 27.5381C37.1326 27.5381 37.978 26.7358 37.978 25.3558ZM40.5912 26.0662V21.9293H42.1216V25.9319C42.1216 27.0163 42.6448 27.5381 43.5174 27.5381C44.591 27.5381 45.2897 26.775 45.2897 25.5836V21.9293H46.8201V28.7823H45.3971V27.3632H45.2897C44.954 28.2741 44.216 28.9165 43.0758 28.9165C41.4365 28.9165 40.5912 27.8729 40.5912 26.0662ZM47.7516 26.8685C47.7516 25.5836 48.6514 24.834 50.2484 24.7405L52.1402 24.6198V24.0845C52.1402 23.442 51.6699 23.0544 50.8381 23.0544C50.0729 23.0544 49.6162 23.442 49.4953 23.991H47.9649C48.1267 22.5989 49.2805 21.7951 50.8366 21.7951C52.5954 21.7951 53.6691 22.5446 53.6691 23.991V28.7823H52.246V27.511H52.1387C51.8166 28.354 51.1451 28.9165 49.8567 28.9165C48.6242 28.9165 47.7516 28.0871 47.7516 26.8685ZM52.1417 26.0254V25.6635L50.5977 25.7706C49.766 25.8233 49.3894 26.1325 49.3894 26.7478C49.3894 27.2697 49.8189 27.6452 50.4223 27.6452C51.5111 27.6452 52.1417 26.9499 52.1417 26.0254ZM54.8108 28.7838V21.9293H56.2338V23.2414H56.3412C56.5423 22.3441 57.2274 21.9293 58.2466 21.9293H58.9453V23.3078H58.0727C57.0792 23.3078 56.3412 23.9502 56.3412 25.1688V28.7823H54.8108V28.7838ZM65.947 25.6378H60.7252C60.8054 26.8956 61.6915 27.606 62.6715 27.606C63.5032 27.606 64.0265 27.2712 64.3229 26.7086H65.8396C65.4238 28.1006 64.2019 28.9165 62.6579 28.9165C60.6315 28.9165 59.2084 27.4039 59.2084 25.3558C59.2084 23.3078 60.6708 21.7951 62.6715 21.7951C64.6843 21.7951 65.9999 23.1735 65.9999 24.8868C66.0015 25.2231 65.9742 25.3965 65.947 25.6378ZM64.4847 24.5806C64.4317 23.6305 63.6393 22.988 62.673 22.988C61.7596 22.988 60.9959 23.5641 60.8069 24.5806H64.4847Z" fill="#1A1A1A"/>
</svg>
