<svg width="72" height="48" viewBox="0 0 72 48" fill="none" xmlns="http://www.w3.org/2000/svg">
<path fill-rule="evenodd" clip-rule="evenodd" d="M38.1522 16.1271L34.5266 16.9057V13.9642L38.1522 13.2V16.1271ZM23.4185 14.8726L19.8941 15.6224L19.8796 27.1722C19.8796 29.3062 21.483 30.8779 23.6208 30.8779C24.8052 30.8779 25.6719 30.6616 26.1486 30.4021V27.475C25.6863 27.6624 23.4041 28.3257 23.4041 26.1917V21.0728H26.1486V18.0015H23.4041L23.4185 14.8726ZM14.8822 20.8854C14.1167 20.8854 13.6545 21.1017 13.6545 21.664C13.6545 22.278 14.45 22.5481 15.4369 22.8832C17.0457 23.4294 19.1633 24.1484 19.1723 26.8117C19.1723 29.3927 17.1067 30.8779 14.1022 30.8779C12.86 30.8779 11.5022 30.6328 10.1589 30.056V26.6242C11.3722 27.2875 12.9033 27.7778 14.1022 27.7778C14.9111 27.7778 15.4889 27.5615 15.4889 26.8982C15.4889 26.2181 14.6266 25.9072 13.5855 25.5319C12 24.9604 10 24.2393 10 21.8371C10 19.2848 11.95 17.7564 14.8822 17.7564C16.0811 17.7564 17.2656 17.9439 18.4645 18.4197V21.8082C17.3667 21.217 15.98 20.8854 14.8822 20.8854ZM30.6412 19.0687L30.41 18.0017H27.29V30.6185H30.9012V22.0679C31.7534 20.9577 33.1978 21.1595 33.6456 21.3181V18.0017C33.1834 17.8287 31.4934 17.5115 30.6412 19.0687ZM34.5264 18.0017H38.152V30.6185H34.5264V18.0017ZM62.0001 24.3604C62.0001 20.6691 60.2089 17.7564 56.7856 17.7564C53.3478 17.7564 51.2678 20.6691 51.2678 24.3316C51.2678 28.6718 53.7234 30.8635 57.2478 30.8635C58.9667 30.8635 60.2667 30.4742 61.2489 29.9262V27.0424C60.2667 27.5326 59.1401 27.8354 57.7101 27.8354C56.3089 27.8354 55.0667 27.3452 54.9078 25.6437H61.9712C61.9712 25.5643 61.9764 25.3837 61.9823 25.1757C61.9905 24.8931 62.0001 24.5598 62.0001 24.3604ZM54.8643 22.9906C54.8643 21.3612 55.8609 20.6835 56.7709 20.6835C57.652 20.6835 58.5909 21.3612 58.5909 22.9906H54.8643ZM42.8607 18.8811C43.3662 18.4197 44.2762 17.7564 45.6918 17.7564C48.2196 17.7564 50.6029 20.0347 50.6174 24.2162C50.6174 28.7871 48.2629 30.8635 45.6774 30.8635C44.4062 30.8635 43.6407 30.33 43.1207 29.9551L43.1062 34.0357L39.4951 34.7999V17.9871H42.6729L42.8607 18.8811ZM43.1209 27.0137C43.4676 27.3886 43.9731 27.6914 44.8253 27.6914C46.1542 27.6914 47.0498 26.2495 47.0498 24.3173C47.0498 22.4284 46.1398 20.9576 44.8253 20.9576C44.002 20.9576 43.482 21.246 43.1064 21.6642L43.1209 27.0137Z" fill="#6461FC"/>
</svg>
