<svg width="72" height="48" viewBox="0 0 72 48" fill="none" xmlns="http://www.w3.org/2000/svg">
<path d="M55.0103 18V28.9745H66.0001V18H55.0103ZM63.2538 26.232H57.7612V20.7425H63.2538V26.2274V26.232Z" fill="#75C8D1"/>
<path d="M57.7565 26.232V20.7425H63.2537L66 18H55.0056V28.9745L57.7519 26.232H57.7565Z" fill="#F5A83B"/>
<path d="M12.6611 19.1898C13.0199 19.1852 13.3741 19.199 13.7329 19.2358C13.9123 19.2358 14.5932 19.2358 14.8462 18.9647C14.8922 18.9142 14.929 18.8545 14.9474 18.7902C14.9704 18.7258 14.975 18.6569 14.9704 18.588C14.9612 18.5191 14.9428 18.4548 14.906 18.3951C14.8738 18.3354 14.8232 18.2848 14.768 18.2481C14.5472 18.0781 14.2666 17.9954 13.9905 18.023H7.32489C7.32489 18.023 6.50146 18 6.16105 18.4364C6.10125 18.4916 6.05985 18.5605 6.03225 18.634C6.00005 18.7075 5.99545 18.7902 6.00005 18.8683C6.00925 18.9463 6.03685 19.0244 6.07825 19.0888C6.11965 19.1577 6.17945 19.2128 6.24846 19.2541C6.42786 19.346 6.63027 19.3828 6.82808 19.3598C7.25589 19.2495 7.69751 19.1944 8.14372 19.199L9.41337 19.176H9.51918L7.96432 26.2274C7.96432 26.2274 7.66071 27.4264 7.4261 28.042C7.14089 28.8091 8.16673 28.9332 8.16673 28.9332C8.16673 28.9332 9.55138 29.172 9.77218 28.1936L11.6445 19.1852H12.6611V19.1898Z" fill="#231815"/>
<path d="M18.7378 21.5004L18.5124 21.5785C18.0478 21.3672 17.5418 21.2478 17.0312 21.2294C16.1479 21.1835 15.2785 21.4269 14.5471 21.9276C13.8157 22.5019 13.213 23.2139 12.7668 24.027C12.3206 24.8401 12.0446 25.7359 11.9572 26.6546C11.925 26.9624 11.9618 27.2748 12.0584 27.5688C12.155 27.8628 12.316 28.1338 12.523 28.3635C12.7346 28.5932 12.9876 28.7769 13.2728 28.901C13.558 29.025 13.8663 29.0893 14.1745 29.0893C15.2693 29.126 16.0283 28.2992 16.6402 27.532C16.5758 27.8122 16.5252 28.097 16.4976 28.3819C16.4562 28.754 16.8702 29.0388 17.3578 29.0434C17.8454 29.0434 18.3054 28.8091 18.3192 28.46C18.3974 27.6147 18.5308 26.7786 18.7148 25.9518L19.0138 24.592C19.2945 23.3104 19.4785 22.6075 19.5935 22.1481C19.5981 22.0425 19.5797 21.9368 19.5337 21.8404C19.4877 21.7439 19.4233 21.6612 19.3359 21.5969C19.2531 21.5326 19.1519 21.4912 19.0461 21.4729C18.9402 21.4545 18.8344 21.4637 18.7332 21.5004H18.7378ZM17.2106 24.3026C16.9162 25.6945 16.6494 26.4938 16.2583 27.0037C15.7569 27.6836 15.2325 27.8903 14.8231 27.8765C14.1239 27.8536 13.8801 27.1599 13.9123 26.209C13.9537 25.0606 14.6207 22.0838 16.7506 22.139C17.0542 22.1619 17.3578 22.2354 17.6384 22.3549L17.2106 24.3026Z" fill="#231815"/>
<path d="M42.599 21.5004L42.3736 21.5739C41.9089 21.3626 41.4029 21.2432 40.8923 21.2248C40.0137 21.1789 39.1396 21.4223 38.4128 21.9231C37.6814 22.4973 37.0788 23.2093 36.6325 24.0224C36.1863 24.8355 35.9103 25.7313 35.8229 26.65C35.7907 26.9578 35.8275 27.2702 35.9241 27.5642C36.0207 27.8582 36.1817 28.1292 36.3887 28.3589C36.6003 28.5886 36.8534 28.7723 37.1386 28.8964C37.4238 29.0204 37.732 29.0847 38.0402 29.0847C39.1534 29.1215 39.8941 28.2946 40.5105 27.532C40.4461 27.8123 40.3955 28.0925 40.3679 28.3773C40.3311 28.731 40.7405 29.0342 41.2327 29.0388C41.7249 29.0388 42.1803 28.8045 42.1941 28.4554C42.2723 27.6101 42.4058 26.7741 42.5898 25.9472L42.8888 24.5874C43.1694 23.3104 43.3534 22.6029 43.4638 22.1436C43.473 22.0379 43.45 21.9277 43.4086 21.8312C43.3626 21.7347 43.2936 21.6474 43.2108 21.5831C43.1234 21.5188 43.0222 21.4775 42.9164 21.4637C42.8106 21.4499 42.7002 21.4637 42.6036 21.4958L42.599 21.5004ZM41.0717 24.3026C40.7819 25.6991 40.5151 26.4984 40.1195 27.0038C39.6181 27.6882 39.0936 27.8903 38.6842 27.8812C37.9804 27.8536 37.7412 27.1416 37.7734 26.209C37.8148 25.0606 38.4772 22.0884 40.6117 22.139C40.9153 22.1619 41.2189 22.2354 41.4995 22.3549L41.0717 24.3026Z" fill="#231815"/>
<path d="M25.4036 21.1008C24.2904 21.0594 23.6924 21.5418 23.1081 22.3641C23.1817 22.1711 23.2323 21.9736 23.2507 21.7669C23.2921 21.4177 22.7079 21.1421 22.2157 21.1375C21.7235 21.1375 21.2681 21.3764 21.2543 21.7209C21.1761 22.5662 21.0427 23.4022 20.8541 24.2291L20.5596 25.5889C20.4998 25.8461 20.4492 26.0712 20.4078 26.2871L19.6166 29.8794C19.6166 29.8794 19.3498 30.9222 19.152 31.4597C18.9082 32.1304 19.796 32.2314 19.796 32.2314C19.796 32.2314 21.0013 32.4427 21.1899 31.5699L21.7511 28.8412C22.0179 28.9056 22.2893 28.9423 22.5607 28.9515C23.4394 29.002 24.3134 28.754 25.0402 28.2532C25.7716 27.6836 26.3789 26.967 26.8251 26.1539C27.2713 25.3408 27.5473 24.445 27.6347 23.5263C27.6623 23.2185 27.6301 22.9061 27.5289 22.6121C27.4323 22.3181 27.2713 22.0471 27.0597 21.8174C26.8481 21.5877 26.5951 21.404 26.3099 21.2799C26.0246 21.1559 25.7164 21.0916 25.4036 21.0962V21.1008ZM25.6658 23.9765C25.629 25.1249 24.962 28.1016 22.8321 28.0465C22.5331 28.0236 22.2433 27.9546 21.9673 27.8444L22.2479 26.4846L22.3767 25.9058C22.6619 24.5139 22.9287 23.71 23.3243 23.2047C23.8258 22.5248 24.3502 22.3181 24.7596 22.3319C25.4588 22.3319 25.7026 23.0301 25.6658 23.9811V23.9765Z" fill="#231815"/>
<path d="M33.601 18.0184L30.9099 18.0827C30.0865 18.0827 29.8335 18.6386 29.8289 18.8223C29.8289 18.8223 28.7525 25.3271 28.5178 26.2642C28.5178 26.2642 28.251 27.4723 28.044 28.1155C27.7864 28.8964 28.8169 28.9791 28.8169 28.9791C28.8169 28.9791 30.2061 29.172 30.3901 28.1614L30.9697 24.7482C33.4308 24.8355 34.4981 24.2246 34.4981 24.2246C35.2111 23.9076 35.8137 23.3931 36.2461 22.7454C36.6739 22.0931 36.9086 21.3351 36.9178 20.5587C37.0742 17.8071 33.601 18.0184 33.601 18.0184ZM33.3158 23.2415C32.635 23.4987 31.9082 23.6044 31.1813 23.5539L31.922 19.0796C31.922 19.0796 32.5614 19.0382 32.9294 19.0796C33.2974 19.1209 34.5855 19.1025 34.6039 20.4577C34.6223 21.8174 34.0749 22.8694 33.3158 23.2415Z" fill="#231815"/>
<path d="M50.5666 21.3351C50.286 21.2983 50.0054 21.358 49.7616 21.505C49.5224 21.652 49.3383 21.8771 49.2417 22.139L47.2545 27.1416L46.6104 22.1022C46.4724 21.1927 45.212 21.3259 45.212 21.3259C45.212 21.3259 44.2874 21.3718 44.4944 22.0655C44.6646 22.6397 44.867 23.7284 44.867 23.7284C45.3132 26.1677 45.4788 28.143 45.4788 28.143C45.4788 28.3222 45.5386 28.7586 46.3666 28.9607C46.3666 28.9607 45.7686 31.083 43.8549 31.1795C43.8549 31.1795 43.6801 31.1795 43.6157 31.4551C43.5513 31.7307 43.4777 32.6908 44.4714 32.7C44.6922 32.6954 44.9084 32.6357 45.1016 32.5346C45.5248 32.3095 45.902 32.0109 46.2148 31.6526C47.0659 30.6696 47.7559 29.5625 48.2619 28.3635L51.0496 22.0747C51.0496 22.0747 51.4544 21.4269 50.5666 21.3351Z" fill="#231815"/>
</svg>
