<svg width="72" height="48" viewBox="0 0 72 48" fill="none" xmlns="http://www.w3.org/2000/svg">
<path d="M22.6169 10.2015H33.5992C35.1322 10.2015 36.0857 11.4545 35.7281 12.9968L30.615 35.009C30.2542 36.546 28.7193 37.8 27.1852 37.8H16.2039C14.673 37.8 13.7174 36.546 14.075 35.009L19.1902 12.9968C19.5478 11.4545 21.0819 10.2015 22.6169 10.2015Z" fill="#E21836"/>
<path d="M32.6848 10.2H45.3142C46.8469 10.2 46.1558 11.453 45.7952 12.9953L40.6829 35.0075C40.3242 36.5444 40.4361 37.7985 38.9001 37.7985H26.2708C24.7348 37.7985 23.7842 36.5444 24.1451 35.0075L29.2571 12.9953C29.62 11.453 31.1509 10.2 32.6848 10.2Z" fill="#00447C"/>
<path d="M44.8134 10.2H55.7957C57.3309 10.2 58.2844 11.453 57.9238 12.9953L52.8116 35.0075C52.4507 36.5444 50.9147 37.7985 49.3798 37.7985H38.4026C36.8666 37.7985 35.9139 36.5444 36.2737 35.0075L41.3868 12.9953C41.7444 11.453 43.2774 10.2 44.8134 10.2Z" fill="#007B84"/>
<path d="M25.4845 17.2542C24.3552 17.2657 24.0216 17.2542 23.9151 17.2289C23.8741 17.4241 23.112 20.9492 23.1099 20.9521C22.9458 21.6653 22.8264 22.1737 22.4209 22.502C22.1907 22.6928 21.9219 22.7849 21.6103 22.7849C21.1095 22.7849 20.8177 22.5355 20.7687 22.0626L20.7594 21.9002C20.7594 21.9002 20.9119 20.9449 20.9119 20.9395C20.9119 20.9395 21.7118 17.7271 21.855 17.3025C21.8625 17.2783 21.8646 17.2657 21.8665 17.2542C20.3096 17.2679 20.0337 17.2542 20.0147 17.2289C20.0042 17.2636 19.9657 17.4627 19.9657 17.4627L19.149 21.0834L19.0788 21.3904L18.9431 22.3949C18.9431 22.6928 19.0015 22.936 19.1176 23.1416C19.4897 23.7936 20.5511 23.8913 21.1515 23.8913C21.9251 23.8913 22.6508 23.7265 23.1412 23.4256C23.9925 22.9212 24.2152 22.1329 24.4138 21.4323L24.5059 21.0729C24.5059 21.0729 25.3298 17.7365 25.4698 17.3025C25.4752 17.2783 25.4773 17.2657 25.4845 17.2542ZM28.2879 19.9457C28.0893 19.9457 27.7263 19.994 27.4003 20.1542C27.282 20.2152 27.1701 20.2855 27.052 20.3555L27.1586 19.9698L27.1002 19.9049C26.4088 20.0453 26.254 20.064 25.6154 20.1542L25.5618 20.1899C25.4877 20.8065 25.4218 21.27 25.1469 22.4819C25.0422 22.9286 24.9336 23.3795 24.8246 23.8251L24.8541 23.8817C25.5085 23.8471 25.7072 23.8471 26.276 23.8565L26.322 23.8063C26.3943 23.4351 26.4037 23.3481 26.5638 22.5963C26.639 22.2398 26.7958 21.4566 26.8732 21.1777C27.0153 21.1117 27.1556 21.0467 27.2895 21.0467C27.6083 21.0467 27.5695 21.3256 27.5571 21.4367C27.5435 21.6233 27.4273 22.2326 27.3082 22.7557L27.2287 23.0934C27.1733 23.3427 27.1125 23.5851 27.0571 23.8323L27.0812 23.8817C27.7263 23.8471 27.9231 23.8471 28.474 23.8565L28.5387 23.8063C28.6383 23.2265 28.6675 23.0714 28.8442 22.2272L28.933 21.8393C29.1057 21.0803 29.1924 20.6954 29.0618 20.3818C28.9237 20.0305 28.5923 19.9457 28.2879 19.9457ZM31.4196 20.7404C31.0767 20.8065 30.858 20.8505 30.6407 20.8789C30.4252 20.9136 30.215 20.945 29.8836 20.9911L29.8574 21.015L29.8333 21.0341C29.7988 21.2816 29.7747 21.4955 29.7289 21.747C29.6901 22.0071 29.6304 22.3026 29.5332 22.7272C29.458 23.0523 29.4192 23.1656 29.3764 23.2799C29.3346 23.3942 29.2886 23.5054 29.204 23.8251L29.2238 23.8546L29.2404 23.8817C29.5501 23.8669 29.7527 23.8565 29.961 23.8546C30.169 23.8471 30.3845 23.8546 30.718 23.8565L30.7472 23.8326L30.7785 23.8063C30.8267 23.518 30.8339 23.4404 30.8634 23.2998C30.8925 23.1489 30.9429 22.9401 31.0663 22.3823C31.1246 22.1203 31.1897 21.8592 31.2502 21.5918C31.3131 21.3256 31.3789 21.0633 31.4416 20.8014L31.4322 20.7697L31.4196 20.7404ZM31.4269 19.6689C31.1153 19.4845 30.5685 19.543 30.2004 19.7977C29.8334 20.0473 29.7916 20.4016 30.1022 20.5884C30.4084 20.7678 30.9574 20.7143 31.3223 20.4575C31.6885 20.2025 31.7342 19.8514 31.4269 19.6689ZM33.3113 23.9395C33.9417 23.9395 34.5879 23.7653 35.0743 23.2483C35.4485 22.829 35.6201 22.2052 35.6795 21.9484C35.873 21.097 35.7223 20.6994 35.5331 20.4573C35.2456 20.0883 34.7375 19.9699 34.2105 19.9699C33.8935 19.9699 33.1386 20.0013 32.5489 20.5464C32.1255 20.9397 31.9298 21.4733 31.8117 21.9849C31.6926 22.5061 31.5556 23.4445 32.4162 23.7937C32.6817 23.9081 33.0645 23.9395 33.3113 23.9395ZM33.262 22.0238C33.4074 21.3791 33.579 20.8379 34.0169 20.8379C34.3601 20.8379 34.385 21.2406 34.2324 21.8874C34.2051 22.031 34.0798 22.5649 33.9104 22.7923C33.7921 22.96 33.6521 23.0618 33.4973 23.0618C33.4513 23.0618 33.1775 23.0618 33.1732 22.654C33.171 22.4527 33.212 22.2471 33.262 22.0238ZM37.2554 23.8566L37.3046 23.8064C37.3745 23.4352 37.386 23.3479 37.5407 22.5964C37.6181 22.2399 37.7782 21.4567 37.8534 21.1778C37.9958 21.1115 38.1336 21.0465 38.2718 21.0465C38.5884 21.0465 38.5499 21.3254 38.5373 21.4365C38.5258 21.6234 38.4096 22.2324 38.2884 22.7555L38.2131 23.0932C38.1556 23.3428 38.093 23.5849 38.0375 23.8324L38.0616 23.8818C38.7089 23.8472 38.8982 23.8472 39.4523 23.8566L39.5192 23.8064C39.6164 23.2263 39.6426 23.0712 39.8246 22.2273L39.9113 21.8392C40.0848 21.0801 40.1726 20.6954 40.0441 20.3819C39.902 20.0306 39.5684 19.9458 39.2684 19.9458C39.0695 19.9458 38.7046 19.9938 38.3804 20.1543C38.2645 20.2152 38.1484 20.2853 38.0343 20.3556L38.1336 19.9699L38.0804 19.9047C37.3892 20.0453 37.2313 20.0641 36.5934 20.1543L36.5444 20.19C36.467 20.8066 36.4041 21.2698 36.1292 22.482C36.0246 22.9287 35.9159 23.3796 35.8072 23.8252L35.8364 23.8818C36.4919 23.8472 36.6876 23.8472 37.2554 23.8566ZM42.0109 23.8817C42.0516 23.6825 42.2933 22.502 42.2955 22.502C42.2955 22.502 42.5013 21.6358 42.5139 21.6044C42.5139 21.6044 42.5787 21.5142 42.6435 21.4785H42.7388C43.6379 21.4785 44.6532 21.4785 45.4491 20.8915C45.9906 20.4889 46.3608 19.8944 46.526 19.1718C46.5688 18.9946 46.6004 18.7839 46.6004 18.5732C46.6004 18.2965 46.545 18.0227 46.3849 17.8088C45.9791 17.2395 45.1709 17.229 44.2381 17.2247C44.2351 17.2247 43.7782 17.229 43.7782 17.229C42.584 17.2438 42.1052 17.2395 41.9084 17.2153C41.8918 17.3025 41.8605 17.4577 41.8605 17.4577C41.8605 17.4577 41.4327 19.4456 41.4327 19.4488C41.4327 19.4488 40.4091 23.6753 40.3609 23.8744C41.4036 23.8618 41.831 23.8618 42.0109 23.8817ZM42.8035 20.3504C42.8035 20.3504 43.2583 18.3665 43.2562 18.374L43.2709 18.2723L43.2773 18.1947L43.4591 18.2135C43.4591 18.2135 44.3971 18.2943 44.419 18.2965C44.7892 18.4401 44.9418 18.8102 44.8353 19.2934C44.7381 19.7349 44.4525 20.1061 44.0855 20.2854C43.7833 20.4374 43.4131 20.45 43.0316 20.45H42.7848L42.8035 20.3504ZM45.6352 22.0605C45.515 22.5743 45.3769 23.5127 46.2332 23.8471C46.5063 23.9636 46.7509 23.9982 46.9996 23.9856C47.2622 23.9714 47.5055 23.8393 47.7309 23.6493C47.7106 23.7274 47.6902 23.8055 47.6699 23.8839L47.7087 23.9341C48.3247 23.908 48.5158 23.908 49.1831 23.9131L49.2436 23.867C49.3411 23.2926 49.4329 22.7348 49.6861 21.6359C49.8095 21.1095 49.9326 20.5883 50.0593 20.0641L50.0394 20.0064C49.3504 20.1344 49.1663 20.1618 48.5035 20.256L48.4531 20.2971C48.4465 20.3505 48.4395 20.4017 48.4331 20.453C48.33 20.2861 48.1806 20.1435 47.9502 20.0547C47.6554 19.9385 46.9632 20.0882 46.3681 20.6315C45.95 21.0194 45.7493 21.5508 45.6352 22.0605ZM47.0823 22.092C47.2298 21.4588 47.3993 20.923 47.8383 20.923C48.1159 20.923 48.262 21.1799 48.2323 21.6179C48.2087 21.7272 48.1833 21.8423 48.1531 21.9725C48.1092 22.1607 48.0615 22.3472 48.0152 22.534C47.9681 22.6618 47.9132 22.7823 47.853 22.8626C47.74 23.0231 47.4713 23.1227 47.3166 23.1227C47.2727 23.1227 47.0018 23.1227 46.9924 22.7222C46.9902 22.5228 47.0312 22.3174 47.0823 22.092ZM54.6392 20.0012L54.5859 19.9403C53.9041 20.0788 53.7807 20.1008 53.1544 20.1856L53.1083 20.2318C53.1062 20.2393 53.1043 20.2509 53.1011 20.2613L53.099 20.2509C52.6326 21.3296 52.6463 21.0969 52.2667 21.9462C52.2646 21.9075 52.2646 21.8834 52.2624 21.8423L52.1674 20.0012L52.1077 19.9403C51.3935 20.0788 51.3767 20.1008 50.7171 20.1856L50.6657 20.2318C50.6585 20.2538 50.6585 20.278 50.6542 20.3043L50.6585 20.3137C50.7409 20.7362 50.7211 20.6419 50.8038 21.3087C50.8424 21.6359 50.8938 21.965 50.9323 22.2881C50.9974 22.829 51.0338 23.0953 51.1133 23.9206C50.6678 24.6577 50.5624 24.9366 50.1335 25.5835L50.1365 25.5899L49.8345 26.0688C49.8 26.1192 49.7687 26.1539 49.7248 26.1686C49.6766 26.1925 49.614 26.1968 49.527 26.1968H49.3597L49.111 27.0262L49.9641 27.041C50.4649 27.0388 50.7797 26.804 50.9492 26.4883L51.4856 25.5666H51.477L51.5335 25.5016C51.8944 24.7227 54.6392 20.0012 54.6392 20.0012ZM45.6352 30.8942H45.2733L46.6128 26.4517H47.0571L47.1982 25.994L47.2119 26.5029C47.1953 26.8175 47.4421 27.0964 48.0904 27.0502H48.8402L49.0982 26.1948H48.8161C48.6539 26.1948 48.5787 26.1537 48.588 26.0657L48.5744 25.5479H47.1859V25.5506C46.737 25.56 45.3964 25.5938 45.125 25.6663C44.7965 25.7511 44.4504 26.0007 44.4504 26.0007L44.5864 25.5425H43.2876L43.017 26.4517L41.6595 30.9621H41.3961L41.1378 31.8114H43.7247L43.638 32.0946H44.9127L44.9973 31.8114H45.3549L45.6352 30.8942ZM44.5738 27.3543C44.3658 27.412 43.9788 27.5871 43.9788 27.5871L44.323 26.4517H45.3549L45.106 27.2789C45.106 27.2789 44.7872 27.2977 44.5738 27.3543ZM44.5936 28.9764C44.5936 28.9764 44.2695 29.0172 44.0561 29.0655C43.846 29.1294 43.452 29.3307 43.452 29.3307L43.8074 28.1491H44.8447L44.5936 28.9764ZM44.0154 30.9047H42.9803L43.2804 29.9075H44.3123L44.0154 30.9047ZM46.5083 28.1491H48.0004L47.7859 28.8454H46.2741L46.0471 29.6066H47.37L46.3683 31.0209C46.2981 31.1248 46.2352 31.1615 46.1654 31.1908C46.0952 31.2265 46.0032 31.2684 45.8966 31.2684H45.5296L45.2775 32.1021H46.2374C46.7363 32.1021 47.0311 31.8745 47.2487 31.5757L47.9356 30.633L48.0831 31.5902C48.1144 31.7695 48.2429 31.8745 48.3299 31.9153C48.426 31.9636 48.5253 32.0465 48.6656 32.0589C48.816 32.0653 48.9247 32.0704 48.9969 32.0704H49.4686L49.7518 31.1374H49.5658C49.459 31.1374 49.2751 31.1194 49.2438 31.0858C49.2124 31.045 49.2124 30.9822 49.1956 30.8867L49.0459 29.9274H48.4332L48.702 29.6066H50.2109L50.443 28.8454H49.0459L49.2636 28.1491H50.6563L50.9146 27.2905H46.7623L46.5083 28.1491ZM33.9061 31.0985L34.2544 29.9368H35.6857L35.9472 29.0728H34.5146L34.7333 28.3578H36.1333L36.3927 27.5211H32.8897L32.6357 28.3578H33.4315L33.2193 29.0728H32.4213L32.1568 29.9516H32.9524L32.4882 31.4886C32.4256 31.692 32.5177 31.7696 32.576 31.8641C32.6357 31.9561 32.6962 32.0171 32.8322 32.0517C32.9725 32.0831 33.0686 32.1019 33.1992 32.1019H34.8128L35.1003 31.1447L34.385 31.2432C34.2469 31.2432 33.8644 31.2266 33.9061 31.0985ZM34.0703 25.5373L33.7076 26.1947C33.63 26.3383 33.5601 26.4274 33.4972 26.4684C33.4418 26.5031 33.332 26.5176 33.173 26.5176H32.9838L32.7308 27.3585H33.3593C33.6616 27.3585 33.8936 27.2474 34.0045 27.1918C34.1236 27.1279 34.1549 27.1644 34.247 27.0753L34.4593 26.8909H36.4219L36.6824 26.0153H35.2457L35.4965 25.5373H34.0703ZM36.9678 31.1154C36.9344 31.0671 36.9585 30.982 37.0096 30.8049L37.546 29.0245H39.4544C39.7325 29.0204 39.9333 29.0172 40.0639 29.0078C40.2042 28.9931 40.3567 28.9429 40.523 28.8527C40.6946 28.7582 40.7824 28.6586 40.8565 28.5443C40.9392 28.4302 41.072 28.1806 41.186 27.7957L41.8603 25.5426L39.88 25.5541C39.88 25.5541 39.2702 25.6443 39.0017 25.7439C38.7308 25.855 38.3438 26.1653 38.3438 26.1653L38.5226 25.5477H37.2992L35.5866 31.2432C35.5258 31.4644 35.4851 31.6249 35.4758 31.7212C35.4726 31.8251 35.6064 31.9279 35.6931 32.0055C35.7957 32.0831 35.9472 32.0704 36.0925 32.0831C36.2454 32.0946 36.4627 32.1019 36.7628 32.1019H37.7029L37.9915 31.1248L37.1499 31.2045C37.0599 31.2045 36.9949 31.1562 36.9678 31.1154ZM37.8922 27.822H39.8966L39.7692 28.2224C39.7512 28.2318 39.7084 28.2026 39.5044 28.2267H37.7688L37.8922 27.822ZM38.2937 26.4788H40.315L40.1696 26.9612C40.1696 26.9612 39.2169 26.9518 39.0644 26.98C38.393 27.0964 38.0008 27.4561 38.0008 27.4561L38.2937 26.4788ZM39.814 29.5635C39.7974 29.6234 39.7712 29.6599 39.7345 29.6873C39.6938 29.7136 39.628 29.723 39.5298 29.723H39.2441L39.261 29.2353H38.073L38.0248 31.6196C38.023 31.7916 38.0396 31.8912 38.1651 31.9709C38.2906 32.0705 38.6774 32.0831 39.1981 32.0831H39.9425L40.2113 31.1907L39.5632 31.2264L39.3477 31.239C39.3183 31.2264 39.2902 31.2148 39.2589 31.1834C39.2316 31.1563 39.1855 31.1729 39.193 31.0009L39.1981 30.3897L39.8777 30.3615C40.2447 30.3615 40.4016 30.2418 40.5354 30.1277C40.6631 30.0185 40.7049 29.8929 40.7531 29.723L40.8671 29.1818H39.9332L39.814 29.5635Z" fill="#FEFEFE"/>
</svg>
