<svg width="72" height="48" viewBox="0 0 72 48" fill="none" xmlns="http://www.w3.org/2000/svg">
<path d="M17.2046 18.7C17.5827 19.3216 17.7532 19.9619 17.7532 20.7707C17.7532 23.3504 15.541 26.7016 13.7456 29.0548H9.64469L8 19.2648L11.5908 18.9254L12.4603 25.8916C13.2729 24.5739 14.2755 22.5032 14.2755 21.0914C14.2755 20.3187 14.1425 19.7923 13.9347 19.3589L17.2046 18.7Z" fill="#008CFF"/>
<path d="M21.8586 23.0117C22.5193 23.0117 24.1829 22.7108 24.1829 21.7696C24.1829 21.3176 23.8618 21.0922 23.4835 21.0922C22.8217 21.0922 21.9532 21.8822 21.8586 23.0117ZM21.7828 24.8757C21.7828 26.025 22.4248 26.4758 23.2758 26.4758C24.2026 26.4758 25.0899 26.2504 26.2432 25.6669L25.8088 28.6034C24.9962 28.9986 23.7298 29.2623 22.5006 29.2623C19.3825 29.2623 18.2666 27.3799 18.2666 25.0266C18.2666 21.9766 20.0818 18.7379 23.8242 18.7379C25.8847 18.7379 27.0369 19.8871 27.0369 21.4872C27.037 24.0668 23.7112 24.8571 21.7828 24.8757Z" fill="#008CFF"/>
<path d="M37.3996 20.9599C37.3996 21.3364 37.3424 21.8825 37.2851 22.2393L36.2078 29.0173H32.7113L33.6942 22.804C33.7128 22.6355 33.7701 22.2963 33.7701 22.108C33.7701 21.656 33.4864 21.5433 33.1454 21.5433C32.6925 21.5433 32.2385 21.7502 31.9361 21.9012L30.8213 29.0174H27.3052L28.9115 18.8696H31.9547L31.9933 19.6796C32.7112 19.209 33.6566 18.7 34.9979 18.7C36.7751 18.6998 37.3996 19.6038 37.3996 20.9599Z" fill="#008CFF"/>
<path d="M47.7794 19.8488C48.7808 19.1341 49.7264 18.7379 51.03 18.7379C52.8253 18.7379 53.4498 19.6419 53.4498 20.9981C53.4498 21.3745 53.3926 21.9206 53.3356 22.2775L52.2593 29.0554H48.7619L49.7637 22.7109C49.782 22.5413 49.8209 22.3344 49.8209 22.2032C49.8209 21.6943 49.5371 21.5814 49.1961 21.5814C48.7619 21.5814 48.3277 21.7697 48.0054 21.9393L46.8908 29.0555H43.3944L44.3959 22.7109C44.4142 22.5414 44.452 22.3345 44.452 22.2033C44.452 21.6944 44.168 21.5815 43.8283 21.5815C43.3744 21.5815 42.9214 21.7884 42.6189 21.9395L41.5033 29.0556H37.9883L39.5946 18.9078H42.6006L42.6951 19.755C43.3944 19.2473 44.3389 18.7383 45.6052 18.7383C46.7018 18.7379 47.4194 19.2086 47.7794 19.8488Z" fill="#008CFF"/>
<path d="M60.4078 22.8047C60.4078 21.9762 60.1996 21.4114 59.5764 21.4114C58.1967 21.4114 57.9132 23.8399 57.9132 25.0822C57.9132 26.0246 58.1781 26.6079 58.8013 26.6079C60.1054 26.6079 60.4078 24.0469 60.4078 22.8047ZM54.3599 24.9322C54.3599 21.732 56.0607 18.7376 59.9736 18.7376C62.9221 18.7376 64 20.4701 64 22.8615C64 26.0245 62.3176 29.3002 58.3101 29.3002C55.3427 29.3002 54.3599 27.3608 54.3599 24.9322Z" fill="#008CFF"/>
</svg>
