<svg width="72" height="48" viewBox="0 0 72 48" fill="none" xmlns="http://www.w3.org/2000/svg">
<path fill-rule="evenodd" clip-rule="evenodd" d="M30.9309 20.7166H33.2045L33.57 18.841H31.296L30.9309 20.7166ZM30.695 21.9229H32.9692L31.5245 29.3284C31.4191 29.3659 31.0936 29.4976 30.6441 29.4976C30.0374 29.4976 29.481 29.2568 29.481 28.4032C29.481 28.2427 29.4991 28.0598 29.5397 27.852C29.9915 25.5412 30.695 21.9229 30.695 21.9229ZM53.2749 21.7539C51.7614 21.7539 51.1597 22.6564 50.8773 23.2058H50.8505L50.9378 21.9246H48.6906C48.6758 22.2063 48.5786 23.0944 48.4345 23.8604C48.4345 23.8604 47.9155 26.5484 47.8174 27.0631C47.7425 27.4563 47.6057 28.0375 47.6057 28.3748C47.6057 29.093 47.9636 29.4979 48.7619 29.4979C49.2097 29.4979 49.5326 29.3732 49.6501 29.3285L50.4016 25.4718C50.61 24.4069 51.3664 23.71 52.2658 23.71C52.9915 23.71 53.3384 24.2489 53.3384 24.6894C53.3384 25.0728 53.2439 25.4978 53.1708 25.8736L52.8476 27.5252C52.8091 27.7234 52.7268 28.1042 52.7268 28.4029C52.7268 29.133 53.1312 29.4979 53.8991 29.4979C54.3184 29.4979 54.5842 29.3912 54.7725 29.3285L55.4469 25.8712C55.5931 25.0898 55.6471 24.6783 55.6471 24.181C55.6471 22.7493 54.8248 21.7539 53.2749 21.7539ZM43.1738 23.5445C41.9028 23.5445 41.1987 24.8675 41.1987 26.0469C41.1987 27.0416 41.64 27.7077 42.643 27.7077C43.7768 27.7077 44.6642 26.7253 44.6642 25.0485C44.6642 24.2814 44.2631 23.5445 43.1738 23.5445ZM42.5036 29.4981C40.0688 29.4981 38.9038 28.0114 38.9038 26.1163C38.9038 23.5161 40.6573 21.7539 43.367 21.7539C45.7181 21.7539 46.9666 23.2033 46.9666 25.0648C46.9666 27.8543 45.0937 29.4981 42.5036 29.4981ZM33.9884 27.715C33.9366 27.9815 33.9038 28.1682 33.9038 28.3976C33.9038 29.2466 34.4611 29.4979 35.0516 29.4979C35.5239 29.4979 35.8161 29.3664 35.9231 29.3285L37.0164 23.715L38.7844 23.7148L39.1335 21.923L37.3656 21.9232L37.4516 21.4818C37.6115 20.6542 37.9941 20.2903 38.6558 20.2903C39.0977 20.2903 39.4551 20.3703 39.5793 20.4033L39.9121 18.6994C39.7703 18.6629 39.117 18.5 38.15 18.5C36.6092 18.5 35.5997 19.4529 35.3012 20.9876L35.1184 21.923H33.9674L33.6181 23.7148H34.77C34.77 23.7148 34.3157 26.0359 33.9884 27.715ZM28.7537 21.7539C27.6124 21.7539 26.9848 22.5608 26.7393 23.2045H26.713L26.8009 21.9228H24.5527C24.5328 22.3671 24.4415 23.1182 24.2125 24.2992C23.9803 25.496 23.7541 26.6899 23.5207 27.8518C23.4807 28.0504 23.4629 28.2447 23.4629 28.4092C23.4629 29.0177 23.7582 29.4971 24.6308 29.4971C25.0631 29.4971 25.3633 29.3828 25.5074 29.3283L26.1763 25.8952C26.4172 24.5817 26.8548 23.7133 28.1245 23.7133C28.7021 23.7133 29.2507 23.8388 29.3657 23.8731L29.7506 21.8978C29.6675 21.8686 29.3342 21.7539 28.7537 21.7539ZM61.7362 24.9244C61.8579 24.2455 61.47 23.5445 60.5934 23.5445C59.5229 23.5445 59.0527 24.2892 58.8428 24.9244H61.7362ZM62.7507 27.6803C62.7507 28.7102 61.7713 29.5 60.0369 29.5C57.6399 29.5 56.4678 27.9796 56.4678 26.1182C56.4678 24.2706 57.6722 21.7558 60.6122 21.7558C62.5505 21.7558 63.9999 22.7364 63.9999 24.9813C63.9999 25.5335 63.8792 26.1336 63.8273 26.374H58.6748C58.6662 26.9127 59.1121 27.8463 60.903 27.8463C61.7012 27.8463 62.605 27.5591 62.7507 27.4859C62.7507 27.5419 62.7507 27.6432 62.7507 27.6803ZM20.6495 24.9244C20.771 24.2455 20.3831 23.5445 19.5065 23.5445C18.436 23.5445 17.966 24.2892 17.7559 24.9244H20.6495ZM21.6641 27.6803C21.6641 28.7102 20.6846 29.5 18.9505 29.5C16.5533 29.5 15.3813 27.9796 15.3813 26.1182C15.3813 24.2706 16.5856 21.7558 19.5257 21.7558C21.4641 21.7558 22.9135 22.7364 22.9135 24.9813C22.9135 25.5335 22.7927 26.1336 22.7407 26.374H17.5884C17.5797 26.9127 18.0254 27.8463 19.8164 27.8463C20.6146 27.8463 21.5184 27.5591 21.6641 27.4859C21.6641 27.5419 21.6641 27.6432 21.6641 27.6803ZM8 19.403H10.2876V26.7662C10.2876 27.8734 10.8288 28.4387 11.6976 28.4387C11.7862 28.4387 11.8384 28.4271 11.8556 28.4229C11.4748 29.0097 10.9811 29.4911 9.84744 29.4911C8.64796 29.4911 8 28.6431 8 27.3706V19.403Z" fill="#1A1919"/>
<path fill-rule="evenodd" clip-rule="evenodd" d="M11.0783 25.7616C10.978 25.9211 10.9248 26.1056 10.9248 26.294V26.7785C10.9248 27.525 11.3207 27.7925 11.753 27.7925C12.1949 27.7925 12.4314 27.4873 12.6484 27.1404C13.012 26.5596 17.4551 19.403 17.4551 19.403H15.0774L11.0783 25.7616Z" fill="#00A3DA"/>
</svg>
