<svg width="72" height="48" viewBox="0 0 72 48" fill="none" xmlns="http://www.w3.org/2000/svg">
<path fill-rule="evenodd" clip-rule="evenodd" d="M26.6474 32.072C26.9671 31.9066 27.5106 31.6895 28.0863 31.6895C29.4078 31.6895 30.122 32.5781 30.122 34.2315C30.122 36.1629 29.1631 37.1032 27.6175 37.1032C27.0524 37.1032 26.1784 36.9276 25.5388 36.5965V29.3859L26.6474 29.1275V32.072ZM26.637 36.2145C26.9778 36.3592 27.351 36.3796 27.6176 36.3796C28.4063 36.3796 29.0031 35.9046 29.0031 34.2315C29.0031 32.919 28.5128 32.4955 27.7987 32.4955C27.3721 32.4955 27.0634 32.6091 26.637 32.8364V36.2145ZM15.2848 31.8237H15.3594L16.8087 36.9791H17.9597L19.6866 29.6541H18.4395L17.3523 35.1194H17.2781L15.7962 29.6541H14.8476L13.4621 35.1194H13.3874L12.1936 29.6541H11L12.7267 36.9791H13.8776L15.2848 31.8237ZM24.4097 36.6276V35.8424C23.8235 36.1834 23.2907 36.3796 22.7152 36.3796C21.6173 36.3796 21.0952 35.8318 21.0952 34.5923H24.5696V34.2103C24.5696 32.5265 23.7488 31.6895 22.4168 31.6895C20.8181 31.6895 19.9973 32.826 19.9973 34.3961C19.9973 36.0286 20.7327 37.1032 22.5231 37.1032C23.2907 37.1032 23.9301 36.8965 24.4097 36.6276ZM23.5572 33.9004H21.1169C21.2338 32.8675 21.7345 32.3818 22.385 32.3818C22.9605 32.3818 23.5044 32.8154 23.5572 33.9004ZM35.0252 35.4293H34.9717L32.5843 29.6541H31.2947V36.9791H32.254V31.793H32.3498L34.5244 36.9791H35.2062L37.3806 31.6689H37.4768V36.9791H38.6278V29.6541H37.306L35.0252 35.4293ZM39.8003 34.3961C39.8003 32.5881 40.8235 31.6895 42.2303 31.6895C43.6374 31.6895 44.6608 32.5881 44.6608 34.3961C44.6608 36.1629 43.6907 37.1032 42.2303 37.1032C40.77 37.1032 39.8003 36.1629 39.8003 34.3961ZM43.5413 34.3961C43.5413 33.0016 42.9549 32.4129 42.2303 32.4129C41.5267 32.4129 40.9192 33.0016 40.9192 34.3961C40.9192 35.8119 41.4738 36.3796 42.2303 36.3796C42.9869 36.3796 43.5413 35.8119 43.5413 34.3961ZM48.3904 31.6895C47.1653 31.6895 46.1524 32.175 45.6729 32.454V36.9791H46.7815V32.888C47.1117 32.7023 47.6554 32.5159 48.082 32.5159C48.6254 32.5159 49.0407 32.6607 49.0407 33.4768V36.9791H50.1492V33.2389C50.1492 32.175 49.67 31.6895 48.3904 31.6895ZM55.5528 35.8424V36.6276C55.0735 36.8965 54.4342 37.1032 53.6664 37.1032C51.8762 37.1032 51.1406 36.0286 51.1406 34.3961C51.1406 32.826 51.9616 31.6895 53.5601 31.6895C54.8927 31.6895 55.7136 32.5265 55.7136 34.2103V34.5923H52.2389C52.2389 35.8318 52.761 36.3796 53.8587 36.3796C54.4342 36.3796 54.9671 36.1834 55.5528 35.8424ZM52.2603 33.9004H54.7009C54.6479 32.8154 54.1039 32.3818 53.5283 32.3818C52.878 32.3818 52.3777 32.8675 52.2603 33.9004ZM61 31.8651H59.8595L58.644 35.6667H58.5805L57.2162 31.8651H56.0437L58.0901 37.0306C57.834 37.7949 57.3868 38.3533 56.662 38.3533V39.2C57.8871 39.2 58.5375 38.4565 59.0706 37.0306L61 31.8651Z" fill="#0068A3"/>
<path fill-rule="evenodd" clip-rule="evenodd" d="M35.2853 8C36.7521 8 38.1412 8.33108 39.3784 8.91887C39.5728 9.00821 39.7665 9.10651 39.9609 9.21505L39.1009 9.96107L37.8089 8.66617L35.6282 10.5514L34.333 9.18124L30.2709 12.7303L32.8751 15.5121L31.8517 16.3846L34.4167 19.1706L33.3993 20.041L37.0647 23.9955L39.2404 22.054L41.1215 24.1345C40.7473 24.4165 40.3398 24.6818 39.8908 24.927C38.5305 25.6788 36.9583 26.1093 35.2853 26.1093C30.1402 26.1093 25.9438 22.0414 25.9438 17.0549C25.9438 12.0674 30.1402 8 35.2853 8ZM33.583 16.4825L35.8044 14.5435L37.8046 16.6972L35.5835 18.6354L33.583 16.4825ZM37.3839 18.2645L35.1624 20.2029L37.163 22.3566L39.3844 20.4176L37.3839 18.2645ZM31.9934 12.8055L34.2148 10.8671L36.2145 13.0202L33.9931 14.9586L31.9934 12.8055ZM37.7359 10.3084L36.0698 11.7621L37.5698 13.3774L39.2358 11.9232L37.7359 10.3084ZM39.0298 18.4218L40.6964 16.9676L42.1963 18.5828L40.5303 20.0366L39.0298 18.4218ZM42.1613 20.2292L40.4956 21.6836L41.9956 23.2979L43.6616 21.844L42.1613 20.2292ZM41.1665 14.2079L42.2772 13.2386L43.277 14.3151L42.1669 15.2842L41.1665 14.2079ZM40.8582 10.04L39.7476 11.0091L40.7474 12.0856L41.8583 11.1165L40.8582 10.04ZM42.5867 17.4065L43.6974 16.4372L44.6974 17.5135L43.5867 18.4828L42.5867 17.4065ZM39.2713 13.5552L37.6055 15.0096L39.1058 16.6239L40.7713 15.17L39.2713 13.5552Z" fill="#0068A3"/>
</svg>
