<svg width="72" height="48" viewBox="0 0 72 48" fill="none" xmlns="http://www.w3.org/2000/svg">
<path d="M31.9648 27.4448C31.8318 27.5127 31.6817 27.5501 31.5214 27.5501C31.153 27.5501 30.829 27.3463 30.6619 27.0475L30.597 26.9049L27.9024 21.0204C27.8717 20.9559 27.8547 20.8846 27.8547 20.8132C27.8547 20.5416 28.0764 20.3209 28.3492 20.3209C28.4584 20.3209 28.5607 20.3582 28.646 20.4194L31.825 22.674C32.0569 22.8268 32.3332 22.9151 32.6334 22.9151C32.8107 22.9151 32.9813 22.8812 33.1382 22.8234L48.0883 16.1986C45.4073 13.0543 40.9935 11 35.9965 11C27.824 11 21.2 16.4975 21.2 23.2784C21.2 26.9762 23.1919 30.3073 26.3129 32.5586C26.5619 32.7351 26.7256 33.0272 26.7256 33.3599C26.7256 33.4686 26.7018 33.5705 26.6745 33.6723C26.4255 34.5993 26.0264 36.0798 26.0059 36.1477C25.9752 36.2632 25.9275 36.3854 25.9275 36.5076C25.9275 36.7793 26.1492 37 26.4221 37C26.5278 37 26.6165 36.9593 26.7086 36.9083L29.949 35.0475C30.1911 34.9083 30.4504 34.82 30.7335 34.82C30.8836 34.82 31.0302 34.8438 31.1701 34.8845C32.6811 35.3158 34.3115 35.5569 36 35.5569C44.1725 35.5569 50.8 30.0594 50.8 23.2784C50.8 21.2241 50.1894 19.292 49.115 17.5908L32.074 27.3837L31.9648 27.4448Z" fill="#09BB07"/>
</svg>
