<svg width="72" height="48" viewBox="0 0 72 48" fill="none" xmlns="http://www.w3.org/2000/svg">
<path d="M16.4239 29.569H15.3522L13.1347 22.6573H13.0935L10.8801 29.569H9.82909L6 19.3007H8.06086L10.3361 25.9726H10.3732L12.4876 19.3007H13.7241L15.8509 25.9726H15.888L18.1632 19.3007H20.2241L16.4239 29.569Z" fill="#508ECB"/>
<path d="M22.2683 25.2699C22.5898 26.882 23.9912 28.0478 25.6317 28.0684C26.8517 28.085 27.9769 27.4194 28.554 26.3447H30.4747C29.7369 28.4322 27.7708 29.8253 25.5616 29.8294C22.6764 29.8294 20.3476 27.3244 20.3476 24.4142C20.3105 21.5164 22.6269 19.1354 25.5204 19.0982C28.4097 19.061 30.7838 21.3841 30.8168 24.286C30.8168 24.6209 30.7797 25.1376 30.7632 25.2699H22.2683ZM28.8878 23.7859C28.7065 21.9546 27.0743 20.6153 25.2483 20.7971C23.6738 20.9542 22.425 22.2068 22.2683 23.7859H28.8878Z" fill="#508ECB"/>
<path d="M32.2678 19.3007H34.0237V20.8756H34.0608C34.8892 19.6851 36.2577 18.9906 37.7044 19.0237C41.179 19.0237 43.0049 21.8223 43.0049 24.5629C43.0544 27.4194 40.7874 29.7797 37.9352 29.8293C37.8981 29.8293 37.861 29.8293 37.8239 29.8293C35.6806 29.8293 34.609 28.7339 34.2215 28.0849H34.1844V32.9999H32.2678V19.3007ZM37.5725 20.7929C35.557 20.7929 34.1556 22.5333 34.1556 24.4224C34.0814 26.3404 35.5693 27.9567 37.4818 28.0312C39.3943 28.1056 41.0059 26.6133 41.0801 24.6952C41.0801 24.6167 41.0801 24.5381 41.0801 24.4596C41.0801 22.6201 39.6581 20.7929 37.5684 20.7929H37.5725Z" fill="#32AF4A"/>
<path d="M52.893 29.569V27.9734H52.8559C52.1098 29.1804 50.7785 29.8873 49.3648 29.8294C46.4631 29.9286 44.0313 27.6509 43.9323 24.7408C43.9323 24.6457 43.9323 24.5506 43.9323 24.4555C43.9323 21.9546 45.6882 19.0031 49.3648 19.0031C50.7414 18.9494 52.048 19.5984 52.8394 20.7269H52.8765V19.3007H54.8013V29.569H52.893ZM49.3648 20.793C46.9989 20.793 45.8531 22.8599 45.8531 24.4597C45.7871 26.4149 47.3122 28.056 49.2617 28.1222C51.2113 28.1883 52.8476 26.6588 52.9136 24.7035C52.9136 24.6209 52.9136 24.5423 52.9136 24.4597C53.0043 22.5251 51.5122 20.884 49.5832 20.7971C49.509 20.7971 49.439 20.793 49.3648 20.7971V20.793Z" fill="#32AF4A"/>
<path d="M60.3615 33H58.3666L59.8628 29.3664L55.7781 19.3007H57.839L60.852 27.2706L63.9392 19.3007H66L60.3615 33Z" fill="#32AF4A"/>
</svg>
