<svg width="72" height="48" viewBox="0 0 72 48" fill="none" xmlns="http://www.w3.org/2000/svg">
<path d="M21.9944 17.9375C20.0162 17.9375 18.4684 19.5565 18.4684 21.6252C18.4684 23.694 20.0184 25.2625 21.9944 25.2625C23.9704 25.2625 25.5205 23.6654 25.5205 21.6252C25.5205 19.585 23.9704 17.9375 21.9944 17.9375ZM21.9944 23.7773C20.945 23.7773 20.1546 22.8537 20.1546 21.6274C20.1546 20.4011 20.945 19.4271 21.9944 19.4271C23.0439 19.4271 23.8475 20.3726 23.8475 21.6274C23.8475 22.8823 23.0505 23.7773 21.9944 23.7773ZM34.0831 15H32.7658C32.656 15 32.5682 15.0878 32.5682 15.1974V24.8567C32.5682 24.9664 32.656 25.0541 32.7658 25.0541H34.0831C34.1929 25.0541 34.2807 24.9664 34.2807 24.8567V15.1974C34.2807 15.0878 34.1929 15 34.0831 15ZM31.2289 18.1174C30.9171 18.0537 30.4034 17.9397 29.624 17.9397C28.2649 17.9397 26.8993 18.3609 26.8993 20.5064V24.8567C26.8993 24.9664 26.9871 25.0541 27.0969 25.0541H28.4164C28.5262 25.0541 28.614 24.9664 28.614 24.8567V20.5437C28.614 20.23 28.6689 19.4468 29.8457 19.4468C30.3353 19.4468 30.8096 19.5258 30.9062 19.5411C31.0094 19.5587 31.1016 19.517 31.1301 19.4139L31.4155 18.3499C31.4485 18.2293 31.3738 18.1459 31.2289 18.1174ZM17.6912 18.1503H16.286C16.1982 18.1503 16.1235 18.2095 16.0994 18.2929L14.7601 23.0183L13.5328 18.815C13.4252 18.4245 13.0651 18.1503 12.659 18.1503H12.2242C11.8181 18.1503 11.458 18.4245 11.3504 18.815L10.1231 23.0183L8.78383 18.2929C8.76187 18.2095 8.68503 18.1503 8.5972 18.1503H7.19644C7.06471 18.1503 6.96811 18.2775 7.00982 18.4069L8.92873 24.4135C9.05168 24.7974 9.40297 25.0541 9.80475 25.0541H10.3712C10.7752 25.0541 11.1396 24.7843 11.2538 24.396L12.4438 20.3748L13.6338 24.396C13.748 24.7843 14.1124 25.0541 14.5164 25.0541H15.0829C15.4846 25.0541 15.8381 24.7974 15.9589 24.4135L17.8778 18.4069C17.9195 18.2775 17.8207 18.1503 17.6912 18.1503ZM64.801 18.1503H63.4573C63.4573 18.1503 63.2993 18.1503 63.2466 18.2819L61.4023 23.1499L59.5559 18.2731C59.5273 18.1963 59.4439 18.1503 59.3626 18.1503H58.019C57.8345 18.1503 57.7753 18.3016 57.8192 18.4179L60.5175 25.1814L59.4263 27.9324C59.3736 28.0684 59.4307 28.2022 59.6086 28.2022H60.9369C61.0181 28.2022 61.0905 28.1539 61.1191 28.0793L64.9789 18.4377C65.0491 18.2709 64.9328 18.1503 64.7988 18.1503H64.801ZM41.8202 15H40.5029C40.3953 15 40.3053 15.0878 40.3053 15.1974V18.0932C40.0506 18.0384 39.5961 17.9375 38.8584 17.9375C36.2369 17.9375 35.6903 20.2936 35.6903 21.5814C35.6903 24.4289 37.4028 25.2625 39.0055 25.2625C40.3712 25.2625 41.3021 24.9378 41.7478 24.7404C42.0178 24.6241 42.0178 24.4684 42.0178 24.3302V15.1974C42.0178 15.0899 41.93 15 41.8202 15ZM40.3053 23.626C40.3053 23.626 39.785 23.7795 39.1965 23.7795C37.8177 23.7795 37.4862 22.8055 37.4862 21.6494C37.4862 21.2369 37.4423 19.4402 39.1307 19.4402C39.7059 19.4402 40.3031 19.5982 40.3031 19.5982V23.626H40.3053ZM54.236 17.9375C53.068 17.9375 52.4115 18.091 51.7726 18.2687C51.6014 18.317 51.5311 18.4333 51.5794 18.6263L51.777 19.4249C51.8034 19.5389 51.9088 19.6969 52.0976 19.6486C52.5082 19.5477 53.1361 19.3481 54.056 19.3481C54.9759 19.3481 55.2153 19.6903 55.2153 20.513H54.078C51.6563 20.513 50.9844 21.7898 50.9844 22.834C50.9844 24.1525 51.6277 25.2647 53.9045 25.2647C55.6192 25.2647 56.4755 24.8325 56.6665 24.7316C56.8224 24.6505 56.9146 24.589 56.9146 24.3192V20.3375C56.9146 18.5364 55.8498 17.9397 54.236 17.9397V17.9375ZM55.2021 23.7269C55.2021 23.7269 54.6752 23.9024 53.9594 23.9024C52.9736 23.9024 52.6904 23.4088 52.6904 22.8954C52.6904 22.2417 53.1207 21.8227 54.0626 21.8227H55.2021V23.7269ZM46.6263 17.9375C45.2607 17.9375 44.3297 18.2622 43.884 18.4596C43.614 18.5759 43.614 18.7316 43.614 18.8698V28.0048C43.614 28.1122 43.7018 28.2022 43.8116 28.2022H45.1289C45.2365 28.2022 45.3265 28.1144 45.3265 28.0048V25.109C45.5812 25.1638 46.0357 25.2647 46.7734 25.2647C49.3949 25.2647 49.9416 22.9086 49.9416 21.6208C49.9416 18.7733 48.229 17.9397 46.6263 17.9397V17.9375ZM46.4989 23.762C45.9237 23.762 45.3265 23.604 45.3265 23.604V19.5762C45.3265 19.5762 45.8469 19.4227 46.4353 19.4227C47.8141 19.4227 48.1456 20.3967 48.1456 21.5528C48.1456 21.9653 48.1895 23.762 46.5011 23.762H46.4989Z" fill="#EF404A"/>
<path fill-rule="evenodd" clip-rule="evenodd" d="M8.23935 29.1148V28.9591C8.23935 28.0596 8.69383 27.4673 9.58522 27.4673C9.88162 27.4673 10.1275 27.5112 10.3427 27.5638L10.1802 28.3667C10.0617 28.3448 9.90577 28.3229 9.77843 28.3229C9.3986 28.3229 9.26467 28.5686 9.26467 28.9393V29.117H10.1341V29.9331H9.26467V32.9123H8.23935V29.9331H7.73438V29.117H8.23935V29.1148ZM12.3496 29.0271C12.6175 29.0271 12.87 29.0556 13.0193 29.0929L12.87 29.9331C12.7426 29.8892 12.5867 29.8739 12.4308 29.8739C12.1564 29.8739 11.9698 29.9265 11.8139 30.0011V32.9123H10.7886V29.3539C11.1904 29.1543 11.8139 29.0271 12.3496 29.0271ZM13.2932 31.0103C13.2932 32.2059 14.0068 33 15.1506 33C16.3033 33 17.0015 32.1993 17.0015 31.0103C17.0015 29.8212 16.2945 29.0271 15.1506 29.0271C14.0068 29.0271 13.2932 29.8146 13.2932 31.0103ZM15.9542 31.0103C15.9542 31.7145 15.6776 32.1532 15.1506 32.1532C14.6303 32.1532 14.3405 31.7079 14.3405 31.0103C14.3405 30.3126 14.6215 29.8739 15.1506 29.8739C15.6798 29.8739 15.9542 30.306 15.9542 31.0103ZM22.3304 32.9101V32.9079H23.347V30.5452C23.347 29.5712 22.7607 29.0227 21.7047 29.0227C21.2502 29.0227 20.8045 29.1719 20.4927 29.3276C20.2337 29.1258 19.8758 29.0227 19.4455 29.0227C18.8658 29.0227 18.2489 29.1412 17.7725 29.3496V32.9079H18.7912V30.0033C18.9844 29.9134 19.1842 29.8695 19.3928 29.8695C19.8692 29.8695 20.0624 30.1218 20.0624 30.6198V32.9079H21.0592V30.747C21.0592 30.4882 21.0285 30.249 20.9692 30.0494C21.1558 29.9463 21.4083 29.8717 21.6608 29.8717C22.1306 29.8717 22.3304 30.124 22.3304 30.622V32.9079H22.3282L22.3304 32.9101ZM32.744 31.7956L32.746 31.7964L32.553 32.695C32.924 32.8662 33.519 33 34.1579 33C35.2733 33 36.0461 32.4954 36.0461 31.4775C36.0461 30.4596 35.3699 30.1261 34.4851 29.8212C33.9032 29.6128 33.6442 29.4877 33.6442 29.0863C33.6442 28.7221 33.9032 28.5444 34.4236 28.5444C34.8385 28.5444 35.203 28.6409 35.5455 28.7748L35.7541 27.8907C35.4357 27.7503 34.9154 27.623 34.3577 27.623C33.2138 27.623 32.5662 28.1715 32.5662 29.1148C32.5662 29.9857 33.1172 30.3784 33.9647 30.668C34.6322 30.883 34.9747 31.0168 34.9747 31.4841C34.9747 31.8702 34.6849 32.0786 34.1118 32.0786C33.5925 32.0786 33.095 31.93 32.746 31.7964L32.7462 31.7956H32.744ZM26.1001 27.7108V32.9101H27.1627V30.9335H28.9324V30.0274H27.1627V28.6168H29.2661V27.7108H26.1001ZM31.444 27.7108H30.3813V32.9101H31.444V27.7108Z" fill="#002733"/>
</svg>
