<svg width="72" height="48" viewBox="0 0 72 48" fill="none" xmlns="http://www.w3.org/2000/svg">
<path fill-rule="evenodd" clip-rule="evenodd" d="M8 21.8133C8 19.7085 8 18.656 8.40921 17.8521C8.76916 17.1449 9.34352 16.57 10.05 16.2096C10.8531 15.8 11.9044 15.8 14.0071 15.8H18.3759C20.4786 15.8 21.53 15.8 22.3331 16.2096C23.0395 16.57 23.6139 17.1449 23.9739 17.8521C24.3831 18.656 24.3831 19.7085 24.3831 21.8133V26.1867C24.3831 28.2915 24.3831 29.344 23.9739 30.1479C23.6139 30.8551 23.0395 31.43 22.3331 31.7904C21.53 32.2 20.4786 32.2 18.3759 32.2H14.0071C11.9044 32.2 10.8531 32.2 10.05 31.7904C9.34352 31.43 8.76916 30.8551 8.40921 30.1479C8 29.344 8 28.2915 8 26.1867V21.8133ZM15.3823 19.5039L12.745 19.4797L12.745 21.2262H17.1156L12.5736 27.038V28.516H15.3823V30.2183H17.0675V28.516H19.9324C19.9565 28.4479 19.9649 28.2643 19.8124 28.0961C19.5596 27.8157 19.3586 27.5227 19.174 27.1542C19.1324 27.0731 19.0958 26.9841 19.0664 26.9129C19.0363 26.8398 19.0139 26.7854 19.0017 26.7773C18.711 26.764 17.7083 26.7593 16.8049 26.7551C15.955 26.7511 15.1928 26.7476 15.1937 26.7376L19.7398 20.8902V19.5039H17.0675V17.7816H15.3823V19.5039Z" fill="#6627CF"/>
<path d="M32.715 18.9445L29.5466 18.9153L29.5465 21.0248H34.7975L29.3405 28.0443V29.8295H32.715V31.8855H34.7397V29.8295H38.1817C38.2106 29.7472 38.2207 29.5255 38.0375 29.3223C37.7338 28.9836 37.4923 28.6297 37.2705 28.1846C37.2206 28.0867 37.1766 27.9793 37.1413 27.8933C37.1051 27.805 37.0782 27.7392 37.0635 27.7294C36.7142 27.7133 35.5095 27.7077 34.424 27.7026C33.4033 27.6978 32.4874 27.6935 32.4884 27.6815L37.9503 20.6189V18.9445H34.7397V16.8643H32.715V18.9445Z" fill="#6627CF"/>
<path d="M47.3361 17.9625C47.2879 17.9818 47.2735 19.051 47.2735 23.1002V23.4158C47.2734 28.0007 47.2734 28.4429 47.4399 28.8089C47.4576 28.8479 47.4772 28.886 47.499 28.9281L47.5097 28.949C47.7266 29.3699 48.2569 29.7472 48.8498 29.902C49.1776 29.9891 50.1418 29.9988 50.513 29.9214C50.9902 29.8198 51.0818 29.6747 50.8938 29.3022C50.7733 29.07 50.6142 28.562 50.5756 28.2814C50.5226 27.9476 50.4551 27.8944 50.0502 27.9041C49.8574 27.9089 49.6742 27.8944 49.6404 27.875C49.4428 27.7492 49.4428 27.7154 49.4428 22.8147C49.4428 19.6654 49.4283 18.0834 49.3946 18.0205C49.3464 17.9334 49.2837 17.9286 48.3678 17.9334C47.8327 17.9334 47.3651 17.9479 47.3361 17.9625Z" fill="#6627CF"/>
<path d="M51.7567 17.977C51.694 18.0157 51.6844 18.6349 51.6844 23.0663C51.6844 27.8412 51.6892 28.1314 51.776 28.4652C51.9399 29.1232 52.3111 29.5247 53.0149 29.8198C53.2849 29.9311 53.4054 29.9504 53.9501 29.9649C54.678 29.9843 55.0492 29.9311 55.4204 29.7424C55.7868 29.5634 55.7964 29.4376 55.4831 28.978C55.3577 28.7942 55.1649 28.4797 55.0589 28.2814L54.866 27.9186L54.5141 27.9137C54.0754 27.904 54.0321 27.8847 53.9501 27.6767C53.8874 27.5364 53.8778 26.8155 53.8778 22.8147C53.8778 19.6653 53.8633 18.0834 53.8296 18.0205C53.7814 17.9334 53.7187 17.9286 52.8028 17.9286C52.2677 17.9286 51.7953 17.9528 51.7567 17.977Z" fill="#6627CF"/>
<path fill-rule="evenodd" clip-rule="evenodd" d="M41.2717 21.0006C41.2476 21.0103 41.0596 21.0538 40.8619 21.0973C39.623 21.3828 38.5287 22.3358 38.0659 23.5452C37.8104 24.2128 37.7188 24.7305 37.714 25.4997C37.7092 26.5785 37.9261 27.3719 38.4226 28.1266C38.9818 28.9732 39.8014 29.5489 40.8619 29.8392C41.2235 29.9359 41.3825 29.9504 42.2117 29.9504C43.0312 29.9504 43.1999 29.9359 43.5422 29.844C44.3906 29.6069 45.1138 29.2151 45.6971 28.6587C46.0682 28.3104 46.0634 28.2137 45.6874 27.9234C45.5331 27.8025 45.2535 27.5412 45.0704 27.338C44.839 27.0913 44.6992 26.9752 44.6269 26.9752C44.5594 26.9752 44.4051 27.072 44.2557 27.2171C43.7399 27.6864 43.0891 27.9089 42.2358 27.9041C41.4549 27.8992 40.886 27.696 40.5245 27.28C40.3413 27.072 40.1099 26.5979 40.0617 26.3318L40.0328 26.1528H43.036C44.6895 26.1528 46.0731 26.1334 46.1068 26.1092C46.2659 26.0077 46.3045 25.3062 46.1888 24.5418C45.914 22.7131 44.8245 21.4844 43.1132 21.0731C42.8095 21.0006 42.5588 20.9764 42.0189 20.9812C41.6332 20.9812 41.3006 20.9909 41.2717 21.0006ZM42.5588 22.8679C42.9107 22.9405 43.3446 23.1824 43.547 23.4146C43.735 23.6275 43.9279 24.0097 43.9761 24.2564L44.0098 24.4112H40.081L40.1147 24.2564C40.2593 23.6033 40.8185 23.0566 41.5127 22.8825C41.8212 22.8051 42.2358 22.8002 42.5588 22.8679Z" fill="#6627CF"/>
<path fill-rule="evenodd" clip-rule="evenodd" d="M58.7948 21.0441C57.0835 21.4263 55.9265 22.6357 55.565 24.4209C55.3481 25.4755 55.4686 26.7043 55.8783 27.5848C56.4375 28.8039 57.4547 29.5924 58.843 29.8779C59.2817 29.9698 59.4553 29.9795 60.1446 29.9601C60.7279 29.9407 61.0413 29.9069 61.3112 29.8343C62.1356 29.6166 62.8587 29.2199 63.4131 28.6878C63.8373 28.2766 63.8373 28.2572 63.3793 27.875C63.1672 27.7009 62.8828 27.4251 62.7478 27.2655C62.4345 26.9026 62.3525 26.8978 62.0006 27.2171C61.4751 27.696 60.8484 27.9089 59.9759 27.9041C58.7515 27.8992 58.038 27.3719 57.8066 26.3076L57.7729 26.1821H63.8807C64.0879 26.0321 64.0108 24.4451 63.7601 23.7097C63.7119 23.5646 63.5818 23.2743 63.4757 23.0711C62.9117 21.9875 62.0102 21.315 60.7569 21.049C60.3567 20.9619 59.1757 20.9619 58.7948 21.0441ZM60.2989 22.8679C60.6267 22.9405 60.9641 23.1098 61.2052 23.3275C61.4076 23.5162 61.7355 24.1112 61.7355 24.2951V24.4112H57.8211L57.8548 24.2757C58.1055 23.2405 59.166 22.6261 60.2989 22.8679Z" fill="#6627CF"/>
</svg>
