<?xml version="1.0" encoding="UTF-8"?>
<svg id="Layer_1" xmlns="http://www.w3.org/2000/svg" xmlns:xlink="http://www.w3.org/1999/xlink" version="1.1" viewBox="0 0 480 480">
  <!-- Generator: Adobe Illustrator 30.1.0, SVG Export Plug-In . SVG Version: 2.1.1 Build 136)  -->
  <defs>
    <style>
      .st0 {
        fill: url(#linear-gradient);
      }
    </style>
    <linearGradient id="linear-gradient" x1="65.11" y1="240" x2="414.89" y2="240" gradientUnits="userSpaceOnUse">
      <stop offset="0" stop-color="#00efae"/>
      <stop offset="1" stop-color="#334efc"/>
    </linearGradient>
  </defs>
  <path class="st0" d="M414.81,309.91c0,25.3-4.61,48.36-13.77,69.26-9.15,20.9-21.62,38.77-37.41,53.77-15.78,14.92-34.23,26.52-55.5,34.74-21.19,8.22-43.96,12.32-68.25,12.32s-46.7-4.18-67.89-12.61-39.71-20.18-55.64-35.24c-15.86-15.06-28.4-32.94-37.55-53.77-9.08-20.76-13.69-43.53-13.69-68.47v-171.53L152.68,0v173.84c4.68-5.62,10.38-10.67,17.08-15.06,6.7-4.4,13.98-8,21.77-10.81s15.86-4.97,24.14-6.49c8.29-1.51,16.43-2.23,24.29-2.23,24.29,0,47.06,4.25,68.25,12.83,21.19,8.5,39.71,20.4,55.5,35.68,15.78,15.28,28.25,33.3,37.41,54.05,9.15,20.76,13.77,43.53,13.77,68.18l-.07-.07h0ZM329.33,310.27c0-13.05-2.31-25.23-6.85-36.54-4.61-11.32-10.81-21.05-18.67-29.26-7.86-8.22-17.08-14.63-27.68-19.32-10.52-4.61-21.77-6.99-33.73-6.99s-23.21,2.59-33.73,7.78c-10.52,5.19-19.75,12.04-27.68,20.54-7.86,8.58-14.05,18.38-18.52,29.41-4.47,11.1-6.7,22.49-6.7,34.31s2.23,25.23,6.7,36.4,10.67,20.9,18.52,29.12,17.08,14.7,27.68,19.46c10.52,4.76,21.77,7.14,33.73,7.14s23.21-2.38,33.73-7.14,19.75-11.24,27.68-19.46c7.86-8.22,14.13-17.95,18.67-29.12,4.61-11.17,6.85-23.28,6.85-36.4v.07Z"/>
</svg>