<?xml version="1.0" encoding="UTF-8"?>
<svg id="Layer_1" xmlns="http://www.w3.org/2000/svg" xmlns:xlink="http://www.w3.org/1999/xlink" version="1.1" viewBox="0 0 1920 666">
  <!-- Generator: Adobe Illustrator 30.1.0, SVG Export Plug-In . SVG Version: 2.1.1 Build 136)  -->
  <defs>
    <style>
      .st0 {
        fill: url(#linear-gradient1);
      }

      .st1 {
        fill: url(#linear-gradient);
      }

      .st2 {
        fill: #68748a;
      }
    </style>
    <linearGradient id="linear-gradient" x1="546.1" y1="2118.91" x2="746.2" y2="2118.91" gradientTransform="translate(0 2548) scale(1 -1)" gradientUnits="userSpaceOnUse">
      <stop offset="0" stop-color="#00efae"/>
      <stop offset="1" stop-color="#334efc"/>
    </linearGradient>
    <linearGradient id="linear-gradient1" x1="1495.78" y1="2118.91" x2="1295.68" y2="2118.91" xlink:href="#linear-gradient"/>
  </defs>
  <path class="st2" d="M485.2,430c0,35.1-6.39,67.1-19.1,96.09-12.69,28.99-29.99,53.8-51.9,74.59-21.91,20.7-47.5,36.81-76.99,48.19-29.39,11.4-61,17.11-94.69,17.11s-64.8-5.8-94.19-17.49c-29.39-11.69-55.1-27.99-77.2-48.9-22-20.91-39.4-45.7-52.11-74.59C6.41,496.2,0,464.59,0,430v-238L121.5,0v241.19c6.51-7.8,14.4-14.8,23.69-20.91,9.29-6.11,19.39-11.1,30.2-14.99s22-6.89,33.5-9c11.5-2.11,22.81-3.09,33.7-3.09,33.7,0,65.3,5.89,94.69,17.8,29.39,11.81,55.1,28.3,76.99,49.5,21.91,21.2,39.21,46.19,51.9,74.99,12.69,28.8,19.1,60.4,19.1,94.6l-.1-.1h0l.02.02ZM366.6,430.49c0-18.11-3.21-35-9.5-50.71-6.39-15.71-15-29.2-25.9-40.61-10.91-11.4-23.69-20.29-38.4-26.8-14.59-6.39-30.2-9.7-46.81-9.7s-32.2,3.61-46.81,10.79c-14.59,7.2-27.4,16.7-38.4,28.49-10.91,11.9-19.51,25.5-25.71,40.8-6.2,15.4-9.29,31.2-9.29,47.6s3.09,35,9.29,50.5c6.2,15.49,14.8,28.99,25.71,40.4,10.91,11.4,23.69,20.39,38.4,26.99,14.59,6.6,30.2,9.91,46.81,9.91s32.2-3.3,46.81-9.91c14.59-6.6,27.4-15.61,38.4-26.99,10.91-11.4,19.6-24.9,25.9-40.4,6.39-15.49,9.5-32.29,9.5-50.5v.1h0v.04Z"/>
  <path class="st2" d="M1083.98,666h-276.8v-120.59h276.8c8.29,0,15.4-3,21.29-8.91,5.89-5.91,8.91-13,8.91-21.29s-3-14.21-8.91-16.8c-5.89-2.71-13-3.99-21.29-3.99h-125.99c-21,0-40.7-3.99-59-12-18.3-8.01-34.29-18.8-47.9-32.6-13.59-13.71-24.31-29.8-32.2-48.1-7.8-18.3-11.81-38-11.81-59s3.9-40.61,11.81-59c7.8-18.3,18.6-34.29,32.2-47.9s29.61-24.31,47.9-32.1c18.3-7.8,38-11.81,59-11.81h245.3v120.59h-245.3c-8.29,0-15.4,3-21.29,8.91-5.89,5.91-8.91,13-8.91,21.29s3,15.9,8.91,21.91c5.89,6.11,13,9.1,21.29,9.1h125.99c20.7,0,40.2,3.49,58.5,10.41,18.3,6.89,34.29,16.61,47.9,28.99,13.59,12.4,24.4,27.3,32.39,44.79,8.01,17.39,12,36.5,12,57.2s-3.99,40.61-12,58.79c-8.01,18.18-18.8,34.1-32.39,47.9-13.59,13.71-29.61,24.5-47.9,32.39-18.3,7.8-37.9,11.81-58.5,11.81h0v.02Z"/>
  <path class="st1" d="M746.2,428.5c0,14-2.5,27.21-7.6,39.49s-12.1,22.91-21.1,31.89c-9,9-19.51,16.11-31.6,21.29-12.1,5.3-25.09,7.89-39.21,7.89s-26.59-2.59-38.9-7.89c-12.31-5.3-23-12.4-32.2-21.29-9.2-9-16.4-19.6-21.6-31.89-5.2-12.29-7.89-25.4-7.89-39.49s2.59-26.5,7.89-38.59c5.3-12.1,12.5-22.6,21.6-31.6,9.2-9,19.89-16.11,32.2-21.29,12.31-5.3,25.19-7.89,38.9-7.89s27.09,2.59,39.21,7.89c12.1,5.3,22.6,12.4,31.6,21.29,9,9,15.99,19.51,21.1,31.6s7.6,24.9,7.6,38.59h0Z"/>
  <path class="st0" d="M1495.78,428.5c0,14-2.5,27.21-7.6,39.49s-12.1,22.91-21.1,31.89c-9,9-19.51,16.11-31.6,21.29-12.1,5.3-25.09,7.89-39.21,7.89s-26.59-2.59-38.9-7.89c-12.31-5.3-23-12.4-32.2-21.29-9.2-9-16.4-19.6-21.6-31.89-5.3-12.31-7.89-25.4-7.89-39.49s2.59-26.5,7.89-38.59c5.3-12.1,12.5-22.6,21.6-31.6,9.2-9,19.89-16.11,32.2-21.29s25.19-7.89,38.9-7.89,27.09,2.59,39.21,7.89c12.1,5.3,22.6,12.4,31.6,21.29,9,9,15.99,19.51,21.1,31.6,5.11,12.1,7.6,24.9,7.6,38.59h0Z"/>
  <path class="st2" d="M1736.39,2.3v189.79h183.59v120.59h-183.59v141c0,12.69,2.4,24.59,7.1,35.69,4.7,11.1,11.19,20.79,19.51,28.99,8.29,8.29,17.99,14.9,29.3,19.7,11.19,4.9,23.19,7.3,35.9,7.3h91.79v120.59h-91.79c-29.3,0-56.79-5.49-82.5-16.61-25.71-11.1-48.31-26.3-67.6-45.7-19.39-19.39-34.6-41.89-45.7-67.6-11.1-25.71-16.61-53.2-16.61-82.5v-141h-59v-120.59h59"/>
</svg>