<?xml version="1.0" encoding="UTF-8"?> <svg xmlns="http://www.w3.org/2000/svg" id="Layer_1" version="1.1" viewBox="0 0 1920 666"><defs><style> .st0 { fill: #00efae; } .st1 { fill: #334efc; } </style></defs><path d="M485.2,430c0,35.1-6.4,67.1-19.1,96.1-12.7,29-30,53.8-51.9,74.6-21.9,20.7-47.5,36.8-77,48.2-29.4,11.4-61,17.1-94.7,17.1s-64.8-5.8-94.2-17.5c-29.4-11.7-55.1-28-77.2-48.9-22-20.9-39.4-45.7-52.1-74.6C6.4,496.2,0,464.6,0,430v-238L121.5,0v241.2c6.5-7.8,14.4-14.8,23.7-20.9,9.3-6.1,19.4-11.1,30.2-15,10.8-3.9,22-6.9,33.5-9,11.5-2.1,22.8-3.1,33.7-3.1,33.7,0,65.3,5.9,94.7,17.8,29.4,11.8,55.1,28.3,77,49.5,21.9,21.2,39.2,46.2,51.9,75,12.7,28.8,19.1,60.4,19.1,94.6ZM366.6,430.5c0-18.1-3.2-35-9.5-50.7-6.4-15.7-15-29.2-25.9-40.6-10.9-11.4-23.7-20.3-38.4-26.8-14.6-6.4-30.2-9.7-46.8-9.7s-32.2,3.6-46.8,10.8c-14.6,7.2-27.4,16.7-38.4,28.5-10.9,11.9-19.5,25.5-25.7,40.8-6.2,15.4-9.3,31.2-9.3,47.6s3.1,35,9.3,50.5c6.2,15.5,14.8,29,25.7,40.4,10.9,11.4,23.7,20.4,38.4,27,14.6,6.6,30.2,9.9,46.8,9.9s32.2-3.3,46.8-9.9c14.6-6.6,27.4-15.6,38.4-27,10.9-11.4,19.6-24.9,25.9-40.4,6.4-15.5,9.5-32.3,9.5-50.5Z"></path><path d="M1084,666h-276.8v-120.6h276.8c8.3,0,15.4-3,21.3-8.9,5.9-5.9,8.9-13,8.9-21.3s-3-14.2-8.9-16.8c-5.9-2.7-13-4-21.3-4h-126c-21,0-40.7-4-59-12-18.3-8-34.3-18.8-47.9-32.6-13.6-13.7-24.3-29.8-32.2-48.1-7.8-18.3-11.8-38-11.8-59s3.9-40.6,11.8-59c7.8-18.3,18.6-34.3,32.2-47.9,13.6-13.6,29.6-24.3,47.9-32.1,18.3-7.8,38-11.8,59-11.8h245.3v120.6h-245.3c-8.3,0-15.4,3-21.3,8.9-5.9,5.9-8.9,13-8.9,21.3s3,15.9,8.9,21.9c5.9,6.1,13,9.1,21.3,9.1h126c20.7,0,40.2,3.5,58.5,10.4,18.3,6.9,34.3,16.6,47.9,29,13.6,12.4,24.4,27.3,32.4,44.8,8,17.4,12,36.5,12,57.2s-4,40.6-12,58.8c-8,18.2-18.8,34.1-32.4,47.9-13.6,13.7-29.6,24.5-47.9,32.4-18.3,7.8-37.9,11.8-58.5,11.8Z"></path><path class="st0" d="M746.2,428.5c0,14-2.5,27.2-7.6,39.5-5.1,12.3-12.1,22.9-21.1,31.9-9,9-19.5,16.1-31.6,21.3-12.1,5.3-25.1,7.9-39.2,7.9s-26.6-2.6-38.9-7.9c-12.3-5.3-23-12.4-32.2-21.3-9.2-9-16.4-19.6-21.6-31.9s-7.9-25.4-7.9-39.5,2.6-26.5,7.9-38.6c5.3-12.1,12.5-22.6,21.6-31.6,9.2-9,19.9-16.1,32.2-21.3,12.3-5.3,25.2-7.9,38.9-7.9s27.1,2.6,39.2,7.9c12.1,5.3,22.6,12.4,31.6,21.3,9,9,16,19.5,21.1,31.6,5.1,12.1,7.6,24.9,7.6,38.6Z"></path><path class="st1" d="M1495.8,428.5c0,14-2.5,27.2-7.6,39.5-5.1,12.3-12.1,22.9-21.1,31.9-9,9-19.5,16.1-31.6,21.3-12.1,5.3-25.1,7.9-39.2,7.9s-26.6-2.6-38.9-7.9c-12.3-5.3-23-12.4-32.2-21.3-9.2-9-16.4-19.6-21.6-31.9-5.3-12.3-7.9-25.4-7.9-39.5s2.6-26.5,7.9-38.6c5.3-12.1,12.5-22.6,21.6-31.6,9.2-9,19.9-16.1,32.2-21.3s25.2-7.9,38.9-7.9,27.1,2.6,39.2,7.9c12.1,5.3,22.6,12.4,31.6,21.3,9,9,16,19.5,21.1,31.6,5.1,12.1,7.6,24.9,7.6,38.6Z"></path><path d="M1736.4,2.3v189.8h183.6v120.6h-183.6v141c0,12.7,2.4,24.6,7.1,35.7,4.7,11.1,11.2,20.8,19.5,29,8.3,8.3,18,14.9,29.3,19.7,11.2,4.9,23.2,7.3,35.9,7.3h91.8v120.6h-91.8c-29.3,0-56.8-5.5-82.5-16.6-25.7-11.1-48.3-26.3-67.6-45.7-19.4-19.4-34.6-41.9-45.7-67.6-11.1-25.7-16.6-53.2-16.6-82.5v-141h-59v-120.6h59"></path></svg> 