<?xml version="1.0" encoding="UTF-8"?>
<svg id="Layer_1" xmlns="http://www.w3.org/2000/svg" xmlns:xlink="http://www.w3.org/1999/xlink" viewBox="0 0 1920 288.92">
  <defs>
    <style>
      .cls-1 {
        fill: url(#linear-gradient-2);
      }

      .cls-2 {
        fill: url(#linear-gradient-3);
      }

      .cls-3 {
        fill: #282827;
      }

      .cls-4 {
        fill: url(#linear-gradient);
      }
    </style>
    <linearGradient id="linear-gradient" x1="0" y1="151.83" x2="487.96" y2="151.83" gradientTransform="translate(145.47 -48.51) rotate(45)" gradientUnits="userSpaceOnUse">
      <stop offset=".26" stop-color="#334efc"/>
      <stop offset=".67" stop-color="#649ffe"/>
      <stop offset="1" stop-color="#00efae"/>
    </linearGradient>
    <linearGradient id="linear-gradient-2" gradientTransform="translate(194.37 -164.61) rotate(45)" xlink:href="#linear-gradient"/>
    <linearGradient id="linear-gradient-3" gradientTransform="matrix(1,0,0,1,0,0)" xlink:href="#linear-gradient"/>
  </defs>
  <g>
    <path class="cls-3" d="M579.9,283.34V95.93h43.88v187.41h-43.88ZM702.24,283.34l-.37-108.95c0-13.63-3.41-23.74-10.22-30.31-6.82-6.56-15.93-9.85-27.33-9.85-9.17,0-17.23,2.91-24.17,8.74-6.94,5.83-13.39,12.71-19.34,20.64v-40.16c3.96-5.21,8.49-10.23,13.57-15.06,5.08-4.83,11.09-8.86,18.03-12.08,6.94-3.22,15-4.83,24.17-4.83,14.87,0,28.32,4.03,40.34,12.08,12.02,8.06,20.39,19.89,25.1,35.51l4.09,15.99v128.29h-43.88ZM824.57,283.34v-108.95c0-13.63-3.47-23.74-10.41-30.31-6.94-6.56-16.12-9.85-27.52-9.85-9.17,0-16.98,2.91-23.43,8.74-6.45,5.83-12.64,12.71-18.59,20.64l-8.92-32.72c7.68-10.65,16.73-19.89,27.14-27.7,10.41-7.81,22.43-11.71,36.07-11.71,12.64,0,24.29,2.85,34.95,8.55,10.65,5.7,19.15,14.26,25.47,25.66,6.32,11.4,9.48,25.66,9.48,42.76v114.9h-44.25Z"/>
    <path class="cls-3" d="M991.63,287.8c-16.12,0-30.43-3.22-42.95-9.67-12.52-6.44-22.44-15.68-29.75-27.7-7.32-12.02-10.97-26.34-10.97-42.95v-111.55h44.62v104.86c0,14.63,3.72,25.72,11.15,33.28,7.44,7.56,16.73,11.34,27.89,11.34s20.39-3.78,27.7-11.34c7.31-7.56,10.97-18.65,10.97-33.28v-104.86h44.99v111.55c0,16.61-3.66,30.93-10.97,42.95-7.31,12.03-17.29,21.26-29.93,27.7-12.64,6.44-26.9,9.67-42.77,9.67Z"/>
    <path class="cls-3" d="M1118.54,283.34V15.62h43.88v267.73h-43.88Z"/>
    <path class="cls-3" d="M1286.34,288.92c-10.91,0-20.77-2.42-29.56-7.25-8.8-4.83-15.75-11.65-20.82-20.45-5.08-8.8-7.62-19.15-7.62-31.05v-97.05h-31.98v-20.82c12.14-4.71,22.18-12.83,30.12-24.36,7.93-11.53,14.87-25.96,20.82-43.32h24.91v51.31h57.64v37.18h-57.64v86.64c0,8.43,2.29,15,6.88,19.71,4.59,4.71,10.97,7.06,19.15,7.06,7.44,0,13.94-1.05,19.52-3.16,5.58-2.1,10.47-4.4,14.69-6.88v37.56c-4.46,4.46-10.6,8.06-18.4,10.78-7.81,2.73-17.05,4.09-27.7,4.09Z"/>
    <path class="cls-3" d="M1360.07,133.86v-37.93h74v37.93h-74ZM1407.29,60.98c-8.43,0-15.68-3.03-21.75-9.11-6.08-6.07-9.11-13.2-9.11-21.38s3.03-15.62,9.11-21.57c6.07-5.95,13.32-8.92,21.75-8.92,5.7,0,10.91,1.37,15.62,4.09,4.71,2.73,8.49,6.45,11.34,11.16,2.85,4.71,4.28,9.79,4.28,15.24s-1.43,10.23-4.28,15.06c-2.85,4.83-6.63,8.62-11.34,11.34-4.71,2.73-9.92,4.09-15.62,4.09ZM1390.19,283.34V95.93h43.88v187.41h-43.88Z"/>
    <path class="cls-3" d="M1482.14,283.34V15.62h43.88v267.73h-43.88Z"/>
    <path class="cls-3" d="M1645.11,288.92c-15.12,0-29.13-3.85-42.02-11.53-12.89-7.68-23.24-18.84-31.05-33.46-7.81-14.62-11.71-32.22-11.71-52.8s3.9-38.67,11.71-53.55c7.81-14.87,18.41-26.27,31.79-34.21,13.38-7.93,28.26-11.9,44.62-11.9,10.16,0,20.51,2.42,31.05,7.25,10.53,4.83,19.39,11.22,26.58,19.15v-21.94h43.88v187.41h-43.88v-31.61c-5.7,10.17-13.82,18.91-24.35,26.22-10.54,7.31-22.75,10.97-36.63,10.97ZM1655.52,245.05c8.92,0,17.23-2.35,24.91-7.06,7.68-4.71,13.88-11.34,18.59-19.89,4.71-8.55,7.06-18.65,7.06-30.31l-.37-28.63c-6.69-7.68-14.07-13.76-22.12-18.22-8.06-4.46-16.92-6.69-26.59-6.69-10.41,0-19.46,2.73-27.14,8.18-7.69,5.45-13.57,12.46-17.66,21.01-4.09,8.55-6.13,17.79-6.13,27.7s2.04,18.96,6.13,27.14c4.09,8.18,9.85,14.69,17.29,19.52,7.44,4.83,16.11,7.25,26.03,7.25Z"/>
    <path class="cls-3" d="M1873.89,288.92c-10.91,0-20.77-2.42-29.56-7.25-8.8-4.83-15.75-11.65-20.82-20.45-5.08-8.8-7.62-19.15-7.62-31.05v-97.05h-31.98v-20.82c12.14-4.71,22.18-12.83,30.12-24.36,7.93-11.53,14.87-25.96,20.82-43.32h24.91v51.31h57.64v37.18h-57.64v86.64c0,8.43,2.29,15,6.88,19.71,4.59,4.71,10.97,7.06,19.15,7.06,7.44,0,13.94-1.05,19.52-3.16,5.58-2.1,10.47-4.4,14.69-6.88v37.56c-4.46,4.46-10.6,8.06-18.4,10.78-7.81,2.73-17.05,4.09-27.7,4.09Z"/>
  </g>
  <g>
    <g>
      <rect class="cls-3" x="-32.96" y="99.61" width="328.5" height="103.45" rx="51.73" ry="51.73" transform="translate(-68.56 137.16) rotate(-45)"/>
      <rect class="cls-3" x="131.63" y="100.6" width="328.5" height="103.45" rx="51.73" ry="51.73" transform="translate(-21.05 253.84) rotate(-45)"/>
      <path class="cls-3" d="M403.51,283.62l-21.95-21.95c-28.28-28.28-28.28-74.12,0-102.4l63.24-63.24,21.95,21.95c28.28,28.28,28.28,74.12,0,102.4l-63.24,63.24Z"/>
    </g>
    <g>
      <rect class="cls-4" x="-32.96" y="99.61" width="328.5" height="103.45" rx="51.73" ry="51.73" transform="translate(-68.56 137.16) rotate(-45)"/>
      <rect class="cls-1" x="131.63" y="100.6" width="328.5" height="103.45" rx="51.73" ry="51.73" transform="translate(-21.05 253.84) rotate(-45)"/>
      <path class="cls-2" d="M403.51,283.62l-21.95-21.95c-28.28-28.28-28.28-74.12,0-102.4l63.24-63.24,21.95,21.95c28.28,28.28,28.28,74.12,0,102.4l-63.24,63.24Z"/>
    </g>
  </g>
</svg>