<svg width="57" height="56" viewBox="0 0 57 56" fill="none" xmlns="http://www.w3.org/2000/svg">
<path fill-rule="evenodd" clip-rule="evenodd" d="M21.0368 40.2157L17.1461 38.8273V33.1564L21.0368 34.4746V40.2157ZM21.7505 40.2157L25.6412 38.8275V33.1564L21.7505 34.4746V40.2157ZM17.546 32.7322L21.4836 31.6297L25.135 32.8006L21.4836 34.0334L17.546 32.7322ZM16.4047 32.293L12.514 30.905V25.2336L16.4047 26.5519V32.293ZM17.1184 32.293L21.0093 30.905V25.2336L17.1184 26.5519V32.293ZM12.9138 24.8092L16.8517 23.707L20.5031 24.8778L16.8517 26.1106L12.9138 24.8094V24.8092ZM25.4834 32.293L21.5924 30.905V25.2336L25.4834 26.5519V32.293ZM26.1971 32.293L30.088 30.905V25.2336L26.1971 26.5519V32.293ZM21.9928 24.8092L25.9304 23.707L29.5815 24.8778L25.9304 26.1106L21.9928 24.8094V24.8092ZM30.1155 24.3697L26.2246 22.9823V17.3109L30.1155 18.6289V24.3697ZM30.8292 24.3697L34.7199 22.9823V17.3109L30.829 18.6289V24.3697H30.8292ZM26.6247 16.8867L30.5626 15.7842L34.2137 16.9548L30.5626 18.1879L26.6247 16.8867ZM39.1945 24.3697L35.3036 22.9823V17.3109L39.1945 18.6289V24.3697ZM39.9079 24.3697L43.7989 22.9823V17.3109L39.9079 18.6289V24.3697ZM35.7034 16.8867L39.6413 15.7842L43.2924 16.9548L39.6413 18.1876L35.7034 16.8864" fill="#FF9900"/>
</svg>
