<svg width="56" height="56" viewBox="0 0 56 56" fill="none" xmlns="http://www.w3.org/2000/svg">
<path fill-rule="evenodd" clip-rule="evenodd" d="M20.92 40.2157L17.0509 38.8273V33.1563L20.92 34.4746V40.2157ZM21.6297 40.2157L25.4988 38.8275V33.1563L21.6297 34.4746V40.2157ZM17.4485 32.7322L21.3643 31.6297L24.9953 32.8006L21.3643 34.0334L17.4485 32.7322ZM16.3135 32.293L12.4445 30.905V25.2336L16.3135 26.5519V32.293ZM17.0233 32.293L20.8926 30.905V25.2336L17.0233 26.5519V32.293ZM12.8421 24.8092L16.7581 23.707L20.3891 24.8778L16.7581 26.1106L12.8421 24.8094V24.8092ZM25.3418 32.293L21.4725 30.905V25.2336L25.3418 26.5519V32.293ZM26.0515 32.293L29.9209 30.905V25.2336L26.0515 26.5519V32.293ZM21.8706 24.8092L25.7864 23.707L29.4172 24.8778L25.7864 26.1106L21.8706 24.8094V24.8092ZM29.9482 24.3697L26.0789 22.9823V17.3109L29.9482 18.6289V24.3697ZM30.658 24.3697L34.527 22.9823V17.3109L30.6577 18.6289V24.3697H30.658ZM26.4768 16.8867L30.3928 15.7842L34.0236 16.9548L30.3928 18.1879L26.4768 16.8867ZM38.9768 24.3697L35.1074 22.9823V17.3109L38.9768 18.6289V24.3697ZM39.6862 24.3697L43.5556 22.9823V17.3109L39.6862 18.6289V24.3697ZM35.505 16.8867L39.4211 15.7842L43.0519 16.9548L39.4211 18.1876L35.505 16.8864" fill="#FF9900"/>
</svg>
