<svg width="57" height="56" viewBox="0 0 57 56" fill="none" xmlns="http://www.w3.org/2000/svg">
<path d="M42.2866 39.6624C42.2982 41.7984 40.5659 43.5377 38.4193 43.5492C38.2597 43.5505 38.0988 43.5415 37.9405 43.5223C35.9483 43.2293 34.4889 41.5053 34.5378 39.5037V16.49C34.4902 14.4858 35.9535 12.7619 37.947 12.4713C40.0795 12.2231 42.0112 13.7409 42.2609 15.8616C42.2789 16.0177 42.2879 16.1739 42.2866 16.3313V39.6624Z" fill="#F9AB00"/>
<path d="M17.9012 35.8485C20.0414 35.8485 21.7762 37.5737 21.7762 39.702C21.7762 41.8304 20.0414 43.5556 17.9012 43.5556C15.761 43.5556 14.0261 41.8304 14.0261 39.702C14.0261 37.5737 15.761 35.8485 17.9012 35.8485ZM28.0966 24.1701C25.946 24.2879 24.2781 26.0809 24.3283 28.222V38.5719C24.3283 41.3811 25.5715 43.0859 27.3926 43.4493C29.4942 43.8729 31.5418 42.5227 31.9678 40.4328C32.0205 40.1768 32.0463 39.917 32.045 39.6559V28.0429C32.0488 25.9068 30.3114 24.1727 28.1635 24.1688C28.1416 24.1688 28.1184 24.1688 28.0966 24.1701Z" fill="#E37400"/>
</svg>
