<svg width="57" height="56" viewBox="0 0 57 56" fill="none" xmlns="http://www.w3.org/2000/svg">
<path d="M21.3304 25.4546C21.3304 25.8374 21.372 26.1478 21.4449 26.3755C21.5281 26.6031 21.6321 26.8515 21.7778 27.1205C21.8298 27.2033 21.8507 27.286 21.8507 27.3585C21.8507 27.4619 21.7882 27.5654 21.653 27.6689L20.9974 28.1035C20.9038 28.1656 20.8102 28.1966 20.7269 28.1966C20.6229 28.1966 20.5188 28.1449 20.4148 28.0517C20.2691 27.8965 20.1442 27.731 20.0402 27.5654C19.9361 27.3895 19.8321 27.1929 19.7176 26.9549C18.906 27.9069 17.8863 28.3828 16.6585 28.3828C15.7845 28.3828 15.0874 28.1345 14.5775 27.6378C14.0677 27.1412 13.8076 26.479 13.8076 25.6512C13.8076 24.7717 14.1197 24.0577 14.7544 23.5196C15.3891 22.9816 16.2319 22.7126 17.3037 22.7126C17.6574 22.7126 18.0216 22.7436 18.4066 22.7953C18.7916 22.8471 19.187 22.9299 19.6032 23.023V22.2676C19.6032 21.4812 19.4367 20.9328 19.1141 20.6121C18.7812 20.2913 18.2193 20.1361 17.4181 20.1361C17.0539 20.1361 16.6793 20.1775 16.2944 20.2706C15.9094 20.3637 15.5348 20.4776 15.1706 20.6224C15.0041 20.6948 14.8793 20.7362 14.8064 20.7569C14.7336 20.7776 14.6816 20.788 14.64 20.788C14.4943 20.788 14.4215 20.6845 14.4215 20.4672V19.9602C14.4215 19.7946 14.4423 19.6705 14.4943 19.598C14.5463 19.5256 14.64 19.4532 14.7856 19.3807C15.1498 19.1945 15.5868 19.0393 16.0967 18.9151C16.6065 18.7806 17.1476 18.7185 17.7199 18.7185C18.9581 18.7185 19.8633 18.9979 20.446 19.5567C21.0183 20.1154 21.3096 20.9639 21.3096 22.1021V25.4546H21.3304ZM17.106 27.0274C17.4493 27.0274 17.8031 26.9653 18.1777 26.8411C18.5523 26.7169 18.8852 26.4893 19.1662 26.1789C19.3326 25.9823 19.4575 25.765 19.5199 25.5167C19.5824 25.2683 19.624 24.9683 19.624 24.6165V24.1819C19.3222 24.1094 18.9997 24.0474 18.6667 24.006C18.3337 23.9646 18.0112 23.9439 17.6886 23.9439C16.9915 23.9439 16.4817 24.0784 16.1383 24.3578C15.7949 24.6371 15.6284 25.0303 15.6284 25.5477C15.6284 26.034 15.7533 26.3962 16.0134 26.6445C16.2631 26.9032 16.6273 27.0274 17.106 27.0274ZM25.4612 28.1449C25.2739 28.1449 25.1491 28.1138 25.0658 28.0414C24.9826 27.9793 24.9097 27.8344 24.8473 27.6378L22.4021 19.6394C22.3397 19.4325 22.3085 19.298 22.3085 19.2255C22.3085 19.06 22.3917 18.9669 22.5582 18.9669H23.5779C23.7756 18.9669 23.9109 18.9979 23.9837 19.0703C24.0669 19.1324 24.1294 19.2773 24.1918 19.4739L25.9398 26.3237L27.563 19.4739C27.615 19.2669 27.6775 19.1324 27.7607 19.0703C27.844 19.0082 27.9896 18.9669 28.1769 18.9669H29.0093C29.207 18.9669 29.3423 18.9979 29.4255 19.0703C29.5088 19.1324 29.5816 19.2773 29.6232 19.4739L31.2672 26.4065L33.0673 19.4739C33.1297 19.2669 33.2026 19.1324 33.2754 19.0703C33.3586 19.0082 33.4939 18.9669 33.6812 18.9669H34.6489C34.8153 18.9669 34.909 19.0496 34.909 19.2255C34.909 19.2773 34.8986 19.329 34.8882 19.3911C34.8778 19.4532 34.857 19.536 34.8153 19.6498L32.3077 27.6482C32.2453 27.8551 32.1725 27.9897 32.0892 28.0517C32.006 28.1138 31.8707 28.1552 31.6938 28.1552H30.799C30.6013 28.1552 30.466 28.1242 30.3828 28.0517C30.2995 27.9793 30.2267 27.8448 30.1851 27.6378L28.5723 20.9639L26.9699 27.6275C26.9179 27.8344 26.8555 27.969 26.7722 28.0414C26.689 28.1138 26.5433 28.1449 26.356 28.1449H25.4612ZM38.8317 28.4242C38.2906 28.4242 37.7496 28.3622 37.2293 28.238C36.7091 28.1138 36.3033 27.9793 36.0327 27.8241C35.8662 27.731 35.7518 27.6275 35.7102 27.5344C35.6686 27.4412 35.6477 27.3378 35.6477 27.2446V26.7169C35.6477 26.4996 35.731 26.3962 35.8871 26.3962C35.9495 26.3962 36.0119 26.4065 36.0743 26.4272C36.1368 26.4479 36.2304 26.4893 36.3345 26.5307C36.6882 26.6859 37.0732 26.8101 37.479 26.8928C37.8952 26.9756 38.301 27.017 38.7172 27.017C39.3727 27.017 39.8826 26.9032 40.2364 26.6756C40.5901 26.4479 40.7774 26.1168 40.7774 25.6926C40.7774 25.4028 40.6838 25.1649 40.4965 24.9683C40.3092 24.7717 39.9554 24.5958 39.4456 24.4302L37.9368 23.9646C37.1773 23.7266 36.6154 23.3748 36.272 22.9092C35.9287 22.4539 35.7518 21.9469 35.7518 21.4088C35.7518 20.9742 35.8454 20.5914 36.0327 20.2603C36.22 19.9292 36.4697 19.6394 36.7819 19.4118C37.094 19.1738 37.4478 18.9979 37.864 18.8737C38.2802 18.7496 38.7172 18.6978 39.175 18.6978C39.404 18.6978 39.6433 18.7082 39.8722 18.7392C40.1115 18.7703 40.33 18.8116 40.5485 18.853C40.7566 18.9048 40.9543 18.9565 41.1416 19.0186C41.3289 19.0807 41.4746 19.1428 41.5786 19.2048C41.7243 19.2876 41.8283 19.3704 41.8908 19.4635C41.9532 19.5463 41.9844 19.6601 41.9844 19.805V20.2913C41.9844 20.5086 41.9012 20.6224 41.7451 20.6224C41.6619 20.6224 41.5266 20.581 41.3497 20.4982C40.7566 20.2292 40.0907 20.0947 39.3519 20.0947C38.7588 20.0947 38.2906 20.1878 37.9681 20.3844C37.6455 20.581 37.479 20.8811 37.479 21.3053C37.479 21.5951 37.5831 21.8434 37.7912 22.04C37.9993 22.2366 38.3843 22.4332 38.9357 22.6091L40.4132 23.0747C41.1624 23.3127 41.7035 23.6438 42.026 24.068C42.3486 24.4923 42.5047 24.9786 42.5047 25.5167C42.5047 25.9616 42.411 26.3651 42.2341 26.7169C42.0468 27.0687 41.7971 27.3792 41.4746 27.6275C41.152 27.8862 40.767 28.0724 40.3196 28.2069C39.8514 28.3518 39.3623 28.4242 38.8317 28.4242Z" fill="#252F3E"/>
<path fill-rule="evenodd" clip-rule="evenodd" d="M40.7982 33.453C37.3749 35.9674 32.4013 37.3022 28.1249 37.3022C22.1316 37.3022 16.7313 35.0982 12.6526 31.4353C12.33 31.1455 12.6214 30.7523 13.0063 30.98C17.4181 33.5254 22.8599 35.0671 28.489 35.0671C32.2869 35.0671 36.4593 34.2808 40.2987 32.6666C40.871 32.4079 41.3601 33.0391 40.7982 33.453Z" fill="#FF9900"/>
<path fill-rule="evenodd" clip-rule="evenodd" d="M42.2237 31.8388C41.7867 31.28 39.3311 31.5698 38.2178 31.7043C37.8849 31.7457 37.8328 31.4559 38.1346 31.2387C40.0907 29.8728 43.3058 30.266 43.6804 30.7213C44.055 31.1869 43.5764 34.3842 41.7451 35.9156C41.4642 36.1536 41.1936 36.0294 41.3185 35.719C41.7347 34.6946 42.6607 32.3872 42.2237 31.8388Z" fill="#FF9900"/>
</svg>
