<svg width="57" height="56" viewBox="0 0 57 56" fill="none" xmlns="http://www.w3.org/2000/svg">
<path d="M19.5283 37.0533L16.5002 37.7404V18.2385L19.5283 18.9268V37.0533Z" fill="#F68536"/>
<path d="M23.3064 38.2044L19.5283 39.2721V16.7334L23.3064 17.7998V38.2044ZM28.153 39.3871L23.3064 41.1509V14.8547L28.153 16.6177V39.3871ZM41.1119 37.1121L28.153 43.5556V12.4444L41.1119 18.8879V37.1121Z" fill="#F68536"/>
<path d="M25.5698 13.7291L28.153 12.4444V43.5556L25.5698 42.2713V13.7291ZM21.3067 15.8485L23.3064 14.8543V41.1457L21.3067 40.1515V15.8485ZM17.9354 17.5251L19.5283 16.733V39.267L17.9354 38.4744V17.5251ZM16.5002 18.2385L15.201 18.8845V37.1159L16.5002 37.7615V18.2385Z" fill="#9D5025"/>
</svg>
