<svg width="57" height="56" viewBox="0 0 57 56" fill="none" xmlns="http://www.w3.org/2000/svg">
<path fill-rule="evenodd" clip-rule="evenodd" d="M40.9403 24.2892C39.6622 24.2892 38.9401 24.5346 38.5256 25.1097C38.0925 25.7103 38.0054 26.6584 38.0054 27.9937C38.0054 30.6151 38.4132 31.7109 40.9403 31.7109C41.2438 31.7109 42.2813 31.7051 42.887 31.6316C43.1226 31.5928 43.2282 31.4133 43.2282 31.2527V30.9632C43.2282 30.7379 43.057 30.5679 42.8298 30.5679H40.9402C39.5144 30.5679 39.2573 30.2337 39.2207 28.3336V27.7185C39.2329 25.7741 39.49 25.4322 40.9403 25.4322C42.2776 25.4322 42.534 25.7356 42.5785 27.4474H40.4535V28.6031H43.2484C43.7989 28.6031 43.7989 28.2202 43.7989 28.0945V27.7255C43.759 25.06 43.1177 24.2892 40.9403 24.2892ZM37.2602 24.3911L37.2298 24.3831C36.9695 24.3287 36.2582 24.2892 35.9055 24.2892C34.6575 24.2892 33.998 24.8088 33.998 25.7919V31.2652C33.998 31.4905 34.1565 31.6479 34.3836 31.6479H34.8276C35.0548 31.6479 35.2133 31.4906 35.2133 31.2652V25.8924C35.2133 25.6498 35.275 25.4322 36.0197 25.4322L37.1224 25.4313C37.2303 25.4441 37.3333 25.4144 37.4127 25.3475C37.4993 25.275 37.5469 25.169 37.5469 25.0495V24.7726C37.5469 24.5909 37.4423 24.4518 37.2602 24.3911ZM31.9304 24.3774H31.4864C31.2593 24.3774 31.1007 24.5347 31.1007 24.7601V30.568H29.2545C28.1125 30.568 27.6491 30.4958 27.6491 28.6858V24.7601C27.6491 24.5348 27.4905 24.3774 27.2634 24.3774H26.832C26.6049 24.3774 26.4337 24.5418 26.4337 24.7601V28.6858C26.4337 31.2582 27.3719 31.7109 29.3432 31.7109C30.0524 31.7109 31.0236 31.7109 31.9497 31.5812L31.9712 31.5769C32.2 31.5201 32.316 31.3898 32.316 31.1898V24.7601C32.316 24.5348 32.1574 24.3774 31.9304 24.3774Z" fill="#272727"/>
<path fill-rule="evenodd" clip-rule="evenodd" d="M25.0644 24.5571C25.0075 24.4366 24.8853 24.3648 24.7376 24.3648H24.167C24.0012 24.3648 23.8773 24.4312 23.8121 24.5507L22.9663 25.7795L23.7067 26.7863L24.9994 24.9424C25.1412 24.771 25.0921 24.6158 25.0644 24.5571Z" fill="#74BB11"/>
<path fill-rule="evenodd" clip-rule="evenodd" d="M20.6058 24.5367L20.6051 24.5355C20.4761 24.3647 20.3046 24.3647 20.2482 24.3647H19.6901C19.5471 24.3647 19.43 24.43 19.3688 24.5438C19.3059 24.6603 19.3192 24.8003 19.4063 24.93L21.4739 27.7803L19.0963 31.0781C19.0133 31.2021 19.0016 31.34 19.0643 31.4564C19.1259 31.5702 19.2431 31.6353 19.3858 31.6353H19.9563C20.103 31.6353 20.2321 31.5596 20.2966 31.4403L22.9578 27.7935L20.6058 24.5367Z" fill="#009CD9"/>
<path fill-rule="evenodd" clip-rule="evenodd" d="M25.3483 31.1069L23.6895 28.843L22.9598 29.8433L24.2717 31.5844L24.3058 31.5993C24.3578 31.6225 24.4142 31.6348 24.4712 31.6352H25.0292C25.164 31.6352 25.2784 31.5757 25.3432 31.4717C25.4095 31.3651 25.4114 31.2323 25.3483 31.1069Z" fill="#EB2084"/>
<path fill-rule="evenodd" clip-rule="evenodd" d="M16.9019 28.5527V30.4752C16.337 30.5614 15.4759 30.5805 15.1824 30.5805C13.8842 30.5805 13.7419 30.2278 13.7419 29.4786C13.7419 28.7776 14.0057 28.5526 14.8273 28.5526L16.9019 28.5527ZM15.119 24.2891C14.7179 24.2891 14.1708 24.2995 13.4902 24.3809L13.4594 24.3877C13.2612 24.4438 13.1608 24.5733 13.1608 24.7726V25.0494C13.1608 25.2854 13.3085 25.4321 13.5464 25.4321H15.1191C16.3854 25.4321 16.9019 25.7733 16.9019 26.6096V27.4223H14.8273C13.2059 27.4223 12.514 28.0372 12.514 29.4785C12.514 31.0849 13.2301 31.7109 15.0683 31.7109C15.8129 31.7109 17.1835 31.6533 17.69 31.4997C18.1172 31.3818 18.1172 31.0573 18.1172 30.9507V26.5342C18.1172 25.0235 17.1365 24.2891 15.1191 24.2891H15.119Z" fill="#272727"/>
</svg>
