<svg width="56" height="56" viewBox="0 0 56 56" fill="none" xmlns="http://www.w3.org/2000/svg">
<path fill-rule="evenodd" clip-rule="evenodd" d="M40.7128 24.2892C39.4418 24.2892 38.7238 24.5346 38.3115 25.1097C37.8808 25.7103 37.7942 26.6584 37.7942 27.9937C37.7942 30.6151 38.1998 31.7109 40.7128 31.7109C41.0147 31.7109 42.0464 31.7051 42.6487 31.6316C42.8831 31.5928 42.988 31.4133 42.988 31.2527V30.9632C42.988 30.7379 42.8178 30.5679 42.5919 30.5679H40.7127C39.2949 30.5679 39.0392 30.2337 39.0029 28.3336V27.7185C39.0149 25.7741 39.2706 25.4322 40.7128 25.4322C42.0427 25.4322 42.2977 25.7356 42.3419 27.4474H40.2288V28.6031H43.0081C43.5556 28.6031 43.5556 28.2202 43.5556 28.0945V27.7255C43.5159 25.06 42.8782 24.2892 40.7128 24.2892ZM37.0532 24.3911L37.0229 24.3831C36.7641 24.3287 36.0568 24.2892 35.706 24.2892C34.465 24.2892 33.8091 24.8088 33.8091 25.7919V31.2652C33.8091 31.4905 33.9667 31.6479 34.1926 31.6479H34.6341C34.86 31.6479 35.0177 31.4906 35.0177 31.2652V25.8924C35.0177 25.6498 35.0791 25.4322 35.8196 25.4322L36.9161 25.4313C37.0235 25.4441 37.1259 25.4144 37.2048 25.3475C37.2909 25.275 37.3383 25.169 37.3383 25.0495V24.7726C37.3383 24.5909 37.2343 24.4518 37.0532 24.3911ZM31.753 24.3774H31.3115C31.0857 24.3774 30.9279 24.5347 30.9279 24.7601V30.568H29.0919C27.9563 30.568 27.4955 30.4958 27.4955 28.6858V24.7601C27.4955 24.5348 27.3378 24.3774 27.1119 24.3774H26.683C26.4571 24.3774 26.2868 24.5418 26.2868 24.7601V28.6858C26.2868 31.2582 27.2198 31.7109 29.1802 31.7109C29.8854 31.7109 30.8512 31.7109 31.7723 31.5812L31.7936 31.5769C32.0211 31.5201 32.1365 31.3898 32.1365 31.1898V24.7601C32.1365 24.5348 31.9787 24.3774 31.753 24.3774Z" fill="white"/>
<path fill-rule="evenodd" clip-rule="evenodd" d="M24.9252 24.5571C24.8685 24.4366 24.747 24.3648 24.6002 24.3648H24.0327C23.8679 24.3648 23.7447 24.4312 23.6798 24.5507L22.8387 25.7795L23.575 26.7863L24.8605 24.9424C25.0016 24.771 24.9527 24.6158 24.9252 24.5571Z" fill="#74BB11"/>
<path fill-rule="evenodd" clip-rule="evenodd" d="M20.4913 24.5367L20.4906 24.5355C20.3624 24.3647 20.1918 24.3647 20.1357 24.3647H19.5807C19.4385 24.3647 19.322 24.43 19.2612 24.5438C19.1986 24.6603 19.2119 24.8003 19.2985 24.93L21.3546 27.7803L18.9902 31.0781C18.9076 31.2021 18.896 31.34 18.9584 31.4564C19.0196 31.5702 19.1362 31.6353 19.2781 31.6353H19.8454C19.9914 31.6353 20.1197 31.5596 20.1838 31.4403L22.8303 27.7935L20.4913 24.5367Z" fill="#009CD9"/>
<path fill-rule="evenodd" clip-rule="evenodd" d="M25.2075 31.1069L23.5579 28.843L22.8323 29.8433L24.1368 31.5844L24.1707 31.5993C24.2225 31.6225 24.2785 31.6348 24.3353 31.6352H24.8901C25.0242 31.6352 25.1379 31.5757 25.2024 31.4717C25.2684 31.3651 25.2702 31.2322 25.2075 31.1069Z" fill="#EB2084"/>
<path fill-rule="evenodd" clip-rule="evenodd" d="M16.808 28.5527V30.4752C16.2462 30.5614 15.3899 30.5805 15.0981 30.5805C13.807 30.5805 13.6656 30.2278 13.6656 29.4786C13.6656 28.7776 13.9279 28.5526 14.7449 28.5526L16.808 28.5527ZM15.035 24.2891C14.6361 24.2891 14.0921 24.2995 13.4153 24.3809L13.3847 24.3877C13.1875 24.4438 13.0876 24.5733 13.0876 24.7726V25.0494C13.0876 25.2854 13.2346 25.4321 13.4712 25.4321H15.0351C16.2943 25.4321 16.808 25.7733 16.808 26.6096V27.4223H14.7449C13.1325 27.4223 12.4445 28.0372 12.4445 29.4785C12.4445 31.0849 13.1566 31.7109 14.9846 31.7109C15.725 31.7109 17.088 31.6533 17.5918 31.4997C18.0165 31.3818 18.0165 31.0573 18.0165 30.9507V26.5342C18.0165 25.0235 17.0413 24.2891 15.0351 24.2891H15.035Z" fill="white"/>
</svg>
