<svg width="57" height="56" viewBox="0 0 57 56" fill="none" xmlns="http://www.w3.org/2000/svg">
<path d="M22.9438 13.3344H32.2012L22.591 41.6668C22.5419 41.8115 22.4704 41.9477 22.379 42.0705C22.2879 42.1934 22.178 42.3011 22.0533 42.3902C21.9285 42.4793 21.7909 42.5485 21.6446 42.5952C21.4983 42.6418 21.3458 42.6659 21.1925 42.6659H13.9879C13.754 42.6659 13.5233 42.6107 13.3152 42.5041C13.1069 42.3979 12.9271 42.2438 12.7908 42.0546C12.6543 41.8654 12.565 41.6466 12.5303 41.4164C12.4955 41.1861 12.5166 40.9508 12.5913 40.7303L21.5449 14.3328C21.5937 14.1881 21.6653 14.052 21.7568 13.9291C21.848 13.8062 21.9582 13.6985 22.0826 13.6094C22.2074 13.5203 22.345 13.4511 22.4913 13.4044C22.6376 13.3578 22.7901 13.3337 22.9434 13.3337V13.334L22.9438 13.3344Z" fill="url(#paint0_linear_1_5890)"/>
<path d="M40.0092 42.666H31.6967C31.604 42.666 31.5113 42.6574 31.4198 42.6399C31.3287 42.6228 31.2391 42.5971 31.1527 42.5633C31.0663 42.5294 30.9833 42.4874 30.9047 42.4384C30.8262 42.3891 30.7525 42.3326 30.6846 42.2697L21.2515 33.509C21.1518 33.4163 21.0823 33.296 21.0521 33.1636C21.0219 33.0312 21.0325 32.8929 21.0825 32.7665C21.1326 32.6402 21.2197 32.5318 21.3325 32.4554C21.4455 32.3792 21.5789 32.3383 21.7154 32.3383H36.3952L40.0085 42.6663L40.0092 42.666Z" fill="#0078D4"/>
<path d="M32.2344 13.3344L25.7541 32.3403L36.3424 32.338L39.9744 42.666H31.6932C31.6075 42.6652 31.5219 42.6574 31.4374 42.6423C31.3529 42.6271 31.27 42.6049 31.1895 42.5754C31.0279 42.5168 30.8776 42.4312 30.7452 42.3222L24.3775 36.4122L22.5949 41.64C22.5488 41.7707 22.4854 41.8948 22.4064 42.0087C22.2481 42.238 22.0315 42.4214 21.7787 42.5404C21.6529 42.5996 21.5196 42.6418 21.3826 42.666H13.9922C13.756 42.6668 13.5229 42.6108 13.3129 42.5026C13.1028 42.3946 12.922 42.2379 12.7857 42.0457C12.6495 41.8535 12.5617 41.6315 12.5299 41.3985C12.4982 41.1654 12.5233 40.9281 12.603 40.7066L21.5421 14.3526C21.5887 14.2052 21.6587 14.0664 21.7494 13.9411C21.8397 13.8159 21.95 13.7055 22.0752 13.6145C22.2003 13.5235 22.3395 13.4527 22.487 13.4052C22.6344 13.3578 22.7889 13.3337 22.9442 13.3344H32.2348H32.2344Z" fill="url(#paint1_linear_1_5890)"/>
<path d="M43.7214 40.7304C43.7962 40.951 43.8172 41.1861 43.7828 41.4164C43.7481 41.6466 43.659 41.8653 43.5228 42.0546C43.3864 42.2437 43.2066 42.3978 42.9985 42.5041C42.7903 42.6104 42.5597 42.6659 42.3256 42.666H32.008C32.2418 42.666 32.4726 42.6104 32.681 42.5042C32.8891 42.398 33.069 42.2436 33.2055 42.0546C33.342 41.8656 33.4311 41.6466 33.466 41.4164C33.5008 41.1862 33.4796 40.9509 33.4049 40.7304L24.451 14.332C24.3524 14.0412 24.1646 13.7885 23.914 13.6094C23.7897 13.5203 23.652 13.4515 23.5061 13.4048C23.3602 13.3582 23.2077 13.3344 23.0548 13.3344H33.3721C33.5254 13.3344 33.6775 13.3582 33.8238 13.4048C33.9697 13.4515 34.1073 13.5207 34.2321 13.6094C34.3565 13.6985 34.4664 13.8062 34.5575 13.9287C34.6486 14.0512 34.7198 14.1873 34.7691 14.332L43.723 40.7304H43.7214Z" fill="url(#paint2_linear_1_5890)"/>
<defs>
<linearGradient id="paint0_linear_1_5890" x1="26.3224" y1="15.5085" x2="16.7974" y2="43.8031" gradientUnits="userSpaceOnUse">
<stop stop-color="#114A8B"/>
<stop offset="1" stop-color="#0669BC"/>
</linearGradient>
<linearGradient id="paint1_linear_1_5890" x1="29.322" y1="28.6771" x2="27.0993" y2="29.4353" gradientUnits="userSpaceOnUse">
<stop stop-opacity="0.3"/>
<stop offset="0.1" stop-opacity="0.2"/>
<stop offset="0.3" stop-opacity="0.1"/>
<stop offset="0.6" stop-opacity="0.1"/>
<stop offset="1" stop-opacity="0"/>
</linearGradient>
<linearGradient id="paint2_linear_1_5890" x1="28.094" y1="14.684" x2="38.5506" y2="42.6969" gradientUnits="userSpaceOnUse">
<stop stop-color="#3CCBF4"/>
<stop offset="1" stop-color="#2892DF"/>
</linearGradient>
</defs>
</svg>
