<svg width="56" height="56" viewBox="0 0 56 56" fill="none" xmlns="http://www.w3.org/2000/svg">
<path d="M33.7811 23.0174L33.7742 22.9508L33.6662 22.96L33.673 23.0266L33.7811 23.0174ZM34.5071 24.7637L34.5095 24.8004L34.5853 24.7936C34.583 24.7706 34.5922 24.7338 34.6083 24.6879L34.6013 24.6212C34.5692 24.6236 34.537 24.6718 34.5071 24.7637ZM31.674 26.9626C31.6695 26.9006 31.4764 26.6593 31.095 26.2342C31.0881 26.1561 31.2191 26.0389 31.4879 25.885L32.2554 25.2164C32.4277 24.998 32.5288 24.6442 32.5587 24.1525L32.5495 24.0399C32.5196 23.6999 32.2738 23.4264 31.8073 23.2174C31.5316 23.0312 31.0353 22.9278 30.3184 22.9095C29.7256 22.96 28.9513 23.1714 27.9977 23.5459C27.7357 23.7343 27.4371 23.9228 27.1016 24.1111L27.1062 24.1686C27.1269 24.1663 27.159 24.1548 27.1958 24.1295C27.2349 24.1249 27.2578 24.1433 27.2601 24.1801L27.3176 24.1502L27.3452 24.1479L27.3475 24.1732C27.3498 24.2031 27.1429 24.3662 26.7248 24.658L26.757 24.7177L26.7294 24.72L26.6604 24.6948C26.6627 24.7154 26.6329 24.7292 26.5754 24.7338L26.5777 24.7591L26.6444 24.8418C26.6237 24.8441 26.5915 24.835 26.5479 24.8188C26.4513 24.828 26.3571 24.8786 26.2629 24.9751L26.302 24.8051C26.4421 24.2008 26.5386 23.6654 26.5892 23.2013L26.5823 23.1714C26.4858 23.1093 26.3916 23.022 26.3043 22.9117C26.3066 22.8405 26.3066 22.7992 26.3043 22.7899L26.2974 22.7647L26.2698 22.7716C25.9665 23.2265 25.3829 24.0032 24.5167 25.1015C23.8572 25.8827 23.5171 26.317 23.4965 26.4043C23.2277 26.6823 23.099 26.8501 23.1128 26.9075C23.0415 26.9534 23.0117 26.9994 23.0231 27.0499C23.0025 27.0545 22.9887 27.0477 22.9841 27.0269C22.8692 27.2131 22.6991 27.3325 22.4717 27.3854L22.2327 27.4406C22.2006 27.4474 22.1845 27.4704 22.1868 27.5095L22.1936 27.5394L22.2833 27.5187L22.2902 27.5439L22.088 27.6221L21.7295 27.7048L21.5411 27.7163C21.5135 27.7438 21.6905 27.714 21.6216 27.73L21.3872 27.7852C21.2447 27.8174 21.1666 27.8059 21.1528 27.7485L21.1252 27.7553C21.1299 27.7806 21.1321 27.799 21.1275 27.8151L21.1138 27.7576L20.9253 27.8013C20.9115 27.714 20.6565 27.3969 20.1625 26.8501C20.1533 26.7443 20.3279 26.5904 20.6841 26.3905L21.6905 25.5058C21.9157 25.2164 22.0489 24.7522 22.0926 24.1134L22.0788 23.9641C22.0397 23.5138 21.7134 23.1507 21.1 22.8704C20.7369 22.6245 20.0844 22.4935 19.1423 22.4729C18.3611 22.5395 17.3409 22.8175 16.0863 23.3024C15.7417 23.5528 15.3488 23.8009 14.9076 24.0468L14.9145 24.1249C14.9444 24.1226 14.9834 24.1066 15.0317 24.079C15.0822 24.0744 15.1098 24.0973 15.1144 24.1433L15.1925 24.0996L15.2316 24.0973L15.2339 24.1341C15.2362 24.1709 14.9627 24.3846 14.409 24.7752L14.4526 24.8441L14.4136 24.8464L14.3286 24.8165C14.3309 24.8395 14.2918 24.8556 14.2114 24.8625L14.216 24.9039L14.3079 25.005C14.2781 25.0073 14.2367 24.998 14.1838 24.9797C14.0046 24.9958 13.83 25.1244 13.6577 25.368L13.7013 25.4369C13.8506 25.2991 13.938 25.2302 13.9632 25.2279L13.9724 25.3404C13.9471 25.3428 13.9081 25.3588 13.8553 25.3864L13.9494 25.5289C14.1274 25.3365 14.3289 25.1675 14.5492 25.0256C14.6572 25.0532 14.7146 25.0877 14.7169 25.1244L14.7996 25.1176C15.3924 24.6787 15.9784 24.3616 16.5597 24.1663L16.5665 24.2444C16.4586 24.4052 16.385 24.488 16.346 24.4925C16.3506 24.5477 16.3689 24.596 16.4034 24.6373C16.4126 24.7361 16.1484 25.4025 15.613 26.634C14.3975 29.497 13.3773 31.6155 12.5479 32.985C12.5501 33.0125 12.5662 33.0493 12.5961 33.0953C12.8006 33.047 12.9293 32.9965 12.9844 32.9481L13.0281 32.9436L13.035 33.0217L13.1108 33.0148L13.1889 32.9712C13.1912 32.9941 13.2165 33.0056 13.2693 33.001L13.2762 33.0792C13.2831 33.155 13.2395 33.2698 13.1475 33.4284C13.0648 33.5226 12.9752 33.7202 12.881 34.0212L12.8833 34.058L12.9591 34.0511C13.29 33.6811 13.5404 33.3181 13.7128 32.9642C14.6778 32.6816 15.4131 32.4036 15.9232 32.1302C16.4356 32.0865 16.8262 31.951 17.0928 31.7281L17.0881 31.6867L16.8952 31.7442L16.8515 31.7488L16.8469 31.7074C17.2237 31.65 17.4834 31.5672 17.6281 31.4524C18.3611 30.8871 18.9148 30.4873 19.2894 30.2507C20.0591 29.6854 20.56 29.1339 20.7875 28.5986C20.8305 28.5892 20.8734 28.5793 20.9161 28.5687C21.0241 28.5642 21.0839 28.5618 21.1 28.5572C21.0953 28.5366 21.1046 28.5251 21.1252 28.5205C21.2976 28.5021 21.2149 28.5319 21.3252 28.5067L21.6146 28.4401C21.5963 28.4446 21.5894 28.4539 21.594 28.4722L21.6376 28.4446C21.6284 28.4446 21.6216 28.4424 21.6146 28.4401L21.6629 28.4286L21.6399 28.4424C21.6721 28.4469 21.7066 28.4446 21.7456 28.4355L21.7663 28.5205L20.4497 30.6137L20.1579 30.979L20.0154 31.4569L20.043 31.4501L20.1855 31.3903L20.1395 31.5765L20.1533 31.6316L20.1923 31.6798C20.174 31.6844 20.1671 31.6959 20.1717 31.7166L20.1786 31.7465L20.2383 31.7327C20.3256 31.6569 20.3624 31.5879 20.3486 31.5259C20.4428 31.5419 20.5048 31.5489 20.537 31.5397L20.5439 31.5695C20.4865 31.5833 20.4566 31.6293 20.452 31.7074L20.4589 31.7373L20.491 31.7304C20.969 31.2088 22.1408 29.4235 23.0806 28.2126C23.0507 28.0816 23.5401 27.9001 24.5511 27.6657L24.5833 27.6588C24.6201 27.8174 24.5419 28.2011 24.3489 28.81C24.2249 29.1776 24.1651 29.3798 24.1743 29.412C24.0135 29.9014 23.9376 30.1656 23.9468 30.207L23.5884 31.3811C23.3563 31.9832 23.1794 32.615 23.0553 33.2814C23.076 33.2768 23.1081 33.2791 23.1541 33.2906L23.2046 33.2469C23.2093 33.2676 23.2231 33.2744 23.2437 33.2698L23.223 33.1848L23.3793 33.1803C23.4252 33.1688 23.4643 33.1113 23.4965 33.0056C23.4896 32.8471 23.5218 32.7621 23.593 32.7437C23.6895 32.3669 23.7492 32.1785 23.7699 32.1715C23.8595 31.797 23.9261 31.5833 23.9698 31.5305C24.1054 31.0434 24.2041 30.7929 24.2685 30.7768L24.2823 30.8366L24.1835 31.0916C24.0112 31.8568 23.8365 32.4611 23.6596 32.9045L23.7102 33.1251L23.7423 33.1182C24.1697 32.1991 24.7855 30.3794 25.5874 27.6588C25.6104 27.4198 25.7252 27.2337 25.9298 27.1028L25.8838 27.0545L25.8769 27.0293C25.9688 27.0086 26.0331 26.9718 26.0699 26.9213C26.0653 26.9006 25.9849 26.8707 25.8287 26.8293L26.2285 25.1153C26.3157 25.0371 26.3663 24.9958 26.3824 24.9958L26.3893 25.0831C26.3686 25.0854 26.3365 25.0968 26.2997 25.1221L26.3755 25.2302C26.5134 25.0808 26.6627 24.9521 26.8259 24.8441C26.9086 24.8671 26.9499 24.8947 26.9546 24.9223L27.0143 24.9177C27.4692 24.5845 27.915 24.3455 28.3538 24.2008L28.3584 24.2582C28.2781 24.38 28.2229 24.442 28.193 24.4443C28.1976 24.4857 28.2091 24.5224 28.2298 24.5546C28.2367 24.6304 28.0391 25.1359 27.6347 26.0734C26.711 28.2447 25.9366 29.8508 25.3071 30.894C25.3094 30.9147 25.3232 30.9423 25.3484 30.979C25.5024 30.9423 25.6012 30.9032 25.6402 30.8664L25.6678 30.8641L25.6724 30.9216L25.7367 30.917L25.7942 30.8871C25.7965 30.9032 25.8172 30.9101 25.8563 30.9078L25.8608 30.9699C25.8654 31.025 25.8333 31.1123 25.762 31.2317C25.6954 31.303 25.6264 31.4524 25.5529 31.6798L25.5552 31.7097L25.615 31.7051C25.8654 31.4248 26.0561 31.149 26.1871 30.8779C26.92 30.662 27.4784 30.4529 27.8644 30.246C28.2573 30.2116 28.5537 30.1105 28.756 29.9405L28.7537 29.9106L28.6043 29.9542L28.5722 29.9566L28.5698 29.9267C28.8548 29.8853 29.0547 29.821 29.1627 29.736C29.7187 29.3086 30.1392 29.003 30.4241 28.8238C31.311 28.1781 31.7246 27.5577 31.674 26.9626ZM31.5224 27.0017L31.5431 27.2337C31.5155 27.2912 31.4857 27.321 31.4581 27.3234L31.4236 26.9281C31.4879 26.9511 31.5201 26.9741 31.5224 27.0017ZM14.1241 25.1314L14.085 25.1336L14.0781 25.0624L14.2367 25.0486L14.239 25.0854C14.2137 25.0877 14.1746 25.1015 14.1241 25.1314ZM13.3498 32.8769C13.2578 32.8356 13.1751 32.8195 13.1039 32.8264L13.0947 32.7138C13.0901 32.6702 13.1154 32.6403 13.1705 32.6288C13.2211 32.6242 13.251 32.661 13.2555 32.7345C13.3888 32.5714 13.4624 32.4887 13.4762 32.4863L13.5612 32.5208C13.5336 32.7506 13.4624 32.8678 13.3498 32.8769ZM21.6239 24.2214C21.5848 24.226 21.5067 24.1043 21.3941 23.863L21.3872 23.7918C21.4607 23.7849 21.5365 23.9044 21.6169 24.1502L21.6239 24.2214ZM21.5135 23.3644L21.4814 23.4402L20.3578 22.9715C21.1068 22.9968 21.4929 23.1277 21.5135 23.3644ZM16.7688 27.4383L16.6102 27.4521L16.6033 27.3808L16.7618 27.367L16.7688 27.4383ZM16.6401 24.9912L16.6791 24.9889L16.6883 25.1015C16.6516 25.1038 16.6033 25.1589 16.5436 25.2646L16.5367 25.1865C16.6079 25.1015 16.6447 25.0371 16.6401 24.9912ZM16.3069 25.777L16.3207 25.9263L16.2816 25.9286L16.2678 25.7793L16.3069 25.777ZM16.1323 26.0573L16.2081 26.0504C16.2012 26.1745 16.1668 26.2411 16.1047 26.2457L16.0657 26.248C16.1139 26.1653 16.1369 26.101 16.1323 26.0573ZM16.0013 26.4479L16.045 26.4433L16.0473 26.4801L15.976 26.5996L15.9002 26.6065L15.8979 26.5697C15.9737 26.5628 16.0082 26.5238 16.0013 26.4479ZM15.8726 26.7995L15.8497 26.9879L15.8106 26.9902L15.7945 26.8041L15.8726 26.7995ZM14.5836 30.4644C14.5331 30.7217 14.4779 30.8526 14.4205 30.8573L14.4182 30.8205C14.4044 30.6941 14.4596 30.5746 14.5836 30.4644ZM14.347 30.9767L14.3493 31.0135C14.3538 31.064 14.3309 31.0939 14.2803 31.0962L14.2781 31.0594C14.2734 31.0158 14.2964 30.9882 14.347 30.9767ZM14.2781 32.0406L14.3975 32.0291L14.4021 32.0705C14.3722 32.0727 14.3332 32.0888 14.2849 32.1164L14.2091 32.1233C14.2045 32.0843 14.2298 32.0544 14.278 32.0406H14.2781ZM17.6786 30.9905C17.0077 31.3214 16.6125 31.5466 16.4953 31.6637C15.7693 31.9165 15.4085 32.0727 15.4154 32.1348C14.7698 32.3898 14.3447 32.5783 14.1402 32.6954C14.0919 32.7 14.023 32.6816 13.9311 32.6403C13.9196 32.5093 13.9793 32.4036 14.1057 32.3186C14.2183 32.3094 14.3262 32.3255 14.4297 32.3691C14.5492 32.3071 14.7583 32.2382 15.0547 32.1647L15.0478 32.0865L14.8088 32.1072C14.8387 32.0659 15.0684 31.9579 15.5004 31.7832L15.6199 31.7718L15.6222 31.8085C15.4177 31.8269 15.3051 31.8867 15.2798 31.9946C15.2844 32.0429 15.312 32.0635 15.3626 32.059C15.5165 31.9624 15.5923 31.905 15.59 31.8889C15.8819 31.8338 16.6883 31.411 18.0095 30.6229L18.0164 30.6941C18.0187 30.7286 17.9061 30.8251 17.6786 30.9905ZM15.6521 31.6569C15.8451 31.6408 16.0105 31.5627 16.1484 31.4271C16.2035 31.4225 16.2334 31.4431 16.2357 31.4914C16.1414 31.5006 15.9599 31.5787 15.6957 31.7304L15.6567 31.7327L15.6521 31.6569ZM18.9217 29.1454L17.9084 29.9474C17.1547 30.4414 16.7504 30.6895 16.6929 30.6941C15.4935 31.3536 14.7468 31.6959 14.4573 31.7212L14.4136 31.7258C14.4504 31.5903 14.9834 30.4988 16.0174 28.4446C16.4724 28.4056 17.1893 28.1942 18.1658 27.8082L18.4047 27.7875C18.8987 27.7438 19.2687 27.8403 19.5123 28.0701L19.526 28.2194C19.3422 28.748 19.14 29.0559 18.9217 29.1454ZM16.9411 28.0311L17.1042 28.0173L17.1065 28.054L16.9434 28.0678L16.9411 28.0311ZM19.2319 27.6427L19.3514 27.6312C19.4617 27.6841 19.5191 27.73 19.5237 27.7714L19.526 27.8082C19.4203 27.8174 19.3215 27.7623 19.2319 27.6427ZM19.5559 25.7977C19.4502 25.924 19.1607 26.14 18.6873 26.4433C18.5311 26.4571 17.9498 26.6823 16.9434 27.1234C16.8931 27.1005 16.8377 27.091 16.7826 27.0959L16.7756 27.0246C16.7642 26.8799 16.8285 26.6984 16.9709 26.4778C17.0491 26.0642 17.1341 25.8275 17.2283 25.7701L18.067 23.8837C18.0578 23.7665 18.237 23.6769 18.6046 23.6148L18.7241 23.6033L18.7333 23.7114C19.094 23.6562 19.3192 23.624 19.4065 23.6171C20.0729 23.5597 20.4198 23.6953 20.4474 24.0193L20.5232 24.0123L20.5071 23.8217L20.5898 23.8147C20.7851 23.9228 20.8909 24.0537 20.9047 24.2076C20.9138 24.3134 20.8564 24.4443 20.7346 24.6006C20.6841 24.6051 20.6542 24.5684 20.6496 24.4949L20.5669 24.5018L20.5485 24.7315C20.2107 25.237 19.9649 25.4967 19.8132 25.5105C19.6753 25.7012 19.5903 25.7954 19.5559 25.7977ZM20.0706 27.1189C20.0017 27.0729 19.9465 27.0522 19.9052 27.0545L19.8959 26.9419L19.9718 26.9351L20.1395 27.0339C20.1464 27.0867 20.1234 27.1143 20.0706 27.1189ZM20.6036 27.7507C20.6772 27.7806 20.7209 27.8127 20.73 27.8426L20.6933 27.8518L20.6956 27.8541C20.6886 27.8541 20.6795 27.8564 20.6725 27.8587L20.6174 27.9024L20.6036 27.7507ZM20.6542 28.0678L20.6473 28.0379L20.7438 28.015L20.7507 28.0449L20.6542 28.0678ZM20.8863 28.3275C20.9851 28.3114 21.0333 28.3045 21.2171 28.2631L21.224 28.293L20.8748 28.3734C20.8794 28.3573 20.8839 28.3413 20.8863 28.3275ZM21.2263 28.4722C21.0793 28.486 21.1114 28.4676 20.8771 28.5205L20.8702 28.4906L21.162 28.3964L21.3022 28.3642L21.3159 28.4194C21.2539 28.4331 21.2999 28.4331 21.2263 28.4722ZM21.5365 28.3987C21.502 28.4079 21.4745 28.3918 21.4584 28.3528L21.548 28.332C21.587 28.3229 21.6123 28.339 21.6216 28.378L21.5365 28.3987ZM22.3775 27.4934L22.3706 27.4635L22.5153 27.4291L22.5291 27.4842L22.3775 27.4934ZM23.2759 33.0033C23.2851 32.9619 23.2874 32.9321 23.2828 32.9114L23.315 32.9045C23.354 32.8953 23.377 32.9091 23.3862 32.9459L23.3931 32.9757L23.2759 33.0033ZM23.9055 27.73L23.8411 27.7186C23.7377 27.7599 23.6504 27.7898 23.5792 27.8059L23.5195 27.8197C23.485 27.8288 23.4574 27.8151 23.4436 27.7783L23.8641 27.6818L24.002 27.6175L24.0479 27.6703C23.9813 27.6841 23.933 27.7048 23.9055 27.73ZM24.2294 27.6266L24.2226 27.5968C24.2432 27.5922 24.2708 27.5761 24.3007 27.5462L24.5994 27.4773L24.6063 27.5072C24.4477 27.5462 24.3214 27.5853 24.2294 27.6266ZM24.2754 27.0223C24.2547 27.0269 24.2272 27.0454 24.1927 27.0729C24.1881 27.0522 24.1467 27.0522 24.0686 27.0706C24.0548 27.0132 24.2754 26.9328 24.7327 26.827L24.797 26.8132L24.8108 26.8684C24.4891 26.9626 24.3099 27.0155 24.2754 27.0223ZM25.0796 26.1538C25.0474 26.5191 24.9188 26.726 24.6913 26.7788L24.6844 26.749L24.4822 26.827L24.3926 26.8478C24.3466 26.8592 24.3053 26.8569 24.2685 26.8454L24.2501 26.765C24.2432 26.7352 24.5351 26.3307 25.1279 25.5541L25.1968 25.5656C25.2221 25.6713 25.183 25.8666 25.0796 26.1538ZM26.5019 24.936L26.4743 24.9383L26.4697 24.8809L26.5892 24.8694L26.5915 24.8992C26.5708 24.9039 26.5409 24.9153 26.5019 24.936ZM25.916 30.8205C25.847 30.7883 25.785 30.7746 25.7322 30.7791L25.7252 30.6918C25.7229 30.662 25.7413 30.6412 25.7804 30.6298C25.8195 30.6252 25.8425 30.6527 25.847 30.7125C25.9458 30.5861 26.001 30.5218 26.0125 30.5218L26.0745 30.5471C26.0515 30.7217 25.9987 30.8136 25.916 30.8205ZM32.1979 24.249C32.168 24.2513 32.1106 24.1594 32.021 23.9733L32.0164 23.9158C32.0739 23.9112 32.1336 24.0008 32.1933 24.1847L32.1979 24.249ZM32.1152 23.5918L32.0877 23.6516L31.2375 23.2954C31.805 23.3138 32.0991 23.4127 32.1152 23.5918ZM28.5101 26.6869L28.3906 26.6984L28.386 26.6409L28.5055 26.6317L28.5101 26.6869ZM28.4113 24.828L28.4435 24.8257L28.4503 24.913C28.4205 24.9153 28.3837 24.9567 28.34 25.0371L28.3355 24.9797C28.3883 24.913 28.4136 24.8625 28.4113 24.828ZM28.1608 25.4255L28.17 25.5381L28.1379 25.5404L28.1286 25.4278L28.1608 25.4255ZM28.0253 25.6392L28.085 25.6345C28.0781 25.731 28.0529 25.7816 28.0092 25.7862L27.977 25.7885C28.0115 25.7242 28.0276 25.6736 28.0253 25.6392ZM27.9288 25.9333L27.9564 25.9309L27.9586 25.9608L27.9058 26.0527L27.846 26.0573L27.8438 26.0274C27.9058 26.0228 27.9333 25.9907 27.9288 25.9333ZM27.8323 26.1998L27.8116 26.3468L27.784 26.3491L27.7725 26.2044L27.8323 26.1998ZM26.8511 28.9869C26.8121 29.1799 26.7707 29.2787 26.7271 29.2833L26.7248 29.258C26.7179 29.1615 26.7592 29.0696 26.8511 28.9869ZM26.6696 29.3752L26.6719 29.4005C26.6765 29.4418 26.6582 29.4649 26.6168 29.4671L26.6145 29.4373C26.6122 29.4074 26.6306 29.3867 26.6696 29.3752ZM26.6191 30.184L26.711 30.1771L26.7133 30.207C26.6926 30.2093 26.6604 30.2208 26.6236 30.2415L26.5639 30.246C26.5616 30.2139 26.58 30.1932 26.6191 30.184ZM29.1994 29.3867C28.6939 29.6372 28.3929 29.8072 28.2987 29.8945C27.7472 30.0875 27.4738 30.207 27.4784 30.2553C26.989 30.4506 26.6673 30.5907 26.5157 30.6803C26.4789 30.6826 26.426 30.6688 26.3571 30.6367C26.348 30.5379 26.3939 30.4574 26.4904 30.3977C26.5777 30.3908 26.6604 30.4023 26.7362 30.4345C26.8282 30.3885 26.9867 30.338 27.2119 30.2806L27.2073 30.2231L27.0188 30.2369C27.0419 30.2047 27.2188 30.122 27.5474 29.9887L27.6392 29.9818L27.6416 30.0071C27.4853 30.0209 27.398 30.0668 27.3796 30.1495C27.3819 30.1863 27.4049 30.2047 27.444 30.2001C27.5589 30.1243 27.614 30.0806 27.614 30.0668C27.8345 30.0278 28.4458 29.7061 29.4499 29.1041L29.4544 29.1615C29.4568 29.1868 29.3717 29.2603 29.1994 29.3867ZM27.66 29.8922C27.8093 29.8784 27.9357 29.821 28.0414 29.7199C28.0804 29.7153 28.1034 29.7337 28.1057 29.7704C28.0368 29.7773 27.9012 29.8348 27.6967 29.9451L27.6645 29.9474L27.66 29.8922ZM30.1461 27.9828L29.3809 28.5986C28.8088 28.9731 28.4986 29.1615 28.4503 29.1661C27.5404 29.667 26.9752 29.9267 26.7523 29.9451L26.7202 29.9474C26.7477 29.844 27.1545 29.0145 27.9403 27.4566C28.2826 27.4268 28.8249 27.2636 29.5694 26.9695L29.7555 26.9534C30.13 26.9213 30.4103 26.9948 30.5941 27.1717L30.6033 27.2843C30.4631 27.6795 30.3115 27.9115 30.1461 27.9828ZM28.6434 27.1372L28.7628 27.1258L28.7651 27.1556L28.6457 27.1671L28.6434 27.1372ZM30.3827 26.8408L30.4747 26.834C30.5597 26.8753 30.6033 26.9121 30.6056 26.9419L30.6079 26.9672C30.5275 26.9741 30.4516 26.9328 30.3827 26.8408ZM30.624 25.4416C30.5436 25.5381 30.3253 25.7034 29.9692 25.9333C29.8497 25.9447 29.4085 26.1148 28.6457 26.4456C28.6089 26.4318 28.5675 26.4273 28.5238 26.4296L28.5193 26.3721C28.5101 26.2618 28.5584 26.1239 28.664 25.9562C28.7238 25.6392 28.7904 25.4622 28.8593 25.4208L29.5004 23.9871C29.4935 23.902 29.6291 23.8331 29.9048 23.7803L29.9967 23.7734L30.0036 23.8607C30.2748 23.817 30.4448 23.7918 30.5137 23.7849C31.0192 23.7412 31.2834 23.8423 31.3041 24.0905L31.3638 24.0859L31.3523 23.948L31.4121 23.9434C31.5592 24.0238 31.6373 24.1204 31.6465 24.2352C31.6534 24.318 31.612 24.419 31.5247 24.5362C31.4857 24.5408 31.4627 24.5133 31.4581 24.4535L31.3983 24.4581L31.3799 24.6304C31.1249 25.0188 30.9388 25.2187 30.8216 25.2279C30.7182 25.368 30.6539 25.4392 30.624 25.4416ZM30.8929 26.3974L30.8859 26.3101L30.9457 26.3055L31.0744 26.3836C31.0767 26.4203 31.0583 26.4411 31.0192 26.4456C30.9641 26.4112 30.9227 26.3951 30.8929 26.3974ZM20.1969 31.9785L20.1372 31.9923L20.0867 32.036C20.0958 32.0727 20.1188 32.0865 20.1579 32.0773C20.1969 32.0682 20.213 32.0452 20.2039 32.0084L20.1969 31.9785ZM19.9695 31.5259L19.9764 31.5557C20.0154 31.5466 20.0315 31.5236 20.0223 31.4868L20.0154 31.4569C19.9787 31.4662 19.9626 31.4891 19.9695 31.5259ZM21.587 27.6772L21.656 27.6611L21.6422 27.6014L21.5733 27.6175L21.587 27.6772ZM42.4366 29.4281C41.7381 29.5843 41.6507 29.5567 41.5037 29.5682L41.5083 29.6257L41.5727 29.6211L41.6071 29.6188L41.5979 29.6119L41.6737 29.582C42.3653 29.5062 42.4458 29.5338 42.4388 29.4556L42.4366 29.4281ZM38.6752 29.9267L38.6798 29.9841H38.689L38.6844 29.9267H38.6752ZM38.2432 28.4125L38.1812 28.3918C38.1306 28.5274 38.1053 28.6078 38.1077 28.6308L38.11 28.656C38.1582 28.6537 38.2019 28.571 38.2432 28.4125ZM42.579 29.4166L42.5836 29.474L42.6847 29.4924L42.6801 29.435L42.579 29.4166ZM37.825 29.9979L37.6688 29.9795L37.6412 30.0393L37.6435 30.0692L38.5741 29.991L38.5695 29.9336L37.825 29.9979ZM37.4022 27.9599L37.4 27.93L37.3678 27.9323L37.3104 27.969L37.3425 28.0241C37.3862 28.0196 37.4069 27.9989 37.4022 27.9599ZM43.0202 28.9938L43.0639 28.9892C43.0891 28.9869 43.1006 28.9662 43.0983 28.9295L43.073 28.8743C42.9145 28.8881 42.841 28.895 42.7123 28.9662L42.71 28.9364L42.5193 28.9547C42.5147 28.8973 42.4986 28.8674 42.4734 28.8697L42.3746 28.8789C42.2596 28.8881 42.2045 28.8835 42.1471 28.9272C42.1447 28.9065 42.1379 28.8973 42.1264 28.8973L42.0161 28.9065L41.9518 28.9433C41.9494 28.9226 41.9426 28.9134 41.931 28.9134L41.892 28.9479L41.8897 28.918L41.7357 28.9065L41.699 28.9088L41.7036 28.9662L41.7817 28.9869L41.8553 28.9823C41.8805 28.9984 41.9081 29.003 41.9403 29.0007L42.0046 28.9685L42.0069 28.9938C41.6462 29.0834 41.6484 29.0673 41.4003 29.1087C41.3727 29.0903 41.352 29.0811 41.3382 29.0834L41.3337 29.088C41.3061 29.0857 41.29 29.0673 41.2877 29.0374L41.4164 29.0214C41.4255 29.0214 41.4325 29.0306 41.5037 29.0444C41.6071 28.9938 41.6117 28.9731 41.6668 28.9685L41.6622 28.9111C41.3084 28.98 41.4508 28.9341 41.0074 28.9731L40.9867 28.9754L40.9821 28.918C41.5519 28.8491 41.3613 28.8881 41.5565 28.833C41.5589 28.8536 41.5657 28.8628 41.5772 28.8628C41.5981 28.8414 41.6257 28.8277 41.6554 28.8238L41.6944 28.8215C41.8943 28.8054 41.9609 28.8445 42.3561 28.7342L42.3584 28.7594L42.4228 28.7272L42.4825 28.7227C42.4779 28.6652 42.5652 28.656 42.5951 28.6537L42.5905 28.5917C41.8966 28.7319 41.7151 28.6928 41.5221 28.748L41.5198 28.7227C41.3383 28.7548 41.3314 28.741 41.2854 28.7433C41.2716 28.7457 41.251 28.7571 41.2279 28.7801C41.2257 28.7594 41.2188 28.7502 41.205 28.7502C41.1981 28.7502 41.1958 28.7525 41.1935 28.7525L40.6053 28.849C40.603 28.833 40.5961 28.8238 40.5823 28.826C40.2767 28.8904 40.3594 28.9019 39.9504 28.9386C39.932 28.9409 39.9068 28.9501 39.8746 28.9708C39.8723 28.9547 39.8631 28.9456 39.8425 28.9478L39.592 28.9685L39.4243 29.0099C39.422 28.9938 39.4128 28.9846 39.3921 28.9869C39.2979 29.0122 39.2152 29.0283 39.1485 29.0329H39.1439C39.1026 29.0374 39.1646 29.0214 39.1324 29.0076L39.0819 29.0374C39.0084 29.0444 39.0474 29.0329 38.7947 29.0351C38.3513 29.0903 38.3995 29.0972 38.3513 29.0995L38.1858 29.088C38.1881 29.1041 38.1789 29.1156 38.1605 29.1156C37.9721 29.0903 37.8756 29.0604 37.8733 29.026C37.8986 28.8468 37.9423 28.7548 38.0043 28.7502L38.0364 28.748L38.0089 28.8077L38.0411 28.8054C38.1008 28.7732 38.1284 28.7433 38.1261 28.7158L38.1214 28.6537L38.0617 28.6583L38.0571 28.6009C38.0525 28.5572 38.0594 28.5182 38.0755 28.486L38.2111 28.2677L38.2157 28.3252L38.28 28.3206L38.2754 28.2631L38.2387 28.2103C38.2869 28.1689 38.3237 28.1459 38.3535 28.1437L38.3513 28.1138L38.2639 28.1207L38.257 28.0334C38.4316 27.6703 38.5143 27.4589 38.5098 27.3992L38.5718 27.4245C38.6109 27.4222 38.6292 27.3992 38.6269 27.3578L38.5672 27.3624L38.5649 27.3371C38.5607 27.2952 38.5687 27.2529 38.5879 27.2154C38.6821 27.1166 38.7257 27.0178 38.7166 26.9144C38.735 26.912 38.7442 26.9213 38.7465 26.9419C38.8269 26.896 38.8889 26.7742 38.9348 26.572C39.0773 26.3147 39.2795 25.8 39.5437 25.0302C40.0492 23.67 40.0286 23.5252 40.0998 23.2036L40.0401 23.2081C40.0446 23.2495 40.0354 23.2886 40.0171 23.3253C39.9757 23.3092 39.9436 23.3001 39.9206 23.3024L39.9183 23.2771C39.9091 23.1599 39.9574 23.0198 40.0677 22.8543L40.0952 22.852L40.1457 23.0496L40.2055 23.045C40.2032 23.0312 40.2193 22.9531 40.2515 22.8084C40.2492 22.7785 40.2262 22.7601 40.1802 22.7578L40.1228 22.7946C40.1182 22.7532 40.1205 22.6452 40.1274 22.4729L40.0975 22.4752C40.0469 22.4246 40.0217 22.3833 40.0193 22.3488L39.6908 22.3809C39.6885 22.358 39.677 22.3235 39.654 22.2799C39.6517 22.25 39.7252 22.2201 39.8769 22.1903L39.9436 22.2155L40.0056 22.1788C40.0079 22.1994 40.0193 22.2086 40.0423 22.2064L40.1044 22.1696C40.1067 22.1903 40.1181 22.1994 40.1412 22.1971L40.171 22.1949L40.1664 22.1282C40.1205 22.1328 39.9987 22.1328 39.8057 22.1259L39.7437 22.1673L39.7414 22.1305C38.1996 22.2569 37.3242 22.3281 37.1151 22.3488C37.0875 22.3511 36.9795 22.3488 36.7888 22.3442C36.7911 22.3695 36.7681 22.3833 36.7222 22.3879L36.6555 22.358L36.4303 22.4155C36.3775 22.42 36.2879 22.4177 36.1638 22.404C36.1294 22.4315 36.088 22.4476 36.0374 22.4522C36.0098 22.4545 36.366 22.4338 36.6968 22.4108C36.6624 22.4384 36.6096 22.4545 36.5361 22.4614C36.4855 22.466 36.4418 22.4591 36.405 22.4384C36.3545 22.4614 36.1914 22.4982 35.918 22.5533L35.8513 22.5281L34.776 22.6935C34.7346 22.6728 34.6863 22.6659 34.6312 22.6705C34.5737 22.6751 34.4773 22.6958 34.344 22.7325L33.8247 22.9485L33.8638 23.0128C33.8891 23.0105 33.9258 22.9968 33.9694 22.9715L34.1533 22.9875L34.1303 23.1599C33.9603 23.2357 33.8615 23.3483 33.8339 23.4908C33.5789 23.6033 33.4525 23.6838 33.4525 23.732L33.4548 23.7619L33.4938 23.7596L33.5628 23.7229L33.6432 23.8193L33.6547 23.9526C33.6592 23.994 33.2296 24.897 32.3703 26.6616C31.6258 28.3619 31.2352 29.2925 31.1984 29.4602C30.9434 29.5315 30.7963 29.6349 30.7527 29.7727C30.7573 29.8164 30.8331 29.8463 30.9801 29.8578L30.987 29.9244L30.9204 30.0346L30.9319 30.168C30.9388 30.2369 31.1249 30.2897 31.4902 30.3265C31.4879 30.3035 31.4995 30.2897 31.5247 30.2874C31.5316 30.3701 31.5086 30.531 31.4558 30.7699L31.4948 30.7676C31.6464 30.5609 31.7177 30.4184 31.7108 30.3403L31.743 30.338C31.7798 30.3357 31.8188 30.377 31.8648 30.4666C31.8188 30.485 31.658 30.8503 31.3822 31.565L31.4213 31.6293L31.4604 31.627C31.7981 30.7723 32.0095 30.2989 32.0968 30.2093C32.5403 30.1702 33.3077 30.0921 34.3969 29.9749L34.4658 29.9336C34.4681 29.9566 34.4819 29.968 34.5071 29.9657L34.5784 29.9589L34.6473 29.9175C34.6496 29.9405 34.6634 29.9519 34.6886 29.9496L35.5135 29.8784C35.7318 29.8601 35.8352 29.7934 35.826 29.6808C35.8237 29.651 35.9524 29.6165 36.2121 29.5797C36.2373 29.5774 36.2741 29.5843 36.3247 29.6004C36.3223 29.5797 36.4533 29.559 36.7152 29.5361C36.7222 29.3982 36.7658 29.3247 36.8439 29.3178L36.837 29.2512C36.7635 29.258 36.6808 29.2764 36.5843 29.3086C36.412 29.2994 36.3017 29.2856 36.2557 29.2695C36.2098 29.2948 36.1753 29.3086 36.15 29.3109L35.5756 29.3293L35.5067 29.3661C35.5043 29.3453 35.4906 29.3362 35.4653 29.3385L35.4331 29.3408L35.3596 29.3775C35.3573 29.3568 35.2976 29.3408 35.178 29.3247L35.1046 29.3683L34.9621 29.3798L34.9598 29.343C35.6996 29.2626 36.065 29.1615 36.0558 29.0421C36.1041 29.0374 36.1294 29.0604 36.1339 29.1087L36.3499 29.0535L36.343 28.9869L34.5715 29.0351C34.5737 29.0582 34.5623 29.0719 34.537 29.0742L34.321 29.0559C34.2659 29.0604 34.2199 29.0765 34.1832 29.1041L34.1028 29.0742C33.8799 29.0926 33.7144 29.1202 33.6041 29.1547C33.4525 29.1432 33.2848 29.1454 33.0986 29.1615L32.7011 29.196L32.5173 29.1753C32.5081 29.0582 32.7356 28.4814 33.2043 27.4474C33.3399 27.0982 33.464 26.8799 33.5835 26.7972C33.6088 26.7949 33.6455 26.8041 33.6961 26.8247L33.9787 26.7282L34.1234 26.7512C34.367 26.7305 34.6496 26.6616 34.9736 26.5421C35.054 26.5352 35.1138 26.5399 35.1574 26.5582L35.3734 26.5077L36.0168 26.4525C36.2901 26.4296 36.5865 26.3698 36.9082 26.271L36.9014 26.2044C36.7819 26.2159 36.7199 26.1952 36.7152 26.1469C36.7084 26.0573 36.6211 26.0206 36.4533 26.0343L36.4464 25.9677L36.6234 25.9172L37.0875 25.8781L37.0806 25.8115C37.0622 25.8137 36.968 25.8115 36.7934 25.8046L36.7865 25.7333L36.9657 25.7172C37.014 25.7127 37.0346 25.6897 37.0301 25.6437C36.7888 25.6506 36.667 25.6392 36.6647 25.607C34.9827 25.6897 34.1395 25.7058 34.1349 25.6529C34.1096 25.6552 34.0752 25.6713 34.0292 25.6989L33.9855 25.6299C34.4313 24.6833 34.6933 24.2054 34.7691 24.1985C34.7713 24.2352 34.753 24.2949 34.7116 24.3754L34.7139 24.4052L34.7851 24.3984C34.9621 23.9756 35.1114 23.7573 35.2355 23.7481C35.764 23.7021 35.162 23.6677 36.2925 23.4908C36.3384 23.5115 36.3706 23.5206 36.3936 23.5183C36.837 23.4288 37.4551 23.3345 38.2478 23.238L38.2432 23.1714L37.8204 23.2104L37.8159 23.1438C37.8664 23.1392 37.9077 23.1231 37.9423 23.0956L37.9445 23.1323C37.9675 23.13 37.9997 23.1139 38.0411 23.0863C38.1146 23.0795 38.1697 23.0863 38.2088 23.1071C38.3558 23.068 38.4753 23.045 38.5626 23.0358L38.8269 23.0105C38.8912 22.9692 38.921 22.9324 38.9188 22.898L38.9165 22.8681C38.8498 22.875 38.774 22.8704 38.6844 22.8543C38.6821 22.8175 38.7005 22.7923 38.7442 22.7808L39.2359 22.7348L39.461 22.6773C39.4633 22.7026 39.4748 22.7119 39.4932 22.7119C39.5162 22.7096 39.5484 22.6935 39.5897 22.6659C39.6012 22.6682 39.615 22.6682 39.6264 22.6705C39.5966 22.7325 39.5621 22.8221 39.5276 22.9393L39.4633 22.9439C39.4587 22.9002 39.4473 22.8612 39.4265 22.8267L39.3944 22.829C38.797 24.4925 38.5304 25.2669 37.979 26.5444C37.8779 26.8707 37.7929 27.0522 37.7194 27.0913C37.7217 27.1281 37.7446 27.1464 37.7837 27.1419C37.7975 27.3027 37.7607 27.4612 37.6711 27.6175C37.416 28.3528 37.246 28.7548 37.1587 28.8284L37.2161 29.1753C37.2184 29.2121 37.2001 29.2327 37.161 29.2374L37.1013 29.242C37.092 29.1454 37.0576 29.0995 36.9956 29.1064L36.9634 29.1087C36.8853 29.2305 36.8255 29.3706 36.7865 29.5338L36.8462 29.5291C36.9266 29.4763 36.9634 29.4143 36.9565 29.343L37.076 29.3315L37.1449 29.3568C37.0898 29.4441 37.0645 29.5131 37.0691 29.5659L37.1013 29.6211L37.0231 29.8049L37.0254 29.8348C37.0944 29.8279 37.1702 29.8508 37.2506 29.8991C37.3058 29.8945 37.3655 29.8692 37.4321 29.8256C37.501 29.8187 37.7584 29.8164 38.2019 29.8164L38.4247 29.7405C38.6959 29.7382 38.7395 29.7452 38.9739 29.7245L39.0704 29.7153L39.121 29.6808L39.1233 29.7107C39.3691 29.69 39.3852 29.7061 39.5782 29.7291L39.5805 29.759L39.4449 29.7704L39.4495 29.8279C39.4909 29.8233 39.5276 29.8118 39.5575 29.7865C39.592 29.7842 39.6126 29.8026 39.615 29.844C39.5598 29.8486 39.4978 29.8623 39.4288 29.8853L39.3691 29.8646C39.2749 29.8899 39.2956 29.8968 39.2312 29.9014L39.1371 29.883C39.1394 29.8991 39.1301 29.9106 39.1141 29.9106C39.1163 29.9474 39.1371 29.9657 39.1715 29.9634L39.268 29.9542L39.7712 29.9106L39.9619 29.8692C39.9642 29.8853 39.9711 29.8945 39.9872 29.8922L40.0791 29.8578L40.2515 29.844C40.3847 29.8325 40.3824 29.8233 40.6719 29.7773C40.6696 29.759 40.6765 29.752 40.6903 29.7498L40.6926 29.775C41.1637 29.6946 41.1935 29.69 41.2693 29.6647L41.2762 29.6785C41.3934 29.651 41.3267 29.6578 41.3589 29.6349C41.3613 29.6555 41.3681 29.6647 41.3796 29.6647L41.4623 29.6578L41.4577 29.5958L41.29 29.5935L41.2877 29.5889C41.2808 29.5912 41.2762 29.5912 41.2693 29.5935H41.2463V29.5981C41.1338 29.6211 41.1314 29.605 41.0579 29.6119L40.6374 29.6349L40.6351 29.605L40.8695 29.5728L40.9545 29.5659L41.0028 29.5315L41.0051 29.5613C41.336 29.5338 41.4531 29.6165 42.9834 29.2902C43.0661 29.2833 43.0592 29.2144 43.1121 29.0719C43.0841 29.0738 43.0561 29.0674 43.0317 29.0535C42.9053 29.1018 42.8387 29.0788 42.5951 29.1179C42.5744 29.1202 42.5584 29.1018 42.5514 29.065L42.5491 29.0398L42.7835 29.0466C42.8272 29.0421 42.9122 29.0351 43.0386 28.9639C43.0386 28.9846 42.9926 28.9961 43.0202 28.9938ZM31.7062 29.1753L31.5982 29.1845C31.5936 29.1409 31.6511 28.9754 31.7705 28.6928L31.8418 28.6859C31.8441 28.7525 31.8004 28.9157 31.7062 29.1753ZM31.8372 28.6515L31.8349 28.6216C31.8326 28.5848 31.8556 28.5595 31.9061 28.5481L31.9084 28.5779C31.9107 28.6216 31.8877 28.6469 31.8372 28.6515ZM33.2733 29.7613L33.2756 29.7911L33.0963 29.8072L33.094 29.7773L33.2733 29.7613ZM33.0573 29.7429C33.0596 29.7796 33.0045 29.821 32.8849 29.8623L32.6644 29.8463L32.5931 29.8531L32.5863 29.7865L33.0573 29.7429ZM34.5095 23.0588L34.4014 23.068L34.3992 23.0312C34.3969 22.9945 34.4175 22.9692 34.4635 22.9577L34.5025 22.9554L34.5761 22.9852C34.5784 23.0289 34.5577 23.0542 34.5095 23.0588ZM36.1523 22.7371L36.1868 22.7348L36.1913 22.8014L36.0925 22.8107C36.0903 22.7739 36.1086 22.7486 36.1523 22.7371ZM35.7387 22.8819L35.5756 22.8635L35.5732 22.8336C35.787 22.8152 35.8582 22.7923 35.9892 22.7555C35.9915 22.7808 36.0145 22.7899 36.0558 22.7854L36.0604 22.852L35.996 22.8589C35.9455 22.8635 35.9019 22.8566 35.8651 22.8359C35.826 22.8612 35.7846 22.8773 35.7387 22.8819ZM35.9432 23.477L35.9409 23.4471L36.2051 23.4218L36.2074 23.4517L35.9432 23.477ZM36.2259 23.2472L36.2235 23.2104L36.3522 23.1989L36.3545 23.2357L36.2259 23.2472ZM36.2557 22.7969L36.2212 22.7992L36.2511 22.7279L36.5452 22.7004L36.5475 22.7371C36.4717 22.744 36.3729 22.7647 36.2557 22.7969ZM36.405 23.431L36.4004 23.3644L36.5291 23.3529C36.5728 23.3483 36.5958 23.369 36.5981 23.415L36.405 23.431ZM37.184 22.3695L37.0185 22.4155L36.9887 22.4177C36.9105 22.4246 36.8094 22.4223 36.69 22.4108C36.9037 22.397 37.1081 22.3809 37.184 22.3695ZM37.007 23.1048L37.0093 23.1346L36.7819 23.1553L36.7796 23.1254L37.007 23.1048ZM37.3793 23.2816C37.377 23.2541 37.3333 23.2357 37.2437 23.2265L37.0163 23.2909L36.8416 23.2977C36.8026 23.2702 36.7819 23.2518 36.7796 23.238L36.9818 23.2495L37.4368 23.176L37.6688 23.1852L37.6711 23.2219C37.5562 23.2334 37.4597 23.2541 37.3793 23.2816ZM39.7207 22.6773C39.7482 22.6797 39.7666 22.6797 39.7735 22.6797C39.8539 22.6016 39.9436 22.5395 40.0469 22.4958C39.9642 22.8589 39.8355 23.1277 39.6586 23.3024L39.53 23.2242C39.6379 22.9508 39.7023 22.7693 39.7207 22.6773ZM39.3255 23.3552L39.3576 23.3529C39.3139 23.4356 39.2749 23.4792 39.2427 23.4816L39.2359 23.3942C39.2565 23.3942 39.2864 23.3804 39.3255 23.3552ZM39.0704 23.9641C39.1324 23.7159 39.1922 23.5758 39.2473 23.539L39.2496 23.5689C39.2174 23.7987 39.1669 23.9205 39.1003 23.9296L39.1118 24.0744C39.0566 24.1525 39.0313 24.2122 39.0336 24.2582L39.0015 24.2605L38.9831 24.0606C39.0198 24.056 39.0497 24.0238 39.0704 23.9641ZM38.9716 24.2949C38.9739 24.3295 38.9509 24.4098 38.905 24.5339L38.8728 24.5362L38.8659 24.4489C38.9096 24.3478 38.9463 24.2973 38.9716 24.2949ZM37.1174 29.6762L37.1151 29.651L37.1748 29.6464L37.1817 29.7337C37.1495 29.736 37.1266 29.7176 37.1174 29.6762ZM39.7666 29.7452C39.7643 29.7245 39.7551 29.7153 39.7345 29.7176L39.5851 29.7314L39.5828 29.7015H39.5966L39.9504 29.6716L39.9527 29.7015C39.8493 29.7061 39.7873 29.7222 39.7666 29.7452ZM39.5897 29.6716C39.6035 29.6785 39.5966 29.6854 39.5897 29.69C39.5828 29.6877 39.5736 29.6808 39.5897 29.6716ZM39.6081 29.258L39.4105 29.2741L39.4082 29.2442L39.5874 29.2282L39.7437 29.1891C39.746 29.2075 39.7551 29.2144 39.7758 29.2121C39.9619 29.1799 39.9436 29.1708 40.0331 29.1638C40.063 29.1615 40.0814 29.1799 40.0837 29.2167L39.6081 29.258ZM40.2997 29.1983C40.1894 29.1868 40.1825 29.1776 40.1044 29.1845L40.1021 29.1592L40.279 29.1432L40.2813 29.1685C40.2629 29.1708 40.3295 29.1753 40.2997 29.1983ZM40.3135 29.1661L40.3112 29.1409L40.4077 29.1317L40.41 29.157L40.3135 29.1661ZM40.5271 29.1477L40.5249 29.1225C40.5409 29.1202 40.5639 29.1087 40.5938 29.0857C40.6421 29.0811 40.6673 29.1133 40.6719 29.15L40.5271 29.1477ZM40.8006 29.1133L40.7983 29.0834L40.9155 29.0742L40.9178 29.1041L40.8006 29.1133ZM40.9637 29.0995C40.9614 29.065 40.9752 29.0444 41.0051 29.0398L41.0441 29.0903C41.0419 29.0742 41.0487 29.065 41.0625 29.0627L41.0924 29.1179L40.9637 29.0995ZM39.229 29.8486L39.2244 29.7911L39.206 29.7934L39.2106 29.8508L39.229 29.8486ZM43.2661 28.8031C43.2844 28.7916 43.2936 28.7801 43.25 28.7732C43.2293 28.7962 43.2729 28.8031 43.227 28.8054L43.2293 28.826C43.2339 28.8215 43.2454 28.8146 43.2545 28.8077L43.2293 28.8284V28.8307L43.181 28.8927L43.2775 28.8583H43.289L43.2844 28.8008L43.2661 28.8031ZM43.4338 28.9341L43.4154 28.9364L43.42 28.9938L43.5556 28.9823C43.5533 28.9456 43.4636 28.9341 43.4338 28.9341ZM43.2247 28.833L43.227 28.8307V28.8284C43.227 28.8284 43.2247 28.8307 43.2247 28.833Z" fill="black"/>
<path d="M34.4037 24.5798L34.406 24.6166L34.4819 24.6097C34.4796 24.5868 34.4887 24.55 34.5048 24.504L34.498 24.4374C34.4658 24.4397 34.4336 24.488 34.4037 24.5798ZM33.6777 22.8336L33.6708 22.7669L33.5628 22.7761L33.5697 22.8428L33.6777 22.8336ZM31.5707 26.7788C31.566 26.7167 31.3731 26.4755 30.9916 26.0504C30.9847 25.9723 31.1157 25.8551 31.3845 25.7012L32.152 25.0325C32.3243 24.8142 32.4254 24.4604 32.4553 23.9687L32.4461 23.8561C32.4162 23.516 32.1703 23.2426 31.7039 23.0335C31.4282 22.8474 30.9319 22.744 30.215 22.7256C29.6222 22.7761 28.8478 22.9875 27.8943 23.3621C27.6324 23.5505 27.3337 23.7389 26.9982 23.9273L27.0028 23.9848C27.0235 23.9825 27.0556 23.971 27.0924 23.9457C27.1314 23.9411 27.1545 23.9595 27.1567 23.9963L27.2142 23.9664L27.2417 23.9641L27.244 23.9893C27.2463 24.0192 27.0396 24.1823 26.6214 24.4742L26.6535 24.5339L26.6259 24.5362L26.557 24.5109C26.5593 24.5316 26.5295 24.5454 26.472 24.55L26.4743 24.5753L26.5409 24.658C26.5203 24.6603 26.4881 24.6511 26.4444 24.635C26.3479 24.6442 26.2537 24.6947 26.1595 24.7912L26.1986 24.6212C26.3388 24.0169 26.4353 23.4815 26.4858 23.0174L26.4789 22.9875C26.3824 22.9255 26.2882 22.8382 26.2009 22.7279C26.2032 22.6567 26.2032 22.6153 26.2009 22.6061L26.194 22.5808L26.1664 22.5878C25.8631 23.0427 25.2795 23.8193 24.4133 24.9176C23.7538 25.6989 23.4137 26.1331 23.3931 26.2204C23.1242 26.4985 22.9955 26.6662 23.0093 26.7236C22.9381 26.7696 22.9082 26.8155 22.9198 26.8661C22.8991 26.8707 22.8853 26.8638 22.8807 26.8431C22.7658 27.0292 22.5958 27.1487 22.3683 27.2016L22.1293 27.2567C22.0972 27.2636 22.081 27.2866 22.0834 27.3256L22.0903 27.3555L22.1799 27.3348L22.1868 27.3601L21.9846 27.4382L21.6261 27.5209L21.4377 27.5324C21.4102 27.56 21.587 27.5301 21.5181 27.5462L21.2838 27.6014C21.1413 27.6335 21.0632 27.622 21.0494 27.5646L21.0218 27.5715C21.0264 27.5968 21.0287 27.6151 21.0241 27.6312L21.0103 27.5738L20.8219 27.6174C20.8082 27.5301 20.5531 27.213 20.0591 26.6662C20.0499 26.5605 20.2245 26.4065 20.5807 26.2067L21.587 25.322C21.8122 25.0325 21.9455 24.5684 21.9892 23.9296L21.9754 23.7802C21.9363 23.3299 21.6101 22.9669 20.9965 22.6866C20.6335 22.4407 19.981 22.3097 19.0389 22.289C18.2577 22.3556 17.2375 22.6337 15.9829 23.1185C15.6383 23.3689 15.2454 23.6171 14.8042 23.8629L14.8111 23.9411C14.841 23.9388 14.88 23.9227 14.9283 23.8952C14.9788 23.8905 15.0064 23.9135 15.011 23.9595L15.0891 23.9158L15.1282 23.9135L15.1304 23.9503C15.1328 23.987 14.8593 24.2007 14.3056 24.5913L14.3493 24.6603L14.3102 24.6626L14.2252 24.6327C14.2275 24.6557 14.1884 24.6718 14.108 24.6786L14.1126 24.72L14.2045 24.8211C14.1746 24.8234 14.1333 24.8142 14.0804 24.7959C13.9012 24.8119 13.7266 24.9406 13.5542 25.1841L13.5979 25.2531C13.7473 25.1152 13.8345 25.0463 13.8598 25.044L13.8691 25.1566C13.8438 25.1589 13.8047 25.175 13.7518 25.2025L13.8461 25.345C14.024 25.1527 14.2255 24.9836 14.4458 24.8418C14.5537 24.8694 14.6112 24.9038 14.6135 24.9406L14.6962 24.9337C15.289 24.4948 15.8749 24.1778 16.4563 23.9825L16.4632 24.0605C16.3551 24.2214 16.2816 24.3042 16.2426 24.3087C16.2472 24.3639 16.2656 24.4121 16.3 24.4535C16.3092 24.5523 16.0449 25.2186 15.5096 26.4502C14.2941 29.3132 13.2739 31.4316 12.4444 32.8011C12.4468 32.8287 12.4629 32.8654 12.4927 32.9114C12.6972 32.8631 12.8259 32.8126 12.881 32.7643L12.9247 32.7598L12.9316 32.8378L13.0074 32.831L13.0855 32.7873C13.0878 32.8103 13.1131 32.8218 13.166 32.8172L13.1728 32.8953C13.1797 32.9711 13.1361 33.086 13.0441 33.2445C12.9614 33.3388 12.8718 33.5364 12.7776 33.8374L12.7799 33.8741L12.8558 33.8672C13.1866 33.4973 13.4371 33.1342 13.6094 32.7804C14.5745 32.4978 15.3097 32.2197 15.8198 31.9464C16.3322 31.9027 16.7228 31.7671 16.9893 31.5442L16.9847 31.5029L16.7917 31.5603L16.748 31.565L16.7435 31.5236C17.1203 31.4661 17.3799 31.3834 17.5247 31.2685C18.2577 30.7033 18.8114 30.3035 19.186 30.0668C19.9557 29.5016 20.4566 28.9501 20.6841 28.4148C20.7254 28.4055 20.7668 28.3964 20.8127 28.3849C20.9207 28.3803 20.9805 28.378 20.9965 28.3734C20.992 28.3527 21.0012 28.3412 21.0218 28.3366C21.1941 28.3183 21.1114 28.3481 21.2217 28.3228L21.5113 28.2562L21.5595 28.2447L21.5365 28.2585C21.5687 28.2631 21.6031 28.2608 21.6422 28.2516L21.6629 28.3366L20.3463 30.4298L20.0545 30.7952L19.912 31.2731L19.9396 31.2662L20.082 31.2065L20.0361 31.3926L20.0499 31.4477L20.089 31.496C20.0706 31.5006 20.0637 31.5121 20.0682 31.5327L20.0752 31.5626L20.1349 31.5488C20.2222 31.473 20.259 31.4041 20.2452 31.3421C20.3394 31.3581 20.4014 31.365 20.4336 31.3559L20.4405 31.3857C20.3831 31.3995 20.3532 31.4454 20.3486 31.5236L20.3555 31.5534L20.3877 31.5465C20.8656 31.0249 22.0374 29.2396 22.9772 28.0287C22.9473 27.8978 23.4368 27.7162 24.4477 27.4819L24.4799 27.475C24.5166 27.6335 24.4386 28.0173 24.2455 28.6262C24.1214 28.9938 24.0617 29.1959 24.0709 29.2282C23.91 29.7175 23.8342 29.9818 23.8434 30.0231L23.485 31.1973C23.2529 31.7993 23.076 32.4311 22.9519 33.0975C22.9726 33.0929 23.0048 33.0952 23.0507 33.1067L23.1013 33.063C23.1058 33.0837 23.1196 33.0906 23.1403 33.086L23.1196 33.001L23.2759 32.9964C23.3218 32.9849 23.3609 32.9275 23.3931 32.8218C23.3862 32.6633 23.4183 32.5782 23.4896 32.5598C23.586 32.183 23.6458 31.9946 23.6665 31.9877C23.7561 31.6132 23.8227 31.3995 23.8664 31.3466C24.002 30.8595 24.1008 30.6091 24.1651 30.593L24.1789 30.6527L24.0801 30.9078C23.9077 31.6729 23.7332 32.2772 23.5562 32.7207L23.6068 32.9413L23.6389 32.9344C24.0663 32.0153 24.6821 30.1955 25.484 27.475C25.507 27.236 25.6219 27.0499 25.8264 26.9189L25.7804 26.8707L25.7735 26.8454C25.8654 26.8247 25.9298 26.788 25.9665 26.7374C25.9619 26.7167 25.8815 26.6869 25.7252 26.6455L26.1251 24.9314C26.2124 24.8533 26.2629 24.812 26.279 24.812L26.2859 24.8992C26.2653 24.9015 26.233 24.913 26.1963 24.9383L26.2721 25.0463C26.41 24.897 26.5593 24.7683 26.7224 24.6603C26.8052 24.6833 26.8465 24.7108 26.8511 24.7384L26.9109 24.7338C27.3658 24.4006 27.8116 24.1617 28.2505 24.0169L28.255 24.0743C28.1746 24.1961 28.1195 24.2582 28.0896 24.2605C28.0942 24.3018 28.1057 24.3386 28.1264 24.3707C28.1333 24.4466 27.9356 24.9521 27.5313 25.8895C26.6076 28.0609 25.8332 29.667 25.2036 30.7102C25.206 30.7308 25.2197 30.7584 25.245 30.7952C25.399 30.7584 25.4978 30.7194 25.5369 30.6826L25.5644 30.6803L25.569 30.7377L25.6334 30.7332L25.6908 30.7033C25.6931 30.7194 25.7138 30.7262 25.7528 30.724L25.7574 30.786C25.762 30.8411 25.7299 30.9284 25.6586 31.0479C25.592 31.1192 25.5231 31.2685 25.4496 31.496L25.4518 31.5259L25.5116 31.5213C25.762 31.241 25.9527 30.9652 26.0837 30.6941C26.8167 30.4781 27.375 30.269 27.761 30.0622C28.154 30.0277 28.4503 29.9266 28.6525 29.7566L28.6502 29.7267L28.5009 29.7704L28.4687 29.7727L28.4664 29.7428C28.7513 29.7014 28.9513 29.6372 29.0592 29.5521C29.6153 29.1247 30.0358 28.8192 30.3207 28.6399C31.2076 27.9943 31.6212 27.3739 31.5707 26.7788ZM31.419 26.8178L31.4397 27.0499C31.4121 27.1074 31.3822 27.1372 31.3547 27.1395L31.3202 26.7443C31.3845 26.7673 31.4167 26.7902 31.419 26.8178ZM14.0207 24.9475L13.9816 24.9498L13.9747 24.8786L14.1333 24.8648L14.1356 24.9015C14.1103 24.9038 14.0712 24.9176 14.0207 24.9475ZM13.2463 32.6931C13.1545 32.6517 13.0717 32.6357 13.0005 32.6425L12.9913 32.5299C12.9867 32.4863 13.012 32.4564 13.0672 32.4449C13.1176 32.4404 13.1475 32.4771 13.1522 32.5507C13.2854 32.3875 13.3589 32.3048 13.3727 32.3025L13.4577 32.337C13.4302 32.5667 13.3589 32.6839 13.2463 32.6931ZM21.5204 24.0376C21.4814 24.0422 21.4032 23.9204 21.2907 23.6791L21.2838 23.6079C21.3573 23.6011 21.4331 23.7205 21.5135 23.9664L21.5204 24.0376ZM21.4102 23.1806L21.378 23.2564L20.2544 22.7876C21.0035 22.8129 21.3895 22.9439 21.4102 23.1806ZM16.6653 27.2544L16.5068 27.2682L16.4999 27.1969L16.6585 27.1831L16.6653 27.2544ZM16.5366 24.8073L16.5757 24.805L16.585 24.9176C16.5482 24.9199 16.4999 24.975 16.4402 25.0808L16.4333 25.0026C16.5045 24.9176 16.5413 24.8533 16.5366 24.8073ZM16.2035 25.5931L16.2173 25.7425L16.1783 25.7448L16.1645 25.5954L16.2035 25.5931ZM16.0289 25.8735L16.1047 25.8666C16.0978 25.9907 16.0634 26.0573 16.0013 26.0619L15.9622 26.0642C16.0105 25.9815 16.0335 25.9171 16.0289 25.8735ZM15.8979 26.2641L15.9416 26.2595L15.9438 26.2962L15.8726 26.4158L15.7968 26.4226L15.7945 26.3859C15.8704 26.379 15.9048 26.3399 15.8979 26.2641ZM15.7693 26.6157L15.7463 26.804L15.7072 26.8063L15.6911 26.6202L15.7693 26.6157ZM14.4802 30.2805C14.4297 30.5379 14.3745 30.6688 14.3171 30.6734L14.3148 30.6367C14.301 30.5103 14.3561 30.3908 14.4802 30.2805ZM14.2435 30.7929L14.2458 30.8296C14.2505 30.8802 14.2275 30.9101 14.1769 30.9123L14.1746 30.8756C14.17 30.832 14.193 30.8044 14.2435 30.7929ZM14.1746 31.8567L14.2941 31.8453L14.2987 31.8866C14.2688 31.8889 14.2297 31.905 14.1815 31.9326L14.1057 31.9394C14.1011 31.9004 14.1264 31.8705 14.1746 31.8567ZM17.5752 30.8067C16.9043 31.1375 16.5091 31.3627 16.3919 31.4799C15.6658 31.7327 15.3051 31.8889 15.312 31.9509C14.6663 32.206 14.2412 32.3944 14.0368 32.5116C13.9885 32.5161 13.9196 32.4978 13.8277 32.4564C13.8162 32.3255 13.8759 32.2197 14.0023 32.1347C14.1149 32.1256 14.2229 32.1417 14.3263 32.1853C14.4458 32.1232 14.6549 32.0543 14.9513 31.9808L14.9444 31.9027L14.7054 31.9233C14.7352 31.882 14.9651 31.774 15.397 31.5994L15.5165 31.5879L15.5188 31.6247C15.3143 31.643 15.2017 31.7028 15.1764 31.8108C15.181 31.859 15.2086 31.8797 15.2591 31.8751C15.4131 31.7786 15.4889 31.7212 15.4866 31.7051C15.7784 31.65 16.585 31.2272 17.9061 30.4391L17.913 30.5103C17.9153 30.5447 17.8027 30.6412 17.5752 30.8067ZM15.5487 31.473C15.7417 31.4569 15.9071 31.3788 16.0449 31.2433C16.1001 31.2386 16.13 31.2593 16.1323 31.3076C16.0381 31.3168 15.8566 31.3949 15.5923 31.5465L15.5532 31.5488L15.5487 31.473ZM18.8183 28.9616L17.805 29.7658C17.0514 30.2598 16.647 30.508 16.5872 30.5126C15.3878 31.172 14.6411 31.5144 14.3516 31.5397L14.3079 31.5442C14.3447 31.4087 14.8777 30.3173 15.9117 28.2631C16.3666 28.224 17.0835 28.0126 18.0601 27.6267L18.299 27.6059C18.7931 27.5623 19.163 27.6588 19.4065 27.8886L19.4203 28.0379C19.2388 28.5641 19.0366 28.872 18.8183 28.9616ZM16.8377 27.8472L17.0008 27.8334L17.0031 27.8702L16.84 27.884L16.8377 27.8472ZM19.1285 27.4589L19.248 27.4474C19.3583 27.5003 19.4157 27.5462 19.4203 27.5876L19.4226 27.6244C19.3169 27.6335 19.2181 27.5784 19.1285 27.4589ZM19.4525 25.6139C19.3468 25.7402 19.0573 25.9562 18.584 26.2595C18.4277 26.2733 17.8464 26.4985 16.84 26.9396C16.7897 26.9166 16.7342 26.9071 16.6791 26.912L16.6723 26.8408C16.6608 26.6961 16.7251 26.5146 16.8676 26.294C16.9456 25.8804 17.0307 25.6437 17.1249 25.5863L17.9636 23.6999C17.9544 23.5826 18.1336 23.493 18.5012 23.431L18.6207 23.4195L18.6299 23.5275C18.9907 23.4724 19.2158 23.4402 19.3031 23.4333C19.9695 23.3759 20.3164 23.5114 20.344 23.8354L20.4198 23.8285L20.4037 23.6378L20.4865 23.6309C20.6818 23.7389 20.7874 23.8699 20.8012 24.0238C20.8104 24.1295 20.753 24.2605 20.6312 24.4167C20.5807 24.4213 20.5508 24.3845 20.5462 24.311L20.4635 24.3179L20.4451 24.5477C20.1073 25.0532 19.8615 25.3128 19.7099 25.3266C19.572 25.5173 19.487 25.6115 19.4525 25.6139ZM19.9672 26.935C19.8982 26.889 19.8431 26.8684 19.8017 26.8707L19.7926 26.7581L19.8684 26.7512L20.0361 26.85C20.043 26.9028 20.02 26.9304 19.9672 26.935ZM20.5003 27.5669C20.5738 27.5968 20.6174 27.6289 20.6266 27.6588L20.5898 27.668L20.5922 27.6703C20.5853 27.6703 20.576 27.6726 20.5692 27.6749L20.514 27.7185L20.5003 27.5669ZM20.5508 27.884L20.5439 27.8541L20.6404 27.8311L20.6473 27.861L20.5508 27.884ZM20.7829 28.1436C20.8817 28.1275 20.9299 28.1207 21.1137 28.0793L21.1206 28.1091L20.7714 28.1896C20.776 28.1735 20.7806 28.1574 20.7829 28.1436ZM21.1229 28.2884C20.9759 28.3022 21.008 28.2838 20.7737 28.3366L20.7668 28.3067L21.0609 28.2125L21.2011 28.1804L21.2149 28.2355C21.1505 28.2493 21.1964 28.2493 21.1229 28.2884ZM21.4331 28.2149C21.3987 28.224 21.3711 28.208 21.355 28.1689L21.4446 28.1482C21.4837 28.139 21.509 28.1551 21.5181 28.1942L21.4331 28.2149ZM22.2741 27.3095L22.2672 27.2797L22.412 27.2452L22.4258 27.3004L22.2741 27.3095ZM23.1725 32.8195C23.1817 32.7781 23.184 32.7483 23.1794 32.7275L23.2116 32.7207C23.2506 32.7115 23.2736 32.7253 23.2828 32.7621L23.2897 32.7919L23.1725 32.8195ZM23.8021 27.5462L23.7377 27.5347C23.6344 27.5761 23.547 27.6059 23.4758 27.622L23.416 27.6358C23.3816 27.645 23.354 27.6312 23.3402 27.5945L23.7607 27.498L23.8986 27.4336L23.9446 27.4865C23.8779 27.5003 23.8297 27.5209 23.8021 27.5462ZM24.1261 27.4428L24.1191 27.413C24.1399 27.4083 24.1674 27.3923 24.1973 27.3624L24.496 27.2934L24.5029 27.3233C24.3443 27.3624 24.2179 27.4015 24.1261 27.4428ZM24.172 26.8385C24.1513 26.8431 24.1237 26.8615 24.0893 26.889C24.0847 26.8684 24.0434 26.8684 23.9652 26.8867C23.9514 26.8293 24.172 26.7489 24.6292 26.6432L24.6936 26.6294L24.7074 26.6846C24.3857 26.7788 24.2064 26.8316 24.172 26.8385ZM24.9762 25.97C24.9441 26.3353 24.8154 26.5421 24.5879 26.595L24.581 26.5651L24.3788 26.6432L24.2892 26.6639C24.2432 26.6754 24.2019 26.6731 24.1651 26.6616L24.1467 26.5812C24.1399 26.5513 24.4316 26.1469 25.0245 25.3703L25.0934 25.3817C25.1186 25.4875 25.0796 25.6828 24.9762 25.97ZM26.3985 24.7522L26.3709 24.7545L26.3663 24.6971L26.4858 24.6856L26.4881 24.7154C26.4674 24.72 26.4376 24.7315 26.3985 24.7522ZM25.8126 30.6367C25.7437 30.6045 25.6816 30.5907 25.6287 30.5953L25.6219 30.508C25.6196 30.4781 25.6379 30.4574 25.677 30.4459C25.7161 30.4414 25.739 30.4689 25.7437 30.5286C25.8425 30.4023 25.8976 30.3379 25.9091 30.3379L25.9711 30.3632C25.9481 30.5379 25.8953 30.6297 25.8126 30.6367ZM32.0945 24.0652C32.0647 24.0675 32.0072 23.9755 31.9176 23.7894L31.913 23.732C31.9704 23.7274 32.0302 23.817 32.09 24.0008L32.0945 24.0652ZM32.0118 23.408L31.9842 23.4677L31.1341 23.1116C31.7016 23.13 31.9957 23.2288 32.0118 23.408ZM28.4067 26.5031L28.2872 26.5146L28.2826 26.4571L28.4021 26.4456L28.4067 26.5031ZM28.3079 24.6442L28.34 24.6419L28.347 24.7292C28.3171 24.7315 28.2803 24.7729 28.2367 24.8533L28.2321 24.7959C28.2849 24.7292 28.3102 24.6786 28.3079 24.6442ZM28.0574 25.2416L28.0667 25.3542L28.0345 25.3565L28.0253 25.2439L28.0574 25.2416ZM27.9219 25.4553L27.9816 25.4507C27.9747 25.5472 27.9494 25.5978 27.9058 25.6023L27.8736 25.6046C27.9081 25.5403 27.9242 25.4898 27.9219 25.4553ZM27.8254 25.7494L27.853 25.7471L27.8553 25.7769L27.8024 25.8689L27.7427 25.8735L27.7404 25.8436C27.8024 25.839 27.83 25.8068 27.8254 25.7494ZM27.7289 26.0159L27.7082 26.163L27.6806 26.1653L27.6691 26.0205L27.7289 26.0159ZM26.7477 28.803C26.7087 28.9961 26.6673 29.0949 26.6236 29.0995L26.6214 29.0742C26.6145 28.9777 26.6558 28.8857 26.7477 28.803ZM26.5662 29.1914L26.5685 29.2167C26.5731 29.258 26.5547 29.281 26.5133 29.2833L26.5111 29.2534C26.5088 29.2235 26.5271 29.2029 26.5662 29.1914ZM26.5157 30.0002L26.6076 29.9933L26.6098 30.0231C26.5892 30.0254 26.557 30.0369 26.5203 30.0576L26.4605 30.0622C26.4582 30.0301 26.4766 30.0094 26.5157 30.0002ZM29.096 29.2029C28.5905 29.4533 28.2895 29.6234 28.1953 29.7107C27.6439 29.9037 27.3704 30.0231 27.375 30.0714C26.8856 30.2667 26.5639 30.4069 26.4123 30.4965C26.3755 30.4988 26.3227 30.485 26.2537 30.4528C26.2445 30.354 26.2905 30.2736 26.387 30.2139C26.4743 30.207 26.557 30.2185 26.6329 30.2506C26.7247 30.2047 26.8833 30.1541 27.1085 30.0967L27.1039 30.0392L26.9178 30.0553C26.9408 30.0231 27.1176 29.9404 27.4463 29.8072L27.5381 29.8002L27.5404 29.8255C27.3842 29.8393 27.2969 29.8853 27.2785 29.968C27.2808 30.0048 27.3038 30.0231 27.3428 30.0186C27.4577 29.9427 27.5129 29.899 27.5129 29.8853C27.7335 29.8462 28.3447 29.5246 29.3488 28.9226L29.3533 28.98C29.3533 29.003 29.2683 29.0765 29.096 29.2029ZM27.5565 29.7084C27.7059 29.6946 27.8323 29.6372 27.938 29.536C27.977 29.5337 28 29.5498 28.0023 29.5866C27.9333 29.5935 27.7978 29.6509 27.5933 29.7612L27.5612 29.7635L27.5565 29.7084ZM30.0427 27.799L29.2776 28.4148C28.7054 28.7893 28.3952 28.9777 28.347 28.9823C27.4371 29.4832 26.8718 29.7428 26.6489 29.7612L26.6168 29.7635C26.6444 29.6601 27.051 28.8306 27.8368 27.2728C28.1792 27.2429 28.7215 27.0798 29.4659 26.7857L29.652 26.7696C30.0266 26.7374 30.3069 26.811 30.4907 26.9878L30.4999 27.1004C30.3598 27.4957 30.2081 27.7277 30.0427 27.799ZM28.5399 26.9534L28.6595 26.9419L28.6617 26.9718L28.5423 26.9833L28.5399 26.9534ZM30.2793 26.657L30.3712 26.6501C30.4563 26.6914 30.4999 26.7282 30.5022 26.7581L30.5045 26.7834C30.4241 26.7902 30.3483 26.7489 30.2793 26.657ZM30.5206 25.2577C30.4402 25.3542 30.2219 25.5196 29.8658 25.7494C29.7463 25.7609 29.3051 25.9309 28.5423 26.2618C28.5055 26.248 28.4641 26.2434 28.4205 26.2457L28.4159 26.1883C28.4067 26.078 28.4549 25.9401 28.5607 25.7724C28.6204 25.4553 28.687 25.2784 28.756 25.237L29.397 23.8032C29.3901 23.7182 29.5257 23.6493 29.8014 23.5964L29.8933 23.5896L29.9002 23.6768C30.1713 23.6332 30.3414 23.6079 30.4103 23.6011C30.9158 23.5574 31.18 23.6585 31.2007 23.9066L31.2605 23.902L31.249 23.7641L31.3087 23.7596C31.4558 23.84 31.5339 23.9365 31.5431 24.0514C31.5499 24.1341 31.5086 24.2352 31.4213 24.3524C31.3822 24.357 31.3593 24.3294 31.3547 24.2696L31.2949 24.2743L31.2766 24.4466C31.0215 24.8349 30.8354 25.0348 30.7182 25.044C30.6148 25.1841 30.5504 25.2554 30.5206 25.2577ZM30.7894 26.2135L30.7826 26.1262L30.8423 26.1217L30.9709 26.1997C30.9732 26.2365 30.9549 26.2572 30.9158 26.2618C30.8606 26.2273 30.8193 26.2112 30.7894 26.2135ZM20.0935 31.7947L20.0338 31.8085L19.9832 31.8521C19.9925 31.8889 20.0154 31.9027 20.0545 31.8935C20.0935 31.8843 20.1096 31.8614 20.1005 31.8246L20.0935 31.7947ZM19.8661 31.3421L19.873 31.3719C19.912 31.3627 19.9281 31.3398 19.9189 31.303L19.912 31.2731C19.8753 31.2823 19.8592 31.3053 19.8661 31.3421ZM21.4929 28.2861L21.5365 28.2585C21.5273 28.2585 21.5204 28.2562 21.5135 28.2539C21.4975 28.2585 21.4905 28.27 21.4929 28.2861ZM21.4837 27.4933L21.5526 27.4773L21.5388 27.4175L21.4699 27.4336L21.4837 27.4933ZM37.7217 29.814L37.5654 29.7957L37.5378 29.8554L37.5401 29.8853L38.4707 29.8072L38.4661 29.7498L37.7217 29.814ZM38.5718 29.7428L38.5764 29.8002H38.5856L38.581 29.7428H38.5718ZM42.4756 29.2327L42.4802 29.2902L42.5813 29.3085L42.5767 29.2511L42.4756 29.2327ZM42.3332 29.2442C41.6347 29.4005 41.5474 29.3729 41.4003 29.3844L41.4049 29.4418L41.4692 29.4372L41.5037 29.4349L41.4945 29.4281L41.5703 29.3982C42.262 29.3223 42.3423 29.3499 42.3355 29.2718L42.3332 29.2442ZM38.1399 28.2286L38.0778 28.208C38.0273 28.3435 38.002 28.4239 38.0043 28.4469L38.0065 28.4722C38.0548 28.4699 38.0985 28.3872 38.1399 28.2286ZM37.2989 27.776L37.2966 27.7461L37.2644 27.7484L37.2069 27.7852L37.2391 27.8403C37.2828 27.8357 37.3034 27.815 37.2989 27.776ZM39.1256 29.6647L39.1209 29.6073L39.1026 29.6096L39.1072 29.667L39.1256 29.6647ZM42.9168 28.81L42.9604 28.8054C42.9857 28.803 42.9972 28.7824 42.9949 28.7456L42.9696 28.6905C42.8111 28.7042 42.7376 28.7112 42.6089 28.7824L42.6066 28.7525L42.4159 28.7709C42.4113 28.7134 42.3952 28.6836 42.3699 28.6859L42.2711 28.6951C42.1562 28.7042 42.1011 28.6997 42.0436 28.7433C42.0414 28.7227 42.0345 28.7134 42.023 28.7134L41.9127 28.7227L41.8483 28.7594C41.846 28.7387 41.8392 28.7295 41.8277 28.7295L41.7886 28.764L41.7863 28.7341L41.6324 28.7227L41.5956 28.725L41.6002 28.7824L41.6783 28.803L41.7518 28.7985C41.7771 28.8145 41.8047 28.8192 41.8368 28.8168L41.9012 28.7847L41.9035 28.81C41.5428 28.8995 41.5451 28.8835 41.2969 28.9248C41.2693 28.9065 41.2487 28.8973 41.2349 28.8995L41.2302 28.9042C41.2027 28.9019 41.1866 28.8835 41.1843 28.8536L41.313 28.8375C41.3222 28.8375 41.329 28.8467 41.4003 28.8605C41.5037 28.81 41.5083 28.7893 41.5634 28.7847L41.5589 28.7272C41.205 28.7962 41.3475 28.7502 40.904 28.7893L40.8833 28.7916L40.8787 28.7341C41.4486 28.6652 41.2578 28.7042 41.4531 28.6491C41.4554 28.6698 41.4624 28.679 41.4738 28.679C41.4948 28.6576 41.5223 28.6438 41.5519 28.6399L41.591 28.6377C41.7909 28.6215 41.8576 28.6606 42.2528 28.5503L42.255 28.5756L42.3194 28.5434L42.3791 28.5388C42.3745 28.4814 42.4619 28.4722 42.4917 28.4699L42.4871 28.4078C41.7932 28.548 41.6117 28.509 41.4187 28.5641L41.4164 28.5388C41.2349 28.571 41.228 28.5572 41.182 28.5595C41.1682 28.5618 41.1475 28.5733 41.1246 28.5963C41.1223 28.5756 41.1154 28.5664 41.1016 28.5664C41.0947 28.5664 41.0924 28.5687 41.0901 28.5687L40.5019 28.6652C40.4996 28.6491 40.4927 28.6399 40.4789 28.6422C40.1733 28.7066 40.256 28.718 39.847 28.7548C39.8287 28.7571 39.8034 28.7663 39.7712 28.7869C39.7689 28.7709 39.7597 28.7617 39.739 28.764L39.4886 28.7847L39.3209 28.826C39.3186 28.81 39.3094 28.8007 39.2887 28.803C39.1945 28.8283 39.1118 28.8444 39.0451 28.849H39.0406C38.9992 28.8536 39.0612 28.8375 39.0291 28.8238L38.9785 28.8536C38.905 28.8605 38.9441 28.849 38.6913 28.8513C38.2478 28.9065 38.2961 28.9133 38.2478 28.9156L38.0824 28.9042C38.0847 28.9203 38.0755 28.9317 38.0571 28.9317C37.8687 28.9065 37.7722 28.8766 37.7699 28.8421C37.7952 28.6629 37.8388 28.571 37.9009 28.5664L37.9331 28.5641L37.9055 28.6239L37.9376 28.6215C37.9974 28.5893 38.0249 28.5595 38.0226 28.5319L38.0181 28.4699L37.9583 28.4745L37.9537 28.417C37.9491 28.3734 37.956 28.3343 37.9721 28.3022L38.1076 28.0838L38.1123 28.1413L38.1766 28.1367L38.172 28.0793L38.1352 28.0264C38.1835 27.985 38.2202 27.9621 38.2501 27.9598L38.2478 27.9299L38.1605 27.9368L38.1536 27.8495C38.3283 27.4865 38.411 27.2751 38.4064 27.2153L38.4684 27.2406C38.5075 27.2383 38.5258 27.2153 38.5236 27.174L38.4638 27.1786L38.4615 27.1533C38.4573 27.1114 38.4653 27.0691 38.4845 27.0315C38.5787 26.9327 38.6224 26.8339 38.6131 26.7305C38.6316 26.7282 38.6407 26.7374 38.643 26.7581C38.7235 26.7122 38.7855 26.5903 38.8315 26.3882C38.9739 26.1308 39.1761 25.6161 39.4403 24.8464C39.9459 23.4861 39.9252 23.3414 39.9964 23.0197L39.9366 23.0243C39.9413 23.0657 39.9321 23.1047 39.9137 23.1415C39.8723 23.1254 39.8401 23.1162 39.8172 23.1185L39.8149 23.0932C39.8057 22.976 39.8539 22.8359 39.9642 22.6705L39.9918 22.6681L40.0424 22.8657L40.1021 22.8612C40.0998 22.8474 40.1159 22.7693 40.148 22.6245C40.1457 22.5946 40.1228 22.5763 40.0768 22.574L40.0194 22.6107C40.0148 22.5693 40.0171 22.4614 40.024 22.289L39.9941 22.2913C39.9436 22.2408 39.9183 22.1994 39.916 22.165L39.5874 22.1971C39.5851 22.1741 39.5736 22.1397 39.5506 22.096C39.5484 22.0662 39.6219 22.0363 39.7735 22.0064L39.8401 22.0317L39.9022 21.9949C39.9045 22.0156 39.916 22.0248 39.9389 22.0225L40.001 21.9857C40.0033 22.0064 40.0148 22.0156 40.0378 22.0133L40.0676 22.011L40.063 21.9444C40.0171 21.9489 39.8953 21.9489 39.7023 21.9421L39.6402 21.9835L39.6379 21.9467C38.0962 22.073 37.2207 22.1443 37.0116 22.165C36.9841 22.1673 36.8761 22.165 36.6854 22.1603C36.6877 22.1856 36.6647 22.1994 36.6187 22.204L36.5521 22.1741L36.327 22.2316C36.2741 22.2362 36.1845 22.2339 36.0604 22.2201C36.0259 22.2477 35.9846 22.2638 35.934 22.2684C35.9065 22.2706 36.2626 22.25 36.5935 22.227C36.559 22.2546 36.5062 22.2706 36.4326 22.2776C36.3821 22.2821 36.3384 22.2752 36.3017 22.2546C36.2511 22.2776 36.088 22.3143 35.8145 22.3694L35.7479 22.3442L34.6726 22.5096C34.6312 22.489 34.583 22.482 34.5278 22.4866C34.4704 22.4912 34.3739 22.5119 34.2406 22.5487L33.7213 22.7646L33.7604 22.829C33.7856 22.8267 33.8224 22.8129 33.8661 22.7876L34.0499 22.8037L34.0269 22.976C33.8569 23.0519 33.7581 23.1645 33.7305 23.3069C33.4755 23.4195 33.3491 23.4999 33.3491 23.5482L33.3514 23.578L33.3904 23.5758L33.4594 23.539L33.5398 23.6355L33.5513 23.7688C33.5559 23.8101 33.1262 24.7131 32.2668 26.4778C31.5224 28.1781 31.1318 29.1087 31.095 29.2764C30.84 29.3476 30.6929 29.451 30.6492 29.5889C30.6539 29.6325 30.7297 29.6624 30.8767 29.6739L30.8836 29.7405L30.817 29.8508L30.8285 29.9841C30.8354 30.053 31.0215 30.1059 31.3869 30.1426C31.3845 30.1197 31.396 30.1059 31.4213 30.1036C31.4282 30.1863 31.4052 30.3471 31.3523 30.5861L31.3914 30.5838C31.5431 30.377 31.6143 30.2345 31.6074 30.1564L31.6396 30.1541C31.6763 30.1518 31.7154 30.1932 31.7613 30.2828C31.7154 30.3012 31.5546 30.6665 31.2788 31.3811L31.3179 31.4454L31.357 31.4431C31.6947 30.5884 31.9061 30.1151 31.9934 30.0254C32.4369 29.9864 33.2043 29.9083 34.2934 29.7911L34.3624 29.7497C34.3647 29.7727 34.3784 29.7842 34.4037 29.7819L34.475 29.775L34.5439 29.7336C34.5462 29.7566 34.56 29.7681 34.5853 29.7658L35.4102 29.6946C35.6284 29.6762 35.7318 29.6096 35.7226 29.497C35.7204 29.4671 35.849 29.4326 36.1086 29.3959C36.1339 29.3936 36.1707 29.4005 36.2212 29.4165C36.2189 29.3959 36.3499 29.3752 36.6119 29.3522C36.6187 29.2144 36.6624 29.1408 36.7405 29.1339L36.7337 29.0673C36.6601 29.0742 36.5774 29.0926 36.4809 29.1247C36.3085 29.1156 36.1983 29.1018 36.1523 29.0857C36.1063 29.1109 36.0719 29.1247 36.0466 29.127L35.4722 29.1454L35.4032 29.1822C35.4009 29.1615 35.3872 29.1523 35.3619 29.1546L35.3297 29.1569L35.2562 29.1937C35.2539 29.173 35.1941 29.1569 35.0747 29.1408L35.0012 29.1845L34.8587 29.1959L34.8564 29.1592C35.5963 29.0788 35.9616 28.9777 35.9524 28.8582C36.0007 28.8536 36.0259 28.8766 36.0305 28.9248L36.2465 28.8697L36.2396 28.803L34.4681 28.8513C34.4704 28.8743 34.4589 28.8881 34.4336 28.8904L34.2176 28.872C34.1625 28.8766 34.1166 28.8927 34.0798 28.9203L33.9993 28.8904C33.7765 28.9088 33.611 28.9363 33.5007 28.9708C33.3491 28.9593 33.1813 28.9616 32.9952 28.9777L32.5978 29.0121L32.4139 28.9915C32.4047 28.8743 32.6322 28.2976 33.1009 27.2636C33.2365 26.9143 33.3606 26.6961 33.4801 26.6134C33.5053 26.6111 33.5421 26.6202 33.5926 26.6409L33.8753 26.5444L34.02 26.5674C34.2636 26.5467 34.5462 26.4778 34.8702 26.3583C34.9506 26.3514 35.0103 26.356 35.054 26.3744L35.27 26.3238L35.9133 26.2686C36.1868 26.2457 36.4832 26.1859 36.8049 26.0871L36.7979 26.0205C36.6785 26.032 36.6164 26.0113 36.6119 25.9631C36.605 25.8735 36.5176 25.8367 36.3499 25.8505L36.343 25.7839L36.5199 25.7333L36.9841 25.6942L36.9772 25.6277C36.9588 25.6299 36.8646 25.6277 36.69 25.6207L36.6831 25.5495L36.8623 25.5334C36.9105 25.5288 36.9313 25.5058 36.9266 25.4599C36.6854 25.4667 36.5636 25.4553 36.5613 25.4231C34.8794 25.5058 34.0361 25.5219 34.0315 25.4691C34.0063 25.4714 33.9718 25.4875 33.9258 25.5151L33.8822 25.4461C34.3279 24.4994 34.5898 24.0215 34.6657 24.0146C34.668 24.0514 34.6496 24.1111 34.6105 24.1916L34.6128 24.2214L34.6841 24.2145C34.861 23.7917 35.0103 23.5735 35.1344 23.5643C35.6629 23.5183 35.0609 23.4838 36.1914 23.3069C36.2373 23.3276 36.2695 23.3368 36.2924 23.3345C36.7359 23.2449 37.354 23.1507 38.1467 23.0542L38.1421 22.9875L37.7194 23.0266L37.7147 22.9599C37.7653 22.9554 37.8067 22.9393 37.8411 22.9117L37.8434 22.9484C37.8664 22.9462 37.8986 22.9301 37.9399 22.9025C38.0135 22.8956 38.0686 22.9025 38.1076 22.9232C38.2547 22.8842 38.3742 22.8611 38.4615 22.852L38.7257 22.8267C38.7901 22.7854 38.82 22.7486 38.8177 22.7141L38.8154 22.6842C38.7487 22.6911 38.6729 22.6866 38.5833 22.6705C38.581 22.6337 38.5993 22.6084 38.643 22.5969L39.1347 22.551L39.3599 22.4935C39.3622 22.5188 39.3737 22.528 39.3921 22.528C39.415 22.5257 39.4472 22.5096 39.4886 22.482C39.5001 22.4843 39.5138 22.4843 39.5253 22.4866C39.4955 22.5487 39.461 22.6383 39.4265 22.7555L39.3622 22.7601C39.3576 22.7164 39.3461 22.6773 39.3255 22.6429L39.2933 22.6452C38.6959 24.3087 38.4293 25.0831 37.8779 26.3606C37.7768 26.6869 37.6918 26.8684 37.6183 26.9075C37.6206 26.9442 37.6435 26.9626 37.6826 26.958C37.6964 27.1189 37.6596 27.2774 37.57 27.4336C37.3149 28.1689 37.1449 28.571 37.0576 28.6445L37.1151 28.9915C37.1173 29.0282 37.099 29.0489 37.0599 29.0535L37.0002 29.0581C36.991 28.9616 36.9565 28.9156 36.8945 28.9226L36.8623 28.9248C36.7841 29.0466 36.7244 29.1868 36.6854 29.3499L36.7451 29.3453C36.8255 29.2925 36.8623 29.2305 36.8554 29.1592L36.9749 29.1477L37.0438 29.173C36.9887 29.2603 36.9634 29.3293 36.968 29.3821L37.0002 29.4372L36.922 29.6211L36.9243 29.6509C36.9933 29.644 37.0691 29.667 37.1495 29.7152C37.2046 29.7107 37.2644 29.6854 37.331 29.6417C37.4 29.6348 37.6573 29.6325 38.1008 29.6325L38.3237 29.5567C38.5948 29.5544 38.6384 29.5613 38.8728 29.5406L38.9693 29.5314L39.0198 29.497L39.0221 29.5269C39.268 29.5061 39.2841 29.5223 39.4771 29.5452L39.4794 29.5751L39.3438 29.5866L39.3484 29.644C39.3898 29.6394 39.4265 29.6279 39.4564 29.6026C39.4909 29.6004 39.5115 29.6187 39.5138 29.6601C39.4587 29.6647 39.3967 29.6785 39.3277 29.7014L39.268 29.6808C39.1738 29.7061 39.1945 29.7129 39.1301 29.7175L39.0359 29.6992C39.0382 29.7152 39.0291 29.7267 39.013 29.7267C39.0153 29.7635 39.0359 29.7819 39.0704 29.7796L39.1669 29.7704L39.6701 29.7267L39.8608 29.6854C39.8631 29.7014 39.87 29.7107 39.8861 29.7084L39.978 29.6739L40.1503 29.6601C40.2836 29.6486 40.2813 29.6394 40.5708 29.5935C40.5685 29.5751 40.5754 29.5682 40.5892 29.5659L40.5915 29.5912C41.0625 29.5108 41.0924 29.5061 41.1682 29.4809L41.1751 29.4947C41.2923 29.4671 41.2257 29.474 41.2578 29.451C41.2601 29.4717 41.267 29.4809 41.2785 29.4809L41.3612 29.474L41.3566 29.412L41.1889 29.4097L41.1866 29.405C41.1797 29.4073 41.1751 29.4073 41.1682 29.4097H41.1452V29.4143C41.0326 29.4372 41.0303 29.4211 40.9568 29.4281L40.5363 29.451L40.5341 29.4211L40.7684 29.389L40.8534 29.3821L40.9017 29.3476L40.904 29.3775C41.2349 29.3499 41.352 29.4326 42.8823 29.1064C42.9651 29.0995 42.9581 29.0305 43.011 28.8881C42.983 28.89 42.955 28.8836 42.9306 28.8697C42.8042 28.918 42.7376 28.895 42.494 28.9341C42.4734 28.9364 42.4572 28.918 42.4503 28.8812L42.448 28.8559L42.6824 28.8628C42.7261 28.8582 42.8111 28.8513 42.9375 28.7801C42.9375 28.8007 42.8892 28.8122 42.9167 28.81H42.9168ZM31.6028 28.9915L31.4948 29.0007C31.4902 28.957 31.5477 28.7916 31.6672 28.509L31.7384 28.5021C31.7407 28.5687 31.697 28.7318 31.6028 28.9915ZM31.7338 28.4676L31.7315 28.4377C31.7292 28.401 31.7522 28.3757 31.8027 28.3642L31.805 28.394C31.8073 28.4377 31.7843 28.463 31.7338 28.4676ZM33.1699 29.5774L33.1722 29.6073L32.993 29.6234L32.9907 29.5935L33.1699 29.5774ZM32.9539 29.559C32.9562 29.5958 32.901 29.6372 32.7816 29.6785L32.5609 29.6624L32.4897 29.6693L32.4829 29.6026L32.9539 29.559ZM34.406 22.8749L34.2981 22.8842L34.2957 22.8474C34.2934 22.8106 34.3142 22.7854 34.3601 22.7739L34.3992 22.7716L34.4727 22.8014C34.4749 22.8451 34.4543 22.8704 34.406 22.8749ZM36.0489 22.5532L36.0834 22.551L36.088 22.6176L35.9892 22.6268C35.9869 22.59 36.0052 22.5648 36.0489 22.5532ZM35.6353 22.698L35.4722 22.6796L35.4699 22.6498C35.6836 22.6314 35.7548 22.6084 35.8858 22.5717C35.8881 22.5969 35.911 22.6061 35.9524 22.6015L35.957 22.6681L35.8927 22.6751C35.8421 22.6796 35.7984 22.6728 35.7617 22.652C35.7226 22.6773 35.6813 22.6934 35.6353 22.698ZM35.8398 23.2932L35.8375 23.2633L36.1018 23.238L36.1041 23.2679L35.8398 23.2932ZM36.1224 23.0634L36.1201 23.0266L36.2488 23.0151L36.2511 23.0519L36.1224 23.0634ZM36.1523 22.613L36.1178 22.6153L36.1477 22.5441L36.4418 22.5165L36.4441 22.5532C36.3683 22.5602 36.2695 22.5808 36.1523 22.613ZM36.3017 23.2472L36.2971 23.1806L36.4258 23.1691C36.4694 23.1645 36.4924 23.1851 36.4947 23.2311L36.3017 23.2472ZM37.0806 22.1856L36.9152 22.2316L36.8853 22.2339C36.8072 22.2408 36.7061 22.2385 36.5865 22.227C36.8003 22.2132 37.0048 22.1971 37.0806 22.1856ZM36.9037 22.9209L36.906 22.9508L36.6785 22.9715L36.6762 22.9416L36.9037 22.9209ZM37.2759 23.0978C37.2736 23.0703 37.2299 23.0519 37.1403 23.0427L36.9128 23.107L36.7382 23.1139C36.6991 23.0863 36.6785 23.068 36.6762 23.0542L36.8784 23.0657L37.3333 22.9921L37.5654 23.0013L37.5677 23.0381C37.4528 23.0496 37.3563 23.0703 37.2759 23.0978ZM39.6173 22.4935C39.6449 22.4958 39.6632 22.4958 39.6701 22.4958C39.7505 22.4177 39.8401 22.3556 39.9436 22.312C39.8608 22.6751 39.7322 22.9439 39.5552 23.1185L39.4265 23.0404C39.5346 22.7669 39.5989 22.5854 39.6173 22.4935ZM39.2221 23.1713L39.2542 23.1691C39.2106 23.2518 39.1715 23.2954 39.1394 23.2977L39.1324 23.2104C39.1532 23.2104 39.183 23.1966 39.2221 23.1713ZM38.967 23.7802C39.0291 23.5321 39.0888 23.392 39.1439 23.3552L39.1462 23.385C39.1141 23.6148 39.0635 23.7366 38.9969 23.7458L39.0083 23.8905C38.9532 23.9687 38.928 24.0284 38.9302 24.0743L38.8981 24.0767L38.8797 23.8767C38.9165 23.8722 38.9463 23.84 38.967 23.7802ZM38.8682 24.1111C38.8705 24.1456 38.8475 24.226 38.8016 24.3501L38.7694 24.3524L38.7625 24.2651C38.8062 24.164 38.843 24.1134 38.8682 24.1111H38.8682ZM37.014 29.4924L37.0116 29.4671L37.0714 29.4625L37.0783 29.5498C37.0461 29.5521 37.0231 29.5337 37.014 29.4924ZM39.6632 29.5613C39.6609 29.5406 39.6517 29.5314 39.6311 29.5337L39.4817 29.5475L39.4794 29.5176H39.4932L39.847 29.4878L39.8493 29.5176C39.746 29.5223 39.6839 29.5384 39.6632 29.5613ZM39.4863 29.4878C39.5001 29.4947 39.4932 29.5016 39.4863 29.5061C39.4794 29.5038 39.4702 29.497 39.4863 29.4878ZM39.5047 29.0742L39.3071 29.0903L39.3048 29.0604L39.484 29.0443L39.6402 29.0053C39.6425 29.0236 39.6517 29.0305 39.6724 29.0282C39.8586 28.9961 39.8401 28.9869 39.9298 28.98C39.9596 28.9777 39.978 28.9961 39.9803 29.0329L39.5047 29.0742ZM40.1963 29.0144C40.086 29.003 40.0791 28.9938 40.001 29.0007L39.9987 28.9754L40.1756 28.9593L40.1779 28.9846C40.1595 28.9869 40.2262 28.9915 40.1963 29.0144ZM40.2101 28.9823L40.2078 28.957L40.3043 28.9478L40.3066 28.9731L40.2101 28.9823ZM40.4238 28.9639L40.4215 28.9386C40.4376 28.9364 40.4605 28.9248 40.4904 28.9019C40.5386 28.8973 40.5639 28.9294 40.5685 28.9662L40.4238 28.9639ZM40.6972 28.9294L40.6949 28.8995L40.8121 28.8904L40.8144 28.9203L40.6972 28.9294ZM40.8603 28.9156C40.8581 28.8812 40.8718 28.8605 40.9017 28.8559L40.9408 28.9065C40.9385 28.8904 40.9453 28.8812 40.9591 28.8789L40.989 28.9341L40.8603 28.9156ZM43.1213 28.6491L43.1236 28.6468V28.6445C43.1236 28.6445 43.1213 28.6468 43.1213 28.6491ZM43.1627 28.6192C43.181 28.6078 43.1902 28.5963 43.1466 28.5894C43.1259 28.6124 43.1695 28.6192 43.1236 28.6215L43.1259 28.6422C43.1305 28.6377 43.142 28.6307 43.1512 28.6239L43.1259 28.6445V28.6468L43.0776 28.7089L43.1741 28.6744H43.1856L43.181 28.6169L43.1627 28.6192ZM43.3304 28.7502L43.312 28.7525L43.3166 28.81L43.4521 28.7985C43.4499 28.7617 43.3603 28.7502 43.3304 28.7502Z" fill="#F9DC3E"/>
</svg>
