<?xml version="1.0" encoding="UTF-8"?>
<svg id="Layer_1" xmlns="http://www.w3.org/2000/svg" xmlns:xlink="http://www.w3.org/1999/xlink" version="1.1" viewBox="0 0 56 56">
  <!-- Generator: Adobe Illustrator 30.0.0, SVG Export Plug-In . SVG Version: 2.1.1 Build 123)  -->
  <defs>
    <style>
      .st0 {
        fill: url(#radial-gradient);
        fill-rule: evenodd;
      }

      .st1 {
        fill: url(#linear-gradient);
      }

      .st2 {
        fill: url(#radial-gradient1);
      }
    </style>
    <radialGradient id="radial-gradient" cx="-471.01" cy="527.92" fx="-471.01" fy="527.92" r=".03" gradientTransform="translate(-11267.33 -319902.39) rotate(-130.91) scale(529.06 -380.69)" gradientUnits="userSpaceOnUse">
      <stop offset="0" stop-color="#00cacc"/>
      <stop offset="1" stop-color="#048fce"/>
    </radialGradient>
    <radialGradient id="radial-gradient1" cx="-470.58" cy="528.22" fx="-470.58" fy="528.22" r=".03" gradientTransform="translate(445959.13 357014.39) rotate(-23.2) scale(572.26 -953.69)" gradientUnits="userSpaceOnUse">
      <stop offset="0" stop-color="#00bbec"/>
      <stop offset="1" stop-color="#2756a9"/>
    </radialGradient>
    <linearGradient id="linear-gradient" x1="21.12" y1="44" x2="21.12" y2="16.36" gradientTransform="translate(0 56) scale(1 -1)" gradientUnits="userSpaceOnUse">
      <stop offset="0" stop-color="#00bbec"/>
      <stop offset="1" stop-color="#2756a9"/>
    </linearGradient>
  </defs>
  <path class="st0" d="M28.12,22.09c-.59.07-1.04.55-1.08,1.15-.02.26-.01.28.58,1.8,1.34,3.45,1.67,4.29,1.72,4.4.13.28.32.55.55.79.18.18.3.28.5.42.35.23.52.3,1.89.7,1.33.39,2.05.65,2.68.96.81.4,1.37.86,1.73,1.4.26.39.48,1.09.58,1.79.04.27.04.88,0,1.13-.08.54-.25.99-.5,1.37-.14.2-.09.17.11-.08.56-.69,1.12-1.88,1.41-2.95.35-1.3.4-2.7.14-4.02-.51-2.57-2.13-4.79-4.42-6.04-.14-.08-.69-.37-1.43-.75-.11-.06-.27-.14-.34-.18-.08-.04-.23-.12-.34-.18-.11-.06-.44-.23-.72-.38-.28-.15-.6-.31-.71-.37-.32-.17-.53-.28-.69-.36-.74-.38-1.05-.54-1.14-.57-.09-.03-.33-.06-.39-.06-.01,0-.07,0-.13.01Z"/>
  <path class="st2" d="M29.72,34.99s-.1.06-.13.08c-.03.02-.09.06-.14.09-.18.11-.67.41-1.09.67-.28.17-.32.2-.67.41-.13.08-.26.16-.3.18-.04.02-.2.12-.36.22-.16.1-.43.27-.61.38-.18.11-.5.31-.71.44-.21.13-.49.3-.62.38-.13.08-.25.16-.27.17-.02.02-1.17.73-1.75,1.08-.44.27-.95.45-1.46.52-.24.03-.7.03-.94,0-.65-.09-1.25-.33-1.77-.72-.2-.15-.58-.53-.73-.73-.34-.46-.56-.96-.68-1.52-.03-.13-.05-.24-.06-.24-.01-.01,0,.18.04.44.04.27.11.65.2.98.65,2.54,2.48,4.61,4.97,5.59.72.28,1.44.46,2.23.55.3.03,1.13.05,1.44.02,1.42-.11,2.65-.52,3.91-1.32.11-.07.32-.2.47-.3.15-.09.33-.21.41-.26.08-.05.17-.11.21-.13.04-.02.11-.07.17-.1.05-.04.29-.18.52-.33l.92-.58.31-.2h.01s.03-.03.03-.03h.02s.23-.16.23-.16l.8-.51c1.02-.64,1.33-.87,1.8-1.33.2-.19.5-.52.51-.57,0,0,.06-.09.12-.18.25-.37.42-.83.5-1.36.04-.25.04-.86,0-1.13-.07-.53-.24-1.13-.43-1.52-.3-.63-.94-1.2-1.86-1.66-.25-.13-.52-.24-.54-.24-.01,0-.87.52-1.9,1.16s-1.92,1.19-1.99,1.23c-.06.04-.17.1-.24.15l-.59.37Z"/>
  <path class="st1" d="M17.42,31.93v4.44s.06.26.06.26c.18.81.49,1.39,1.03,1.93.25.25.45.41.73.57.58.35,1.21.52,1.9.52.72,0,1.34-.18,1.99-.57.11-.07.53-.33.94-.58l.75-.46v-15.35c0-3.07,0-4.9-.02-5.04-.06-.9-.44-1.73-1.07-2.35-.19-.19-.36-.32-.85-.66-.25-.17-.7-.48-1-.69-.3-.21-.81-.56-1.11-.77-.31-.21-.75-.52-.98-.67-.48-.33-.52-.35-.66-.4-.19-.07-.39-.09-.58-.07-.55.06-.99.46-1.11,1-.02.08-.02,1.21-.02,7.29v7.19h0v4.44Z"/>
</svg>