<svg width="57" height="56" viewBox="0 0 57 56" fill="none" xmlns="http://www.w3.org/2000/svg">
<path d="M13.5293 14.0123C13.383 14.0104 13.238 14.0404 13.1046 14.1001C12.9712 14.1599 12.8526 14.248 12.7571 14.3582C12.6616 14.4684 12.5915 14.5981 12.5517 14.7381C12.5119 14.8781 12.5035 15.0251 12.5269 15.1687L16.782 40.8563C16.835 41.1707 16.9977 41.4564 17.2415 41.6633C17.4853 41.8702 17.7947 41.9851 18.1152 41.9877H38.5285C38.7688 41.9908 39.0021 41.9079 39.1861 41.7542C39.37 41.6005 39.4923 41.3862 39.5307 41.1504L43.786 15.1737C43.8094 15.0301 43.8009 14.8831 43.7611 14.7431C43.7213 14.6031 43.6512 14.4735 43.5557 14.3633C43.4601 14.2531 43.3415 14.1651 43.2081 14.1053C43.0747 14.0456 42.9298 14.0156 42.7835 14.0175L13.5293 14.0123ZM31.4467 32.5777H24.9312L23.1671 23.4122H33.0255L31.4467 32.5777Z" fill="#2684FF"/>
<path d="M42.4068 23.3993H33.0072L31.4297 32.5576H24.9195L17.2325 41.6312C17.4761 41.8407 17.7868 41.9572 18.1088 41.9598H38.5109C38.751 41.9629 38.9842 41.8801 39.168 41.7266C39.3518 41.573 39.4741 41.3589 39.5125 41.1232L42.4068 23.3993Z" fill="url(#paint0_linear_1_1454)"/>
<defs>
<linearGradient id="paint0_linear_1_1454" x1="44.5801" y1="25.964" x2="33.8028" y2="41.3521" gradientUnits="userSpaceOnUse">
<stop offset="0.18" stop-color="#0052CC"/>
<stop offset="1" stop-color="#2684FF"/>
</linearGradient>
</defs>
</svg>
