<svg width="57" height="56" viewBox="0 0 57 56" fill="none" xmlns="http://www.w3.org/2000/svg">
<path d="M12.514 39.544C12.514 41.7597 14.3201 43.5556 16.5479 43.5556H39.7649C41.993 43.5556 43.7989 41.7595 43.7989 39.544V16.4561C43.7989 14.2403 41.9928 12.4444 39.765 12.4444H16.548C14.3198 12.4444 12.514 14.2405 12.514 16.456V39.5439V39.544Z" fill="#563D7C"/>
<path d="M25.4872 26.206V21.8003H29.387C29.7585 21.8003 30.1165 21.831 30.4614 21.8926C30.8063 21.9541 31.1114 22.064 31.3767 22.2223C31.6419 22.3807 31.8542 22.6005 32.0134 22.8819C32.1725 23.1633 32.2522 23.5239 32.2522 23.9635C32.2522 24.755 32.0134 25.3266 31.5358 25.6783C31.0584 26.0302 30.4482 26.206 29.7053 26.206H25.4872ZM21.322 18.5816V37.4184H30.5012C31.3502 37.4184 32.1771 37.3129 32.9818 37.1018C33.7865 36.8907 34.5028 36.5654 35.1307 36.1257C35.7585 35.686 36.2582 35.1187 36.6295 34.4241C37.0011 33.7293 37.1867 32.907 37.1867 31.9573C37.1867 30.7789 36.8993 29.772 36.3245 28.9366C35.7497 28.1011 34.8786 27.5163 33.7112 27.1821C34.5602 26.7777 35.2014 26.2587 35.6348 25.6256C36.068 24.9924 36.2847 24.201 36.2847 23.2512C36.2847 22.3718 36.1388 21.6332 35.8469 21.0351C35.5551 20.4372 35.1439 19.9579 34.6133 19.5973C34.0828 19.2368 33.4461 18.9773 32.7032 18.8191C31.9604 18.6607 31.1379 18.5816 30.2359 18.5816H21.322ZM25.4872 34.1997V29.0289H30.0237C30.9257 29.0289 31.6508 29.2354 32.1992 29.6489C32.7474 30.0622 33.0216 30.7525 33.0216 31.7198C33.0216 32.2124 32.9376 32.6168 32.7695 32.9334C32.6015 33.25 32.376 33.5007 32.093 33.6853C31.8101 33.87 31.4828 34.0019 31.1114 34.0811C30.7399 34.1601 30.3509 34.1997 29.9441 34.1997H25.4872Z" fill="white"/>
</svg>
