<svg width="56" height="56" viewBox="0 0 56 56" fill="none" xmlns="http://www.w3.org/2000/svg">
<path d="M12.4445 39.5441C12.4445 41.7598 14.2405 43.5556 16.456 43.5556H39.5439C41.7598 43.5556 43.5556 41.7595 43.5556 39.5441V16.4561C43.5556 14.2403 41.7595 12.4445 39.5441 12.4445H16.4561C14.2403 12.4445 12.4445 14.2405 12.4445 16.456V39.5439V39.5441Z" fill="#563D7C"/>
<path d="M25.3456 26.206V21.8003H29.2237C29.5931 21.8003 29.9492 21.831 30.2922 21.8926C30.6351 21.9541 30.9386 22.064 31.2024 22.2223C31.4661 22.3807 31.6772 22.6005 31.8356 22.8819C31.9938 23.1633 32.073 23.5239 32.073 23.9635C32.073 24.755 31.8356 25.3266 31.3606 25.6783C30.8858 26.0302 30.279 26.206 29.5403 26.206H25.3456ZM21.2036 18.5816V37.4184H30.3318C31.176 37.4184 31.9983 37.3129 32.7985 37.1018C33.5988 36.8907 34.3111 36.5654 34.9355 36.1257C35.5598 35.686 36.0567 35.1187 36.426 34.4241C36.7955 33.7293 36.9801 32.9071 36.9801 31.9573C36.9801 30.7789 36.6943 29.772 36.1227 28.9366C35.551 28.1011 34.6848 27.5163 33.5239 27.1821C34.3682 26.7777 35.0059 26.2588 35.4368 25.6256C35.8676 24.9924 36.0831 24.201 36.0831 23.2512C36.0831 22.3718 35.938 21.6332 35.6478 21.0351C35.3576 20.4372 34.9486 19.9579 34.4209 19.5973C33.8934 19.2368 33.2602 18.9773 32.5215 18.8191C31.7828 18.6607 30.9649 18.5816 30.0679 18.5816H21.2036ZM25.3456 34.1997V29.0289H29.8568C30.7538 29.0289 31.475 29.2355 32.0203 29.6489C32.5655 30.0622 32.8382 30.7525 32.8382 31.7198C32.8382 32.2124 32.7546 32.6168 32.5875 32.9334C32.4204 33.25 32.1961 33.5007 31.9147 33.6853C31.6333 33.87 31.3079 34.0019 30.9386 34.0811C30.5691 34.1601 30.1823 34.1997 29.7777 34.1997H25.3456Z" fill="#1E2235"/>
</svg>
