<svg width="56" height="56" viewBox="0 0 56 56" fill="none" xmlns="http://www.w3.org/2000/svg">
<path d="M41.7028 21.6542C41.7026 21.1362 41.5919 20.6785 41.3678 20.2858C41.1478 19.8994 40.8182 19.5756 40.3762 19.3197C36.7274 17.2157 33.075 15.1182 29.4273 13.0121C28.4439 12.4444 27.4905 12.4652 26.5144 13.0411C25.062 13.8975 17.7907 18.0635 15.6239 19.3185C14.7315 19.8352 14.2973 20.6257 14.2971 21.6532C14.2957 25.8844 14.2971 30.1155 14.2957 34.3466C14.2957 34.8532 14.402 35.3022 14.6161 35.689C14.8363 36.0869 15.1705 36.4196 15.6227 36.6814C17.7896 37.9364 25.0619 42.102 26.514 42.9588C27.4905 43.535 28.4439 43.5555 29.4277 42.9877C33.0754 40.8815 36.728 38.784 40.3774 36.6801C40.8296 36.4184 41.1638 36.0855 41.3839 35.6879C41.5977 35.301 41.7042 34.8522 41.7042 34.3455C41.7042 34.3455 41.7042 25.8854 41.7028 21.6542Z" fill="#A179DC"/>
<path d="M28.0419 27.9587L14.6161 35.6889C14.8363 36.0869 15.1705 36.4196 15.6227 36.6813C17.7896 37.9364 25.0619 42.102 26.514 42.9587C27.4905 43.5349 28.444 43.5555 29.4277 42.9877C33.0754 40.8815 36.728 38.784 40.3774 36.6801C40.8296 36.4184 41.1638 36.0855 41.3839 35.6879L28.0419 27.9587Z" fill="#280068"/>
<path d="M41.7029 21.6541C41.7027 21.1362 41.5919 20.6785 41.3679 20.2858L28.0419 27.9588L41.384 35.6879C41.5978 35.301 41.7041 34.8522 41.7043 34.3455C41.7043 34.3455 41.7043 25.8854 41.7029 21.6541Z" fill="#390091"/>
<path d="M35.9465 25.0689V26.5139H37.3915V25.0689H38.114V26.5139H39.5589V27.2363H38.114V28.6812H39.5589V29.4036H38.114V30.8486H37.3915V29.4036H35.9465V30.8486H35.2241V29.4036H33.7792V28.6812H35.2241V27.2363H33.7792V26.5139H35.2241V25.0689H35.9465ZM37.3915 27.2362H35.9465V28.6812H37.3915V27.2362Z" fill="#1E2235"/>
<path d="M28.0714 17.8122C31.8402 17.8122 35.1307 19.859 36.8931 22.9014L36.876 22.8721L32.4416 25.4253C31.568 23.9461 29.9665 22.9478 28.1292 22.9272L28.0713 22.9269C25.2696 22.9269 22.9983 25.1982 22.9983 27.9999C22.9974 28.8829 23.2281 29.7508 23.6674 30.5168C24.5418 32.0434 26.1857 33.073 28.0714 33.073C29.9688 33.073 31.622 32.0303 32.4919 30.4874L32.4708 30.5244L36.8984 33.0894C35.1552 36.106 31.9098 38.1465 28.1848 38.1871L28.0714 38.1878C24.2907 38.1878 20.9909 36.1283 19.2328 33.0699C18.3746 31.5768 17.8835 29.8458 17.8835 27.9999C17.8835 22.3734 22.4446 17.8121 28.0713 17.8121L28.0714 17.8122Z" fill="#1E2235"/>
</svg>
