<svg width="57" height="56" viewBox="0 0 57 56" fill="none" xmlns="http://www.w3.org/2000/svg">
<path d="M42.0126 21.5954C42.0124 21.0737 41.9002 20.6127 41.6733 20.217C41.4504 19.8279 41.1166 19.5018 40.6689 19.244C36.9732 17.1249 33.2739 15.0122 29.5794 12.891C28.5834 12.3191 27.6177 12.34 26.629 12.92C25.158 13.7827 17.7932 17.9787 15.5986 19.2428C14.6948 19.7631 14.255 20.5594 14.2548 21.5944C14.2534 25.8561 14.2548 30.1176 14.2534 34.3794C14.2536 34.8897 14.361 35.3417 14.578 35.7314C14.8009 36.1323 15.1394 36.4673 15.5974 36.731C17.7922 37.9951 25.1579 42.1908 26.6286 43.0537C27.6177 43.6341 28.5834 43.6548 29.5797 43.0828C33.2744 40.9614 36.9739 38.8488 40.6701 36.7297C41.1282 36.4662 41.4666 36.1309 41.6896 35.7304C41.9062 35.3407 42.0138 34.8886 42.014 34.3783C42.014 34.3783 42.014 25.8572 42.0126 21.5954Z" fill="#5C8DBC"/>
<path d="M28.1762 27.9454L14.578 35.7315C14.8009 36.1323 15.1394 36.4674 15.5974 36.731C17.7922 37.9951 25.1579 42.1908 26.6286 43.0537C27.6177 43.6341 28.5834 43.6548 29.5798 43.0828C33.2744 40.9614 36.9739 38.8489 40.6701 36.7297C41.1282 36.4662 41.4666 36.1309 41.6896 35.7304L28.1762 27.9454Z" fill="#1A4674"/>
<path d="M24.1486 30.2517C24.9398 31.6254 26.4273 32.5519 28.1337 32.5519C29.8506 32.5519 31.3466 31.6136 32.1339 30.2252L28.1762 27.9454L24.1486 30.2517Z" fill="#1A4674"/>
<path d="M42.0126 21.5954C42.0124 21.0737 41.9002 20.6127 41.6733 20.217L28.1762 27.9454L41.6896 35.7304C41.9062 35.3407 42.0138 34.8887 42.014 34.3783C42.014 34.3783 42.014 25.8572 42.0126 21.5954Z" fill="#1B598E"/>
<path d="M41.2696 28.5019H40.2136V29.5522H39.1574V28.5019H38.1015V27.4519H39.1574V26.4018H40.2136V27.4519H41.2696V28.5019ZM37.4164 28.5019H36.3605V29.5522H35.3045V28.5019H34.2486V27.4519H35.3045V26.4018H36.3605V27.4519H37.4164V28.5019Z" fill="white"/>
<path d="M32.1339 30.2252C31.3466 31.6137 29.8506 32.552 28.1337 32.552C26.4274 32.552 24.9398 31.6254 24.1486 30.2517C23.7511 29.5624 23.5423 28.7815 23.5431 27.9869C23.5431 25.4657 25.5985 23.4219 28.1337 23.4219C29.8291 23.4219 31.3088 24.3369 32.104 25.6965L36.1165 23.3989C34.5216 20.6612 31.5441 18.8193 28.1337 18.8193C23.0422 18.8193 18.9148 22.9238 18.9148 27.9869C18.9148 29.6479 19.3592 31.2056 20.1358 32.5492C21.7266 35.3014 24.7126 37.1546 28.1337 37.1546C31.5611 37.1546 34.5518 35.2939 36.1404 32.5336L32.1339 30.2252Z" fill="white"/>
</svg>
