<?xml version="1.0" encoding="UTF-8"?>
<svg id="Layer_1" xmlns="http://www.w3.org/2000/svg" xmlns:xlink="http://www.w3.org/1999/xlink" version="1.1" viewBox="0 0 56 56">
  <!-- Generator: Adobe Illustrator 30.0.0, SVG Export Plug-In . SVG Version: 2.1.1 Build 123)  -->
  <defs>
    <style>
      .st0 {
        fill: url(#radial-gradient);
      }

      .st1 {
        fill: #fff;
      }

      .st2 {
        fill: #7d2ae7;
      }

      .st3 {
        fill: url(#radial-gradient1);
      }

      .st4 {
        fill: url(#radial-gradient3);
      }

      .st5 {
        fill: url(#radial-gradient2);
      }
    </style>
    <radialGradient id="radial-gradient" cx="-470.47" cy="528.14" fx="-470.47" fy="528.14" r=".06" gradientTransform="translate(277665.81 -5343) rotate(-49.42) scale(392.62 -392.62)" gradientUnits="userSpaceOnUse">
      <stop offset="0" stop-color="#6420ff"/>
      <stop offset="1" stop-color="#6420ff" stop-opacity="0"/>
    </radialGradient>
    <radialGradient id="radial-gradient1" cx="-469.74" cy="529.1" fx="-469.74" fy="529.1" r=".06" gradientTransform="translate(-71000.36 305119.12) rotate(54.7) scale(442.75 -442.75)" gradientUnits="userSpaceOnUse">
      <stop offset="0" stop-color="#00c4cc"/>
      <stop offset="1" stop-color="#00c4cc" stop-opacity="0"/>
    </radialGradient>
    <radialGradient id="radial-gradient2" cx="-470.4" cy="527.2" fx="-470.4" fy="527.2" r=".06" gradientTransform="translate(195316.66 -63139.74) rotate(-45.2) scale(387.86 -178.38)" gradientUnits="userSpaceOnUse">
      <stop offset="0" stop-color="#6420ff"/>
      <stop offset="1" stop-color="#6420ff" stop-opacity="0"/>
    </radialGradient>
    <radialGradient id="radial-gradient3" cx="-469.75" cy="529.15" fx="-469.75" fy="529.15" r=".06" gradientTransform="translate(-250114.99 313368.78) rotate(66.52) scale(399.66 -669.53)" gradientUnits="userSpaceOnUse">
      <stop offset="0" stop-color="#00c4cc" stop-opacity=".73"/>
      <stop offset="0" stop-color="#00c4cc"/>
      <stop offset="1" stop-color="#00c4cc" stop-opacity="0"/>
    </radialGradient>
  </defs>
  <g>
    <circle class="st2" cx="28" cy="28" r="16"/>
    <circle class="st0" cx="28" cy="28" r="16"/>
    <circle class="st3" cx="28" cy="28" r="16"/>
    <circle class="st5" cx="28" cy="28" r="16"/>
    <circle class="st4" cx="28" cy="28" r="16"/>
  </g>
  <path class="st1" d="M40.16,29.45s-.08.03-.1.08c-.25.72-.59,1.15-.88,1.15-.16,0-.23-.18-.23-.46,0-.71.42-2.21.64-2.89.02-.08.04-.16.04-.22,0-.2-.11-.3-.38-.3-.29,0-.6.11-.91.65-.1-.47-.42-.67-.86-.67-.51,0-1.01.33-1.41.86-.41.53-.89.71-1.25.62.26-.63.36-1.11.36-1.46,0-.55-.27-.88-.71-.88-.67,0-1.06.64-1.06,1.31,0,.52.24,1.05.75,1.31-.43.98-1.07,1.87-1.31,1.87-.31,0-.4-1.52-.38-2.61.01-.62.06-.66.06-.84,0-.11-.07-.18-.35-.18-.66,0-.86.56-.89,1.2,0,.24-.05.48-.11.72-.28.98-.84,1.73-1.21,1.73-.17,0-.22-.17-.22-.4,0-.71.4-1.59.4-2.34,0-.55-.24-.9-.7-.9-.54,0-1.25.64-1.93,1.84.22-.92.31-1.81-.34-1.81-.14,0-.28.04-.41.11-.09.04-.14.13-.13.22.06.98-.79,3.49-1.6,3.49-.15,0-.22-.16-.22-.42,0-.71.42-2.2.63-2.89.03-.09.04-.17.04-.23,0-.19-.12-.28-.38-.28-.29,0-.6.11-.9.64-.11-.47-.42-.67-.87-.67-.73,0-1.54.77-1.89,1.77-.48,1.34-1.44,2.63-2.73,2.63-1.18,0-1.8-.98-1.8-2.52,0-2.23,1.64-4.05,2.85-4.05.58,0,.86.37.86.94,0,.69-.38,1.01-.38,1.27,0,.08.07.16.2.16.53,0,1.15-.62,1.15-1.47s-.69-1.47-1.9-1.47c-2.01,0-4.03,2.02-4.03,4.61,0,2.06,1.02,3.3,2.77,3.3,1.2,0,2.25-.93,2.81-2.02.06.9.47,1.37,1.1,1.37.55,0,1-.33,1.35-.91.13.61.48.91.94.91.52,0,.96-.33,1.37-.94,0,.48.1.94.52.94.2,0,.43-.05.47-.22.44-1.82,1.53-3.31,1.86-3.31.1,0,.13.09.13.21,0,.49-.35,1.51-.35,2.16,0,.7.3,1.16.91,1.16.68,0,1.37-.83,1.83-2.05.14,1.14.46,2.06.94,2.06.6,0,1.66-1.26,2.31-2.6.25.03.63.02,1-.23-.16.39-.25.82-.25,1.25,0,1.24.59,1.59,1.1,1.59.55,0,1-.33,1.35-.91.11.52.4.9.94.9.83,0,1.56-.85,1.56-1.55,0-.18-.08-.3-.17-.3h0ZM22.86,30.62c-.34,0-.47-.34-.47-.84,0-.88.6-2.34,1.24-2.34.28,0,.38.33.38.73,0,.89-.57,2.46-1.15,2.46h0ZM34.39,28c-.2-.24-.27-.56-.27-.85,0-.36.13-.66.29-.66s.2.15.2.37c0,.36-.13.88-.22,1.15ZM37,30.62c-.34,0-.47-.39-.47-.84,0-.85.6-2.34,1.24-2.34.28,0,.38.32.38.73,0,.89-.56,2.46-1.15,2.46h0Z"/>
</svg>