<svg width="57" height="56" viewBox="0 0 57 56" fill="none" xmlns="http://www.w3.org/2000/svg">
<path d="M39.2309 37.4645C39.0054 37.4646 38.7872 37.3847 38.6156 37.2391C38.444 37.0936 38.3303 36.8919 38.2948 36.6704C38.2594 36.4489 38.3045 36.2221 38.4222 36.0308C38.5399 35.8394 38.7223 35.6961 38.9368 35.6265C40.7392 35.0399 41.9036 33.4689 41.9036 31.624C41.9036 29.2875 39.9923 27.3866 37.6428 27.3866C37.4796 27.3866 37.304 27.3994 37.0902 27.4269L36.1639 27.5464L36.0308 26.6264C35.4614 22.6821 32.0063 19.7076 27.9936 19.7076C24.6763 19.7076 21.7231 21.6824 20.4707 24.7391L20.2349 25.3142L19.6109 25.3255C16.7428 25.3779 14.4095 27.74 14.4095 30.5907C14.4095 32.6717 15.6245 34.5695 17.5046 35.4253C17.7331 35.5293 17.9107 35.7193 17.9984 35.9535C18.086 36.1877 18.0765 36.4469 17.9719 36.6742C17.8673 36.9014 17.6763 37.078 17.4407 37.1652C17.2052 37.2523 16.9445 37.2428 16.716 37.1388C14.1633 35.9772 12.514 33.4068 12.514 30.5908C12.514 26.9261 15.3533 23.8563 18.9598 23.4792C20.6215 20.0238 24.1043 17.8233 27.9933 17.8233C32.6481 17.8233 36.6945 21.0687 37.7438 25.5033C41.0918 25.5572 43.7989 28.2823 43.7989 31.6243C43.7989 34.2578 42.0816 36.5858 39.5262 37.4175C39.4284 37.4492 39.3288 37.4645 39.2309 37.4645Z" fill="#0071CE"/>
<path d="M24.7367 37.8721L24.7362 37.8719L24.7354 37.8716H24.7351L24.7349 37.8714L24.7346 37.8711C24.7346 37.8711 24.7344 37.8711 24.7344 37.8709H24.7342L24.7339 37.8707C24.7342 37.8704 24.7337 37.8704 24.7337 37.8704L24.7334 37.8702H24.7332L24.7329 37.8699L24.7327 37.8697L24.732 37.8694L24.7317 37.8692L24.7315 37.869L24.7312 37.8687L24.7305 37.8685C24.7302 37.8687 24.7302 37.8682 24.73 37.8682L24.7298 37.868L24.7293 37.8677L24.729 37.8675C24.7288 37.8673 24.7283 37.8673 24.728 37.8673L24.7271 37.867L24.7266 37.8668H24.7263C24.7261 37.8665 24.7258 37.8665 24.7255 37.8665C24.7252 37.8663 24.7247 37.8663 24.7247 37.8663H24.7245L24.724 37.866C24.7238 37.866 24.7238 37.8658 24.7238 37.8658H24.7235C24.7086 37.8605 24.6929 37.8574 24.6771 37.8567H24.6756H24.6749L24.6746 37.8564H24.6721H24.6723H24.6704C24.2608 37.8564 23.9258 37.5249 23.9233 37.1186V28.839H24.5614C24.6585 28.8431 24.7247 28.7687 24.7247 28.6795C24.7247 28.6128 24.6837 28.5558 24.6254 28.532L21.5639 26.4307C21.5371 26.4123 21.5053 26.4025 21.4728 26.4025C21.4402 26.4025 21.4085 26.4123 21.3817 26.4307L18.2962 28.5484C18.2682 28.5678 18.2471 28.5956 18.2361 28.6276C18.225 28.6597 18.2245 28.6945 18.2347 28.7269C18.2448 28.7593 18.2651 28.7876 18.2925 28.8078C18.3199 28.828 18.3531 28.8389 18.3872 28.8391H19.0251L19.0258 37.1208C19.0289 37.6934 19.4914 38.1606 20.0798 38.1755C20.0865 38.1762 20.0929 38.1767 20.0996 38.1767H24.6728C24.7148 38.1759 24.753 38.1592 24.7812 38.1323L24.7814 38.1321L24.7827 38.1309C24.7829 38.1306 24.7832 38.1306 24.7834 38.1301L24.7836 38.1299L24.7839 38.1296L24.7841 38.1294L24.7844 38.1292L24.7846 38.1289L24.7849 38.1287C24.7854 38.1284 24.7851 38.1284 24.7854 38.1282L24.7856 38.1279L24.7858 38.1277L24.7861 38.1274C24.8138 38.0989 24.8312 38.0602 24.8313 38.0175V38.015C24.8307 37.9848 24.8214 37.9553 24.8047 37.93C24.788 37.9047 24.7644 37.8847 24.7367 37.8721Z" fill="#DC8327"/>
<path d="M31.3491 37.8721L31.3486 37.8719L31.3479 37.8717H31.3475L31.3473 37.8714L31.347 37.8712H31.3468L31.3465 37.8709L31.3463 37.8707C31.3465 37.8704 31.346 37.8704 31.3458 37.8704L31.3455 37.8702H31.3453C31.3451 37.8702 31.3451 37.87 31.3451 37.87C31.3446 37.8702 31.3446 37.8697 31.3446 37.8697L31.3441 37.8695L31.3438 37.8692H31.3436L31.3433 37.869L31.3431 37.8687L31.3426 37.8685C31.3424 37.8687 31.3424 37.8683 31.3419 37.8683L31.3416 37.868L31.3414 37.8678L31.3409 37.8675C31.3407 37.8673 31.3402 37.8673 31.3399 37.8673L31.339 37.867L31.3385 37.8668L31.338 37.8666L31.3375 37.8663L31.3369 37.8661C31.3361 37.8661 31.3366 37.8661 31.3364 37.8658L31.3359 37.8656L31.3356 37.8653H31.3354C31.3205 37.86 31.3048 37.857 31.289 37.8562H31.287L31.2868 37.856H31.2818C30.8724 37.856 30.5374 37.5244 30.5349 37.1182V30.693H31.1727C31.2106 30.6947 31.2478 30.6831 31.2778 30.6602C31.3078 30.6373 31.3287 30.6045 31.3368 30.5677C31.3448 30.531 31.3395 30.4925 31.3218 30.4593C31.3041 30.426 31.2751 30.4001 31.24 30.386L28.1783 28.2848C28.1515 28.2664 28.1197 28.2566 28.0871 28.2566C28.0546 28.2566 28.0228 28.2664 27.996 28.2848L24.9117 30.4023C24.8837 30.4217 24.8627 30.4495 24.8516 30.4815C24.8406 30.5136 24.8401 30.5484 24.8502 30.5808C24.8604 30.6132 24.8806 30.6415 24.908 30.6617C24.9355 30.6819 24.9686 30.6928 25.0028 30.693H25.6379L25.6384 37.1206C25.6411 37.6934 26.1043 38.1609 26.693 38.1755C26.6994 38.1762 26.7057 38.1764 26.7122 38.1764H31.2855C31.3276 38.1757 31.3656 38.1589 31.3938 38.1321L31.3941 38.1318C31.3946 38.1314 31.3955 38.1309 31.3953 38.1306C31.3955 38.1304 31.3958 38.1304 31.396 38.1299L31.3963 38.1297L31.3965 38.1294L31.3968 38.1292C31.3968 38.1292 31.397 38.1292 31.397 38.1289L31.3972 38.1287C31.3975 38.1287 31.3975 38.1284 31.3975 38.1284C31.3982 38.1282 31.398 38.1282 31.398 38.128L31.3982 38.1277L31.3985 38.1275L31.3987 38.1272C31.4265 38.0987 31.4438 38.06 31.4439 38.0172V38.0148C31.4431 37.9846 31.4338 37.9552 31.4171 37.93C31.4003 37.9047 31.3768 37.8847 31.3491 37.8721Z" fill="#F4B21B"/>
<path d="M37.9787 37.8722L37.9782 37.8719L37.9774 37.8717H37.9772L37.977 37.8714L37.9767 37.8712C37.9765 37.8712 37.9765 37.8712 37.9765 37.8709H37.9762L37.976 37.8707L37.9757 37.8705C37.9757 37.8705 37.9755 37.8705 37.9755 37.8702H37.9752L37.975 37.87C37.9747 37.8702 37.9748 37.8697 37.9745 37.8697C37.9748 37.8695 37.9743 37.8695 37.974 37.8695L37.9738 37.8692H37.9735L37.9733 37.869L37.973 37.8687L37.9726 37.8685C37.9723 37.8687 37.9723 37.8683 37.9718 37.8683L37.9716 37.868C37.9718 37.8678 37.9713 37.8678 37.9711 37.8678C37.9711 37.8678 37.9708 37.8678 37.9708 37.8675C37.9706 37.8673 37.9701 37.8673 37.9699 37.8673L37.9688 37.867L37.9683 37.8668L37.9678 37.8666L37.9673 37.8663L37.9668 37.8661C37.9661 37.8661 37.9661 37.8661 37.9663 37.8658C37.9661 37.8658 37.9661 37.8656 37.9661 37.8656L37.9656 37.8653H37.9653C37.9504 37.86 37.9347 37.857 37.9189 37.8562H37.9166L37.9161 37.856H37.9134H37.9117H37.9127H37.9124C37.503 37.856 37.1681 37.5245 37.1655 37.1182V32.5463H37.8051C37.8953 32.5442 37.9685 32.4763 37.9685 32.3871C37.9685 32.3203 37.9275 32.2633 37.8692 32.2395L34.8074 30.1382C34.7806 30.1199 34.7488 30.11 34.7163 30.11C34.6838 30.11 34.652 30.1199 34.6252 30.1382L31.5397 32.2557C31.5117 32.2751 31.4907 32.3029 31.4796 32.335C31.4686 32.3671 31.4681 32.4018 31.4782 32.4342C31.4884 32.4666 31.5086 32.495 31.536 32.5151C31.5635 32.5353 31.5966 32.5463 31.6308 32.5464H32.2671L32.2676 37.1206C32.2708 37.6934 32.7337 38.1611 33.3221 38.1755C33.3285 38.1762 33.3349 38.1765 33.3414 38.1765H37.9146C37.9567 38.1757 37.9948 38.159 38.023 38.1321L38.0233 38.1319C38.0238 38.1314 38.0245 38.1309 38.0245 38.1306C38.0247 38.1304 38.025 38.1304 38.0252 38.1299L38.0255 38.1297L38.0257 38.1294L38.026 38.1292L38.0262 38.1289L38.0264 38.1287L38.0267 38.1285C38.0274 38.1282 38.0269 38.1282 38.0272 38.128L38.0274 38.1277L38.0277 38.1275L38.0279 38.1272C38.0557 38.0987 38.0729 38.06 38.0731 38.0173V38.0148C38.0725 37.9846 38.0633 37.9552 38.0466 37.9299C38.0299 37.9047 38.0063 37.8847 37.9787 37.8722Z" fill="#F2D864"/>
</svg>
