<svg width="57" height="56" viewBox="0 0 57 56" fill="none" xmlns="http://www.w3.org/2000/svg">
<path d="M23.9084 19.1313C19.82 18.3908 16.5874 19.166 15.2991 21.3848C14.3377 23.0406 14.6122 25.2362 15.9652 27.583C15.9925 27.6305 16.0291 27.6722 16.0726 27.7057C16.1162 27.7392 16.166 27.7639 16.2192 27.7782C16.2724 27.7925 16.3279 27.7963 16.3825 27.7893C16.4371 27.7823 16.4898 27.7647 16.5376 27.7374C16.6341 27.6824 16.7047 27.5915 16.7338 27.4847C16.7629 27.378 16.7482 27.2641 16.6929 27.1681C15.474 25.0543 15.2365 23.1595 16.0253 21.8017C17.0954 19.9585 19.9784 19.267 23.7578 19.9517C23.8261 19.9651 23.8967 19.9614 23.9633 19.9409C24.0298 19.9204 24.0901 19.8838 24.1389 19.8343C24.1876 19.7848 24.2232 19.7241 24.2424 19.6575C24.2616 19.5909 24.2638 19.5207 24.2489 19.453C24.2308 19.3717 24.1887 19.2976 24.1279 19.2403C24.0672 19.183 23.9906 19.145 23.9079 19.1314L23.9084 19.1313ZM18.0912 30.4353C19.7442 32.242 21.8919 33.9364 24.3412 35.3428C30.2715 38.7478 36.585 39.6579 39.6964 37.548C39.786 37.4848 39.8471 37.3891 39.8665 37.2816C39.886 37.1741 39.8622 37.0633 39.8003 36.973C39.7385 36.8827 39.6434 36.8202 39.5357 36.7989C39.4279 36.7776 39.3161 36.7991 39.2242 36.859C36.4393 38.7473 30.442 37.8828 24.7605 34.6207C22.3841 33.2562 20.3046 31.6156 18.7115 29.8744C18.6561 29.8119 18.5831 29.7673 18.502 29.7463C18.4209 29.7254 18.3354 29.7291 18.2564 29.7569C18.1908 29.7801 18.132 29.8192 18.0853 29.8707C18.0387 29.9221 18.0057 29.9844 17.9893 30.0517C17.9729 30.119 17.9736 30.1893 17.9914 30.2563C18.0092 30.3233 18.0435 30.3848 18.0912 30.4353Z" fill="#2DD0ED"/>
<path d="M38.7042 29.9282C41.3811 26.7834 42.3159 23.6203 41.0304 21.4059C40.0844 19.7766 38.0843 18.9163 35.4267 18.882C35.3155 18.8806 35.2083 18.9231 35.1287 19.0002C35.049 19.0774 35.0034 19.1828 35.0018 19.2933C35.0006 19.3758 35.024 19.4568 35.0692 19.526C35.1144 19.5952 35.1792 19.6495 35.2555 19.682C35.3061 19.7036 35.3604 19.7151 35.4155 19.7159C37.8059 19.7466 39.5291 20.4879 40.3043 21.8229C41.3719 23.6622 40.5385 26.483 38.0643 29.3896C38.0275 29.4312 37.9993 29.4797 37.9816 29.5322C37.9638 29.5848 37.9568 29.6403 37.9609 29.6956C37.9649 29.7509 37.9801 29.8048 38.0054 29.8542C38.0307 29.9035 38.0657 29.9474 38.1083 29.9832C38.1508 30.0189 38.2001 30.0458 38.2533 30.0624C38.3064 30.079 38.3624 30.0849 38.4178 30.0798C38.4733 30.0747 38.5272 30.0587 38.5763 30.0326C38.6255 30.0066 38.669 29.9711 38.7042 29.9282ZM31.8246 19.2702C29.4041 19.7861 26.828 20.7943 24.354 22.2147C18.2316 25.7298 14.2379 30.9125 14.7928 34.6709C14.7997 34.726 14.8176 34.7792 14.8454 34.8273C14.8733 34.8754 14.9105 34.9175 14.9549 34.9511C14.9994 34.9848 15.0501 35.0092 15.1042 35.0231C15.1582 35.0369 15.2145 35.0399 15.2698 35.0318C15.325 35.0237 15.3781 35.0048 15.4258 34.976C15.4736 34.9473 15.5151 34.9093 15.5479 34.8644C15.5808 34.8195 15.6042 34.7685 15.617 34.7145C15.6297 34.6604 15.6314 34.6044 15.6221 34.5496C15.1298 31.2129 18.9152 26.2999 24.7729 22.9369C27.173 21.5588 29.6677 20.5828 32.0004 20.0853C32.1058 20.0589 32.1968 19.9929 32.2542 19.9012C32.3116 19.8094 32.331 19.6991 32.3082 19.5934C32.2854 19.4877 32.2223 19.3949 32.1321 19.3346C32.0418 19.2744 31.9316 19.2513 31.8246 19.2702Z" fill="#2DD0ED"/>
<path d="M21.9063 37.2763C23.3065 41.1625 25.5959 43.5556 28.1708 43.5556C30.0485 43.5556 31.7858 42.2828 33.1406 40.0417C33.171 39.9948 33.1916 39.9422 33.2012 39.8872C33.2108 39.8322 33.2092 39.7759 33.1965 39.7215C33.1806 39.6533 33.1478 39.5903 33.1009 39.5381C33.0541 39.4859 32.9948 39.4463 32.9286 39.4229C32.8623 39.3995 32.7912 39.393 32.7218 39.4041C32.6523 39.4152 32.5868 39.4435 32.5313 39.4864C32.4869 39.5206 32.4499 39.5633 32.4225 39.612C31.2047 41.6261 29.709 42.7221 28.1708 42.7221C26.0323 42.7221 23.9898 40.5875 22.6959 36.9951C22.6781 36.9425 22.65 36.8939 22.6132 36.8522C22.5764 36.8105 22.5315 36.7765 22.4814 36.7522C22.4311 36.728 22.3766 36.714 22.3209 36.711C22.2652 36.708 22.2094 36.7162 22.1569 36.7349C22.1044 36.7537 22.0562 36.7827 22.0151 36.8202C21.9739 36.8577 21.9407 36.9029 21.9174 36.9533C21.8941 37.0038 21.8811 37.0583 21.8792 37.1137C21.8774 37.1692 21.8867 37.2245 21.9067 37.2763H21.9063ZM34.6913 36.5158C35.4159 34.2138 35.8047 31.5573 35.8047 28.7892C35.8047 21.8827 33.3741 15.9287 29.9117 14.3998C29.8105 14.3575 29.6966 14.3563 29.5946 14.3965C29.4925 14.4367 29.4104 14.5152 29.3658 14.6149C29.3213 14.7147 29.3179 14.8279 29.3563 14.9301C29.3947 15.0324 29.472 15.1156 29.5714 15.1618C32.6595 16.5256 34.9666 22.176 34.9666 28.7892C34.9666 31.4743 34.5894 34.047 33.8913 36.2669C33.8732 36.3196 33.866 36.3753 33.8699 36.4308C33.8739 36.4862 33.889 36.5404 33.9143 36.59C33.9525 36.6646 34.0124 36.7262 34.0862 36.7665C34.16 36.8069 34.2444 36.8242 34.3282 36.8162C34.4121 36.8082 34.4916 36.7753 34.5563 36.7217C34.6211 36.6681 34.6681 36.5964 34.6913 36.5158ZM42.5868 36.1077C42.5884 35.8446 42.5378 35.5838 42.4377 35.3402C42.3376 35.0966 42.1901 34.8752 42.0036 34.6885C41.8171 34.5019 41.5954 34.3538 41.3511 34.2527C41.1068 34.1517 40.8449 34.0996 40.5803 34.0996C40.3157 34.0996 40.0538 34.1517 39.8095 34.2528C39.5652 34.3538 39.3435 34.502 39.157 34.6886C38.9705 34.8752 38.823 35.0967 38.7229 35.3403C38.6229 35.5838 38.5722 35.8447 38.5739 36.1078C38.5773 36.6347 38.7902 37.139 39.1661 37.5104C39.542 37.8818 40.0505 38.0903 40.5804 38.0903C41.1103 38.0903 41.6187 37.8818 41.9946 37.5103C42.3705 37.1389 42.5834 36.6347 42.5868 36.1077ZM41.7482 36.1077C41.7482 36.4157 41.6251 36.7111 41.4061 36.9289C41.1871 37.1467 40.89 37.2691 40.5803 37.2691C40.3493 37.2691 40.1235 37.201 39.9315 37.0734C39.7395 36.9458 39.5898 36.7644 39.5014 36.5522C39.413 36.34 39.3899 36.1065 39.435 35.8812C39.48 35.6559 39.5913 35.449 39.7546 35.2866C39.9179 35.1241 40.126 35.0135 40.3525 34.9687C40.5791 34.9239 40.8139 34.9469 41.0273 35.0348C41.2407 35.1227 41.423 35.2715 41.5514 35.4625C41.6797 35.6535 41.7482 35.878 41.7482 36.1077ZM15.7325 38.103C15.996 38.103 16.2569 38.0515 16.5004 37.9512C16.7438 37.8509 16.965 37.704 17.1513 37.5187C17.3377 37.3334 17.4855 37.1134 17.5863 36.8713C17.6871 36.6292 17.739 36.3697 17.7389 36.1077C17.739 35.8456 17.6871 35.5862 17.5862 35.3441C17.4854 35.102 17.3376 34.882 17.1513 34.6967C16.965 34.5114 16.7437 34.3644 16.5003 34.2642C16.2568 34.1639 15.9959 34.1123 15.7324 34.1124C15.4689 34.1124 15.208 34.164 14.9646 34.2642C14.7211 34.3645 14.4999 34.5115 14.3136 34.6968C14.1273 34.8821 13.9795 35.102 13.8787 35.3441C13.7779 35.5862 13.726 35.8457 13.726 36.1077C13.726 36.3697 13.7779 36.6292 13.8787 36.8713C13.9795 37.1134 14.1273 37.3334 14.3136 37.5186C14.5 37.7039 14.7212 37.8509 14.9646 37.9512C15.2081 38.0514 15.469 38.103 15.7325 38.103ZM15.7325 37.2691C15.4227 37.2691 15.1255 37.1467 14.9064 36.9289C14.6874 36.711 14.5643 36.4155 14.5643 36.1074C14.5643 35.7993 14.6874 35.5039 14.9064 35.286C15.1255 35.0681 15.4227 34.9457 15.7325 34.9457C16.0423 34.9457 16.3394 35.0681 16.5585 35.286C16.7776 35.5039 16.9007 35.7993 16.9007 36.1074C16.9007 36.4155 16.7776 36.711 16.5585 36.9289C16.3394 37.1467 16.0423 37.2691 15.7325 37.2691Z" fill="#2DD0ED"/>
<path d="M28.1709 16.4351C28.5677 16.4351 28.9557 16.3181 29.2857 16.0988C29.6156 15.8796 29.8728 15.5679 30.0246 15.2033C30.1508 14.9001 30.1999 14.5707 30.1675 14.2442C30.1351 13.9177 30.0223 13.6041 29.839 13.3313C29.6557 13.0585 29.4076 12.8349 29.1166 12.6802C28.8256 12.5255 28.5008 12.4445 28.1709 12.4444C27.774 12.4444 27.3861 12.5614 27.0561 12.7806C26.7261 12.9998 26.4689 13.3114 26.317 13.6761C26.1651 14.0407 26.1254 14.4419 26.2028 14.829C26.2803 15.216 26.4714 15.5716 26.7521 15.8506C26.9384 16.0359 27.1596 16.1828 27.403 16.2831C27.6465 16.3834 27.9074 16.435 28.1709 16.435V16.4351ZM28.1709 15.6011C27.9399 15.6011 27.7141 15.533 27.5221 15.4054C27.33 15.2778 27.1803 15.0964 27.0919 14.8842C27.0331 14.7433 27.0029 14.5922 27.0029 14.4397C27.0029 14.2872 27.0331 14.1361 27.0919 13.9952C27.1505 13.8543 27.2365 13.7263 27.345 13.6184C27.4534 13.5106 27.5822 13.4251 27.7239 13.3667C27.8835 13.301 28.0557 13.2713 28.2282 13.2797C28.4007 13.2881 28.5692 13.3345 28.7215 13.4155C28.8739 13.4964 29.0062 13.61 29.1091 13.748C29.212 13.8859 29.2828 14.0449 29.3165 14.2133C29.3502 14.3818 29.3459 14.5556 29.304 14.7222C29.262 14.8888 29.1834 15.0441 29.0738 15.1768C28.9643 15.3096 28.8264 15.4166 28.6703 15.49C28.5142 15.5634 28.3436 15.6015 28.1709 15.6015V15.6011ZM28.4774 30.2007C28.101 30.2815 27.7077 30.2103 27.384 30.0029C27.1426 29.8481 26.9528 29.6257 26.8385 29.3637C26.7243 29.1016 26.6907 28.8118 26.7421 28.5308C26.7935 28.2498 26.9276 27.9903 27.1274 27.785C27.3271 27.5798 27.5836 27.4381 27.8643 27.3779C28.2381 27.3036 28.6263 27.3785 28.9451 27.5863C29.2639 27.7942 29.4878 28.1184 29.5683 28.4889C29.6487 28.8595 29.5794 29.2466 29.3753 29.5668C29.1712 29.887 28.8487 30.1145 28.4774 30.2003V30.2007Z" fill="#2DD0ED"/>
</svg>
