<svg width="56" height="56" viewBox="0 0 56 56" fill="none" xmlns="http://www.w3.org/2000/svg">
<g clip-path="url(#clip0_1_5870)">
<path d="M43.5374 30.4245C43.4619 29.6834 42.9237 29.3529 42.4186 29.3529C42.1873 29.3529 42.0032 29.419 41.9324 29.4473L41.8332 29.4899L41.7483 29.5512C41.6302 29.6408 41.4225 29.7636 41.2384 29.8297C41.229 29.6786 41.2337 29.485 41.2572 29.3246L41.262 29.2963C41.3989 27.9933 41.1251 27.2333 40.45 27.0397C40.3367 27.0066 40.2187 26.9925 40.1007 26.9925C39.69 26.9925 39.3265 27.1908 39.0904 27.3607C38.8922 27.1105 38.5617 26.9689 38.1463 26.9689C37.5279 26.9689 37.0322 27.2569 36.8528 27.7195C36.8339 27.7667 36.8103 27.8375 36.782 27.9319C36.4185 27.1294 35.6773 26.8225 34.9881 26.8225C34.3366 26.8225 33.704 27.0775 33.468 27.2569C33.4586 27.2663 33.4444 27.271 33.4302 27.2852C32.8118 27.7242 32.3303 28.2766 31.9904 28.9421C31.8252 28.3662 31.4617 27.8281 30.8102 27.4221L30.8008 27.4127C30.7819 27.4032 30.7677 27.3938 30.7488 27.3843C31.3862 26.2513 31.9526 24.7501 31.6127 23.3198C31.254 21.7949 30.357 21.5683 29.8519 21.5683C29.6442 21.5683 29.4318 21.6061 29.2146 21.6816L29.2005 21.6864L29.1862 21.691C28.2374 22.064 27.822 22.6258 27.7322 22.758C27.6378 22.8996 26.5992 24.4763 26.3491 26.7848C26.3208 27.0397 26.2924 27.3041 26.2641 27.5684C26.1178 27.3607 25.877 27.1719 25.4946 27.0539C25.3766 27.0161 25.2539 27.002 25.1311 27.002C24.6071 27.002 24.1822 27.323 23.9556 27.5354L23.9509 27.5307C23.7526 27.238 23.4364 27.0633 23.087 27.0492H23.002C22.445 27.0492 22.0012 27.2947 21.6755 27.5732C21.4678 27.2096 21.0854 26.9831 20.637 26.9831C20.5992 26.9831 20.5661 26.9831 20.5331 26.9878H20.4575C19.8391 26.9878 19.3529 27.2805 19.1546 27.7667C19.1405 27.8045 19.1216 27.8517 19.1027 27.913C18.6165 27.3088 17.998 27.0255 17.1672 27.0255H17.087C16.5676 27.035 15.2741 27.2522 14.481 29.0366C14.3583 29.3104 14.2639 29.589 14.1931 29.8627C14.051 29.7972 13.8963 29.7634 13.7398 29.7636C13.3244 29.7636 13.0129 29.9996 12.8618 30.2215C12.7391 30.4009 12.3472 31.0382 12.5408 31.6613C12.6447 31.9965 12.8854 32.2515 13.2253 32.3836C13.5227 32.5017 13.9004 32.6149 14.1837 32.6952C14.3583 33.0917 14.6699 33.5496 15.2222 33.9698C15.614 34.2672 16.1144 34.4183 16.7045 34.4183C17.6959 34.4183 18.6542 33.9887 18.7581 33.9415L18.7958 33.9227L18.8052 33.9132C18.9941 34.1114 19.2443 34.2531 19.5606 34.3144C19.655 34.3333 19.7777 34.3475 19.9194 34.3475C20.4575 34.3475 20.8305 34.0736 21.1751 33.5591C21.4583 34.0029 21.9729 34.253 22.5819 34.253H22.5866C22.6197 34.253 22.6527 34.2767 22.6905 34.2767C23.0115 34.2767 23.4127 34.1634 23.7479 33.6252C24.0264 34.1256 24.5363 34.4135 25.1406 34.4135C25.6787 34.4135 26.1461 34.1917 26.231 34.1492L26.2499 34.1398C26.4293 34.0453 26.5804 33.9604 26.6984 33.8943C27.0997 34.1067 27.7086 34.3428 28.4545 34.3428C28.582 34.3428 28.7094 34.338 28.8369 34.3239L28.87 34.3192L28.903 34.3144C30.4845 34.0029 31.5136 33.6252 32.1273 33.3372C32.5569 33.8188 33.2414 34.2814 34.2186 34.3522C34.3272 34.3617 34.4405 34.3663 34.549 34.3663C35.3516 34.3663 35.9936 34.1398 36.4657 33.8895C36.6168 34.0501 36.8056 34.1964 37.0511 34.2955C37.1974 34.3569 37.3485 34.3852 37.5043 34.3852C38.4862 34.3852 38.9441 33.2145 39.0716 32.8179L39.3076 32.1854C39.5153 32.4072 39.7797 32.5866 40.1149 32.681C40.299 32.733 40.4972 32.7613 40.7002 32.7613C41.7813 32.7613 42.8199 31.9965 42.9851 31.8691C43.2825 31.6236 43.6082 31.1184 43.5374 30.4245Z" fill="#1E2235"/>
<path d="M33.6337 30.7444C33.6337 30.7444 33.4968 30.2629 34.0066 29.3329C34.5117 28.4076 34.9083 28.9128 34.9083 28.9128C34.9083 28.9128 35.3426 29.3849 34.847 30.0882C34.3513 30.7964 33.6337 30.7445 33.6337 30.7445V30.7444ZM29.739 31.4148C29.1584 32.9349 27.7469 32.3165 27.7469 32.3165C27.7469 32.3165 27.5864 31.7736 28.0443 30.2488C28.5022 28.7286 29.5785 29.3235 29.5785 29.3235C29.5785 29.3235 30.3197 29.8947 29.739 31.4148ZM28.6863 25.0464C28.6863 25.0464 29.5643 22.7568 29.7768 23.8709C29.9893 24.985 27.9358 28.299 27.9358 28.299C27.9546 27.5531 28.6863 25.0464 28.6863 25.0464V25.0464ZM16.1291 30.7444C16.1668 29.2715 17.1298 28.6295 17.465 28.9505C17.8002 29.2715 17.6774 29.9654 17.0449 30.3998C16.417 30.8341 16.1291 30.7444 16.1291 30.7444ZM42.7353 30.5036C42.6881 30.0079 42.2397 30.192 42.2397 30.192C42.2397 30.192 41.5221 30.7491 40.8896 30.6877C40.2617 30.6216 40.46 29.2149 40.46 29.2149C40.46 29.2149 40.5968 27.9214 40.2239 27.8128C39.851 27.7042 39.393 28.1479 39.393 28.1479C39.393 28.1479 38.8219 28.7805 38.5527 29.5831L38.4772 29.6067C38.4772 29.6067 38.5622 28.1952 38.4631 27.8742C38.3875 27.7136 37.7077 27.7278 37.5991 28.011C37.4858 28.2943 36.9429 30.2723 36.9052 31.1032C36.9052 31.1032 35.843 32.0049 34.913 32.1559C33.983 32.3022 33.7611 31.7216 33.7611 31.7216C33.7611 31.7216 36.2868 31.0182 36.1971 29.0024C36.1121 26.9866 34.1624 27.7325 33.9405 27.8977C33.7281 28.0583 32.5904 28.7427 32.2552 30.6453C32.2458 30.7114 32.2222 30.9946 32.2222 30.9946C32.2222 30.9946 31.245 31.6508 30.7021 31.8254C30.7021 31.8254 32.2222 29.2668 30.3669 28.1007C29.5266 27.5956 28.8563 28.6578 28.8563 28.6578C28.8563 28.6578 31.3677 25.8631 30.8107 23.4979C30.5463 22.3744 29.9845 22.2517 29.4652 22.4358C28.6816 22.7474 28.3842 23.2005 28.3842 23.2005C28.3842 23.2005 27.3692 24.6734 27.1332 26.8639C26.8972 29.0543 26.5525 31.6979 26.5525 31.6979C26.5525 31.6979 26.071 32.1701 25.6272 32.1936C25.1835 32.2173 25.3818 30.8718 25.3818 30.8718C25.3818 30.8718 25.7264 28.8183 25.7028 28.4737C25.6792 28.129 25.6556 27.9402 25.2449 27.8175C24.8389 27.6947 24.3904 28.2141 24.3904 28.2141C24.3904 28.2141 23.215 29.9938 23.1158 30.2676L23.0544 30.3809L22.993 30.3053C22.993 30.3053 23.8239 27.8788 23.0308 27.8458C22.2377 27.808 21.7185 28.7097 21.7185 28.7097C21.7185 28.7097 20.8168 30.2203 20.779 30.3904L20.7177 30.3148C20.7177 30.3148 21.0906 28.5586 21.0151 28.1243C20.9396 27.69 20.5335 27.7797 20.5335 27.7797C20.5335 27.7797 20.0143 27.7184 19.8773 28.0535C19.7404 28.3887 19.2448 30.6028 19.1834 31.3061C19.1834 31.3061 17.8852 32.2362 17.0307 32.2456C16.1763 32.2597 16.266 31.7027 16.266 31.7027C16.266 31.7027 19.3958 30.6311 18.5414 28.5162C18.159 27.9733 17.7105 27.8033 17.0827 27.8128C16.4501 27.8269 15.7089 28.2093 15.199 29.347C14.9583 29.8899 14.8591 30.4045 14.8591 30.7963C14.8591 30.7963 14.2738 30.9096 13.9764 30.6594C13.679 30.4139 13.509 30.6594 13.509 30.6594C13.509 30.6594 12.9898 31.4006 13.4949 31.5988C14 31.7971 14.7836 31.9812 14.7836 31.9812C14.8545 32.3022 15.0669 32.8262 15.6853 33.2936C16.6106 33.997 18.395 33.185 18.395 33.185L19.1267 32.7507C19.1267 32.7507 19.1504 33.4069 19.6838 33.506C20.2173 33.6052 20.4391 33.4966 21.3644 31.2495C21.9073 30.0976 21.945 30.159 21.945 30.159L22.0064 30.1448C22.0064 30.1448 21.5863 32.3447 21.7468 32.9395C21.9073 33.5344 22.6107 33.473 22.6107 33.473C22.6107 33.473 22.993 33.6099 23.3046 32.5194C23.6162 31.4289 24.2063 30.2912 24.2063 30.2912H24.2819C24.2819 30.2912 24.0222 32.4816 24.4188 33.1992C24.8153 33.9168 25.8397 33.4116 25.8397 33.4116C25.8397 33.4116 26.5573 33.034 26.6705 32.9207C26.6705 32.9207 27.5203 33.6382 28.7241 33.506C31.4102 32.9773 32.3638 32.2597 32.3638 32.2597C32.3638 32.2597 32.8265 33.4258 34.2521 33.5343C35.8855 33.6571 36.7777 32.628 36.7777 32.628C36.7777 32.628 36.7636 33.2936 37.3348 33.5297C37.9059 33.7657 38.2884 32.5194 38.2884 32.5194L39.242 29.9654H39.327C39.327 29.9654 39.3742 31.5988 40.3183 31.8726C41.2672 32.1417 42.4899 31.1976 42.4899 31.1976C42.4899 31.1976 42.7873 30.9993 42.7354 30.5036" fill="#E24B31"/>
</g>
<defs>
<clipPath id="clip0_1_5870">
<rect width="31.1111" height="12.9422" fill="white" transform="translate(12.4445 21.5289)"/>
</clipPath>
</defs>
</svg>
