<svg width="57" height="56" viewBox="0 0 57 56" fill="none" xmlns="http://www.w3.org/2000/svg">
<g clip-path="url(#clip0_1_5866)">
<path d="M43.7804 30.5943C43.7045 29.849 43.1632 29.5167 42.6553 29.5167C42.4227 29.5167 42.2376 29.5832 42.1664 29.6116L42.0667 29.6544L41.9812 29.7161C41.8625 29.8062 41.6537 29.9297 41.4685 29.9961C41.4591 29.8442 41.4638 29.6496 41.4875 29.4882L41.4923 29.4597C41.6299 28.1495 41.3546 27.3852 40.6758 27.1906C40.5618 27.1573 40.4432 27.1431 40.3244 27.1431C39.9114 27.1431 39.5459 27.3425 39.3086 27.5134C39.1092 27.2618 38.7769 27.1194 38.3592 27.1194C37.7373 27.1194 37.2388 27.409 37.0585 27.8742C37.0395 27.9216 37.0157 27.9928 36.9872 28.0878C36.6217 27.2807 35.8764 26.9722 35.1833 26.9722C34.5282 26.9722 33.8921 27.2286 33.6547 27.4089C33.6452 27.4184 33.631 27.4232 33.6168 27.4374C32.9949 27.8789 32.5107 28.4343 32.1688 29.1036C32.0027 28.5245 31.6372 27.9833 30.9821 27.5751L30.9726 27.5656C30.9536 27.5561 30.9394 27.5467 30.9204 27.5371C31.5613 26.3978 32.1309 24.8882 31.7891 23.4498C31.4283 21.9165 30.5263 21.6886 30.0184 21.6886C29.8096 21.6886 29.5959 21.7266 29.3776 21.8025L29.3633 21.8073L29.349 21.812C28.3949 22.1871 27.9771 22.752 27.8869 22.8849C27.792 23.0273 26.7476 24.6129 26.496 26.9342C26.4676 27.1906 26.439 27.4564 26.4106 27.7223C26.2634 27.5134 26.0214 27.3235 25.6368 27.2048C25.5181 27.1669 25.3947 27.1526 25.2713 27.1526C24.7443 27.1526 24.3171 27.4754 24.0892 27.689L24.0845 27.6843C23.8851 27.3899 23.567 27.2143 23.2157 27.2001H23.1303C22.5701 27.2001 22.1239 27.4469 21.7963 27.727C21.5875 27.3615 21.2029 27.1336 20.752 27.1336C20.714 27.1336 20.6808 27.1336 20.6475 27.1384H20.5716C19.9497 27.1384 19.4608 27.4327 19.2614 27.9216C19.2471 27.9596 19.2281 28.0071 19.2091 28.0688C18.7202 27.4612 18.0983 27.1763 17.2628 27.1763H17.1822C16.6599 27.1858 15.3592 27.4042 14.5617 29.1986C14.4382 29.474 14.3433 29.7541 14.2721 30.0294C14.1292 29.9635 13.9737 29.9295 13.8164 29.9297C13.3986 29.9297 13.0853 30.167 12.9335 30.3902C12.81 30.5705 12.4159 31.2114 12.6106 31.838C12.7151 32.1751 12.9572 32.4314 13.299 32.5643C13.598 32.6831 13.9778 32.7969 14.2626 32.8777C14.4382 33.2764 14.7516 33.7369 15.307 34.1594C15.701 34.4585 16.2042 34.6104 16.7976 34.6104C17.7945 34.6104 18.7582 34.1784 18.8626 34.1309L18.9006 34.112L18.91 34.1024C19.1 34.3018 19.3516 34.4442 19.6696 34.5059C19.7645 34.5249 19.888 34.5392 20.0304 34.5392C20.5716 34.5392 20.9466 34.2638 21.2932 33.7464C21.578 34.1926 22.0954 34.4442 22.7078 34.4442H22.7125C22.7458 34.4442 22.779 34.468 22.817 34.468C23.1398 34.468 23.5433 34.354 23.8804 33.8129C24.1604 34.316 24.6731 34.6056 25.2808 34.6056C25.8219 34.6056 26.2919 34.3825 26.3773 34.3398L26.3963 34.3303C26.5767 34.2353 26.7287 34.1499 26.8473 34.0834C27.2508 34.297 27.8632 34.5344 28.6133 34.5344C28.7414 34.5344 28.8696 34.5297 28.9978 34.5155L29.031 34.5107L29.0642 34.5059C30.6545 34.1926 31.6894 33.8129 32.3065 33.5233C32.7385 34.0075 33.4269 34.4727 34.4095 34.5439C34.5187 34.5534 34.6326 34.5581 34.7418 34.5581C35.5488 34.5581 36.1944 34.3303 36.6692 34.0787C36.8211 34.2401 37.011 34.3872 37.2578 34.4869C37.405 34.5487 37.5569 34.5771 37.7135 34.5771C38.7009 34.5771 39.1614 33.3998 39.2896 33.0011L39.5269 32.365C39.7358 32.588 40.0017 32.7685 40.3387 32.8634C40.5239 32.9157 40.7232 32.9441 40.9274 32.9441C42.0145 32.9441 43.0588 32.1751 43.225 32.0469C43.524 31.8001 43.8516 31.2921 43.7804 30.5943Z" fill="white"/>
<path d="M33.8216 30.9162C33.8216 30.9162 33.6839 30.432 34.1966 29.4968C34.7045 28.5663 35.1033 29.0743 35.1033 29.0743C35.1033 29.0743 35.54 29.549 35.0416 30.2563C34.5432 30.9684 33.8216 30.9162 33.8216 30.9162V30.9162ZM29.9052 31.5903C29.3213 33.1189 27.9019 32.497 27.9019 32.497C27.9019 32.497 27.7405 31.9511 28.2009 30.4178C28.6615 28.8891 29.7437 29.4873 29.7437 29.4873C29.7437 29.4873 30.4891 30.0617 29.9052 31.5903ZM28.8466 25.1863C28.8466 25.1863 29.7295 22.8839 29.9432 24.0043C30.1568 25.1246 28.0918 28.4571 28.0918 28.4571C28.1108 27.7071 28.8466 25.1864 28.8466 25.1864V25.1863ZM16.2192 30.9161C16.2571 29.435 17.2255 28.7894 17.5626 29.1122C17.8996 29.435 17.7762 30.1329 17.1401 30.5696C16.5087 31.0064 16.2192 30.9161 16.2192 30.9161ZM42.9741 30.674C42.9266 30.1756 42.4757 30.3607 42.4757 30.3607C42.4757 30.3607 41.7541 30.9209 41.118 30.8592C40.4866 30.7927 40.686 29.3781 40.686 29.3781C40.686 29.3781 40.8236 28.0774 40.4486 27.9682C40.0736 27.859 39.6131 28.3052 39.6131 28.3052C39.6131 28.3052 39.0387 28.9413 38.7681 29.7483L38.6922 29.7721C38.6922 29.7721 38.7776 28.3527 38.6779 28.0299C38.602 27.8685 37.9184 27.8827 37.8092 28.1675C37.6952 28.4523 37.1493 30.4414 37.1114 31.277C37.1114 31.277 36.0433 32.1837 35.108 32.3356C34.1729 32.4827 33.9498 31.8988 33.9498 31.8988C33.9498 31.8988 36.4895 31.1915 36.3993 29.1644C36.3138 27.1374 34.3533 27.8874 34.1301 28.0536C33.9165 28.215 32.7725 28.9033 32.4354 30.8165C32.4259 30.8829 32.4022 31.1678 32.4022 31.1678C32.4022 31.1678 31.4195 31.8276 30.8736 32.0032C30.8736 32.0032 32.4022 29.4303 30.5365 28.2577C29.6916 27.7498 29.0175 28.8179 29.0175 28.8179C29.0175 28.8179 31.5429 26.0076 30.9828 23.6292C30.717 22.4994 30.152 22.376 29.6299 22.5611C28.8418 22.8745 28.5427 23.3302 28.5427 23.3302C28.5427 23.3302 27.5221 24.8113 27.2847 27.014C27.0474 29.2166 26.7009 31.875 26.7009 31.875C26.7009 31.875 26.2166 32.3498 25.7704 32.3735C25.3242 32.3973 25.5236 31.0443 25.5236 31.0443C25.5236 31.0443 25.8701 28.9793 25.8464 28.6328C25.8227 28.2862 25.7989 28.0963 25.3859 27.9729C24.9776 27.8494 24.5266 28.3717 24.5266 28.3717C24.5266 28.3717 23.3446 30.1613 23.2449 30.4367L23.1832 30.5506L23.1215 30.4747C23.1215 30.4747 23.957 28.0346 23.1595 28.0014C22.362 27.9634 21.8398 28.8701 21.8398 28.8701C21.8398 28.8701 20.933 30.3892 20.8951 30.5601L20.8334 30.4841C20.8334 30.4841 21.2084 28.7182 21.1325 28.2814C21.0565 27.8447 20.6483 27.9349 20.6483 27.9349C20.6483 27.9349 20.1261 27.8732 19.9884 28.2103C19.8507 28.5473 19.3523 30.7737 19.2906 31.481C19.2906 31.481 17.9851 32.4163 17.1258 32.4257C16.2666 32.44 16.3568 31.8798 16.3568 31.8798C16.3568 31.8798 19.5041 30.8022 18.6449 28.6755C18.2604 28.1295 17.8094 27.9586 17.1781 27.9682C16.542 27.9824 15.7967 28.3669 15.284 29.511C15.0419 30.0569 14.9422 30.5743 14.9422 30.9684C14.9422 30.9684 14.3535 31.0823 14.0545 30.8307C13.7554 30.5838 13.5845 30.8307 13.5845 30.8307C13.5845 30.8307 13.0623 31.576 13.5703 31.7753C14.0782 31.9748 14.8662 32.1599 14.8662 32.1599C14.9375 32.4827 15.1511 33.0096 15.7729 33.4796C16.7034 34.1869 18.4978 33.3704 18.4978 33.3704L19.2336 32.9337C19.2336 32.9337 19.2574 33.5936 19.7938 33.6932C20.3302 33.7929 20.5533 33.6837 21.4838 31.4241C22.0297 30.2658 22.0676 30.3275 22.0676 30.3275L22.1293 30.3132C22.1293 30.3132 21.7069 32.5254 21.8683 33.1236C22.0297 33.7218 22.737 33.66 22.737 33.66C22.737 33.66 23.1215 33.7976 23.4348 32.7011C23.7482 31.6045 24.3416 30.4604 24.3416 30.4604H24.4175C24.4175 30.4604 24.1564 32.6631 24.5552 33.3847C24.9539 34.1063 25.984 33.5983 25.984 33.5983C25.984 33.5983 26.7056 33.2185 26.8195 33.1046C26.8195 33.1046 27.674 33.8262 28.8845 33.6932C31.5857 33.1615 32.5446 32.44 32.5446 32.44C32.5446 32.44 33.0098 33.6125 34.4435 33.7217C36.086 33.8451 36.9832 32.8102 36.9832 32.8102C36.9832 32.8102 36.9689 33.4796 37.5434 33.717C38.1177 33.9543 38.5023 32.7011 38.5023 32.7011L39.4612 30.1329H39.5467C39.5467 30.1329 39.5941 31.7754 40.5435 32.0507C41.4977 32.3213 42.7273 31.3719 42.7273 31.3719C42.7273 31.3719 43.0263 31.1725 42.9741 30.674" fill="#E24B31"/>
</g>
<defs>
<clipPath id="clip0_1_5866">
<rect width="31.2849" height="13.0145" fill="white" transform="translate(12.514 21.6492)"/>
</clipPath>
</defs>
</svg>
