<?xml version="1.0" encoding="UTF-8"?>
<svg id="Layer_1" xmlns="http://www.w3.org/2000/svg" version="1.1" viewBox="0 0 56 56">
  <!-- Generator: Adobe Illustrator 30.0.0, SVG Export Plug-In . SVG Version: 2.1.1 Build 123)  -->
  <path d="M44,36.79c-1.16.3-1.88.01-2.53-.96-1.45-2.17-3.05-4.24-4.59-6.36-.2-.27-.41-.54-.66-.88-1.83,2.47-3.65,4.81-5.37,7.26-.61.87-1.26,1.25-2.4.94l6.87-9.22-6.4-8.33c1.1-.21,1.86-.1,2.53.88,1.49,2.17,3.13,4.24,4.77,6.43,1.65-2.18,3.27-4.25,4.8-6.41.62-.87,1.28-1.2,2.38-.88-.84,1.11-1.66,2.2-2.48,3.29-1.11,1.46-2.21,2.94-3.36,4.37-.41.51-.34.84.02,1.32,2.13,2.81,4.24,5.64,6.41,8.53ZM12.01,27.43c.18-.92.31-1.86.56-2.76,1.53-5.47,7.81-7.74,12.12-4.35,2.53,1.99,3.15,4.79,3.03,7.95h-14.24c-.21,5.67,3.87,9.09,9.07,7.35,1.82-.61,2.9-2.04,3.44-3.83.27-.9.72-1.04,1.57-.78-.43,2.24-1.41,4.1-3.45,5.27-3.06,1.75-7.44,1.18-9.74-1.25-1.36-1.43-1.93-3.21-2.19-5.13-.04-.31-.12-.61-.18-.91,0-.52,0-1.03,0-1.55ZM13.51,27.05h12.87c-.08-4.1-2.64-7.01-6.13-7.04-3.83-.03-6.58,2.81-6.75,7.04Z"/>
</svg>