<?xml version="1.0" encoding="UTF-8"?>
<svg id="svg9" xmlns="http://www.w3.org/2000/svg" xmlns:svg="http://www.w3.org/2000/svg" version="1.1" viewBox="0 0 56 56">
  <!-- Generator: Adobe Illustrator 30.0.0, SVG Export Plug-In . SVG Version: 2.1.1 Build 123)  -->
  <defs>
    <style>
      .st0 {
        fill: #0866ff;
      }

      .st1 {
        fill: #fff;
      }
    </style>
  </defs>
  <g id="g21">
    <g id="g27">
      <path id="path29" class="st0" d="M44,28c0-8.84-7.16-16-16-16s-16,7.16-16,16c0,7.5,5.17,13.8,12.13,15.53v-10.64h-3.3v-4.89h3.3v-2.11c0-5.45,2.46-7.97,7.81-7.97,1.01,0,2.76.2,3.48.4v4.43c-.38-.04-1.03-.06-1.85-.06-2.62,0-3.64.99-3.64,3.58v1.73h5.23l-.9,4.89h-4.33v10.99c7.92-.96,14.06-7.7,14.06-15.88"/>
    </g>
    <g id="g31">
      <path id="path33" class="st1" d="M34.27,32.89l.9-4.89h-5.23v-1.73c0-2.58,1.01-3.58,3.64-3.58.81,0,1.47.02,1.85.06v-4.43c-.72-.2-2.46-.4-3.48-.4-5.35,0-7.81,2.52-7.81,7.97v2.11h-3.3v4.89h3.3v10.64c1.24.31,2.53.47,3.87.47.66,0,1.3-.04,1.94-.12v-10.99h4.33Z"/>
    </g>
  </g>
</svg>