<svg width="57" height="56" viewBox="0 0 57 56" fill="none" xmlns="http://www.w3.org/2000/svg">
<path d="M31.6935 23.6817L28.5648 26.5786L25.6605 20.7507L27.1609 17.3997C27.5401 16.7312 28.1602 16.7224 28.5394 17.3997L31.6935 23.6817Z" fill="#FFA000"/>
<path d="M28.5661 26.5774L16.8628 37.4022L25.6618 20.7507L28.5661 26.5774Z" fill="#F57F17"/>
<path d="M35.1241 19.2511C35.6847 18.7201 36.2618 18.8992 36.4076 19.6534L39.4501 37.2559L29.3587 43.2806C29.0049 43.4774 28.0664 43.5543 28.0664 43.5543C28.0664 43.5543 27.2129 43.4509 26.8857 43.2718L16.8628 37.4022L35.1241 19.2511Z" fill="#FFCA28"/>
<path d="M25.6618 20.7507L16.8628 37.4022L20.7842 13.0637C20.9313 12.3095 21.3612 12.2326 21.7493 12.901L25.6618 20.7507Z" fill="#FFA000"/>
</svg>
