<svg width="57" height="56" viewBox="0 0 57 56" fill="none" xmlns="http://www.w3.org/2000/svg">
<path d="M43.2089 26.6139L29.5496 13.0312C28.7634 12.2489 27.4876 12.2489 26.7005 13.0312L23.864 15.8518L27.4622 19.43C28.2983 19.149 29.2571 19.3375 29.9237 20.0003C30.5934 20.6674 30.7816 21.629 30.4922 22.4632L33.9598 25.9117C34.7987 25.6243 35.7667 25.8102 36.4368 26.4776C37.3733 27.4085 37.3733 28.9173 36.4368 29.8488C35.5001 30.7804 33.9829 30.7804 33.0457 29.8488C32.3413 29.1476 32.1673 28.1189 32.5239 27.2559L29.29 24.04L29.2897 32.5028C29.5241 32.6181 29.7382 32.7704 29.9237 32.9537C30.8601 33.8846 30.8601 35.3935 29.9237 36.3257C28.9869 37.2569 27.469 37.2569 26.5337 36.3257C25.5972 35.3935 25.5972 33.8847 26.5337 32.9538C26.7581 32.7306 27.0248 32.5537 27.3183 32.4336V23.8919C27.0243 23.7725 26.7575 23.5956 26.5337 23.3716C25.8241 22.667 25.6535 21.6317 26.0171 20.7653L22.4702 17.2377L13.1042 26.551C12.3172 27.334 12.3172 28.6029 13.1042 29.3853L26.7638 42.9682C27.5502 43.7506 28.8258 43.7506 29.6131 42.9682L43.2088 29.4484C43.9955 28.6657 43.9955 27.3961 43.2088 26.6139" fill="#DE4C36"/>
</svg>
