<svg width="57" height="56" viewBox="0 0 57 56" fill="none" xmlns="http://www.w3.org/2000/svg">
<g clip-path="url(#clip0_1_5854)">
<path d="M12.514 12.514H43.7989V43.7989H12.514V12.514Z" fill="#6762A5"/>
<path d="M30.2525 37.1652V27.3117C30.2525 27.3117 30.8932 24.9541 22.3575 28.2766C22.3425 28.3191 22.3425 19.1639 22.3425 19.1639L25.1318 19.1464V25.0117C25.1318 25.0117 32.9405 21.9357 32.9405 27.3443V37.1652H30.2525ZM31.8418 22.6966H28.8835C29.9484 21.3951 30.912 19.1639 30.912 19.1639H33.9704C33.9717 19.1639 33.4473 20.618 31.8418 22.6966ZM22.3925 37.149V31.5377L25.1982 34.3433L22.3925 37.149Z" fill="white"/>
</g>
<defs>
<clipPath id="clip0_1_5854">
<rect width="31.2849" height="31.2849" fill="white" transform="translate(12.514 12.514)"/>
</clipPath>
</defs>
</svg>
