<svg width="57" height="56" viewBox="0 0 57 56" fill="none" xmlns="http://www.w3.org/2000/svg">
<path d="M28.1563 42.7647C36.3562 42.7647 43.0035 36.1543 43.0035 28C43.0035 19.8458 36.3562 13.2354 28.1563 13.2354C19.9565 13.2354 13.3093 19.8458 13.3093 28C13.3093 36.1543 19.9565 42.7647 28.1563 42.7647Z" fill="white"/>
<path d="M28.1564 12.4444C19.5173 12.4444 12.514 19.4089 12.514 28C12.514 36.5911 19.5173 43.5556 28.1564 43.5556C36.7956 43.5556 43.7989 36.5911 43.7989 28C43.7989 19.4089 36.7956 12.4444 28.1564 12.4444ZM28.1564 14.0264C35.917 14.0264 42.2082 20.2826 42.2082 28C42.2082 35.7174 35.917 41.9736 28.1564 41.9736C20.3959 41.9736 14.1047 35.7174 14.1047 28C14.1047 20.2826 20.3959 14.0264 28.1564 14.0264Z" fill="#4000BF"/>
<path fill-rule="evenodd" clip-rule="evenodd" d="M28.3332 16.9266C34.4831 16.9266 39.4686 21.8843 39.4686 28.0001C39.4686 34.1158 34.4831 39.0735 28.3332 39.0735C22.1834 39.0735 17.1979 34.1158 17.1979 28.0001C17.1979 26.5054 17.4957 25.0799 18.0355 23.7791C18.8236 24.8464 20.0946 25.5393 21.5283 25.5393C23.92 25.5393 25.8587 23.6113 25.8587 21.2329C25.8587 19.8072 25.162 18.5433 24.0886 17.7595C25.3968 17.2227 26.8302 16.9266 28.3332 16.9266Z" fill="url(#paint0_linear_1_1520)"/>
<defs>
<linearGradient id="paint0_linear_1_1520" x1="28.3332" y1="39.0735" x2="28.3332" y2="16.9266" gradientUnits="userSpaceOnUse">
<stop stop-color="#7400E1"/>
<stop offset="1" stop-color="#4000BF"/>
</linearGradient>
</defs>
</svg>
