<svg width="56" height="56" viewBox="0 0 56 56" fill="none" xmlns="http://www.w3.org/2000/svg">
<path d="M27.9999 42.7647C36.1542 42.7647 42.7646 36.1544 42.7646 28C42.7646 19.8458 36.1542 13.2355 27.9999 13.2355C19.8457 13.2355 13.2353 19.8458 13.2353 28C13.2353 36.1544 19.8457 42.7647 27.9999 42.7647Z" fill="#1E2235"/>
<path d="M28 12.4445C19.4089 12.4445 12.4445 19.4089 12.4445 28C12.4445 36.5912 19.4089 43.5556 28 43.5556C36.5912 43.5556 43.5556 36.5912 43.5556 28C43.5556 19.4089 36.5912 12.4445 28 12.4445ZM28 14.0264C35.7174 14.0264 41.9737 20.2826 41.9737 28C41.9737 35.7174 35.7174 41.9737 28 41.9737C20.2826 41.9737 14.0264 35.7174 14.0264 28C14.0264 20.2826 20.2826 14.0264 28 14.0264Z" fill="#4000BF"/>
<path fill-rule="evenodd" clip-rule="evenodd" d="M28.1758 16.9266C34.2915 16.9266 39.2493 21.8844 39.2493 28.0001C39.2493 34.1158 34.2915 39.0735 28.1758 39.0735C22.0601 39.0735 17.1024 34.1158 17.1024 28.0001C17.1024 26.5054 17.3985 25.08 17.9353 23.7791C18.719 24.8464 19.983 25.5393 21.4087 25.5393C23.7871 25.5393 25.7151 23.6113 25.7151 21.233C25.7151 19.8072 25.0222 18.5433 23.9548 17.7595C25.2557 17.2228 26.6812 16.9266 28.1758 16.9266Z" fill="url(#paint0_linear_1_1525)"/>
<defs>
<linearGradient id="paint0_linear_1_1525" x1="28.1758" y1="39.0735" x2="28.1758" y2="16.9266" gradientUnits="userSpaceOnUse">
<stop stop-color="#7400E1"/>
<stop offset="1" stop-color="#4000BF"/>
</linearGradient>
</defs>
</svg>
