<?xml version="1.0" encoding="UTF-8"?>
<svg id="Layer_1" xmlns="http://www.w3.org/2000/svg" xmlns:xlink="http://www.w3.org/1999/xlink" version="1.1" viewBox="0 0 56 56">
  <!-- Generator: Adobe Illustrator 30.0.0, SVG Export Plug-In . SVG Version: 2.1.1 Build 123)  -->
  <defs>
    <style>
      .st0 {
        fill: url(#radial-gradient);
      }

      .st1 {
        fill: #fff;
      }

      .st2 {
        fill: url(#radial-gradient1);
      }
    </style>
    <radialGradient id="radial-gradient" cx="-502.51" cy="-296.37" fx="-502.51" fy="-296.37" r="16" gradientTransform="translate(-525.98 -949.51) rotate(-90) scale(1.98 -1.84)" gradientUnits="userSpaceOnUse">
      <stop offset="0" stop-color="#fd5"/>
      <stop offset=".1" stop-color="#fd5"/>
      <stop offset=".5" stop-color="#ff543e"/>
      <stop offset="1" stop-color="#c837ab"/>
    </radialGradient>
    <radialGradient id="radial-gradient1" cx="312.79" cy="163.81" fx="312.79" fy="163.81" r="16" gradientTransform="translate(-634.5 -139.94) rotate(78.68) scale(.89 -3.65)" gradientUnits="userSpaceOnUse">
      <stop offset="0" stop-color="#3771c8"/>
      <stop offset=".13" stop-color="#3771c8"/>
      <stop offset="1" stop-color="#60f" stop-opacity="0"/>
    </radialGradient>
  </defs>
  <path class="st0" d="M28.01,12c-6.68,0-8.63,0-9.01.04-1.37.11-2.22.33-3.15.79-.72.36-1.28.77-1.84,1.35-1.02,1.05-1.63,2.35-1.85,3.89-.11.75-.14.9-.15,4.72,0,1.27,0,2.95,0,5.2,0,6.67,0,8.63.04,9.01.11,1.33.32,2.17.76,3.09.85,1.76,2.46,3.08,4.37,3.57.66.17,1.39.26,2.32.31.4.02,4.43.03,8.48.03s8.08,0,8.47-.02c1.08-.05,1.71-.14,2.41-.32,1.92-.49,3.5-1.79,4.37-3.58.43-.9.65-1.77.75-3.03.02-.28.03-4.67.03-9.06s0-8.78-.03-9.05c-.1-1.28-.32-2.15-.77-3.06-.37-.75-.78-1.31-1.37-1.88-1.06-1.01-2.35-1.63-3.9-1.85-.75-.11-.9-.14-4.72-.15h-5.21Z"/>
  <path class="st2" d="M28.01,12c-6.68,0-8.63,0-9.01.04-1.37.11-2.22.33-3.15.79-.72.36-1.28.77-1.84,1.35-1.02,1.05-1.63,2.35-1.85,3.89-.11.75-.14.9-.15,4.72,0,1.27,0,2.95,0,5.2,0,6.67,0,8.63.04,9.01.11,1.33.32,2.17.76,3.09.85,1.76,2.46,3.08,4.37,3.57.66.17,1.39.26,2.32.31.4.02,4.43.03,8.48.03s8.08,0,8.47-.02c1.08-.05,1.71-.14,2.41-.32,1.92-.49,3.5-1.79,4.37-3.58.43-.9.65-1.77.75-3.03.02-.28.03-4.67.03-9.06s0-8.78-.03-9.05c-.1-1.28-.32-2.15-.77-3.06-.37-.75-.78-1.31-1.37-1.88-1.06-1.01-2.35-1.63-3.9-1.85-.75-.11-.9-.14-4.72-.15h-5.21Z"/>
  <path class="st1" d="M28,16.19c-3.21,0-3.61.01-4.87.07-1.26.06-2.12.26-2.87.55-.78.3-1.44.71-2.09,1.36-.66.66-1.06,1.32-1.36,2.09-.29.75-.49,1.61-.55,2.87-.06,1.26-.07,1.66-.07,4.87s.01,3.61.07,4.87c.06,1.26.26,2.12.55,2.87.3.78.71,1.44,1.36,2.09.66.66,1.32,1.06,2.09,1.36.75.29,1.61.49,2.87.55,1.26.06,1.66.07,4.87.07s3.61-.01,4.87-.07c1.26-.06,2.12-.26,2.87-.55.78-.3,1.43-.71,2.09-1.36.66-.66,1.06-1.32,1.36-2.09.29-.75.49-1.61.55-2.87.06-1.26.07-1.66.07-4.87s-.01-3.61-.07-4.87c-.06-1.26-.26-2.12-.55-2.87-.3-.78-.71-1.44-1.36-2.09-.66-.66-1.31-1.06-2.09-1.36-.75-.29-1.61-.49-2.87-.55-1.26-.06-1.66-.07-4.87-.07h0ZM26.94,18.32c.31,0,.67,0,1.06,0,3.15,0,3.53.01,4.77.07,1.15.05,1.78.25,2.19.41.55.21.94.47,1.36.88.41.41.67.81.88,1.36.16.42.35,1.04.41,2.19.06,1.25.07,1.62.07,4.77s-.01,3.53-.07,4.77c-.05,1.15-.25,1.78-.41,2.19-.21.55-.47.94-.88,1.36-.41.41-.81.67-1.36.88-.42.16-1.04.35-2.19.41-1.25.06-1.62.07-4.77.07s-3.53-.01-4.77-.07c-1.15-.05-1.78-.25-2.19-.41-.55-.21-.95-.47-1.36-.88-.41-.41-.67-.81-.88-1.36-.16-.42-.35-1.04-.41-2.19-.06-1.25-.07-1.62-.07-4.77s.01-3.53.07-4.77c.05-1.15.25-1.78.41-2.19.21-.55.47-.95.88-1.36.41-.41.81-.67,1.36-.88.42-.16,1.04-.35,2.19-.41,1.09-.05,1.51-.06,3.71-.07h0ZM34.31,20.28c-.78,0-1.42.63-1.42,1.42s.63,1.42,1.42,1.42,1.42-.63,1.42-1.42-.63-1.42-1.42-1.42h0ZM28,21.93c-3.35,0-6.07,2.72-6.07,6.07s2.72,6.07,6.07,6.07c3.35,0,6.07-2.72,6.07-6.07s-2.72-6.07-6.07-6.07h0ZM28,24.06c2.17,0,3.94,1.76,3.94,3.94s-1.76,3.94-3.94,3.94-3.94-1.76-3.94-3.94,1.76-3.94,3.94-3.94Z"/>
</svg>