<svg width="56" height="56" viewBox="0 0 56 56" fill="none" xmlns="http://www.w3.org/2000/svg">
<path d="M40.7353 12.4445H15.2647C13.7071 12.4445 12.4444 13.7071 12.4444 15.2648V40.7353C12.4444 42.2929 13.7071 43.5556 15.2647 43.5556H40.7353C42.2929 43.5556 43.5556 42.2929 43.5556 40.7353V15.2648C43.5556 13.7071 42.2929 12.4445 40.7353 12.4445Z" fill="#DC395F"/>
<path d="M22.8418 22.2329C23.876 22.2329 24.7423 21.4223 24.7423 20.3599C24.7423 19.2983 23.876 18.4878 22.8418 18.4878C21.8076 18.4878 20.9414 19.2983 20.9414 20.3599C20.9414 21.4222 21.8076 22.2329 22.8418 22.2329ZM18.9011 32.2614C18.7894 32.7366 18.7334 33.2497 18.7334 33.6682C18.7334 35.3175 19.6277 36.4123 21.5283 36.4123C23.1045 36.4123 24.3824 35.4763 25.3024 33.9649L24.7406 36.2196H27.8706L29.6595 29.0447C30.1067 27.2281 30.9731 26.2852 32.2868 26.2852C33.3209 26.2852 33.9636 26.9283 33.9636 27.9899C33.9636 28.2975 33.9357 28.6326 33.8239 28.9961L32.9015 32.294C32.7617 32.7692 32.706 33.2446 32.706 33.6914C32.706 35.2571 33.6281 36.4022 35.5566 36.4022C37.2056 36.4022 38.5191 35.3407 39.2458 32.7972L38.0162 32.3225C37.4013 34.0265 36.8702 34.3346 36.4509 34.3346C36.0317 34.3346 35.808 34.0553 35.808 33.4966C35.808 33.2451 35.8642 32.9659 35.9478 32.6298L36.8424 29.4168C37.0659 28.6624 37.1498 27.9934 37.1498 27.3787C37.1498 24.9751 35.6964 23.7207 33.9357 23.7207C32.2868 23.7207 30.6097 25.2081 29.7714 26.7735L30.3861 23.9637H25.6071L24.9363 26.4385H27.1723L25.7954 31.951C24.7141 34.3546 22.728 34.3936 22.4788 34.3378C22.0694 34.2455 21.8077 34.09 21.8077 33.5582C21.8077 33.2514 21.8636 32.8106 22.0033 32.2792L24.0997 23.9637H18.7894L18.1186 26.4385H20.3264L18.9012 32.2614" fill="#1E2235"/>
</svg>
