<svg width="57" height="56" viewBox="0 0 57 56" fill="none" xmlns="http://www.w3.org/2000/svg">
<path d="M40.9628 12.4444H15.35C13.7837 12.4444 12.514 13.7071 12.514 15.2647V40.7353C12.514 42.2929 13.7837 43.5556 15.35 43.5556H40.9628C42.5292 43.5556 43.7989 42.2929 43.7989 40.7353V15.2647C43.7989 13.7071 42.5292 12.4444 40.9628 12.4444Z" fill="#DC395F"/>
<path d="M22.9694 22.2329C24.0093 22.2329 24.8806 21.4223 24.8806 20.3599C24.8806 19.2982 24.0093 18.4878 22.9694 18.4878C21.9294 18.4878 21.0584 19.2982 21.0584 20.3599C21.0584 21.4222 21.9294 22.2329 22.9694 22.2329ZM19.0067 32.2614C18.8944 32.7366 18.838 33.2497 18.838 33.6682C18.838 35.3175 19.7374 36.4123 21.6486 36.4123C23.2336 36.4123 24.5186 35.4763 25.4438 33.9649L24.8788 36.2196H28.0263L29.8252 29.0447C30.2749 27.2281 31.1461 26.2851 32.4671 26.2851C33.507 26.2851 34.1534 26.9283 34.1534 27.9899C34.1534 28.2975 34.1252 28.6326 34.0128 28.9961L33.0853 32.294C32.9447 32.7691 32.8888 33.2446 32.8888 33.6914C32.8888 35.2571 33.8159 36.4022 35.7552 36.4022C37.4135 36.4022 38.7343 35.3407 39.4651 32.7972L38.2286 32.3225C37.6102 34.0265 37.0762 34.3345 36.6546 34.3345C36.2329 34.3345 36.0081 34.0553 36.0081 33.4966C36.0081 33.245 36.0645 32.9659 36.1486 32.6298L37.0482 29.4168C37.2729 28.6623 37.3574 27.9933 37.3574 27.3786C37.3574 24.9751 35.8958 23.7207 34.1252 23.7207C32.4671 23.7207 30.7807 25.208 29.9377 26.7734L30.5558 23.9637H25.7502L25.0756 26.4385H27.3241L25.9395 31.951C24.8522 34.3546 22.855 34.3936 22.6043 34.3378C22.1927 34.2455 21.9295 34.09 21.9295 33.5582C21.9295 33.2514 21.9857 32.8106 22.1263 32.2791L24.2343 23.9637H18.8944L18.2198 26.4385H20.4399L19.0068 32.2614" fill="white"/>
</svg>
