<svg width="57" height="56" viewBox="0 0 57 56" fill="none" xmlns="http://www.w3.org/2000/svg">
<path fill-rule="evenodd" clip-rule="evenodd" d="M42.2666 21.2487L42.3943 21.545C43.3307 23.5979 43.7989 25.7566 43.7989 28C43.7989 36.5714 36.7757 43.5556 28.1564 43.5556C19.5371 43.5556 12.514 36.5714 12.514 28C12.514 19.4286 19.5371 12.4444 28.1564 12.4444C30.689 12.4444 33.0939 13.037 35.3073 14.1376L35.6052 14.2857L35.3498 14.4973C34.7114 15.0053 34.2219 15.6402 33.9027 16.381L33.8175 16.5926L33.626 16.5079C31.9021 15.7037 30.0719 15.2804 28.1564 15.2804C21.0907 15.2804 15.3658 20.9735 15.3658 28C15.3658 35.0264 21.0907 40.7196 28.1564 40.7196C35.2221 40.7196 40.9471 35.0052 40.9471 28C40.9471 26.3281 40.6279 24.6772 39.9681 23.1323L39.883 22.9206L40.0957 22.8359C40.8406 22.5608 41.5216 22.0952 42.0538 21.5026L42.2666 21.2487ZM38.3932 21.545C40.1915 21.545 41.6494 20.0952 41.6494 18.3069C41.6494 16.5185 40.1915 15.0688 38.3932 15.0688C36.5949 15.0688 35.137 16.5185 35.137 18.3069C35.137 20.0952 36.5949 21.545 38.3932 21.545ZM28.1563 20.9101C24.2191 20.9101 21.0268 24.0847 21.0268 28.0001C21.0268 31.9154 24.2191 35.09 28.1563 35.09C32.0935 35.09 35.2859 31.9154 35.2859 28.0001C35.2859 24.0847 32.0935 20.9101 28.1563 20.9101Z" fill="#3880FF"/>
</svg>
