<svg width="56" height="56" viewBox="0 0 56 56" fill="none" xmlns="http://www.w3.org/2000/svg">
<path fill-rule="evenodd" clip-rule="evenodd" d="M42.0318 21.2487L42.1588 21.545C43.09 23.5979 43.5556 25.7566 43.5556 28C43.5556 36.5714 36.5714 43.5556 28 43.5556C19.4286 43.5556 12.4445 36.5714 12.4445 28C12.4445 19.4286 19.4286 12.4445 28 12.4445C30.5186 12.4445 32.91 13.0371 35.1111 14.1376L35.4074 14.2857L35.1534 14.4974C34.5186 15.0053 34.0318 15.6402 33.7143 16.381L33.6297 16.5926L33.4392 16.5079C31.7249 15.7037 29.9048 15.2804 28 15.2804C20.9736 15.2804 15.2804 20.9736 15.2804 28C15.2804 35.0265 20.9736 40.7196 28 40.7196C35.0265 40.7196 40.7196 35.0053 40.7196 28C40.7196 26.3281 40.4022 24.6772 39.746 23.1323L39.6614 22.9206L39.873 22.836C40.6137 22.5608 41.291 22.0953 41.8202 21.5027L42.0318 21.2487ZM38.1799 21.545C39.9683 21.545 41.418 20.0953 41.418 18.3069C41.418 16.5186 39.9683 15.0688 38.1799 15.0688C36.3916 15.0688 34.9418 16.5186 34.9418 18.3069C34.9418 20.0953 36.3916 21.545 38.1799 21.545ZM27.9999 20.9101C24.0846 20.9101 20.91 24.0847 20.91 28.0001C20.91 31.9154 24.0846 35.09 27.9999 35.09C31.9152 35.09 35.0898 31.9154 35.0898 28.0001C35.0898 24.0847 31.9152 20.9101 27.9999 20.9101Z" fill="#3880FF"/>
</svg>
