<svg width="57" height="56" viewBox="0 0 57 56" fill="none" xmlns="http://www.w3.org/2000/svg">
<path d="M43.215 19.5427C43.2262 19.5839 43.2319 19.6264 43.232 19.6691V26.3064C43.232 26.3916 43.2094 26.4753 43.1664 26.549C43.1235 26.6227 43.0618 26.6838 42.9874 26.7262L37.3855 29.9335V36.2908C37.3855 36.4638 37.2931 36.6235 37.1422 36.7106L25.4487 43.4047C25.4219 43.4198 25.3927 43.4295 25.3635 43.4398C25.3526 43.4434 25.3422 43.4501 25.3307 43.4531C25.2489 43.4745 25.163 43.4745 25.0813 43.4531C25.0679 43.4495 25.0557 43.4422 25.043 43.4374C25.0162 43.4277 24.9882 43.4192 24.9627 43.4047L13.2716 36.7106C13.1973 36.6681 13.1356 36.607 13.0927 36.5333C13.0497 36.4596 13.0271 36.3759 13.027 36.2908V16.3789C13.027 16.3353 13.0331 16.293 13.0441 16.2519C13.0477 16.2379 13.0562 16.2252 13.0611 16.2113C13.0702 16.1859 13.0787 16.1599 13.0921 16.1363C13.1013 16.1206 13.1146 16.1079 13.1256 16.0934C13.1396 16.074 13.1524 16.054 13.1688 16.0371C13.1828 16.0232 13.201 16.0129 13.2168 16.0008C13.2345 15.9863 13.2503 15.9706 13.2704 15.9591H13.271L19.1168 12.612C19.1908 12.5696 19.2747 12.5473 19.3601 12.5473C19.4455 12.5473 19.5294 12.5696 19.6035 12.612L25.4493 15.9591H25.4505C25.47 15.9712 25.4864 15.9863 25.5041 16.0002C25.5199 16.0123 25.5375 16.0232 25.5515 16.0365C25.5685 16.054 25.5807 16.074 25.5953 16.0934C25.6056 16.1079 25.6196 16.1206 25.6281 16.1363C25.6421 16.1605 25.65 16.1859 25.6598 16.2113C25.6646 16.2252 25.6732 16.2379 25.6768 16.2525C25.688 16.2937 25.6937 16.3362 25.6938 16.3789V28.8156L30.5652 26.0263V19.6685C30.5652 19.6262 30.5713 19.5832 30.5822 19.5427C30.5865 19.5282 30.5944 19.5155 30.5992 19.5015C30.609 19.4761 30.6175 19.4501 30.6309 19.4265C30.64 19.4108 30.6534 19.3981 30.6637 19.3836C30.6783 19.3642 30.6905 19.3443 30.7075 19.3273C30.7215 19.3134 30.7392 19.3031 30.755 19.291C30.7732 19.2765 30.789 19.2608 30.8085 19.2493H30.8091L36.6556 15.9022C36.7296 15.8598 36.8135 15.8375 36.8989 15.8375C36.9843 15.8375 37.0682 15.8598 37.1422 15.9022L42.9881 19.2493C43.0087 19.2614 43.0246 19.2765 43.0428 19.2904C43.058 19.3025 43.0757 19.3134 43.0896 19.3267C43.1067 19.3443 43.1188 19.3642 43.1334 19.3836C43.1444 19.3981 43.1578 19.4108 43.1663 19.4265C43.1803 19.4501 43.1882 19.4761 43.1979 19.5015C43.2034 19.5155 43.2113 19.5282 43.215 19.5427ZM42.2575 26.0263V20.5069L40.2117 21.6781L37.3855 23.2963V28.8156L42.2581 26.0263H42.2575ZM36.4116 36.0107V30.4877L33.6317 32.0665L25.6932 36.572V42.1471L36.4116 36.0107ZM14.0015 17.2167V36.0107L24.7187 42.1465V36.5727L19.1199 33.4216L19.118 33.4204L19.1156 33.4192C19.0967 33.4083 19.0809 33.3925 19.0633 33.3792C19.0481 33.3671 19.0304 33.3575 19.0171 33.3441L19.0158 33.3423C19 33.3272 18.9891 33.3085 18.9757 33.2915C18.9635 33.2752 18.9489 33.2613 18.9392 33.2443L18.9386 33.2425C18.9276 33.2244 18.9209 33.2026 18.913 33.182C18.9051 33.1639 18.8948 33.1469 18.8899 33.1276V33.127C18.8838 33.104 18.8826 33.0798 18.8802 33.0562C18.8777 33.038 18.8729 33.0199 18.8729 33.0018V20.0061L16.0473 18.3873L14.0015 17.2173V17.2167ZM19.3607 13.5908L14.49 16.3789L19.3595 19.167L24.2296 16.3783L19.3595 13.5908H19.3607ZM21.8937 30.991L24.7193 29.3734V17.2167L22.6736 18.3879L19.8474 20.0061V32.1627L21.8937 30.991ZM36.8989 16.881L32.0288 19.6691L36.8989 22.4572L41.7684 19.6685L36.8989 16.881ZM36.4116 23.2963L33.5854 21.6781L31.5397 20.5069V26.0263L34.3653 27.6439L36.4116 28.8156V23.2963ZM25.2054 35.7342L32.3487 31.6788L35.9195 29.6523L31.053 26.866L25.4499 30.0739L20.3432 32.9975L25.2054 35.7342Z" fill="#FF2D20"/>
</svg>
