<svg width="56" height="56" viewBox="0 0 56 56" fill="none" xmlns="http://www.w3.org/2000/svg">
<path d="M42.9749 19.5427C42.986 19.5839 42.9917 19.6264 42.9918 19.6691V26.3064C42.9918 26.3916 42.9693 26.4753 42.9266 26.549C42.8839 26.6227 42.8225 26.6838 42.7486 26.7262L37.1779 29.9336V36.2908C37.1779 36.4638 37.0859 36.6235 36.9359 36.7106L25.3073 43.4047C25.2807 43.4199 25.2517 43.4295 25.2226 43.4398C25.2118 43.4435 25.2015 43.4501 25.19 43.4531C25.1087 43.4745 25.0232 43.4745 24.942 43.4531C24.9286 43.4495 24.9165 43.4422 24.9038 43.4374C24.8772 43.4277 24.8494 43.4193 24.824 43.4047L13.1979 36.7106C13.124 36.6682 13.0626 36.607 13.0199 36.5333C12.9773 36.4596 12.9547 36.3759 12.9547 36.2908V16.3789C12.9547 16.3354 12.9607 16.293 12.9716 16.2519C12.9752 16.238 12.9837 16.2253 12.9886 16.2113C12.9976 16.1859 13.0061 16.1599 13.0194 16.1363C13.0285 16.1206 13.0418 16.1079 13.0527 16.0934C13.0666 16.074 13.0793 16.0541 13.0956 16.0371C13.1095 16.0232 13.1277 16.0129 13.1434 16.0008C13.161 15.9863 13.1767 15.9706 13.1967 15.9591H13.1973L19.0106 12.612C19.0842 12.5697 19.1677 12.5474 19.2526 12.5474C19.3375 12.5474 19.421 12.5697 19.4946 12.612L25.3079 15.9591H25.3091C25.3285 15.9712 25.3448 15.9863 25.3624 16.0002C25.3781 16.0123 25.3957 16.0232 25.4096 16.0365C25.4265 16.0541 25.4386 16.074 25.4531 16.0934C25.4634 16.1079 25.4773 16.1206 25.4858 16.1363C25.4997 16.1605 25.5076 16.1859 25.5172 16.2113C25.5221 16.2253 25.5306 16.238 25.5342 16.2525C25.5453 16.2937 25.551 16.3362 25.5511 16.3789V28.8157L30.3954 26.0263V19.6685C30.3954 19.6262 30.4014 19.5832 30.4123 19.5427C30.4166 19.5282 30.4244 19.5155 30.4293 19.5016C30.4389 19.4761 30.4474 19.4501 30.4607 19.4265C30.4698 19.4108 30.4831 19.3981 30.4934 19.3836C30.5079 19.3642 30.52 19.3443 30.5369 19.3273C30.5509 19.3134 30.5684 19.3031 30.5841 19.291C30.6023 19.2765 30.618 19.2608 30.6374 19.2493H30.638L36.4519 15.9022C36.5255 15.8598 36.609 15.8375 36.6939 15.8375C36.7788 15.8375 36.8623 15.8598 36.9359 15.9022L42.7492 19.2493C42.7698 19.2614 42.7855 19.2765 42.8037 19.2904C42.8188 19.3025 42.8364 19.3134 42.8503 19.3267C42.8672 19.3443 42.8793 19.3642 42.8938 19.3836C42.9047 19.3981 42.918 19.4108 42.9265 19.4265C42.9404 19.4501 42.9483 19.4761 42.9579 19.5016C42.9634 19.5155 42.9713 19.5282 42.9749 19.5427ZM42.0227 26.0263V20.5069L39.9884 21.6781L37.1779 23.2963V28.8157L42.0233 26.0263H42.0227ZM36.2094 36.0107V30.4877L33.4448 32.0665L25.5505 36.5721V42.1471L36.2094 36.0107ZM13.9238 17.2167V36.0107L24.5814 42.1465V36.5727L19.0136 33.4216L19.0118 33.4204L19.0094 33.4192C18.9907 33.4083 18.9749 33.3926 18.9574 33.3792C18.9423 33.3671 18.9247 33.3575 18.9114 33.3442L18.9102 33.3423C18.8945 33.3272 18.8836 33.3085 18.8703 33.2915C18.8582 33.2752 18.8437 33.2613 18.834 33.2443L18.8334 33.2425C18.8225 33.2244 18.8158 33.2026 18.808 33.182C18.8001 33.1639 18.7898 33.147 18.785 33.1276V33.127C18.7789 33.104 18.7777 33.0798 18.7753 33.0562C18.7729 33.0381 18.768 33.0199 18.768 33.0018V20.0061L15.9582 18.3873L13.9238 17.2173V17.2167ZM19.2532 13.5908L14.4095 16.3789L19.252 19.167L24.0951 16.3783L19.252 13.5908H19.2532ZM21.7721 30.991L24.582 29.3734V17.2167L22.5476 18.3879L19.7371 20.0061V32.1627L21.7721 30.991ZM36.6939 16.881L31.8508 19.6691L36.6939 22.4572L41.5364 19.6685L36.6939 16.881ZM36.2094 23.2963L33.3989 21.6781L31.3645 20.5069V26.0263L34.1744 27.6439L36.2094 28.8157V23.2963ZM25.0654 35.7342L32.169 31.6788L35.72 29.6523L30.8805 26.866L25.3085 30.0739L20.2302 32.9975L25.0654 35.7342Z" fill="#FF2D20"/>
</svg>
