<svg width="56" height="56" viewBox="0 0 56 56" fill="none" xmlns="http://www.w3.org/2000/svg">
<path d="M13.7407 14.1296H42.2593V41.8704H13.7407V14.1296Z" fill="url(#paint0_radial_1_5442)"/>
<path d="M13.7407 14.1296H42.2593V41.8704H13.7407V14.1296ZM12.4445 43.1667H43.5556V12.8333H12.4445V43.1667ZM30.6575 25.6019C30.6575 25.4463 30.6575 25.0704 30.5927 24.3444C30.5927 24.2407 30.6186 24.2148 30.6964 24.1759C31.4871 23.8518 33.3667 23.2815 35.4667 23.2815C35.5704 23.2815 35.6223 23.3074 35.6223 23.4111V25.2778C35.6223 25.3815 35.5834 25.4074 35.4667 25.4074C34.6501 25.3685 33.4445 25.4722 32.9908 25.6666V33.8463C32.9908 33.95 32.9519 34.0018 32.8352 34.0018H30.8C30.6964 34.0018 30.6445 33.9629 30.6445 33.8463V25.6018H30.6575V25.6019ZM21.0649 34.0018C20.9093 34.0018 20.8704 33.9371 20.8704 33.8074V19.8722C20.8704 19.7685 20.9093 19.7037 21.026 19.7037H23.0741C23.1778 19.7037 23.2037 19.7425 23.2037 19.8592V31.863H28.5444C28.6481 31.863 28.687 31.9018 28.6611 32.0186L28.337 33.8593C28.3111 33.9629 28.2463 34.0148 28.1426 34.0148H21.0649V34.0018Z" fill="#AAD1EB"/>
<defs>
<radialGradient id="paint0_radial_1_5442" cx="0" cy="0" r="1" gradientUnits="userSpaceOnUse" gradientTransform="translate(23.1334 20.3463) scale(21.6741 20.9845)">
<stop stop-color="#39464D" stop-opacity="0.98"/>
<stop offset="1" stop-color="#05151F"/>
</radialGradient>
</defs>
</svg>
