<svg width="57" height="56" viewBox="0 0 57 56" fill="none" xmlns="http://www.w3.org/2000/svg">
<path d="M13.8175 14.1296H42.4954V41.8704H13.8175V14.1296Z" fill="url(#paint0_radial_1_5438)"/>
<path d="M13.8175 14.1296H42.4954V41.8704H13.8175V14.1296ZM12.514 43.1667H43.799V12.8333H12.514V43.1667ZM30.8287 25.6018C30.8287 25.4462 30.8287 25.0704 30.7636 24.3444C30.7636 24.2407 30.7896 24.2148 30.8678 24.1759C31.663 23.8518 33.5531 23.2815 35.6649 23.2815C35.7691 23.2815 35.8213 23.3074 35.8213 23.4111V25.2778C35.8213 25.3814 35.7822 25.4074 35.6649 25.4074C34.8436 25.3685 33.6313 25.4722 33.1751 25.6666V33.8463C33.1751 33.95 33.136 34.0018 33.0187 34.0018H30.9721C30.8678 34.0018 30.8156 33.9629 30.8156 33.8463V25.6018H30.8287V25.6018ZM21.1826 34.0018C21.0261 34.0018 20.987 33.9371 20.987 33.8074V19.8722C20.987 19.7685 21.0261 19.7036 21.1435 19.7036H23.203C23.3073 19.7036 23.3333 19.7425 23.3333 19.8592V31.863H28.7039C28.8082 31.863 28.8473 31.9018 28.8212 32.0185L28.4953 33.8593C28.4693 33.9629 28.4041 34.0148 28.2998 34.0148H21.1826V34.0018Z" fill="#AAD1EB"/>
<defs>
<radialGradient id="paint0_radial_1_5438" cx="0" cy="0" r="1" gradientUnits="userSpaceOnUse" gradientTransform="translate(23.2626 20.3463) scale(21.7952 20.9845)">
<stop stop-color="#39464D" stop-opacity="0.98"/>
<stop offset="1" stop-color="#05151F"/>
</radialGradient>
</defs>
</svg>
