<?xml version="1.0" encoding="UTF-8"?>
<svg id="Layer_1" xmlns="http://www.w3.org/2000/svg" xmlns:xlink="http://www.w3.org/1999/xlink" xmlns:rdf="http://www.w3.org/1999/02/22-rdf-syntax-ns#" xmlns:cc="http://creativecommons.org/ns#" version="1.1" viewBox="0 0 56 56">
  <!-- Generator: Adobe Illustrator 30.0.0, SVG Export Plug-In . SVG Version: 2.1.1 Build 123)  -->
  <defs>
    <style>
      .st0 {
        fill: url(#linear-gradient1);
      }

      .st1 {
        fill: url(#linear-gradient);
      }

      .st2 {
        fill: #0081fb;
      }
    </style>
    <linearGradient id="linear-gradient" x1="18.94" y1="29.55" x2="40.97" y2="28.44" gradientTransform="translate(0 57) scale(1 -1)" gradientUnits="userSpaceOnUse">
      <stop offset="0" stop-color="#0064e1"/>
      <stop offset=".4" stop-color="#0064e1"/>
      <stop offset=".83" stop-color="#0073ee"/>
      <stop offset="1" stop-color="#0082fb"/>
    </linearGradient>
    <linearGradient id="linear-gradient1" x1="16.61" y1="24.16" x2="16.61" y2="32.28" gradientTransform="translate(0 57) scale(1 -1)" gradientUnits="userSpaceOnUse">
      <stop offset="0" stop-color="#0082fb"/>
      <stop offset="1" stop-color="#0064e0"/>
    </linearGradient>
  </defs>
  <path id="Logo0" class="st2" d="M15.46,31.39c0,1.22.27,2.16.62,2.73.46.74,1.15,1.06,1.84,1.06.9,0,1.73-.22,3.32-2.42,1.27-1.76,2.77-4.23,3.78-5.78l1.71-2.63c1.19-1.82,2.56-3.85,4.14-5.23,1.29-1.12,2.67-1.74,4.07-1.74,2.34,0,4.58,1.36,6.29,3.91,1.87,2.79,2.78,6.31,2.78,9.93,0,2.16-.43,3.74-1.15,4.99-.7,1.21-2.06,2.42-4.35,2.42v-3.45c1.96,0,2.45-1.8,2.45-3.87,0-2.94-.69-6.2-2.2-8.53-1.07-1.65-2.46-2.66-3.99-2.66-1.65,0-2.98,1.25-4.48,3.47-.79,1.18-1.61,2.62-2.53,4.24l-1.01,1.79c-2.03,3.59-2.54,4.41-3.55,5.76-1.77,2.36-3.29,3.26-5.29,3.26-2.37,0-3.86-1.02-4.79-2.57-.76-1.26-1.13-2.91-1.13-4.79l3.46.12Z"/>
  <path id="Logo1" class="st1" d="M14.73,21.52c1.58-2.44,3.87-4.15,6.49-4.15,1.52,0,3.03.45,4.61,1.74,1.72,1.41,3.56,3.73,5.86,7.55l.82,1.37c1.99,3.31,3.11,5.01,3.78,5.81.85,1.03,1.45,1.34,2.22,1.34,1.96,0,2.45-1.8,2.45-3.87l3.05-.1c0,2.16-.43,3.74-1.15,4.99-.7,1.21-2.06,2.42-4.35,2.42-1.42,0-2.69-.31-4.08-1.63-1.07-1.01-2.33-2.81-3.29-4.42l-2.87-4.79c-1.44-2.41-2.76-4.2-3.53-5.01-.82-.87-1.88-1.93-3.57-1.93-1.37,0-2.52.96-3.5,2.42l-2.94-1.75Z"/>
  <path id="Logo2" class="st0" d="M21.16,20.85c-1.37,0-2.52.96-3.5,2.42-1.37,2.07-2.21,5.16-2.21,8.12,0,1.22.27,2.16.62,2.73l-2.95,1.94c-.76-1.26-1.13-2.91-1.13-4.79,0-3.42.94-6.99,2.73-9.74,1.58-2.44,3.87-4.15,6.49-4.15l-.06,3.48Z"/>
</svg>