<svg width="57" height="56" viewBox="0 0 57 56" fill="none" xmlns="http://www.w3.org/2000/svg">
<path d="M39.7406 29.3142C39.7406 29.5788 39.8688 29.7885 40.2273 29.7885C40.6491 29.7885 41.0984 29.4874 41.1255 28.8039C40.9286 28.7725 40.7299 28.7546 40.5306 28.7501C40.1072 28.7496 39.7406 28.8679 39.7406 29.3142Z" fill="black"/>
<path d="M12.514 23.0114V32.9886H43.7989V23.0114H12.514ZM21.3703 30.536H19.6399V28.2205C19.6399 27.5096 19.4015 27.2359 18.9343 27.2359C18.3659 27.2359 18.1367 27.637 18.1367 28.2113V29.6439H18.6839V30.5371H16.9535V28.2205C16.9535 27.5096 16.7156 27.2359 16.2478 27.2359C15.6795 27.2359 15.4502 27.637 15.4502 28.2113V29.6439H16.2365V30.5371H13.7155V29.6439H14.2655V27.3181H13.6706V26.4249H15.4481V27.0444C15.6957 26.6072 16.1267 26.3427 16.7037 26.3427C17.2985 26.3427 17.8495 26.6255 18.0512 27.2273C18.2805 26.6804 18.7477 26.3427 19.3988 26.3427C20.1412 26.3427 20.8198 26.7895 20.8198 27.765V29.6439H21.3698L21.3703 30.536ZM24.0011 30.6269C22.7271 30.6269 21.8467 29.852 21.8467 28.5393C21.8467 27.3359 22.58 26.3421 24.0638 26.3421C25.5476 26.3421 26.2733 27.3359 26.2733 28.4845C26.2744 29.7977 25.321 30.6274 24.0011 30.6274V30.6269ZM30.583 30.536H26.9708L26.8519 29.916L29.123 27.3176H27.8306L27.6473 27.9559L26.7946 27.865L26.9411 26.4244H30.5749L30.6663 27.0444L28.3735 29.6439H29.7097L29.9022 29.0056L30.8372 29.0964L30.583 30.536ZM32.8196 30.536H31.5818V29.0593H32.8196V30.536ZM32.8196 27.901H31.5818V26.4249H32.8196V27.901ZM33.4685 30.536L35.2578 24.2664H36.422L34.6343 30.536H33.4685ZM35.8705 30.536L37.6587 24.2664H38.8229L37.0363 30.536H35.8705ZM42.0306 30.6269C41.4807 30.6269 41.1784 30.3074 41.1233 29.8063C40.8848 30.2257 40.463 30.6269 39.7941 30.6269C39.1993 30.6269 38.5201 30.3074 38.5201 29.4508C38.5201 28.4388 39.501 28.2022 40.4452 28.2022C40.6719 28.2002 40.8986 28.2125 41.1238 28.2387V28.1022C41.1238 27.6827 41.1146 27.1815 40.4452 27.1815C40.1975 27.1815 40.005 27.1998 39.8125 27.2999L39.6595 27.8833L38.7153 27.7827L38.8986 26.7164C39.6227 26.4244 39.9893 26.34 40.668 26.34C41.5575 26.34 42.3091 26.796 42.3091 27.7349V29.5218C42.3091 29.7589 42.4005 29.8412 42.5936 29.8412C42.6526 29.8404 42.7112 29.8311 42.7677 29.8138L42.7769 30.4338C42.5482 30.5577 42.2926 30.6241 42.0323 30.6274L42.0306 30.6269Z" fill="black"/>
<path d="M24.0465 27.245C23.4414 27.245 23.0656 27.6913 23.0656 28.4667C23.0656 29.1776 23.3954 29.7245 24.0389 29.7245C24.6532 29.7245 25.0566 29.2325 25.0566 28.4485C25.055 27.6187 24.6062 27.245 24.0465 27.245Z" fill="black"/>
</svg>
