<svg width="56" height="56" viewBox="0 0 56 56" fill="none" xmlns="http://www.w3.org/2000/svg">
<path d="M39.5198 29.3142C39.5198 29.5788 39.6473 29.7885 40.0038 29.7885C40.4232 29.7885 40.8701 29.4874 40.897 28.8039C40.7013 28.7725 40.5036 28.7546 40.3055 28.7502C39.8844 28.7496 39.5198 28.8679 39.5198 29.3142Z" fill="white"/>
<path d="M12.4445 23.0114V32.9886H43.5556V23.0114H12.4445ZM21.2516 30.536H19.5308V28.2205C19.5308 27.5096 19.2937 27.2359 18.8291 27.2359C18.2639 27.2359 18.0359 27.637 18.0359 28.2113V29.6439H18.5801V30.5371H16.8593V28.2205C16.8593 27.5096 16.6227 27.2359 16.1576 27.2359C15.5924 27.2359 15.3644 27.637 15.3644 28.2113V29.6439H16.1463V30.5371H13.6393V29.6439H14.1862V27.3181H13.5947V26.4249H15.3622V27.0444C15.6085 26.6072 16.0371 26.3427 16.6109 26.3427C17.2024 26.3427 17.7504 26.6255 17.9509 27.2273C18.1789 26.6804 18.6436 26.3427 19.291 26.3427C20.0293 26.3427 20.7042 26.7895 20.7042 27.765V29.6439H21.2511L21.2516 30.536ZM23.8677 30.6269C22.6008 30.6269 21.7254 29.852 21.7254 28.5393C21.7254 27.3359 22.4545 26.3421 23.9301 26.3421C25.4057 26.3421 26.1273 27.3359 26.1273 28.4845C26.1284 29.7977 25.1804 30.6274 23.8677 30.6274V30.6269ZM30.4131 30.536H26.821L26.7027 29.916L28.9612 27.3176H27.676L27.4937 27.9559L26.6457 27.865L26.7914 26.4244H30.4051L30.4959 27.0444L28.2159 29.6439H29.5447L29.7361 29.0056L30.6659 29.0964L30.4131 30.536ZM32.6372 30.536H31.4063V29.0593H32.6372V30.536ZM32.6372 27.901H31.4063V26.4249H32.6372V27.901ZM33.2825 30.536L35.0619 24.2664H36.2197L34.4419 30.536H33.2825ZM35.6712 30.536L37.4495 24.2664H38.6073L36.8305 30.536H35.6712ZM41.7971 30.6269C41.2503 30.6269 40.9497 30.3074 40.8948 29.8063C40.6577 30.2257 40.2382 30.6269 39.573 30.6269C38.9815 30.6269 38.3061 30.3074 38.3061 29.4508C38.3061 28.4388 39.2816 28.2022 40.2205 28.2022C40.446 28.2002 40.6714 28.2125 40.8953 28.2387V28.1022C40.8953 27.6827 40.8862 27.1815 40.2205 27.1815C39.9742 27.1815 39.7828 27.1998 39.5913 27.2999L39.4391 27.8833L38.5002 27.7827L38.6825 26.7164C39.4026 26.4244 39.7672 26.34 40.442 26.34C41.3266 26.34 42.0741 26.796 42.0741 27.7349V29.5218C42.0741 29.7589 42.165 29.8412 42.3569 29.8412C42.4157 29.8404 42.474 29.8311 42.5301 29.8138L42.5392 30.4338C42.3118 30.5577 42.0577 30.6241 41.7988 30.6274L41.7971 30.6269Z" fill="white"/>
<path d="M23.9129 27.245C23.3112 27.245 22.9374 27.6913 22.9374 28.4667C22.9374 29.1776 23.2655 29.7245 23.9054 29.7245C24.5163 29.7245 24.9174 29.2325 24.9174 28.4485C24.9158 27.6187 24.4695 27.245 23.9129 27.245Z" fill="white"/>
</svg>
