<svg width="57" height="56" viewBox="0 0 57 56" fill="none" xmlns="http://www.w3.org/2000/svg">
<path fill-rule="evenodd" clip-rule="evenodd" d="M28.1564 35.8831C36.7956 35.8831 43.7989 32.3536 43.7989 28C43.7989 23.6464 36.7956 20.1169 28.1564 20.1169C19.5175 20.1169 12.514 23.6464 12.514 28C12.514 32.3536 19.5175 35.8831 28.1564 35.8831Z" fill="#6E81B6"/>
<path fill-rule="evenodd" clip-rule="evenodd" d="M31.3266 30.5479L32.1025 26.5768C32.2777 25.6805 32.132 25.0119 31.6699 24.5895C31.2222 24.1807 30.4622 23.9819 29.3466 23.9819H28.0028L28.3872 22.0144C28.3944 21.9777 28.3933 21.94 28.3841 21.9038C28.3749 21.8676 28.3578 21.834 28.3339 21.8051C28.3101 21.7763 28.2801 21.7531 28.2462 21.7372C28.2123 21.7213 28.1752 21.713 28.1377 21.713H26.2831C26.1612 21.713 26.0566 21.799 26.0334 21.9179L25.2092 26.1338C25.1343 25.6594 24.9497 25.2516 24.6543 24.9151C24.1103 24.2958 23.2498 23.9819 22.0966 23.9819H18.5019C18.3801 23.9819 18.2755 24.0679 18.2522 24.1866L16.5845 32.7203C16.5699 32.7946 16.5894 32.871 16.6378 32.9293C16.6861 32.9878 16.7579 33.0215 16.8342 33.0215H18.7034C18.8252 33.0215 18.9298 32.9355 18.9531 32.8164L19.3565 30.7524H20.7479C21.478 30.7524 22.0916 30.6738 22.5706 30.5188C23.0603 30.3604 23.511 30.0918 23.9083 29.722C24.2292 29.4287 24.4944 29.1003 24.6985 28.7461L24.3654 30.4511C24.3509 30.5254 24.3704 30.6021 24.4188 30.6601C24.467 30.7185 24.5391 30.7522 24.6151 30.7522H26.4698C26.5916 30.7522 26.6962 30.6663 26.7194 30.5476L27.6347 25.8633H28.9073C29.4496 25.8633 29.6085 25.9707 29.6518 26.0168C29.691 26.0589 29.7723 26.2073 29.681 26.6751L28.9433 30.4509C28.9362 30.4875 28.9374 30.5252 28.9466 30.5613C28.9559 30.5974 28.9731 30.6311 28.9969 30.6598C29.0208 30.6886 29.0507 30.7118 29.0846 30.7277C29.1185 30.7437 29.1555 30.752 29.193 30.752H31.0771C31.1361 30.7521 31.1932 30.7318 31.2387 30.6946C31.2843 30.6573 31.3153 30.6055 31.3266 30.5479ZM22.7281 27.2667C22.6116 27.862 22.3922 28.2866 22.0756 28.5287C21.754 28.7753 21.2397 28.9002 20.5468 28.9002H19.7184L20.3174 25.8345H21.3886C22.1754 25.8345 22.4925 26.0017 22.6198 26.1419C22.7962 26.3364 22.8337 26.7255 22.7281 27.2667ZM39.1388 24.9151C38.5949 24.2958 37.7345 23.9819 36.5812 23.9819H32.9866C32.8646 23.9819 32.7602 24.0679 32.7369 24.1866L31.0694 32.7203C31.0546 32.7946 31.0741 32.871 31.1225 32.9293C31.1709 32.9876 31.243 33.0215 31.3187 33.0215H33.188C33.31 33.0215 33.4145 32.9355 33.4377 32.8164L33.8412 30.7524H35.2328C35.9631 30.7524 36.5761 30.6738 37.0552 30.5188C37.5451 30.3604 37.9959 30.0918 38.3929 29.722C38.7243 29.4193 38.9969 29.0791 39.2034 28.7117C39.41 28.3443 39.5581 27.9347 39.6445 27.4937C39.857 26.4063 39.6869 25.5388 39.1388 24.9151ZM37.3189 27.2667C37.2022 27.862 36.9828 28.2866 36.6665 28.5287C36.3448 28.7753 35.8305 28.9002 35.1378 28.9002H34.3091L34.908 25.8345H35.9793C36.7662 25.8345 37.0832 26.0017 37.2107 26.1419C37.3868 26.3364 37.4245 26.7255 37.3189 27.2667Z" fill="white"/>
<path fill-rule="evenodd" clip-rule="evenodd" d="M21.3354 25.5815C22.0454 25.5815 22.5189 25.7119 22.7555 25.9726C22.9919 26.2333 23.0483 26.681 22.9246 27.3151C22.7952 27.9755 22.5463 28.4469 22.1775 28.7294C21.8086 29.0119 21.2472 29.153 20.4936 29.153H19.3564L20.0544 25.5815H21.3354ZM16.7808 32.7685H18.65L19.0935 30.4998H20.6947C21.4012 30.4998 21.9824 30.4259 22.4387 30.2782C22.8949 30.1306 23.3097 29.8832 23.6829 29.5358C23.9962 29.2497 24.2496 28.9337 24.4437 28.5883C24.6376 28.243 24.7753 27.8621 24.8568 27.4454C25.0547 26.4338 24.9054 25.6459 24.4095 25.0816C23.9137 24.5171 23.1247 24.2349 22.0434 24.2349H18.4487L16.7808 32.7685ZM26.2297 21.9661H28.0843L27.6409 24.2349H29.2934C30.3326 24.2349 31.05 24.4151 31.4446 24.7757C31.8392 25.1363 31.9574 25.7207 31.7996 26.5286L31.0237 30.4998H29.1396L29.8773 26.7239C29.9611 26.2943 29.9304 26.0014 29.7846 25.8451C29.6388 25.689 29.3284 25.6107 28.854 25.6107H27.3718L26.4164 30.4998H24.5617L26.2297 21.9661ZM35.9262 25.5815C36.6362 25.5815 37.1095 25.7119 37.3463 25.9726C37.5828 26.2333 37.6389 26.681 37.5152 27.3151C37.3862 27.9755 37.1373 28.4469 36.7683 28.7294C36.3996 29.0119 35.838 29.153 35.0848 29.153H33.9476L34.6454 25.5815H35.9262ZM31.3712 32.7685H33.2406L33.684 30.4998H35.2851C35.9918 30.4998 36.5731 30.4259 37.0293 30.2782C37.4855 30.1306 37.9004 29.8832 38.2735 29.5358C38.5868 29.2497 38.8402 28.9337 39.0341 28.5883C39.228 28.243 39.3659 27.8621 39.4476 27.4454C39.6453 26.4338 39.496 25.6459 39.0003 25.0816C38.5041 24.5171 37.7154 24.2349 36.634 24.2349H33.0393L31.3712 32.7685Z" fill="black"/>
</svg>
