<svg width="57" height="56" viewBox="0 0 57 56" fill="none" xmlns="http://www.w3.org/2000/svg">
<path d="M40.5367 18.4924C38.6457 16.0572 36.0709 14.2344 33.1381 13.2545C30.2052 12.2747 27.046 12.1817 24.06 12.9874C21.0741 13.7931 18.3954 15.4613 16.3629 17.781C14.3303 20.1007 13.0352 22.9678 12.6413 26.0195C12.2474 29.0712 12.7723 32.1706 14.1498 34.9256C15.5273 37.6806 17.6954 39.9675 20.38 41.497C23.0645 43.0266 26.1449 43.7301 29.2315 43.5186C32.3182 43.3071 35.2724 42.1901 37.7206 40.3089C44.5544 35.057 45.8155 25.2906 40.5362 18.4924H40.5367Z" fill="#FF6C37"/>
<path d="M33.4321 22.356L26.8365 28.967L24.9726 27.0615C31.4641 20.606 32.1157 21.1893 33.4326 22.356H33.4321Z" fill="white"/>
<path d="M26.8365 29.1478C26.7781 29.1464 26.7223 29.1234 26.6801 29.0832L24.803 27.2165C24.7607 27.173 24.7371 27.1149 24.7371 27.0544C24.7371 26.9939 24.7607 26.9358 24.803 26.8923C31.2031 20.5277 32.0767 20.8257 33.5886 22.1868C33.6139 22.2069 33.6342 22.2327 33.6477 22.2619C33.6613 22.2912 33.6678 22.3232 33.6668 22.3555C33.6766 22.4187 33.6521 22.4833 33.6018 22.5242L27.0061 29.0837C26.9599 29.1258 26.8992 29.149 26.8365 29.1483V29.1478ZM25.2982 27.061L26.8365 28.5908L33.0934 22.3686C32.8774 22.0994 32.5691 21.9188 32.2276 21.8614C31.8861 21.804 31.5353 21.8738 31.2422 22.0575C30.1082 22.563 28.2834 24.1055 25.2982 27.061Z" fill="#FF6C37"/>
<path d="M28.7267 30.7947L26.9279 28.967L33.5236 22.4853C35.2965 24.2095 32.6632 27.0872 28.7267 30.7943V30.7947Z" fill="white"/>
<path d="M28.7268 31.0281C28.6691 31.0235 28.6143 31.0009 28.5704 30.9634L26.7324 29.1746C26.7048 29.1081 26.7048 29.0335 26.7324 28.967C26.7128 28.9124 26.7128 28.8529 26.7324 28.7983L33.3281 22.2393C33.3739 22.1964 33.4345 22.1726 33.4974 22.1726C33.5604 22.1726 33.621 22.1964 33.6668 22.2393C33.8804 22.4348 34.0492 22.6738 34.1616 22.9399C34.274 23.2061 34.3275 23.4932 34.3184 23.7817C34.3184 25.5317 32.3108 27.7352 28.8959 30.9503C28.8503 30.9952 28.7902 31.0227 28.7263 31.0281H28.7268ZM27.2667 28.967L28.7395 30.4311C31.3464 27.9812 33.8364 25.4534 33.8492 23.7423C33.8633 23.3796 33.7427 23.0244 33.5104 22.7444L27.2667 28.967Z" fill="#FF6C37"/>
<path d="M25.0244 27.1004L26.3281 28.3968C26.3364 28.4041 26.3431 28.4131 26.3477 28.4232C26.3522 28.4332 26.3546 28.4441 26.3546 28.4552C26.3546 28.4662 26.3522 28.4771 26.3477 28.4872C26.3431 28.4972 26.3364 28.5062 26.3281 28.5135L23.5775 29.0968C23.522 29.1087 23.4641 29.1023 23.4126 29.0784C23.3611 29.0546 23.3188 29.0147 23.2923 28.9647C23.2657 28.9148 23.2563 28.8576 23.2654 28.8019C23.2745 28.7461 23.3017 28.6949 23.3429 28.6559L24.9462 27.0746C24.9462 27.0746 24.9985 27.0746 25.0244 27.1004Z" fill="white"/>
<path d="M23.5125 29.3559C23.4256 29.3548 23.3404 29.3316 23.2651 29.2884C23.1898 29.2453 23.1269 29.1837 23.0823 29.1094C23.0322 29.0154 23.014 28.9078 23.0305 28.8027C23.047 28.6975 23.0972 28.6005 23.1737 28.5261L24.7639 26.9317C24.8212 26.8807 24.8954 26.8525 24.9723 26.8525C25.0493 26.8525 25.1235 26.8807 25.1808 26.9317L26.4845 28.2281C26.5617 28.3011 26.5921 28.4114 26.5627 28.5135C26.5334 28.6156 26.4474 28.6967 26.3413 28.721L23.5907 29.3044L23.5125 29.3559ZM24.9726 27.3857L23.4998 28.8504L25.9375 28.3317L24.9726 27.3857Z" fill="#FF6C37"/>
<path d="M36.939 18.7131C35.9956 17.808 34.5134 17.77 33.524 18.6241C32.5346 19.4782 32.3655 20.9443 33.1359 21.9992C33.9063 23.054 35.3586 23.3496 36.4829 22.6797L34.7099 20.9166L36.939 18.7131Z" fill="white"/>
<path d="M35.1792 23.2757C34.6372 23.2688 34.1092 23.1034 33.661 22.8002C33.2128 22.4969 32.8643 22.0693 32.6588 21.5704C32.4535 21.072 32.3997 20.5246 32.5039 19.996C32.6082 19.4674 32.866 18.9808 33.2454 18.5964C33.7673 18.087 34.4694 17.8015 35.2007 17.8015C35.9321 17.8015 36.6342 18.087 37.156 18.5964C37.2059 18.6382 37.2343 18.7 37.2343 18.7651C37.2341 18.7971 37.2271 18.8288 37.2136 18.8579C37.2001 18.887 37.1805 18.9129 37.156 18.9338L35.0443 20.9171L36.6477 22.4858C36.6736 22.5104 36.6932 22.5411 36.7045 22.575C36.7158 22.6088 36.7186 22.645 36.7127 22.6802C36.7088 22.7142 36.6975 22.7469 36.6795 22.7761C36.6615 22.8052 36.6373 22.8301 36.6086 22.8489C36.1778 23.1166 35.6827 23.2644 35.1748 23.2767L35.1792 23.2757ZM35.1792 18.2459C34.2505 18.2508 33.4195 18.8064 33.0709 19.6557C32.7224 20.5049 32.9121 21.4824 33.5632 22.1348C33.887 22.4587 34.3017 22.6779 34.7529 22.7635C35.2041 22.8491 35.6708 22.7972 36.0919 22.6146L34.5535 21.0848C34.5291 21.0654 34.5093 21.0407 34.4958 21.0126C34.4822 20.9846 34.4752 20.9538 34.4752 20.9227C34.4752 20.8916 34.4822 20.8608 34.4958 20.8327C34.5093 20.8047 34.5291 20.78 34.5535 20.7606L36.5871 18.7252C36.1828 18.4172 35.6885 18.2487 35.1792 18.2455V18.2459Z" fill="#FF6C37"/>
<path d="M36.9781 18.752L34.7491 20.9555L36.522 22.7186C36.7004 22.6167 36.8666 22.4949 37.0172 22.3555C37.4818 21.867 37.7375 21.2182 37.7302 20.5459C37.7229 19.8735 37.4532 19.2303 36.9781 18.752Z" fill="white"/>
<path d="M36.4824 22.9131C36.4531 22.9146 36.4239 22.9096 36.3968 22.8985C36.3697 22.8873 36.3455 22.8702 36.326 22.8484L34.553 21.0853C34.5286 21.0658 34.5088 21.0412 34.4953 21.0131C34.4817 20.9851 34.4747 20.9543 34.4747 20.9232C34.4747 20.892 34.4817 20.8613 34.4953 20.8332C34.5088 20.8052 34.5286 20.7805 34.553 20.7611L36.7689 18.5964C36.7903 18.5643 36.8193 18.538 36.8534 18.5198C36.8876 18.5016 36.9257 18.4921 36.9644 18.4921C37.0031 18.4921 37.0412 18.5016 37.0754 18.5198C37.1095 18.538 37.1385 18.5643 37.1599 18.5964C37.4201 18.8499 37.6267 19.1524 37.7678 19.4863C37.9089 19.8202 37.9815 20.1787 37.9815 20.5408C37.9815 20.903 37.9089 21.2615 37.7678 21.5954C37.6267 21.9293 37.4201 22.2318 37.1599 22.4853C37.0065 22.6471 36.8309 22.7867 36.6384 22.8999C36.5899 22.9242 36.5338 22.9289 36.4819 22.9131H36.4824ZM35.0487 20.9171L36.5215 22.3817C36.6228 22.3111 36.7187 22.2331 36.8085 22.1484C37.2414 21.719 37.4853 21.1363 37.4865 20.5282C37.4875 19.984 37.288 19.4583 36.9258 19.0504L35.0487 20.9171Z" fill="#FF6C37"/>
<path d="M33.7059 22.6282C33.5294 22.4633 33.2963 22.3715 33.0541 22.3715C32.8119 22.3715 32.5788 22.4633 32.4022 22.6282L26.4977 28.4868L27.4754 29.4721L33.7191 24.0277C33.8143 23.9369 33.8899 23.8278 33.9411 23.7069C33.9922 23.586 34.018 23.456 34.0168 23.3249C34.0155 23.1937 33.9873 23.0642 33.9339 22.9443C33.8804 22.8244 33.8028 22.7167 33.7059 22.6277V22.6282Z" fill="white"/>
<path d="M27.4231 29.7059C27.3647 29.7045 27.3089 29.6814 27.2667 29.6413L26.2758 28.6559C26.2336 28.6124 26.2099 28.5543 26.2099 28.4938C26.2099 28.4333 26.2336 28.3752 26.2758 28.3317L32.1808 22.4853C32.3509 22.3163 32.5681 22.2021 32.8042 22.1574C33.0404 22.1127 33.2846 22.1396 33.5052 22.2346C33.7258 22.3296 33.9126 22.4883 34.0414 22.6901C34.1702 22.892 34.235 23.1276 34.2275 23.3666C34.2207 23.5288 34.1815 23.688 34.1121 23.8349C34.0426 23.9818 33.9445 24.1134 33.8232 24.2221L27.5795 29.6665C27.5341 29.6985 27.4783 29.7124 27.4231 29.7054V29.7059ZM26.7324 28.4867L27.384 29.1479L33.5104 23.8459C33.6619 23.7146 33.7524 23.527 33.7582 23.3272C33.7641 23.1274 33.6849 22.932 33.5368 22.7959C33.4 22.6604 33.2148 22.5844 33.0218 22.5844C32.8288 22.5844 32.6436 22.6604 32.5068 22.7959L26.7324 28.4867Z" fill="#FF6C37"/>
<path d="M21.9224 35.1629C21.9057 35.1855 21.8967 35.2127 21.8967 35.2407C21.8967 35.2687 21.9057 35.296 21.9224 35.3185L22.1829 36.4463C22.1933 36.5126 22.1835 36.5806 22.1545 36.6413C22.1256 36.702 22.0789 36.7526 22.0206 36.7865C21.9625 36.8203 21.8952 36.8349 21.8282 36.8282C21.7613 36.8214 21.6982 36.7938 21.6481 36.7491L19.8625 35.038L25.4287 29.459H27.3581L28.6617 30.7554C26.6281 32.5236 24.3606 34.0065 21.9224 35.1629Z" fill="white"/>
<path d="M21.8051 37.0685C21.6574 37.0656 21.5118 37.0053 21.414 36.8998L19.7065 35.2018C19.6821 35.1824 19.6623 35.1577 19.6488 35.1297C19.6352 35.1016 19.6282 35.0709 19.6282 35.0397C19.6282 35.0086 19.6352 34.9778 19.6488 34.9498C19.6623 34.9217 19.6821 34.8971 19.7065 34.8776L25.3114 29.2908C25.3428 29.2576 25.3838 29.235 25.4287 29.2261H27.3708C27.4214 29.2083 27.4766 29.2083 27.5272 29.2261L28.8309 30.5226C28.8557 30.5453 28.8746 30.5737 28.8859 30.6053C28.8972 30.6368 28.9006 30.6707 28.8959 30.7039C28.8968 30.7361 28.8902 30.7681 28.8767 30.7973C28.8631 30.8266 28.8429 30.8524 28.8177 30.8726L28.7136 30.9635C26.6717 32.6563 24.4253 34.0889 22.0265 35.2281L22.2743 36.2781C22.2935 36.3591 22.2942 36.4433 22.2765 36.5246C22.2587 36.6059 22.2229 36.6823 22.1718 36.7481C22.1206 36.8139 22.0552 36.8675 21.9805 36.9051C21.9059 36.9426 21.8237 36.963 21.74 36.965L21.8051 37.0685ZM20.2149 35.0332L21.7527 36.5756C21.7671 36.5883 21.7856 36.5953 21.8048 36.5953C21.824 36.5953 21.8425 36.5883 21.8569 36.5756C21.8665 36.5623 21.8716 36.5464 21.8716 36.5301C21.8716 36.5138 21.8665 36.4979 21.8569 36.4847L21.5963 35.3569C21.5758 35.276 21.584 35.1905 21.6197 35.1149C21.6553 35.0393 21.7161 34.9783 21.7919 34.9423C24.1262 33.8182 26.3147 32.4166 28.3093 30.7681L27.2403 29.7049H25.4937L20.2149 35.0332Z" fill="#FF6C37"/>
<path d="M18.5201 36.3685L19.8238 35.072L21.8314 37.0685L18.638 36.8482C18.5831 36.844 18.5311 36.8226 18.4892 36.7871C18.4473 36.7517 18.4177 36.704 18.4047 36.6509C18.3917 36.5977 18.3959 36.5418 18.4167 36.4912C18.4376 36.4406 18.4739 36.3978 18.5206 36.3689L18.5201 36.3685Z" fill="white"/>
<path d="M21.87 37.2629L18.6893 37.0427C18.5006 37.0252 18.3383 36.8969 18.2718 36.7253C18.2054 36.5537 18.2459 36.35 18.3764 36.2129L19.6801 34.9165C19.7239 34.8745 19.7823 34.851 19.8432 34.851C19.904 34.851 19.9624 34.8745 20.0062 34.9165L22.0006 36.8998C22.0282 36.9374 22.0431 36.9828 22.0431 37.0294C22.0431 37.0759 22.0282 37.1213 22.0006 37.1589C21.9704 37.2074 21.9243 37.244 21.87 37.2624V37.2629ZM18.6893 36.5372L21.2962 36.7059L19.8625 35.3705L18.6893 36.5372Z" fill="#FF6C37"/>
<path d="M27.5404 29.6155L24.9071 30.0175L26.4322 28.514L27.5404 29.6155Z" fill="white"/>
<path d="M24.9071 30.263C24.8633 30.2641 24.8202 30.2524 24.7831 30.2294C24.746 30.2063 24.7165 30.1728 24.6984 30.1332C24.6706 30.0957 24.6557 30.0503 24.6557 30.0037C24.6557 29.9571 24.6706 29.9117 24.6984 29.8741L26.2103 28.3574C26.2562 28.3146 26.3167 28.2907 26.3797 28.2907C26.4426 28.2907 26.5032 28.3146 26.549 28.3574L27.6577 29.459C27.6798 29.4939 27.6916 29.5344 27.6916 29.5756C27.6916 29.6169 27.6798 29.6574 27.6577 29.6923C27.6468 29.7349 27.6238 29.7734 27.5915 29.8034C27.5591 29.8333 27.5188 29.8533 27.4753 29.861L24.8685 30.263H24.9071ZM26.4322 28.8499L25.5851 29.6923L27.0452 29.4721L26.4322 28.8499Z" fill="#FF6C37"/>
<path d="M27.5404 29.6145L25.7024 29.8479C25.6532 29.859 25.6018 29.854 25.5556 29.8337C25.5095 29.8135 25.4712 29.7789 25.4463 29.7353C25.4215 29.6916 25.4114 29.6412 25.4177 29.5914C25.4239 29.5417 25.4461 29.4952 25.481 29.459L26.4327 28.5125L27.5404 29.6145Z" fill="white"/>
<path d="M25.6501 30.0948C25.5649 30.094 25.4815 30.0708 25.4082 30.0275C25.335 29.9842 25.2746 29.9224 25.2332 29.8484C25.1834 29.7596 25.1641 29.6572 25.1782 29.5565C25.1923 29.4559 25.2391 29.3626 25.3114 29.2908L26.2631 28.3443C26.309 28.3015 26.3695 28.2776 26.4325 28.2776C26.4954 28.2776 26.556 28.3015 26.6019 28.3443L27.71 29.4463C27.743 29.4774 27.7662 29.5173 27.7768 29.5612C27.7874 29.6051 27.785 29.6511 27.7698 29.6936C27.7546 29.7362 27.7274 29.7735 27.6914 29.8009C27.6553 29.8284 27.6121 29.8449 27.5668 29.8484L25.742 30.0817L25.6501 30.0948ZM25.6501 29.615L27.032 29.4463L26.4195 28.8372L25.6374 29.615H25.6501ZM36.9908 20.2429C36.9662 20.202 36.9274 20.1714 36.8818 20.1571C36.8361 20.1428 36.7867 20.1456 36.743 20.1651C36.7214 20.176 36.7022 20.191 36.6866 20.2094C36.671 20.2278 36.6592 20.2491 36.652 20.272C36.6375 20.3184 36.6421 20.3685 36.6648 20.4115C36.7562 20.6026 36.7307 20.8286 36.5997 20.9949C36.5835 21.0109 36.5707 21.0301 36.5623 21.0513C36.5539 21.0724 36.55 21.0951 36.5509 21.1179C36.5513 21.1634 36.5687 21.2072 36.5997 21.2408C36.6332 21.254 36.6704 21.254 36.7039 21.2408C36.7342 21.2484 36.7661 21.2476 36.796 21.2384C36.8259 21.2292 36.8527 21.2121 36.8735 21.1888C36.9808 21.0581 37.0488 20.8999 37.0696 20.7324C37.0903 20.565 37.063 20.3951 36.9908 20.2424V20.2429Z" fill="#FF6C37"/>
</svg>
