<?xml version="1.0" encoding="UTF-8"?>
<svg id="Layer_1" xmlns="http://www.w3.org/2000/svg" version="1.1" viewBox="0 0 56 56">
  <!-- Generator: Adobe Illustrator 30.0.0, SVG Export Plug-In . SVG Version: 2.1.1 Build 123)  -->
  <defs>
    <style>
      .st0 {
        fill: #0c344b;
        fill-rule: evenodd;
      }
    </style>
  </defs>
  <path class="st0" d="M38.61,37.38l-14.37,4.25c-.44.13-.86-.25-.77-.69l5.13-24.59c.1-.46.73-.53.93-.11l9.51,20.18c.18.38-.03.83-.43.95h0ZM41.08,36.38l-11.01-23.37h0c-.28-.59-.86-.97-1.5-1.01-.67-.04-1.27.28-1.61.83l-11.94,19.33c-.37.6-.36,1.35.02,1.94l5.83,9.04c.35.54.95.85,1.58.85.18,0,.36-.02.53-.08l16.94-5.01c.52-.15.94-.52,1.17-1.01.22-.49.22-1.04-.01-1.53h0Z"/>
</svg>