<svg width="56" height="56" viewBox="0 0 56 56" fill="none" xmlns="http://www.w3.org/2000/svg">
<path d="M43.343 27.6185L42.037 26.8099C42.0259 26.683 42.0135 26.5562 41.9998 26.4296L43.1222 25.3826C43.1783 25.3305 43.2201 25.2648 43.2437 25.1919C43.2672 25.119 43.2716 25.0412 43.2565 24.9661C43.2417 24.891 43.208 24.8208 43.1584 24.7625C43.1088 24.7041 43.0451 24.6594 42.9733 24.6327L41.5384 24.0961C41.5024 23.9722 41.4649 23.8487 41.426 23.7257L42.3211 22.4826C42.3659 22.4204 42.3941 22.3479 42.403 22.2718C42.4119 22.1956 42.4012 22.1185 42.3719 22.0477C42.3426 21.9769 42.2956 21.9148 42.2355 21.8672C42.1755 21.8197 42.1042 21.7883 42.0286 21.776L40.5155 21.5299C40.4567 21.4152 40.3955 21.3022 40.3337 21.1901L40.9695 19.7946C41.0015 19.725 41.015 19.6483 41.0089 19.5719C41.0028 19.4955 40.9772 19.422 40.9345 19.3583C40.8921 19.2945 40.834 19.2426 40.7659 19.2077C40.6977 19.1727 40.6216 19.1559 40.5451 19.1588L39.0095 19.2123C38.9301 19.1129 38.8493 19.0148 38.7669 18.918L39.1198 17.4223C39.1375 17.3477 39.1357 17.2698 39.1147 17.1961C39.0938 17.1223 39.0543 17.0552 39 17.0011C38.9458 16.9469 38.8787 16.9074 38.8051 16.8864C38.7314 16.8655 38.6536 16.8637 38.579 16.8812L37.0836 17.2338C36.9865 17.1515 36.8882 17.0706 36.7888 16.9912L36.8425 15.4557C36.8454 15.3792 36.8286 15.3032 36.7937 15.235C36.7588 15.1668 36.707 15.1087 36.6432 15.0662C36.5795 15.0236 36.506 14.998 36.4296 14.9918C36.3533 14.9856 36.2766 14.9991 36.2069 15.031L34.8118 15.6671C34.6992 15.6049 34.586 15.5442 34.472 15.4848L34.2253 13.9715C34.2129 13.8959 34.1815 13.8248 34.1339 13.7648C34.0864 13.7048 34.0243 13.6579 33.9536 13.6286C33.8828 13.5993 33.8058 13.5885 33.7297 13.5974C33.6537 13.6062 33.5811 13.6343 33.519 13.679L32.275 14.574C32.1526 14.5351 32.0295 14.4976 31.9053 14.462L31.3688 13.0269C31.3421 12.955 31.2974 12.8911 31.239 12.8414C31.1806 12.7917 31.1104 12.7578 31.0352 12.743C30.9601 12.7282 30.8825 12.7328 30.8097 12.7563C30.7369 12.7798 30.6713 12.8215 30.6191 12.8774L29.5721 14.0007C29.4455 13.9865 29.3187 13.9741 29.1917 13.9635L28.3832 12.6571C28.3429 12.592 28.2866 12.5382 28.2198 12.501C28.1529 12.4637 28.0776 12.4442 28.001 12.4442C27.9245 12.4442 27.8492 12.4637 27.7823 12.501C27.7154 12.5382 27.6592 12.592 27.6189 12.6571L26.8104 13.9635C26.6833 13.9741 26.5564 13.9865 26.4296 14.0007L25.3824 12.8774C25.3302 12.8213 25.2646 12.7795 25.1916 12.7559C25.1187 12.7324 25.041 12.7279 24.9659 12.7429C24.8907 12.7579 24.8206 12.7918 24.7623 12.8415C24.704 12.8912 24.6594 12.955 24.6327 13.0269L24.0963 14.462C23.972 14.4976 23.849 14.5354 23.7262 14.574L22.4825 13.679C22.4204 13.6341 22.3478 13.6059 22.2716 13.597C22.1955 13.5882 22.1183 13.599 22.0476 13.6286C21.9769 13.6579 21.9148 13.7048 21.8673 13.7648C21.8198 13.8248 21.7884 13.896 21.776 13.9715L21.5293 15.4848C21.415 15.544 21.3021 15.6048 21.1895 15.6671L19.7942 15.0309C19.7246 14.999 19.6479 14.9855 19.5716 14.9917C19.4952 14.9979 19.4218 15.0235 19.3582 15.0662C19.2944 15.1086 19.2425 15.1667 19.2076 15.2349C19.1726 15.3031 19.1558 15.3791 19.1586 15.4557L19.2121 16.9912C19.1127 17.0708 19.0145 17.1516 18.9173 17.2338L17.4219 16.8814C17.3473 16.8639 17.2695 16.8657 17.1958 16.8866C17.1221 16.9076 17.0549 16.947 17.0007 17.0011C16.9464 17.0552 16.9069 17.1223 16.8859 17.1961C16.8649 17.2698 16.8632 17.3477 16.8808 17.4223L17.2331 18.918C17.1513 19.0149 17.0705 19.113 16.9912 19.2123L15.4556 19.1588C15.3791 19.1564 15.3032 19.1734 15.2351 19.2083C15.167 19.2432 15.1089 19.2948 15.0662 19.3582C15.0236 19.4219 14.9979 19.4954 14.9918 19.5718C14.9856 19.6481 14.999 19.7248 15.0308 19.7945L15.6669 21.1901C15.605 21.3022 15.5439 21.4152 15.4846 21.5299L13.9717 21.776C13.8961 21.7883 13.8249 21.8198 13.7648 21.8674C13.7048 21.9149 13.6579 21.977 13.6286 22.0478C13.5993 22.1186 13.5886 22.1957 13.5974 22.2718C13.6063 22.3479 13.6344 22.4204 13.6792 22.4826L14.5742 23.7258C14.5353 23.8486 14.4975 23.9718 14.4618 24.0961L13.0268 24.6327C12.9552 24.6596 12.8915 24.7043 12.842 24.7627C12.7925 24.8211 12.7587 24.8911 12.7438 24.9662C12.7288 25.0413 12.7333 25.119 12.7568 25.1918C12.7803 25.2647 12.822 25.3303 12.8779 25.3826L14.0005 26.4294C13.9865 26.5558 13.9741 26.6831 13.9634 26.8099L12.6571 27.6185C12.592 27.6588 12.5383 27.715 12.5011 27.7819C12.4639 27.8488 12.4444 27.9241 12.4445 28.0007C12.4445 28.1567 12.525 28.3012 12.6573 28.3826L13.9634 29.1912C13.9741 29.3184 13.9865 29.4454 14.0005 29.5717L12.8778 30.6189C12.8218 30.6711 12.78 30.7367 12.7565 30.8096C12.7329 30.8825 12.7284 30.9601 12.7433 31.0353C12.7583 31.1104 12.7921 31.1804 12.8418 31.2388C12.8914 31.2971 12.9551 31.3418 13.0268 31.3686L14.4618 31.9051C14.4975 32.0293 14.5353 32.1527 14.5742 32.2754L13.6792 33.5188C13.6343 33.5809 13.6061 33.6535 13.5973 33.7296C13.5884 33.8057 13.5991 33.8829 13.6285 33.9537C13.6578 34.0245 13.7048 34.0866 13.765 34.1341C13.8251 34.1816 13.8964 34.2129 13.9721 34.2251L15.4847 34.4712C15.5439 34.5859 15.6045 34.6989 15.667 34.8115L15.0308 36.2066C14.999 36.2763 14.9855 36.353 14.9917 36.4293C14.9979 36.5057 15.0235 36.5792 15.0662 36.6429C15.1086 36.7067 15.1667 36.7585 15.2348 36.7934C15.303 36.8283 15.379 36.8452 15.4556 36.8423L16.9904 36.7886C17.0705 36.8884 17.1511 36.9862 17.2331 37.0834L16.8808 38.5794C16.8632 38.6539 16.8649 38.7316 16.8859 38.8052C16.9069 38.8788 16.9464 38.9458 17.0007 38.9998C17.0548 39.0541 17.1219 39.0936 17.1957 39.1145C17.2694 39.1355 17.3473 39.1371 17.4219 39.1193L18.9173 38.7671C19.0145 38.8497 19.1129 38.9299 19.2122 39.0089L19.1587 40.5449C19.156 40.6214 19.1729 40.6974 19.2077 40.7656C19.2426 40.8338 19.2944 40.8919 19.3581 40.9344C19.4218 40.9769 19.4953 41.0025 19.5716 41.0086C19.6479 41.0147 19.7246 41.0011 19.7942 40.9693L21.1895 40.3336C21.3018 40.396 21.4151 40.4567 21.5293 40.5157L21.776 42.0281C21.7882 42.1038 21.8195 42.1751 21.8671 42.2352C21.9146 42.2953 21.9768 42.3422 22.0476 42.3715C22.1184 42.4008 22.1955 42.4116 22.2716 42.4028C22.3477 42.394 22.4203 42.3659 22.4825 42.3213L23.7256 41.4256C23.8484 41.4645 23.9717 41.5025 24.0959 41.5383L24.6325 42.9728C24.6592 43.0446 24.7039 43.1083 24.7623 43.1579C24.8206 43.2075 24.8908 43.2413 24.9659 43.2561C25.041 43.2712 25.1187 43.2668 25.1916 43.2433C25.2645 43.2197 25.3301 43.1779 25.3822 43.1217L26.4294 41.999C26.5558 42.0136 26.6829 42.0257 26.8101 42.037L27.6187 43.3432C27.659 43.4082 27.7152 43.4618 27.7821 43.4991C27.8489 43.5363 27.9241 43.5558 28.0006 43.5559C28.0772 43.5558 28.1524 43.5363 28.2193 43.4991C28.2862 43.4619 28.3425 43.4082 28.3828 43.3432L29.1913 42.037C29.3186 42.0257 29.4456 42.0136 29.5719 41.999L30.6188 43.1217C30.6709 43.1778 30.7365 43.2196 30.8093 43.2432C30.8822 43.2667 30.9599 43.2712 31.0349 43.2561C31.1101 43.2413 31.1802 43.2074 31.2386 43.1579C31.2969 43.1083 31.3416 43.0445 31.3684 42.9728L31.9049 41.5383C32.0291 41.5025 32.1526 41.4645 32.2754 41.4256L33.5187 42.3213C33.5809 42.366 33.6535 42.3941 33.7296 42.4029C33.8057 42.4116 33.8828 42.4008 33.9535 42.3715C34.0243 42.3421 34.0864 42.2952 34.1339 42.2351C34.1814 42.175 34.2128 42.1038 34.225 42.0281L34.4717 40.5157C34.5858 40.4565 34.6987 40.3951 34.8114 40.3334L36.2067 40.9693C36.2763 41.0012 36.353 41.0149 36.4293 41.0088C36.5057 41.0027 36.5793 40.9772 36.643 40.9347C36.7068 40.8921 36.7585 40.834 36.7934 40.7657C36.8283 40.6975 36.8451 40.6215 36.8423 40.5449L36.7888 39.009C36.8882 38.9299 36.9864 38.8493 37.0832 38.7671L38.5788 39.1193C38.7307 39.155 38.8899 39.1108 38.9996 38.9998C39.0539 38.9458 39.0934 38.8788 39.1143 38.8052C39.1353 38.7316 39.1371 38.6539 39.1194 38.5794L38.7673 37.0834C38.8493 36.9862 38.9301 36.8884 39.0091 36.7886L40.5447 36.8423C40.6213 36.8452 40.6972 36.8284 40.7654 36.7935C40.8336 36.7586 40.8917 36.7068 40.9341 36.643C40.9768 36.5793 41.0025 36.5058 41.0086 36.4293C41.0148 36.3529 41.0012 36.2762 40.9692 36.2065L40.3334 34.8116C40.3955 34.6989 40.4565 34.5859 40.5153 34.4713L42.0283 34.2251C42.104 34.2129 42.1752 34.1816 42.2353 34.134C42.2953 34.0864 42.3422 34.0242 42.3713 33.9534C42.4006 33.8826 42.4114 33.8056 42.4025 33.7295C42.3937 33.6534 42.3656 33.5809 42.3208 33.5188L41.4258 32.2755C41.4644 32.1527 41.5022 32.0293 41.5382 31.9051L42.973 31.3686C43.0448 31.3419 43.1085 31.2972 43.1581 31.2388C43.2077 31.1803 43.2415 31.1102 43.2562 31.035C43.2714 30.9599 43.267 30.8822 43.2434 30.8094C43.2199 30.7365 43.178 30.6709 43.1218 30.6189L41.9995 29.5717C42.0131 29.4453 42.0257 29.3182 42.0366 29.1913L43.3428 28.3826C43.4079 28.3424 43.4616 28.2862 43.4989 28.2193C43.5361 28.1525 43.5556 28.0772 43.5556 28.0007C43.5556 27.845 43.4754 27.7003 43.343 27.6185ZM34.6013 38.4534C34.1025 38.3459 33.7853 37.8543 33.8924 37.3539C33.9991 36.8542 34.4903 36.5362 34.989 36.6437C35.4877 36.7506 35.8054 37.243 35.6984 37.7423C35.5915 38.2418 35.0998 38.5602 34.6013 38.4534ZM34.1575 35.4518C34.0492 35.4286 33.9375 35.4269 33.8286 35.4469C33.7198 35.467 33.6159 35.5082 33.523 35.5684C33.4301 35.6286 33.35 35.7065 33.2873 35.7977C33.2245 35.8889 33.1803 35.9915 33.1573 36.0998L32.6935 38.2638C31.2625 38.9133 29.6736 39.2741 28 39.2741C26.2882 39.2741 24.6646 38.8954 23.2082 38.2182L22.7447 36.0543C22.6472 35.599 22.1995 35.3089 21.7447 35.4066L19.8343 35.8169C19.4793 35.4514 19.1493 35.0625 18.8465 34.6526H28.1422C28.2473 34.6526 28.3174 34.6335 28.3174 34.5378V31.2496C28.3174 31.154 28.2473 31.1349 28.1421 31.1349H25.4236V29.0507H28.364C28.6323 29.0507 29.7991 29.1272 30.1721 30.6186C30.289 31.0773 30.5454 32.5691 30.7209 33.0468C30.8957 33.5824 31.6072 34.6525 32.3655 34.6525H36.9976C37.0502 34.6525 37.1063 34.6465 37.1655 34.6359C36.8441 35.0723 36.4921 35.4853 36.112 35.8718L34.1576 35.4518H34.1575ZM21.301 38.4082C20.8022 38.5159 20.3111 38.1978 20.2038 37.6981C20.0971 37.1975 20.4142 36.7062 20.913 36.5986C21.4119 36.4919 21.9032 36.81 22.0102 37.3096C22.1169 37.8091 21.7994 38.3013 21.3009 38.4082H21.301ZM17.7747 24.1092C17.9816 24.5761 17.771 25.1234 17.3047 25.33C16.8384 25.5372 16.2926 25.3263 16.0858 24.8591C15.8788 24.3918 16.0893 23.8455 16.5557 23.6383C16.6667 23.5891 16.7862 23.5623 16.9076 23.5593C17.0289 23.5563 17.1496 23.5773 17.2628 23.621C17.376 23.6648 17.4795 23.7304 17.5673 23.8141C17.6551 23.8979 17.7256 23.9981 17.7747 24.1091V24.1092ZM16.6909 26.6783L18.681 25.794C18.8853 25.7031 19.0452 25.5348 19.1255 25.3261C19.2058 25.1174 19.2 24.8854 19.1093 24.681L18.6995 23.7542H20.3114V31.0202H17.0592C16.7709 30.0053 16.6251 28.9553 16.6259 27.9003C16.6259 27.4873 16.6481 27.0793 16.6909 26.6782V26.6783ZM25.4241 25.9726V23.8309H29.2627C29.461 23.8309 30.6627 24.0601 30.6627 24.9587C30.6627 25.7048 29.741 25.9723 28.983 25.9723H25.4241V25.9726ZM39.3745 27.9003C39.3745 28.1844 39.3641 28.4656 39.3433 28.7447H38.1763C38.0595 28.7447 38.0124 28.8215 38.0124 28.9358V29.4718C38.0124 30.7332 37.3011 31.0076 36.6778 31.0775C36.0843 31.1444 35.4261 30.829 35.345 30.4657C34.9948 28.4963 34.4113 28.0757 33.4899 27.3488C34.6335 26.6227 35.8232 25.5514 35.8232 24.1174C35.8232 22.5691 34.7618 21.5938 34.0382 21.1156C33.0232 20.4465 31.8994 20.3123 31.5961 20.3123H19.527C21.1636 18.4858 23.3817 17.1919 25.8904 16.7211L27.313 18.2134C27.3893 18.2935 27.4807 18.3578 27.5819 18.4025C27.6831 18.4473 27.7921 18.4716 27.9027 18.4742C28.0134 18.4767 28.1234 18.4574 28.2265 18.4174C28.3297 18.3774 28.4239 18.3174 28.5039 18.2409L30.0956 16.7184C33.431 17.3394 36.2549 19.4156 37.8823 22.2641L36.7925 24.7254C36.6044 25.1513 36.7964 25.6495 37.2212 25.8382L39.3192 26.7701C39.3554 27.1426 39.3745 27.5188 39.3745 27.9003ZM27.3136 15.4515C27.6822 15.0984 28.2669 15.1124 28.6198 15.4815C28.972 15.8517 28.9586 16.4369 28.5892 16.7897C28.2206 17.1429 27.6359 17.1292 27.283 16.7594C27.1139 16.5817 27.0222 16.3443 27.0279 16.0991C27.0336 15.8539 27.1364 15.621 27.3136 15.4515ZM38.1275 24.1541C38.1766 24.0431 38.247 23.9429 38.3348 23.8591C38.4226 23.7754 38.5261 23.7098 38.6393 23.6661C38.7525 23.6224 38.8732 23.6014 38.9945 23.6044C39.1158 23.6074 39.2353 23.6343 39.3462 23.6835C39.8126 23.8904 40.0231 24.4374 39.8162 24.9043C39.7671 25.0153 39.6967 25.1156 39.6089 25.1994C39.5211 25.2832 39.4176 25.3488 39.3044 25.3926C39.1912 25.4363 39.0704 25.4573 38.9491 25.4543C38.8277 25.4513 38.7082 25.4244 38.5972 25.3752C38.1314 25.1682 37.9209 24.6217 38.1275 24.1541Z" fill="white"/>
</svg>
