<svg width="57" height="56" viewBox="0 0 57 56" fill="none" xmlns="http://www.w3.org/2000/svg">
<path d="M43.5851 27.6185L42.2718 26.8099C42.2607 26.683 42.2482 26.5562 42.2344 26.4295L43.3631 25.3826C43.4195 25.3304 43.4616 25.2648 43.4852 25.1919C43.5089 25.1189 43.5133 25.0412 43.4981 24.9661C43.4833 24.891 43.4494 24.8208 43.3995 24.7624C43.3496 24.7041 43.2856 24.6594 43.2134 24.6326L41.7705 24.0961C41.7343 23.9722 41.6966 23.8487 41.6575 23.7257L42.5575 22.4826C42.6026 22.4204 42.631 22.3478 42.6399 22.2717C42.6488 22.1956 42.638 22.1185 42.6086 22.0477C42.5791 21.9769 42.5319 21.9148 42.4715 21.8672C42.4111 21.8197 42.3394 21.7883 42.2634 21.776L40.7419 21.5299C40.6827 21.4152 40.6211 21.3022 40.5591 21.1901L41.1983 19.7946C41.2305 19.725 41.2442 19.6483 41.238 19.5719C41.2319 19.4955 41.2061 19.422 41.1631 19.3583C41.1205 19.2945 41.0622 19.2426 40.9936 19.2077C40.925 19.1727 40.8486 19.1559 40.7716 19.1588L39.2274 19.2123C39.1476 19.1129 39.0663 19.0148 38.9835 18.918L39.3383 17.4223C39.3561 17.3477 39.3543 17.2698 39.3332 17.1961C39.3122 17.1223 39.2724 17.0552 39.2178 17.0011C39.1634 16.9469 39.0959 16.9074 39.0218 16.8864C38.9478 16.8655 38.8695 16.8637 38.7945 16.8812L37.2908 17.2338C37.1932 17.1515 37.0943 17.0706 36.9943 16.9912L37.0483 15.4557C37.0512 15.3792 37.0343 15.3031 36.9992 15.235C36.9641 15.1668 36.912 15.1087 36.8479 15.0662C36.7839 15.0236 36.7099 14.998 36.6331 14.9918C36.5564 14.9856 36.4792 14.9991 36.4092 15.031L35.0062 15.667C34.8931 15.6049 34.7792 15.5442 34.6646 15.4848L34.4165 13.9715C34.4041 13.8959 34.3724 13.8248 34.3246 13.7648C34.2768 13.7047 34.2144 13.6579 34.1432 13.6286C34.0721 13.5993 33.9946 13.5885 33.9181 13.5973C33.8417 13.6062 33.7687 13.6343 33.7062 13.679L32.4553 14.574C32.3322 14.5351 32.2084 14.4976 32.0835 14.462L31.544 13.0269C31.5172 12.955 31.4722 12.8911 31.4135 12.8414C31.3548 12.7917 31.2842 12.7578 31.2085 12.743C31.1331 12.7282 31.055 12.7328 30.9818 12.7563C30.9086 12.7798 30.8426 12.8215 30.7901 12.8774L29.7373 14.0007C29.61 13.9865 29.4825 13.9741 29.3548 13.9635L28.5417 12.657C28.5012 12.5919 28.4447 12.5382 28.3774 12.501C28.3102 12.4637 28.2345 12.4441 28.1575 12.4441C28.0805 12.4441 28.0048 12.4637 27.9375 12.501C27.8703 12.5382 27.8137 12.5919 27.7732 12.657L26.9602 13.9635C26.8324 13.9741 26.7047 13.9864 26.5773 14.0007L25.5242 12.8774C25.4717 12.8213 25.4057 12.7795 25.3324 12.7559C25.259 12.7324 25.1809 12.7279 25.1053 12.7429C25.0298 12.7578 24.9593 12.7918 24.9007 12.8415C24.842 12.8912 24.7972 12.955 24.7703 13.0269L24.2309 14.462C24.1059 14.4976 23.9822 14.5354 23.8588 14.574L22.6081 13.679C22.5457 13.6341 22.4726 13.6058 22.3961 13.597C22.3195 13.5882 22.2419 13.599 22.1707 13.6285C22.0997 13.6579 22.0373 13.7048 21.9895 13.7648C21.9417 13.8248 21.9101 13.8959 21.8976 13.9715L21.6495 15.4848C21.5347 15.5439 21.4211 15.6048 21.3078 15.667L19.9048 15.0308C19.8348 14.999 19.7577 14.9855 19.6809 14.9917C19.6042 14.9979 19.5303 15.0235 19.4663 15.0662C19.4021 15.1086 19.35 15.1667 19.3149 15.2349C19.2797 15.3031 19.2628 15.3791 19.2657 15.4557L19.3194 16.9912C19.2195 17.0708 19.1207 17.1516 19.0229 17.2338L17.5192 16.8813C17.4442 16.8639 17.3659 16.8657 17.2918 16.8866C17.2177 16.9076 17.1502 16.947 17.0956 17.0011C17.041 17.0552 17.0013 17.1223 16.9802 17.1961C16.9591 17.2698 16.9574 17.3477 16.9751 17.4223L17.3294 18.918C17.2472 19.0149 17.1659 19.113 17.0861 19.2123L15.5419 19.1588C15.465 19.1564 15.3887 19.1734 15.3203 19.2083C15.2518 19.2432 15.1933 19.2947 15.1503 19.3582C15.1075 19.4219 15.0817 19.4954 15.0755 19.5718C15.0693 19.6481 15.0828 19.7248 15.1148 19.7945L15.7544 21.1901C15.6922 21.3022 15.6307 21.4152 15.5711 21.5299L14.0497 21.776C13.9737 21.7883 13.9021 21.8198 13.8417 21.8673C13.7814 21.9149 13.7342 21.977 13.7047 22.0478C13.6753 22.1186 13.6645 22.1957 13.6734 22.2718C13.6823 22.3478 13.7106 22.4204 13.7556 22.4826L14.6556 23.7258C14.6165 23.8485 14.5785 23.9718 14.5426 24.0961L13.0996 24.6326C13.0275 24.6596 12.9636 24.7043 12.9138 24.7627C12.8639 24.8211 12.8299 24.8911 12.8149 24.9662C12.8 25.0413 12.8045 25.1189 12.8281 25.1918C12.8517 25.2647 12.8936 25.3303 12.9499 25.3826L14.0787 26.4294C14.0647 26.5558 14.0522 26.6831 14.0414 26.8099L12.7278 27.6185C12.6624 27.6588 12.6084 27.715 12.5709 27.7819C12.5335 27.8488 12.5139 27.9241 12.514 28.0007C12.514 28.1567 12.595 28.3012 12.728 28.3826L14.0414 29.1911C14.0522 29.3184 14.0647 29.4454 14.0787 29.5717L12.9498 30.6189C12.8934 30.671 12.8514 30.7367 12.8277 30.8096C12.8041 30.8824 12.7995 30.9601 12.8145 31.0352C12.8295 31.1104 12.8636 31.1804 12.9135 31.2387C12.9634 31.2971 13.0274 31.3418 13.0996 31.3686L14.5426 31.9051C14.5785 32.0293 14.6165 32.1527 14.6556 32.2754L13.7556 33.5188C13.7105 33.5809 13.6821 33.6535 13.6732 33.7296C13.6643 33.8057 13.6751 33.8829 13.7046 33.9537C13.7341 34.0244 13.7814 34.0866 13.8419 34.1341C13.9023 34.1816 13.974 34.2129 14.0501 34.2251L15.5712 34.4712C15.6307 34.5859 15.6917 34.6989 15.7545 34.8114L15.1148 36.2066C15.0827 36.2763 15.0692 36.353 15.0754 36.4293C15.0816 36.5057 15.1074 36.5792 15.1503 36.6429C15.193 36.7066 15.2514 36.7585 15.32 36.7934C15.3885 36.8283 15.4649 36.8451 15.5419 36.8423L17.0854 36.7886C17.1659 36.8884 17.2469 36.9862 17.3294 37.0834L16.9751 38.5794C16.9574 38.6539 16.9592 38.7316 16.9803 38.8052C17.0013 38.8788 17.0411 38.9458 17.0956 38.9998C17.15 39.0541 17.2176 39.0936 17.2917 39.1145C17.3659 39.1354 17.4442 39.1371 17.5192 39.1192L19.0229 38.7671C19.1207 38.8497 19.2197 38.9299 19.3195 39.0089L19.2658 40.5449C19.263 40.6214 19.28 40.6974 19.315 40.7656C19.3501 40.8337 19.4022 40.8919 19.4662 40.9344C19.5302 40.9769 19.6042 41.0025 19.6809 41.0086C19.7577 41.0147 19.8348 41.0011 19.9048 40.9693L21.3078 40.3335C21.4208 40.396 21.5347 40.4567 21.6495 40.5157L21.8976 42.0281C21.9099 42.1038 21.9414 42.1751 21.9892 42.2352C22.037 42.2953 22.0995 42.3422 22.1707 42.3714C22.2419 42.4008 22.3194 42.4115 22.396 42.4028C22.4725 42.394 22.5455 42.3659 22.6081 42.3213L23.8582 41.4256C23.9816 41.4645 24.1056 41.5025 24.2305 41.5383L24.7701 42.9728C24.7969 43.0446 24.8419 43.1083 24.9006 43.1579C24.9593 43.2075 25.0298 43.2413 25.1054 43.256C25.1809 43.2712 25.2591 43.2668 25.3324 43.2433C25.4057 43.2197 25.4716 43.1778 25.524 43.1216L26.577 41.999C26.7041 42.0135 26.832 42.0257 26.9599 42.037L27.7729 43.3432C27.8135 43.4082 27.8701 43.4618 27.9373 43.499C28.0045 43.5362 28.0801 43.5558 28.157 43.5559C28.234 43.5558 28.3097 43.5363 28.3769 43.4991C28.4442 43.4619 28.5008 43.4082 28.5414 43.3432L29.3544 42.037C29.4824 42.0257 29.6101 42.0135 29.7371 41.999L30.7899 43.1216C30.8422 43.1778 30.9082 43.2196 30.9814 43.2432C31.0547 43.2667 31.1328 43.2711 31.2083 43.256C31.2839 43.2412 31.3544 43.2074 31.4131 43.1578C31.4718 43.1082 31.5167 43.0445 31.5436 42.9728L32.0832 41.5383C32.2081 41.5025 32.3322 41.4645 32.4557 41.4256L33.706 42.3213C33.7685 42.366 33.8415 42.3941 33.918 42.4028C33.9946 42.4116 34.0721 42.4008 34.1432 42.3715C34.2144 42.3421 34.2768 42.2951 34.3246 42.2351C34.3723 42.175 34.4039 42.1037 34.4162 42.0281L34.6643 40.5157C34.7791 40.4565 34.8926 40.395 35.0059 40.3334L36.4089 40.9693C36.479 41.0012 36.556 41.0148 36.6329 41.0088C36.7097 41.0027 36.7836 40.9772 36.8477 40.9347C36.9118 40.8921 36.9639 40.8339 36.9989 40.7657C37.034 40.6975 37.0509 40.6215 37.0481 40.5449L36.9943 39.009C37.0943 38.9299 37.193 38.8493 37.2904 38.7671L38.7943 39.1192C38.947 39.155 39.1071 39.1107 39.2175 38.9998C39.272 38.9458 39.3118 38.8788 39.3329 38.8052C39.354 38.7316 39.3557 38.6539 39.338 38.5794L38.9838 37.0834C39.0663 36.9862 39.1476 36.8884 39.227 36.7886L40.7712 36.8423C40.8482 36.8452 40.9246 36.8284 40.9932 36.7935C41.0617 36.7586 41.1201 36.7068 41.1628 36.643C41.2057 36.5793 41.2316 36.5057 41.2377 36.4293C41.2439 36.3529 41.2303 36.2761 41.1981 36.2065L40.5587 34.8116C40.6211 34.6989 40.6825 34.5859 40.7416 34.4713L42.2631 34.2251C42.3392 34.2129 42.4108 34.1816 42.4712 34.134C42.5316 34.0864 42.5787 34.0242 42.608 33.9533C42.6375 33.8826 42.6483 33.8056 42.6394 33.7295C42.6306 33.6534 42.6023 33.5809 42.5573 33.5188L41.6572 32.2755C41.6961 32.1527 41.7341 32.0293 41.7703 31.9051L43.213 31.3686C43.2852 31.3418 43.3494 31.2971 43.3992 31.2387C43.4491 31.1803 43.4831 31.1102 43.4979 31.035C43.5131 30.9599 43.5087 30.8822 43.485 30.8093C43.4613 30.7365 43.4192 30.6709 43.3627 30.6189L42.2342 29.5717C42.2478 29.4453 42.2604 29.3181 42.2714 29.1913L43.5849 28.3826C43.6504 28.3424 43.7044 28.2862 43.7419 28.2193C43.7793 28.1525 43.799 28.0772 43.7989 28.0007C43.7989 27.845 43.7182 27.7002 43.5851 27.6185ZM34.7946 38.4534C34.293 38.3458 33.9741 37.8543 34.0817 37.3539C34.189 36.8542 34.683 36.5362 35.1844 36.6437C35.686 36.7505 36.0054 37.243 35.8979 37.7423C35.7903 38.2418 35.2959 38.5602 34.7946 38.4534ZM34.3483 35.4518C34.2395 35.4286 34.1271 35.4269 34.0176 35.4469C33.9081 35.4669 33.8037 35.5082 33.7103 35.5684C33.6169 35.6286 33.5363 35.7065 33.4732 35.7977C33.4101 35.8888 33.3657 35.9915 33.3425 36.0998L32.8762 38.2638C31.4372 38.9132 29.8393 39.2741 28.1564 39.2741C26.435 39.2741 24.8023 38.8954 23.3378 38.2182L22.8717 36.0543C22.7737 35.5989 22.3235 35.3089 21.8662 35.4066L19.9451 35.8168C19.5881 35.4514 19.2562 35.0624 18.9518 34.6526H28.2994C28.4051 34.6526 28.4756 34.6335 28.4756 34.5378V31.2496C28.4756 31.1539 28.4051 31.1349 28.2993 31.1349H25.5657V29.0507H28.5224C28.7923 29.0507 29.9656 29.1272 30.3406 30.6186C30.4582 31.0773 30.7161 32.5691 30.8925 33.0467C31.0683 33.5824 31.7838 34.6525 32.5463 34.6525H37.2043C37.2572 34.6525 37.3136 34.6465 37.3731 34.6358C37.05 35.0723 36.6959 35.4853 36.3137 35.8718L34.3484 35.4518H34.3483ZM21.42 38.4082C20.9184 38.5159 20.4245 38.1978 20.3166 37.6981C20.2093 37.1975 20.5283 36.7062 21.0298 36.5986C21.5315 36.4919 22.0256 36.81 22.1331 37.3096C22.2404 37.809 21.9212 38.3012 21.4199 38.4082H21.42ZM17.874 24.1092C18.0821 24.5761 17.8703 25.1234 17.4014 25.33C16.9325 25.5372 16.3837 25.3263 16.1757 24.859C15.9675 24.3918 16.1792 23.8455 16.6482 23.6383C16.7598 23.5891 16.88 23.5622 17.002 23.5593C17.124 23.5563 17.2454 23.5773 17.3592 23.621C17.4731 23.6647 17.5771 23.7304 17.6655 23.8141C17.7538 23.8979 17.8246 23.9981 17.874 24.1091V24.1092ZM16.7841 26.6783L18.7854 25.794C18.9908 25.7031 19.1516 25.5348 19.2323 25.3261C19.3131 25.1174 19.3072 24.8854 19.216 24.681L18.804 23.7542H20.4249V31.0201H17.1545C16.8646 30.0053 16.718 28.9553 16.7187 27.9003C16.7187 27.4873 16.7411 27.0792 16.7841 26.6782V26.6783ZM25.5661 25.9726V23.8309H29.4262C29.6256 23.8309 30.834 24.0601 30.834 24.9587C30.834 25.7048 29.9072 25.9722 29.145 25.9722H25.5661V25.9726ZM39.5945 27.9003C39.5945 28.1844 39.584 28.4656 39.5631 28.7447H38.3895C38.2721 28.7447 38.2248 28.8215 38.2248 28.9358V29.4718C38.2248 30.7332 37.5095 31.0076 36.8827 31.0775C36.2859 31.1443 35.624 30.829 35.5425 30.4657C35.1903 28.4963 34.6036 28.0756 33.677 27.3488C34.827 26.6227 36.0234 25.5514 36.0234 24.1174C36.0234 22.5691 34.956 21.5938 34.2284 21.1156C33.2077 20.4465 32.0776 20.3123 31.7727 20.3123H19.6361C21.2818 18.4858 23.5123 17.1919 26.035 16.7211L27.4656 18.2134C27.5423 18.2935 27.6342 18.3578 27.736 18.4025C27.8378 18.4473 27.9474 18.4716 28.0586 18.4742C28.1699 18.4767 28.2805 18.4574 28.3842 18.4174C28.488 18.3774 28.5827 18.3174 28.6631 18.2409L30.2638 16.7184C33.6177 17.3394 36.4574 19.4156 38.0939 22.2641L36.9981 24.7254C36.8089 25.1513 37.002 25.6495 37.4291 25.8382L39.5389 26.7701C39.5753 27.1426 39.5945 27.5188 39.5945 27.9003ZM27.4662 15.4515C27.8369 15.0984 28.4248 15.1124 28.7797 15.4815C29.1338 15.8516 29.1204 16.4369 28.7489 16.7897C28.3782 17.1429 27.7903 17.1291 27.4354 16.7593C27.2654 16.5817 27.1731 16.3442 27.1789 16.0991C27.1847 15.8539 27.288 15.621 27.4662 15.4515ZM38.3405 24.1541C38.3898 24.0431 38.4607 23.9428 38.549 23.8591C38.6373 23.7754 38.7413 23.7098 38.8551 23.6661C38.969 23.6223 39.0903 23.6014 39.2123 23.6044C39.3343 23.6074 39.4545 23.6343 39.566 23.6835C40.035 23.8903 40.2467 24.4373 40.0386 24.9043C39.9893 25.0153 39.9185 25.1156 39.8302 25.1994C39.7419 25.2832 39.6378 25.3488 39.5239 25.3925C39.4101 25.4363 39.2887 25.4573 39.1667 25.4543C39.0446 25.4513 38.9244 25.4244 38.8129 25.3752C38.3444 25.1682 38.1328 24.6217 38.3405 24.1541Z" fill="black"/>
</svg>
