<svg width="56" height="56" viewBox="0 0 56 56" fill="none" xmlns="http://www.w3.org/2000/svg">
<path d="M12.4444 12.4445H43.5556V43.5556H12.4444V12.4445Z" fill="#34BDB2"/>
<path d="M32.9171 23.0224C31.2746 22.0693 29.8165 21.3199 27.909 21.3529C26.8177 21.3719 25.8807 21.9651 25.6837 23.0507C25.5003 24.0607 26.3981 24.6209 27.3322 24.9649C28.8813 25.5353 30.2299 26.1376 31.752 26.7719C34.5191 27.925 35.938 29.7925 35.7702 32.1887C35.5568 35.2375 33.722 37.4241 30.806 38.145C26.9956 39.0871 23.2954 37.6521 20.1691 35.6488C20.9582 34.4468 21.8737 33.6263 22.658 32.4315C24.4641 33.2003 25.8831 34.2391 27.7726 34.4011C29.1049 34.5154 30.6145 34.4518 30.9139 32.8869C31.1837 31.4757 29.9555 30.7192 28.7576 30.2966C27.3315 29.7936 25.908 29.1783 24.5095 28.6072C21.9242 27.5512 20.8723 25.4858 21.0493 23.0527C21.0493 21.6261 22.233 18.7426 25.1352 17.8458C29.5943 16.4676 32.0511 17.8788 35.2846 19.9568C34.4258 21.0926 33.7655 21.9002 32.9171 23.0224Z" fill="#1E2235"/>
</svg>
