<svg width="57" height="56" viewBox="0 0 57 56" fill="none" xmlns="http://www.w3.org/2000/svg">
<path d="M12.514 12.4444H43.7989V43.5556H12.514V12.4444Z" fill="#34BDB2"/>
<path d="M33.101 23.0223C31.4493 22.0693 29.983 21.3199 28.0649 21.3529C26.9675 21.3719 26.0253 21.9651 25.8272 23.0507C25.6427 24.0607 26.5456 24.6209 27.4849 24.9648C29.0427 25.5353 30.3988 26.1376 31.9294 26.7718C34.712 27.925 36.1387 29.7925 35.9701 32.1887C35.7555 35.2375 33.9104 37.4241 30.978 38.145C27.1464 39.0871 23.4256 37.6521 20.2818 35.6488C21.0753 34.4468 21.9959 33.6262 22.7846 32.4315C24.6008 33.2003 26.0277 34.2391 27.9278 34.4011C29.2675 34.5153 30.7856 34.4518 31.0866 32.8869C31.3579 31.4757 30.1228 30.7192 28.9183 30.2966C27.4842 29.7936 26.0528 29.1783 24.6464 28.6071C22.0467 27.5512 20.9889 25.4858 21.1669 23.0527C21.1669 21.6261 22.3572 18.7426 25.2756 17.8457C29.7596 16.4676 32.2302 17.8788 35.4817 19.9568C34.6181 21.0926 33.9541 21.9002 33.101 23.0223Z" fill="white"/>
</svg>
