<?xml version="1.0" encoding="utf-8"?>
<!-- Generator: Adobe Illustrator 30.0.0, SVG Export Plug-In . SVG Version: 9.03 Build 0)  -->
<svg version="1.0" id="katman_1" xmlns="http://www.w3.org/2000/svg" xmlns:xlink="http://www.w3.org/1999/xlink" x="0px" y="0px"
	 viewBox="0 0 56 56" style="enable-background:new 0 0 56 56;" xml:space="preserve">
<style type="text/css">
	.st0{fill:#FF642D;}
</style>
<path class="st0" d="M39.64,27.85c0,0.59-0.3,0.67-1.03,0.67c-0.81,0-0.96-0.15-1.03-0.74c-0.15-1.55-1.18-2.88-2.96-2.96
	c-0.52-0.07-0.67-0.22-0.67-0.96c0-0.67,0.07-0.96,0.59-0.96C37.5,22.97,39.64,25.41,39.64,27.85z M44,27.85
	c0-4.58-3.1-9.46-10.35-9.46H19.39c-0.3,0-0.52,0.15-0.52,0.44c0,0.15,0.07,0.3,0.22,0.37c0.52,0.44,1.26,0.89,2.29,1.4
	c0.96,0.52,1.77,0.81,2.51,1.11c0.3,0.15,0.44,0.3,0.44,0.44c0,0.22-0.15,0.44-0.52,0.44H12.52C12.15,22.53,12,22.75,12,22.97
	s0.07,0.37,0.22,0.52c0.89,0.96,2.36,2.14,4.51,3.47c1.85,1.18,4.21,2.44,6.06,3.33c0.3,0.15,0.44,0.3,0.44,0.52
	c0,0.22-0.15,0.37-0.52,0.37h-5.25c-0.3,0-0.44,0.15-0.44,0.37c0,0.15,0.07,0.3,0.22,0.44c1.18,1.11,3.1,2.22,5.62,3.33
	c3.4,1.4,6.8,2.29,10.64,2.29C40.82,37.61,44,32.14,44,27.85z M34.47,34.43c-3.55,0-6.58-2.88-6.58-6.58c0-3.55,2.96-6.43,6.58-6.43
	c3.7,0,6.58,2.88,6.58,6.43C41.04,31.47,38.16,34.43,34.47,34.43z"/>
</svg>
