<?xml version="1.0" encoding="UTF-8"?>
<svg id="Layer_1" xmlns="http://www.w3.org/2000/svg" version="1.1" viewBox="0 0 56 56">
  <!-- Generator: Adobe Illustrator 30.0.0, SVG Export Plug-In . SVG Version: 2.1.1 Build 123)  -->
  <defs>
    <style>
      .st0 {
        fill: #fff;
      }

      .st0, .st1, .st2 {
        fill-rule: evenodd;
      }

      .st1 {
        fill: #5e8e3e;
      }

      .st2 {
        fill: #95bf47;
      }
    </style>
  </defs>
  <path class="st2" d="M38.32,18.43c-.02-.16-.16-.24-.27-.25-.11-.01-2.33-.04-2.33-.04,0,0-1.85-1.8-2.04-1.98-.18-.18-.54-.13-.68-.09,0,0-.35.11-.93.29-.1-.32-.24-.7-.45-1.09-.66-1.26-1.63-1.92-2.79-1.93h0c-.08,0-.16,0-.24.02-.04-.04-.07-.08-.11-.12-.51-.54-1.16-.81-1.94-.78-1.51.04-3.01,1.13-4.23,3.07-.86,1.36-1.51,3.07-1.69,4.39-1.73.54-2.94.91-2.97.92-.87.27-.9.3-1.02,1.12-.08.62-2.36,18.3-2.36,18.3l19.15,3.31,8.3-2.06s-3.39-22.9-3.41-23.06h0ZM31.11,16.65c-.44.14-.94.29-1.49.46-.01-.76-.1-1.83-.46-2.74,1.14.22,1.71,1.51,1.94,2.28h0ZM28.63,17.43c-1,.31-2.1.65-3.2.99.31-1.18.9-2.36,1.62-3.13.27-.29.64-.61,1.09-.79.42.87.51,2.1.5,2.93h0ZM26.57,13.45c.35,0,.65.07.91.24-.41.21-.8.51-1.17.91-.96,1.03-1.69,2.62-1.98,4.16-.91.28-1.81.56-2.63.81.52-2.42,2.55-6.05,4.87-6.12h0Z"/>
  <path class="st1" d="M38.05,18.18c-.11-.01-2.33-.04-2.33-.04,0,0-1.85-1.8-2.04-1.98-.07-.07-.16-.1-.26-.12v27.52l8.3-2.06s-3.39-22.9-3.41-23.06c-.02-.16-.16-.24-.27-.25h0Z"/>
  <path class="st0" d="M28.83,22.45l-.96,3.61s-1.08-.49-2.35-.41c-1.87.12-1.89,1.3-1.87,1.59.1,1.61,4.34,1.96,4.59,5.75.19,2.97-1.58,5.01-4.12,5.17-3.05.19-4.73-1.61-4.73-1.61l.65-2.75s1.69,1.28,3.04,1.19c.88-.06,1.2-.77,1.17-1.28-.13-2.1-3.59-1.98-3.81-5.44-.18-2.91,1.73-5.86,5.95-6.12,1.63-.1,2.46.31,2.46.31h0Z"/>
</svg>