<svg width="56" height="56" viewBox="0 0 56 56" fill="none" xmlns="http://www.w3.org/2000/svg">
<path fill-rule="evenodd" clip-rule="evenodd" d="M12.5989 23.703L18.9211 15.1209C18.9858 15.0333 19.0679 14.96 19.1622 14.9057C19.2566 14.8514 19.3611 14.8173 19.4693 14.8053L27.9135 13.8667C27.9711 13.8603 28.0293 13.8603 28.087 13.8667L36.5312 14.8044C36.6394 14.8163 36.7439 14.8505 36.8383 14.9048C36.9326 14.9591 37.0147 15.0323 37.0794 15.1199L43.4026 23.703C43.5084 23.8471 43.5621 24.0229 43.5549 24.2015C43.5478 24.3801 43.4802 24.5509 43.3632 24.6861L28.4489 41.9333C28.3933 41.9976 28.3246 42.0491 28.2474 42.0845C28.1701 42.1198 28.0862 42.1381 28.0012 42.1381C27.9163 42.1381 27.8323 42.1198 27.7551 42.0845C27.6778 42.0491 27.6091 41.9976 27.5536 41.9333L12.6363 24.6861C12.5195 24.5508 12.452 24.3799 12.4451 24.2013C12.4381 24.0227 12.492 23.847 12.5979 23.703H12.5989ZM30.1754 16.4037L36.1377 22.0357C36.1955 22.0904 36.2685 22.1264 36.3471 22.1389C36.4257 22.1514 36.5062 22.1398 36.5781 22.1057C36.65 22.0715 36.7099 22.0165 36.7499 21.9477C36.7899 21.8789 36.8082 21.7996 36.8023 21.7202L36.5164 17.7229C36.5123 17.674 36.5267 17.6254 36.5566 17.5865C36.5866 17.5476 36.6299 17.5213 36.6782 17.5127C36.7265 17.5041 36.7763 17.5137 36.8179 17.5399C36.8594 17.566 36.8897 17.6066 36.9029 17.6539L38.2103 22.2309C38.2543 22.3851 38.3352 22.5261 38.4461 22.6419C38.5569 22.7577 38.6943 22.8448 38.8463 22.8955L41.6367 23.8253C41.6812 23.8399 41.719 23.8699 41.7435 23.9099C41.7679 23.9499 41.7772 23.9973 41.7699 24.0436C41.7625 24.0899 41.7389 24.132 41.7033 24.1625C41.6677 24.193 41.6224 24.2097 41.5755 24.2099H38.8936C38.7279 24.2099 38.5648 24.2518 38.4195 24.3316C38.2742 24.4114 38.1514 24.5265 38.0624 24.6664L30.7522 36.1533C30.7113 36.216 30.6481 36.2608 30.5755 36.2788C30.5028 36.2967 30.4261 36.2865 30.3607 36.2501C30.2953 36.2137 30.2461 36.1539 30.223 36.0827C30.2 36.0115 30.2048 35.9342 30.2365 35.8664L35.4761 25.0598C35.5199 24.9696 35.5401 24.8697 35.5347 24.7696C35.5293 24.6695 35.4985 24.5724 35.4453 24.4874C35.392 24.4024 35.3181 24.3324 35.2303 24.2838C35.1426 24.2353 35.044 24.2098 34.9437 24.2099H21.0568C20.9565 24.2098 20.8579 24.2353 20.7702 24.2838C20.6824 24.3324 20.6085 24.4024 20.5552 24.4874C20.502 24.5724 20.4712 24.6695 20.4658 24.7696C20.4604 24.8697 20.4806 24.9696 20.5244 25.0598L25.764 35.8664C25.7969 35.9343 25.8026 36.0123 25.7799 36.0843C25.7572 36.1563 25.7079 36.2169 25.642 36.2537C25.5761 36.2905 25.4986 36.3007 25.4254 36.2822C25.3522 36.2637 25.2889 36.218 25.2483 36.1543L17.9381 24.6674C17.8491 24.5272 17.7262 24.4118 17.5807 24.3318C17.4352 24.2518 17.2719 24.2099 17.1059 24.2099H14.3421C14.2952 24.2097 14.25 24.193 14.2144 24.1625C14.1787 24.132 14.1552 24.0899 14.1478 24.0436C14.1404 23.9973 14.1498 23.9499 14.1742 23.9099C14.1986 23.8699 14.2365 23.8399 14.281 23.8253L17.1483 22.8935C17.3019 22.8435 17.4409 22.7564 17.553 22.64C17.6651 22.5236 17.7469 22.3814 17.7912 22.226L19.0976 17.6539C19.1108 17.6066 19.1411 17.566 19.1826 17.5399C19.2242 17.5137 19.2739 17.5041 19.3222 17.5127C19.3705 17.5213 19.4139 17.5476 19.4438 17.5865C19.4738 17.6254 19.4881 17.674 19.4841 17.7229L19.1982 21.7202C19.1923 21.7996 19.2105 21.8789 19.2506 21.9477C19.2906 22.0165 19.3504 22.0715 19.4223 22.1057C19.4942 22.1398 19.5748 22.1514 19.6534 22.1389C19.732 22.1264 19.805 22.0904 19.8627 22.0357L25.8251 16.4037C25.8611 16.3673 25.9099 16.3463 25.9611 16.3453C26.0123 16.3442 26.0619 16.3631 26.0994 16.3979C26.1369 16.4327 26.1594 16.4808 26.1621 16.5319C26.1649 16.583 26.1476 16.6332 26.114 16.6718L22.1138 21.595C22.0669 21.6528 22.0373 21.7227 22.0285 21.7967C22.0196 21.8706 22.0319 21.9455 22.0639 22.0128C22.0959 22.08 22.1462 22.1369 22.2092 22.1767C22.2721 22.2165 22.345 22.2377 22.4195 22.2378H33.581C33.6555 22.2377 33.7284 22.2165 33.7913 22.1767C33.8542 22.1369 33.9046 22.08 33.9366 22.0128C33.9686 21.9455 33.9808 21.8706 33.972 21.7967C33.9632 21.7227 33.9336 21.6528 33.8867 21.595L29.8865 16.6718C29.8529 16.6332 29.8356 16.583 29.8383 16.5319C29.8411 16.4808 29.8636 16.4327 29.9011 16.3979C29.9386 16.3631 29.9882 16.3442 30.0394 16.3453C30.0906 16.3463 30.1393 16.3673 30.1754 16.4037Z" fill="white"/>
</svg>
