<svg width="56" height="56" viewBox="0 0 56 56" fill="none" xmlns="http://www.w3.org/2000/svg">
<path fill-rule="evenodd" clip-rule="evenodd" d="M18.8326 23.9855L28.0866 41.9959L12.5323 23.9855H18.8326Z" fill="#EA6C00"/>
<path fill-rule="evenodd" clip-rule="evenodd" d="M37.3431 23.9855L28.0892 41.9959L43.6434 23.9855H37.3431Z" fill="#EA6C00"/>
<path fill-rule="evenodd" clip-rule="evenodd" d="M18.8322 23.9855H37.3402L28.0862 41.9959L18.8322 23.9855Z" fill="#FDAD00"/>
<path fill-rule="evenodd" clip-rule="evenodd" d="M28.0862 14.0041L19.3193 14.9256L18.8322 23.9855L28.0862 14.0041Z" fill="#FDD231"/>
<path fill-rule="evenodd" clip-rule="evenodd" d="M28.0862 14.0041L36.8531 14.9256L37.3402 23.9855L28.0862 14.0041Z" fill="#FDD231"/>
<path fill-rule="evenodd" clip-rule="evenodd" d="M43.6434 23.9855L36.8561 14.9256L37.3431 23.9855H43.6434Z" fill="#FDAD00"/>
<path fill-rule="evenodd" clip-rule="evenodd" d="M12.5323 23.9855L19.3196 14.9256L18.8326 23.9855H12.5323Z" fill="#FDAD00"/>
<path fill-rule="evenodd" clip-rule="evenodd" d="M28.0862 14.0041L18.8322 23.9855H37.3402L28.0862 14.0041Z" fill="#FEEEB7"/>
</svg>
