<svg width="57" height="56" viewBox="0 0 57 56" fill="none" xmlns="http://www.w3.org/2000/svg">
<path fill-rule="evenodd" clip-rule="evenodd" d="M18.9378 23.9855L28.2435 41.9959L12.6023 23.9855H18.9378Z" fill="#EA6C00"/>
<path fill-rule="evenodd" clip-rule="evenodd" d="M37.5518 23.9855L28.2461 41.9959L43.8872 23.9855H37.5518Z" fill="#EA6C00"/>
<path fill-rule="evenodd" clip-rule="evenodd" d="M18.9375 23.9855H37.5488L28.2431 41.9959L18.9375 23.9855Z" fill="#FDAD00"/>
<path fill-rule="evenodd" clip-rule="evenodd" d="M28.2431 14.0041L19.4272 14.9256L18.9375 23.9855L28.2431 14.0041Z" fill="#FDD231"/>
<path fill-rule="evenodd" clip-rule="evenodd" d="M28.2431 14.0041L37.059 14.9256L37.5488 23.9855L28.2431 14.0041Z" fill="#FDD231"/>
<path fill-rule="evenodd" clip-rule="evenodd" d="M43.8872 23.9855L37.062 14.9256L37.5518 23.9855H43.8872Z" fill="#FDAD00"/>
<path fill-rule="evenodd" clip-rule="evenodd" d="M12.6023 23.9855L19.4276 14.9256L18.9378 23.9855H12.6023Z" fill="#FDAD00"/>
<path fill-rule="evenodd" clip-rule="evenodd" d="M28.2431 14.0041L18.9375 23.9855H37.5488L28.2431 14.0041Z" fill="#FEEEB7"/>
</svg>
