<svg width="57" height="56" viewBox="0 0 57 56" fill="none" xmlns="http://www.w3.org/2000/svg">
<path fill-rule="evenodd" clip-rule="evenodd" d="M12.6692 23.7031L19.0268 15.1209C19.0918 15.0333 19.1744 14.9601 19.2693 14.9058C19.3641 14.8515 19.4693 14.8173 19.5781 14.8054L28.0694 13.8667C28.1274 13.8603 28.1859 13.8603 28.2439 13.8667L36.7352 14.8044C36.844 14.8163 36.9492 14.8505 37.0441 14.9048C37.1389 14.9591 37.2215 15.0323 37.2865 15.1199L43.6451 23.7031C43.7515 23.8471 43.8055 24.0229 43.7983 24.2015C43.791 24.3801 43.7231 24.551 43.6054 24.6861L28.6078 41.9333C28.552 41.9976 28.4828 42.0491 28.4052 42.0845C28.3275 42.1198 28.2431 42.1381 28.1577 42.1381C28.0722 42.1381 27.9878 42.1198 27.9101 42.0845C27.8325 42.0491 27.7634 41.9976 27.7075 41.9333L12.7069 24.6861C12.5894 24.5508 12.5216 24.3799 12.5146 24.2013C12.5076 24.0227 12.5617 23.847 12.6682 23.7031H12.6692ZM30.3439 16.4037L36.3396 22.0357C36.3977 22.0905 36.4711 22.1264 36.5502 22.1389C36.6292 22.1514 36.7102 22.1398 36.7825 22.1057C36.8548 22.0716 36.915 22.0165 36.9552 21.9477C36.9955 21.8789 37.0138 21.7996 37.0079 21.7202L36.7204 17.7229C36.7163 17.674 36.7308 17.6254 36.7609 17.5865C36.791 17.5476 36.8346 17.5213 36.8831 17.5127C36.9317 17.5041 36.9818 17.5138 37.0235 17.5399C37.0653 17.566 37.0958 17.6067 37.109 17.6539L38.4238 22.231C38.468 22.3851 38.5494 22.5261 38.6608 22.6419C38.7723 22.7577 38.9104 22.8448 39.0633 22.8955L41.8693 23.8253C41.9141 23.84 41.9521 23.87 41.9767 23.91C42.0012 23.95 42.0106 23.9973 42.0032 24.0436C41.9958 24.0899 41.9721 24.132 41.9363 24.1625C41.9005 24.193 41.8549 24.2098 41.8078 24.2099H39.1109C38.9442 24.21 38.7803 24.2518 38.6342 24.3316C38.4881 24.4114 38.3646 24.5266 38.2751 24.6664L30.924 36.1533C30.8828 36.216 30.8193 36.2608 30.7463 36.2788C30.6732 36.2968 30.596 36.2865 30.5303 36.2501C30.4645 36.2137 30.4151 36.1539 30.3919 36.0827C30.3687 36.0115 30.3736 35.9342 30.4054 35.8664L35.6743 25.0598C35.7183 24.9696 35.7386 24.8697 35.7332 24.7696C35.7277 24.6695 35.6968 24.5724 35.6433 24.4874C35.5897 24.4024 35.5154 24.3324 35.4271 24.2838C35.3389 24.2353 35.2397 24.2098 35.1389 24.2099H21.1744C21.0736 24.2098 20.9744 24.2353 20.8862 24.2838C20.798 24.3324 20.7236 24.4024 20.6701 24.4874C20.6165 24.5724 20.5856 24.6695 20.5802 24.7696C20.5747 24.8697 20.595 24.9696 20.639 25.0598L25.9079 35.8664C25.941 35.9343 25.9468 36.0123 25.9239 36.0843C25.9011 36.1563 25.8515 36.2169 25.7852 36.2537C25.719 36.2905 25.641 36.3007 25.5674 36.2822C25.4938 36.2637 25.4301 36.218 25.3894 36.1543L18.0383 24.6674C17.9488 24.5272 17.8252 24.4118 17.6789 24.3318C17.5326 24.2519 17.3684 24.2099 17.2014 24.2099H14.4222C14.3751 24.2098 14.3296 24.193 14.2938 24.1625C14.258 24.132 14.2342 24.0899 14.2268 24.0436C14.2194 23.9973 14.2288 23.95 14.2534 23.91C14.2779 23.87 14.316 23.84 14.3608 23.8253L17.2441 22.8936C17.3986 22.8435 17.5384 22.7564 17.6511 22.64C17.7638 22.5236 17.846 22.3815 17.8905 22.226L19.2043 17.6539C19.2175 17.6067 19.248 17.566 19.2898 17.5399C19.3316 17.5138 19.3816 17.5041 19.4302 17.5127C19.4788 17.5213 19.5224 17.5476 19.5525 17.5865C19.5826 17.6254 19.597 17.674 19.593 17.7229L19.3054 21.7202C19.2995 21.7996 19.3179 21.8789 19.3581 21.9477C19.3983 22.0165 19.4585 22.0716 19.5308 22.1057C19.6031 22.1398 19.6841 22.1514 19.7632 22.1389C19.8422 22.1264 19.9156 22.0905 19.9737 22.0357L25.9694 16.4037C26.0056 16.3673 26.0546 16.3464 26.1061 16.3453C26.1576 16.3442 26.2075 16.3631 26.2452 16.3979C26.2829 16.4327 26.3056 16.4808 26.3083 16.5319C26.311 16.5831 26.2937 16.6332 26.2599 16.6719L22.2373 21.595C22.1902 21.6528 22.1604 21.7227 22.1515 21.7967C22.1426 21.8706 22.155 21.9456 22.1872 22.0128C22.2193 22.0801 22.2699 22.1369 22.3332 22.1767C22.3965 22.2165 22.4698 22.2377 22.5447 22.2379H33.7686C33.8435 22.2377 33.9168 22.2165 33.9801 22.1767C34.0434 22.1369 34.094 22.0801 34.1262 22.0128C34.1583 21.9456 34.1707 21.8706 34.1618 21.7967C34.1529 21.7227 34.1232 21.6528 34.076 21.595L30.0534 16.6719C30.0196 16.6332 30.0023 16.5831 30.005 16.5319C30.0078 16.4808 30.0304 16.4327 30.0681 16.3979C30.1059 16.3631 30.1557 16.3442 30.2072 16.3453C30.2587 16.3464 30.3077 16.3673 30.3439 16.4037Z" fill="black"/>
</svg>
