<?xml version="1.0" encoding="UTF-8"?>
<svg id="Layer_1" xmlns="http://www.w3.org/2000/svg" xmlns:xlink="http://www.w3.org/1999/xlink" version="1.1" viewBox="0 0 56 56">
  <!-- Generator: Adobe Illustrator 30.0.0, SVG Export Plug-In . SVG Version: 2.1.1 Build 123)  -->
  <defs>
    <style>
      .st0 {
        fill: url(#linear-gradient);
      }

      .st1 {
        fill: #3ecf8e;
      }

      .st2 {
        fill: url(#linear-gradient1);
        fill-opacity: .2;
      }
    </style>
    <linearGradient id="linear-gradient" x1="26.81" y1="26.87" x2="38.3" y2="22.05" gradientTransform="translate(0 57) scale(1 -1)" gradientUnits="userSpaceOnUse">
      <stop offset="0" stop-color="#249361"/>
      <stop offset="1" stop-color="#3ecf8e"/>
    </linearGradient>
    <linearGradient id="linear-gradient1" x1="27.36" y1="38.77" x2="32.6" y2="28.9" gradientTransform="translate(0 57) scale(1 -1)" gradientUnits="userSpaceOnUse">
      <stop offset="0" stop-color="#000"/>
      <stop offset="1" stop-color="#000" stop-opacity="0"/>
    </linearGradient>
  </defs>
  <path class="st0" d="M30.63,43.47c-.82,1.03-2.48.47-2.49-.85l-.29-19.23h12.93c2.34,0,3.65,2.7,2.19,4.54l-12.34,15.54Z"/>
  <path class="st2" d="M30.63,43.47c-.82,1.03-2.48.47-2.49-.85l-.29-19.23h12.93c2.34,0,3.65,2.7,2.19,4.54l-12.34,15.54Z"/>
  <path class="st1" d="M25.37,12.53c.82-1.03,2.48-.47,2.49.85l.13,19.23h-12.77c-2.34,0-3.65-2.7-2.19-4.54l12.34-15.54Z"/>
</svg>