<svg width="57" height="56" viewBox="0 0 57 56" fill="none" xmlns="http://www.w3.org/2000/svg">
<path d="M39.5197 16.5607C36.6131 12.426 30.8719 11.2004 26.7214 13.8291L19.4324 18.4473C18.9421 18.7537 18.4846 19.11 18.0684 19.5104C17.6517 19.9107 17.2783 20.3532 16.954 20.8304C16.6297 21.3077 16.3561 21.8171 16.1373 22.3505C15.919 22.884 15.757 23.4387 15.6537 24.0055C15.5676 24.4807 15.5206 24.9626 15.5143 25.4455C15.5075 25.929 15.5415 26.412 15.6151 26.8892C15.6887 27.367 15.802 27.838 15.9535 28.297C16.1049 28.7561 16.2945 29.2017 16.5201 29.6296C16.3649 29.8641 16.2216 30.1062 16.0908 30.3551C15.9597 30.6038 15.8417 30.8593 15.7368 31.12C15.6318 31.3807 15.5404 31.6466 15.4626 31.9166C15.3848 32.1867 15.3211 32.4603 15.271 32.7366C15.0626 33.8984 15.0902 35.0898 15.3519 36.2409C15.4824 36.8147 15.6699 37.3745 15.9122 37.9115C16.1545 38.4485 16.4496 38.9605 16.7942 39.4393C19.7008 43.574 25.4415 44.7996 29.592 42.1709L36.881 37.5719C37.3713 37.265 37.8277 36.9082 38.2439 36.5073C38.6601 36.1067 39.0333 35.6643 39.3578 35.1872C39.6821 34.7105 39.9557 34.201 40.1745 33.6677C40.3933 33.1349 40.5557 32.5803 40.6597 32.0137C40.7458 31.5386 40.7923 31.0572 40.7986 30.5742C40.8048 30.0912 40.7709 29.6083 40.6967 29.131C40.6231 28.6538 40.5098 28.1833 40.3578 27.7242C40.2059 27.2657 40.0163 26.8201 39.7907 26.3922C39.9458 26.158 40.0894 25.9155 40.2205 25.6667C40.351 25.418 40.4696 25.1625 40.5745 24.9018C40.6795 24.6411 40.7714 24.3752 40.8498 24.1052C40.9276 23.8357 40.9923 23.562 41.043 23.2857C41.1464 22.7062 41.1913 22.1178 41.1777 21.5294C41.1641 20.9411 41.0915 20.3558 40.961 19.7814C40.8304 19.2076 40.643 18.6478 40.4007 18.1108C40.1587 17.5738 39.8636 17.062 39.5197 16.583" fill="#FF3E00"/>
<path d="M26.0091 39.8392C25.4386 39.9865 24.8489 40.0464 24.2602 40.0168C23.6717 39.9866 23.091 39.8682 22.5385 39.6642C21.986 39.4604 21.4679 39.1741 21.0022 38.8151C20.5368 38.4559 20.1292 38.0282 19.7933 37.5469C19.5859 37.2587 19.4084 36.9513 19.2632 36.6283C19.1176 36.3055 19.0048 35.969 18.9264 35.6239C18.8486 35.2786 18.8047 34.9265 18.7969 34.5729C18.7891 34.2192 18.8167 33.8656 18.8794 33.5171C18.8893 33.4605 18.9008 33.4039 18.9133 33.3478C18.9254 33.2912 18.9389 33.2351 18.9536 33.1796C18.9677 33.1235 18.9833 33.0679 19 33.0123C19.0162 32.9573 19.034 32.9023 19.0522 32.8477L19.1896 32.4307L19.564 32.7086C19.7786 32.8643 20.0001 33.0113 20.2272 33.1484C20.4544 33.286 20.6873 33.4138 20.9254 33.5311C21.163 33.649 21.4064 33.757 21.6534 33.8541C21.9004 33.9518 22.1516 34.0385 22.4064 34.1148L22.6858 34.1953L22.6607 34.4732C22.6472 34.6622 22.667 34.8522 22.7192 35.0345C22.7448 35.1259 22.7787 35.2142 22.82 35.2994C22.8612 35.3845 22.9098 35.4661 22.9652 35.5429C23.0666 35.6879 23.1897 35.8166 23.3302 35.9246C23.4701 36.0326 23.6263 36.1188 23.7928 36.1801C23.9594 36.2414 24.1339 36.2767 24.3114 36.2855C24.4884 36.2949 24.666 36.2767 24.8378 36.2321C24.8775 36.2217 24.9161 36.2097 24.9548 36.1962C24.9934 36.1827 25.0315 36.1682 25.0686 36.1516C25.1062 36.1355 25.1428 36.1178 25.1793 36.0986C25.2153 36.0799 25.2503 36.0596 25.2848 36.0378L32.5628 31.4191C32.652 31.3635 32.7352 31.2987 32.8109 31.2259C32.8866 31.1527 32.9539 31.0722 33.0129 30.9855C33.072 30.8988 33.121 30.8058 33.1607 30.7087C33.1999 30.6116 33.2291 30.5108 33.2479 30.408C33.2662 30.3026 33.2741 30.1961 33.2714 30.0892C33.2688 29.9827 33.2553 29.8768 33.2312 29.7724C33.2077 29.6685 33.1733 29.5673 33.1289 29.4696C33.085 29.3725 33.0307 29.2801 32.968 29.1934C32.8667 29.0485 32.744 28.9202 32.6035 28.8122C32.4631 28.7042 32.3069 28.618 32.1409 28.5567C31.9744 28.4954 31.7996 28.4597 31.6223 28.4508C31.4448 28.4419 31.2672 28.4601 31.0954 28.5042C31.0562 28.5146 31.0171 28.5266 30.9784 28.5401C30.9398 28.5536 30.9022 28.5681 30.8646 28.5842C30.827 28.6008 30.7904 28.6185 30.7544 28.6377C30.7184 28.6564 30.6829 28.6772 30.6484 28.699L27.8535 30.4636C27.7397 30.5353 27.6227 30.6028 27.5037 30.6661C27.3841 30.729 27.2629 30.7876 27.1392 30.8416C27.0154 30.8957 26.8895 30.945 26.7621 30.9891C26.6347 31.0338 26.5057 31.0733 26.3752 31.108C25.8054 31.2545 25.2169 31.3137 24.6294 31.2836C24.0419 31.2535 23.4628 31.1345 22.9114 30.9315C22.3599 30.7279 21.8429 30.4418 21.3782 30.0835C20.9134 29.7251 20.5061 29.2988 20.1703 28.8184C19.964 28.5302 19.787 28.2223 19.6423 27.8992C19.4972 27.5762 19.3849 27.2397 19.3071 26.8949C19.2293 26.5496 19.1865 26.1975 19.1791 25.8438C19.1713 25.4907 19.199 25.1371 19.2622 24.7891C19.3856 24.1041 19.6514 23.4522 20.0424 22.8749C20.4336 22.2977 20.9418 21.8082 21.5343 21.4375L28.8348 16.8193C28.9481 16.7476 29.064 16.6801 29.1826 16.6168C29.3011 16.5539 29.4222 16.4953 29.545 16.4413C29.668 16.3872 29.793 16.338 29.9199 16.2938C30.0463 16.2491 30.1747 16.2091 30.3048 16.1743C30.875 16.0274 31.4646 15.9671 32.0526 15.9967C32.6411 16.0268 33.2213 16.1452 33.7738 16.3493C34.3263 16.5529 34.8438 16.8396 35.3096 17.1984C35.7748 17.5578 36.1823 17.9856 36.518 18.4671C36.7248 18.7548 36.9029 19.0622 37.0486 19.3852C37.1943 19.7082 37.3071 20.0442 37.3859 20.3895C37.4642 20.7349 37.5081 21.087 37.5159 21.4406C37.5243 21.7943 37.4971 22.1479 37.4345 22.4964C37.4235 22.5535 37.412 22.6106 37.399 22.6672C37.3864 22.7238 37.3729 22.7804 37.3582 22.8365C37.3441 22.8931 37.3285 22.9492 37.3123 23.0048C37.2961 23.0609 37.2794 23.1164 37.2611 23.1715L37.1217 23.5885L36.7499 23.3106C36.5347 23.1533 36.3128 23.0058 36.0851 22.8672C35.8574 22.729 35.6235 22.6002 35.3848 22.4813C34.907 22.2443 34.4101 22.0477 33.8991 21.8935L33.6192 21.813L33.6448 21.5351C33.6527 21.4401 33.6521 21.3446 33.6433 21.25C33.6349 21.1555 33.6177 21.0615 33.5926 20.9696C33.567 20.8782 33.5341 20.7884 33.4929 20.7027C33.4521 20.6165 33.4036 20.5344 33.3482 20.4565C33.2463 20.3142 33.1232 20.1881 32.9832 20.0826C32.8433 19.9767 32.688 19.8926 32.5226 19.8334C32.1902 19.7134 31.8289 19.6973 31.4871 19.7871C31.4474 19.7975 31.4082 19.8095 31.3701 19.8225C31.3314 19.836 31.2933 19.851 31.2557 19.8671C31.2186 19.8832 31.1816 19.9014 31.1455 19.9201C31.1095 19.9393 31.074 19.9596 31.0395 19.9814L23.7479 24.5918C23.6592 24.6473 23.5761 24.7123 23.5009 24.785C23.4257 24.8577 23.3579 24.9382 23.2988 25.0244C23.2403 25.1111 23.1908 25.2035 23.1511 25.3001C23.1114 25.3972 23.0821 25.4975 23.0633 25.6003C23.045 25.7057 23.0372 25.8127 23.0398 25.9196C23.0461 26.1338 23.0945 26.3446 23.1824 26.5402C23.2267 26.6376 23.2804 26.7305 23.3427 26.8175C23.4435 26.9609 23.5657 27.0886 23.7051 27.1956C23.8443 27.3031 23.999 27.3889 24.1641 27.45C24.4961 27.5728 24.8577 27.5925 25.2012 27.5067C25.2404 27.4957 25.2796 27.4838 25.3182 27.4703C25.3563 27.4568 25.3945 27.4417 25.4321 27.4256C25.4695 27.4095 25.5062 27.3918 25.5422 27.3727C25.5783 27.354 25.6138 27.3337 25.6483 27.3119L28.4431 25.5504C28.5575 25.4777 28.6739 25.4092 28.7935 25.3458C28.9126 25.2819 29.0342 25.2233 29.1585 25.1687C29.2824 25.1147 29.4084 25.0655 29.5361 25.0212C29.664 24.9766 29.7935 24.9371 29.9246 24.9028C30.4949 24.7554 31.0839 24.6951 31.6724 24.7242C32.261 24.7538 32.8411 24.8722 33.3936 25.0758C33.9456 25.2793 34.4636 25.5655 34.9289 25.9248C35.3947 26.2837 35.8021 26.7111 36.1378 27.1925C36.3446 27.4807 36.5222 27.7881 36.6679 28.1111C36.8136 28.4339 36.9266 28.7704 37.0052 29.1155C37.0836 29.4603 37.1274 29.8124 37.1358 30.166C37.1441 30.5202 37.1165 30.8738 37.0543 31.2218C36.9927 31.5634 36.8956 31.8977 36.7645 32.2194C36.6335 32.5411 36.469 32.8483 36.2736 33.1359C36.0788 33.4236 35.8543 33.6906 35.6036 33.932C35.353 34.1735 35.0778 34.3885 34.7822 34.5734L27.4901 39.1916C27.3757 39.2638 27.2587 39.3318 27.1397 39.3952C27.0201 39.4585 26.8984 39.5172 26.7741 39.5712C26.6504 39.6257 26.5245 39.6751 26.3966 39.7197C26.2692 39.7644 26.1397 39.8044 26.0091 39.8392Z" fill="white"/>
</svg>
