<svg width="56" height="56" viewBox="0 0 56 56" fill="none" xmlns="http://www.w3.org/2000/svg">
<path d="M39.3001 16.5607C36.4096 12.426 30.7004 11.2004 26.5729 13.8292L19.3244 18.4474C18.8368 18.7537 18.3819 19.11 17.968 19.5104C17.5536 19.9108 17.1823 20.3532 16.8598 20.8305C16.5373 21.3077 16.2652 21.8171 16.0476 22.3505C15.8305 22.884 15.6694 23.4387 15.5667 24.0055C15.481 24.4807 15.4343 24.9626 15.4281 25.4455C15.4213 25.929 15.4551 26.412 15.5283 26.8892C15.6015 27.367 15.7142 27.838 15.8648 28.2971C16.0154 28.7561 16.2039 29.2017 16.4283 29.6296C16.2739 29.8641 16.1315 30.1063 16.0014 30.3551C15.871 30.6038 15.7537 30.8593 15.6493 31.12C15.5449 31.3807 15.454 31.6466 15.3767 31.9166C15.2993 32.1867 15.2359 32.4603 15.1861 32.7366C14.9789 33.8984 15.0063 35.0899 15.2666 36.2409C15.3964 36.8147 15.5828 37.3745 15.8238 37.9115C16.0647 38.4485 16.3582 38.9605 16.7009 39.4393C19.5914 43.574 25.3001 44.7996 29.4276 42.1709L36.676 37.5719C37.1637 37.265 37.6175 36.9082 38.0314 36.5073C38.4453 36.1067 38.8165 35.6643 39.1391 35.1872C39.4616 34.7105 39.7337 34.2011 39.9513 33.6677C40.1689 33.1349 40.3304 32.5803 40.4337 32.0137C40.5194 31.5386 40.5656 31.0572 40.5719 30.5742C40.5781 30.0913 40.5444 29.6083 40.4706 29.1311C40.3974 28.6538 40.2847 28.1833 40.1336 27.7243C39.9825 27.2657 39.794 26.8201 39.5696 26.3922C39.7239 26.158 39.8667 25.9155 39.997 25.6668C40.1268 25.418 40.2447 25.1625 40.3491 24.9018C40.4535 24.6411 40.5449 24.3752 40.6228 24.1052C40.7001 23.8357 40.7645 23.562 40.8149 23.2857C40.9177 22.7062 40.9624 22.1178 40.9489 21.5294C40.9354 20.9411 40.8632 20.3558 40.7334 19.7815C40.6036 19.2076 40.4171 18.6478 40.1762 18.1108C39.9355 17.5738 39.6421 17.062 39.3001 16.583" fill="#FF3E00"/>
<path d="M25.8646 39.8392C25.2973 39.9866 24.7108 40.0465 24.1254 40.0168C23.5402 39.9867 22.9627 39.8683 22.4133 39.6642C21.8638 39.4604 21.3487 39.1741 20.8855 38.8151C20.4227 38.4559 20.0173 38.0283 19.6833 37.547C19.4771 37.2588 19.3006 36.9513 19.1562 36.6283C19.0114 36.3055 18.8992 35.9691 18.8212 35.624C18.7439 35.2787 18.7002 34.9266 18.6925 34.5729C18.6847 34.2193 18.7122 33.8656 18.7745 33.5172C18.7844 33.4606 18.7958 33.404 18.8083 33.3479C18.8202 33.2913 18.8337 33.2352 18.8482 33.1796C18.8623 33.1235 18.8778 33.068 18.8945 33.0124C18.9106 32.9573 18.9282 32.9023 18.9464 32.8478L19.083 32.4308L19.4553 32.7086C19.6687 32.8644 19.8889 33.0114 20.1148 33.1485C20.3407 33.2861 20.5723 33.4138 20.8091 33.5312C21.0454 33.6491 21.2874 33.7571 21.5331 33.8542C21.7787 33.9518 22.0285 34.0385 22.2819 34.1149L22.5597 34.1954L22.5348 34.4732C22.5214 34.6623 22.5411 34.8523 22.593 35.0346C22.6184 35.126 22.6522 35.2143 22.6932 35.2994C22.7342 35.3846 22.7825 35.4661 22.8376 35.543C22.9384 35.6879 23.0608 35.8167 23.2005 35.9247C23.3397 36.0327 23.495 36.1189 23.6607 36.1802C23.8263 36.2414 23.9998 36.2768 24.1763 36.2856C24.3524 36.2949 24.5289 36.2768 24.6998 36.2321C24.7393 36.2217 24.7777 36.2098 24.8161 36.1963C24.8545 36.1828 24.8925 36.1682 24.9293 36.1516C24.9667 36.1355 25.0031 36.1179 25.0394 36.0986C25.0752 36.0799 25.11 36.0597 25.1443 36.0379L32.3819 31.4192C32.4706 31.3635 32.5533 31.2988 32.6286 31.226C32.7039 31.1528 32.7708 31.0723 32.8295 30.9855C32.8882 30.8988 32.937 30.8059 32.9765 30.7087C33.0154 30.6116 33.0445 30.5109 33.0632 30.4081C33.0814 30.3026 33.0892 30.1962 33.0866 30.0892C33.084 29.9828 33.0705 29.8768 33.0466 29.7724C33.0232 29.6686 32.989 29.5673 32.9448 29.4697C32.9012 29.3726 32.8472 29.2801 32.7849 29.1934C32.6841 29.0485 32.5621 28.9203 32.4224 28.8122C32.2827 28.7042 32.1274 28.618 31.9623 28.5567C31.7968 28.4954 31.6229 28.4597 31.4466 28.4508C31.2701 28.442 31.0935 28.4601 30.9226 28.5043C30.8837 28.5147 30.8447 28.5266 30.8063 28.5401C30.7679 28.5536 30.7305 28.5682 30.6931 28.5843C30.6557 28.6009 30.6194 28.6185 30.5835 28.6377C30.5477 28.6564 30.5124 28.6772 30.4781 28.699L27.6988 30.4636C27.5856 30.5353 27.4692 30.6028 27.3508 30.6662C27.2319 30.729 27.1114 30.7877 26.9884 30.8417C26.8653 30.8957 26.7401 30.945 26.6134 30.9892C26.4867 31.0338 26.3585 31.0733 26.2286 31.1081C25.6621 31.2545 25.0768 31.3137 24.4926 31.2836C23.9084 31.2535 23.3325 31.1346 22.7841 30.9315C22.2357 30.728 21.7216 30.4418 21.2594 30.0835C20.7972 29.7252 20.3921 29.2988 20.0582 28.8185C19.8531 28.5303 19.6771 28.2223 19.5332 27.8993C19.3888 27.5763 19.2772 27.2398 19.1998 26.895C19.1224 26.5496 19.0799 26.1975 19.0726 25.8439C19.0648 25.4907 19.0923 25.1371 19.1552 24.7892C19.2779 24.1041 19.5422 23.4522 19.931 22.875C20.3201 22.2978 20.8254 21.8082 21.4147 21.4376L28.6746 16.8194C28.7872 16.7477 28.9025 16.6802 29.0204 16.6168C29.1383 16.554 29.2588 16.4953 29.3808 16.4413C29.5031 16.3873 29.6275 16.3381 29.7537 16.2938C29.8793 16.2492 30.0071 16.2092 30.1364 16.1744C30.7035 16.0274 31.2898 15.9672 31.8745 15.9968C32.4598 16.0269 33.0367 16.1453 33.5862 16.3494C34.1356 16.5529 34.6502 16.8396 35.1134 17.1984C35.5761 17.5579 35.9813 17.9857 36.3151 18.4671C36.5208 18.7548 36.6978 19.0622 36.8427 19.3853C36.9876 19.7083 37.0998 20.0443 37.1782 20.3896C37.2561 20.7349 37.2997 21.087 37.3075 21.4407C37.3158 21.7943 37.2888 22.148 37.2265 22.4964C37.2156 22.5535 37.2042 22.6107 37.1912 22.6673C37.1787 22.7239 37.1652 22.7805 37.1507 22.8366C37.1367 22.8932 37.1211 22.9493 37.105 23.0048C37.0889 23.0609 37.0723 23.1165 37.0541 23.1715L36.9154 23.5885L36.5457 23.3107C36.3317 23.1533 36.111 23.0059 35.8846 22.8672C35.6582 22.7291 35.4255 22.6003 35.1882 22.4814C34.7131 22.2443 34.2189 22.0477 33.7108 21.8935L33.4324 21.813L33.4579 21.5352C33.4657 21.4401 33.4652 21.3446 33.4563 21.2501C33.448 21.1556 33.4309 21.0616 33.406 20.9697C33.3805 20.8783 33.3478 20.7884 33.3068 20.7027C33.2663 20.6165 33.218 20.5345 33.1629 20.4566C33.0616 20.3143 32.9392 20.1882 32.7999 20.0827C32.6609 19.9767 32.5064 19.8926 32.3419 19.8334C32.0114 19.7135 31.6521 19.6974 31.3121 19.7872C31.2726 19.7976 31.2337 19.8095 31.1958 19.8225C31.1574 19.836 31.1195 19.8511 31.0821 19.8672C31.0452 19.8833 31.0083 19.9014 30.9725 19.9201C30.9367 19.9394 30.9013 19.9596 30.8671 19.9814L23.616 24.5918C23.5277 24.6474 23.4451 24.7123 23.3704 24.785C23.2956 24.8577 23.2281 24.9382 23.1694 25.0244C23.1112 25.1111 23.062 25.2035 23.0224 25.3002C22.983 25.3973 22.9539 25.4975 22.9352 25.6003C22.917 25.7057 22.9092 25.8127 22.9118 25.9197C22.918 26.1338 22.9662 26.3447 23.0536 26.5403C23.0976 26.6376 23.151 26.7305 23.213 26.8176C23.3132 26.9609 23.4348 27.0887 23.5734 27.1956C23.7118 27.3031 23.8657 27.3889 24.0299 27.4501C24.36 27.5728 24.7196 27.5926 25.0612 27.5067C25.1002 27.4958 25.1391 27.4838 25.1775 27.4703C25.2155 27.4568 25.2534 27.4418 25.2908 27.4257C25.328 27.4095 25.3645 27.3918 25.4003 27.3727C25.4362 27.354 25.4715 27.3338 25.5058 27.312L28.2851 25.5505C28.3988 25.4778 28.5146 25.4092 28.6335 25.3459C28.7519 25.282 28.8729 25.2233 28.9965 25.1688C29.1197 25.1147 29.245 25.0655 29.372 25.0213C29.4992 24.9766 29.628 24.9372 29.7584 24.9029C30.3254 24.7554 30.9112 24.6952 31.4965 24.7242C32.0817 24.7538 32.6587 24.8723 33.2081 25.0758C33.757 25.2794 34.2722 25.5655 34.7349 25.9249C35.1981 26.2837 35.6031 26.7111 35.9371 27.1925C36.1427 27.4807 36.3193 27.7882 36.4642 28.1112C36.609 28.434 36.7214 28.7704 36.7996 29.1155C36.8775 29.4603 36.9211 29.8124 36.9295 30.1661C36.9378 30.5202 36.9102 30.8739 36.8484 31.2218C36.7872 31.5634 36.6906 31.8978 36.5602 32.2194C36.4299 32.5411 36.2663 32.8483 36.0721 33.136C35.8784 33.4237 35.6551 33.6906 35.4058 33.9321C35.1565 34.1736 34.8829 34.3886 34.5889 34.5734L27.3373 39.1916C27.2236 39.2638 27.1073 39.3318 26.9889 39.3952C26.87 39.4586 26.749 39.5172 26.6254 39.5712C26.5023 39.6258 26.3771 39.6751 26.2499 39.7198C26.1232 39.7644 25.9944 39.8044 25.8646 39.8392Z" fill="#1E2235"/>
</svg>
