<svg width="57" height="56" viewBox="0 0 57 56" fill="none" xmlns="http://www.w3.org/2000/svg">
<path d="M19.4649 12.4444H36.787C37.6299 12.4444 38.4484 12.5781 39.2424 12.8576C40.3907 13.2708 41.429 14 42.2109 14.9479C43.0049 15.8958 43.5302 17.0625 43.7134 18.2778C43.7867 18.7274 43.7989 19.1771 43.7989 19.6267V36.434C43.7989 36.9687 43.7745 37.5156 43.6645 38.0382C43.4202 39.2413 42.8461 40.3715 42.0154 41.283C41.1969 42.1944 40.1219 42.875 38.9614 43.2396C38.2529 43.4583 37.52 43.5556 36.7748 43.5556C36.445 43.5556 19.416 43.5556 19.1595 43.5434C17.9134 43.4826 16.6796 43.0816 15.6413 42.3889C14.6274 41.7083 13.7967 40.7604 13.2592 39.6667C12.795 38.7309 12.5629 37.6858 12.5629 36.6406V19.3594C12.5384 18.3264 12.7583 17.3056 13.2103 16.3819C13.7356 15.2882 14.5541 14.3281 15.568 13.6476C16.6063 12.9427 17.8279 12.5295 19.0739 12.4687C19.1961 12.4444 19.3305 12.4444 19.4649 12.4444Z" fill="url(#paint0_linear_1_6094)"/>
<path d="M38.9003 37.8924C38.7903 37.7222 38.6682 37.5521 38.5338 37.3941C38.2284 37.0295 37.8742 36.7135 37.4832 36.4462C36.9946 36.1181 36.4205 35.9115 35.8341 35.8871C35.4188 35.8628 35.0034 35.9358 34.6125 36.0816C34.2216 36.2153 33.8429 36.4097 33.4764 36.6042C33.0489 36.8229 32.6213 37.0417 32.1693 37.224C31.6318 37.4427 31.0699 37.6128 30.4958 37.7344C29.775 37.8681 29.0421 37.9167 28.3213 37.9045C27.0142 37.8802 25.7071 37.6858 24.4611 37.3212C23.3617 36.9931 22.3111 36.5434 21.3216 35.9722C20.4543 35.474 19.6481 34.9028 18.8907 34.2587C18.2677 33.724 17.6935 33.1528 17.156 32.5451C16.7895 32.1198 16.4353 31.6701 16.1054 31.2083C15.9711 31.026 15.8489 30.8316 15.739 30.6371L12.514 27.1736V19.3351C12.514 15.5312 15.6046 12.4444 19.4282 12.4444H25.5972L30.1659 17.0625C40.4761 24.0382 37.1412 31.7309 37.1412 31.7309C37.1412 31.7309 40.073 35.0121 38.9003 37.8924Z" fill="url(#paint1_linear_1_6094)"/>
<path d="M30.1904 17.0625C40.5005 24.0382 37.1656 31.7309 37.1656 31.7309C37.1656 31.7309 40.0974 35.0243 38.9125 37.9045C38.9125 37.9045 37.7031 35.8872 35.6753 35.8872C33.7207 35.8872 32.5724 37.9045 28.6389 37.9045C19.8802 37.9045 15.739 30.625 15.739 30.625C23.6304 35.7899 29.0176 32.1319 29.0176 32.1319C25.4628 30.0781 17.9012 20.2587 17.9012 20.2587C24.4855 25.8368 27.3318 27.3073 27.3318 27.3073C25.6338 25.9097 20.8696 19.0799 20.8696 19.0799C24.681 22.9201 32.2548 28.2795 32.2548 28.2795C34.4048 22.349 30.1904 17.0625 30.1904 17.0625Z" fill="white"/>
<defs>
<linearGradient id="paint0_linear_1_6094" x1="31.1177" y1="11.3343" x2="25.2683" y2="44.6798" gradientUnits="userSpaceOnUse">
<stop stop-color="#FAAE42"/>
<stop offset="1" stop-color="#EF3E31"/>
</linearGradient>
<linearGradient id="paint1_linear_1_6094" x1="28.4694" y1="12.9471" x2="24.1883" y2="37.3522" gradientUnits="userSpaceOnUse">
<stop stop-color="#E39F3A"/>
<stop offset="1" stop-color="#D33929"/>
</linearGradient>
</defs>
</svg>
