<svg width="57" height="56" viewBox="0 0 57 56" fill="none" xmlns="http://www.w3.org/2000/svg">
<path d="M16.0696 31.0289C17.7504 31.0289 19.113 29.6739 19.113 28.0024C19.113 26.3309 17.7504 24.9758 16.0696 24.9758C14.3887 24.9758 13.0262 26.3309 13.0262 28.0024C13.0262 29.6739 14.3887 31.0289 16.0696 31.0289Z" fill="#FF6309"/>
<path d="M37.8929 43.5556C39.5738 43.5556 40.9365 42.2004 40.9365 40.5288C40.9365 38.8572 39.5738 37.5021 37.8929 37.5021C36.2119 37.5021 34.8492 38.8572 34.8492 40.5288C34.8492 42.2004 36.2119 43.5556 37.8929 43.5556Z" fill="#FFB515"/>
<path d="M37.8903 18.4975C39.5711 18.4975 40.9337 17.1425 40.9337 15.471C40.9337 13.7995 39.5711 12.4444 37.8903 12.4444C36.2094 12.4444 34.8469 13.7995 34.8469 15.471C34.8469 17.1425 36.2094 18.4975 37.8903 18.4975Z" fill="#C90016"/>
<path d="M30.618 20.5133C34.4077 20.5133 37.5519 23.3116 38.0726 26.9395H43.2867C43.0495 24.0888 41.8615 21.4317 39.8743 19.3363C38.6016 19.9808 37.0367 19.9931 35.7075 19.2302C34.3772 18.4662 33.6054 17.1115 33.5314 15.6918C32.5761 15.4705 31.5984 15.359 30.6175 15.3594C28.7149 15.3594 26.8763 15.7724 25.2042 16.5555L27.8152 21.0519C28.7061 20.6954 29.6576 20.5125 30.618 20.5133Z" fill="#FF6309"/>
<path d="M23.0874 28.0024C23.0874 25.6164 24.2152 23.4878 25.9681 22.1155L23.3582 17.6197C22.7399 18.0493 22.1608 18.532 21.6274 19.0623C20.117 20.5644 19.0338 22.3779 18.4378 24.3572C19.6387 25.1307 20.4339 26.4735 20.4339 28.0024C20.4339 29.5308 19.6387 30.8739 18.4378 31.6472C19.0338 33.6264 20.117 35.4397 21.6274 36.9422C22.1604 37.4722 22.739 37.9548 23.3567 38.3844L25.9671 33.888C24.2145 32.5159 23.0874 30.3876 23.0874 28.0024Z" fill="#FFB515"/>
<path d="M38.0729 29.0618C37.5536 32.6909 34.4088 35.491 30.618 35.491C29.6275 35.491 28.6809 35.2993 27.8142 34.952L25.2034 39.4485C26.8751 40.2321 28.7147 40.6452 30.6178 40.6452C31.612 40.6452 32.5891 40.5312 33.5337 40.3125C33.6065 38.8909 34.3783 37.5338 35.7096 36.7694C37.0393 36.006 38.6048 36.018 39.8775 36.6638C41.8628 34.5681 43.05 31.9114 43.2862 29.0618H38.0729Z" fill="#C90016"/>
</svg>
