<svg width="57" height="56" viewBox="0 0 57 56" fill="none" xmlns="http://www.w3.org/2000/svg">
<path d="M13.8175 14.1297H42.4953V41.8704H13.8175V14.1297Z" fill="#2E001E"/>
<path d="M12.514 12.8333V43.1666H43.7989V12.8333H12.514ZM13.8175 14.1296H42.4953V41.8703H13.8175V14.1296Z" fill="#FF2BC2"/>
<path d="M35.2346 25.5759C35.0391 25.4852 34.7914 25.4463 34.4786 25.4463C32.8361 25.4463 31.7412 26.7037 31.7412 28.7907C31.7412 31.1759 32.8622 32.1351 34.3222 32.1351C34.635 32.1351 34.9739 32.0963 35.2216 31.9926V25.5759H35.2346ZM29.3948 28.8944C29.3948 25.8741 31.3501 23.5148 34.5568 23.5148C34.8305 23.5148 34.9739 23.5148 35.2346 23.5407V20.1704C35.2346 20.0926 35.2998 20.0407 35.365 20.0407H37.4637C37.568 20.0407 37.594 20.0796 37.594 20.1444V31.9926C37.594 32.3426 37.594 32.7833 37.6592 33.2629C37.6592 33.3537 37.6592 33.3666 37.581 33.4055C36.486 33.924 35.3389 34.1574 34.2439 34.1574C31.4153 34.1574 29.3948 32.4203 29.3948 28.8944ZM24.9497 26.7944L28.5996 33.8333C28.6648 33.937 28.6257 34.0407 28.5214 34.0407H26.2533C26.1099 34.0407 26.0447 34.0018 25.9795 33.8722C25.1453 32.1611 24.298 30.3852 23.4246 28.5444H23.3985C22.6164 30.2814 21.7561 32.174 20.9218 33.8851C20.8566 33.9888 20.7914 34.0277 20.6872 34.0277H18.5233C18.3929 34.0277 18.3799 33.924 18.4451 33.8463L22.0168 27.0148L18.5624 20.2222C18.4842 20.1185 18.5624 20.0278 18.6536 20.0278H20.8957C21.0261 20.0278 21.0913 20.0537 21.1304 20.1704C21.9516 21.8944 22.7859 23.5926 23.568 25.3296H23.594C24.3501 23.6185 25.1844 21.8944 25.9795 20.1963C26.0447 20.0926 26.0838 20.0278 26.2142 20.0278H28.3129C28.4171 20.0278 28.4562 20.1055 28.3911 20.2222L24.9497 26.7944Z" fill="#FF2BC2"/>
</svg>
