<svg xmlns="http://www.w3.org/2000/svg" viewBox="0 0 1000 555" width="1000" height="555"><title>AgroGrow-Logo-Full</title><style>		.s0 { fill: #098040 } 		.s1 { fill: #231f20 } 	</style><g><path class="s0" d="m212.2 106.6h54v250.2h-54v-36.1q-30.6 42.6-87.6 42.6-51.6 0-88.1-38.3-36.5-38.3-36.5-93.3c0-36.7 12.2-68.2 36.5-93.6q36.6-38 88.1-38 57 0 87.6 42v-35.5zm-135.6 182.4q22.5 22.7 56.5 22.7 34 0 56.5-22.7 22.6-22.8 22.6-57.3 0-34.6-22.6-57.3-22.5-22.8-56.5-22.8-34 0-56.5 22.8-22.5 22.7-22.5 57.3-0.1 34.5 22.5 57.3z"></path><path class="s0" d="m629.9 155.4q20.5-46.6 77-46.6v58.6q-31-2-54 14.7-23 16.8-23 55.3v126.1h-54.1v-250.2h54.1z"></path><path class="s0" d="m868.1 105c-72.8 0-131.8 58.7-131.8 131.2 0 72.5 59 131.3 131.8 131.3 72.9 0 131.9-58.8 131.9-131.3 0-72.5-59-131.3-131.9-131.3zm0 230.2c-39.8 0-72.1-44.3-72.1-98.9 0-54.6 32.3-98.9 72.1-98.9 39.9 0 72.2 44.3 72.2 98.9 0 54.6-32.3 98.9-72.2 98.9z"></path><g><path class="s0" d="m491.2 307v72.5c0 108.9-224 53.4-224 137.3 0 0-42-140 85.4-148.9 34.1-2.4 121.8-17 121.8-49.2v-11.7l16.8-16.8v16.8z"></path><g><path fill-rule="evenodd" class="s0" d="m418.9 188.9c0 0 24.4-87.5 88-147 0 0-64.5 80.1-74.6 153.7 0 0 138.2-44.4 90.2-194.9-17.7 0.4-146.8 55.4-103.6 188.2z"></path><path class="s0" d="m510.8 145.9c-10.3 13.9-22.2 25-33.7 33.7 5.9 13.6 9.4 29.4 9.4 46.4 0 50.2-29.7 90.9-66.3 90.9-36.7 0-66.4-40.7-66.4-90.9 0-42.3 21.2-77.8 49.7-87.9 0.3-11.4 1.7-22.1 4.2-32.1-61.1 6.2-108.8 57.5-108.8 120 0 66.6 54.3 120.6 121.3 120.6 66.9 0 121.2-54 121.2-120.6 0-30.7-11.6-58.8-30.6-80.1z"></path></g></g></g><g><g><path class="s1" d="m606.1 393.1h8v103.8q0 24.2-15.1 38.3-15.1 14-39.9 14-19.1 0-32.7-7.2-13.5-7.3-19.3-19.1l6.7-3.8q4.7 9.9 16.1 16.3 11.4 6.4 29.2 6.4 22.1 0 34.6-12.1 12.4-12.1 12.4-32.8v-23.2q-6.9 14.5-20.2 23-13.3 8.6-30.4 8.6-24 0-40.8-16.6-16.9-16.6-16.9-40.7 0-24.2 16.9-40.8 16.8-16.6 40.8-16.6 17.1 0 30.4 8.6 13.3 8.6 20.2 23v-29.2zm-85.8 90.4q14.6 14.4 35.6 14.4 21.1 0 35.7-14.4 14.5-14.4 14.5-35.5 0-21-14.5-35.4-14.6-14.4-35.7-14.4-21 0-35.6 14.4-14.5 14.4-14.5 35.4 0 21.1 14.5 35.5z"></path><path class="s1" d="m559.1 554.3c-13.6 0-25.3-2.7-35-7.9-10-5.3-17.2-12.5-21.5-21.3l-2.1-4.3 15.6-8.7 2.3 4.9c2.6 5.6 7.2 10.2 13.9 14 6.9 3.8 15.8 5.7 26.7 5.7 13.4 0 23.9-3.6 31.1-10.7 7.4-7.1 10.9-16.6 10.9-29.1v-6.5q-5.4 6.1-12.4 10.6c-9.6 6.2-20.8 9.3-33.1 9.3-17.3 0-32.2-6-44.4-18-12.2-12-18.3-26.9-18.3-44.3 0-17.5 6.1-32.4 18.3-44.4 12.2-12 27.1-18 44.4-18 12.3 0 23.5 3.1 33.1 9.3q7 4.6 12.4 10.6v-17.5h18.1v108.9c0 17.5-5.6 31.6-16.7 42-11 10.2-25.6 15.4-43.3 15.4zm-3.1-151.1c-12.8 0-23.3 4.2-32.1 12.9-8.8 8.7-13 19.1-13 31.9 0 12.7 4.2 23.2 13 31.9 8.8 8.7 19.3 12.9 32.1 12.9 12.7 0 23.2-4.3 32-12.9 8.8-8.7 13-19.2 13-31.9 0-12.8-4.2-23.2-13-31.9-8.8-8.7-19.3-12.9-32-12.9z"></path></g><g><path class="s1" d="m658.9 417.9q4.8-13.4 15.5-19.9 10.7-6.5 23.5-6.5v7.5q-16.4 0-27.7 11.1-11.3 11.1-11.3 31.7v61.1h-8v-109.8h8c0 0 0 24.8 0 24.8z"></path><path class="s1" d="m663.9 507.9h-18.1v-119.9h18.1v12q3.5-3.7 7.9-6.3c7.9-4.8 16.7-7.2 26.1-7.2h5.1v17.5h-5.1c-9.6 0-17.5 3.2-24.2 9.7-6.6 6.5-9.7 15.7-9.7 28.1 0 0 0 66.1-0.1 66.1z"></path></g><g><path class="s1" d="m765.4 505.3q-24.2 0-41.1-16.6-16.8-16.6-16.8-40.7 0-24.2 16.8-40.8 16.9-16.6 41.1-16.6c16.1 0 30 5.6 41.2 16.6q16.9 16.6 16.9 40.8 0 24.1-16.9 40.7-16.8 16.6-41.2 16.6zm-35.6-21.9q14.5 14.4 35.6 14.4 21 0 35.7-14.4 14.6-14.3 14.6-35.4 0-21.1-14.6-35.5-14.7-14.4-35.7-14.4-21.1 0-35.6 14.4-14.6 14.4-14.6 35.5 0 21.1 14.6 35.4z"></path><path class="s1" d="m765.4 510.4c-17.5 0-32.5-6.1-44.6-18.1-12.2-12-18.4-26.9-18.4-44.3 0-17.5 6.2-32.4 18.4-44.4 12.1-12 27.1-18 44.6-18 17.4 0 32.6 6 44.8 18 12.2 12 18.4 26.9 18.4 44.4 0 17.4-6.2 32.3-18.4 44.3-12.2 12-27.3 18-44.8 18.1zm0-107.2c-12.8 0-23.3 4.2-32.1 12.9-8.7 8.7-13 19.1-13 31.9 0 12.7 4.3 23.2 13 31.9 8.8 8.7 19.3 12.9 32.1 12.9 12.7 0 23.3-4.3 32.1-13 8.9-8.6 13.1-19.1 13.1-31.8 0-12.8-4.2-23.2-13.1-31.9-8.8-8.7-19.4-12.9-32.1-12.9z"></path></g><g><path class="s1" d="m984.1 393.1h7.7l-35.2 109.8h-8.7l-33.1-99.2-33.1 99.2h-8.5l-35.5-109.8h7.7l32.2 99.7 33.1-99.7h8.5l33 99.5c0 0 31.9-99.5 31.9-99.5z"></path><path fill-rule="evenodd" class="s1" d="m877.5 509l-0.3-1.1h-7.7l-38.8-119.9h18.3l28.7 88.5 29.3-88.5h7.7l0.1-0.2 0.1 0.2h8l29.2 88.3 28.3-88.3h18.3l-38.4 119.9h-7.7l-0.3 1-0.3-1h-7.7l-29.5-88.2-29.4 88.2h-7.5l-0.4 1.1z"></path></g></g></svg>