<svg xmlns="http://www.w3.org/2000/svg" xmlns:xlink="http://www.w3.org/1999/xlink" id="Layer_1" viewBox="0 0 480 260"><defs><style>      .st0 {        fill: none;      }      .st1 {        fill: #2a5776;      }      .st2 {        fill: #ffcd28;      }      .st3 {        clip-path: url(#clippath-11);      }      .st4 {        clip-path: url(#clippath-10);      }      .st5 {        clip-path: url(#clippath-12);      }      .st6 {        clip-path: url(#clippath-1);      }      .st7 {        clip-path: url(#clippath-3);      }      .st8 {        clip-path: url(#clippath-4);      }      .st9 {        clip-path: url(#clippath-2);      }      .st10 {        clip-path: url(#clippath-7);      }      .st11 {        clip-path: url(#clippath-6);      }      .st12 {        clip-path: url(#clippath-9);      }      .st13 {        clip-path: url(#clippath-8);      }      .st14 {        clip-path: url(#clippath-5);      }      .st15 {        fill: #80b2b1;      }      .st16 {        fill: #194341;      }      .st17 {        fill: #ff8c03;      }      .st18 {        fill: #043557;      }      .st19 {        clip-path: url(#clippath);      }      .st20 {        fill: #b2b2b2;      }    </style><clipPath id="clippath"><rect class="st0" x="135.2" y="4.09" width="125.38" height="90.79"></rect></clipPath><clipPath id="clippath-1"><rect class="st0" x="85.28" y="4.09" width="302.64" height="90.79"></rect></clipPath><clipPath id="clippath-2"><rect class="st0" x="94.84" y="16.66" width="281.02" height="78.22"></rect></clipPath><clipPath id="clippath-3"><rect class="st0" x="254.81" y="100.89" width="12.97" height="10.81"></rect></clipPath><clipPath id="clippath-4"><rect class="st0" x="207.25" y="100.89" width="12.97" height="10.81"></rect></clipPath><clipPath id="clippath-5"><rect class="st0" x="231.75" y="100.89" width="11.53" height="10.81"></rect></clipPath><clipPath id="clippath-6"><rect class="st0" x="273.55" y="103.13" width="144.9" height="5.76"></rect></clipPath><clipPath id="clippath-7"><rect class="st0" x="55.27" y="103.13" width="144.77" height="5.76"></rect></clipPath><clipPath id="clippath-8"><rect class="st0" x="254.81" y="205.62" width="12.97" height="10.81"></rect></clipPath><clipPath id="clippath-9"><rect class="st0" x="207.25" y="205.62" width="12.97" height="10.81"></rect></clipPath><clipPath id="clippath-10"><rect class="st0" x="231.75" y="205.62" width="11.53" height="10.81"></rect></clipPath><clipPath id="clippath-11"><rect class="st0" x="273.55" y="208.33" width="144.9" height="4.32"></rect></clipPath><clipPath id="clippath-12"><rect class="st0" x="55.27" y="208.33" width="144.77" height="4.32"></rect></clipPath></defs><g class="st19"><path class="st15" d="M245.25,16.76l-59.95-11.89,40.75,44.82-17.93,23.56-15.63-16.89-57.09-11.38,45.16,49.9h9.19l43.42-45.78s.7-.78.15-2c0,0-.63-1.37.37-2.48l6.96-8.92s1.89-2.63-.85-4.52c0,0-8.72-5.55-22.1-5.47,0,0,3.2-4.98,15.98-4.98,9.34,0,17.93,3.92,25.56,11.19l-13.99-15.15Z"></path></g><path class="st1" d="M173.62,33.31h6.83v6.84h-6.83v-6.84Z"></path><path class="st1" d="M182.51,33.31h6.83v6.84h-6.83v-6.84Z"></path><path class="st1" d="M173.62,42.43h6.83v6.83h-6.83v-6.83Z"></path><path class="st1" d="M182.51,42.43h6.83v6.83h-6.83v-6.83Z"></path><g class="st6"><path class="st1" d="M252.97,94.88h-44.79l34.32-37.34c1.97.59,3.55-.52,3.55-.52l11.47-6.98c.52-.31,1.18-.24,1.61.18l3.37,3.24c1.24.93.99,2.24.99,2.24-.24,1.54.5,2.11.5,2.11l5.71,5.29c.53.49,1.35.47,1.86-.05l9.22-9.55c.49-.51.5-1.31.01-1.83l-3.97-4.25s-1.33-2.05-3.06-1.38c-1.72.66-2.33,0-2.33,0,0,0-2.94-2.39-3.89-3.28-.95-.88-.78-2.27-.78-2.27.16-2.78-2.34-4.95-2.34-4.95l53.57-10.59-65.02,69.94ZM257.3,94.88h7.89l57.9-62.35,57.02,62.35h7.67l-64.68-70.75-65.79,70.75ZM181.4,4.09l-37.49,41.42,5.34,1.2,32.15-35.06,38.26,41.56,3.07-3.7L181.4,4.09ZM319.11,64.51h-10.63v10.63h10.63v-10.63ZM332.94,64.51h-10.63v10.63h10.63v-10.63ZM319.11,78.68h-10.63v10.63h10.63v-10.63ZM332.94,78.68h-10.63v10.63h10.63v-10.63ZM130.35,74.29h-8.11v8.11h8.11v-8.11ZM140.9,74.29h-8.11v8.11h8.11v-8.11ZM130.35,85.09h-8.11v8.11h8.11v-8.11ZM140.9,85.09h-8.11v8.11h8.11v-8.11ZM131.65,44.21l-46.23,50.68h6.46l39.77-43.67,39.64,43.67h6.45l-46.08-50.68Z"></path></g><g class="st9"><path class="st20" d="M375.67,94.88h-5.89l-47.97-52.85,2.71-3.19,51.16,56.04ZM180.03,17.16l-26.67,29.64,3.33.74,25.27-28.6-1.93-1.78ZM130.39,56.65l-34.45,38.23h4.67l32.12-35.79-2.34-2.44Z"></path></g><g class="st7"><path class="st17" d="M261.14,101.27l2.12,2.96,3.39.85-2.12,2.54v3.39l-3.39-.84-2.97.84v-3.39l-2.12-2.54,3.39-.85,1.69-2.96Z"></path></g><g class="st8"><path class="st17" d="M213.69,101.27l2.12,2.96,3.39.85-2.12,2.54v3.39l-3.39-.84-2.96.84v-3.39l-2.12-2.54,3.39-.85,1.69-2.96Z"></path></g><g class="st14"><path class="st17" d="M237.42,101.27l2.12,2.96,2.97.85-2.12,2.54v3.39l-2.97-.84-3.39.84v-3.39l-1.69-2.54,2.97-.85,2.12-2.96Z"></path></g><g class="st11"><path class="st2" d="M274.69,107.62l143.59-1.27v-.84l-143.59-1.27v3.39Z"></path></g><g class="st10"><path class="st2" d="M198.87,107.62l-143.6-1.27v-.84l143.6-1.27v3.39Z"></path></g><g class="st13"><path class="st17" d="M261.14,206l2.12,2.97,3.39.84-2.12,2.54v3.38l-3.39-.84-2.97.84v-3.38l-2.12-2.54,3.39-.84,1.69-2.97Z"></path></g><g class="st12"><path class="st17" d="M213.69,206l2.12,2.97,3.39.84-2.12,2.54v3.38l-3.39-.84-2.96.84v-3.38l-2.12-2.54,3.39-.84,1.69-2.97Z"></path></g><g class="st4"><path class="st17" d="M237.42,206l2.12,2.97,2.97.84-2.12,2.54v3.38l-2.97-.84-3.39.84v-3.38l-1.69-2.54,2.97-.84,2.12-2.97Z"></path></g><g class="st3"><path class="st2" d="M274.69,212.35l143.59-1.27v-.85l-143.59-1.27v3.39Z"></path></g><g class="st5"><path class="st2" d="M198.87,212.35l-143.6-1.27v-.85l143.6-1.27v3.39Z"></path></g><g><path class="st18" d="M87.34,255.68l-4.92-8.68h-2.11v8.68h-4.47v-22.29h8.37c1.72,0,3.19.3,4.41.91s2.12,1.43,2.73,2.46c.61,1.03.91,2.19.91,3.46,0,1.47-.43,2.79-1.28,3.98s-2.12,2-3.8,2.44l5.33,9.04h-5.17ZM80.32,243.65h3.74c1.21,0,2.12-.29,2.71-.88.6-.58.89-1.4.89-2.44s-.3-1.81-.89-2.38c-.6-.56-1.5-.85-2.71-.85h-3.74v6.55Z"></path><path class="st18" d="M104.81,254.44c-1.75-.98-3.13-2.34-4.15-4.07-1.02-1.73-1.53-3.7-1.53-5.89s.51-4.12,1.53-5.86c1.02-1.74,2.41-3.09,4.15-4.07s3.66-1.47,5.75-1.47,4.03.49,5.76,1.47,3.11,2.34,4.12,4.07c1.01,1.73,1.52,3.69,1.52,5.86s-.51,4.16-1.52,5.89c-1.01,1.74-2.39,3.09-4.14,4.07-1.75.98-3.66,1.47-5.75,1.47s-4-.49-5.75-1.47ZM114.1,251.01c1.02-.61,1.82-1.47,2.39-2.6s.86-2.44.86-3.93-.29-2.79-.86-3.91-1.37-1.97-2.39-2.57c-1.02-.6-2.2-.89-3.54-.89s-2.53.3-3.56.89c-1.03.6-1.84,1.45-2.41,2.57s-.86,2.42-.86,3.91.29,2.8.86,3.93,1.38,2,2.41,2.6c1.03.61,2.22.91,3.56.91s2.52-.3,3.54-.91Z"></path><path class="st18" d="M133.77,254.44c-1.75-.98-3.13-2.34-4.15-4.07-1.02-1.73-1.53-3.7-1.53-5.89s.51-4.12,1.53-5.86c1.02-1.74,2.41-3.09,4.15-4.07s3.66-1.47,5.75-1.47,4.03.49,5.76,1.47,3.11,2.34,4.12,4.07c1.01,1.73,1.52,3.69,1.52,5.86s-.51,4.16-1.52,5.89c-1.01,1.74-2.39,3.09-4.14,4.07-1.75.98-3.66,1.47-5.75,1.47s-4-.49-5.75-1.47ZM143.06,251.01c1.02-.61,1.82-1.47,2.39-2.6s.86-2.44.86-3.93-.29-2.79-.86-3.91-1.37-1.97-2.39-2.57c-1.02-.6-2.2-.89-3.54-.89s-2.53.3-3.56.89c-1.03.6-1.84,1.45-2.41,2.57s-.86,2.42-.86,3.91.29,2.8.86,3.93,1.38,2,2.41,2.6c1.03.61,2.22.91,3.56.91s2.52-.3,3.54-.91Z"></path><path class="st18" d="M171.89,233.4v3.61h-9.29v5.72h7.12v3.54h-7.12v9.42h-4.47v-22.29h13.76Z"></path><path class="st18" d="M183.42,233.4v22.29h-4.47v-22.29h4.47Z"></path><path class="st18" d="M210.78,255.68h-4.47l-10.12-15.29v15.29h-4.47v-22.32h4.47l10.12,15.33v-15.33h4.47v22.32Z"></path><path class="st18" d="M234.6,240.1c-.51-.94-1.21-1.65-2.11-2.14-.89-.49-1.94-.73-3.13-.73-1.32,0-2.49.3-3.51.89-1.02.6-1.82,1.45-2.39,2.55-.57,1.11-.86,2.38-.86,3.83s.29,2.79.88,3.89c.58,1.11,1.4,1.96,2.44,2.55,1.04.6,2.26.89,3.64.89,1.7,0,3.1-.45,4.18-1.36,1.09-.9,1.8-2.16,2.14-3.78h-7.66v-3.42h12.07v3.9c-.3,1.55-.94,2.99-1.92,4.31-.98,1.32-2.24,2.38-3.78,3.18s-3.27,1.2-5.19,1.2c-2.15,0-4.09-.48-5.83-1.45-1.74-.97-3.1-2.31-4.09-4.04-.99-1.72-1.48-3.68-1.48-5.88s.5-4.16,1.48-5.89c.99-1.74,2.35-3.09,4.09-4.06s3.67-1.45,5.8-1.45c2.51,0,4.69.61,6.55,1.84,1.85,1.22,3.13,2.94,3.83,5.16h-5.14Z"></path><path class="st18" d="M274.4,243.65c-.56,1.04-1.45,1.88-2.65,2.52-1.2.64-2.72.96-4.55.96h-3.74v8.56h-4.47v-22.29h8.21c1.72,0,3.19.3,4.41.89,1.21.6,2.12,1.42,2.73,2.46s.91,2.22.91,3.54c0,1.19-.28,2.31-.85,3.35ZM269.75,242.67c.6-.56.89-1.36.89-2.38,0-2.17-1.21-3.26-3.64-3.26h-3.54v6.48h3.54c1.23,0,2.15-.28,2.75-.85Z"></path><path class="st18" d="M297.47,233.4v3.61h-5.94v18.68h-4.47v-18.68h-5.94v-3.61h16.35Z"></path><path class="st18" d="M309.09,237.01v5.59h7.5v3.54h-7.5v5.91h8.46v3.64h-12.93v-22.32h12.93v3.64h-8.46Z"></path><path class="st18" d="M341.46,252.14h7.34v3.54h-11.81v-22.29h4.47v18.74Z"></path><path class="st18" d="M370.71,233.4v3.61h-5.94v18.68h-4.47v-18.68h-5.94v-3.61h16.35Z"></path><path class="st18" d="M391.83,234.77c1.78.92,3.15,2.22,4.12,3.91.97,1.69,1.45,3.66,1.45,5.89s-.48,4.19-1.45,5.86c-.97,1.67-2.34,2.96-4.12,3.88-1.78.92-3.84,1.37-6.18,1.37h-7.79v-22.29h7.79c2.34,0,4.4.46,6.18,1.37ZM390.92,249.97c1.28-1.28,1.92-3.08,1.92-5.4s-.64-4.13-1.92-5.44c-1.28-1.31-3.09-1.96-5.43-1.96h-3.16v14.72h3.16c2.34,0,4.15-.64,5.43-1.92Z"></path></g><g><path class="st16" d="M29.5,180.77v-10.16h13.53v8.53c0,8.95-4.21,13.42-12.61,13.42h-12.81c-8.41,0-12.61-4.47-12.61-13.42v-40.98c0-8.95,4.2-13.42,12.61-13.42h12.81c8.4,0,12.61,4.48,12.61,13.42v6.21h-13.53v-7.95c0-.54-.19-1.01-.56-1.42-.38-.41-.83-.61-1.37-.61h-6.4c-.54,0-1,.2-1.37.61-.38.41-.56.88-.56,1.42v44.34c0,.54.19,1.02.56,1.44.37.41.83.61,1.37.61h6.4c.54,0,1-.2,1.37-.61.37-.42.56-.9.56-1.44Z"></path><path class="st16" d="M79.64,165.73v25.83h-14.23v-65.8h14.23v27.56h11.28v-27.56h14.25v65.8h-14.25v-25.83h-11.28Z"></path><path class="st16" d="M155.28,124.75c8.4,0,12.61,4.48,12.61,13.42v53.39h-14.23v-22.07h-10.27v22.07h-14.23v-53.39c0-8.95,4.2-13.42,12.61-13.42h13.51ZM143.39,158.5h10.27v-22.07c0-.54-.19-1.01-.56-1.42-.38-.41-.83-.61-1.37-.61h-6.4c-.54,0-1,.2-1.37.61-.38.41-.56.88-.56,1.42v22.07Z"></path><path class="st16" d="M230.03,191.56h-14.23v-54.61c0-.54-.19-1.01-.56-1.42-.38-.41-.83-.61-1.37-.61h-5.49c-.54,0-1,.2-1.37.61-.36.41-.54.88-.54,1.42v54.61h-14.25v-53.39c0-8.95,4.2-13.42,12.61-13.42h12.61c8.4,0,12.61,4.48,12.61,13.42v53.39Z"></path><path class="st16" d="M279.55,125.76c8.4,0,12.61,4.48,12.61,13.42v38.96c0,8.95-4.21,13.42-12.61,13.42h-26.12v-65.8h26.12ZM277.93,179.76v-42.31c0-.54-.19-1.01-.56-1.42-.38-.41-.83-.61-1.37-.61h-8.33v46.36h8.33c.54,0,1-.2,1.37-.61.37-.41.56-.88.56-1.42Z"></path><path class="st16" d="M342.2,125.76c8.4,0,12.61,4.48,12.61,13.42v13.13c0,8.95-4.21,13.42-12.61,13.42h-11.48v25.83h-14.25v-65.8h25.74ZM340.58,153.93v-16.37c0-.54-.19-1.01-.56-1.42-.38-.41-.83-.61-1.37-.61h-7.93v20.42h7.93c.54,0,1-.2,1.37-.61.37-.41.56-.88.56-1.42Z"></path><path class="st16" d="M399.25,125.76h14.23v53.39c0,8.95-4.21,13.42-12.61,13.42h-12.61c-8.41,0-12.61-4.47-12.61-13.42v-53.39h14.25v54.61c0,.54.18,1.02.54,1.44.37.41.83.61,1.37.61h5.49c.54,0,1-.2,1.37-.61.37-.42.56-.9.56-1.44v-54.61Z"></path><path class="st16" d="M451.31,164.6v26.95h-14.23v-65.8h25.31c8.4,0,12.61,4.48,12.61,13.42v7.63c0,5.42-1.93,8.88-5.79,10.38,3.39,1.22,5.09,4,5.09,8.33v26.03h-14.25v-24.9c0-1.36-.64-2.05-1.91-2.05h-6.82ZM451.31,135.42v19.23h7.52c.54,0,1-.2,1.37-.61.37-.42.56-.9.56-1.44v-15.15c0-.54-.19-1.01-.56-1.42-.38-.41-.83-.61-1.37-.61h-7.52Z"></path></g></svg>