<svg version="1.2" xmlns="http://www.w3.org/2000/svg" viewBox="0 0 238 135" width="238" height="135">
	<title>Fresh Meat &amp; Fish Logo-ai</title>
	<style>
		.s0 { fill: #005400 } 
		.s1 { fill: #5fc136 } 
	</style>
	<g id="Layer 1">
		<g id="&lt;Group&gt;">
			<path id="&lt;Compound Path&gt;" class="s0" d="m38 34.9v58.2h11.9v-58.2z"/>
			<path id="&lt;Compound Path&gt;" fill-rule="evenodd" class="s0" d="m128.3 66.3h-43.7q0.3 8.8 4.9 13 4.5 4.2 11.2 4.2 5.9 0 9.9-3 3.4-2.4 4.6-6.2h12.6q-1.3 5-4.3 8.9-3.6 4.6-9.4 7.3-5.8 2.6-12.9 2.6-8.2 0-14.6-3.5-6.3-3.5-9.9-10.1-3.6-6.6-3.6-15.6 0-8.8 3.6-15.4 3.6-6.6 9.9-10.1 6.4-3.5 14.6-3.5 8.4 0 14.6 3.4 6.2 3.5 9.6 9.5 3.3 6 3.3 13.4 0 2.9-0.4 5.1zm-13.3-14.7q-2.1-3.8-5.8-5.6-3.7-1.8-8-1.8-6.9 0-11.5 4.3-4.7 4.2-5.1 12.4h32.3q0.2-5.5-1.9-9.3z"/>
			<path id="&lt;Compound Path&gt;" class="s0" d="m144.4 74.3q0.5 4.7 4.1 7.6 3.6 2.8 9.5 2.8 4.2 0 6.7-2.2 2.4-2.2 2.4-5.6 0-3-1.9-4.7-1.8-1.8-4.6-2.8-2.8-0.9-7.6-2-6.2-1.4-10.1-2.9-3.9-1.4-6.6-4.6-2.7-3.3-2.7-8.9 0-7.2 5.4-11.7 5.4-4.4 15-4.4 10 0 16 5.1 6 5.1 7.4 13.6h-11.1q-0.8-4.6-4-7.4-3.3-2.9-8.6-2.9-4.4 0-6.9 2.1-2.4 2.1-2.4 5.7 0 2.7 1.8 4.4 1.7 1.6 4.3 2.5 2.7 1 7.5 2.1 6.4 1.5 10.4 3 3.9 1.5 6.8 4.9 2.8 3.3 2.8 9.1 0 7.1-5.4 11.6-5.4 4.4-14.6 4.4-10.6 0-17.1-5-6.6-4.9-7.9-13.8z"/>
			<path id="&lt;Compound Path&gt;" class="s0" d="m231.3 41.2q-5.9-6.4-15.8-6.4-7 0-12.3 3.5-5.4 3.5-7.6 9.9v-31.8h-11.8v76.7h11.8v-30.8q0-8.7 4.2-13.1 4.2-4.5 11.2-4.5 6.7 0 10.7 4.2 3.9 4.1 3.9 11.7v32.5h11.7v-33.7q0-11.8-6-18.2z"/>
			<g id="&lt;Group&gt;">
				<path id="&lt;Path&gt;" class="s1" d="m52.8 52.1c0 0-0.7-21 24.2-19.1 0 0-1.1 16.8-13.1 18.1-12 1.2-11.3 4.3-11.3 4.3z"/>
			</g>
			<g id="&lt;Group&gt;">
				<g id="&lt;Group&gt;">
					<path id="&lt;Compound Path&gt;" class="s0" d="m58.7 115.9q1.8 1 2.8 2.8 1 1.9 1 4.5v11.3h-3.2v-10.8q0-2.9-1.4-4.4-1.4-1.5-3.8-1.5-2.5 0-4 1.6-1.4 1.6-1.4 4.6v10.5h-3.2v-10.8q0-2.9-1.4-4.4-1.4-1.5-3.8-1.5-2.5 0-4 1.6-1.4 1.6-1.4 4.6v10.5h-3.2v-19.1h3.2v2.7q0.9-1.5 2.5-2.3 1.6-0.8 3.5-0.8 2.4 0 4.3 1.1 1.8 1.1 2.7 3.2 0.8-2 2.7-3.2 1.8-1.1 4.1-1.1 2.3 0 4 0.9z"/>
					<path id="&lt;Compound Path&gt;" fill-rule="evenodd" class="s0" d="m85.8 126.1h-15.4q0.2 2.9 2 4.5 1.8 1.5 4.3 1.5 2 0 3.4-0.9 1.4-1 2-2.6h3.4q-0.8 2.8-3.1 4.5-2.3 1.7-5.7 1.7-2.8 0-4.9-1.2-2.2-1.2-3.4-3.5-1.2-2.2-1.2-5.2 0-3 1.2-5.2 1.2-2.2 3.3-3.4 2.2-1.2 5-1.2 2.7 0 4.8 1.1 2.1 1.2 3.2 3.3 1.2 2.1 1.2 4.7 0 0.9-0.1 1.9zm-4-5.7q-0.8-1.3-2.2-2-1.4-0.7-3.1-0.7-2.4 0-4.1 1.6-1.7 1.5-1.9 4.2h12.1q0-1.8-0.8-3.1z"/>
					<path id="&lt;Compound Path&gt;" fill-rule="evenodd" class="s0" d="m90.8 119.7q1.1-2.2 3.2-3.4 2.1-1.2 4.7-1.2 2.5 0 4.3 1 1.9 1.1 2.8 2.8v-3.5h3.2v19.1h-3.2v-3.5q-1 1.6-2.8 2.7-1.9 1.1-4.4 1.1-2.5 0-4.6-1.2-2.1-1.3-3.2-3.6-1.2-2.2-1.2-5.1 0-3 1.2-5.2zm14.1 1.4q-0.9-1.6-2.3-2.4-1.5-0.9-3.3-0.9-1.8 0-3.3 0.9-1.4 0.8-2.3 2.4-0.9 1.6-0.9 3.8 0 2.2 0.9 3.8 0.9 1.6 2.3 2.5 1.5 0.8 3.3 0.8 1.8 0 3.3-0.8 1.4-0.9 2.3-2.5 0.9-1.6 0.9-3.8 0-2.2-0.9-3.8z"/>
					<path id="&lt;Compound Path&gt;" class="s0" d="m119 118v11.3q0 1.4 0.6 2 0.6 0.5 2 0.5h2.4v2.7h-2.9q-2.7 0-4-1.2-1.3-1.2-1.3-4v-11.3h-2.5v-2.6h2.5v-4.9h3.2v4.9h5v2.6z"/>
					<path id="&lt;Compound Path&gt;" class="s0" d="m156.4 118h-4.1v16.5h-3.1v-16.5h-2.5v-2.6h2.5v-1.4q0-3.2 1.6-4.7 1.7-1.5 5.4-1.5v2.7q-2.1 0-3 0.8-0.9 0.8-0.9 2.7v1.4h4.1z"/>
					<path id="&lt;Compound Path&gt;" class="s0" d="m160.9 111.6q-0.7-0.6-0.7-1.5 0-0.9 0.7-1.6 0.6-0.6 1.5-0.6 0.9 0 1.5 0.6 0.6 0.7 0.6 1.6 0 0.9-0.6 1.5-0.6 0.7-1.5 0.7-0.9 0-1.5-0.7zm3.1 3.8v19.1h-3.2v-19.1z"/>
					<path id="&lt;Compound Path&gt;" class="s0" d="m172.9 134.1q-1.7-0.8-2.8-2.1-1-1.4-1.1-3.1h3.3q0.1 1.4 1.4 2.3 1.2 0.9 3.1 0.9 1.8 0 2.9-0.8 1-0.8 1-2 0-1.2-1.1-1.9-1.1-0.6-3.5-1.2-2.1-0.5-3.4-1.1-1.4-0.6-2.3-1.7-1-1.1-1-3 0-1.5 0.9-2.7 0.9-1.2 2.5-1.9 1.6-0.7 3.6-0.7 3.2 0 5.2 1.6 1.9 1.6 2.1 4.4h-3.2q-0.1-1.5-1.2-2.4-1.1-1-3-1-1.7 0-2.7 0.8-1 0.7-1 1.9 0 0.9 0.6 1.6 0.6 0.6 1.5 0.9 1 0.4 2.6 0.9 2.1 0.5 3.4 1.1 1.3 0.5 2.2 1.6 0.9 1.1 0.9 2.8 0 1.6-0.8 2.8-0.9 1.3-2.5 2-1.6 0.7-3.7 0.7-2.2 0-3.9-0.7z"/>
					<path id="&lt;Compound Path&gt;" class="s0" d="m202.4 115.9q1.8 1 2.8 2.8 1 1.9 1 4.5v11.3h-3.2v-10.8q0-2.9-1.4-4.4-1.4-1.5-3.9-1.5-2.5 0-4 1.6-1.5 1.5-1.5 4.5v10.6h-3.2v-25.8h3.2v9.4q0.9-1.5 2.6-2.3 1.7-0.8 3.7-0.8 2.2 0 3.9 0.9z"/>
				</g>
				<path id="&lt;Path&gt;" class="s0" d="m137.3 124.9c0 2.1-1.7 3.7-3.7 3.7-2.1 0-3.8-1.6-3.8-3.7 0-2 1.7-3.7 3.8-3.7 2 0 3.7 1.7 3.7 3.7z"/>
			</g>
			<path id="&lt;Path&gt;" class="s0" d="m69.9 9.8c-4.6-0.6-10.5 1-18.6 11.9-8.1 10.9-24.2 4.6-24.2 4.6 0 0 6.5-15.7 30.2-18.2-5.3-1.3-31.3-1.5-36.1 18.8-0.7 3.5-0.6 8-0.6 8h12.6v10.1h-12.6v48.1h-12v-48.1h-7.9v-10.1h7.9c0 0-0.8-30.3 27.7-34.6 17.8-1.3 27 3.3 33.6 9.4z"/>
		</g>
	</g>
</svg>