<?xml version="1.0" encoding="UTF-8"?>
<svg id="Layer_1" xmlns="http://www.w3.org/2000/svg" version="1.1" viewBox="0 0 1000 292.84">
  <defs>
    <style>
      .st0 {
        fill: #eb4f83;
      }

      .st1 {
        fill: #414143;
      }

      .st2 {
        fill: #ce202b;
      }
    </style>
  </defs>
  <g>
    <path class="st0" d="M93.29,62.9V2.93h69.87c33.65,0,104.06,25.94,104.06,105.26,0,50.08-23.16,111.85-125.95,111.85v-59.98c28.34,0,67.17-4.45,67.17-48.28,0-10.94,2.58-48.58-63.27-48.58l-51.88-.3Z"/>
    <path class="st2" d="M10,2.93h70.77v122.05c0,35.11,3.57,90.73,59.08,96.86v68.07c-36.22,0-98.18-16.26-122.05-94.76-5.64-18.54-7.5-40.82-7.5-66.87,0-64.85-.3-125.35-.3-125.35Z"/>
  </g>
  <path class="st2" d="M348.37,115.6h30.5v15.08h-46.26V50.72h15.76v64.88Z"/>
  <path class="st2" d="M435.07,73.56h14.74v57.12h-14.74v-6.74c-4.42,5.56-10.62,8.34-18.62,8.34s-14.15-2.91-19.59-8.74c-5.45-5.83-8.17-12.97-8.17-21.42s2.72-15.59,8.17-21.42c5.44-5.83,11.97-8.74,19.59-8.74,8,0,14.2,2.78,18.62,8.34v-6.74ZM407.88,113.71c2.97,3.01,6.74,4.51,11.31,4.51s8.36-1.5,11.37-4.51c3.01-3.01,4.51-6.87,4.51-11.59s-1.5-8.59-4.51-11.59c-3.01-3.01-6.8-4.51-11.37-4.51s-8.34,1.5-11.31,4.51c-2.97,3.01-4.46,6.87-4.46,11.59s1.48,8.59,4.46,11.59Z"/>
  <path class="st2" d="M483.62,83.39c1.37-3.66,3.64-6.4,6.8-8.22,3.16-1.83,6.68-2.74,10.57-2.74v16.45c-4.5-.53-8.51.38-12.05,2.74-3.54,2.36-5.31,6.28-5.31,11.77v27.3h-14.74v-57.12h14.74v9.82Z"/>
  <path class="st2" d="M567.92,130.68h-17.13l-20.79-25.95v25.95h-14.74V50.72h14.74v48.07l19.65-25.23h17.59l-22.96,28.22,23.64,28.9Z"/>
  <path class="st2" d="M616.93,73.56h15.76l-20.82,57.21c-2.97,8.15-6.91,14.08-11.81,17.78-4.91,3.7-11.01,5.36-18.31,4.98v-13.71c3.96.08,7.1-.76,9.42-2.51,2.32-1.75,4.17-4.57,5.54-8.45l-23.42-55.29h16.11l14.89,38.39,12.63-38.39Z"/>
  <path class="st0" d="M710.14,50.72c7.69,0,14.16,2.59,19.42,7.77,5.25,5.18,7.88,11.54,7.88,19.08s-2.63,13.9-7.88,19.08c-5.25,5.18-11.73,7.77-19.42,7.77h-14.05v26.27h-15.76V50.72h29.81ZM710.14,89.67c3.35,0,6.13-1.16,8.34-3.48,2.21-2.32,3.31-5.2,3.31-8.62s-1.11-6.4-3.31-8.68c-2.21-2.29-4.99-3.43-8.34-3.43h-14.05v24.22h14.05Z"/>
  <path class="st0" d="M792.38,73.56h14.74v57.12h-14.74v-6.74c-4.42,5.56-10.62,8.34-18.62,8.34s-14.15-2.91-19.59-8.74c-5.45-5.83-8.17-12.97-8.17-21.42s2.72-15.59,8.17-21.42c5.44-5.83,11.97-8.74,19.59-8.74,8,0,14.2,2.78,18.62,8.34v-6.74ZM765.2,113.71c2.97,3.01,6.74,4.51,11.31,4.51s8.36-1.5,11.36-4.51c3.01-3.01,4.51-6.87,4.51-11.59s-1.51-8.59-4.51-11.59c-3.01-3.01-6.8-4.51-11.36-4.51s-8.34,1.5-11.31,4.51c-2.97,3.01-4.46,6.87-4.46,11.59s1.49,8.59,4.46,11.59Z"/>
  <path class="st0" d="M840.93,83.39c1.37-3.66,3.64-6.4,6.8-8.22,3.16-1.83,6.68-2.74,10.57-2.74v16.45c-4.49-.53-8.51.38-12.05,2.74-3.54,2.36-5.31,6.28-5.31,11.77v27.3h-14.74v-57.12h14.74v9.82Z"/>
  <path class="st0" d="M925.23,130.68h-17.13l-20.79-25.95v25.95h-14.74V50.72h14.74v48.07l19.65-25.23h17.59l-22.96,28.22,23.64,28.9Z"/>
  <path class="st0" d="M974.24,73.56h15.76l-20.82,57.21c-2.97,8.15-6.91,14.08-11.81,17.78-4.91,3.7-11.01,5.36-18.31,4.98v-13.71c3.96.08,7.1-.76,9.42-2.51,2.32-1.75,4.17-4.57,5.54-8.45l-23.42-55.29h16.11l14.89,38.39,12.64-38.39Z"/>
  <path class="st1" d="M461.72,208.26c2.33.91,4.21,2.35,5.63,4.34,1.42,1.99,2.14,4.25,2.14,6.8,0,3.41-1.21,6.32-3.63,8.74-2.42,2.42-5.33,3.63-8.74,3.63h-19.56v-45.33h18.07c3.28,0,6.09,1.17,8.42,3.5,2.33,2.33,3.5,5.14,3.5,8.42,0,2.16-.53,4.11-1.59,5.86-1.06,1.75-2.47,3.1-4.24,4.05ZM455.63,189.67h-14.64v17.36h14.64c2.33,0,4.33-.85,5.99-2.56,1.66-1.71,2.49-3.75,2.49-6.12s-.83-4.41-2.49-6.12c-1.66-1.71-3.66-2.56-5.99-2.56ZM457.12,228.53c2.46,0,4.57-.89,6.31-2.69,1.75-1.79,2.62-3.94,2.62-6.44s-.87-4.65-2.62-6.44c-1.75-1.79-3.85-2.69-6.31-2.69h-16.13v18.26h16.13Z"/>
  <path class="st1" d="M494.29,228.53h22.67v3.24h-26.1v-45.33h25.77v3.24h-22.34v17.61h20.72v3.24h-20.72v18Z"/>
  <path class="st1" d="M582.43,232.48c-4.19,0-7.74-.96-10.65-2.88-2.91-1.92-4.89-4.52-5.93-7.8l2.98-1.75c.82,2.81,2.39,5.03,4.7,6.67,2.31,1.64,5.28,2.46,8.9,2.46s6.49-.84,8.45-2.53c1.96-1.68,2.95-3.86,2.95-6.54,0-2.51-.95-4.43-2.85-5.77-1.9-1.34-4.86-2.66-8.87-3.95-1.46-.53-2.52-.92-3.19-1.17s-1.63-.59-2.89-1.05c-1.26-.46-2.19-.88-2.79-1.27-.61-.39-1.33-.91-2.17-1.55-.84-.65-1.46-1.31-1.85-1.98-.39-.67-.74-1.47-1.04-2.4-.3-.93-.45-1.95-.45-3.08,0-3.67,1.31-6.62,3.92-8.84,2.61-2.22,5.88-3.33,9.81-3.33,3.54,0,6.56.89,9.07,2.65,2.5,1.77,4.34,4.06,5.5,6.86l-2.91,1.62c-2.16-5.22-6.05-7.84-11.66-7.84-3.11,0-5.59.82-7.45,2.46-1.86,1.64-2.79,3.73-2.79,6.28s.86,4.3,2.59,5.5c1.73,1.21,4.56,2.46,8.49,3.76,2.47.92,4.42,1.65,5.84,2.18s2.94,1.3,4.56,2.32c1.62,1.02,2.79,2.23,3.53,3.63.73,1.4,1.1,3.04,1.1,4.89,0,3.76-1.36,6.77-4.08,9.03-2.72,2.27-6.33,3.4-10.81,3.4Z"/>
  <path class="st1" d="M644.92,186.43v3.24h-14.25v42.09h-3.5v-42.09h-14.25v-3.24h31.99Z"/>
  <path class="st1" d="M696.47,186.43l-16.51,26.68v18.65h-3.43v-18.65l-16.51-26.68h3.89l14.38,23.36,14.31-23.36h3.89Z"/>
  <path class="st1" d="M719.13,228.53h21.37v3.24h-24.8v-45.33h3.43v42.09Z"/>
  <path class="st1" d="M760.58,186.43h3.43v45.33h-3.43v-45.33Z"/>
  <path class="st1" d="M801.44,232.48c-4.19,0-7.74-.96-10.65-2.88-2.91-1.92-4.89-4.52-5.93-7.8l2.98-1.75c.82,2.81,2.38,5.03,4.69,6.67,2.31,1.64,5.28,2.46,8.9,2.46s6.49-.84,8.45-2.53c1.96-1.68,2.95-3.86,2.95-6.54,0-2.51-.95-4.43-2.85-5.77-1.9-1.34-4.85-2.66-8.87-3.95-1.46-.53-2.52-.92-3.19-1.17s-1.63-.59-2.89-1.05c-1.26-.46-2.19-.88-2.79-1.27s-1.33-.91-2.17-1.55c-.84-.65-1.46-1.31-1.85-1.98s-.74-1.47-1.04-2.4c-.3-.93-.45-1.95-.45-3.08,0-3.67,1.3-6.62,3.92-8.84,2.61-2.22,5.88-3.33,9.81-3.33,3.54,0,6.56.89,9.07,2.65,2.5,1.77,4.34,4.06,5.5,6.86l-2.91,1.62c-2.16-5.22-6.05-7.84-11.66-7.84-3.11,0-5.59.82-7.45,2.46-1.86,1.64-2.78,3.73-2.78,6.28s.86,4.3,2.59,5.5c1.73,1.21,4.56,2.46,8.49,3.76,2.47.92,4.42,1.65,5.84,2.18,1.42.53,2.94,1.3,4.56,2.32,1.62,1.02,2.79,2.23,3.53,3.63s1.1,3.04,1.1,4.89c0,3.76-1.36,6.77-4.08,9.03-2.72,2.27-6.32,3.4-10.81,3.4Z"/>
  <path class="st1" d="M867.18,186.43h3.43v45.33h-3.43v-21.69h-26.36v21.69h-3.43v-45.33h3.43v20.4h26.36v-20.4Z"/>
  </svg>