<?xml version="1.0" encoding="UTF-8"?>
<svg id="Layer_1" xmlns="http://www.w3.org/2000/svg" version="1.1" viewBox="0 0 480 480">
  <defs>
    <style>
      .st0 {
        fill: #d0ab69;
      }
    </style>
  </defs>
  <path class="st0" d="M75.43,415.72l-8.27-23.97c-9.94-23.77,2.91-31.72,2.91-31.72-11.29.99-17.83,10.82-17.83,10.82-14.11,18-1.46,38.14-1.46,38.14,7.87,18.22,8.48,23.68,8.48,23.68,2.55,18.04-7.62,27.82-13.08,31.68,0,0-6.07,4.73-15.41,7.76-6.86,3.21-17.7,2.44-17.7,2.44,33.07,6.78,58.73-17.13,58.73-17.13,13.31-17.36,3.62-41.71,3.62-41.71"/>
  <path class="st0" d="M205.3,445.42c-1.68-3.09-4.19-4.22-7.03-4.31-3.54-.12-7.08-.07-10.62-.03-3.27.04-6.1,1.24-7.9,5.13-.2-.23-.32-.32-.39-.45-1.52-3.19-3.96-4.5-6.76-4.62-3.94-.17-7.9-.17-11.84-.02-4.77.18-7.96,4.02-8.08,9.95-.16,8.33-.08,16.67-.1,25.01-.01,4.29-.22,3.9,3.14,3.9,1.45,0,1.63-.21,1.63-2.07,0-7.83,0-15.66,0-23.49,0-.76.03-1.52.09-2.28.29-3.7,1.96-5.68,4.93-5.74,2.89-.06,5.79.07,8.68-.05,5.11-.21,6.33,3.07,6.29,7.77-.06,7.36,0,14.73-.02,22.09-.01,4.36.02,3.73,3.05,3.76,1.53.02,1.71-.21,1.71-2.11,0-7.87,0-15.74,0-23.61,0-.76,0-1.53.06-2.28.27-3.32,1.99-5.48,4.57-5.54,3.57-.08,7.15-.08,10.72,0,2.21.05,3.79,1.69,4.33,4.35.2.97.23,2,.23,3.01.02,7.83.01,15.66.01,23.49,0,.34,0,.68,0,1.01-.02,1.15.41,1.73,1.36,1.69.61-.03,1.23,0,1.84,0,1.32-.01,1.6-.34,1.61-2.02,0-8.34.03-16.67-.01-25.01-.01-2.63-.27-5.25-1.5-7.52"/>
  <path class="st0" d="M233.03,450.99c-3.06,0-6.12,0-9.19,0-3.3,0-6.6-.02-9.9.02-.41,0-1.14.17-1.18.4-.18,1.17-.35,2.4-.21,3.56.12,1.01,1.01.79,1.63.79,5.72.01,11.43,0,17.15.01.58,0,1.16.02,1.73.12,1.67.3,2.77,1.67,2.98,3.75.07.71.02,1.44.09,2.15.11,1.09-.19,1.45-1.11,1.44-5.1-.06-10.21-.03-15.31-.02-1.05,0-2.11-.04-3.16.08-3.1.35-4.88,2.64-5.06,6.5-.05,1.18-.06,2.37,0,3.55.19,4.1,2.09,6.55,5.38,6.6,5.89.09,11.77.1,17.66,0,3.49-.06,5.67-2.53,5.86-6.87.2-4.55.27-9.14.06-13.69-.26-5.64-2.85-8.37-7.41-8.38M236.03,472.38c-.16,1.55-.95,2.51-2.2,2.71-.7.12-1.42.15-2.13.15-4.05.02-8.09,0-12.14,0-.41,0-.82,0-1.22-.04-1.86-.2-2.5-1.06-2.54-3.4-.04-2.8.68-3.79,2.93-3.82,2.72-.04,5.44,0,8.16,0h0c2.72,0,5.44.03,8.16-.02.85-.02,1.17.34,1.1,1.38-.07,1.01,0,2.03-.11,3.04"/>
  <path class="st0" d="M411.25,455.94c-1.14-3.55-3.51-4.89-6.42-4.94-3.44-.06-6.88.01-10.32-.03-2.7-.03-5.41-.16-7.69,2.93v-1.75c0-3.68,0-7.36,0-11.05,0-1.73-.16-1.92-1.5-1.93-.51,0-1.02.04-1.53,0-.96-.08-1.35.44-1.35,1.63.02,10.16-.04,20.32.03,30.47.04,5.52,2.7,8.66,7.16,8.69,5,.03,10.01.03,15.01,0,4.55-.02,7.15-3.23,7.21-8.9.04-3.72.06-7.45-.02-11.17-.03-1.33-.2-2.73-.59-3.96M403.32,475.24c-4.12.05-8.23.05-12.35,0-2.82-.04-4.1-1.68-4.13-5.17-.02-3.04-.02-6.09,0-9.14.03-3.5,1.33-5.09,4.14-5.16.07,0,.14,0,.2,0h6.02c2.04,0,4.08-.03,6.12,0,2.87.05,4.16,1.65,4.19,5.23.03,3,.03,6.01,0,9.01-.03,3.57-1.31,5.19-4.2,5.22"/>
  <path class="st0" d="M301.65,451.05c-6.77-.13-13.54-.06-20.31-.04-.31,0-.86.21-.88.4-.14,1.19-.29,2.42-.14,3.58.05.36,1.05.74,1.61.74,5.72.06,11.43.03,17.15.04.64,0,1.3.04,1.93.17,1.34.27,2.28,1.29,2.59,2.87.27,1.36.22,2.82.33,4.39h-1.31c-4.15,0-8.3,0-12.45,0-1.9,0-3.81-.06-5.71.07-2.86.2-4.6,1.9-5.08,5.28-.28,1.96-.24,4.06-.02,6.05.32,2.89,1.79,4.7,4.15,5.15,1.14.22,2.3.22,3.45.22,5.1.01,10.21.06,15.31-.04,3.37-.07,5.6-2.42,5.79-6.51.22-4.97.25-9.98,0-14.95-.22-4.52-2.76-7.36-6.4-7.42M303.73,472.47c-.13,1.41-.92,2.35-2.05,2.61-.13.03-.27.07-.4.07-5.2,0-10.41.07-15.61-.03-1.6-.03-2.16-1.17-2.16-3.53,0-2.33.59-3.28,2.2-3.54.14-.02.27-.05.41-.05,2.82,0,5.65,0,8.47,0v-.02c2.76,0,5.51.02,8.27-.01.73,0,1.08.25,1.01,1.22-.07,1.09-.03,2.2-.14,3.29"/>
  <path class="st0" d="M335.74,451c-4.15-.03-8.3,0-12.45,0-1.53,0-2.96.47-4.23,1.57-.35.3-.66.67-1.19,1.23,0-3.92,0-7.47,0-11.02,0-3.97.33-3.59-2.91-3.59-1.27,0-1.44.2-1.44,1.73,0,10.07-.02,20.14,0,30.2.02,5.57,2.65,8.82,7.13,8.85,5.04.03,10.07.03,15.11,0,4.47-.03,7.1-3.27,7.17-8.84.04-3.76.05-7.53,0-11.29-.07-5.55-2.72-8.81-7.19-8.84M338.57,470.21c-.06,3.33-1.3,4.95-3.96,5-4.25.09-8.5.08-12.76,0-2.68-.05-3.96-1.76-3.98-5.1-.03-3.09-.03-6.18,0-9.26.03-3.39,1.36-5.03,4.11-5.08,2.07-.04,4.15,0,6.23,0s4.15-.03,6.23,0c2.77.05,4.08,1.61,4.14,5.05.06,3.13.06,6.26,0,9.39"/>
  <path class="st0" d="M274.04,455.87c-1.17-3.52-3.56-4.83-6.46-4.86-3.74-.04-7.49.02-11.23-.02-2.2-.03-4.19.55-5.91,2.93-.03-.75-.06-1.16-.06-1.56,0-3.34,0-6.69,0-10.03q0-3.13-2.51-3.13c-1.86,0-1.93.09-1.93,2.46,0,11.64.01,23.28,0,34.92,0,4.03.12,3.39,2.79,3.42,1.48.02,1.66-.21,1.66-2.03,0-5.59,0-11.17,0-16.76,0-3.88,1.21-5.4,4.31-5.41,3.75-.02,7.49-.02,11.24,0,3.14.01,4.4,1.58,4.41,5.47,0,5.04,0,10.07,0,15.11,0,4.03-.18,3.62,2.92,3.63,1.24,0,1.43-.22,1.43-1.76,0-6.09.04-12.19-.03-18.28-.01-1.36-.2-2.82-.61-4.07"/>
  <path class="st0" d="M374.24,450.99c-1.58,0-1.73.19-1.73,2.2,0,5.46,0,10.92,0,16.37-.01,4.19-1.2,5.67-4.54,5.68-2.69.01-5.38.02-8.06,0-1.5-.01-3,0-4.48-.18-1.43-.17-2.35-1.27-2.69-3-.16-.81-.22-1.67-.22-2.51-.02-5.58,0-11.17-.01-16.75,0-1.55-.21-1.79-1.41-1.81-.58,0-1.16.02-1.74,0-.86-.04-1.23.48-1.23,1.53.01,6.34-.07,12.69.04,19.04.09,5.25,2.73,8.34,6.95,8.41,2.45.04,4.9,0,7.35,0s4.97,0,7.45,0c1.57,0,3.04-.45,4.32-1.61,2.04-1.84,2.67-4.48,2.68-7.45.02-5.54,0-11.08,0-16.63q0-3.31-2.68-3.31"/>
  <path class="st0" d="M259.02,288.62c.81-.31,2.19-1.59,4.13-3.85,1.94-2.25,2.91-3.75,2.91-4.5,0-.63-1.25-2.14-3.75-4.55-2.5-2.41-4.06-3.61-4.69-3.61-.56,0-1.84,1.19-3.85,3.56-1.81,2.12-2.97,3.66-3.47,4.6.19.87,1.5,2.49,3.94,4.83,2.44,2.35,4.03,3.52,4.78,3.52"/>
  <path class="st0" d="M234.36,272.11c13.88,0,42.1-4.8,49.3-6.73,13.01-3.5,19.51-10.22,19.51-20.17,0-4.75-1.69-11.63-5.06-20.64-2.25,3.06-4.28,6.28-6.1,9.66,2.88,5.75,4.31,9.72,4.31,11.91,0,2.63-5.61,5.22-16.81,7.79-8.51,1.94-17.68,4.16-23.25,4.47-1.13.06-19.64,2.82-24.4,2.82-5.57,0-11.18-.63-16.81-1.88-8.2-1.81-12.37-4.47-12.49-7.97v-2.25c-.07-1.94,1.47-7.16,4.6-15.66l-.75.09c-5.75,4.82-8.63,10.66-8.63,17.54,0,14.01,12.2,21.01,36.58,21.01"/>
  <path class="st0" d="M308.07,307.05c-4.48-.41-8.57-.61-12.29-.61-2.5,0-3.98.23-4.45.7.35.93,4.07,2.33,11.16,4.18,6.86,1.8,11.1,2.7,12.73,2.7,2.38,0,5.61-1.89,9.68-5.67,9.71-8.95,14.56-19.29,14.56-31.03,0-5.06-.93-10.11-2.79-15.17-2.33-6.28-5.46-10.05-9.41-11.33-.12-.06-.32-.06-.61,0-2.79,0-5.58,3.08-8.37,9.24-2.44,5.4-3.66,9.88-3.66,13.42,0,2.33,1.19,4.18,3.57,5.58,1.98,1.16,4.21,1.74,6.71,1.74.52,0,3.43-.23,8.72-.7h1.57c0,8.66-9.04,17.64-27.11,26.94M327.51,270.7h-2.18c-2.5,0-4.5-.47-6.01-1.4l-.44-.87c0-1.05.57-2.75,1.7-5.1,1.13-2.35,2.14-3.53,3.01-3.53,2.03,0,4.8,3.35,8.28,10.03-2.62.58-4.07.87-4.36.87"/>
  <path class="st0" d="M248.03,326.89c-.48,0-1.58,1.02-3.3,3.06-1.55,1.82-2.55,3.14-2.98,3.94.16.75,1.29,2.13,3.38,4.14,2.09,2.01,3.46,3.02,4.1,3.02.7-.27,1.88-1.37,3.54-3.3,1.66-1.93,2.49-3.22,2.49-3.86,0-.54-1.07-1.84-3.22-3.9-2.14-2.07-3.49-3.1-4.02-3.1"/>
  <path class="st0" d="M285.93,304.53c0-4.07-1.45-9.98-4.34-17.7-1.93,2.63-3.67,5.39-5.23,8.28,2.47,4.93,3.7,8.34,3.7,10.22,0,2.25-4.81,4.48-14.42,6.68-7.3,1.66-13.34,2.63-18.12,2.9-.97.06-3.49.08-7.57.08-4.78,0-9.58-.53-14.42-1.61-7.03-1.55-10.6-3.83-10.71-6.84v-1.93c-.06-1.66,1.26-6.14,3.94-13.43l-.64.08c-4.93,4.13-7.4,9.14-7.4,15.04,0,12.01,10.46,18.02,31.37,18.02,11.9,0,20.94-.83,27.11-2.49,11.15-3,16.73-8.77,16.73-17.29"/>
  <path class="st0" d="M259.66,195.24l9.97-.79c2.42-3.22,4.41-6.16,5.98-8.82-6.04,1.81-11.36,2.72-15.96,2.72-1.57,0-3.89-.26-6.95-.79-3.06-.52-5.38-.79-6.95-.79-3.27,0-6.63,1.13-10.1,3.39-2.66,1.73-4.05,2.72-4.17,2.96,3.67-.85,6.16-1.27,7.49-1.27,1.25,0,2.46.24,3.63.73,1.53.64,2.3,1.49,2.3,2.54-4.96,6.97-7.7,10.92-8.22,11.85-2.3,4.15-3.45,8.62-3.45,13.42,0,2.05.12,4.23.36,6.53.68,6.49,4.09,11.32,10.21,14.51,4.96,2.58,11.04,3.87,18.25,3.87,5.2,0,9.33-.66,12.39-1.99,2.58-1.13,6.05-3.59,10.4-7.37-6.97,1.13-13.94,1.69-20.91,1.69s-13.06-1.35-18.13-4.05c-6.33-3.39-9.49-8.28-9.49-14.69,0-6.04,2.4-11.4,7.19-16.08,4.63-4.55,10.01-7.07,16.14-7.56"/>
  <path class="st0" d="M219.62,220.56c0,13.13.34,19.7,1.03,19.7,1.5-4.44,2.78-9.54,3.84-15.29.44-2.38.66-5.06.66-8.07,0-4.32-.64-10.79-1.92-19.42-1.28-8.63-1.92-15.1-1.92-19.42,0-3.13.5-5.13,1.5-6,4.63-4,10.72-6,18.29-6,1.69,0,4.28.66,7.79,1.97,3.5,1.32,5.91,1.97,7.22,1.97s2.83-1.2,4.74-3.61c1.91-2.41,2.86-4.27,2.86-5.58,0-.5-2.72-2.81-8.16-6.94-3.32-2.5-7.16-6.03-11.54-10.6-1.75-1.81-3.69-2.72-5.82-2.72-3.69,0-7,2.22-9.94,6.66-2.75,4-4.13,7.94-4.13,11.82,0,1.75.03,2.88.09,3.38,1.75-4.5,2.75-6.94,3-7.32,1.63-2.94,3.66-4.41,6.1-4.41,3,0,6.13,1.63,9.38,4.88-9.07,2.44-15.38,5.04-18.95,7.79-5.38,4.13-8.07,10.13-8.07,18.01,0,4.38.66,10.91,1.97,19.61,1.32,8.69,1.97,15.23,1.97,19.6"/>
  <path class="st0" d="M412.17,183.45l-57.73-65.15C292.73,56.72,336.98,0,336.98,0c-27.58,23.06-29.49,67.22-29.49,67.22-8.99,84.57,54.2,129.32,54.2,129.32,47.97,46.76,57.83,63.82,57.83,63.82,33.98,55.49,22.65,105.79,14.45,128.22,0,0-.98,3.06-3.03,8.12-5.05,2.14-11.23,3.19-17.87,3.48,12.04-26.9,13.81-49.38,13.81-49.38,8.63-68.48-51.09-121.51-51.09-121.51l-55.59-54.11c-59.52-51.04-15.68-99.56-15.68-99.56-27.18,19.87-29.55,57.15-29.55,57.15-9.74,71.49,51.41,108.31,51.41,108.31,46.27,38.74,55.71,52.99,55.71,52.99,31.18,44.41,21.78,85.4,13.66,105.49-21.27-2.15-41.57-8.41-41.57-8.41,20.61-8.81,26.07-13.86,33.98-26.15,1.81-2.81,3.35-5.8,4.59-8.9l2.88-7.2c-2.61-3.1-3.57-4.18-11.06-9.17-55.94-37.24-102.77,1.69-102.77,1.69,30.37,14.42,31.35,58.04,31.35,58.04-5.62,3.66-11.59,4.84-11.59,4.84h-15.18c-10.11-65.44-57.16-57.17-57.16-57.17-19.27,2.21-39.36,20.26-39.36,20.26l-2.46-.37c34.85-49.36,4.51-109.41,4.51-109.41-13.83-49.38,2.95-60.88,5.1-62.13-20.72,10.46-26.42,46.3-26.42,46.3-6.15,20.25,12.71,77.72,12.71,77.72,11.11,47.05-21.92,77.89-24.08,79.84-.79,1.1-1.62,2.25-2.48,3.42h-7.16c.46-17.19-4.44-30.73-4.44-30.73l-10.86-34.75c-13.04-34.13,3.78-48.67,3.78-48.67-10.98,2.74-18.51,12.35-21.67,17.13h0s-29.42,17.95-32.19,50.95c0,0-3.89,38.11,12.87,47.53,0,0,12.15,6.38,27.43,5.36-.1,21.82-11.26,35.74-17.6,41.88,0,0-7.94,8.35-20.17,14.75-8.98,6.2-23.18,7.14-23.18,7.14,43.31,3.87,76.89-37.37,76.89-37.37,1.65-2.74,3.03-5.54,4.17-8.36h163.57s19.37-4.39,27.94-23.61c21.85,22.87,47.42,25.59,64.48,24.08,5-.85,9.91-1.45,9.91-1.45,2.61-.54,4.74-1.1,6.29-1.56-.06.11-.13.22-.19.33,5.42-1.58,13.41-4.44,21-7.27,25.96-43.21,28.58-89.72,28.58-89.72,7.89-81.02-54.05-144.97-54.05-144.97M92.95,364.11c-.55-23.71,8.97-32.12,13.88-34.88-3.59,21.06,6.03,37.39,6.03,37.39,2.41,6.09,4.29,11.19,5.78,15.45-23.85,8.28-25.69-17.95-25.69-17.95M163.12,402.21s28.29-31.22,57.5-33.71c0,0,39.97-6.08,42.43,34.26l-99.93-.55ZM334.95,377.34c-1.89-20.16-13.35-30.12-13.35-30.12,34.7-9.2,51.11,6.26,51.11,6.26-7.5,17.32-37.76,23.86-37.76,23.86"/>
  <path class="st0" d="M383.6,97.28c-20,0-36.22-16.13-36.44-36.04-.23-20.46,16.42-37.1,36.86-36.88,19.82.21,35.88,16.27,36.06,36.12.18,20.37-16.31,36.83-36.48,36.8M416.98,60.8c-.05-18.49-15.06-33.36-33.41-33.33-18.41.02-33.48,15.07-33.3,33.68.17,18.27,15.14,33.18,33.66,33.02,18.21-.16,33.03-14.99,33.05-33.37"/>
  <path class="st0" d="M370.3,42.63h.29c5.25,0,10.5,0,15.75,0,1.9,0,3.8.1,5.68.41,1.58.26,3.07.74,4.35,1.74,1.55,1.2,2.6,2.77,3.16,4.63.8,2.62.74,5.23-.33,7.77-.92,2.17-2.54,3.68-4.65,4.68-.9.43-1.84.72-2.82.93-.05.01-.1.03-.18.05.24.25.46.49.69.72,2.46,2.6,4.58,5.47,6.45,8.53,1.37,2.26,2.79,4.48,4.19,6.72.03.05.06.1.11.18h-8.8c-.33-.49-.67-1-1.02-1.52-2.12-3.13-4.23-6.27-6.35-9.4-.59-.86-1.21-1.71-1.93-2.46-.94-.98-2.09-1.53-3.45-1.66-1.23-.13-2.45-.1-3.68-.1-.02,0-.05,0-.09.02v15.13h-7.35v-36.36ZM377.65,58.01h.3c2.37,0,4.74,0,7.12-.03,1.34-.01,2.69-.04,4.01-.29,1.5-.27,2.55-1.12,3.08-2.56.36-.98.39-2,.18-3.02-.25-1.18-.9-2.07-1.96-2.65-.73-.4-1.52-.58-2.35-.6-1.36-.03-2.73-.06-4.09-.07-2.01-.01-4.01,0-6.02,0-.08,0-.16,0-.26.01v9.2Z"/>
</svg>