<?xml version="1.0" encoding="UTF-8"?>
<svg id="Layer_1" xmlns="http://www.w3.org/2000/svg" version="1.1" viewBox="0 0 650 340">
  <!-- Generator: Adobe Illustrator 30.0.0, SVG Export Plug-In . SVG Version: 2.1.1 Build 123)  -->
  <defs>
    <style>
      .st0, .st1 {
        fill: #004316;
      }

      .st1, .st2 {
        fill-rule: evenodd;
      }

      .st2 {
        fill: #97c43d;
      }
    </style>
  </defs>
  <path class="st2" d="M524.9,9.1c-54.4-28.8-124.2,15.4-122.4,71.3,0,0,4-31.4,32-53.6,23.3-18.5,52-19.4,79.7-4.9-13.5-4.7-41.3-19-78.6,8.8-24.3,18.1-36.8,55.6-16.6,88.7,0,0-20.4-52.1,21.7-80.5,38.6-26.1,68.4-1.5,68.4-1.5-20.2-8.8-67.5-7.1-79.8,42.6-11.1,45.3,35.3,70.8,59.6,69.8,21.5-.9,86-25,49.6-105.9,26.5,26.9,25.5,78.9-11.4,105-17.1,12.1-47.9,23.9-82,8.6,0,0,56.1,37.7,107.3-19.5,28.3-31.6,27.9-99.6-27.6-129l.1.1ZM317.1,81c-22.9-16.4-35.1-15.6-58.8.2-23.4,15.7-55.4,53.2-61,60-2.9,3.5,2,8.6,7.4,1.5,4-5.3,16.9-18.9,16.9-18.9l.3,78.2h2.8s1.1-55.9-.1-81.1c13.5-17.4,32.8-31.4,41.4-37.3,13.1-9,26.5-11.5,41.9-2.2s33.6,28.2,46.1,41.7l-.5,126.1,3.7,1v-123.6s10.3,12,13.7,15.9c3.5,3.9,4.9,5.9,6.9,4.2s2.9-3.4-1-7.6c-3.9-4.2-38-42.7-59.5-58.1h-.2ZM292.6,175.6c-8.8-.3-9.6,2.2-9.6,6.6v47.3l3.2.2v-45.6c0-4.2,1-4.4,6.1-4.4s6.1,0,6.1,3.9-.2,47.5-.2,47.5l2.7.8s1.3-45.2,1-49.1c-.5-5.4-.5-7.1-9.3-7.4v.2ZM80.4,270.9c-5.6-15.7-11.5-23.5-21.8-23.3s-16.7,9.8-18.9,15.4c-2.2,5.6-7.6,20.8-8.3,23.5,3.9,0,18.6,1.2,25.7-26,3.2,8.1,7.1,15.2,11.3,20.6,4.2,5.4,11.3,8.1,18.4,3.2s12.5-16.9,20.1-36.8c-4.2-1.2-15.2-.5-26.5,23.3v.1ZM142.7,251.6c-6.4-4.2-20.6-1.7-28.9,12.3-8.3,14,0,24.7,10.8,26.2,8.3,1.2,16.2-2.9,21.1-13,4.9-10,3.4-21.3-2.9-25.5h-.1ZM136,262.1c2.7,4.7,2,13.7-3.2,21.1-5.1,7.4-8.8-1.7-9.3-6.1s1.2-23.5,14.9-22.5c0,0-5.1,3-2.5,7.6l.1-.1ZM178.3,253c-4.2,6.1-9.9,20.7-11.8,25.5-1.8-11-.1-17.9-.1-22.3s-1.5-5.6-5.6-5.6-5.4,1-5.6,5.9c-.5,9.8.5,20.3,1.7,26.5,1.2,6.1,5,8.7,10.3,5.1,7.4-4.9,14.8-23.8,17.5-30.1,2.7-6.4-2.2-11-6.4-4.9v-.1ZM217.3,264.2c16.5-12.5-1.5-16.2-9.2-12.5-8.7,4.1-16.5,14.7-18,23.9-1.5,9.2,7.7,18,21.7,12.5s12.5-12.5,9.2-14.7c1.5-5.9-2.6-5.1-17.3-4.4,0,0,1.8-6.6,6.6-10.3,5.4-4.1,4-1.8,1.5,4.4-2.6,6.3,2.2,4,5.5,1.1ZM204,278.5h11.8c-.7,3-3.4,4.3-7,4.8-3,.4-7-1.8-4.8-4.8ZM284.5,255.7c0-3.7-.4-5.5-4.4-5.1s-5.6,0-7.4,4.4c-3.3,8.1-7,11.4-9.9,16.2-1.8-4.8-3-9.9-4-13.6-1.1-3.6,0-7-6.2-7s-5.9,3-5.9,5.9-11.7,19.9-16.1,29.5c-2.8,4.3,0,4.2.8,4.1,8.5-1.1,15.1-18.5,16.4-19.2,1.5-.7,4,7,7.4,14.3,3.3,7.4,7.4,4,9.6-.7,2.2-4.8,4-7.4,8.5-13.2,4.8,21.7,9.9,18.8,14.7,16.9,4.8-1.8,3.7-4.8,0-9.2-3.7-4.4-3.3-19.5-3.3-23.2l-.2-.1Z"/>
  <path class="st1" d="M0,257.8s69.9-84,280.7-26.3c135.9,37.2,270.4,77.4,369.3-17.8,0,0-62.6,58.8-153.8,54.8-11.1-37.5-48.1-153.9,40.6-165.6-21.8-7.1-40.9,6.6-51.6,17.7l.4-6.8c6.6-12.9,10.4-21.5,12.6-27.5-2.5,1.9-5,4.6-12.9,14.1-7.6-16.7-20.9-30.4-42.9-33,19.2,13.2,37.8,28.1,32.8,58s-11.7,95.8,7.6,142.5c-26.2-.9-95.2-11-145.7-26.5s-113.8-30.9-164-34.7C123,202.9,43.8,206,0,257.7v.1Z"/>
  <g>
    <path class="st0" d="M295.2,311.8h17.3v4.5h-12.7v7.2h10.2v4.4h-10.2v7.1h12.7v4.5h-17.3v-27.7Z"/>
    <path class="st0" d="M330.5,319.8l-.2,4s-3.2-.4-4.7-.4c-4.1,0-5,1.5-5,5.8s.8,6.4,5,6.4,4.7-.4,4.7-.4v4c.1,0-3.9.7-6.1.7-6.1,0-8.3-3.1-8.3-10.7s2.4-10.2,8.4-10.2,6.1.8,6.1.8h.1Z"/>
    <path class="st0" d="M351.4,329.4c0,6.4-2.1,10.5-9,10.5s-9-4-9-10.5,2.2-10.4,9-10.4,9,4,9,10.4ZM346.8,329.4c0-4.2-1.1-6.2-4.3-6.2s-4.4,1.9-4.4,6.2.8,6.4,4.4,6.4,4.3-2.2,4.3-6.4Z"/>
    <path class="st0" d="M356,319.6h4.6v2.1s2.6-2,6-2.6v4.9c-3.6.7-6,2.1-6,2.1v13.5h-4.6v-20Z"/>
    <path class="st0" d="M385.5,335.4v3.6s-4.5,1-8,1c-6,0-8.4-3.2-8.4-10.2s3.1-10.7,8.7-10.7,8.5,2.9,8.5,9.1l-.3,3.3h-12.3c0,2.9,1.2,4.3,4.5,4.3s7.4-.4,7.4-.4h-.1ZM381.7,327.9c0-3.5-1.2-4.8-4-4.8s-4.1,1.5-4.1,4.8h8.1Z"/>
    <path class="st0" d="M404.8,323.9s-4.8-.6-7.2-.6-3.3.5-3.3,2,.8,1.6,4.2,2.1c5.3.8,7,2.2,7,6.2s-3,6.4-8,6.4-7.5-.9-7.5-.9l.2-3.9s4.8.6,6.9.6,3.8-.6,3.8-2.2-.6-1.6-3.8-2.1c-5.1-.8-7.4-2-7.4-6.1s3.6-6.3,7.6-6.3,7.6.9,7.6.9v3.9h-.1Z"/>
    <path class="st0" d="M427.1,329.4c0,6.4-2.1,10.5-9,10.5s-9-4-9-10.5,2.3-10.4,9-10.4,9,4,9,10.4ZM422.4,329.4c0-4.2-1.1-6.2-4.3-6.2s-4.4,1.9-4.4,6.2.8,6.4,4.4,6.4,4.3-2.2,4.3-6.4Z"/>
    <path class="st0" d="M431.6,319.6h4.6v2.1s2.6-2,6-2.6v4.9c-3.6.7-6,2.1-6,2.1v13.5h-4.6v-20Z"/>
    <path class="st0" d="M450.9,323.7v8.2c0,2.8,0,3.8,2.1,3.8s3.2-.1,3.2-.1l.2,3.9s-2.7.6-4.1.6c-4.6,0-6-1.8-6-7.5v-8.8h-2.5v-4.1h2.5v-5.8h4.6v5.8h5.4v4.1h-5.4v-.1Z"/>
  </g>
</svg>